<svg height="57" viewBox="0 0 32 57" width="32" xmlns="http://www.w3.org/2000/svg"><g fill="none" fill-rule="evenodd"><g fill="#13cdc2" transform="translate(0 3.613)"><path d="m26 .253h-20l-6 7.015 16 19.042 16-19.042zm-16.72 6.013h-5.78l3.04-3.568zm3.56 0 3.16-3.688 3.16 3.688zm7.16 2.004-4 13.39-4-13.39zm-9.48 0 3.78 12.91-10.84-12.91zm10.98 0h7.06l-10.86 12.91zm1.24-2.004 2.74-3.568 3.02 3.568h-5.8zm1.26-4.009-2.88 3.628-2.92-3.628zm-13.14 3.668-2.86-3.668h5.8z" fill-rule="nonzero"/><path d="m17 24.387v18h6v2h-6v3h8v2h-8v3h-2v-28z"/></g><path d="m0 0h32v32h-32z" fill-rule="nonzero"/></g></svg>