<svg xmlns="http://www.w3.org/2000/svg" xmlns:xlink="http://www.w3.org/1999/xlink" width="32" height="38" viewBox="0 0 32 38">
    <defs>
        <filter id="yxtni8nn5a">
            <feColorMatrix in="SourceGraphic" values="0 0 0 0 0.109804 0 0 0 0 0.678431 0 0 0 0 0.698039 0 0 0 1.000000 0"/>
        </filter>
        <path id="3mkqv0weob" d="M0 0L31.817 0 31.817 13.178 0 13.178z"/>
    </defs>
    <g fill="none" fill-rule="evenodd">
        <g filter="url(#yxtni8nn5a)" transform="translate(-964 -1135)">
            <g>
                <g fill="#13CDC2" fill-rule="nonzero">
                    <path d="M19.5.19h-15L0 5.45l12 14.281 12-14.28L19.5.19zM6.96 4.7H2.625l2.28-2.676L6.96 4.699zm2.67 0L12 1.932 14.37 4.7H9.63zM15 6.202l-3 10.042L9 6.203h6zm-7.11 0l2.835 9.68-8.13-9.68H7.89zm8.235 0h5.295l-8.145 9.68 2.85-9.68zm.93-1.504l2.055-2.675 2.265 2.675h-4.35.03zM18 1.693l-2.16 2.72-2.19-2.72H18zm-9.855 2.75L6 1.694h4.35l-2.205 2.75z" transform="translate(964 1135) translate(4)"/>
                </g>
                <g transform="translate(964 1135) translate(0 24)">
                    <mask id="y297guon2c" fill="#fff">
                        <use xlink:href="#3mkqv0weob"/>
                    </mask>
                    <path fill="#13CDC2" d="M29.978 4.814l-12.592 5.71c-.473.215-1.34.403-1.857.403H4.896V5.04l6.121-3.464c.384-.216 1.119-.309 1.544-.193L19.2 3.178c.166.045.302.15.382.297.082.147.096.32.04.504-.129.415-.63.763-1.056.721l-5.433-.372c-.372-.017-.685.254-.71.62-.026.367.251.686.618.711l5.435.372c.046.003.094.004.142.004.794 0 1.562-.457 2-1.128l9.16-1.495c.314-.052.626.16.698.462.06.357-.167.79-.498.94zm-28.645 7.03h2.23V3.535h-2.23v8.31zm30.45-8.224h.002l-.003-.012c0-.01-.004-.02-.006-.03-.228-.983-1.212-1.646-2.214-1.483l-8.596 1.404c-.032-.23-.1-.456-.214-.665-.256-.467-.684-.802-1.206-.943L12.91.095c-.764-.205-1.86-.068-2.548.321L4.896 3.508V2.202H0v10.976h4.896v-.918h10.633c.705 0 1.763-.228 2.408-.521l12.592-5.71c.888-.403 1.432-1.454 1.255-2.409z" mask="url(#y297guon2c)"/>
                </g>
            </g>
        </g>
    </g>
</svg>
