<svg height="41" viewBox="0 0 44 41" width="44" xmlns="http://www.w3.org/2000/svg" xmlns:xlink="http://www.w3.org/1999/xlink"><filter id="a"><feColorMatrix in="SourceGraphic" values="0 0 0 0 0.109804 0 0 0 0 0.678431 0 0 0 0 0.698039 0 0 0 1.000000 0"/></filter><g fill="none" fill-rule="evenodd" filter="url(#a)" transform="translate(-204 -1130)"><g fill-rule="nonzero"><path d="m26 .253h-20l-6 7.015 16 19.042 16-19.042zm-16.72 6.013h-5.78l3.04-3.568zm3.56 0 3.16-3.688 3.16 3.688zm7.16 2.004-4 13.39-4-13.39zm-9.48 0 3.78 12.91-10.84-12.91zm10.98 0h7.06l-10.86 12.91zm1.24-2.004 2.74-3.568 3.02 3.568h-5.8zm1.26-4.009-2.88 3.628-2.92-3.628zm-13.14 3.668-2.86-3.668h5.8z" fill="#13cdc2" transform="translate(204 1142.613)"/><path d="m0 0h32v32h-32z" transform="translate(204 1139)"/><path d="m14.625.142h-11.25l-3.375 3.946 9 10.712 9-10.71-3.375-3.949zm-9.405 3.383h-3.251l1.71-2.007zm2.003 0 1.777-2.075 1.777 2.075zm4.027 1.127-2.25 7.532-2.25-7.532zm-5.332 0 2.126 7.26-6.098-7.26zm6.176 0h3.971l-6.109 7.26zm.697-1.127 1.541-2.007 1.7 2.007h-3.263zm.709-2.255-1.62 2.04-1.643-2.04zm-7.391 2.063-1.609-2.063h3.263z" fill="#13cdc2" transform="translate(230 1132.032)"/><path d="m0 0h18v18h-18z" transform="translate(230 1130)"/></g></g></svg>