<svg xmlns="http://www.w3.org/2000/svg" xmlns:xlink="http://www.w3.org/1999/xlink" width="34" height="40" viewBox="0 0 34 40">
    <defs>
        <filter id="od67h23uaa">
            <feColorMatrix in="SourceGraphic" values="0 0 0 0 0.109804 0 0 0 0 0.678431 0 0 0 0 0.698039 0 0 0 1.000000 0"/>
        </filter>
        <path id="iqd1ysquqb" d="M0 0L34 0 34 40 0 40z"/>
    </defs>
    <g fill="none" fill-rule="evenodd">
        <g filter="url(#od67h23uaa)" transform="translate(-596 -1134)">
            <g>
                <g fill="#13CDC2" fill-rule="nonzero">
                    <path d="M14.625.142H3.375L0 4.088 9 14.8l9-10.71L14.625.141zM5.22 3.525H1.969l1.71-2.007L5.22 3.525zm2.003 0L9 1.45l1.777 2.075H7.223zm4.027 1.127L9 12.184 6.75 4.652h4.5zm-5.332 0l2.126 7.26-6.098-7.26h3.972zm6.176 0h3.971l-6.109 7.26 2.138-7.26zm.697-1.127l1.541-2.007 1.7 2.007h-3.263.022zM13.5 1.27l-1.62 2.04-1.643-2.04H13.5zM6.109 3.333L4.5 1.27h3.263L6.109 3.333z" transform="translate(596 1134) translate(7 10.032)"/>
                </g>
                <g transform="translate(596 1134)">
                    <mask id="8pv908ohbc" fill="#fff">
                        <use xlink:href="#iqd1ysquqb"/>
                    </mask>
                    <path fill="#13CDC2" d="M13.692 29.168c-3.613-.562-6.8-2.48-8.974-5.4-2.194-2.93-3.12-6.68-2.54-10.284C3.362 6.012 10.456.886 17.982 2.06c7.53 1.174 12.695 8.209 11.514 15.682-.574 3.62-2.534 6.803-5.519 8.96-2.389 1.729-5.208 2.636-8.112 2.636-.72 0-1.445-.058-2.173-.17m10.088-.014l.516-.302L32.47 40 34 38.89l-8.158-11.148.446-.395c6.025-5.336 7.016-14.272 2.306-20.783C26.148 3.162 22.518.908 18.366.218c-4.158-.688-8.327.266-11.754 2.69C3.186 5.335.916 8.94.22 13.06c-.695 4.12.268 8.262 2.712 11.662 2.456 3.42 6.263 5.744 10.447 6.378l.005.002c3.555.57 7.287-.123 10.396-1.947" mask="url(#8pv908ohbc)"/>
                </g>
                <path fill-rule="nonzero" d="M7 8H25V26H7z" transform="translate(596 1134)"/>
            </g>
        </g>
    </g>
</svg>
