<?xml version="1.0" encoding="UTF-8"?>
<svg width="1920px" height="1080px" viewBox="0 0 1920 1080" version="1.1" xmlns="http://www.w3.org/2000/svg" xmlns:xlink="http://www.w3.org/1999/xlink">
    <!-- Generator: Sketch 51.1 (57501) - http://www.bohemiancoding.com/sketch -->
    <title>404_image</title>
    <desc>Created with Sketch.</desc>
    <defs>
        <radialGradient cx="51.4603851%" cy="50.263803%" fx="51.4603851%" fy="50.263803%" r="49.0398902%" gradientTransform="translate(0.514604,0.502638),scale(0.999733,1.000000),translate(-0.514604,-0.502638)" id="radialGradient-1">
            <stop stop-color="#A6EAEF" offset="0%"></stop>
            <stop stop-color="#ABEAEF" offset="7%"></stop>
            <stop stop-color="#CCEDF1" stop-opacity="0.700973732" offset="46%"></stop>
            <stop stop-color="#E0EEF2" stop-opacity="0.303838315" offset="78%"></stop>
            <stop stop-color="#E7EFF2" stop-opacity="0" offset="100%"></stop>
        </radialGradient>
        <radialGradient cx="50.8098175%" cy="51.1822801%" fx="50.8098175%" fy="51.1822801%" r="49.0343498%" gradientTransform="translate(0.508098,0.511823),scale(0.999733,1.000000),rotate(44.992345),translate(-0.508098,-0.511823)" id="radialGradient-2">
            <stop stop-color="#BCEAEF" offset="0%"></stop>
            <stop stop-color="#DDEEF1" stop-opacity="0.501641757" offset="78%"></stop>
            <stop stop-color="#E7EFF2" stop-opacity="0" offset="100%"></stop>
        </radialGradient>
    </defs>
    <g id="404_image" stroke="none" stroke-width="1" fill="none" fill-rule="evenodd">
        <g id="image" transform="translate(280.000000, 12.000000)" fill-rule="nonzero">
            <ellipse id="Oval" fill="#212930" opacity="0.16" cx="678.231687" cy="541.952056" rx="455.23113" ry="455.109506"></ellipse>
            <ellipse id="Oval" fill="url(#radialGradient-1)" opacity="0.15" cx="680.716285" cy="549.107899" rx="389.880929" ry="389.776764"></ellipse>
            <ellipse id="Oval" fill="url(#radialGradient-2)" opacity="0.25" transform="translate(676.121148, 538.570145) rotate(-45.000000) translate(-676.121148, -538.570145) " cx="676.121148" cy="538.570145" rx="181.893684" ry="181.845088"></ellipse>
            <ellipse id="Oval" fill="#FFFFFF" cx="681.77356" cy="538.569678" rx="116.976966" ry="116.945713"></ellipse>
            <path d="M681.445805,425.122612 C677.519187,425.125307 673.595214,425.326392 669.688901,425.725098 C727.625346,431.611167 771.703031,480.382112 771.703031,538.601388 C771.703031,596.820664 727.625346,645.591609 669.688901,651.477678 C673.594623,651.885208 677.518868,652.089835 681.445805,652.090734 C744.300836,652.090734 795.250944,601.281077 795.250944,538.601388 C795.250944,475.921699 744.321981,425.122612 681.445805,425.122612 Z" id="Shape" fill="#D6E0E5"></path>
            <ellipse id="Oval" fill="#CCD5DB" transform="translate(681.747612, 481.826163) rotate(-11.830000) translate(-681.747612, -481.826163) " cx="681.747612" cy="481.826163" rx="24.6239474" ry="24.6173686"></ellipse>
            <ellipse id="Oval" fill="#CCD5DB" cx="715.162322" cy="538.601388" rx="14.4529567" ry="14.4490952"></ellipse>
            <ellipse id="Oval" fill="#CCD5DB" cx="620.747616" cy="538.569678" rx="14.4529567" ry="14.4490952"></ellipse>
            <path d="M591.841703,509.808897 C591.845981,512.084227 590.478281,514.137893 588.376815,515.011589 C586.275348,515.885286 583.85433,515.406801 582.243482,513.799411 C580.632635,512.192021 580.149468,509.772554 581.019442,507.670009 C581.889417,505.567464 583.941054,504.196268 586.216997,504.196264 C589.319312,504.196258 591.835871,506.707416 591.841703,509.808897 Z" id="Shape" fill="#CCD5DB"></path>
            <ellipse id="Oval" fill="#CCD5DB" transform="translate(729.641599, 604.220424) rotate(-80.740000) translate(-729.641599, -604.220424) " cx="729.641599" cy="604.220424" rx="14.4529567" ry="14.4490952"></ellipse>
            <ellipse id="Oval" fill="#CCD5DB" transform="translate(661.655199, 569.843091) rotate(-76.590000) translate(-661.655199, -569.843091) " cx="661.655199" cy="569.843091" rx="22.4248142" ry="22.418823"></ellipse>
            <path d="M469.208313,606.396924 L369.338065,606.396924 L369.338065,578.693135 L458.857585,438.704973 L507.49226,438.704973 L507.49226,574.782261 L536.0387,574.782261 L536.0387,606.396924 L507.587415,606.396924 L507.587415,664.668951 L469.208313,664.668951 L469.208313,606.396924 Z M469.208313,574.782261 L469.208313,523.613226 C469.208313,510.474803 470.265588,489.863438 470.984536,476.714444 L469.557214,476.714444 C463.869071,488.447067 457.483127,499.809742 451.076037,511.891173 L409.842291,574.782261 L469.208313,574.782261 Z" id="Shape" fill="#FFFFFF"></path>
            <path d="M921.214752,606.396924 L821.355077,606.396924 L821.355077,578.693135 L910.906316,438.704973 L959.593854,438.704973 L959.593854,574.782261 L988.034567,574.782261 L988.034567,606.396924 L959.593854,606.396924 L959.593854,664.668951 L921.214752,664.668951 L921.214752,606.396924 Z M921.214752,574.782261 L921.214752,523.613226 C921.214752,510.474803 922.272028,489.863438 922.990975,476.714444 L921.574226,476.714444 C915.886084,488.447067 909.489567,499.809742 903.09305,511.891173 L861.859303,574.782261 L921.214752,574.782261 Z" id="Shape" fill="#FFFFFF"></path>
        </g>
        <g id="stars" transform="translate(120.000000, 34.000000)" fill="#FFFFFF" fill-rule="nonzero">
            <polygon id="Shape" opacity="0.97" points="1534.36458 125 1536.59375 131.581089 1542 133.118052 1536.71875 136.315759 1534.36458 143 1531.70833 136.305444 1526 133.118052 1531.92708 131.581089"></polygon>
            <path d="M1680.99858,446.210505 C1680.88366,448.389884 1679.04211,450.074932 1676.85995,449.99743 C1674.67779,449.919929 1672.96055,448.108486 1673.00069,445.926451 C1673.04083,443.744416 1674.82352,441.997285 1677.00706,442.000003 C1679.27167,442.063101 1681.05755,443.946957 1680.99858,446.210505 Z" id="Shape" opacity="0.45"></path>
            <path d="M121.998842,243.210505 C121.883914,245.389884 120.042308,247.074932 117.860075,246.99743 C115.677842,246.919929 113.960551,245.108486 114.000689,242.926451 C114.040828,240.744416 115.823578,238.997285 118.007186,239.000003 C120.269323,239.068799 122.051983,240.949196 121.998842,243.210505 Z" id="Shape" opacity="0.45"></path>
            <circle id="Oval" opacity="0.45" cx="4" cy="662" r="4"></circle>
            <path d="M121.998569,757.221611 C121.877655,759.399146 120.03367,761.078548 117.853009,760.997163 C115.672347,760.915778 113.958827,759.103606 114.000753,756.923123 C114.042679,754.74264 115.824598,752.997599 118.006778,753.000002 C120.273366,753.068962 122.057763,754.956093 121.998569,757.221611 Z" id="Shape" opacity="0.45"></path>
            <path d="M244.998569,707.221611 C244.877655,709.399146 243.03367,711.078548 240.853009,710.997163 C238.672347,710.915778 236.958827,709.103606 237.000753,706.923123 C237.042679,704.74264 238.824598,702.997599 241.006778,703.000002 C243.273366,703.068962 245.057763,704.956093 244.998569,707.221611 Z" id="Shape" opacity="0.45"></path>
            <circle id="Oval" opacity="0.45" cx="445" cy="96" r="4"></circle>
            <path d="M523.998842,273.210505 C523.883914,275.389884 522.042308,277.074932 519.860075,276.99743 C517.677842,276.919929 515.960551,275.108486 516.000689,272.926451 C516.040828,270.744416 517.823578,268.997285 520.007186,269.000003 C522.269323,269.068799 524.051983,270.949196 523.998842,273.210505 Z" id="Shape" opacity="0.45"></path>
            <path d="M1024.99884,692.210505 C1024.88391,694.389884 1023.04231,696.074932 1020.86007,695.99743 C1018.67784,695.919929 1016.96055,694.108486 1017.00069,691.926451 C1017.04083,689.744416 1018.82358,687.997285 1021.00719,688.000003 C1023.26932,688.068799 1025.05198,689.949196 1024.99884,692.210505 Z" id="Shape" opacity="0.45"></path>
            <path d="M553.998842,913.210505 C553.883914,915.389884 552.042308,917.074932 549.860075,916.99743 C547.677842,916.919929 545.960551,915.108486 546.000689,912.926451 C546.040828,910.744416 547.823578,908.997285 550.007186,909.000003 C552.269323,909.068799 554.051983,910.949196 553.998842,913.210505 Z" id="Shape" opacity="0.45"></path>
            <circle id="Oval" opacity="0.45" cx="64" cy="217" r="4"></circle>
            <path d="M773.998569,52.2216115 C773.877655,54.3991463 772.03367,56.0785479 769.853009,55.997163 C767.672347,55.915778 765.958827,54.103606 766.000753,51.9231232 C766.042679,49.7426405 767.824598,47.9975986 770.006778,48.0000025 C772.273366,48.0689622 774.057763,49.9560925 773.998569,52.2216115 Z" id="Shape" opacity="0.45"></path>
            <path d="M1224.99884,173.210505 C1224.88391,175.389884 1223.04231,177.074932 1220.86007,176.99743 C1218.67784,176.919929 1216.96055,175.108486 1217.00069,172.926451 C1217.04083,170.744416 1218.82358,168.997285 1221.00719,169.000003 C1223.26932,169.068799 1225.05198,170.949196 1224.99884,173.210505 Z" id="Shape" opacity="0.45"></path>
            <path d="M1362.99884,4.21050496 C1362.88391,6.38988386 1361.04231,8.07493235 1358.86007,7.99743046 C1356.67784,7.91992857 1354.96055,6.10848607 1355.00069,3.92645099 C1355.04083,1.74441591 1356.82358,-0.00271509496 1359.00719,3.16758259e-06 C1361.26932,0.0687994752 1363.05198,1.94919568 1362.99884,4.21050496 Z" id="Shape" opacity="0.45"></path>
            <path d="M981.998569,213.221611 C981.877655,215.399146 980.03367,217.078548 977.853009,216.997163 C975.672347,216.915778 973.958827,215.103606 974.000753,212.923123 C974.042679,210.74264 975.824598,208.997599 978.006778,209.000002 C980.273366,209.068962 982.057763,210.956093 981.998569,213.221611 Z" id="Shape" opacity="0.45"></path>
            <circle id="Oval" opacity="0.45" cx="1000" cy="977" r="4"></circle>
            <path d="M928.998842,926.210505 C928.883914,928.389884 927.042308,930.074932 924.860075,929.99743 C922.677842,929.919929 920.960551,928.108486 921.000689,925.926451 C921.040828,923.744416 922.823578,921.997285 925.007186,922.000003 C927.269323,922.068799 929.051983,923.949196 928.998842,926.210505 Z" id="Shape" opacity="0.45"></path>
            <path d="M1322.99884,855.210505 C1322.88391,857.389884 1321.04231,859.074932 1318.86007,858.99743 C1316.67784,858.919929 1314.96055,857.108486 1315.00069,854.926451 C1315.04083,852.744416 1316.82358,850.997285 1319.00719,851.000003 C1321.26932,851.068799 1323.05198,852.949196 1322.99884,855.210505 Z" id="Shape" opacity="0.45"></path>
            <path d="M261.997851,423.337987 C261.813518,426.602675 259.047394,429.11871 255.777802,428.995674 C252.508211,428.872637 249.939245,426.15584 250.001094,422.886544 C250.062943,419.617247 252.73283,416.999437 256.004738,417 C259.407701,417.103531 262.086724,419.936718 261.997851,423.337987 Z" id="Shape" opacity="0.8"></path>
            <path d="M1508.99785,642.337987 C1508.81352,645.602675 1506.04739,648.11871 1502.7778,647.995674 C1499.50821,647.872637 1496.93924,645.15584 1497.00109,641.886544 C1497.06294,638.617247 1499.73283,635.999437 1503.00474,636 C1506.4077,636.103531 1509.08672,638.936718 1508.99785,642.337987 Z" id="Shape" opacity="0.8"></path>
            <path d="M1167.99757,149.337987 C1167.81324,152.602675 1165.04718,155.11871 1161.77766,154.995674 C1158.50815,154.872637 1155.93925,152.15584 1156.00109,148.886544 C1156.06294,145.617247 1158.73276,142.999437 1162.0046,143 C1165.41005,143.097796 1168.09231,145.934474 1167.99757,149.337987 Z" id="Shape" opacity="0.8"></path>
            <polygon id="Shape" opacity="0.97" points="302.364583 900 304.59375 906.591404 310 908.128367 304.71875 911.326074 302.364583 918 299.708333 911.315759 294 908.118052 299.9375 906.591404"></polygon>
            <polygon id="Shape" opacity="0.97" points="126.706607 56 127.956327 60.0206897 131 60.9635468 128.026876 62.9142857 126.706607 67 125.215006 62.9142857 122 60.9635468 125.335946 60.0206897"></polygon>
            <polygon id="Shape" opacity="0.97" points="1582.22484 750 1583.6167 754.02262 1587 754.96607 1583.69165 756.915174 1582.22484 761 1580.56531 756.915174 1577 754.96607 1580.7045 754.02262"></polygon>
        </g>
    </g>
</svg>