<svg xmlns="http://www.w3.org/2000/svg" viewBox="0 0 216.32 201.36"><defs><style>.cls-1{fill:none;}.cls-2{fill:#fff;}.cls-3{fill:#72c7e7;}</style></defs><title>ICE_logo</title><g id="padding"><rect class="cls-1" width="216.32" height="201.36"/></g><g id="Layer_1" data-name="Layer 1"><rect class="cls-2" x="80.59" y="129.24" width="8.77" height="43.34"/><path class="cls-2" d="M119.51,134.6a17.27,17.27,0,0,1,8.64,1.94l.6.34,2.06-7-.41-.2a26,26,0,0,0-10.89-2.25c-6.84,0-12.68,2.25-16.9,6.5a23.12,23.12,0,0,0-6.33,16.48c0,6.51,2,12.06,5.89,16.05s9.3,6.15,15.69,6.15a28.7,28.7,0,0,0,12.38-2.6l.37-.2L129.06,163l-.6.27a21.31,21.31,0,0,1-9.21,2c-8.45,0-14.12-6.13-14.12-15.25a16.52,16.52,0,0,1,3.7-10.94,13.67,13.67,0,0,1,10.68-4.5"/><path class="cls-2" d="M153.46,133.91a9.35,9.35,0,0,1,6.94,2.62c2.72,2.78,3.13,6.93,3.17,8.77H142.3c.7-4.5,3.72-11.39,11.16-11.39m15,.69c-3.14-4.77-8.11-7.28-14.35-7.28a18.79,18.79,0,0,0-14.94,6.8c-3.5,4.2-5.42,10.07-5.42,16.52s2,12,5.66,15.85,9.2,6.08,15.66,6.08a34.42,34.42,0,0,0,14.27-2.75l.41-.19-1.56-6.56-.59.25a27.1,27.1,0,0,1-11.48,2.14,14.25,14.25,0,0,1-9.7-3.29c-2.64-2.37-4.06-5.82-4.24-10.28h29.61l.09-.83a25.63,25.63,0,0,0,.23-3.3,25,25,0,0,0-3.65-13.16"/><polygon class="cls-3" points="28.59 28.89 28.59 172.89 57.13 172.89 57.13 160.52 40.96 160.52 40.96 41.26 160.54 41.26 160.54 106.73 172.59 106.73 172.59 28.89 28.59 28.89"/><path class="cls-2" d="M183.35,129.3a4.28,4.28,0,1,1-4.36,4.27A4.27,4.27,0,0,1,183.35,129.3Zm0,.69a3.59,3.59,0,1,0,3.49,3.58A3.48,3.48,0,0,0,183.35,130Zm-.92,6.06h-.76v-4.94h1.89c1.18,0,1.76.44,1.76,1.41a1.29,1.29,0,0,1-1.29,1.36l1.4,2.17h-.83l-1.31-2.15h-.86Zm0-2.77h.9c.93,0,1.23-.27,1.23-.81s-.23-.74-1.1-.74h-1Z"/></g></svg>