<svg xmlns="http://www.w3.org/2000/svg" xmlns:xlink="http://www.w3.org/1999/xlink" viewBox="0 0 626.31 618.42"><defs><style>.cls-1{isolation:isolate;}.cls-11,.cls-2,.cls-9{opacity:0.5;}.cls-24,.cls-3{opacity:0.53;}.cls-10,.cls-13,.cls-20,.cls-22,.cls-25,.cls-26,.cls-4,.cls-8{fill:#4d819b;}.cls-19,.cls-4{opacity:0.16;}.cls-10,.cls-15,.cls-28,.cls-5,.cls-7{opacity:0.3;}.cls-12,.cls-14,.cls-21,.cls-5,.cls-9{mix-blend-mode:overlay;}.cls-11,.cls-15,.cls-17,.cls-19,.cls-21,.cls-24,.cls-27,.cls-6{fill:#fff;}.cls-14,.cls-21,.cls-8{opacity:0.6;}.cls-12{fill:#b3b3b3;opacity:0.51;}.cls-13,.cls-23{opacity:0.34;}.cls-16{fill:url(#linear-gradient);}.cls-17{opacity:0.64;}.cls-18{fill:#607aa5;}.cls-20{opacity:0.1;}.cls-22{opacity:0.7;}.cls-23{fill:#29abe2;mix-blend-mode:lighten;}.cls-25{opacity:0.2;}.cls-27{opacity:0.26;}.cls-28,.cls-32{fill:#ccc;}.cls-29{fill:#999;}.cls-30{fill:url(#linear-gradient-2);}.cls-31{opacity:0.39;fill:url(#radial-gradient);}.cls-31,.cls-32{mix-blend-mode:screen;}.cls-33{fill:url(#linear-gradient-3);}</style><linearGradient id="linear-gradient" x1="320.5" y1="355.41" x2="301.74" y2="375.2" gradientUnits="userSpaceOnUse"><stop offset="0.03" stop-color="#00aed9" stop-opacity="0.6"/><stop offset="0.1" stop-color="#038eb9" stop-opacity="0.48"/><stop offset="0.2" stop-color="#076892" stop-opacity="0.33"/><stop offset="0.31" stop-color="#0a4972" stop-opacity="0.21"/><stop offset="0.43" stop-color="#0c315a" stop-opacity="0.12"/><stop offset="0.56" stop-color="#0e2048" stop-opacity="0.05"/><stop offset="0.73" stop-color="#0f163e" stop-opacity="0.01"/><stop offset="1" stop-color="#0f133b" stop-opacity="0"/></linearGradient><linearGradient id="linear-gradient-2" x1="169.2" y1="438.62" x2="139.42" y2="470.03" xlink:href="#linear-gradient"/><radialGradient id="radial-gradient" cx="418.74" cy="526.17" r="127.34" gradientUnits="userSpaceOnUse"><stop offset="0" stop-color="#323f59"/><stop offset="1" stop-color="#47a9ff" stop-opacity="0"/></radialGradient><linearGradient id="linear-gradient-3" x1="477.08" y1="187.38" x2="462.2" y2="203.07" xlink:href="#linear-gradient"/></defs><title>landing_crypto_bg</title><g class="cls-1"><g id="Layer_1" data-name="Layer 1"><g class="cls-2"><g class="cls-3"><polygon class="cls-4" points="373.92 232.17 340.7 288.1 347.88 293.31 362.83 304.18 345.02 338.74 315.93 351.07 319.85 285.3 321.82 252.2 381.63 169.29 373.92 232.17"/><g class="cls-5"><path class="cls-6" d="M304.77,398.41,165.24,345.68l-.05-.28L142.1,204.57l.74.2,179.51,47-5.94,99.59-23.64,10ZM166.13,345l137.05,51.79-11.64-35.88,23.91-10.13,5.85-98.15-178-46.65Z"/><path class="cls-6" d="M322,252.77,141.5,205.45l27.8-18.15,51-10,9.44-29.57,7.87-5.15.2,0,144.7,26.33Zm-178.1-47.72,177.69,46.57,59.14-82-142.95-26-7.25,4.74-9.51,29.8-51.46,10.1Z"/><path class="cls-6" d="M350.46,294.57,242.3,263.65l-1.37-32.5-3.76-88.65,145,26.38-7.83,63.54-33,55.54ZM243.27,262.89l102,29.16L340,288.24l.23-.39L373.44,232l7.63-62.3-142.84-26Z"/><path class="cls-6" d="M165.36,346.4,142.17,205,169.3,187.3l51-10,9.44-29.57,8.44-5.52,0,.87,5.1,120.38-.15.16Zm-22.1-140.91L166,344.24l76.27-81.16-5-119.08-6.68,4.37-9.51,29.8-51.46,10.1Z"/><path class="cls-6" d="M315.38,351.84,321.33,252l61-84.6-8,65-33,55.54L363.47,304l-18.09,35.1-.16.07Zm6.94-99.47-5.85,97.92,28.19-11.94,17.53-34L340,288.24l.23-.39L373.44,232l7.45-60.84Z"/></g></g><g class="cls-7"><polygon class="cls-8" points="299.03 457.97 264.19 528.31 213.6 576.1 248.42 493.2 299.03 457.97"/><g class="cls-9"><path class="cls-6" d="M213.8,576.92l-.52-.43-72.91-61.32,0-.28L147,477.5l.07-.09L173,441.61,249,493l-7.9,18.82Zm-72.35-62.14,72,60.5,34.39-81.9L173.2,443,148,477.9Z"/><path class="cls-6" d="M248.42,493.81,165,437.44l10.38.11-4.74-11.05,51.79-12.75.17.1L300,457.93Zm-80.1-55.34,80.09,54.12L298.1,458l-75.82-43.19L172,427.19l4.88,11.37Z"/><path class="cls-6" d="M264.38,529.06l-63.75-45.17.1-.34,21.33-70,77.63,44.23ZM201.79,483.5,264,527.57l34.38-69.4L222.65,415Z"/><path class="cls-6" d="M140.24,515.89,147,477.5l.07-.09,25.26-35-7.37-5,10.38.11-4.74-11.05,52.45-12.91L201.63,484Zm7.75-38-6.41,36.16,59.21-30.71L221.62,415,172,427.19l4.88,11.37-8.58-.09,5.47,3.7Z"/><path class="cls-6" d="M212.22,578.09,248,492.87l.12-.08,52.21-36.34-35.8,72.23Zm36.6-84.56L215,574.11l48.8-46.1,33.94-68.52Z"/></g></g><g class="cls-3"><polygon class="cls-10" points="345.02 338.74 317.87 391.42 313.81 386.64 315.93 351.07 345.02 338.74"/><polygon class="cls-11" points="317.87 391.42 312.95 400.96 313.81 386.64 317.87 391.42"/><polygon class="cls-10" points="315.93 351.07 313.81 386.64 292.15 361.14 315.93 351.07"/><polygon class="cls-10" points="313.81 386.64 312.95 400.96 303.98 397.57 292.15 361.14 313.81 386.64"/><polygon class="cls-12" points="313.81 386.64 312.95 400.96 303.98 397.57 292.15 361.14 313.81 386.64"/><polygon class="cls-13" points="338.98 416.28 343.87 457.96 396.88 419.84 411.25 372.03 338.98 416.28"/><g class="cls-14"><path class="cls-11" d="M344.73,460.11l-37.3-50L303,396.57l9.64,3.64,5.09-9.86L339.55,416l0,.18Zm-36.19-50.42L343,455.81l-4.62-39.27L318,392.49l-4.75,9.23-8.31-3.15Z"/><path class="cls-15" d="M338.85,417.07l-21.7-25.57.19-.35,27.25-52.88,13.25-5.62,54.49,39.42Zm-20.26-25.73,20.51,24.17L410.17,372l-52.49-38-12.23,5.18Z"/><polygon class="cls-6" points="345.02 338.74 317.87 391.42 313.81 386.64 315.93 351.07 345.02 338.74"/><path class="cls-6" d="M318,392.49l-4.8-5.65,2.16-36.18,31-13.12Zm-3.57-6.06,3.33,3.92,26-50.41L316.5,351.47Z"/><polygon class="cls-6" points="317.87 391.42 312.95 400.96 313.81 386.64 317.87 391.42"/><g class="cls-7"><polygon class="cls-16" points="315.93 351.07 313.81 386.64 292.15 361.14 315.93 351.07"/><path class="cls-6" d="M314.32,388.17l-23.15-27.26,25.41-10.77Zm-21.18-26.79,20.16,23.73,2-33.11Z"/></g><path class="cls-15" d="M307.65,410.85,303,396.57l9.64,3.64,31.93-61.94,13.78-5.84L357.86,383Zm-2.72-12.28,3.42,10.52,48.32-26.82.48-48-11.7,4.95-32.21,62.52Z"/><path class="cls-15" d="M338.93,415.61l-.49,1.21L343.39,459l53.84-38.71.17-.12,14.88-49.51Zm57.44,3.86-52,37.41-4.73-40.29,70.61-43.23Z"/><polygon class="cls-15" points="357.36 381.88 307.63 409.49 309.44 409.85 357.18 383.36 395.94 419.78 344 457.13 343.2 456.06 344.22 458.45 397.23 420.33 397.82 419.9 357.36 381.88"/></g></g><g class="cls-3"><polygon class="cls-17" points="373.92 232.17 367.93 281.05 340.7 288.1 373.92 232.17"/><polygon class="cls-18" points="367.93 281.05 365.79 298.43 347.88 293.31 340.7 288.1 367.93 281.05"/><polygon class="cls-19" points="365.79 298.43 362.83 304.18 347.88 293.31 365.79 298.43"/><polygon class="cls-20" points="493.85 341.7 414.67 341.84 362.83 304.18 365.79 298.43 367.93 281.05 410.13 270.11 433.26 289.89 493.85 341.7"/><g class="cls-5"><path class="cls-6" d="M494.25,342.83,409.4,270.27l26-59.29,56,16.83-8.14-13.63L512,245.33Zm-83.39-72.89,82.59,70.62,17.29-94.86-20.46-22.2,3.79,6.35-58-17.42Z"/><path class="cls-6" d="M367.22,281.85,373.34,232l12.47-21,.15-.08,27.26-13.82,6.68,9.24,16.69,5-26,59.29-.28.08Zm7.28-49.49-5.87,47.89L409.7,269.6,435,212.08l-15.78-4.74-6.32-8.74-26.19,13.28Z"/><path class="cls-6" d="M494.25,342.83,409.4,270.27l26-59.29,56,16.83-8.14-13.63L512,245.33Zm-83.39-72.89,82.59,70.62,17.29-94.86-20.46-22.2,3.79,6.35-58-17.42Z"/><path class="cls-6" d="M413.81,342.44l28.6-79.88.31-.07,69.42-17.79-17.79,97.6Zm29.52-78.87-27.81,77.67,77.83-.14,17.27-94.78Z"/><path class="cls-6" d="M414.47,342.44l-.15-.11-52.26-38,3.15-6.11,2.17-17.68.4-.1,42.5-11,85.19,72.84ZM363.6,304l51.26,37.24,77.37-.14L410,270.77l-41.51,10.76-2.14,17.18Z"/><path class="cls-21" d="M339.65,288.89l35.05-59-6.32,51.59Zm33.48-54.42-31.38,52.84,25.72-6.66Z"/><path class="cls-21" d="M366.22,299.08l-18.64-5.37-8-5.83,29-7.5Zm-18.12-6.23,17.27,4.94,2-16.07-25.49,6.6Z"/></g></g><g class="cls-3"><polygon class="cls-22" points="247.87 92.54 230.14 148.05 207.09 163.13 169.4 187.79 132.56 195.02 139.23 136.65 144.58 89.87 188.11 90.99 247.87 92.54"/><g class="cls-5"><path class="cls-6" d="M132.94,196.93l-32.08-57.15v-.17L104,45.9,145.2,89.66l0,.27Zm-30.87-57.45,30.1,53.63L144,90.07l-38.8-41.25Z"/><path class="cls-6" d="M132.24,195.69,100.49,139.1l79.29-6.25.19.21L208,163.25,172.3,186.61l48.25-9.46.23,1.17L168,189.41Zm-29.78-55.54,30.41,54.21,34.74-6.11L206.17,163l-26.88-28.93Z"/><path class="cls-6" d="M131.87,195.77,144,89.25,248.68,92l-18,56.47-23.22,15.21-37.79,24.72ZM145.11,90.48l-11.86,103.8,35.92-7.05,60.46-39.57,17.42-54.54Z"/><path class="cls-6" d="M250,93.19,144.31,90.46l-.17-.18L103,46.56l91.87,11.36ZM144.84,89.27l100.89,2.61-51.26-32.8-88.3-10.92Z"/><path class="cls-6" d="M100.85,140.28,104,46.68,195.4,58l-.13.64L180,134ZM105.17,48,102.09,139,179,132.91,194,59Z"/></g><polygon class="cls-23" points="220.66 177.74 169.4 187.79 207.09 163.13 220.66 177.74"/></g><polygon class="cls-24" points="230.14 148.05 220.66 177.74 207.09 163.13 230.14 148.05"/><g class="cls-3"><polygon class="cls-25" points="63.02 424.93 97.29 473.69 131.13 437.57 106.24 392.67 63.02 424.93"/><polygon class="cls-25" points="176.14 438.06 166.66 437.96 155.86 430.65 171.33 426.84 176.14 438.06"/><polygon class="cls-25" points="166.66 437.96 154.59 437.82 155.86 430.65 166.66 437.96"/><polygon class="cls-26" points="176.14 438.06 173.08 442.29 166.66 437.96 176.14 438.06"/><polygon class="cls-27" points="173.08 442.29 147.51 477.7 154.59 437.82 166.66 437.96 173.08 442.29"/><g class="cls-14"><path class="cls-15" d="M60.9,425.76l45.15-33.66,47.16-15.31L100.72,421.5l-.18,0Zm45.62-32.55L65.13,424.1l35.1-3.75,47.6-40.55Z"/><polygon class="cls-28" points="176.14 438.06 166.66 437.96 155.86 430.65 171.33 426.84 176.14 438.06"/><g class="cls-7"><polygon class="cls-29" points="166.66 437.96 154.59 437.82 155.86 430.65 166.66 437.96"/><path class="cls-6" d="M168.32,438.48,154,438.31l1.5-8.5Zm-13.13-1.15,9.81.11-8.78-5.94Z"/></g><path class="cls-15" d="M140.58,488.34,99.7,420.8l51-43.49,21.42,49.94-15.78,3.89-8.3,46.8Zm-39.32-67.29,39.4,65.12,6.29-8.71,8.39-47.3,15.16-3.73-20.22-47.15Z"/><rect class="cls-15" x="172" y="439.57" width="5.23" height="1.2" transform="translate(-284.49 324.11) rotate(-54.17)"/><polygon class="cls-30" points="173.08 442.29 147.51 477.7 154.59 437.82 166.66 437.96 173.08 442.29"/><path class="cls-15" d="M140.85,488,96.2,474l34.67-37,24.44.26-7.23,40.71ZM98.38,473.41l42,13.14,6.56-9.09,6.93-39-22.49-.24Z"/><path class="cls-15" d="M142,488.3l-45-14.1-35-49.76,38.85-4.15.2.32ZM97.66,473.18l41.62,13-39.12-64.65-36.07,3.86Z"/><path class="cls-15" d="M97.22,474.64l-35-49.84,44.24-33,25.43,45.88ZM63.84,425.06l33.51,47.68,33-35.26L106,393.56Z"/></g></g><g class="cls-3"><polygon class="cls-31" points="485.62 563.09 413.31 526.24 452.75 423.41 510.2 477.18 485.62 563.09"/><g class="cls-5"><path class="cls-6" d="M518.49,533l-106-6.22.29-.77,39.57-103.15.34-.05L551,407Zm-104.33-7.32,103.42,6.07,31.81-123.25L453.19,424Z"/><path class="cls-6" d="M486,564l-73.43-37.42,39.95-104.17L510.88,477l-.1.36Zm-71.93-38,71.18,36.27,24.28-84.85L453,424.46Z"/><path class="cls-6" d="M576.45,575.17l-59.1-42.54L550,406.32l45,67.17,0,.24Zm-57.73-43,56.89,41,18.09-99.33-43.25-64.55Z"/><path class="cls-6" d="M576.52,574.79,484.85,563.6l24.89-87,.43,0L595.06,473Zm-90.13-12.22,89.15,10.89,18.07-99.2-82.95,3.5Z"/><path class="cls-6" d="M578.28,575l-92.94-11.39-74.86-38.15,107.76,6.33ZM485.79,562.5l88,10.75L517.83,533l-101.69-6Z"/></g></g><g class="cls-3"><polygon class="cls-4" points="450.12 179.03 435.77 211.7 419.54 206.82 441.47 183.41 450.12 179.03"/><polygon class="cls-4" points="492.76 228.83 435.77 211.7 450.12 179.03 486.81 218.84 492.76 228.83"/><polygon class="cls-11" points="441.47 183.41 419.54 206.82 413.04 197.83 441.47 183.41"/><polygon class="cls-10" points="476.63 145.88 456.25 167.63 441.47 183.41 413.04 197.83 360.56 125.24 434.64 70.13 449.23 96.46 476.63 145.88"/><g class="cls-14"><path class="cls-15" d="M492.72,229.92l-6.43-10.77-61.43-103,84.77-71.33,43.49,102.46Zm-66.3-113.48,66.4,111.31.9-1.24,58-79.35L509.16,46.82Z"/><path class="cls-15" d="M358.33,126.15l76.12-56.59,77.68-25.24-86.24,72.56-.17,0Zm76.59-55.48-72.13,53.66,62.59-8.59,81.28-68.38Z"/><path class="cls-15" d="M492.72,229.92l-6.43-10.77-30.78-51.6,20.86-22.27h.27l77,1.38ZM457,167.71l35.82,60,.9-1.24,57.55-78.7-74.38-1.32Z"/><polygon class="cls-32" points="450.12 179.03 435.77 211.7 419.54 206.82 441.47 183.41 450.12 179.03"/><polygon class="cls-10" points="492.76 228.83 435.77 211.7 450.12 179.03 486.81 218.84 492.76 228.83"/><polygon class="cls-33" points="486.81 218.84 450.11 179.03 441.47 183.41 456.25 167.63 486.81 218.84"/><path class="cls-15" d="M490.28,223.5,450,179.77l-11.28,5.72,17.66-18.85.41.68Zm-40-45.21,33.09,35.89-27.18-45.56-11.92,12.72Z"/><path class="cls-15" d="M412.85,198.6l-.3-.42-53.06-73.4L426,115.66l.21.34L457,167.71,441.74,184Zm-51.21-72.9,51.58,71.37,27.88-14.14,14.41-15.38L425.33,117Z"/><path class="cls-15" d="M412.85,198.6l-.3-.42-52.82-73.07,75.1-55.88L477.37,146l-35.63,38ZM361.4,125.37l51.82,71.7,27.88-14.14,34.79-37.14L434.44,71Z"/></g></g></g></g></g></svg>