<svg viewBox="0 0 316 126" xmlns="http://www.w3.org/2000/svg"><path d="m53.48.73-48.29 65.02 55.53-14.44-33.28.01z" fill="#f0d003"/><path d="m11.91 126 48.29-65.02-55.52 14.44h33.27z" fill="#f0d003"/><g fill="#fff"><path d="m106.04 47.65h-11.31v-27.02h-3.71v30.61h15.02z"/><path d="m115.54 20.63h3.71v30.61h-3.71z"/><path d="m146.27 22.5a8.1 8.1 0 0 0 -2.47-1.67 7.71 7.71 0 0 0 -3-.61h-2.1a7.77 7.77 0 0 0 -5.52 2.28 7.65 7.65 0 0 0 -1.71 2.5 7.53 7.53 0 0 0 -.61 3v15.87a7.53 7.53 0 0 0 .61 3 7.74 7.74 0 0 0 4.15 4.13 7.61 7.61 0 0 0 3 .61h1.55a6.86 6.86 0 0 0 3.32-.81 8 8 0 0 0 2.05-1.61l1.31 2h1.66v-16.54h-8.44v3.59h4.72v5.63a4.07 4.07 0 0 1 -.33 1.64 4.39 4.39 0 0 1 -.9 1.34 4.14 4.14 0 0 1 -1.33.91 4.19 4.19 0 0 1 -1.63.32h-1.85a4.21 4.21 0 0 1 -1.64-.32 4.3 4.3 0 0 1 -1.34-.91 4.54 4.54 0 0 1 -.91-1.34 4.07 4.07 0 0 1 -.33-1.64v-15.87a4 4 0 0 1 .33-1.63 4.09 4.09 0 0 1 .91-1.33 4.27 4.27 0 0 1 1.34-.9 4 4 0 0 1 1.64-.33h1.85a4 4 0 0 1 1.63.33 4.15 4.15 0 0 1 2.23 2.23 4 4 0 0 1 .33 1.63v2.23l3.72-.58v-1.65a7.7 7.7 0 0 0 -.61-3 8 8 0 0 0 -1.63-2.5z"/><path d="m174.14 34.15h-10.26v-13.52h-3.71v30.61h3.71v-13.5h10.26v13.5h3.71v-30.61h-3.71z"/><path d="m194.4 51.24h3.71v-27.02h7.05v-3.59h-17.81v3.59h7.05z"/><path d="m232.35 51.24v-30.61h-3.72v20.55l-11.75-20.55h-2.22v30.61h3.72v-20.49l11.73 20.49z"/><path d="m244.38 20.63h3.71v30.61h-3.71z"/><path d="m274.1 41.18-11.76-20.55h-2.21v30.61h3.71v-20.49l11.74 20.49h2.23v-30.61h-3.71z"/><path d="m291.69 49.38a7.87 7.87 0 0 0 2.49 1.62 7.61 7.61 0 0 0 3 .61h1.54a6.89 6.89 0 0 0 3.33-.81 7.76 7.76 0 0 0 2-1.61l1.31 2h1.66v-16.54h-8.43v3.59h4.72v5.63a4.07 4.07 0 0 1 -.33 1.64 4.39 4.39 0 0 1 -.9 1.34 4.25 4.25 0 0 1 -1.33.91 4.19 4.19 0 0 1 -1.63.32h-1.86a4.19 4.19 0 0 1 -1.63-.32 4.3 4.3 0 0 1 -1.34-.91 4.36 4.36 0 0 1 -.91-1.34 4.07 4.07 0 0 1 -.33-1.64v-15.87a4 4 0 0 1 .33-1.63 4.22 4.22 0 0 1 .9-1.33 4.43 4.43 0 0 1 1.35-.9 4 4 0 0 1 1.63-.33h1.86a4 4 0 0 1 1.63.33 4.24 4.24 0 0 1 2.23 2.23 4 4 0 0 1 .33 1.63v2.23l3.71-.58v-1.65a7.53 7.53 0 0 0 -.61-3 7.78 7.78 0 0 0 -1.66-2.47 8.14 8.14 0 0 0 -2.48-1.67 7.7 7.7 0 0 0 -3-.61h-2.1a7.78 7.78 0 0 0 -3 .61 7.9 7.9 0 0 0 -2.49 1.67 7.78 7.78 0 0 0 -1.68 2.47 7.53 7.53 0 0 0 -.61 3v15.87a7.53 7.53 0 0 0 .61 3 7.94 7.94 0 0 0 1.69 2.51z"/><path d="m104.99 86.45-11.44-19.99h-2.18v29.87h3.64v-19.94l11.43 19.94h2.2v-29.87h-3.65z"/><path d="m124.46 96.33h17.27v-3.53h-13.63v-9.63h11.03v-3.53h-11.03v-9.65h13.63v-3.53h-17.27z"/><path d="m153.43 69.99h6.87v26.34h3.65v-26.34h6.87v-3.53h-17.39z"/><path d="m203.26 87.12-5.23-20.66h-2.27l-5.22 20.63-5.31-20.63h-3.69l7.94 29.87h2.16l5.25-20.5 5.3 20.5h2.16l7.9-29.87h-3.69z"/><path d="m240.06 68.28a7.89 7.89 0 0 0 -2.41-1.63 7.56 7.56 0 0 0 -3-.59h-2.05a7.64 7.64 0 0 0 -3 .59 7.53 7.53 0 0 0 -4 4 7.35 7.35 0 0 0 -.6 3v15.48a7.35 7.35 0 0 0 .6 3 7.47 7.47 0 0 0 4 4 7.47 7.47 0 0 0 3 .6h2.05a7.39 7.39 0 0 0 3-.6 7.58 7.58 0 0 0 4-4 7.39 7.39 0 0 0 .6-3v-15.47a7.35 7.35 0 0 0 -.6-3 7.59 7.59 0 0 0 -1.59-2.38zm-1.42 5.38v15.47a3.86 3.86 0 0 1 -.32 1.59 4.3 4.3 0 0 1 -.87 1.3 4 4 0 0 1 -1.29.88 3.83 3.83 0 0 1 -1.59.32h-1.81a3.83 3.83 0 0 1 -1.59-.32 4.15 4.15 0 0 1 -1.3-.88 4.35 4.35 0 0 1 -.89-1.3 4 4 0 0 1 -.31-1.59v-15.47a3.83 3.83 0 0 1 .32-1.59 4 4 0 0 1 .88-1.29 4.33 4.33 0 0 1 1.3-.88 4 4 0 0 1 1.59-.31h1.81a4 4 0 0 1 1.59.31 4.11 4.11 0 0 1 1.29.88 4 4 0 0 1 .87 1.29 3.83 3.83 0 0 1 .32 1.59z"/><path d="m269.92 83.44a7.89 7.89 0 0 0 2.41-1.63 7.64 7.64 0 0 0 1.67-2.43 7.47 7.47 0 0 0 .6-3v-2.3a7.47 7.47 0 0 0 -.6-3 7.64 7.64 0 0 0 -1.63-2.43 8 8 0 0 0 -2.41-1.63 7.56 7.56 0 0 0 -3-.59h-9.67v29.9h3.64v-12.33h2.74l7.82 12.3h4.24l-7.85-12.3a7.87 7.87 0 0 0 2.04-.56zm-9-13.45h5.91a3.94 3.94 0 0 1 1.58.31 4.18 4.18 0 0 1 1.3.89 4.3 4.3 0 0 1 .87 1.3 4 4 0 0 1 .32 1.59v2.33a4 4 0 0 1 -.32 1.59 4.31 4.31 0 0 1 -.88 1.31 4 4 0 0 1 -1.29.88 4 4 0 0 1 -1.58.32h-5.91z"/><path d="m308.35 66.46h-4.55l-10.68 14.18v-14.18h-3.64v29.87h3.64v-14.19l10.68 14.19h4.55l-11.47-14.94z"/></g></svg>