<svg xmlns="http://www.w3.org/2000/svg" xmlns:xlink="http://www.w3.org/1999/xlink" viewBox="0 0 345 809"><defs><style>.cls-1{opacity:0.4;}.cls-2{fill:#6b79bb;}.cls-3{fill:#2c9ce4;}.cls-4{fill:#ba2da9;}.cls-5{fill:#7c129b;}.cls-6{fill:#7a4596;}.cls-7{fill:#5caadd;}.cls-8{fill:url(#linear-gradient);}.cls-9{fill:url(#linear-gradient-2);}.cls-10{fill:url(#linear-gradient-3);}.cls-11{opacity:0.5;}.cls-12{fill:url(#linear-gradient-4);}.cls-13{opacity:0.6;}.cls-14{fill:url(#linear-gradient-5);}.cls-15{fill:url(#linear-gradient-6);}.cls-16{fill:url(#linear-gradient-7);}.cls-17{opacity:0.71;}.cls-18{fill:url(#linear-gradient-8);}.cls-19{fill:url(#linear-gradient-9);}.cls-20{fill:url(#linear-gradient-10);}.cls-21{fill:url(#linear-gradient-11);}</style><linearGradient id="linear-gradient" x1="-3397.55" y1="514.58" x2="-3308.51" y2="514.58" gradientTransform="matrix(-1, 0, 0, 1, -3057.97, 0)" gradientUnits="userSpaceOnUse"><stop offset="0" stop-color="#7a45a5"/><stop offset="0.17" stop-color="#774daa"/><stop offset="0.43" stop-color="#7165b7"/><stop offset="0.76" stop-color="#658acb"/><stop offset="1" stop-color="#5caadd"/></linearGradient><linearGradient id="linear-gradient-2" x1="-3309.55" y1="686.58" x2="-3220.51" y2="686.58" xlink:href="#linear-gradient"/><linearGradient id="linear-gradient-3" x1="-3378.55" y1="413.58" x2="-3289.51" y2="413.58" xlink:href="#linear-gradient"/><linearGradient id="linear-gradient-4" x1="-3307.55" y1="119.58" x2="-3218.51" y2="119.58" xlink:href="#linear-gradient"/><linearGradient id="linear-gradient-5" x1="-3309.55" y1="593.58" x2="-3220.51" y2="593.58" xlink:href="#linear-gradient"/><linearGradient id="linear-gradient-6" x1="-3240.55" y1="582.58" x2="-3151.51" y2="582.58" xlink:href="#linear-gradient"/><linearGradient id="linear-gradient-7" x1="-3310.55" y1="499.58" x2="-3221.51" y2="499.58" xlink:href="#linear-gradient"/><linearGradient id="linear-gradient-8" x1="-3167.55" y1="483.58" x2="-3078.51" y2="483.58" xlink:href="#linear-gradient"/><linearGradient id="linear-gradient-9" x1="-3308.55" y1="406.58" x2="-3219.51" y2="406.58" xlink:href="#linear-gradient"/><linearGradient id="linear-gradient-10" x1="-3307.55" y1="312.58" x2="-3218.51" y2="312.58" xlink:href="#linear-gradient"/><linearGradient id="linear-gradient-11" x1="-3237.55" y1="305.58" x2="-3148.51" y2="305.58" xlink:href="#linear-gradient"/></defs><title>landing_elements</title><g id="Layer_1" data-name="Layer 1"><g class="cls-1"><polygon class="cls-2" points="272.68 483.12 256.58 473.77 234.45 530.93 250.54 540.29 272.68 483.12"/><polygon class="cls-3" points="323.25 479.04 339.35 488.4 316.96 456.94 300.87 447.58 323.25 479.04"/><polygon class="cls-4" points="301.12 536.21 317.21 545.56 339.35 488.4 323.25 479.04 301.12 536.21"/><polygon class="cls-5" points="256.59 561.91 272.69 571.27 317.21 545.56 301.12 536.21 256.59 561.91"/><polygon class="cls-6" points="250.54 540.29 234.45 530.93 256.83 562.39 272.93 571.75 250.54 540.29"/><polygon class="cls-7" points="317.2 457.42 301.11 448.06 256.58 473.77 272.68 483.12 317.2 457.42"/><polygon class="cls-8" points="272.68 483.12 250.54 540.29 272.93 571.75 317.45 546.04 339.59 488.88 317.2 457.42 272.68 483.12"/></g><polygon class="cls-2" points="184.68 655.12 168.58 645.77 146.45 702.93 162.54 712.29 184.68 655.12"/><polygon class="cls-3" points="235.25 651.04 251.35 660.4 228.96 628.94 212.87 619.58 235.25 651.04"/><polygon class="cls-4" points="213.12 708.21 229.21 717.56 251.35 660.4 235.25 651.04 213.12 708.21"/><polygon class="cls-5" points="168.59 733.91 184.69 743.27 229.21 717.56 213.12 708.21 168.59 733.91"/><polygon class="cls-6" points="162.54 712.29 146.45 702.93 168.83 734.39 184.93 743.75 162.54 712.29"/><polygon class="cls-7" points="229.2 629.42 213.11 620.06 168.58 645.77 184.68 655.12 229.2 629.42"/><polygon class="cls-9" points="184.68 655.12 162.54 712.29 184.93 743.75 229.46 718.04 251.59 660.88 229.2 629.42 184.68 655.12"/><polygon class="cls-2" points="253.68 382.12 237.58 372.77 215.45 429.93 231.54 439.29 253.68 382.12"/><polygon class="cls-3" points="304.25 378.04 320.35 387.4 297.96 355.94 281.87 346.58 304.25 378.04"/><polygon class="cls-4" points="282.12 435.2 298.21 444.56 320.35 387.4 304.25 378.04 282.12 435.2"/><polygon class="cls-5" points="237.59 460.91 253.69 470.27 298.21 444.56 282.12 435.2 237.59 460.91"/><polygon class="cls-6" points="231.54 439.29 215.45 429.93 237.83 461.39 253.93 470.75 231.54 439.29"/><polygon class="cls-7" points="298.2 356.42 282.11 347.06 237.58 372.77 253.68 382.12 298.2 356.42"/><polygon class="cls-10" points="253.68 382.12 231.54 439.29 253.93 470.75 298.45 445.04 320.59 387.88 298.2 356.42 253.68 382.12"/><g class="cls-11"><polygon class="cls-2" points="182.68 88.12 166.58 78.77 144.45 135.93 160.54 145.29 182.68 88.12"/><polygon class="cls-3" points="233.25 84.04 249.35 93.4 226.96 61.94 210.87 52.58 233.25 84.04"/><polygon class="cls-4" points="211.12 141.21 227.21 150.56 249.35 93.4 233.25 84.04 211.12 141.21"/><polygon class="cls-5" points="166.59 166.91 182.69 176.27 227.21 150.56 211.12 141.21 166.59 166.91"/><polygon class="cls-6" points="160.54 145.29 144.45 135.93 166.83 167.39 182.93 176.75 160.54 145.29"/><polygon class="cls-7" points="227.2 62.42 211.11 53.06 166.58 78.77 182.68 88.12 227.2 62.42"/><polygon class="cls-12" points="182.68 88.12 160.54 145.29 182.93 176.75 227.46 151.04 249.59 93.88 227.2 62.42 182.68 88.12"/></g><g class="cls-13"><polygon class="cls-2" points="184.68 562.12 168.58 552.77 146.45 609.93 162.54 619.29 184.68 562.12"/><polygon class="cls-3" points="235.25 558.04 251.35 567.4 228.96 535.94 212.87 526.58 235.25 558.04"/><polygon class="cls-4" points="213.12 615.21 229.21 624.56 251.35 567.4 235.25 558.04 213.12 615.21"/><polygon class="cls-5" points="168.59 640.91 184.69 650.27 229.21 624.56 213.12 615.21 168.59 640.91"/><polygon class="cls-6" points="162.54 619.29 146.45 609.93 168.83 641.39 184.93 650.75 162.54 619.29"/><polygon class="cls-7" points="229.2 536.42 213.11 527.06 168.58 552.77 184.68 562.12 229.2 536.42"/><polygon class="cls-14" points="184.68 562.12 162.54 619.29 184.93 650.75 229.46 625.04 251.59 567.88 229.2 536.42 184.68 562.12"/></g><g class="cls-13"><polygon class="cls-2" points="115.68 551.12 99.58 541.77 77.45 598.93 93.54 608.29 115.68 551.12"/><polygon class="cls-3" points="166.25 547.04 182.35 556.4 159.96 524.94 143.87 515.58 166.25 547.04"/><polygon class="cls-4" points="144.12 604.21 160.21 613.56 182.35 556.4 166.25 547.04 144.12 604.21"/><polygon class="cls-5" points="99.59 629.91 115.69 639.27 160.21 613.56 144.12 604.21 99.59 629.91"/><polygon class="cls-6" points="93.54 608.29 77.45 598.93 99.83 630.39 115.93 639.75 93.54 608.29"/><polygon class="cls-7" points="160.2 525.42 144.11 516.06 99.58 541.77 115.68 551.12 160.2 525.42"/><polygon class="cls-15" points="115.68 551.12 93.54 608.29 115.93 639.75 160.46 614.04 182.59 556.88 160.2 525.42 115.68 551.12"/></g><polygon class="cls-2" points="185.68 468.12 169.58 458.77 147.45 515.93 163.54 525.29 185.68 468.12"/><polygon class="cls-3" points="236.25 464.04 252.35 473.4 229.96 441.94 213.87 432.58 236.25 464.04"/><polygon class="cls-4" points="214.12 521.21 230.21 530.56 252.35 473.4 236.25 464.04 214.12 521.21"/><polygon class="cls-5" points="169.59 546.91 185.69 556.27 230.21 530.56 214.12 521.21 169.59 546.91"/><polygon class="cls-6" points="163.54 525.29 147.45 515.93 169.83 547.39 185.93 556.75 163.54 525.29"/><polygon class="cls-7" points="230.2 442.42 214.11 433.06 169.58 458.77 185.68 468.12 230.2 442.42"/><polygon class="cls-16" points="185.68 468.12 163.54 525.29 185.93 556.75 230.46 531.04 252.59 473.88 230.2 442.42 185.68 468.12"/><g class="cls-17"><polygon class="cls-2" points="42.68 452.12 26.58 442.77 4.45 499.93 20.54 509.29 42.68 452.12"/><polygon class="cls-3" points="93.25 448.04 109.35 457.4 86.96 425.94 70.86 416.58 93.25 448.04"/><polygon class="cls-4" points="71.12 505.2 87.21 514.56 109.35 457.4 93.25 448.04 71.12 505.2"/><polygon class="cls-5" points="26.59 530.91 42.69 540.27 87.21 514.56 71.12 505.2 26.59 530.91"/><polygon class="cls-6" points="20.54 509.29 4.45 499.93 26.83 531.39 42.93 540.75 20.54 509.29"/><polygon class="cls-7" points="87.2 426.42 71.11 417.06 26.58 442.77 42.68 452.12 87.2 426.42"/><polygon class="cls-18" points="42.68 452.12 20.54 509.29 42.93 540.75 87.45 515.04 109.59 457.88 87.2 426.42 42.68 452.12"/></g><g class="cls-11"><polygon class="cls-2" points="183.68 375.12 167.58 365.77 145.45 422.93 161.54 432.29 183.68 375.12"/><polygon class="cls-3" points="234.25 371.04 250.35 380.4 227.96 348.94 211.87 339.58 234.25 371.04"/><polygon class="cls-4" points="212.12 428.2 228.21 437.56 250.35 380.4 234.25 371.04 212.12 428.2"/><polygon class="cls-5" points="167.59 453.91 183.69 463.27 228.21 437.56 212.12 428.2 167.59 453.91"/><polygon class="cls-6" points="161.54 432.29 145.45 422.93 167.83 454.39 183.93 463.75 161.54 432.29"/><polygon class="cls-7" points="228.2 349.42 212.11 340.06 167.58 365.77 183.68 375.12 228.2 349.42"/><polygon class="cls-19" points="183.68 375.12 161.54 432.29 183.93 463.75 228.46 438.04 250.59 380.88 228.2 349.42 183.68 375.12"/></g><polygon class="cls-2" points="182.68 281.12 166.58 271.77 144.45 328.93 160.54 338.29 182.68 281.12"/><polygon class="cls-3" points="233.25 277.04 249.35 286.4 226.96 254.94 210.87 245.58 233.25 277.04"/><polygon class="cls-4" points="211.12 334.2 227.21 343.56 249.35 286.4 233.25 277.04 211.12 334.2"/><polygon class="cls-5" points="166.59 359.91 182.69 369.27 227.21 343.56 211.12 334.2 166.59 359.91"/><polygon class="cls-6" points="160.54 338.29 144.45 328.93 166.83 360.39 182.93 369.75 160.54 338.29"/><polygon class="cls-7" points="227.2 255.42 211.11 246.06 166.58 271.77 182.68 281.12 227.2 255.42"/><polygon class="cls-20" points="182.68 281.12 160.54 338.29 182.93 369.75 227.46 344.04 249.59 286.88 227.2 255.42 182.68 281.12"/><polygon class="cls-2" points="112.68 274.12 96.58 264.77 74.45 321.93 90.54 331.29 112.68 274.12"/><polygon class="cls-3" points="163.25 270.04 179.35 279.4 156.96 247.94 140.87 238.58 163.25 270.04"/><polygon class="cls-4" points="141.12 327.2 157.21 336.56 179.35 279.4 163.25 270.04 141.12 327.2"/><polygon class="cls-5" points="96.59 352.91 112.69 362.27 157.21 336.56 141.12 327.2 96.59 352.91"/><polygon class="cls-6" points="90.54 331.29 74.45 321.93 96.83 353.39 112.93 362.75 90.54 331.29"/><polygon class="cls-7" points="157.2 248.42 141.11 239.06 96.58 264.77 112.68 274.12 157.2 248.42"/><polygon class="cls-21" points="112.68 274.12 90.54 331.29 112.93 362.75 157.46 337.04 179.59 279.88 157.2 248.42 112.68 274.12"/></g></svg>