<svg xmlns="http://www.w3.org/2000/svg" xmlns:xlink="http://www.w3.org/1999/xlink" viewBox="0 0 600 600"><defs><style>.cls-1,.cls-10,.cls-11,.cls-12,.cls-13,.cls-14,.cls-15,.cls-16,.cls-17,.cls-18,.cls-19,.cls-20,.cls-21,.cls-22,.cls-23,.cls-24,.cls-25,.cls-4,.cls-5,.cls-6,.cls-7,.cls-8,.cls-9{fill:none;}.cls-2{isolation:isolate;}.cls-3{opacity:0.2;}.cls-10,.cls-11,.cls-12,.cls-13,.cls-14,.cls-15,.cls-16,.cls-17,.cls-18,.cls-19,.cls-20,.cls-21,.cls-22,.cls-23,.cls-24,.cls-25,.cls-4,.cls-5,.cls-6,.cls-7,.cls-8,.cls-9{stroke-miterlimit:10;}.cls-4{stroke-width:4.25px;opacity:0;stroke:url(#linear-gradient);}.cls-5{stroke-width:4.1px;opacity:0.05;stroke:url(#linear-gradient-2);}.cls-6{stroke-width:3.94px;opacity:0.1;stroke:url(#linear-gradient-3);}.cls-7{stroke-width:3.79px;opacity:0.14;stroke:url(#linear-gradient-4);}.cls-8{stroke-width:3.63px;opacity:0.19;stroke:url(#linear-gradient-5);}.cls-9{stroke-width:3.48px;opacity:0.24;stroke:url(#linear-gradient-6);}.cls-10{stroke-width:3.32px;opacity:0.29;stroke:url(#linear-gradient-7);}.cls-11{stroke-width:3.17px;opacity:0.33;stroke:url(#linear-gradient-8);}.cls-12{stroke-width:3.01px;opacity:0.38;stroke:url(#linear-gradient-9);}.cls-13{stroke-width:2.85px;opacity:0.43;stroke:url(#linear-gradient-10);}.cls-14{stroke-width:2.7px;opacity:0.48;stroke:url(#linear-gradient-11);}.cls-15{stroke-width:2.54px;opacity:0.52;stroke:url(#linear-gradient-12);}.cls-16{stroke-width:2.39px;opacity:0.57;stroke:url(#linear-gradient-13);}.cls-17{stroke-width:2.23px;opacity:0.62;stroke:url(#linear-gradient-14);}.cls-18{stroke-width:2.08px;opacity:0.67;stroke:url(#linear-gradient-15);}.cls-19{stroke-width:1.92px;opacity:0.71;stroke:url(#linear-gradient-16);}.cls-20{stroke-width:1.77px;opacity:0.76;stroke:url(#linear-gradient-17);}.cls-21{stroke-width:1.61px;opacity:0.81;stroke:url(#linear-gradient-18);}.cls-22{stroke-width:1.46px;opacity:0.86;stroke:url(#linear-gradient-19);}.cls-23{stroke-width:1.3px;opacity:0.9;stroke:url(#linear-gradient-20);}.cls-24{stroke-width:1.15px;opacity:0.95;stroke:url(#linear-gradient-21);}.cls-25{stroke-width:0.99px;stroke:url(#linear-gradient-22);}.cls-26{clip-path:url(#clip-path);}.cls-27{opacity:0.52;mix-blend-mode:overlay;fill:url(#radial-gradient);}</style><linearGradient id="linear-gradient" x1="-787.96" y1="1345.8" x2="-633.04" y2="1345.8" gradientTransform="matrix(1.01, -0.12, 0.1, 1, 871.9, -1122.43)" gradientUnits="userSpaceOnUse"><stop offset="0" stop-color="#47b4dd"/><stop offset="0.34" stop-color="#147294"/><stop offset="0.78" stop-color="#186864"/></linearGradient><linearGradient id="linear-gradient-2" x1="-796.33" y1="1345.95" x2="-625.43" y2="1345.95" gradientTransform="matrix(1.01, -0.12, 0.1, 1, 871.9, -1122.43)" gradientUnits="userSpaceOnUse"><stop offset="0" stop-color="#47b4dd"/><stop offset="0.34" stop-color="#147294"/><stop offset="0.78" stop-color="#176864"/></linearGradient><linearGradient id="linear-gradient-3" x1="-804.73" y1="1345.96" x2="-617.44" y2="1345.96" gradientTransform="matrix(1.01, -0.12, 0.1, 1, 871.9, -1122.43)" gradientUnits="userSpaceOnUse"><stop offset="0" stop-color="#47b4dd"/><stop offset="0.34" stop-color="#147294"/><stop offset="0.78" stop-color="#166864"/></linearGradient><linearGradient id="linear-gradient-4" x1="-813.18" y1="1345.92" x2="-609.29" y2="1345.92" gradientTransform="matrix(1.01, -0.12, 0.1, 1, 871.9, -1122.43)" gradientUnits="userSpaceOnUse"><stop offset="0" stop-color="#47b4dd"/><stop offset="0.34" stop-color="#147294"/><stop offset="0.78" stop-color="#156763"/></linearGradient><linearGradient id="linear-gradient-5" x1="-821.65" y1="1345.86" x2="-601.02" y2="1345.86" gradientTransform="matrix(1.01, -0.12, 0.1, 1, 871.9, -1122.43)" gradientUnits="userSpaceOnUse"><stop offset="0" stop-color="#47b3dd"/><stop offset="0.34" stop-color="#157194"/><stop offset="0.78" stop-color="#146763"/></linearGradient><linearGradient id="linear-gradient-6" x1="-830.16" y1="1345.81" x2="-592.65" y2="1345.81" gradientTransform="matrix(1.01, -0.12, 0.1, 1, 871.9, -1122.43)" gradientUnits="userSpaceOnUse"><stop offset="0" stop-color="#47b3dd"/><stop offset="0.34" stop-color="#157194"/><stop offset="0.78" stop-color="#136763"/></linearGradient><linearGradient id="linear-gradient-7" x1="-838.7" y1="1345.76" x2="-584.19" y2="1345.76" gradientTransform="matrix(1.01, -0.12, 0.1, 1, 871.9, -1122.43)" gradientUnits="userSpaceOnUse"><stop offset="0" stop-color="#48b3dd"/><stop offset="0.34" stop-color="#157194"/><stop offset="0.78" stop-color="#126763"/></linearGradient><linearGradient id="linear-gradient-8" x1="-847.27" y1="1345.72" x2="-575.63" y2="1345.72" gradientTransform="matrix(1.01, -0.12, 0.1, 1, 871.9, -1122.43)" gradientUnits="userSpaceOnUse"><stop offset="0" stop-color="#48b3dd"/><stop offset="0.34" stop-color="#157194"/><stop offset="0.78" stop-color="#116763"/></linearGradient><linearGradient id="linear-gradient-9" x1="-855.86" y1="1345.68" x2="-566.98" y2="1345.68" gradientTransform="matrix(1.01, -0.12, 0.1, 1, 871.9, -1122.43)" gradientUnits="userSpaceOnUse"><stop offset="0" stop-color="#48b3dd"/><stop offset="0.34" stop-color="#157194"/><stop offset="0.78" stop-color="#106662"/></linearGradient><linearGradient id="linear-gradient-10" x1="-864.47" y1="1345.64" x2="-558.26" y2="1345.64" gradientTransform="matrix(1.01, -0.12, 0.1, 1, 871.9, -1122.43)" gradientUnits="userSpaceOnUse"><stop offset="0" stop-color="#48b3dd"/><stop offset="0.34" stop-color="#157194"/><stop offset="0.78" stop-color="#0f6662"/></linearGradient><linearGradient id="linear-gradient-11" x1="-873.11" y1="1345.61" x2="-549.47" y2="1345.61" gradientTransform="matrix(1.01, -0.12, 0.1, 1, 871.9, -1122.43)" gradientUnits="userSpaceOnUse"><stop offset="0" stop-color="#48b3dd"/><stop offset="0.34" stop-color="#157194"/><stop offset="0.78" stop-color="#0e6662"/></linearGradient><linearGradient id="linear-gradient-12" x1="-881.76" y1="1345.59" x2="-540.62" y2="1345.59" gradientTransform="matrix(1.01, -0.12, 0.1, 1, 871.9, -1122.43)" gradientUnits="userSpaceOnUse"><stop offset="0" stop-color="#48b2dc"/><stop offset="0.34" stop-color="#167093"/><stop offset="0.78" stop-color="#0e6662"/></linearGradient><linearGradient id="linear-gradient-13" x1="-890.43" y1="1345.58" x2="-531.72" y2="1345.58" gradientTransform="matrix(1.01, -0.12, 0.1, 1, 871.9, -1122.43)" gradientUnits="userSpaceOnUse"><stop offset="0" stop-color="#48b2dc"/><stop offset="0.34" stop-color="#167093"/><stop offset="0.78" stop-color="#0d6662"/></linearGradient><linearGradient id="linear-gradient-14" x1="-899.12" y1="1345.6" x2="-522.77" y2="1345.6" gradientTransform="matrix(1.01, -0.12, 0.1, 1, 871.9, -1122.43)" gradientUnits="userSpaceOnUse"><stop offset="0" stop-color="#48b2dc"/><stop offset="0.34" stop-color="#167093"/><stop offset="0.78" stop-color="#0c6662"/></linearGradient><linearGradient id="linear-gradient-15" x1="-907.82" y1="1345.62" x2="-513.78" y2="1345.62" gradientTransform="matrix(1.01, -0.12, 0.1, 1, 871.9, -1122.43)" gradientUnits="userSpaceOnUse"><stop offset="0" stop-color="#48b2dc"/><stop offset="0.34" stop-color="#167093"/><stop offset="0.78" stop-color="#0b6561"/></linearGradient><linearGradient id="linear-gradient-16" x1="-916.54" y1="1345.66" x2="-504.75" y2="1345.66" gradientTransform="matrix(1.01, -0.12, 0.1, 1, 871.9, -1122.43)" gradientUnits="userSpaceOnUse"><stop offset="0" stop-color="#48b2dc"/><stop offset="0.34" stop-color="#167093"/><stop offset="0.78" stop-color="#0a6561"/></linearGradient><linearGradient id="linear-gradient-17" x1="-925.27" y1="1345.72" x2="-495.69" y2="1345.72" gradientTransform="matrix(1.01, -0.12, 0.1, 1, 871.9, -1122.43)" gradientUnits="userSpaceOnUse"><stop offset="0" stop-color="#49b2dc"/><stop offset="0.34" stop-color="#167093"/><stop offset="0.78" stop-color="#096561"/></linearGradient><linearGradient id="linear-gradient-18" x1="-934.02" y1="1345.78" x2="-486.61" y2="1345.78" gradientTransform="matrix(1.01, -0.12, 0.1, 1, 871.9, -1122.43)" gradientUnits="userSpaceOnUse"><stop offset="0" stop-color="#49b2dc"/><stop offset="0.34" stop-color="#167093"/><stop offset="0.78" stop-color="#086561"/></linearGradient><linearGradient id="linear-gradient-19" x1="-942.79" y1="1345.85" x2="-477.49" y2="1345.85" gradientTransform="matrix(1.01, -0.12, 0.1, 1, 871.9, -1122.43)" gradientUnits="userSpaceOnUse"><stop offset="0" stop-color="#49b1dc"/><stop offset="0.34" stop-color="#176f93"/><stop offset="0.78" stop-color="#076561"/></linearGradient><linearGradient id="linear-gradient-20" x1="-951.57" y1="1345.93" x2="-468.36" y2="1345.93" gradientTransform="matrix(1.01, -0.12, 0.1, 1, 871.9, -1122.43)" gradientUnits="userSpaceOnUse"><stop offset="0" stop-color="#49b1dc"/><stop offset="0.34" stop-color="#176f93"/><stop offset="0.78" stop-color="#066460"/></linearGradient><linearGradient id="linear-gradient-21" x1="-960.38" y1="1346.02" x2="-459.2" y2="1346.02" gradientTransform="matrix(1.01, -0.12, 0.1, 1, 871.9, -1122.43)" gradientUnits="userSpaceOnUse"><stop offset="0" stop-color="#49b1dc"/><stop offset="0.34" stop-color="#176f93"/><stop offset="0.78" stop-color="#056460"/></linearGradient><linearGradient id="linear-gradient-22" x1="-969.2" y1="1346.11" x2="-450.02" y2="1346.11" gradientTransform="matrix(1.01, -0.12, 0.1, 1, 871.9, -1122.43)" gradientUnits="userSpaceOnUse"><stop offset="0" stop-color="#49b1dc"/><stop offset="0.34" stop-color="#176f93"/><stop offset="0.78" stop-color="#046460"/></linearGradient><clipPath id="clip-path"><path class="cls-1" d="M162.88,160.28c10.53-6.2,28.41-19.75,60.28,0,13.82,8.59,26.67,21.24,49.13,16.07s37.37-20.42,44.12-43.67S346.54,80.14,363,68s53.13-35.39,91.47-29,44.83,35,49.13,45.44,5.78,34-44.65,59.23c0,0-27.92,16.43-33.16,38.26s18.78,32.8,59.69,19.28,57,17.16,60,34.75,1.11,49.2-37.59,68.57S462.43,322.2,475,346.36s29.55,38,13.8,61.54-42.72-5-62.88,2.72-6.23,41.12-4.15,49.84,7.85,40-6.05,66.47c-15.67,29.77-34,33.7-53.54,28.71-25-6.35-45-31.55-52.47-44.92S289.64,459,274.13,443s-36.79-11.45-45.77-2.62-21.45,32.26-36.65,48.78-45.54,49-98.08,32.67C48.38,507.7,40.24,462.2,38.54,449s5.15-43.85,48.75-63.4c40-17.93,55.55-19,57.23-39.55s-9.87-46.52-10.41-56.24-1.57-20.19,8.32-32.4c12.07-14.92,2.41-28.31-2.05-50.32C135.63,183.56,152.41,166.44,162.88,160.28Z"/></clipPath><radialGradient id="radial-gradient" cx="145.29" cy="286.03" r="126.46" gradientUnits="userSpaceOnUse"><stop offset="0.54" stop-color="#1c2a34"/><stop offset="1" stop-color="#1f2632" stop-opacity="0"/></radialGradient></defs><title>landing_liquid_bg</title><g class="cls-2"><g id="Layer_1" data-name="Layer 1"><g class="cls-3"><path class="cls-4" d="M241.61,328.25a158.17,158.17,0,0,0-18.19,10.62c-13.66,9.2-6.89,21.66-1.39,27.3,7.36,7.54,29.5,15.78,42.17-9.81s23.25-.94,25.81,3.63c4.31,7.66,14.47,28.08,28.08,20.87,13.45-7.14,10.86-18.9,9.2-26.4-2-9.14-3-12.51.37-14.11,5.19-2.48,17.14,6.14,20.13-3.87,2.78-9.3-7.76-15.43-6.79-20.27,1-5.13,22.48-7.93,22.1-21.94-.34-12.22-5.53-18.1-21.09-13.77s-15.58-6.27-11.15-11.29,10-4.06,16.63-11.39,4.32-18.18-5.61-23.79c-8-4.53-26.05,1.93-34.7,9.91s-8.05,22.59-20.18,28.54-18.09-13.76-33.75-5.5c-14,7.41-4.47,21.38-4.8,24.23-.57,4.76-2.93,3.62-4,11.5-.84,6.14,2.51,12.67,2.6,18.24C247.13,326,241.61,328.25,241.61,328.25Z"/><path class="cls-5" d="M249,261.9c7.19-3.82,12.87-2.64,18.72.88,4.87,2.92,9.23,6.74,14.83,6.19a12.88,12.88,0,0,0,4.49-1.31c5-2.48,8.1-6.4,10.39-10.91,3.68-7.25,6.52-15.86,12.45-21.19a49.28,49.28,0,0,1,22.68-11c7.55-1.29,13.32,0,17.07,2.37,7.61,4.88,9.9,12.77,6.07,20.77A21.58,21.58,0,0,1,352,253a48.38,48.38,0,0,1-7.18,6.29c-3.72,2.72-6.32,3.93-8.23,7-1.53,2.42-2.28,6-.29,8.26,2.21,2.5,6.76,4,14.83,2.67a31,31,0,0,1,7.94-.12c9.27.7,12.83,7.39,10.92,17.7-1.41,7.65-6.89,11.65-11.59,15.62s-9.53,6.25-10.06,9.37c-.29,1.69.45,3.48,1.3,5.53,2,4.73,5,8.6,2.28,14.67a10.06,10.06,0,0,1-1.4,2.26c-3.9,4.84-9.55,3.76-14.29,3.54a5.87,5.87,0,0,0-4,1c-3.06,2.28-2,6.32-.76,15.89,1.1,8.4,2.67,20-11,26.57a13.32,13.32,0,0,1-3.08,1C304.66,393,295.11,374.57,291,367.17c-2.1-3.76-8.32-17.94-16.63-17.4-3.7.24-8,3.26-11.83,10.59-3.64,6.9-8,12.29-12.85,15.55-11.79,8-26.07,3.72-33.72-2.33-6.55-5.18-12-16.27-6.16-25a23,23,0,0,1,5.12-5.66,99.55,99.55,0,0,1,14.45-9.35c3.42-1.81,5.63-2.87,5.91-3,.8-.32,6.42-2.63,6.71-7.8a20.94,20.94,0,0,0-.17-4c-.77-5.45-3.2-11.56-2.59-16.68.77-6.27,2.26-7.42,3.61-10.11a9,9,0,0,0,.81-2.75c.34-2.08-2.59-7.33-3-13.27C240.19,270.65,242.42,265.38,249,261.9Z"/><path class="cls-6" d="M244.65,256.82c7.35-3.94,13.64-3.5,20.79.84,5.32,3.2,10.11,7.45,16.55,6.68a15,15,0,0,0,5-1.51c5.5-2.73,8.92-7.11,11.36-12.28,3.81-8.06,7.7-17.7,14.16-23.37,5.81-5.07,16-10.88,26.12-11.93,9.08-.94,14.84,1.78,18.67,4.53,7.35,5.27,8.91,13.18,3.53,22.69a29.53,29.53,0,0,1-4.29,5.68c-2.84,3-5.49,5.3-7.65,7.26-3.69,3.34-5.51,5-6.55,7.88-.84,2.35-1.17,5.77,1.44,7.55,3.21,2.19,8.36,2.49,16.49,3a56.45,56.45,0,0,1,8.14,1.15c8.86,1.85,12.46,9.61,8.5,20.24-3.11,8.35-8.67,12-12.66,16.94-3.81,4.68-8,7.42-8.55,11.11-.28,1.87.37,3.85.92,6.12,1.34,5.51,3,8.29-.54,14a13.92,13.92,0,0,1-1.77,2.22c-4.71,5-9.38,5.63-13.79,5.85a5.24,5.24,0,0,0-3.64,1.73c-2.76,2.91-1.69,7.69-1.14,17.68.51,9.31,1.06,20.75-12.85,26.73a14,14,0,0,1-3.23.93c-13.35,2.23-23.43-16.51-27.75-24.2-2.37-4.24-9-19.24-17.58-19.92-4.36-.35-9.42,2.53-13.53,9.93-3.9,7-8.65,13.35-14,17.21-11.87,8.52-27,6-36.94-.58-8.48-5.62-13.82-18.33-8.61-27.42a24.88,24.88,0,0,1,5.14-6.67,79.88,79.88,0,0,1,15.9-10.76c3.64-1.88,6.08-3,6.65-3.28,1.59-.66,7.34-3.06,8-8.3a19.13,19.13,0,0,0,0-4.43c-.64-6.2-3.54-13.31-3-18.65.69-6.45,2.09-8.05,3.86-11.23a10.33,10.33,0,0,0,1-3c.5-2.59-2.59-8.19-3.21-14.73C235,266.29,237.92,260.43,244.65,256.82Z"/><path class="cls-7" d="M240.34,251.74c7.52-4.06,14.42-4.35,22.88.79,5.77,3.49,11,8.17,18.26,7.18A17.52,17.52,0,0,0,287,258c6-3,9.72-7.83,12.32-13.67,4-8.86,8.88-19.52,15.87-25.54,6.37-5.45,18-12.19,29.55-12.83,10.63-.58,16.37,3.58,20.28,6.68,7.11,5.64,10.23,15.29,1,24.61-.53,1.5-2.57,3.61-4.94,6.06-3.07,3.18-5.93,5.85-8.12,8.22-3.65,4-4.68,5.91-4.87,8.79-.15,2.21,0,5.49,3.17,6.85,4.29,1.83,10.15,1.72,18.15,3.35a61,61,0,0,1,8.33,2.41c8.42,2.93,12,11.83,6.08,22.79-4.88,9-10.44,12.35-13.72,18.25-3,5.38-6.48,8.6-7,12.85-.26,2.05.29,4.24.54,6.72.66,6.3,1,8-3.37,13.33a22.87,22.87,0,0,1-2.12,2.17c-5.54,5.12-9.22,7.49-13.29,8.17a5.16,5.16,0,0,0-3.32,2.42c-2.48,3.51-1.43,9.09-1.53,19.46s-.55,21.48-14.67,26.9a14.11,14.11,0,0,1-3.38.82c-14,1.78-24.56-17.3-29.05-25.3-2.64-4.71-9.7-20.7-18.53-22.43-5.06-1-10.86,1.79-15.22,9.27-4.17,7.09-9.29,14.39-15.23,18.87-12,9-28,8.26-40.16,1.17C193.27,382.33,188,368,192.63,358.59a25.91,25.91,0,0,1,5.16-7.67,70.74,70.74,0,0,1,17.34-12.17c3.86-2,6.53-3.23,7.38-3.58,2.4-1,8.3-3.5,9.26-8.81a19,19,0,0,0,.28-4.87c-.52-7-3.88-15.06-3.37-20.63.61-6.62,1.9-8.68,4.09-12.34a10.75,10.75,0,0,0,1.18-3.27c.67-3.09-2.6-9-3.39-16.19S233.41,255.48,240.34,251.74Z"/><path class="cls-8" d="M236,246.66c7.69-4.18,15.2-5.21,25,.75,6.22,3.77,11.85,8.89,20,7.67a19.63,19.63,0,0,0,6-1.89c6.45-3.23,10.54-8.54,13.3-15.05,4.09-9.66,10.05-21.36,17.57-27.72,6.92-5.82,19.93-13.5,33-13.73,12.17-.21,17.89,5.37,21.88,8.83,6.88,6,10,16.33-1.54,26.54-.5,1.42-2.89,3.67-5.58,6.43-3.29,3.37-6.38,6.39-8.6,9.18-3.62,4.56-4.54,7-3.18,9.7a6.38,6.38,0,0,0,4.9,6.14,146.33,146.33,0,0,0,19.82,3.69c3.76.47,6.33,2.6,8.52,3.68,7.94,3.92,11.43,14,3.65,25.33-6.7,9.75-12.24,12.63-14.78,19.57-2.2,6-5,9.77-5.52,14.58-.27,2.24.17,4.63.15,7.32,0,7.12-1,7.67-6.19,12.66-.78.75-1.63,1.42-2.49,2.13-6.35,5.26-9.06,9.36-12.78,10.48-1.2.37-2.09,1.44-3,3.12-2.22,4.08-1.2,10.49-1.92,21.24-.74,11.21-2.17,22.19-16.49,27.08a15.44,15.44,0,0,1-3.53.7c-14.57,1.32-25.7-18.1-30.35-26.39-2.91-5.2-10.41-22.29-19.48-24.95-5.75-1.69-12.29,1.07-16.92,8.61-4.42,7.2-9.92,15.43-16.42,20.53-12.1,9.5-29,10.52-43.38,2.92-12.35-6.51-17.67-22.56-13.5-32.2a27.24,27.24,0,0,1,5.17-8.68A67,67,0,0,1,208,341.35c4.08-2,7-3.4,8.12-3.87,3.19-1.32,9.27-3.94,10.53-9.31a18.75,18.75,0,0,0,.51-5.31c-.4-7.73-4.23-16.81-3.76-22.62.54-6.79,1.71-9.31,4.32-13.45a11.5,11.5,0,0,0,1.37-3.53c.84-3.6-2.61-9.89-3.57-17.64C224.55,257.58,228.91,250.54,236,246.66Z"/><path class="cls-9" d="M231.74,241.58c7.85-4.3,16-6.07,27,.71,6.67,4.05,12.72,9.61,21.7,8.16a22,22,0,0,0,6.46-2.08c6.93-3.48,11.36-9.26,14.27-16.43,4.24-10.47,11.24-23.2,19.27-29.9,7.49-6.2,21.89-14.8,36.44-14.63,13.71.17,19.42,7.14,23.48,11,6.66,6.29,9.73,17.36-4.07,28.46-.48,1.33-3.21,3.73-6.23,6.79A86.24,86.24,0,0,0,361,243.8c-3.6,5.16-3.91,8-1.5,10.61a7.75,7.75,0,0,0,6.62,5.43c6.53,1,13.33,2.36,21.49,4,4,.82,6.52,3.52,8.72,4.94,7.46,4.82,10.84,16.19,1.22,27.88-8.55,10.4-14.08,12.88-15.83,20.88-1.47,6.67-3.45,10.95-4,16.32-.26,2.42.06,5-.23,7.91-.79,7.94-3,7.35-9,12-.9.7-1.88,1.35-2.85,2.08-7.17,5.4-8.89,11.22-12.27,12.8-1.09.51-1.84,1.83-2.68,3.82-2,4.64-1,11.88-2.3,23-1.42,12.17-3.81,22.89-18.32,27.25a15.24,15.24,0,0,1-3.68.58c-15.18.88-26.83-18.88-31.65-27.47-3.17-5.68-11.1-23.94-20.43-27.47-6.43-2.43-13.72.33-18.62,7.95-4.68,7.3-10.55,16.46-17.61,22.19-12.23,10-30,12.79-46.59,4.67-14.29-7-19.64-24.72-16-34.59,1-2.57,2.12-6.2,5.18-9.68a65.31,65.31,0,0,1,20.23-15c4.31-2.13,7.43-3.57,8.87-4.16,4-1.65,10.26-4.38,11.8-9.82a18.75,18.75,0,0,0,.74-5.75c-.28-8.48-4.57-18.56-4.16-24.59.47-7,1.53-10,4.56-14.58a12.17,12.17,0,0,0,1.55-3.78c1-4.1-2.61-10.74-3.74-19.1C219.33,253.22,224.41,245.59,231.74,241.58Z"/><path class="cls-10" d="M227.43,236.49c8-4.41,16.75-6.91,29.11.67,7.11,4.34,13.59,10.34,23.41,8.67a24.51,24.51,0,0,0,7-2.29c7.4-3.72,12.18-10,15.23-17.8,4.39-11.27,12.42-25,21-32.08,8.05-6.57,23.85-16.09,39.88-15.52,15.25.53,20.95,8.9,25.08,13.13,6.45,6.59,9.49,18.4-6.61,30.38-.44,1.25-3.52,3.81-6.87,7.17-3.74,3.76-7.28,7.47-9.54,11.11-3.58,5.76-3.28,9,.18,11.52,1.12,1.85,3.61,5.23,8.35,4.72,7.6-.82,15,2.08,23.15,4.39,4.24,1.2,6.71,4.42,8.92,6.21,7,5.65,10.23,18.31-1.2,30.42-10.42,11-16,13.12-16.9,22.19-.75,7.3-1.94,12.12-2.51,18.06-.25,2.6-.06,5.41-.61,8.5-1.54,8.75-5,7-11.84,11.33-1,.66-2.13,1.29-3.22,2-8,5.55-8.73,13.09-11.76,15.11-1,.66-1.6,2.23-2.37,4.52-1.73,5.2-.82,13.29-2.68,24.8-2.12,13.11-5.45,23.57-20.14,27.41a16.19,16.19,0,0,1-3.83.47c-15.79.39-28-19.67-33-28.56-3.44-6.16-11.76-25.64-21.38-30-7.09-3.21-15.16-.4-20.31,7.29-5,7.4-11.21,17.48-18.8,23.85-12.39,10.41-30.94,15.06-49.81,6.42-16.23-7.4-21.65-26.9-18.4-37,.9-2.78,2-6.79,5.2-10.69a64.46,64.46,0,0,1,21.67-16.41c4.53-2.21,7.88-3.75,9.6-4.45,4.79-2,11.27-4.81,13.08-10.33a18.42,18.42,0,0,0,1-6.19c-.15-9.24-4.9-20.31-4.54-26.57.4-7.13,1.34-10.59,4.79-15.69a12.65,12.65,0,0,0,1.74-4c1.22-4.6-2.63-11.59-3.92-20.55C214.11,248.87,219.91,240.64,227.43,236.49Z"/><path class="cls-11" d="M223.13,231.41c8.19-4.53,17.53-7.77,31.18.63,7.56,4.62,14.47,11.07,25.13,9.16a27,27,0,0,0,7.45-2.48c7.88-4,13-10.68,16.2-19.18,4.54-12.07,13.6-26.87,22.69-34.26,8.6-6.95,25.8-17.39,43.31-16.42,16.8.92,22.5,10.67,26.69,15.28,6.25,6.88,9.24,19.44-9.15,32.31-.41,1.17-3.83,3.87-7.51,7.54-4,3.95-7.74,8-10,12.07-3.57,6.35-2.21,9.35,1.86,12.43,1.93,1.45,4.83,4.81,10.08,4,8.62-1.3,16.66,1.82,24.81,4.73,4.47,1.6,6.91,5.32,9.12,7.48,6.61,6.44,9.61,20.43-3.63,33-12.3,11.64-17.89,13.37-18,23.51-.06,7.94-.43,13.29-1,19.79a55.66,55.66,0,0,1-1,9.1c-2.32,9.56-7.07,6.7-14.67,10.67-1.16.61-2.38,1.22-3.58,2-8.77,5.71-8.57,15-11.25,17.43-.87.81-1.37,2.61-2,5.21-1.51,5.76-.67,14.68-3.07,26.58-2.84,14.06-7.1,24.24-22,27.59a17.86,17.86,0,0,1-4,.35c-16.4-.06-29.1-20.47-34.25-29.65-3.71-6.64-12.4-27.36-22.33-32.51-7.73-4-16.6-1.14-22,6.63-5.22,7.49-11.85,18.49-20,25.52-12.54,10.83-31.91,17.31-53,8.16-18.16-7.85-23.67-29.09-20.84-39.37.83-3,1.83-7.37,5.21-11.69,5.26-6.72,12.94-12.93,23.12-17.83,4.75-2.29,8.33-3.92,10.34-4.75,5.58-2.3,12.29-5.23,14.35-10.82a18.44,18.44,0,0,0,1.19-6.64c0-10-5.23-22.05-4.93-28.55.33-7.3,1.14-11.22,5-16.8a13.6,13.6,0,0,0,1.93-4.3c1.4-5.11-2.64-12.44-4.1-22C208.88,244.51,215.41,235.7,223.13,231.41Z"/><path class="cls-12" d="M218.83,226.33c8.35-4.65,18.3-8.63,33.26.59,8,4.9,15.33,11.79,26.84,9.65a29.81,29.81,0,0,0,7.95-2.67c8.35-4.23,13.81-11.39,17.16-20.56,4.69-12.87,14.78-28.71,24.39-36.44,9.17-7.32,27.76-18.68,46.76-17.32,18.34,1.3,24,12.42,28.29,17.44,6.06,7.15,9,20.47-11.68,34.23-.39,1.08-4.15,3.93-8.16,7.91-4.19,4.14-8.19,8.54-10.49,13-3.55,6.95-1.68,10.39,3.55,13.34,2.41,1.35,6,4.37,11.81,3.31,9.66-1.78,18.3,1.58,26.47,5.07,4.7,2,7.13,6.2,9.32,8.74,6.23,7.21,9,22.53-6.06,35.51-14.19,12.23-19.82,13.63-19,24.81.62,8.6,1.09,14.48.51,21.54a43.39,43.39,0,0,1-1.37,9.69c-3.1,10.35-9.11,6.37-17.49,10a33.45,33.45,0,0,0-3.94,1.95c-9.6,5.86-8.41,16.83-10.75,19.75-.76,1-1.14,3-1.73,5.9-1.29,6.33-.53,16.08-3.46,28.36-3.57,15-8.75,24.9-23.78,27.76a19.1,19.1,0,0,1-4.13.24c-17-.52-30.24-21.26-35.55-30.75-4-7.12-13-29.09-23.28-35-8.35-4.84-18-1.87-23.7,6-5.49,7.59-12.52,19.5-21.18,27.18-12.71,11.26-32.89,19.58-56.25,9.91-20.1-8.29-25.72-31.28-23.29-41.76.75-3.21,1.7-7.95,5.23-12.7,5.32-7.15,13.39-13.91,24.56-19.24,5-2.38,8.78-4.09,11.08-5,6.38-2.63,13.31-5.66,15.62-11.33a18.72,18.72,0,0,0,1.42-7.08c.09-10.75-5.57-23.8-5.33-30.52.27-7.48,1-11.87,5.26-17.92a14.49,14.49,0,0,0,2.12-4.56c1.59-5.61-2.66-13.29-4.28-23.47C203.66,240.16,210.91,230.75,218.83,226.33Z"/><path class="cls-13" d="M214.52,221.25c8.52-4.77,19.09-9.48,35.34.55,8.46,5.18,16.21,12.53,28.56,10.14a31.51,31.51,0,0,0,8.44-2.86c8.83-4.48,14.64-12.1,18.13-21.94,4.85-13.67,16-30.55,26.1-38.62,9.73-7.69,29.71-20,50.2-18.22,19.88,1.69,25.59,14.17,29.89,19.59,5.88,7.42,8.75,21.52-14.22,36.16-.35,1-4.46,4-8.81,8.27s-8.64,9.09-10.95,14c-3.54,7.54-1.14,11.46,5.23,14.25,2.9,1.26,7.11,3.27,13.54,2.6,10.87-1.13,19.94,1.37,28.14,5.41,4.91,2.43,7.34,7.09,9.51,10,5.89,8,8.38,24.61-8.48,38.05-16.08,12.82-21.78,13.91-20.09,26.13,1.29,9.26,2.6,15.65,2,23.28a37.9,37.9,0,0,1-1.76,10.28c-3.9,11.14-11.15,6-20.32,9.34a26.89,26.89,0,0,0-4.3,1.9c-10.41,6-8.24,18.7-10.24,22.06-.65,1.1-.91,3.4-1.41,6.6-1.08,6.89-.4,17.47-3.84,30.14-4.34,15.94-10.41,25.55-25.61,27.93a20.34,20.34,0,0,1-4.27.13c-17.63-.94-31.38-22.05-36.86-31.84-4.24-7.6-13.62-30.83-24.23-37.54-9-5.67-19.48-2.61-25.4,5.31-5.75,7.69-13.18,20.5-22.37,28.84-12.88,11.68-33.86,21.85-59.47,11.67-22-8.75-27.79-33.49-25.73-44.16.66-3.42,1.57-8.53,5.24-13.7,5.4-7.59,13.85-14.9,26-20.66,5.18-2.46,9.23-4.27,11.81-5.33,7.18-3,14.35-6.08,16.9-11.83a18.8,18.8,0,0,0,1.64-7.53c.22-11.5-5.9-25.54-5.71-32.5.2-7.65.76-12.5,5.49-19a15.2,15.2,0,0,0,2.31-4.82c1.79-6.11-2.68-14.14-4.46-24.92C198.43,235.8,206.41,225.8,214.52,221.25Z"/><path class="cls-14" d="M210.22,216.17c8.69-4.89,19.86-10.34,37.42.5,8.9,5.47,17.08,13.27,30.27,10.64a33.58,33.58,0,0,0,8.93-3.06c9.31-4.72,15.47-12.81,19.1-23.31,5-14.47,17.15-32.39,27.81-40.8,10.28-8.07,31.66-21.25,53.63-19.12,21.42,2.07,27.16,15.91,31.5,21.75,5.72,7.68,8.5,22.55-16.75,38.07-.33.92-4.78,4.07-9.46,8.65s-9.1,9.62-11.42,15c-3.54,8.14-.57,12.55,6.91,15.15a30.12,30.12,0,0,0,15.26,1.9,45.92,45.92,0,0,1,29.81,5.76c5.12,2.85,7.59,8,9.7,11.27,5.58,8.73,7.77,26.69-10.9,40.6-18,13.39-23.74,14.19-21.14,27.44,1.94,9.93,4.1,16.82,3.53,25a35.09,35.09,0,0,1-2.14,10.87c-4.7,11.92-13.18,5.69-23.14,8.67a24.7,24.7,0,0,0-4.67,1.86c-11.22,6.15-8.08,20.57-9.73,24.38-.54,1.25-.68,3.79-1.09,7.29-.88,7.46-.28,18.85-4.23,31.93-5.1,16.87-12.07,26.17-27.43,28.09a21.07,21.07,0,0,1-4.42,0c-18.24-1.38-32.52-22.84-38.16-32.92-4.51-8.08-14.2-32.58-25.18-40.06-9.55-6.52-20.92-3.34-27.1,4.65-6,7.78-13.84,21.5-23.56,30.5-13,12.09-34.83,24.11-62.68,13.42-24-9.19-29.88-35.68-28.18-46.55A33.68,33.68,0,0,1,138,379c5.46-8,14.3-15.89,27.44-22.07,5.4-2.55,9.69-4.44,12.56-5.62,8-3.29,15.38-6.5,18.17-12.34a19.1,19.1,0,0,0,1.87-8c.34-12.26-6.24-27.29-6.11-34.48.14-7.82.57-13.14,5.73-20.14a16,16,0,0,0,2.49-5.07c2-6.61-2.69-15-4.63-26.39C193.2,231.45,201.91,220.86,210.22,216.17Z"/><path class="cls-15" d="M205.91,211.09c8.86-5,20.64-11.2,39.5.46,9.35,5.75,18,14,32,11.13a36.68,36.68,0,0,0,9.43-3.25c9.78-5,16.29-13.52,20.06-24.7,5.16-15.26,18.33-34.21,29.52-43,10.84-8.44,33.61-22.54,57.07-20,23,2.46,28.73,17.66,33.1,23.9,5.56,7.94,8.25,23.59-19.29,40-.29.83-5.09,4.14-10.1,9-4.85,4.72-9.57,10.16-11.9,15.92-3.53,8.73,0,13.64,8.6,16.06a36.06,36.06,0,0,0,17,1.19,43.47,43.47,0,0,1,31.47,6.11c5.32,3.29,7.84,8.83,9.9,12.54,5.29,9.48,7.16,28.74-13.33,43.13-19.86,13.95-25.7,14.5-22.2,28.76,2.6,10.61,5.61,18,5,26.75a33,33,0,0,1-2.52,11.47c-5.5,12.7-15.22,5.35-26,8a23,23,0,0,0-5,1.81c-12,6.29-7.91,22.44-9.22,26.69-.43,1.4-.46,4.19-.77,8-.67,8-.16,20.22-4.62,33.7-5.88,17.79-13.72,26.79-29.24,28.27a23.36,23.36,0,0,1-4.58-.11c-18.85-1.83-33.65-23.63-39.46-34-4.78-8.57-14.78-34.32-26.12-42.58-10.14-7.38-22.37-4.08-28.8,4-6.29,7.88-14.52,22.49-24.75,32.16-13.24,12.5-35.81,26.38-65.91,15.17-25.9-9.64-32-37.88-30.62-48.94A34.74,34.74,0,0,1,129.42,383c5.54-8.45,14.76-16.89,28.89-23.49,5.62-2.63,10.14-4.61,13.29-5.91C180.38,350,188,346.72,191,340.79a19.29,19.29,0,0,0,2.11-8.4c.46-13-6.57-29-6.5-36.46.08-8,.37-13.79,6-21.26a17.22,17.22,0,0,0,2.67-5.33c2.19-7.11-2.71-15.84-4.81-27.84C188,227.09,197.41,215.91,205.91,211.09Z"/><path class="cls-16" d="M201.61,206c9-5.13,21.42-12,41.58.42,9.8,6,18.82,14.71,33.7,11.62a39,39,0,0,0,9.92-3.44c10.26-5.23,17.12-14.23,21-26.08,5.31-16.06,19.5-36.05,31.21-45.15,11.41-8.82,35.57-23.83,60.52-20.92,24.5,2.85,30.31,19.39,34.7,26.05,5.41,8.2,8,24.63-21.83,41.93-.26.74-5.39,4.2-10.74,9.39-5.07,4.91-10,10.69-12.37,16.88-3.53,9.33.61,14.73,10.28,17a42.38,42.38,0,0,0,18.72.49c14.06-2.78,24.77.77,33.13,6.44,5.52,3.74,8.1,9.72,10.1,13.81,5,10.26,6.54,30.8-15.75,45.68-21.75,14.5-27.68,14.8-23.27,30.07,3.26,11.29,7.12,19.17,6.55,28.49a31.92,31.92,0,0,1-2.9,12.06c-6.3,13.47-17.25,5-28.79,7.35a21.58,21.58,0,0,0-5.4,1.76c-12.84,6.44-7.74,24.31-8.71,29-.32,1.54-.23,4.58-.46,8.69-.46,8.6,0,21.59-5,35.48-6.67,18.7-15.38,27.41-31.06,28.44a25.81,25.81,0,0,1-4.73-.22c-19.46-2.29-34.79-24.42-40.76-35.11-5.05-9-15.34-36.06-27.07-45.09a21.86,21.86,0,0,0-30.5,3.33c-6.56,8-15.19,23.48-25.94,33.82-13.42,12.91-36.78,28.65-69.12,16.92C120.82,445,114.57,415,115.59,403.77a35.86,35.86,0,0,1,5.29-16.72c5.62-8.87,15.21-17.88,30.33-24.9,5.84-2.72,10.59-4.79,14-6.2,9.57-3.95,17.47-7.33,20.71-13.35a19.73,19.73,0,0,0,2.34-8.85c.58-13.78-6.91-30.79-6.89-38.44,0-8.17.18-14.42,6.2-22.37a18,18,0,0,0,2.86-5.59c2.39-7.61-2.74-16.69-5-29.3C182.74,222.74,192.91,211,201.61,206Z"/><path class="cls-17" d="M197.31,200.93c9.19-5.25,22.19-12.91,43.65.37,10.25,6.32,19.7,15.44,35.42,12.12a41.63,41.63,0,0,0,10.42-3.63c10.73-5.48,17.93-14.95,22-27.46,5.47-16.86,20.68-37.89,32.92-47.33,12-9.19,37.52-25.11,63.95-21.82,26,3.24,31.9,21.13,36.31,28.21,5.26,8.44,7.76,25.66-24.36,43.84-.24.67-5.71,4.28-11.39,9.76-5.29,5.12-10.49,11.24-12.84,17.85-3.53,9.92,1.22,15.82,12,17.88a48.72,48.72,0,0,0,20.45-.22c15.11-3.33,26.35.59,34.8,6.79,5.69,4.18,8.36,10.59,10.29,15.07,4.76,11,5.93,32.86-18.18,48.22-23.64,15.06-29.65,15.11-24.33,31.39,3.92,12,8.63,20.35,8.06,30.23a31.18,31.18,0,0,1-3.28,12.65c-7.11,14.24-19.29,4.66-31.62,6.68a21.21,21.21,0,0,0-5.75,1.72c-13.66,6.58-7.58,26.18-8.21,31.32-.21,1.7,0,5-.14,9.39-.26,9.18.06,23-5.38,37.26-7.47,19.61-17,28-32.89,28.61a27.61,27.61,0,0,1-4.88-.33c-20.07-2.74-35.92-25.22-42.06-36.2-5.31-9.52-15.89-37.81-28-47.61a23,23,0,0,0-32.2,2.67c-6.82,8.07-15.87,24.47-27.13,35.48-13.61,13.32-37.75,30.91-72.34,18.67C112.77,452,106.34,420.25,107,408.79a37,37,0,0,1,5.3-17.72c5.71-9.31,15.67-18.88,31.78-26.32,6-2.8,11-5,14.77-6.5,10.36-4.27,18.51-7.74,22-13.85a19.92,19.92,0,0,0,2.56-9.29c.71-14.54-7.23-32.54-7.28-40.42,0-8.34,0-15.06,6.44-23.48a19,19,0,0,0,3-5.85c2.59-8.11-2.76-17.54-5.17-30.75C177.5,218.38,188.41,206,197.31,200.93Z"/><path class="cls-18" d="M193,195.84c9.36-5.36,23-13.76,45.73.34,10.7,6.6,20.58,16.16,37.13,12.61A43.37,43.37,0,0,0,286.78,205c11.21-5.72,18.76-15.65,23-28.83,5.63-17.66,21.86-39.73,34.63-49.51,12.52-9.57,39.47-26.4,67.39-22.72,27.58,3.63,33.49,22.86,37.91,30.36,5.13,8.7,7.51,26.7-26.9,45.77-.2.58-6,4.34-12,10.13-5.51,5.31-11,11.77-13.31,18.81-3.53,10.52,1.83,16.91,13.64,18.79a55.3,55.3,0,0,0,22.18-.93c16.16-3.88,27.92.4,36.46,7.13,5.87,4.64,8.63,11.48,10.49,16.34,4.51,11.83,5.33,34.91-20.61,50.77-25.52,15.6-31.62,15.43-25.38,32.7,4.57,12.68,10.13,21.52,9.57,32A31.1,31.1,0,0,1,440.12,379c-7.92,15-21.32,4.31-34.44,6a21,21,0,0,0-6.12,1.67c-14.47,6.73-7.41,28.05-7.7,33.64-.1,1.84.21,5.38.18,10.08-.06,9.76.17,24.32-5.77,39.05C378,490,367.58,498,351.56,498.21a30.61,30.61,0,0,1-5-.44c-20.68-3.19-37.06-26-43.36-37.29-5.58-10-16.43-39.55-29-50.13a24.13,24.13,0,0,0-33.89,2c-7.11,8.16-16.56,25.46-28.32,37.15-13.8,13.72-38.73,33.18-75.56,20.42-31.71-11-38.34-44.45-38-56.11a38.35,38.35,0,0,1,5.32-18.73c5.79-9.73,16.13-19.87,33.23-27.73,6.27-2.89,11.49-5.13,15.5-6.79,11.17-4.6,19.56-8.14,23.26-14.35a20.48,20.48,0,0,0,2.79-9.74c.83-15.29-7.56-34.28-7.67-42.39-.12-8.51-.21-15.71,6.67-24.61a19.84,19.84,0,0,0,3.24-6.1c2.79-8.6-2.78-18.39-5.35-32.21C172.27,214,183.91,201.07,193,195.84Z"/><path class="cls-19" d="M188.7,190.76c9.53-5.48,23.75-14.61,47.81.3C247.65,198,258,208,275.35,204.17a46.23,46.23,0,0,0,11.41-4c11.69-6,19.59-16.36,23.94-30.21,5.79-18.46,23-41.56,36.33-51.69,13.09-9.94,41.43-27.68,70.84-23.62,29.11,4,35.09,24.59,39.51,32.51,5,9,7.26,27.74-29.43,47.7-.18.5-6.34,4.41-12.68,10.5-5.73,5.5-11.42,12.31-13.79,19.77-3.52,11.12,2.45,18,15.34,19.7a61.63,61.63,0,0,0,23.89-1.64c17.21-4.43,29.5.21,38.13,7.48,6,5.08,8.91,12.36,10.69,17.6,4.28,12.63,4.72,37-23,53.31-27.4,16.15-33.59,15.75-26.44,34,5.23,13.37,11.64,22.69,11.08,33.7a31.05,31.05,0,0,1-4.05,13.84c-8.72,15.76-23.35,4-37.26,5.35a20.47,20.47,0,0,0-6.49,1.64c-15.28,6.86-7.23,29.91-7.2,35.95,0,2,.44,5.77.51,10.77.14,10.34.27,25.69-6.16,40.83-9.08,21.41-20.34,29.19-36.53,29a33.89,33.89,0,0,1-5.18-.56c-21.29-3.65-38.19-26.8-44.66-38.38-5.85-10.49-17-41.29-29.92-52.65a25.32,25.32,0,0,0-35.59,1.34c-7.37,8.26-17.25,26.44-29.51,38.81-14,14.12-39.7,35.44-78.78,22.17-33.64-11.42-40.47-46.63-40.41-58.5a39.48,39.48,0,0,1,5.34-19.73c5.88-10.16,16.58-20.87,34.66-29.15,6.49-3,11.95-5.31,16.25-7.08,12-4.93,20.61-8.55,24.53-14.86a20.87,20.87,0,0,0,3-10.18c.94-16.05-7.9-36-8.07-44.37-.17-8.68-.4-16.34,6.91-25.72a20.4,20.4,0,0,0,3.42-6.36c3-9.1-2.8-19.24-5.52-33.67C167,209.68,179.41,196.12,188.7,190.76Z"/><path class="cls-20" d="M184.4,185.68c9.69-5.6,24.52-15.47,49.88.25,11.59,7.18,22.32,17.62,40.56,13.61a48.91,48.91,0,0,0,11.91-4.22c12.16-6.23,20.44-17.07,24.9-31.59,6-19.25,24.23-43.4,38-53.87C363.33,99.54,393.06,81,424,85.34c30.64,4.46,36.69,26.31,41.11,34.67,4.87,9.2,7,28.77-32,49.61-.15.42-6.63,4.5-13.32,10.88-5.94,5.7-11.89,12.84-14.26,20.73-3.53,11.71,3.07,19.08,17,20.61a68.06,68.06,0,0,0,25.62-2.35c18.26-5,31.06,0,39.79,7.82,6.21,5.54,9.19,13.25,10.89,18.88,4,13.43,4.11,39-25.46,55.85-29.29,16.69-35.57,16.07-27.51,35.33,5.89,14.07,13.15,23.87,12.59,35.44A31.05,31.05,0,0,1,454,387.24c-9.53,16.52-25.38,3.61-40.09,4.69a20.53,20.53,0,0,0-6.85,1.59c-16.09,7-7.06,31.78-6.69,38.26.13,2.13.66,6.18.83,11.47.33,10.92.37,27-6.54,42.61-9.91,22.3-22,29.77-38.36,29.12a36.32,36.32,0,0,1-5.33-.68c-21.89-4.09-39.33-27.59-46-39.46-6.12-11-17.5-43-30.87-55.17-12.89-11.71-29.59-7.77-37.29.68s-17.94,27.41-30.7,40.47c-14.18,14.53-40.67,37.71-82,23.92-35.58-11.86-42.61-48.8-42.86-60.89a40.66,40.66,0,0,1,5.35-20.74c6-10.59,17-21.86,36.11-30.56,6.71-3.06,12.4-5.48,17-7.37,12.75-5.26,21.65-8.95,25.8-15.37a21.27,21.27,0,0,0,3.25-10.62c1.06-16.8-8.23-37.77-8.46-46.35-.24-8.85-.62-17,7.14-26.83a21.76,21.76,0,0,0,3.61-6.62c3.2-9.59-2.82-20.09-5.7-35.12C161.8,205.32,174.91,191.17,184.4,185.68Z"/><path class="cls-21" d="M180.09,180.6c9.86-5.72,25.31-16.33,52,.21,12,7.46,23.19,18.34,42.27,14.1a51.79,51.79,0,0,0,12.4-4.41c12.64-6.48,21.27-17.78,25.87-33,6.14-20.05,25.41-45.24,39.75-56s45.32-30.21,77.71-25.42c32.19,4.85,38.31,28,42.72,36.82,4.75,9.46,6.77,29.81-34.51,51.54-.11.33-6.94,4.56-14,11.24-6.16,5.9-12.34,13.39-14.72,21.7-3.53,12.31,3.69,20.16,18.7,21.52,7.15.65,16.32.11,27.35-3,19.3-5.54,32.61-.18,41.46,8.16,6.36,6,9.46,14.13,11.07,20.14,3.83,14.25,3.52,41.05-27.88,58.4-31.17,17.22-37.54,16.4-28.57,36.64,6.55,14.78,14.63,25,14.1,37.18a31.59,31.59,0,0,1-4.81,15c-10.34,17.27-27.4,3.25-42.91,4a20.82,20.82,0,0,0-7.22,1.55c-16.9,7.16-6.89,33.65-6.18,40.58.24,2.28.89,6.57,1.15,12.17.53,11.49.47,28.39-6.93,44.38-10.72,23.19-23.64,30.35-40.18,29.29a39.83,39.83,0,0,1-5.47-.79C330.75,518,312.79,494.19,306,482c-6.39-11.44-18-44.76-31.82-57.68-13.42-12.58-31-8.51-39,0s-18.64,28.39-31.89,42.13c-14.39,14.93-41.65,40-85.22,25.67-37.5-12.31-44.76-51-45.3-63.28a41.73,41.73,0,0,1,5.37-21.74c6-11,17.48-22.86,37.55-32,6.92-3.15,12.85-5.65,17.72-7.66,13.56-5.59,22.71-9.35,27.08-15.87A21.69,21.69,0,0,0,164,340.55c1.19-17.56-8.55-39.52-8.84-48.32-.3-9-.81-17.64,7.37-28a22.8,22.8,0,0,0,3.8-6.88c3.41-10.09-2.87-20.93-5.88-36.58C156.54,201,170.41,186.23,180.09,180.6Z"/><path class="cls-22" d="M175.79,175.52c10-5.84,26.08-17.18,54,.17,12.49,7.74,24.06,19.06,44,14.59a54.08,54.08,0,0,0,12.9-4.61c13.11-6.72,22.08-18.48,26.83-34.34,6.3-20.85,26.59-47.08,41.46-58.23s47.27-31.5,81.15-26.32c33.72,5.23,39.93,29.77,44.32,39,4.63,9.72,6.52,30.85-37,53.47a129.45,129.45,0,0,0-14.62,11.61c-6.38,6.09-12.81,13.93-15.2,22.66-3.52,12.91,4.32,21.24,20.39,22.43,7.69.57,17.47-.28,29.08-3.76,20.34-6.09,34.15-.37,43.12,8.51,6.51,6.45,9.75,15,11.27,21.4,3.6,15.08,2.92,43.09-30.31,60.94-33.05,17.76-39.51,16.73-29.63,38,7.21,15.48,16.15,26.21,15.61,38.91A31.84,31.84,0,0,1,468,395.51c-11.15,18-29.43,2.9-45.74,3.35a21,21,0,0,0-7.57,1.5c-17.72,7.3-6.74,35.52-5.68,42.89.35,2.43,1.11,7,1.46,12.87.74,12.08.57,29.74-7.31,46.17-11.54,24.06-25.28,30.92-42,29.45a44.07,44.07,0,0,1-5.62-.9c-23.12-5-41.61-29.18-48.57-41.65-6.65-11.93-18.56-46.5-32.77-60.2-14-13.45-32.47-9.25-40.68-.64s-19.33,29.36-33.08,43.79c-14.59,15.33-42.62,42.24-88.43,27.42-39.44-12.75-46.91-53.13-47.75-65.67a42.85,42.85,0,0,1,5.38-22.75c6.15-11.44,17.92-23.9,39-33.39,7.13-3.25,13.3-5.83,18.46-7.95,14.35-5.92,23.76-9.75,28.35-16.38a22.14,22.14,0,0,0,3.7-11.51c1.31-18.32-8.87-41.27-9.24-50.3-.34-9.2-1-18.28,7.61-29.06a23.75,23.75,0,0,0,4-7.14c3.61-10.58-2.89-21.78-6.06-38C151.31,196.62,165.91,181.28,175.79,175.52Z"/><path class="cls-23" d="M171.48,170.44c10.2-6,26.86-18,56.13.13,12.93,8,24.93,19.78,45.7,15.08a56.11,56.11,0,0,0,13.39-4.8c13.59-7,22.91-19.2,27.81-35.73,6.44-21.64,27.76-48.9,43.15-60.4s49.23-32.8,84.6-27.22S483.81,89,488.18,98.63c4.52,10,6.27,31.89-39.58,55.38a119.23,119.23,0,0,0-15.26,12c-6.61,6.29-13.29,14.46-15.67,23.62-3.55,13.5,4.95,22.32,22.07,23.34,8.24.49,18.61-.68,30.81-4.47,21.38-6.64,35.69-.57,44.78,8.85,6.66,6.91,10,15.91,11.47,22.67,3.38,15.91,2.31,45.13-32.73,63.49s-41.48,17.06-30.69,39.26c7.87,16.2,17.65,27.4,17.12,40.66-.21,5-1.8,10.29-5.58,16.22-12,18.78-31.46,2.52-48.56,2.68a21.37,21.37,0,0,0-7.94,1.46c-18.53,7.45-6.57,37.38-5.17,45.21A124.68,124.68,0,0,1,415,462.55c.94,12.66.67,31.09-7.7,47.95C395,535.44,380.42,542,363.51,540.13a51.36,51.36,0,0,1-5.77-1c-23.73-5.45-42.74-30-49.87-42.74C301,484,288.79,448.14,274.15,433.65c-14.47-14.32-33.91-10-42.37-1.3s-20,30.33-34.27,45.46c-14.79,15.72-43.6,44.5-91.65,29.16-41.38-13.2-49.07-55.29-50.2-68.06-.49-5.54.41-14.25,5.4-23.75,6.23-11.88,18.38-24.89,40.43-34.81,7.36-3.33,13.76-6,19.21-8.25,15.15-6.24,24.8-10.14,29.62-16.87a22.66,22.66,0,0,0,3.93-12c1.43-19.08-9.21-43-9.63-52.28s-1.19-18.92,7.84-30.18a24.69,24.69,0,0,0,4.18-7.4c3.82-11.08-2.9-22.63-6.24-39.49C146.08,192.27,161.41,176.33,171.48,170.44Z"/><path class="cls-24" d="M167.18,165.36c10.37-6.08,27.64-18.9,58.2.08C238.76,173.75,251.19,186,272.8,181a58.73,58.73,0,0,0,13.88-5c14.07-7.23,23.73-19.91,28.78-37.11,6.59-22.44,28.94-50.74,44.86-62.58s51.18-34.09,88-28.12,43.19,33.22,47.53,43.28c4.41,10.23,6,32.93-42.11,57.31a109.2,109.2,0,0,0-15.91,12.36c-6.83,6.48-13.75,15-16.14,24.58-3.55,14.1,5.57,23.39,23.75,24.25,8.78.41,19.75-1.07,32.53-5.18,22.43-7.19,37.24-.77,46.45,9.2,6.81,7.36,10.32,16.8,11.67,23.93,3.16,16.75,1.69,47.12-35.16,66s-43.45,17.4-31.75,40.58c8.53,16.9,19.16,28.57,18.63,42.4-.21,5.17-1.95,10.65-6,16.81-12.8,19.5-33.48,2.18-51.39,2a21.53,21.53,0,0,0-8.3,1.41c-19.34,7.59-6.4,39.25-4.66,47.52a119.64,119.64,0,0,1,2.1,14.26c1.11,13.25.77,32.43-8.08,49.73-13.21,25.81-28.55,32-45.65,29.8a57.56,57.56,0,0,1-5.92-1.13c-24.34-5.91-43.88-30.76-51.17-43.83-7.19-12.89-19.59-50-34.67-65.24s-35.35-10.72-44.07-2-20.74,31.29-35.46,47.12c-15,16.12-44.57,46.77-94.87,30.92-43.31-13.65-51.22-57.45-52.64-70.46-.63-5.75.3-14.82,5.41-24.76,6.33-12.3,18.84-25.87,41.88-36.22,7.58-3.41,14.21-6.17,19.94-8.54,16-6.57,25.86-10.53,30.9-17.38,2.41-3.27,3.75-7.18,4.16-12.39,1.55-19.84-9.54-44.77-10-54.26s-1.37-19.55,8.09-31.29a25.54,25.54,0,0,0,4.35-7.65c4-11.57-2.91-23.49-6.41-41C140.86,187.91,156.91,171.38,167.18,165.36Z"/><path class="cls-25" d="M162.88,160.28c10.53-6.2,28.41-19.75,60.28,0,13.82,8.59,26.67,21.24,49.13,16.07s37.37-20.42,44.12-43.67S346.54,80.14,363,68s53.13-35.39,91.47-29,44.83,35,49.13,45.44,5.78,34-44.65,59.23c0,0-27.92,16.43-33.16,38.26s18.78,32.8,59.69,19.28,57,17.16,60,34.75,1.11,49.2-37.59,68.57S462.43,322.2,475,346.36s29.55,38,13.8,61.54-42.72-5-62.88,2.72-6.23,41.12-4.15,49.84,7.85,40-6.05,66.47c-15.67,29.77-34,33.7-53.54,28.71-25-6.35-45-31.55-52.47-44.92S289.64,459,274.13,443s-36.79-11.45-45.77-2.62-21.45,32.26-36.65,48.78-45.54,49-98.08,32.67C48.38,507.7,40.24,462.2,38.54,449s5.15-43.85,48.75-63.4c40-17.93,55.55-19,57.23-39.55s-9.87-46.52-10.41-56.24-1.57-20.19,8.32-32.4c12.07-14.92,2.41-28.31-2.05-50.32C135.63,183.56,152.41,166.44,162.88,160.28Z"/><g class="cls-26"><circle class="cls-27" cx="145.29" cy="286.03" r="126.46"/></g></g></g></g></svg>