<svg xmlns="http://www.w3.org/2000/svg" xmlns:xlink="http://www.w3.org/1999/xlink" viewBox="0 0 600 600"><defs><style>.cls-1{opacity:0.5;}.cls-2{fill:url(#linear-gradient);}.cls-3{fill:url(#linear-gradient-2);}.cls-4{fill:url(#linear-gradient-3);}.cls-5{fill:url(#linear-gradient-4);}.cls-6{fill:url(#linear-gradient-5);}.cls-7{fill:url(#linear-gradient-6);}.cls-8{fill:url(#linear-gradient-7);}.cls-9{fill:url(#linear-gradient-8);}.cls-10{fill:url(#linear-gradient-9);}.cls-11{fill:url(#linear-gradient-10);}.cls-12{fill:url(#linear-gradient-11);}.cls-13{fill:url(#linear-gradient-12);}.cls-14{fill:url(#linear-gradient-13);}.cls-15{fill:url(#linear-gradient-14);}.cls-16{fill:url(#linear-gradient-15);}.cls-17{fill:url(#linear-gradient-16);}.cls-18{fill:url(#linear-gradient-17);}.cls-19{fill:url(#linear-gradient-18);}.cls-20{fill:url(#linear-gradient-19);}.cls-21{fill:url(#linear-gradient-20);}.cls-22{fill:url(#linear-gradient-21);}.cls-23{fill:url(#linear-gradient-22);}.cls-24{fill:url(#linear-gradient-23);}.cls-25{fill:url(#linear-gradient-24);}.cls-26{fill:url(#linear-gradient-25);}.cls-27{fill:url(#linear-gradient-26);}.cls-28{fill:url(#linear-gradient-27);}.cls-29{fill:url(#linear-gradient-28);}.cls-30{fill:url(#linear-gradient-29);}.cls-31{fill:url(#linear-gradient-30);}.cls-32{fill:url(#linear-gradient-31);}.cls-33{fill:url(#linear-gradient-32);}.cls-34{fill:url(#linear-gradient-33);}.cls-35{fill:url(#linear-gradient-34);}.cls-36{fill:url(#linear-gradient-35);}.cls-37{fill:url(#linear-gradient-36);}.cls-38{fill:url(#linear-gradient-37);}.cls-39{fill:url(#linear-gradient-38);}.cls-40{fill:url(#linear-gradient-39);}.cls-41{fill:url(#linear-gradient-40);}.cls-42{fill:url(#linear-gradient-41);}.cls-43{fill:url(#linear-gradient-42);}.cls-44,.cls-45,.cls-46{opacity:0.2;}.cls-44{fill:url(#linear-gradient-43);}.cls-45{fill:url(#linear-gradient-44);}.cls-46{fill:#283f74;}</style><linearGradient id="linear-gradient" x1="210.58" y1="359.72" x2="557.84" y2="-10.31" gradientUnits="userSpaceOnUse"><stop offset="0" stop-color="#2a2a9c"/><stop offset="0.29" stop-color="#113659"/><stop offset="0.5" stop-color="#283f74"/><stop offset="0.67" stop-color="#0268b8"/><stop offset="0.87" stop-color="#5e9fce"/><stop offset="0.89" stop-color="#67a4d1"/><stop offset="0.91" stop-color="#75add5"/><stop offset="0.95" stop-color="#7db2d8"/><stop offset="1" stop-color="#80b4d9"/></linearGradient><linearGradient id="linear-gradient-2" x1="211.04" y1="360.15" x2="558.3" y2="-9.88" xlink:href="#linear-gradient"/><linearGradient id="linear-gradient-3" x1="211.5" y1="360.59" x2="558.76" y2="-9.45" xlink:href="#linear-gradient"/><linearGradient id="linear-gradient-4" x1="211.98" y1="361.04" x2="559.25" y2="-8.99" xlink:href="#linear-gradient"/><linearGradient id="linear-gradient-5" x1="212.44" y1="361.47" x2="559.7" y2="-8.56" xlink:href="#linear-gradient"/><linearGradient id="linear-gradient-6" x1="212.83" y1="361.84" x2="560.09" y2="-8.2" xlink:href="#linear-gradient"/><linearGradient id="linear-gradient-7" x1="213.25" y1="362.24" x2="560.52" y2="-7.8" xlink:href="#linear-gradient"/><linearGradient id="linear-gradient-8" x1="213.66" y1="362.62" x2="560.92" y2="-7.42" xlink:href="#linear-gradient"/><linearGradient id="linear-gradient-9" x1="214.07" y1="363" x2="561.34" y2="-7.03" xlink:href="#linear-gradient"/><linearGradient id="linear-gradient-10" x1="214.44" y1="363.35" x2="561.71" y2="-6.68" xlink:href="#linear-gradient"/><linearGradient id="linear-gradient-11" x1="214.76" y1="363.65" x2="562.03" y2="-6.38" xlink:href="#linear-gradient"/><linearGradient id="linear-gradient-12" x1="215.11" y1="363.97" x2="562.37" y2="-6.06" xlink:href="#linear-gradient"/><linearGradient id="linear-gradient-13" x1="215.38" y1="364.24" x2="562.65" y2="-5.8" xlink:href="#linear-gradient"/><linearGradient id="linear-gradient-14" x1="215.64" y1="364.47" x2="562.9" y2="-5.56" xlink:href="#linear-gradient"/><linearGradient id="linear-gradient-15" x1="215.81" y1="364.64" x2="563.08" y2="-5.4" xlink:href="#linear-gradient"/><linearGradient id="linear-gradient-16" x1="215.98" y1="364.8" x2="563.25" y2="-5.24" xlink:href="#linear-gradient"/><linearGradient id="linear-gradient-17" x1="216.08" y1="364.89" x2="563.34" y2="-5.15" xlink:href="#linear-gradient"/><linearGradient id="linear-gradient-18" x1="216.07" y1="364.88" x2="563.33" y2="-5.16" xlink:href="#linear-gradient"/><linearGradient id="linear-gradient-19" x1="215.99" y1="364.8" x2="563.25" y2="-5.23" xlink:href="#linear-gradient"/><linearGradient id="linear-gradient-20" x1="215.79" y1="364.62" x2="563.05" y2="-5.42" xlink:href="#linear-gradient"/><linearGradient id="linear-gradient-21" x1="215.47" y1="364.32" x2="562.73" y2="-5.72" xlink:href="#linear-gradient"/><linearGradient id="linear-gradient-22" x1="215.03" y1="363.91" x2="562.3" y2="-6.13" xlink:href="#linear-gradient"/><linearGradient id="linear-gradient-23" x1="214.73" y1="363.62" x2="561.99" y2="-6.41" xlink:href="#linear-gradient"/><linearGradient id="linear-gradient-24" x1="214.65" y1="363.54" x2="561.91" y2="-6.49" xlink:href="#linear-gradient"/><linearGradient id="linear-gradient-25" x1="214.8" y1="363.69" x2="562.06" y2="-6.35" xlink:href="#linear-gradient"/><linearGradient id="linear-gradient-26" x1="215.17" y1="364.04" x2="562.44" y2="-6" xlink:href="#linear-gradient"/><linearGradient id="linear-gradient-27" x1="215.79" y1="364.62" x2="563.06" y2="-5.42" xlink:href="#linear-gradient"/><linearGradient id="linear-gradient-28" x1="216.68" y1="365.45" x2="563.94" y2="-4.59" xlink:href="#linear-gradient"/><linearGradient id="linear-gradient-29" x1="217.78" y1="366.48" x2="565.04" y2="-3.55" xlink:href="#linear-gradient"/><linearGradient id="linear-gradient-30" x1="219.1" y1="367.72" x2="566.36" y2="-2.31" xlink:href="#linear-gradient"/><linearGradient id="linear-gradient-31" x1="220.58" y1="369.12" x2="567.85" y2="-0.92" xlink:href="#linear-gradient"/><linearGradient id="linear-gradient-32" x1="222.23" y1="370.66" x2="569.49" y2="0.62" xlink:href="#linear-gradient"/><linearGradient id="linear-gradient-33" x1="223.85" y1="372.18" x2="571.11" y2="2.14" xlink:href="#linear-gradient"/><linearGradient id="linear-gradient-34" x1="225.21" y1="373.45" x2="572.47" y2="3.42" xlink:href="#linear-gradient"/><linearGradient id="linear-gradient-35" x1="225.08" y1="373.34" x2="572.35" y2="3.3" xlink:href="#linear-gradient"/><linearGradient id="linear-gradient-36" x1="224.91" y1="373.18" x2="572.18" y2="3.14" xlink:href="#linear-gradient"/><linearGradient id="linear-gradient-37" x1="224.71" y1="372.99" x2="571.98" y2="2.96" xlink:href="#linear-gradient"/><linearGradient id="linear-gradient-38" x1="224.53" y1="372.82" x2="571.79" y2="2.78" xlink:href="#linear-gradient"/><linearGradient id="linear-gradient-39" x1="224.4" y1="372.7" x2="571.66" y2="2.66" xlink:href="#linear-gradient"/><linearGradient id="linear-gradient-40" x1="224.32" y1="372.63" x2="571.59" y2="2.59" xlink:href="#linear-gradient"/><linearGradient id="linear-gradient-41" x1="224.28" y1="372.59" x2="571.55" y2="2.55" xlink:href="#linear-gradient"/><linearGradient id="linear-gradient-42" x1="224.27" y1="372.58" x2="571.54" y2="2.54" xlink:href="#linear-gradient"/><linearGradient id="linear-gradient-43" x1="93.46" y1="397.51" x2="186.09" y2="338.19" gradientUnits="userSpaceOnUse"><stop offset="0" stop-color="#113659"/><stop offset="0.23" stop-color="#283f74"/><stop offset="0.51" stop-color="#0268b8"/><stop offset="1" stop-color="#5e9fce"/></linearGradient><linearGradient id="linear-gradient-44" x1="292.63" y1="428.36" x2="467.53" y2="290.97" xlink:href="#linear-gradient-43"/></defs><title>landing_satellite_bg</title><g id="Layer_1" data-name="Layer 1"><g class="cls-1"><path class="cls-2" d="M367.25,368.32c-80.81,0-146.56-65.76-146.56-146.59S286.44,75.17,367.25,75.17s146.56,65.74,146.56,146.56h-3.63c0-78.82-64.12-142.94-142.93-142.94S224.32,142.91,224.32,221.73s64.12,143,142.93,143Z"/><path class="cls-3" d="M362.63,366.77a140.83,140.83,0,1,1,140.89-138.9l-3.55,0a137.76,137.76,0,0,0-136-139.44H362.2a137.42,137.42,0,1,0,.43,274.84h.2v3.55Z"/><path class="cls-4" d="M358,365.24A135.1,135.1,0,1,1,493.19,234l-3.48-.09A132.2,132.2,0,1,0,358,361.77h.39v3.48Z"/><path class="cls-5" d="M353.45,363.72a132,132,0,0,1-132-134c2.83-70.33,60.95-125.62,130.69-125.62,1.75,0,3.49,0,5.25.1,72.08,2.9,128.37,63.88,125.47,135.94l-3.4-.14c2.82-70.18-52-129.57-122.21-132.4s-129.57,52-132.39,122.21A128.6,128.6,0,0,0,353.45,360.32H354l0,3.4Z"/><path class="cls-6" d="M348.77,362.17a127.17,127.17,0,0,1-127-129.78c3.86-69.2,63.28-122.31,132.41-118.52s122.27,63.24,118.46,132.41l-3.33-.19c3.71-67.32-48-125.15-115.31-128.9s-125.15,48-128.9,115.32a123.86,123.86,0,0,0,123.7,126.33h.79l0,3.34Z"/><path class="cls-7" d="M344.16,360.65A122.3,122.3,0,0,1,222,235.06a120.44,120.44,0,1,1,240.25,17.33l-3.25-.23a117.18,117.18,0,1,0-233.74-16.94A119,119,0,0,0,344.16,357.39h1l0,3.26Z"/><path class="cls-8" d="M339.6,359.13A116.16,116.16,0,0,1,256,324.06a117.44,117.44,0,0,1-33.72-86.33A115.32,115.32,0,1,1,452,258.54l-3.18-.29a112.13,112.13,0,1,0-223.34-20.33,114.26,114.26,0,0,0,32.81,83.91,113.08,113.08,0,0,0,82.43,34.1l0,3.19Z"/><path class="cls-9" d="M334.92,357.57a111.18,111.18,0,0,1-80.15-33.69,112.8,112.8,0,0,1-32.19-83.51,110.21,110.21,0,1,1,219.08,24.32l-3.1-.34A107.1,107.1,0,1,0,225.68,240.6,109.67,109.67,0,0,0,257,321.7a108.17,108.17,0,0,0,79.29,32.75l0,3.11Z"/><path class="cls-10" d="M330.32,356.05a106.29,106.29,0,0,1-76.8-32.36,108.21,108.21,0,0,1-30.69-80.64l0-.15a105.19,105.19,0,1,1,208.52,27.91l-3-.41a102.15,102.15,0,0,0-202.48-27.16,105.14,105.14,0,0,0,29.83,78.32A103.2,103.2,0,0,0,331.87,353l0,3Z"/><path class="cls-11" d="M325.77,354.53a101.53,101.53,0,0,1-73.57-31.11,103.41,103.41,0,0,1-29.11-77.7v-.17a100.22,100.22,0,0,1,198,31.41l-2.93-.46a97.25,97.25,0,0,0-192.09-30.56,100.52,100.52,0,0,0,28.28,75.41,98.59,98.59,0,0,0,71.44,30.21h1.67l.05,3Z"/><path class="cls-12" d="M321.1,353A96.54,96.54,0,0,1,251,323.22c-19.32-20-29.12-46.59-27.58-74.83l0-.19a95.28,95.28,0,1,1,187.34,34.92l-2.85-.53a92.38,92.38,0,0,0-181.62-33.95c-1.47,27.4,8,53.17,26.78,72.57a93.83,93.83,0,0,0,70,28.85l.06,2.9Z"/><path class="cls-13" d="M316.5,351.46a91.67,91.67,0,0,1-66.78-28.41c-18.5-19.25-27.77-44.83-26.09-72l0-.22a90.45,90.45,0,0,1,176.78,38.43l-2.76-.6a87.63,87.63,0,0,0-171.23-37.33c-1.61,26.36,7.38,51.14,25.31,69.78a88.77,88.77,0,0,0,66.84,27.52l.06,2.83C317.94,351.46,317.22,351.46,316.5,351.46Z"/><path class="cls-14" d="M312,350a86.91,86.91,0,0,1-63.53-27.15c-17.66-18.48-26.37-43-24.53-69.11l0-.25A85.7,85.7,0,1,1,390.12,295.4l-2.7-.68A82.91,82.91,0,0,0,226.68,254c-1.75,25.25,6.69,49,23.76,66.88a84.44,84.44,0,0,0,63.73,26.26l.07,2.79Z"/><path class="cls-15" d="M307.31,348.42a82,82,0,0,1-60.12-25.78,86.21,86.21,0,0,1-23-66.27l.05-.28a81.06,81.06,0,1,1,155.61,45.48l-2.61-.76a78.34,78.34,0,0,0-150.35-44.09,83.47,83.47,0,0,0,22.3,64,79.47,79.47,0,0,0,60.59,24.89l.08,2.72C309,348.4,308.14,348.42,307.31,348.42Z"/><path class="cls-16" d="M302.85,346.9A78.28,78.28,0,0,1,246,322.46,81.71,81.71,0,0,1,224.41,259l.07-.3a76.55,76.55,0,0,1,145,49l-2.51-.85a73.9,73.9,0,0,0-140-47.46,79,79,0,0,0,20.85,61.26,75.67,75.67,0,0,0,57.44,23.56l.09,2.65C304.55,346.88,303.7,346.9,302.85,346.9Z"/><path class="cls-17" d="M298.32,345.38a73.5,73.5,0,0,1-53.65-23.15c-15-16-22.23-38-20-60.56l.09-.34a72.14,72.14,0,1,1,134.38,52.54l-2.39-.94a69.57,69.57,0,0,0-129.53-50.82c-2.14,21.72,4.89,43,19.3,58.36a70.84,70.84,0,0,0,54.35,22.29l.09,2.57C300.1,345.37,299.21,345.38,298.32,345.38Z"/><path class="cls-18" d="M293.69,343.83A68.59,68.59,0,0,1,243.41,322c-14.16-15.21-20.88-36.24-18.45-57.69l.1-.37A68,68,0,1,1,348.86,320l-2.28-1a65.45,65.45,0,0,0-119.16-54.19c-2.29,20.66,4.2,40.88,17.82,55.5a66.16,66.16,0,0,0,51.23,21l.11,2.49C295.61,343.81,294.65,343.83,293.69,343.83Z"/><path class="cls-19" d="M289.12,342.32a63.75,63.75,0,0,1-47-20.47c-13.34-14.46-19.5-34.44-16.9-54.84l0-.22.1-.19a63.93,63.93,0,1,1,113.13,59.57L336.36,325a61.5,61.5,0,0,0-108.73-57.5c-2.43,19.6,3.5,38.79,16.31,52.66a61.35,61.35,0,0,0,48.11,19.63l.11,2.42C291.15,342.3,290.13,342.32,289.12,342.32Z"/><path class="cls-20" d="M284.61,340.81a59,59,0,0,1-43.71-19.18c-12.53-13.7-18.14-32.65-15.39-52l0-.24.13-.21a60.2,60.2,0,0,1,102.51,63.16l-2-1.24a57.85,57.85,0,0,0-98.38-60.89c-2.56,18.55,2.84,36.7,14.84,49.82a56.7,56.7,0,0,0,45,18.34l.12,2.35C286.7,340.79,285.65,340.81,284.61,340.81Z"/><path class="cls-21" d="M280,339.27a54.2,54.2,0,0,1-40.34-17.79c-11.73-13-16.8-30.87-13.9-49.17l0-.27.17-.22a56.76,56.76,0,0,1,91.88,66.67L316,337.15a54.48,54.48,0,0,0-88-64.21c-2.7,17.52,2.17,34.64,13.38,47A52.07,52.07,0,0,0,283.2,336.9l.13,2.27C282.22,339.24,281.11,339.27,280,339.27Z"/><path class="cls-22" d="M307.47,344.66l-1.67-1.44a51.45,51.45,0,0,0-77.62-67.56c-2.85,16.44,1.47,32.51,11.86,44.12a47.39,47.39,0,0,0,38.73,15.66l.15,2.21a49.66,49.66,0,0,1-40.52-16.39C227.48,309.06,223,292.19,226.06,275l.05-.3.2-.23a53.66,53.66,0,1,1,81.16,70.21Z"/><path class="cls-23" d="M297.12,350.84l-1.48-1.55a48.88,48.88,0,0,0-67.3-70.9c-3,15.4.81,30.43,10.42,41.29A42.84,42.84,0,0,0,274.35,334l.15,2.13a45,45,0,0,1-37.34-15c-10.13-11.45-14.08-27.29-10.85-43.46l.07-.33.24-.23a51,51,0,0,1,70.5,73.76Z"/><path class="cls-24" d="M286.72,357l-1.26-1.64a46.77,46.77,0,0,0-56.92-74.24c-3.13,14.37.12,28.39,9,38.51a38.25,38.25,0,0,0,32.43,12.91l.17,2.06A40.24,40.24,0,0,1,235.94,321c-9.34-10.7-12.74-25.53-9.33-40.68l.08-.36.29-.23A48.84,48.84,0,1,1,286.72,357Z"/><path class="cls-25" d="M276.36,363.13l-1-1.71a45.26,45.26,0,0,0-46.62-77.6c-3.28,13.3-.57,26.26,7.46,35.62a33.81,33.81,0,0,0,29.33,11.62l.19,2a35.78,35.78,0,0,1-31-12.31c-8.54-10-11.37-23.74-7.78-37.81l.1-.39.34-.21a47.26,47.26,0,0,1,49.05,80.8Z"/><path class="cls-26" d="M266,369.27l-.79-1.75a44.38,44.38,0,0,0-36.34-81c-3.42,12.27-1.23,24.2,6,32.82a29.42,29.42,0,0,0,26.18,10.25l.21,1.9a31.28,31.28,0,0,1-27.86-10.92c-7.76-9.21-10-22-6.28-35l.12-.43.4-.18A46.29,46.29,0,1,1,266,369.27Z"/><path class="cls-27" d="M255.57,375.37,255,373.6a44.13,44.13,0,0,0,28.89-55.32,44.23,44.23,0,0,0-54.88-29c-3.52,11.11-1.82,22.32,4.59,30.06a25,25,0,0,0,23,8.82l.25,1.83a26.82,26.82,0,0,1-24.67-9.47c-6.91-8.34-8.69-20.41-4.78-32.27l.15-.45.46-.15a46,46,0,1,1,27.54,87.75Z"/><path class="cls-28" d="M245.2,381.48l-.32-1.75A44.58,44.58,0,0,0,229.18,292c-3.69,10.1-2.52,20.25,3.14,27.25a20.83,20.83,0,0,0,19.87,7.47l.27,1.75a22.57,22.57,0,0,1-21.52-8.1c-6.15-7.61-7.37-18.62-3.25-29.47l.18-.46.49-.1a46.36,46.36,0,0,1,16.84,91.17Z"/><path class="cls-29" d="M234.81,387.58l-.11-1.7a45.67,45.67,0,0,0-5.35-91.19c-3.88,9.1-3.26,18.22,1.68,24.49a16.8,16.8,0,0,0,16.72,6.06l.31,1.67a18.39,18.39,0,0,1-18.36-6.68c-5.43-6.88-6.06-16.86-1.71-26.71l.21-.47.52,0a47.38,47.38,0,0,1,6.09,94.56Z"/><path class="cls-30" d="M226.76,393.69c-.77,0-1.53,0-2.3-.06l.08-1.63a47.37,47.37,0,0,0,4.94-94.61c-4,8.05-3.94,16.36.24,21.79,3.2,4.15,8.13,5.84,13.55,4.62l.36,1.59a14.61,14.61,0,0,1-15.2-5.22c-4.65-6-4.71-15.24-.16-24l.24-.46.52,0a49,49,0,0,1-2.27,98Z"/><path class="cls-31" d="M221.84,400.29a51.51,51.51,0,0,1-7.71-.58l.23-1.54A49.65,49.65,0,0,0,229.6,300c-4.19,7-4.68,14.49-1.21,19.1,2.38,3.16,6.28,4.35,10.43,3.18l.42,1.5c-4.79,1.35-9.31-.05-12.09-3.75-3.13-4.15-4.41-11.93,1.4-21.29l.27-.43.51.07a51.34,51.34,0,0,1,43,58.28,51.21,51.21,0,0,1-50.53,43.59Z"/><path class="cls-32" d="M216.72,407.33a53.33,53.33,0,0,1-12.94-1.58l.35-1.44a52.39,52.39,0,0,0,25.63-101.59c-5.15,7-5.14,13.22-2.81,16.38,1.65,2.23,4.42,2.9,7.4,1.79l.52,1.39c-3.65,1.35-7.05.49-9.11-2.3-2.71-3.66-2.8-10.82,3.11-18.56l.3-.38.47.11a53.88,53.88,0,0,1-12.92,106.18Z"/><path class="cls-33" d="M211.63,414.81a56.36,56.36,0,0,1-18.15-3l.45-1.34a55.54,55.54,0,0,0,35.95-105.11c-5.32,5.64-6.29,11.2-4.47,13.62,1,1.3,2.59,1.47,4.45.49l.66,1.24c-2.47,1.31-4.86,1-6.24-.88-2.26-3-1.3-9.39,4.89-15.78l.31-.32.42.15a56.95,56.95,0,0,1-18.27,110.92Z"/><path class="cls-34" d="M206.55,422.64a60,60,0,0,1-23.4-4.75l.52-1.23A59.06,59.06,0,0,0,230,308c-5.82,4.56-6.95,8.54-6.72,10,0,.23.13.63.42.73s.84,0,1.6-.69l.88,1c-1.42,1.24-2.45,1.12-2.94.94a2.11,2.11,0,0,1-1.29-1.79c-.39-2.56,1.79-7.12,7.54-11.52l.31-.24.36.15a60.39,60.39,0,0,1-23.64,116Z"/><path class="cls-35" d="M201.56,430.77a63.79,63.79,0,0,1-28.7-6.82l.59-1.17a62.84,62.84,0,0,0,56.71-112.16c-5,2.67-7.38,5.28-8.35,6.67l.13.06c-.59,1.35-.95,1.59-1.37,1.53l-.59-.55c-.18-1,2.58-5.18,9.87-9l.29-.16.3.15a64.14,64.14,0,0,1-28.88,121.47Z"/><path class="cls-36" d="M196.52,439.12A67.67,67.67,0,0,1,162.6,430l.61-1.07a66.89,66.89,0,0,0,67.11-115.72,62.67,62.67,0,0,0-8.63,3.32c-2.14,1-3.32,1.52-4.25,1.05a2.54,2.54,0,0,1-1.12-1.86l1.21-.26c.16.73.34,1,.46,1,.41.2,1.63-.36,3.18-1.07a65.31,65.31,0,0,1,9.06-3.46l.25-.07.23.13a68.1,68.1,0,0,1-34.19,127.09Z"/><path class="cls-37" d="M191.48,447.67a71.88,71.88,0,0,1-39.18-11.58l.63-1a71.13,71.13,0,0,0,77.54-119.28c-2.5.19-4.62.44-6.49.65-6.19.71-9.29,1.07-11.92-2l.89-.75c2.22,2.63,4.94,2.31,10.89,1.63,1.94-.22,4.13-.47,6.74-.67l.19,0,.17.11a72.25,72.25,0,0,1-39.46,132.91Z"/><path class="cls-38" d="M186.45,456.46A76,76,0,0,1,142,442.14l.64-.89a75.54,75.54,0,0,0,87.95-122.84c-1.78-.22-3.43-.4-5-.58-8.19-.91-13.13-1.47-17.88-4.78l.63-.9c4.51,3.16,9.35,3.71,17.38,4.6,1.58.18,3.28.37,5.13.6l.13,0,.11.08a76.63,76.63,0,0,1-32,138A78.24,78.24,0,0,1,186.45,456.46Z"/><path class="cls-39" d="M181.42,465.32a80.61,80.61,0,0,1-49.66-17.1l.62-.8A80.11,80.11,0,0,0,230.85,321c-3-1-5.85-1.81-8.47-2.6-7.32-2.19-13.1-3.93-18.94-6.86l.45-.91c5.77,2.9,11.51,4.62,18.78,6.8,2.65.79,5.49,1.64,8.58,2.63l.15.08a81.17,81.17,0,0,1-50,145.15Z"/><path class="cls-40" d="M176.4,474.31a85,85,0,0,1-54.88-20l.6-.72A84.78,84.78,0,0,0,231,323.61c-9.55-4.8-18.12-8.16-26.4-11.4-1.85-.72-3.69-1.44-5.54-2.18l.35-.87,5.53,2.17c8.3,3.25,16.89,6.62,26.57,11.5A85.71,85.71,0,0,1,184.1,474C181.52,474.2,179,474.31,176.4,474.31Z"/><path class="cls-41" d="M171.44,483.4a89.67,89.67,0,0,1-60.17-23l.58-.65A89.54,89.54,0,1,0,231.27,326.26a144.44,144.44,0,0,0-36.58-17.74l.27-.82a145.54,145.54,0,0,1,36.85,17.87,90.44,90.44,0,0,1-55.22,157.69C174.87,483.36,173.15,483.4,171.44,483.4Z"/><path class="cls-42" d="M166.47,492.57A94.6,94.6,0,0,1,101,466.44l.55-.58a94.41,94.41,0,0,0,130-137A110.47,110.47,0,0,0,190.3,307l.21-.77a111.3,111.3,0,0,1,41.53,22,95.22,95.22,0,0,1-63,164.26C168.18,492.56,167.33,492.57,166.47,492.57Z"/><path class="cls-43" d="M161.51,501.82a99.4,99.4,0,0,1-70.75-29.29l.52-.51a99.33,99.33,0,1,0,94.61-166.57l.18-.7a100.07,100.07,0,0,1-24.56,197.07Z"/></g><path class="cls-44" d="M138.12,423.91a55,55,0,1,1,55-55A55.07,55.07,0,0,1,138.12,423.91Zm0-109.28a54.28,54.28,0,1,0,54.31,54.27A54.34,54.34,0,0,0,138.12,314.63Z"/><path class="cls-45" d="M380.58,470.54A111.26,111.26,0,1,1,491.82,359.27,111.39,111.39,0,0,1,380.58,470.54Zm0-221.78A110.53,110.53,0,1,0,491.09,359.27,110.65,110.65,0,0,0,380.58,248.76Z"/><rect class="cls-46" x="-0.01" y="345.64" width="603.03" height="2.72" transform="translate(-135.03 202.95) rotate(-30.75)"/></g></svg>