<svg xmlns="http://www.w3.org/2000/svg" viewBox="0 0 364 98"><defs><style>.cls-1{fill:#31c4f3;}.cls-2{fill:#87d5f4;}.cls-3{fill:#fff;}.cls-4{fill:#3abfef;}.cls-5{fill:#72c5e8;}.cls-6{fill:none;stroke:#fff;stroke-miterlimit:10;stroke-width:3px;}.cls-7{fill:#00aed9;}</style></defs><title>landing_crypto_logo</title><g id="Layer_1" data-name="Layer 1"><g id="logo"><path class="cls-1" d="M253.63,16.69a19.5,19.5,0,0,1,2.42,4.58l2.14-.71a21.67,21.67,0,0,0-2.77-5.23Z"/><path class="cls-1" d="M239,6.54c-.58,0-1.15,0-1.73,0l.17,2.25a18.72,18.72,0,0,1,2.59.07,22,22,0,0,1,2.56.4l.57-2.17a22.19,22.19,0,0,0-2.92-.47C239.77,6.58,239.36,6.55,239,6.54Z"/><path class="cls-1" d="M217.93,37.69A22.07,22.07,0,0,1,216,31.91l-2.35.36a24.68,24.68,0,0,0,2.16,6.53Z"/><path class="cls-1" d="M216.71,15.05l2.08,1.16a22.65,22.65,0,0,1,3.8-4.77L221,9.67A25.21,25.21,0,0,0,216.71,15.05Z"/><path class="cls-1" d="M213.76,22.72l2.34.42a22.31,22.31,0,0,1,2-5.74l-2.09-1.16A24.89,24.89,0,0,0,213.76,22.72Z"/><path class="cls-1" d="M229,4.53,230,6.72a22,22,0,0,1,5.92-1.43l-.17-2.38A24.72,24.72,0,0,0,229,4.53Z"/><path class="cls-1" d="M222,8.77l1.59,1.77a22.52,22.52,0,0,1,5.13-3.29l-.93-2.19A24.62,24.62,0,0,0,222,8.77Z"/><path class="cls-1" d="M257.32,43.8l-1.87-1.48a22.54,22.54,0,0,1-4.53,4.08l1.29,2A24.88,24.88,0,0,0,257.32,43.8Z"/><path class="cls-1" d="M228.31,48.05a22.46,22.46,0,0,1-5.07-3.39l-1.63,1.74a24.84,24.84,0,0,0,5.72,3.82Z"/><path class="cls-1" d="M263.06,30.06a24.89,24.89,0,0,0-.95-9.53l-2.27.75a22.76,22.76,0,0,1-.14,13.38l2.25.79A25.54,25.54,0,0,0,263.06,30.06Z"/><path class="cls-1" d="M249.15,45.93,248,44a19.56,19.56,0,0,1-4.76,2l.53,2.19A21.93,21.93,0,0,0,249.15,45.93Z"/><path class="cls-1" d="M219.64,30.13a19.84,19.84,0,0,1-.06-4.22c0-.33.07-.64.12-.95l-2.21-.4c-.06.38-.1.75-.14,1.14a21.81,21.81,0,0,0,.07,4.78Z"/><path class="cls-1" d="M244.62,6.1a22.61,22.61,0,0,1,5.56,2.5l1.32-2a24.4,24.4,0,0,0-6.27-2.82Z"/><path class="cls-1" d="M234.93,52.49l.22-2.37a22.62,22.62,0,0,1-5.61-1.52l-1,2.17A24.92,24.92,0,0,0,234.93,52.49Z"/><path class="cls-1" d="M223.26,42.83l1.54-1.64a20.26,20.26,0,0,1-3.14-4.11l-2,1A21.87,21.87,0,0,0,223.26,42.83Z"/><path class="cls-1" d="M252.63,7.37l-1.33,2a22,22,0,0,1,4.44,4.17l1.9-1.44A25.2,25.2,0,0,0,252.63,7.37Z"/><path class="cls-1" d="M254.91,40.42a22.2,22.2,0,0,0,2.87-5.17l-2.12-.75A19.24,19.24,0,0,1,253.15,39Z"/><path class="cls-2" d="M256.67,22.33l-2.13.71a17,17,0,0,1-.1,9.75l2.12.75a19.4,19.4,0,0,0,.81-4A19,19,0,0,0,256.67,22.33Z"/><path class="cls-2" d="M235.46,46.8l.21-2.24a17.21,17.21,0,0,1-3.83-1l-.93,2A19.28,19.28,0,0,0,235.46,46.8Z"/><path class="cls-2" d="M250.88,23l2-.66a16.38,16.38,0,0,0-1.9-3.61L249.3,20A14,14,0,0,1,250.88,23Z"/><path class="cls-2" d="M238.73,12.11h-1.1l.15,2.11a13.57,13.57,0,0,1,1.69,0,13.94,13.94,0,0,1,1.68.26l.54-2a17,17,0,0,0-2-.31C239.36,12.14,239,12.12,238.73,12.11Z"/><path class="cls-2" d="M221.71,17.82l2,1.09a17.32,17.32,0,0,1,2.65-3.33l-1.5-1.66A18.85,18.85,0,0,0,221.71,17.82Z"/><path class="cls-2" d="M243.2,11.49a16.92,16.92,0,0,1,3.88,1.75l1.25-1.87a19.3,19.3,0,0,0-4.56-2Z"/><path class="cls-2" d="M251.31,16.91l1.78-1.36a19.28,19.28,0,0,0-3.63-3.42L248.21,14A17.51,17.51,0,0,1,251.31,16.91Z"/><path class="cls-2" d="M248.89,35.63,250.54,37a16.18,16.18,0,0,0,2-3.57l-2-.7A14.69,14.69,0,0,1,248.89,35.63Z"/><path class="cls-2" d="M227.06,40.6l-1.54,1.63A19.25,19.25,0,0,0,229.68,45l.92-2A16.8,16.8,0,0,1,227.06,40.6Z"/><path class="cls-2" d="M225,29.29a13.86,13.86,0,0,1,0-2.88l.06-.5L223,25.54c0,.22-.06.45-.08.68a16.8,16.8,0,0,0,0,3.4Z"/><path class="cls-2" d="M221.52,31l-2.22.35a18.86,18.86,0,0,0,1.57,4.74l2-1.05A16.68,16.68,0,0,1,221.52,31Z"/><path class="cls-2" d="M247.92,41.7l1.21,1.9a19.4,19.4,0,0,0,3.71-3.35l-1.76-1.4A16.18,16.18,0,0,1,247.92,41.7Z"/><path class="cls-2" d="M223,20.1l-2-1.09a19.15,19.15,0,0,0-1.67,4.71l2.21.39A17.25,17.25,0,0,1,223,20.1Z"/><path class="cls-2" d="M241.9,40.78l.5,2a15.69,15.69,0,0,0,3.75-1.6L245,39.45A14,14,0,0,1,241.9,40.78Z"/><path class="cls-2" d="M226.48,34.53l-1.87,1a16.24,16.24,0,0,0,2.47,3.24l1.45-1.54A13.77,13.77,0,0,1,226.48,34.53Z"/><path class="cls-2" d="M237.58,44.74l-.56,0-.21,2.24a19,19,0,0,0,5.27-.34l-.53-2.18A17,17,0,0,1,237.58,44.74Z"/><path class="cls-2" d="M225.82,13l1.51,1.67a16.43,16.43,0,0,1,3.58-2.3L230,10.32A19,19,0,0,0,225.82,13Z"/><path class="cls-2" d="M231.28,9.78l.88,2.07a16.8,16.8,0,0,1,4.14-1l-.17-2.24A19.3,19.3,0,0,0,231.28,9.78Z"/><path class="cls-3" d="M278.75,30.25c0,2.48-2,3.25-4.72,3.25h-3.4V22.21h3c2.91,0,4.67.81,4.67,2.87a2.46,2.46,0,0,1-2.09,2.44C277.46,27.76,278.75,28.37,278.75,30.25Zm-6-3.4h1.32c1.18,0,1.95-.53,1.95-1.59s-.78-1.47-2.26-1.47h-1Zm3.71,3.31c0-1.35-1-1.81-2.22-1.81h-1.49v3.53h1.26C275.47,31.88,276.5,31.59,276.5,30.16Z"/><path class="cls-3" d="M283.06,32.06a1.62,1.62,0,0,0,.49-.08l.44,1.47a3.87,3.87,0,0,1-1.48.29c-1.29,0-2-.77-2-2.2V21.39l2.09-.23V31.39C282.57,31.86,282.72,32.06,283.06,32.06Z"/><path class="cls-3" d="M293,29.17c0,2.73-1.51,4.57-4.06,4.57s-4.07-1.73-4.07-4.57,1.52-4.56,4.08-4.56S293,26.34,293,29.17Zm-5.93,0c0,2.07.64,3,1.87,3s1.86-.93,1.86-3-.64-3-1.85-3S287.11,27.13,287.11,29.17Z"/><path class="cls-3" d="M301,25.62l-.95,1.28a2.62,2.62,0,0,0-1.73-.64c-1.21,0-1.94.88-1.94,3s.76,2.82,1.94,2.82a2.6,2.6,0,0,0,1.71-.67l1,1.38a4.28,4.28,0,0,1-2.79,1c-2.5,0-4.06-1.73-4.06-4.49s1.56-4.64,4-4.64A4,4,0,0,1,301,25.62Z"/><path class="cls-3" d="M302.44,33.5V21.39l2.09-.23V33.5Zm7.55,0h-2.41l-3-4.72,2.89-3.93h2.21l-2.88,3.81Z"/><path class="cls-3" d="M317.35,25.64l-.82,1.26a3.71,3.71,0,0,0-2.12-.74c-.89,0-1.36.34-1.36.87s.34.83,1.81,1.24c1.77.47,2.76,1.19,2.76,2.73,0,1.79-1.66,2.74-3.64,2.74a5,5,0,0,1-3.45-1.22l1.07-1.2a3.68,3.68,0,0,0,2.32.87c.94,0,1.55-.41,1.55-1s-.34-1-2-1.44c-1.78-.49-2.57-1.34-2.57-2.61,0-1.44,1.33-2.52,3.34-2.52A4.85,4.85,0,0,1,317.35,25.64Z"/><path class="cls-3" d="M322.38,33.74c-1.7,0-2.6-1-2.6-2.82V26.36h-1.35V24.85h1.35V22.94l2.09-.24v2.15h2l-.21,1.51h-1.8v4.51c0,.85.28,1.19.92,1.19a1.94,1.94,0,0,0,1-.33l.73,1.36A3.77,3.77,0,0,1,322.38,33.74Z"/><path class="cls-3" d="M330.94,24.74l-.36,2a2.68,2.68,0,0,0-.76-.1c-1.05,0-1.59.77-1.92,2.22V33.5h-2.09V24.85h1.82l.19,1.7a2.43,2.43,0,0,1,2.26-1.92A3,3,0,0,1,330.94,24.74Z"/><path class="cls-3" d="M339.22,29.82h-5.43c.15,1.77,1,2.34,2.13,2.34a3.59,3.59,0,0,0,2.15-.77l.87,1.19a4.94,4.94,0,0,1-3.2,1.16c-2.68,0-4.12-1.78-4.12-4.51s1.39-4.62,3.84-4.62,3.81,1.63,3.81,4.36C339.27,29.25,339.24,29.59,339.22,29.82Zm-2-1.45c0-1.42-.5-2.27-1.68-2.27-1,0-1.6.65-1.72,2.37h3.4Z"/><path class="cls-3" d="M348.2,32.32l-.45,1.39a2,2,0,0,1-1.91-1.26,2.92,2.92,0,0,1-2.58,1.29,2.56,2.56,0,0,1-2.79-2.66c0-1.88,1.42-2.89,3.94-2.89h1.07V27.7c0-1.13-.5-1.51-1.61-1.51a7.83,7.83,0,0,0-2.29.46l-.49-1.42a8.89,8.89,0,0,1,3.14-.62c2.3,0,3.31,1.06,3.31,3v3.63C347.54,31.91,347.77,32.16,348.2,32.32Zm-2.72-1.16V29.41h-.86c-1.36,0-2,.49-2,1.51a1.14,1.14,0,0,0,1.23,1.3A1.83,1.83,0,0,0,345.48,31.16Z"/><path class="cls-3" d="M361.37,27.24V33.5h-2.1V27.57c0-1.08-.42-1.39-.94-1.39-.72,0-1.16.5-1.64,1.31v6H354.6V27.57c0-1.08-.44-1.39-1-1.39-.73,0-1.17.5-1.65,1.31v6h-2.09V24.85h1.82l.16,1.13a2.94,2.94,0,0,1,2.5-1.37,2.11,2.11,0,0,1,2.09,1.45,3.08,3.08,0,0,1,2.6-1.45C360.45,24.61,361.37,25.61,361.37,27.24Z"/><path class="cls-4" d="M237,52.66a28.39,28.39,0,0,0,6.32-.51l-.5-2.3a22.43,22.43,0,0,1-5.49.45l-.8,0-.21,2.4c.34,0,.13,0,.68,0Z"/><polygon class="cls-5" points="1.75 1.9 1.75 52.27 11.72 52.27 11.72 47.67 6.35 47.67 6.35 6.5 47.51 6.5 47.51 29.13 52.11 29.13 52.11 1.9 1.75 1.9"/><path class="cls-3" d="M77.74,21.36c0,5.95-3.45,7.74-8.38,7.74H65.6V13.63h3.76C74.29,13.63,77.74,15.43,77.74,21.36ZM67,14.93V27.8h2.29c3.52,0,6.91-.72,6.91-6.44s-3.39-6.43-6.91-6.43Z"/><path class="cls-3" d="M83,29.38c-2.13,0-3.8-1.24-3.8-3.14,0-2.6,2.56-3.56,8.09-4.11v-.41c0-2.6-1.54-3.18-3.2-3.18-1.94,0-3.12,1.09-3.22,2.58H79.45a4.37,4.37,0,0,1,4.69-3.75c2.67,0,4.44,1.11,4.44,4.52,0,1.58,0,2.63,0,3.54,0,1.3.07,2.44.13,3.67H87.35l-.07-1.75A4.74,4.74,0,0,1,83,29.38Zm4.35-5.53V23.3c-4.67.51-6.67,1.13-6.67,2.92,0,1.22,1.1,2,2.62,2C85.4,28.21,87.32,27.12,87.32,23.85Z"/><path class="cls-3" d="M93.11,15v2.58h2.26v1.16H93.11v7.34c0,1.49,0,1.79,1.57,1.79h.69V29.1H94.28c-2,0-2.52-.47-2.52-2.73V18.78h-1.9V17.62h1.9V15Z"/><path class="cls-3" d="M100.42,29.38c-2.13,0-3.79-1.24-3.79-3.14,0-2.6,2.56-3.56,8.08-4.11v-.41c0-2.6-1.53-3.18-3.2-3.18-1.94,0-3.11,1.09-3.22,2.58H96.9c.3-2.26,2.14-3.75,4.7-3.75S106,18.48,106,21.89c0,1.58,0,2.63,0,3.54,0,1.3.06,2.44.12,3.67H104.8l-.06-1.75A4.75,4.75,0,0,1,100.42,29.38Zm4.36-5.53V23.3c-4.68.51-6.68,1.13-6.68,2.92,0,1.22,1.11,2,2.62,2C102.86,28.21,104.78,27.12,104.78,23.85Z"/><path class="cls-3" d="M75.89,40.6h-1.5c-.53-1.79-2.07-2.77-4.41-2.77-1.56,0-3.76.62-3.76,2.64,0,1.56,1.26,2.35,3,2.74l1.83.4c2.24.51,5.21,1.41,5.21,4.35s-2.71,4.53-5.72,4.53c-3.86,0-6-2.16-6.34-4.93h1.5c.53,2.45,2.26,3.56,4.78,3.56,1.68,0,4.29-.62,4.29-2.92,0-1.9-1.84-2.78-4-3.24l-2-.43c-2-.47-4-1.45-4-4,0-2.86,2.88-4.08,5.38-4.08C73.16,36.46,75.33,38,75.89,40.6Z"/><path class="cls-3" d="M82.84,40.54c3.25,0,5.3,2.73,5.12,6.31H78.83c0,2.78,1.79,4.42,4.14,4.42a3.37,3.37,0,0,0,3.5-2.5h1.39a4.76,4.76,0,0,1-5,3.72c-3.38,0-5.42-2.41-5.42-6S79.77,40.54,82.84,40.54Zm3.67,5.1a3.76,3.76,0,0,0-3.69-3.91c-2.13,0-3.67,1.37-3.95,3.91Z"/><path class="cls-3" d="M94.34,42.05c-2.36,0-3.13,1.71-3.13,4.14v6h-1.3V40.73h1.25v2.09a3.7,3.7,0,0,1,3.4-2.18,1.76,1.76,0,0,1,.38,0v1.4C94.73,42.05,94.54,42.05,94.34,42.05Z"/><path class="cls-3" d="M104,40.73h1.43l-4.27,11.48H99.91L95.52,40.73H97l3.56,9.65Z"/><path class="cls-3" d="M108.15,38.85h-1.32V36.74h1.32Zm0,13.36h-1.32V40.73h1.32Z"/><path class="cls-3" d="M118.69,44.42a3.39,3.39,0,0,0-3.46-2.67c-2,0-3.73,1.58-3.73,4.74s1.75,4.78,3.75,4.78a3.45,3.45,0,0,0,3.52-2.69h1.41a4.79,4.79,0,0,1-4.93,3.91c-3.26,0-5.16-2.43-5.16-6s1.92-6,5.27-6a4.67,4.67,0,0,1,4.72,3.88Z"/><path class="cls-3" d="M126.67,40.54c3.24,0,5.29,2.73,5.12,6.31h-9.13c0,2.78,1.79,4.42,4.14,4.42a3.37,3.37,0,0,0,3.5-2.5h1.38a4.75,4.75,0,0,1-5,3.72c-3.37,0-5.42-2.41-5.42-6S123.6,40.54,126.67,40.54Zm3.67,5.1a3.77,3.77,0,0,0-3.69-3.91c-2.14,0-3.67,1.37-4,3.91Z"/><path class="cls-3" d="M137.55,41.69c-1.26,0-2.92.49-2.92,1.88,0,1.13.89,1.73,2.15,2l1.62.3c1.88.34,4,1,4,3.16s-2.07,3.5-4.56,3.5-4.42-1.18-4.76-3.8h1.39c.25,1.81,1.7,2.62,3.47,2.62,1.39,0,3.12-.57,3.12-2.11,0-1.34-1.28-1.81-2.84-2.11l-1.79-.34c-1.67-.32-3.12-1.28-3.12-3.08s1.82-3.15,4.4-3.15a4.19,4.19,0,0,1,4.42,3.35h-1.39A3,3,0,0,0,137.55,41.69Z"/><path class="cls-3" d="M143.73,40.81V40.5h2v.31h-.82V43h-.36V40.81Z"/><path class="cls-3" d="M146.29,40.83V43h-.36V40.5h.6l.65,2.11.65-2.11h.59V43h-.35V40.83l-.7,2.21H147Z"/><rect class="cls-3" x="19.95" y="37.04" width="3.07" height="15.18"/><path class="cls-3" d="M33.58,38.92a6,6,0,0,1,3,.68l.21.11.73-2.46-.15-.07a9.17,9.17,0,0,0-3.81-.78,7.7,7.7,0,0,0-8.14,8,7.89,7.89,0,0,0,2.07,5.62A7.4,7.4,0,0,0,33,52.21a10.09,10.09,0,0,0,4.34-.91l.13-.06-.55-2.39-.21.09a7.41,7.41,0,0,1-3.22.72c-3,0-5-2.14-5-5.34a5.78,5.78,0,0,1,1.3-3.83,4.78,4.78,0,0,1,3.74-1.57"/><path class="cls-3" d="M45.47,38.67a3.27,3.27,0,0,1,2.43.92A4.73,4.73,0,0,1,49,42.66H41.56c.24-1.57,1.3-4,3.91-4m5.24.25a5.72,5.72,0,0,0-5-2.55,6.58,6.58,0,0,0-5.23,2.38,9,9,0,0,0-1.9,5.78,7.84,7.84,0,0,0,2,5.55A7.3,7.3,0,0,0,46,52.21a12.1,12.1,0,0,0,5-1l.14-.07-.55-2.29-.2.08a9.49,9.49,0,0,1-4,.75A5,5,0,0,1,43,48.57,4.89,4.89,0,0,1,41.51,45H51.87l0-.29A10,10,0,0,0,52,43.53a8.74,8.74,0,0,0-1.28-4.61"/><line class="cls-6" x1="181.04" y1="1.9" x2="181.04" y2="52.21"/></g><path class="cls-7" d="M8.19,95a5.09,5.09,0,0,1-3.74-1.52,4,4,0,0,1-1.13-2.09,18.47,18.47,0,0,1-.24-3.45,18.47,18.47,0,0,1,.24-3.45,3.89,3.89,0,0,1,1.13-2.09,5.09,5.09,0,0,1,3.74-1.52,4.9,4.9,0,0,1,5.11,4.39H10.55a2.28,2.28,0,0,0-2.34-2A2.13,2.13,0,0,0,6.48,84c-.57.6-.69,1.23-.69,3.92s.12,3.31.69,3.92a2.13,2.13,0,0,0,1.73.72,2.28,2.28,0,0,0,2.34-2H13.3A4.91,4.91,0,0,1,8.19,95Z"/><path class="cls-7" d="M26.72,94.85,24,89.31h-2v5.54H19.35V81h5.44a4.2,4.2,0,0,1,4.5,4.25,3.73,3.73,0,0,1-2.53,3.64l3.1,6ZM24.61,83.39H22.06v3.66h2.55a1.83,1.83,0,1,0,0-3.66Z"/><path class="cls-7" d="M41.11,89.16v5.69H38.42V89.16L34.24,81h2.95l2.59,5.59L42.34,81h2.94Z"/><path class="cls-7" d="M56.05,89.63H53.37v5.22H50.66V81h5.39a4.34,4.34,0,1,1,0,8.66Zm-.14-6.24H53.37v3.8h2.54a1.9,1.9,0,1,0,0-3.8Z"/><path class="cls-7" d="M71.92,83.39V94.85H69.21V83.39H65.58V81h10v2.42Z"/><path class="cls-7" d="M89.47,93.45A5.05,5.05,0,0,1,85.73,95,5.11,5.11,0,0,1,82,93.45c-1.4-1.41-1.36-3.14-1.36-5.54s0-4.13,1.36-5.54a5.11,5.11,0,0,1,3.77-1.52,5.05,5.05,0,0,1,3.74,1.52c1.4,1.41,1.38,3.14,1.38,5.54S90.87,92,89.47,93.45Zm-2-9.44a2.24,2.24,0,0,0-1.73-.74A2.29,2.29,0,0,0,84,84c-.53.58-.66,1.23-.66,3.9s.13,3.31.66,3.9a2.29,2.29,0,0,0,1.76.74,2.24,2.24,0,0,0,1.73-.74c.53-.59.68-1.23.68-3.9S88,84.59,87.46,84Z"/><path class="cls-7" d="M102,95a5.13,5.13,0,0,1-3.75-1.52,4.11,4.11,0,0,1-1.13-2.09,26,26,0,0,1,0-6.9,4,4,0,0,1,1.13-2.09A5.13,5.13,0,0,1,102,80.85a4.9,4.9,0,0,1,5.11,4.39h-2.75a2.29,2.29,0,0,0-2.34-2,2.15,2.15,0,0,0-1.74.72c-.56.6-.68,1.23-.68,3.92s.12,3.31.68,3.92a2.15,2.15,0,0,0,1.74.72,2.29,2.29,0,0,0,2.34-2h2.75A4.91,4.91,0,0,1,102,95Z"/><path class="cls-7" d="M118,95a4.83,4.83,0,0,1-5.11-4.88V81h2.71v9a2.41,2.41,0,1,0,4.81,0V81h2.69v9.12A4.82,4.82,0,0,1,118,95Z"/><path class="cls-7" d="M137.22,94.85l-2.71-5.54h-1.95v5.54h-2.71V81h5.44a4.2,4.2,0,0,1,4.51,4.25,3.72,3.72,0,0,1-2.54,3.64l3.1,6Zm-2.1-11.46h-2.56v3.66h2.56a1.83,1.83,0,1,0,0-3.66Z"/><path class="cls-7" d="M153.68,94.85,151,89.31H149v5.54h-2.71V81h5.44a4.2,4.2,0,0,1,4.51,4.25,3.72,3.72,0,0,1-2.54,3.64l3.1,6Zm-2.1-11.46H149v3.66h2.56a1.83,1.83,0,1,0,0-3.66Z"/><path class="cls-7" d="M162.77,94.85V81h9.15v2.42h-6.44v3.25H171v2.42h-5.48v3.37h6.44v2.42Z"/><path class="cls-7" d="M186.48,94.85,181,86.33v8.52h-2.71V81h2.42l5.5,8.5V81h2.71V94.85Z"/><path class="cls-7" d="M200.48,95a5.09,5.09,0,0,1-3.74-1.52,4,4,0,0,1-1.13-2.09,18.47,18.47,0,0,1-.24-3.45,18.47,18.47,0,0,1,.24-3.45,3.89,3.89,0,0,1,1.13-2.09,5.09,5.09,0,0,1,3.74-1.52,4.9,4.9,0,0,1,5.11,4.39h-2.75a2.28,2.28,0,0,0-2.34-2,2.13,2.13,0,0,0-1.73.72c-.57.6-.69,1.23-.69,3.92s.12,3.31.69,3.92a2.13,2.13,0,0,0,1.73.72,2.28,2.28,0,0,0,2.34-2h2.75A4.91,4.91,0,0,1,200.48,95Z"/><path class="cls-7" d="M216.73,89.16v5.69H214V89.16L209.86,81h2.95l2.59,5.59L218,81h3Z"/><path class="cls-7" d="M243.19,93.53a5.1,5.1,0,0,1-3.67,1.32h-5V81h5a5.1,5.1,0,0,1,3.67,1.32c1.56,1.56,1.4,3.47,1.4,5.56S244.75,92,243.19,93.53Zm-1.89-9.29a2.45,2.45,0,0,0-2-.85h-2.05v9h2.05a2.45,2.45,0,0,0,2-.85c.5-.63.58-1.62.58-3.73S241.8,84.87,241.3,84.24Z"/><path class="cls-7" d="M258.77,94.85,258,92.39H253l-.84,2.46h-2.83L254.4,81h2.13l5.07,13.88Zm-3.24-9.79-1.75,5h3.45Z"/><path class="cls-7" d="M271.15,83.39V94.85h-2.71V83.39h-3.63V81h10v2.42Z"/><path class="cls-7" d="M287.41,94.85l-.82-2.46h-4.93l-.84,2.46H278L283.05,81h2.12l5.07,13.88Zm-3.23-9.79-1.76,5h3.45Z"/><path class="cls-7" d="M306.6,83.39V86.8h5.48v2.42H306.6v5.63h-2.71V81H313v2.42Z"/><path class="cls-7" d="M319.1,94.85V81h9.15v2.42h-6.44v3.25h5.48v2.42h-5.48v3.37h6.44v2.42Z"/><path class="cls-7" d="M334.6,94.85V81h9.15v2.42h-6.44v3.25h5.48v2.42h-5.48v3.37h6.44v2.42Z"/><path class="cls-7" d="M358.78,93.53a5.06,5.06,0,0,1-3.66,1.32h-5V81h5a5.06,5.06,0,0,1,3.66,1.32c1.56,1.56,1.41,3.47,1.41,5.56S360.34,92,358.78,93.53Zm-1.89-9.29a2.43,2.43,0,0,0-2-.85h-2v9h2a2.43,2.43,0,0,0,2-.85c.51-.63.59-1.62.59-3.73S357.4,84.87,356.89,84.24Z"/></g></svg>