<svg xmlns="http://www.w3.org/2000/svg" xmlns:xlink="http://www.w3.org/1999/xlink" viewBox="0 0 600 600"><defs><style>.cls-1{isolation:isolate;}.cls-2,.cls-64{opacity:0.3;}.cls-3{opacity:0.8;}.cls-10,.cls-11,.cls-12,.cls-13,.cls-14,.cls-15,.cls-16,.cls-17,.cls-18,.cls-19,.cls-20,.cls-21,.cls-22,.cls-23,.cls-24,.cls-25,.cls-26,.cls-27,.cls-28,.cls-29,.cls-30,.cls-31,.cls-32,.cls-33,.cls-34,.cls-35,.cls-36,.cls-37,.cls-38,.cls-39,.cls-4,.cls-40,.cls-41,.cls-42,.cls-43,.cls-44,.cls-45,.cls-46,.cls-47,.cls-48,.cls-49,.cls-5,.cls-50,.cls-51,.cls-52,.cls-53,.cls-54,.cls-55,.cls-56,.cls-57,.cls-58,.cls-59,.cls-6,.cls-60,.cls-61,.cls-62,.cls-7,.cls-8,.cls-9{fill:none;stroke-miterlimit:10;}.cls-26,.cls-4{stroke-width:3px;}.cls-4{opacity:0.5;stroke:url(#linear-gradient);}.cls-5{stroke-width:2.93px;opacity:0.52;stroke:url(#linear-gradient-2);}.cls-6{stroke-width:2.86px;opacity:0.55;stroke:url(#linear-gradient-3);}.cls-7{stroke-width:2.79px;opacity:0.57;stroke:url(#linear-gradient-4);}.cls-8{stroke-width:2.71px;opacity:0.6;stroke:url(#linear-gradient-5);}.cls-9{stroke-width:2.64px;opacity:0.62;stroke:url(#linear-gradient-6);}.cls-10{stroke-width:2.57px;opacity:0.64;stroke:url(#linear-gradient-7);}.cls-11{stroke-width:2.5px;opacity:0.67;stroke:url(#linear-gradient-8);}.cls-12{stroke-width:2.43px;opacity:0.69;stroke:url(#linear-gradient-9);}.cls-13{stroke-width:2.36px;opacity:0.71;stroke:url(#linear-gradient-10);}.cls-14{stroke-width:2.29px;opacity:0.74;stroke:url(#linear-gradient-11);}.cls-15{stroke-width:2.21px;opacity:0.76;stroke:url(#linear-gradient-12);}.cls-16{stroke-width:2.14px;opacity:0.79;stroke:url(#linear-gradient-13);}.cls-17{stroke-width:2.07px;opacity:0.81;stroke:url(#linear-gradient-14);}.cls-18{stroke-width:2px;opacity:0.83;stroke:url(#linear-gradient-15);}.cls-19{stroke-width:1.93px;opacity:0.86;stroke:url(#linear-gradient-16);}.cls-20{stroke-width:1.86px;opacity:0.88;stroke:url(#linear-gradient-17);}.cls-21{stroke-width:1.79px;opacity:0.9;stroke:url(#linear-gradient-18);}.cls-22{stroke-width:1.71px;opacity:0.93;stroke:url(#linear-gradient-19);}.cls-23{stroke-width:1.64px;opacity:0.95;stroke:url(#linear-gradient-20);}.cls-24{stroke-width:1.57px;opacity:0.98;stroke:url(#linear-gradient-21);}.cls-25,.cls-39{stroke-width:1.5px;}.cls-25{stroke:url(#linear-gradient-22);}.cls-26{stroke:url(#linear-gradient-23);}.cls-27{stroke-width:2.88px;stroke:url(#linear-gradient-24);}.cls-28{stroke-width:2.77px;stroke:url(#linear-gradient-25);}.cls-29{stroke-width:2.65px;stroke:url(#linear-gradient-26);}.cls-30{stroke-width:2.54px;stroke:url(#linear-gradient-27);}.cls-31{stroke-width:2.42px;stroke:url(#linear-gradient-28);}.cls-32{stroke-width:2.31px;stroke:url(#linear-gradient-29);}.cls-33{stroke-width:2.19px;stroke:url(#linear-gradient-30);}.cls-34{stroke-width:2.08px;stroke:url(#linear-gradient-31);}.cls-35{stroke-width:1.96px;stroke:url(#linear-gradient-32);}.cls-36{stroke-width:1.85px;stroke:url(#linear-gradient-33);}.cls-37{stroke-width:1.73px;stroke:url(#linear-gradient-34);}.cls-38{stroke-width:1.62px;stroke:url(#linear-gradient-35);}.cls-39{stroke:url(#linear-gradient-36);}.cls-40,.cls-51{stroke-width:0.8px;}.cls-40{stroke:url(#linear-gradient-37);}.cls-41{stroke-width:0.97px;stroke:url(#linear-gradient-38);}.cls-42{stroke-width:1.14px;stroke:url(#linear-gradient-39);}.cls-43{stroke-width:1.31px;stroke:url(#linear-gradient-40);}.cls-44{stroke-width:1.48px;stroke:url(#linear-gradient-41);}.cls-45{stroke-width:1.65px;stroke:url(#linear-gradient-42);}.cls-46{stroke-width:1.82px;stroke:url(#linear-gradient-43);}.cls-47{stroke-width:1.99px;stroke:url(#linear-gradient-44);}.cls-48{stroke-width:2.16px;stroke:url(#linear-gradient-45);}.cls-49{stroke-width:2.33px;stroke:url(#linear-gradient-46);}.cls-50{stroke-width:2.5px;stroke:url(#linear-gradient-47);}.cls-51{stroke:url(#linear-gradient-48);}.cls-52{stroke-width:0.91px;stroke:url(#linear-gradient-49);}.cls-53{stroke-width:1.02px;stroke:url(#linear-gradient-50);}.cls-54{stroke-width:1.13px;stroke:url(#linear-gradient-51);}.cls-55{stroke-width:1.24px;stroke:url(#linear-gradient-52);}.cls-56{stroke-width:1.35px;stroke:url(#linear-gradient-53);}.cls-57{stroke-width:1.45px;stroke:url(#linear-gradient-54);}.cls-58{stroke-width:1.56px;stroke:url(#linear-gradient-55);}.cls-59{stroke-width:1.67px;stroke:url(#linear-gradient-56);}.cls-60{stroke-width:1.78px;stroke:url(#linear-gradient-57);}.cls-61{stroke-width:1.89px;stroke:url(#linear-gradient-58);}.cls-62{stroke-width:2px;stroke:url(#linear-gradient-59);}.cls-63{opacity:0.12;mix-blend-mode:color-dodge;fill:url(#radial-gradient);}.cls-64{mix-blend-mode:overlay;fill:url(#radial-gradient-2);}</style><linearGradient id="linear-gradient" x1="2662.14" y1="972" x2="2871.29" y2="972" gradientTransform="translate(-2638.21 765.32) rotate(-25.63)" gradientUnits="userSpaceOnUse"><stop offset="0.28" stop-color="#3983bf"/><stop offset="0.8" stop-color="#6f9bf7"/></linearGradient><linearGradient id="linear-gradient-2" x1="2657.1" y1="967.2" x2="2874.27" y2="967.2" gradientTransform="translate(-2638.21 765.32) rotate(-25.63)" gradientUnits="userSpaceOnUse"><stop offset="0.26" stop-color="#3b7fbd"/><stop offset="0.28" stop-color="#3b7fbd"/><stop offset="0.8" stop-color="#6e96f3"/><stop offset="1" stop-color="#6e97f3"/></linearGradient><linearGradient id="linear-gradient-3" x1="2652.06" y1="962.39" x2="2877.24" y2="962.39" gradientTransform="translate(-2638.21 765.32) rotate(-25.63)" gradientUnits="userSpaceOnUse"><stop offset="0.26" stop-color="#3c7abb"/><stop offset="0.28" stop-color="#3c7abb"/><stop offset="0.8" stop-color="#6d92ef"/><stop offset="1" stop-color="#6c93ef"/></linearGradient><linearGradient id="linear-gradient-4" x1="2647.02" y1="957.58" x2="2880.21" y2="957.58" gradientTransform="translate(-2638.21 765.32) rotate(-25.63)" gradientUnits="userSpaceOnUse"><stop offset="0.26" stop-color="#3e76ba"/><stop offset="0.28" stop-color="#3e76ba"/><stop offset="0.8" stop-color="#6b8deb"/><stop offset="1" stop-color="#6b8feb"/></linearGradient><linearGradient id="linear-gradient-5" x1="2641.98" y1="952.78" x2="2883.18" y2="952.78" gradientTransform="translate(-2638.21 765.32) rotate(-25.63)" gradientUnits="userSpaceOnUse"><stop offset="0.26" stop-color="#3f71b8"/><stop offset="0.28" stop-color="#3f71b8"/><stop offset="0.8" stop-color="#6a89e7"/><stop offset="1" stop-color="#6a8ae7"/></linearGradient><linearGradient id="linear-gradient-6" x1="2636.93" y1="947.97" x2="2886.16" y2="947.97" gradientTransform="translate(-2638.21 765.32) rotate(-25.63)" gradientUnits="userSpaceOnUse"><stop offset="0.26" stop-color="#416db6"/><stop offset="0.28" stop-color="#416db6"/><stop offset="0.8" stop-color="#6984e3"/><stop offset="1" stop-color="#6986e3"/></linearGradient><linearGradient id="linear-gradient-7" x1="2631.89" y1="943.16" x2="2889.13" y2="943.16" gradientTransform="translate(-2638.21 765.32) rotate(-25.63)" gradientUnits="userSpaceOnUse"><stop offset="0.26" stop-color="#4268b4"/><stop offset="0.28" stop-color="#4269b4"/><stop offset="0.8" stop-color="#6880df"/><stop offset="1" stop-color="#6782e0"/></linearGradient><linearGradient id="linear-gradient-8" x1="2626.85" y1="938.36" x2="2892.1" y2="938.36" gradientTransform="translate(-2638.21 765.32) rotate(-25.63)" gradientUnits="userSpaceOnUse"><stop offset="0.26" stop-color="#4464b2"/><stop offset="0.28" stop-color="#4464b2"/><stop offset="0.8" stop-color="#677bdb"/><stop offset="1" stop-color="#667edc"/></linearGradient><linearGradient id="linear-gradient-9" x1="2621.81" y1="933.55" x2="2895.08" y2="933.55" gradientTransform="translate(-2638.21 765.32) rotate(-25.63)" gradientUnits="userSpaceOnUse"><stop offset="0.26" stop-color="#4660b1"/><stop offset="0.28" stop-color="#4660b1"/><stop offset="0.8" stop-color="#6577d7"/><stop offset="1" stop-color="#657ad8"/></linearGradient><linearGradient id="linear-gradient-10" x1="2616.77" y1="928.74" x2="2898.05" y2="928.74" gradientTransform="translate(-2638.21 765.32) rotate(-25.63)" gradientUnits="userSpaceOnUse"><stop offset="0.26" stop-color="#475baf"/><stop offset="0.28" stop-color="#475caf"/><stop offset="0.8" stop-color="#6472d3"/><stop offset="1" stop-color="#6376d4"/></linearGradient><linearGradient id="linear-gradient-11" x1="2611.72" y1="923.94" x2="2901.02" y2="923.94" gradientTransform="translate(-2638.21 765.32) rotate(-25.63)" gradientUnits="userSpaceOnUse"><stop offset="0.26" stop-color="#4957ad"/><stop offset="0.28" stop-color="#4957ad"/><stop offset="0.8" stop-color="#636ecf"/><stop offset="1" stop-color="#6272d0"/></linearGradient><linearGradient id="linear-gradient-12" x1="2606.68" y1="919.13" x2="2904" y2="919.13" gradientTransform="translate(-2638.21 765.32) rotate(-25.63)" gradientUnits="userSpaceOnUse"><stop offset="0.26" stop-color="#4a52ab"/><stop offset="0.28" stop-color="#4a53ab"/><stop offset="0.8" stop-color="#6269ca"/><stop offset="1" stop-color="#616dcc"/></linearGradient><linearGradient id="linear-gradient-13" x1="2601.64" y1="914.32" x2="2906.97" y2="914.32" gradientTransform="translate(-2638.21 765.32) rotate(-25.63)" gradientUnits="userSpaceOnUse"><stop offset="0.26" stop-color="#4c4ea9"/><stop offset="0.28" stop-color="#4c4ea9"/><stop offset="0.8" stop-color="#6165c6"/><stop offset="1" stop-color="#6069c8"/></linearGradient><linearGradient id="linear-gradient-14" x1="2596.6" y1="909.52" x2="2909.94" y2="909.52" gradientTransform="translate(-2638.21 765.32) rotate(-25.63)" gradientUnits="userSpaceOnUse"><stop offset="0.26" stop-color="#4d49a7"/><stop offset="0.28" stop-color="#4d4aa7"/><stop offset="0.8" stop-color="#6060c2"/><stop offset="1" stop-color="#5e65c4"/></linearGradient><linearGradient id="linear-gradient-15" x1="2591.56" y1="904.71" x2="2912.92" y2="904.71" gradientTransform="translate(-2638.21 765.32) rotate(-25.63)" gradientUnits="userSpaceOnUse"><stop offset="0.26" stop-color="#4f45a6"/><stop offset="0.28" stop-color="#4f46a6"/><stop offset="0.8" stop-color="#5e5cbe"/><stop offset="1" stop-color="#5d61c0"/></linearGradient><linearGradient id="linear-gradient-16" x1="2586.51" y1="899.9" x2="2915.89" y2="899.9" gradientTransform="translate(-2638.21 765.32) rotate(-25.63)" gradientUnits="userSpaceOnUse"><stop offset="0.26" stop-color="#5141a4"/><stop offset="0.28" stop-color="#5141a4"/><stop offset="0.8" stop-color="#5d57ba"/><stop offset="1" stop-color="#5c5dbc"/></linearGradient><linearGradient id="linear-gradient-17" x1="2581.47" y1="895.1" x2="2918.86" y2="895.1" gradientTransform="translate(-2638.21 765.32) rotate(-25.63)" gradientUnits="userSpaceOnUse"><stop offset="0.26" stop-color="#523ca2"/><stop offset="0.28" stop-color="#523da2"/><stop offset="0.8" stop-color="#5c53b6"/><stop offset="1" stop-color="#5a59b9"/></linearGradient><linearGradient id="linear-gradient-18" x1="2576.43" y1="890.29" x2="2921.83" y2="890.29" gradientTransform="translate(-2638.21 765.32) rotate(-25.63)" gradientUnits="userSpaceOnUse"><stop offset="0.26" stop-color="#5438a0"/><stop offset="0.28" stop-color="#5439a0"/><stop offset="0.8" stop-color="#5b4eb2"/><stop offset="1" stop-color="#5955b5"/></linearGradient><linearGradient id="linear-gradient-19" x1="2571.39" y1="885.48" x2="2924.81" y2="885.48" gradientTransform="translate(-2638.21 765.32) rotate(-25.63)" gradientUnits="userSpaceOnUse"><stop offset="0.26" stop-color="#55339e"/><stop offset="0.28" stop-color="#55349e"/><stop offset="0.8" stop-color="#5a4aae"/><stop offset="1" stop-color="#5850b1"/></linearGradient><linearGradient id="linear-gradient-20" x1="2566.35" y1="880.68" x2="2927.78" y2="880.68" gradientTransform="translate(-2638.21 765.32) rotate(-25.63)" gradientUnits="userSpaceOnUse"><stop offset="0.26" stop-color="#572f9d"/><stop offset="0.28" stop-color="#57309d"/><stop offset="0.8" stop-color="#5845aa"/><stop offset="1" stop-color="#574cad"/></linearGradient><linearGradient id="linear-gradient-21" x1="2561.3" y1="875.87" x2="2930.75" y2="875.87" gradientTransform="translate(-2638.21 765.32) rotate(-25.63)" gradientUnits="userSpaceOnUse"><stop offset="0.26" stop-color="#582a9b"/><stop offset="0.28" stop-color="#582b9b"/><stop offset="0.8" stop-color="#5741a6"/><stop offset="1" stop-color="#5548a9"/></linearGradient><linearGradient id="linear-gradient-22" x1="2556.26" y1="871.06" x2="2933.73" y2="871.06" gradientTransform="translate(-2638.21 765.32) rotate(-25.63)" gradientUnits="userSpaceOnUse"><stop offset="0.26" stop-color="#5a2699"/><stop offset="1" stop-color="#5444a5"/></linearGradient><linearGradient id="linear-gradient-23" x1="-5264.89" y1="5968.42" x2="-5129.71" y2="5968.42" gradientTransform="translate(7447.36 3494.93) rotate(73.67)" gradientUnits="userSpaceOnUse"><stop offset="0.28" stop-color="#4d638c"/><stop offset="0.87" stop-color="#4f91b3"/></linearGradient><linearGradient id="linear-gradient-24" x1="-5271.9" y1="5966.57" x2="-5130.32" y2="5966.57" gradientTransform="translate(7447.36 3494.93) rotate(73.67)" gradientUnits="userSpaceOnUse"><stop offset="0" stop-color="#505f8e"/><stop offset="0.28" stop-color="#4e5f8c"/><stop offset="0.36" stop-color="#4e6590"/><stop offset="0.87" stop-color="#4f8bb1"/><stop offset="1" stop-color="#4f8bb2"/></linearGradient><linearGradient id="linear-gradient-25" x1="-5278.91" y1="5964.71" x2="-5130.93" y2="5964.71" gradientTransform="translate(7447.36 3494.93) rotate(73.67)" gradientUnits="userSpaceOnUse"><stop offset="0" stop-color="#525a90"/><stop offset="0.28" stop-color="#4f5b8c"/><stop offset="0.36" stop-color="#4f618f"/><stop offset="0.87" stop-color="#5085b0"/><stop offset="1" stop-color="#5085b1"/></linearGradient><linearGradient id="linear-gradient-26" x1="-5285.92" y1="5962.86" x2="-5131.54" y2="5962.86" gradientTransform="translate(7447.36 3494.93) rotate(73.67)" gradientUnits="userSpaceOnUse"><stop offset="0" stop-color="#555692"/><stop offset="0.28" stop-color="#51588c"/><stop offset="0.36" stop-color="#505d8e"/><stop offset="0.87" stop-color="#507fae"/><stop offset="1" stop-color="#507fb0"/></linearGradient><linearGradient id="linear-gradient-27" x1="-5292.93" y1="5961" x2="-5132.14" y2="5961" gradientTransform="translate(7447.36 3494.93) rotate(73.67)" gradientUnits="userSpaceOnUse"><stop offset="0" stop-color="#575194"/><stop offset="0.28" stop-color="#52548c"/><stop offset="0.36" stop-color="#50598d"/><stop offset="0.87" stop-color="#5178ad"/><stop offset="1" stop-color="#5179af"/></linearGradient><linearGradient id="linear-gradient-28" x1="-5299.94" y1="5959.15" x2="-5132.75" y2="5959.15" gradientTransform="translate(7447.36 3494.93) rotate(73.67)" gradientUnits="userSpaceOnUse"><stop offset="0" stop-color="#5a4d96"/><stop offset="0.28" stop-color="#53508c"/><stop offset="0.36" stop-color="#51558c"/><stop offset="0.87" stop-color="#5172ab"/><stop offset="1" stop-color="#5173ae"/></linearGradient><linearGradient id="linear-gradient-29" x1="-5306.94" y1="5957.29" x2="-5133.36" y2="5957.29" gradientTransform="translate(7447.36 3494.93) rotate(73.67)" gradientUnits="userSpaceOnUse"><stop offset="0" stop-color="#5c4998"/><stop offset="0.28" stop-color="#544c8c"/><stop offset="0.36" stop-color="#52518b"/><stop offset="0.87" stop-color="#526caa"/><stop offset="1" stop-color="#516dad"/></linearGradient><linearGradient id="linear-gradient-30" x1="-5313.95" y1="5955.44" x2="-5133.97" y2="5955.44" gradientTransform="translate(7447.36 3494.93) rotate(73.67)" gradientUnits="userSpaceOnUse"><stop offset="0" stop-color="#5f449a"/><stop offset="0.28" stop-color="#56498c"/><stop offset="0.36" stop-color="#534c8b"/><stop offset="0.87" stop-color="#5266a8"/><stop offset="1" stop-color="#5268ab"/></linearGradient><linearGradient id="linear-gradient-31" x1="-5320.96" y1="5953.58" x2="-5134.58" y2="5953.58" gradientTransform="translate(7447.36 3494.93) rotate(73.67)" gradientUnits="userSpaceOnUse"><stop offset="0" stop-color="#61409c"/><stop offset="0.28" stop-color="#57458c"/><stop offset="0.36" stop-color="#54488a"/><stop offset="0.87" stop-color="#5360a7"/><stop offset="1" stop-color="#5262aa"/></linearGradient><linearGradient id="linear-gradient-32" x1="-5327.97" y1="5951.73" x2="-5135.19" y2="5951.73" gradientTransform="translate(7447.36 3494.93) rotate(73.67)" gradientUnits="userSpaceOnUse"><stop offset="0" stop-color="#643c9e"/><stop offset="0.28" stop-color="#58418c"/><stop offset="0.36" stop-color="#554489"/><stop offset="0.87" stop-color="#535aa5"/><stop offset="1" stop-color="#525ca9"/></linearGradient><linearGradient id="linear-gradient-33" x1="-5334.98" y1="5949.87" x2="-5135.8" y2="5949.87" gradientTransform="translate(7447.36 3494.93) rotate(73.67)" gradientUnits="userSpaceOnUse"><stop offset="0" stop-color="#6637a0"/><stop offset="0.28" stop-color="#593d8c"/><stop offset="0.36" stop-color="#554088"/><stop offset="0.87" stop-color="#5453a4"/><stop offset="1" stop-color="#5356a8"/></linearGradient><linearGradient id="linear-gradient-34" x1="-5341.99" y1="5948.02" x2="-5136.41" y2="5948.02" gradientTransform="translate(7447.36 3494.93) rotate(73.67)" gradientUnits="userSpaceOnUse"><stop offset="0" stop-color="#6933a2"/><stop offset="0.28" stop-color="#5b3a8c"/><stop offset="0.36" stop-color="#563c87"/><stop offset="0.87" stop-color="#544da2"/><stop offset="1" stop-color="#5350a7"/></linearGradient><linearGradient id="linear-gradient-35" x1="-5349" y1="5946.16" x2="-5137.02" y2="5946.16" gradientTransform="translate(7447.36 3494.93) rotate(73.67)" gradientUnits="userSpaceOnUse"><stop offset="0" stop-color="#6b2ea4"/><stop offset="0.28" stop-color="#5c368c"/><stop offset="0.36" stop-color="#573886"/><stop offset="0.87" stop-color="#5547a1"/><stop offset="1" stop-color="#544aa6"/></linearGradient><linearGradient id="linear-gradient-36" x1="-5356.01" y1="5944.31" x2="-5137.63" y2="5944.31" gradientTransform="translate(7447.36 3494.93) rotate(73.67)" gradientUnits="userSpaceOnUse"><stop offset="0" stop-color="#6e2aa6"/><stop offset="0.36" stop-color="#583485"/><stop offset="1" stop-color="#5444a5"/></linearGradient><linearGradient id="linear-gradient-37" x1="1128.81" y1="-73.19" x2="1241.12" y2="-73.19" gradientTransform="translate(-704.34 500.28) rotate(-11.25)" gradientUnits="userSpaceOnUse"><stop offset="0" stop-color="#5a3587"/><stop offset="1" stop-color="#5444a5"/></linearGradient><linearGradient id="linear-gradient-38" x1="1127.84" y1="-73.73" x2="1235.25" y2="-73.73" gradientTransform="translate(-704.34 500.28) rotate(-11.25)" gradientUnits="userSpaceOnUse"><stop offset="0" stop-color="#593988"/><stop offset="0.32" stop-color="#573e91"/><stop offset="0.71" stop-color="#55489e"/><stop offset="1" stop-color="#524aa4"/></linearGradient><linearGradient id="linear-gradient-39" x1="1126.87" y1="-74.27" x2="1229.39" y2="-74.27" gradientTransform="translate(-704.34 500.28) rotate(-11.25)" gradientUnits="userSpaceOnUse"><stop offset="0" stop-color="#583d88"/><stop offset="0.32" stop-color="#564290"/><stop offset="0.71" stop-color="#554fa0"/><stop offset="1" stop-color="#514fa3"/></linearGradient><linearGradient id="linear-gradient-40" x1="1125.9" y1="-74.82" x2="1223.53" y2="-74.82" gradientTransform="translate(-704.34 500.28) rotate(-11.25)" gradientUnits="userSpaceOnUse"><stop offset="0" stop-color="#574289"/><stop offset="0.32" stop-color="#554590"/><stop offset="0.71" stop-color="#5457a3"/><stop offset="1" stop-color="#4f55a1"/></linearGradient><linearGradient id="linear-gradient-41" x1="1124.92" y1="-75.36" x2="1217.66" y2="-75.36" gradientTransform="translate(-704.34 500.28) rotate(-11.25)" gradientUnits="userSpaceOnUse"><stop offset="0" stop-color="#564689"/><stop offset="0.32" stop-color="#54498f"/><stop offset="0.71" stop-color="#545ea5"/><stop offset="1" stop-color="#4e5ba0"/></linearGradient><linearGradient id="linear-gradient-42" x1="1123.95" y1="-75.9" x2="1211.8" y2="-75.9" gradientTransform="translate(-704.34 500.28) rotate(-11.25)" gradientUnits="userSpaceOnUse"><stop offset="0" stop-color="#554a8a"/><stop offset="0.32" stop-color="#544d8f"/><stop offset="0.71" stop-color="#5366a7"/><stop offset="1" stop-color="#4d619f"/></linearGradient><linearGradient id="linear-gradient-43" x1="1122.98" y1="-76.44" x2="1205.93" y2="-76.44" gradientTransform="translate(-704.34 500.28) rotate(-11.25)" gradientUnits="userSpaceOnUse"><stop offset="0" stop-color="#544e8b"/><stop offset="0.32" stop-color="#53518f"/><stop offset="0.71" stop-color="#526da9"/><stop offset="1" stop-color="#4b669e"/></linearGradient><linearGradient id="linear-gradient-44" x1="1122.01" y1="-76.98" x2="1200.07" y2="-76.98" gradientTransform="translate(-704.34 500.28) rotate(-11.25)" gradientUnits="userSpaceOnUse"><stop offset="0" stop-color="#53528b"/><stop offset="0.32" stop-color="#52558e"/><stop offset="0.71" stop-color="#5274ab"/><stop offset="1" stop-color="#4a6c9d"/></linearGradient><linearGradient id="linear-gradient-45" x1="1121.04" y1="-77.52" x2="1194.2" y2="-77.52" gradientTransform="translate(-704.34 500.28) rotate(-11.25)" gradientUnits="userSpaceOnUse"><stop offset="0" stop-color="#52578c"/><stop offset="0.32" stop-color="#51588e"/><stop offset="0.71" stop-color="#517cae"/><stop offset="1" stop-color="#48729b"/></linearGradient><linearGradient id="linear-gradient-46" x1="1120.06" y1="-78.07" x2="1188.34" y2="-78.07" gradientTransform="translate(-704.34 500.28) rotate(-11.25)" gradientUnits="userSpaceOnUse"><stop offset="0" stop-color="#515b8c"/><stop offset="0.32" stop-color="#505c8d"/><stop offset="0.71" stop-color="#5183b0"/><stop offset="1" stop-color="#47779a"/></linearGradient><linearGradient id="linear-gradient-47" x1="1119.09" y1="-78.61" x2="1182.48" y2="-78.61" gradientTransform="translate(-704.34 500.28) rotate(-11.25)" gradientUnits="userSpaceOnUse"><stop offset="0" stop-color="#505f8d"/><stop offset="0.32" stop-color="#4f608d"/><stop offset="0.71" stop-color="#508bb2"/><stop offset="1" stop-color="#457d99"/></linearGradient><linearGradient id="linear-gradient-48" x1="420.61" y1="447.66" x2="520.39" y2="555.34" gradientUnits="userSpaceOnUse"><stop offset="0" stop-color="#752e99"/><stop offset="1" stop-color="#5444a5"/></linearGradient><linearGradient id="linear-gradient-49" x1="-73.48" y1="330.22" x2="32.55" y2="428.72" gradientTransform="translate(514.57 130.91) rotate(3.93) scale(0.97)" gradientUnits="userSpaceOnUse"><stop offset="0" stop-color="#723298"/><stop offset="0.32" stop-color="#68399c"/><stop offset="0.87" stop-color="#5748a4"/><stop offset="1" stop-color="#544aa6"/></linearGradient><linearGradient id="linear-gradient-50" x1="-604.94" y1="280.59" x2="-494.12" y2="369.06" gradientTransform="translate(1029.14 261.81) rotate(8.06) scale(0.95)" gradientUnits="userSpaceOnUse"><stop offset="0" stop-color="#6e3797"/><stop offset="0.32" stop-color="#653d9a"/><stop offset="0.87" stop-color="#574ea6"/><stop offset="1" stop-color="#5351a7"/></linearGradient><linearGradient id="linear-gradient-51" x1="-1159.97" y1="310.45" x2="-1046.01" y2="388.24" gradientTransform="translate(1543.71 392.72) rotate(12.36) scale(0.93)" gradientUnits="userSpaceOnUse"><stop offset="0" stop-color="#6b3b96"/><stop offset="0.32" stop-color="#634199"/><stop offset="0.87" stop-color="#5655a7"/><stop offset="1" stop-color="#5357a9"/></linearGradient><linearGradient id="linear-gradient-52" x1="-1720.6" y1="427.65" x2="-1605.25" y2="494.32" gradientTransform="matrix(0.88, 0.27, -0.27, 0.88, 2058.29, 523.62)" gradientUnits="userSpaceOnUse"><stop offset="0" stop-color="#684095"/><stop offset="0.32" stop-color="#604597"/><stop offset="0.87" stop-color="#555ca8"/><stop offset="1" stop-color="#525eaa"/></linearGradient><linearGradient id="linear-gradient-53" x1="-2266.15" y1="634.41" x2="-2151.23" y2="689.8" gradientTransform="matrix(0.85, 0.33, -0.33, 0.85, 2572.86, 654.53)" gradientUnits="userSpaceOnUse"><stop offset="0" stop-color="#644494"/><stop offset="0.32" stop-color="#5e4996"/><stop offset="0.87" stop-color="#5463aa"/><stop offset="1" stop-color="#5264ab"/></linearGradient><linearGradient id="linear-gradient-54" x1="-2775.49" y1="926.35" x2="-2662.77" y2="970.63" gradientTransform="translate(3087.43 785.43) rotate(25.86) scale(0.92)" gradientUnits="userSpaceOnUse"><stop offset="0" stop-color="#614992"/><stop offset="0.32" stop-color="#5b4c94"/><stop offset="0.87" stop-color="#5469ab"/><stop offset="1" stop-color="#516bac"/></linearGradient><linearGradient id="linear-gradient-55" x1="-3229.63" y1="1292.66" x2="-3120.79" y2="1326.26" gradientTransform="translate(3602 916.34) rotate(30.38) scale(0.92)" gradientUnits="userSpaceOnUse"><stop offset="0" stop-color="#5d4d91"/><stop offset="0.32" stop-color="#595093"/><stop offset="0.87" stop-color="#5370ad"/><stop offset="1" stop-color="#5171ad"/></linearGradient><linearGradient id="linear-gradient-56" x1="-3614.07" y1="1717.33" x2="-3510.55" y2="1740.98" gradientTransform="matrix(0.77, 0.53, -0.53, 0.77, 4116.57, 1047.24)" gradientUnits="userSpaceOnUse"><stop offset="0" stop-color="#5a5290"/><stop offset="0.32" stop-color="#565491"/><stop offset="0.87" stop-color="#5277ae"/><stop offset="1" stop-color="#5078ae"/></linearGradient><linearGradient id="linear-gradient-57" x1="-3920.18" y1="2181.41" x2="-3823.19" y2="2196.05" gradientTransform="translate(4631.14 1178.15) rotate(39.12) scale(0.95)" gradientUnits="userSpaceOnUse"><stop offset="0" stop-color="#57568f"/><stop offset="0.32" stop-color="#545890"/><stop offset="0.87" stop-color="#517eaf"/><stop offset="1" stop-color="#507eb0"/></linearGradient><linearGradient id="linear-gradient-58" x1="-4145.56" y1="2665.38" x2="-4055.99" y2="2672.1" gradientTransform="translate(5145.71 1309.05) rotate(43.25) scale(0.97)" gradientUnits="userSpaceOnUse"><stop offset="0" stop-color="#535b8e"/><stop offset="0.32" stop-color="#515c8e"/><stop offset="0.87" stop-color="#5184b1"/><stop offset="1" stop-color="#4f85b1"/></linearGradient><linearGradient id="linear-gradient-59" x1="-4293.27" y1="3151.35" x2="-4211.73" y2="3151.35" gradientTransform="matrix(0.68, 0.73, -0.73, 0.68, 5660.29, 1439.96)" gradientUnits="userSpaceOnUse"><stop offset="0" stop-color="#505f8d"/><stop offset="0.32" stop-color="#4f608d"/><stop offset="0.87" stop-color="#508bb2"/><stop offset="1" stop-color="#4f8bb2"/></linearGradient><radialGradient id="radial-gradient" cx="364.77" cy="-8326.4" r="59" gradientTransform="matrix(-0.62, 0.13, 0.05, 0.39, 1117.2, 3656.19)" gradientUnits="userSpaceOnUse"><stop offset="0" stop-color="#fff"/><stop offset="1"/></radialGradient><radialGradient id="radial-gradient-2" cx="-124.77" cy="-1049.35" r="140.4" gradientTransform="translate(382.67 1194.67) scale(1.37 0.86)" gradientUnits="userSpaceOnUse"><stop offset="0.12" stop-color="#1e1e2d"/><stop offset="1" stop-color="#1f2632" stop-opacity="0"/></radialGradient></defs><title>landing_elements_bg</title><g class="cls-1"><g id="Layer_1" data-name="Layer 1"><g class="cls-2"><g class="cls-3"><polygon class="cls-4" points="284.59 342.56 191.86 387.04 184.02 489.58 268.9 547.64 361.63 503.16 369.47 400.62 284.59 342.56"/><polygon class="cls-5" points="281.88 334.63 185.51 380.86 177.35 487.44 265.58 547.79 361.96 501.56 370.11 394.98 281.88 334.63"/><polygon class="cls-6" points="279.18 326.71 179.15 374.69 170.69 485.31 262.26 547.94 362.29 499.96 370.75 389.34 279.18 326.71"/><polygon class="cls-7" points="276.48 318.79 172.8 368.52 164.03 483.17 258.94 548.09 362.62 498.36 371.39 383.71 276.48 318.79"/><polygon class="cls-8" points="273.77 310.86 166.45 362.35 157.37 481.04 255.62 548.24 362.95 496.76 372.02 378.07 273.77 310.86"/><polygon class="cls-9" points="271.07 302.94 160.09 356.17 150.71 478.9 252.3 548.39 363.28 495.16 372.66 372.43 271.07 302.94"/><polygon class="cls-10" points="268.37 295.01 153.74 350 144.04 476.77 248.98 548.54 363.61 493.56 373.3 366.79 268.37 295.01"/><polygon class="cls-11" points="265.67 287.09 147.39 343.83 137.38 474.63 245.66 548.7 363.94 491.96 373.94 361.16 265.67 287.09"/><polygon class="cls-12" points="262.96 279.17 141.03 337.66 130.72 472.5 242.34 548.85 364.27 490.36 374.58 355.52 262.96 279.17"/><polygon class="cls-13" points="260.26 271.25 134.68 331.49 124.06 470.36 239.02 549 364.6 488.76 375.22 349.88 260.26 271.25"/><polygon class="cls-14" points="257.56 263.32 128.33 325.31 117.4 468.23 235.7 549.15 364.93 487.16 375.86 344.24 257.56 263.32"/><polygon class="cls-15" points="254.85 255.4 121.97 319.14 110.73 466.09 232.38 549.3 365.26 485.56 376.5 338.61 254.85 255.4"/><polygon class="cls-16" points="252.15 247.47 115.62 312.97 104.07 463.95 229.06 549.45 365.59 483.96 377.14 332.97 252.15 247.47"/><polygon class="cls-17" points="249.45 239.55 109.27 306.8 97.41 461.82 225.74 549.6 365.92 482.36 377.77 327.33 249.45 239.55"/><polygon class="cls-18" points="246.75 231.63 102.91 300.62 90.75 459.68 222.42 549.75 366.25 480.75 378.41 321.69 246.75 231.63"/><polygon class="cls-19" points="244.04 223.71 96.56 294.45 84.08 457.55 219.09 549.9 366.58 479.15 379.05 316.06 244.04 223.71"/><polygon class="cls-20" points="241.34 215.78 90.21 288.28 77.42 455.41 215.78 550.05 366.91 477.55 379.69 310.42 241.34 215.78"/><polygon class="cls-21" points="238.64 207.86 83.85 282.11 70.76 453.28 212.46 550.2 367.24 475.95 380.33 304.78 238.64 207.86"/><polygon class="cls-22" points="235.93 199.93 77.5 275.93 64.1 451.14 209.13 550.35 367.57 474.35 380.97 299.14 235.93 199.93"/><polygon class="cls-23" points="233.23 192.01 71.15 269.76 57.44 449.01 205.81 550.5 367.9 472.75 381.61 293.51 233.23 192.01"/><polygon class="cls-24" points="230.53 184.09 64.79 263.59 50.77 446.87 202.49 550.65 368.23 471.15 382.25 287.87 230.53 184.09"/><polygon class="cls-25" points="227.83 176.16 58.44 257.42 44.11 444.74 199.17 550.8 368.56 469.55 382.89 282.23 227.83 176.16"/></g><g class="cls-3"><polygon class="cls-26" points="322.32 201.14 303.8 137.94 239.81 122.37 194.33 170.01 212.85 233.22 276.84 248.78 322.32 201.14"/><polygon class="cls-27" points="326.2 197.73 306.76 131.4 239.6 115.06 191.87 165.06 211.3 231.4 278.47 247.74 326.2 197.73"/><polygon class="cls-28" points="330.09 194.33 309.73 124.86 239.39 107.75 189.4 160.11 209.76 229.59 280.1 246.69 330.09 194.33"/><polygon class="cls-29" points="333.97 190.92 312.69 118.32 239.18 100.44 186.94 155.16 208.21 227.77 281.73 245.65 333.97 190.92"/><polygon class="cls-30" points="337.85 187.52 315.66 111.78 238.97 93.13 184.47 150.22 206.66 225.96 283.36 244.61 337.85 187.52"/><polygon class="cls-31" points="341.74 184.11 318.62 105.24 238.76 85.81 182.01 145.27 205.12 224.14 284.98 243.56 341.74 184.11"/><polygon class="cls-32" points="345.62 180.71 321.59 98.7 238.55 78.5 179.54 140.32 203.57 222.33 286.61 242.52 345.62 180.71"/><polygon class="cls-33" points="349.5 177.3 324.55 92.16 238.34 71.19 177.08 135.37 202.03 220.51 288.24 241.48 349.5 177.3"/><polygon class="cls-34" points="353.38 173.9 327.52 85.62 238.13 63.88 174.62 130.42 200.48 218.7 289.87 240.44 353.38 173.9"/><polygon class="cls-35" points="357.27 170.49 330.48 79.08 237.92 56.57 172.15 125.47 198.94 216.88 291.49 239.39 357.27 170.49"/><polygon class="cls-36" points="361.15 167.09 333.45 72.54 237.72 49.26 169.69 120.52 197.39 215.07 293.12 238.35 361.15 167.09"/><polygon class="cls-37" points="365.03 163.68 336.41 66 237.51 41.95 167.22 115.57 195.84 213.25 294.75 237.31 365.03 163.68"/><polygon class="cls-38" points="368.92 160.27 339.38 59.46 237.3 34.63 164.76 110.62 194.3 211.44 296.38 236.26 368.92 160.27"/><polygon class="cls-39" points="372.8 156.87 342.34 52.92 237.09 27.32 162.29 105.67 192.75 209.62 298 235.22 372.8 156.87"/></g><g class="cls-3"><polygon class="cls-40" points="461.45 144.5 406.83 155.37 388.93 208.1 425.65 249.97 480.27 239.1 498.17 186.37 461.45 144.5"/><polygon class="cls-41" points="457.17 147.04 405.05 157.41 387.97 207.74 423.01 247.7 475.14 237.33 492.22 187 457.17 147.04"/><polygon class="cls-42" points="452.9 149.59 403.27 159.46 387 207.38 420.37 245.43 470 235.55 486.26 187.63 452.9 149.59"/><polygon class="cls-43" points="448.62 152.13 401.49 161.51 386.04 207.02 417.73 243.15 464.87 233.77 480.31 188.26 448.62 152.13"/><polygon class="cls-44" points="444.35 154.68 399.71 163.56 385.08 206.66 415.09 240.88 459.73 232 474.36 188.9 444.35 154.68"/><polygon class="cls-45" points="440.07 157.22 397.93 165.61 384.12 206.3 412.45 238.6 454.6 230.22 468.4 189.53 440.07 157.22"/><polygon class="cls-46" points="435.79 159.77 396.15 167.66 383.15 205.94 409.81 236.33 449.46 228.44 462.45 190.16 435.79 159.77"/><polygon class="cls-47" points="431.52 162.31 394.37 169.71 382.19 205.58 407.17 234.06 444.32 226.66 456.5 190.79 431.52 162.31"/><polygon class="cls-48" points="427.24 164.86 392.58 171.75 381.23 205.22 404.53 231.78 439.19 224.89 450.54 191.43 427.24 164.86"/><polygon class="cls-49" points="422.97 167.4 390.81 173.8 380.27 204.86 401.89 229.51 434.05 223.11 444.59 192.06 422.97 167.4"/><polygon class="cls-50" points="418.69 169.95 389.02 175.85 379.3 204.5 399.25 227.24 428.92 221.33 438.64 192.69 418.69 169.95"/></g><g class="cls-3"><polygon class="cls-51" points="541.62 485.32 492.04 431.81 420.92 448 399.38 517.68 448.95 571.18 520.07 555 541.62 485.32"/><polygon class="cls-52" points="537.57 482.45 490.05 431.17 421.88 446.68 401.23 513.47 448.75 564.75 516.91 549.24 537.57 482.45"/><polygon class="cls-53" points="533.51 479.59 488.06 430.53 422.84 445.37 403.08 509.26 448.54 558.32 513.75 543.48 533.51 479.59"/><polygon class="cls-54" points="529.46 476.72 486.06 429.89 423.8 444.06 404.94 505.06 448.34 551.89 510.6 537.73 529.46 476.72"/><polygon class="cls-55" points="525.4 473.86 484.07 429.25 424.76 442.74 406.79 500.85 448.13 545.46 507.44 531.97 525.4 473.86"/><polygon class="cls-56" points="521.35 471 482.07 428.61 425.72 441.43 408.65 496.64 447.93 539.03 504.28 526.21 521.35 471"/><polygon class="cls-57" points="517.3 468.13 480.08 427.96 426.68 440.11 410.5 492.43 447.72 532.6 501.12 520.45 517.3 468.13"/><polygon class="cls-58" points="513.24 465.27 478.08 427.32 427.64 438.8 412.36 488.22 447.52 526.17 497.96 514.69 513.24 465.27"/><polygon class="cls-59" points="509.19 462.4 476.09 426.68 428.6 437.49 414.21 484.02 447.31 519.74 494.8 508.94 509.19 462.4"/><polygon class="cls-60" points="505.14 459.54 474.09 426.04 429.56 436.17 416.06 479.81 447.11 513.31 491.64 503.18 505.14 459.54"/><polygon class="cls-61" points="501.08 456.68 472.1 425.4 430.52 434.86 417.92 475.6 446.9 506.88 488.49 497.42 501.08 456.68"/><polygon class="cls-62" points="497.03 453.81 470.11 424.75 431.48 433.54 419.77 471.39 446.7 500.45 485.33 491.66 497.03 453.81"/></g><path class="cls-63" d="M432.81,439.32c2.14,12.91,19.26,19.91,40,15.4,20.18-4.44,35.1-18.41,33.59-31.08s-19.39-19.51-39.68-15.28C445.9,412.93,431.48,426.71,432.81,439.32Z"/><ellipse class="cls-64" cx="212.3" cy="289.15" rx="191.71" ry="121.16" transform="translate(-4.47 3.34) rotate(-0.89)"/></g></g></g></svg>