<svg xmlns="http://www.w3.org/2000/svg" viewBox="0 0 299 151"><defs><style>.cls-1{fill:#84cfc8;}.cls-2{fill:#fff;}.cls-3{fill:#46b4a5;}</style></defs><title>landing_liquid_logo</title><g id="Layer_1" data-name="Layer 1"><path class="cls-1" d="M27.94,67.61a2.9,2.9,0,0,1-.51,0,3.51,3.51,0,0,1-3.09-3.87,57,57,0,0,1,90-39.81,3.5,3.5,0,0,1-4.08,5.68,51.79,51.79,0,0,0-6.43-3.92A50,50,0,0,0,31.3,64.51,3.49,3.49,0,0,1,27.94,67.61Z"/><path class="cls-2" d="M129.34,44.78a4.1,4.1,0,0,1,1.16,3A4.85,4.85,0,0,1,129,51.4a5.07,5.07,0,0,1-3.69,1.46,4.2,4.2,0,0,1-3.13-1.16,4.05,4.05,0,0,1-1.17-3,4.88,4.88,0,0,1,1.49-3.61,5.11,5.11,0,0,1,3.7-1.46A4.26,4.26,0,0,1,129.34,44.78Z"/><path class="cls-2" d="M233.27,44.75a4.09,4.09,0,0,1,1.16,3,4.84,4.84,0,0,1-1.49,3.6,5,5,0,0,1-3.69,1.47,4.21,4.21,0,0,1-3.13-1.17,4,4,0,0,1-1.17-3,4.85,4.85,0,0,1,1.49-3.61,5.11,5.11,0,0,1,3.7-1.46A4.22,4.22,0,0,1,233.27,44.75Z"/><path class="cls-2" d="M87.28,91.61l6.65-47.1H91.71a8,8,0,0,0-7.88,6.86L77.12,99h29.3l2-7.37Z"/><path class="cls-2" d="M125.89,58.8A8,8,0,0,0,118,65.66L113.35,99h8.84L127.8,58.8Z"/><path class="cls-2" d="M162.64,120.7l7.52-59.34a33.71,33.71,0,0,0-15.34-3.74c-5.1,0-9.38,1.36-12.72,4.06a23.62,23.62,0,0,0-7.39,10.25,35.78,35.78,0,0,0-2.34,12.6c0,4.84,1.12,8.7,3.32,11.47s5.34,4.13,9.41,4.13a12.8,12.8,0,0,0,6.14-1.54,13.74,13.74,0,0,0,4.5-3.71l1.17-1.53-2.23,18.87a7.6,7.6,0,0,0,8,8.48Zm-9.51-28.87a8.16,8.16,0,0,1-5,1.79c-4.33,0-6.53-3.06-6.53-9.1A34.35,34.35,0,0,1,143,75.07a19.45,19.45,0,0,1,4.28-7.93h0a9.83,9.83,0,0,1,7.51-3.25,16.92,16.92,0,0,1,3,.24,14.23,14.23,0,0,1,2.88.89l.37.16-3.33,21.66A23.34,23.34,0,0,1,153.13,91.83Z"/><path class="cls-2" d="M210.2,58.77a8,8,0,0,0-7.88,6.85L199.54,85a31.29,31.29,0,0,1-5,6,8.16,8.16,0,0,1-5.53,2.36,4.29,4.29,0,0,1-3-1.13,4.86,4.86,0,0,1-1-3.44,13.68,13.68,0,0,1,.16-2.36L189,58.78h-1.83a8,8,0,0,0-7.89,6.86l-3.1,22.06a17.81,17.81,0,0,0-.22,2.74,10,10,0,0,0,2.42,7.15c1.58,1.64,3.9,2.49,6.91,2.52a12.5,12.5,0,0,0,6.51-1.63,22.68,22.68,0,0,0,6.59-6.11l1-1.38-.45,8h7.48L212,58.77Z"/><path class="cls-2" d="M229.47,58.76a8,8,0,0,0-7.89,6.87l-4.65,33.3h8.84l5.61-40.17Z"/><path class="cls-2" d="M276.07,44.19A7.92,7.92,0,0,0,267.3,51l-1.6,11.84-.77-.93a11.59,11.59,0,0,0-9.25-4.32,15.13,15.13,0,0,0-10.86,4.1,24.55,24.55,0,0,0-6.33,10.23,39.31,39.31,0,0,0-2,12.18c0,5.06,1.08,9,3.2,11.84s5.17,4.15,9.29,4.15a12.17,12.17,0,0,0,6.73-1.94,17.49,17.49,0,0,0,5.14-5.3l1-1.55-.1,7.62h7.74l7.59-54.61ZM262.6,84.92a29.09,29.09,0,0,1-5.08,6.38,8.36,8.36,0,0,1-5.65,2.28c-4.07,0-6.14-3.08-6.14-9.17a38.41,38.41,0,0,1,1.11-9,20.44,20.44,0,0,1,3.67-8,8.46,8.46,0,0,1,7-3.4,8.21,8.21,0,0,1,4.2,1,9.94,9.94,0,0,1,3.17,3.08l.11.16Z"/><path class="cls-2" d="M177.23,116.22a3.59,3.59,0,0,1,1.45-.3,2.61,2.61,0,0,1,2.17,1,4.5,4.5,0,0,1,.77,2.81,8.53,8.53,0,0,1-.53,2.94,5.51,5.51,0,0,1-1.7,2.41,4.46,4.46,0,0,1-2.94,1,9.1,9.1,0,0,1-1.58-.14,15.92,15.92,0,0,1-1.84-.5l1.85-13.14,1.69-.21-.7,5A5.69,5.69,0,0,1,177.23,116.22Zm-.36,1.41a6.42,6.42,0,0,0-1.22,1l-.78,5.75a4.71,4.71,0,0,0,.82.23,5.61,5.61,0,0,0,.88.06,2.48,2.48,0,0,0,1.87-.78,4.76,4.76,0,0,0,1.09-2,8.45,8.45,0,0,0,.35-2.37c0-1.56-.58-2.33-1.73-2.33A2.4,2.4,0,0,0,176.87,117.63Z"/><path class="cls-2" d="M185.39,128.56a5.79,5.79,0,0,1-3.1,1.17l-.08-1.32a5.24,5.24,0,0,0,1.59-.49,3.2,3.2,0,0,0,1-.82,6.6,6.6,0,0,0,.82-1.32l-.56,0-1.86-9.68H185l1.36,8.39,3.71-8.39h1.74l-4.48,9.77A7.19,7.19,0,0,1,185.39,128.56Z"/><path class="cls-2" d="M205.7,120a2.69,2.69,0,0,1,.8,2.13,3,3,0,0,1-1.4,2.82,7.6,7.6,0,0,1-3.91.83h-3.82V113.13h3.32c3.51,0,5.26,1.07,5.26,3.23a2.53,2.53,0,0,1-.68,1.82,3.13,3.13,0,0,1-1.67.91A4.25,4.25,0,0,1,205.7,120Zm-5.9-1.69h1.48a2.56,2.56,0,0,0,1.6-.45,1.57,1.57,0,0,0,.59-1.33,1.36,1.36,0,0,0-.62-1.28,3.81,3.81,0,0,0-1.92-.37h-1.14Zm3.46,5.25a1.61,1.61,0,0,0,.71-1.52,1.77,1.77,0,0,0-.68-1.56,3,3,0,0,0-1.82-.48H199.8v4h1.41A4.19,4.19,0,0,0,203.26,123.59Z"/><path class="cls-2" d="M210.94,124a.49.49,0,0,0,.42.17,1.82,1.82,0,0,0,.56-.09l.49,1.66a4.44,4.44,0,0,1-1.67.33,2.21,2.21,0,0,1-1.69-.64,2.61,2.61,0,0,1-.59-1.84v-11.4l2.35-.26v11.49A1.06,1.06,0,0,0,210.94,124Z"/><path class="cls-2" d="M221.1,117.19a5.44,5.44,0,0,1,1.21,3.75,6.33,6.33,0,0,1-.55,2.69,4.24,4.24,0,0,1-1.58,1.81,4.51,4.51,0,0,1-2.44.64,4.23,4.23,0,0,1-3.36-1.36,5.49,5.49,0,0,1-1.22-3.78,6.29,6.29,0,0,1,.55-2.68,4.22,4.22,0,0,1,1.59-1.8,4.54,4.54,0,0,1,2.45-.64A4.2,4.2,0,0,1,221.1,117.19Zm-5.46,3.75a5,5,0,0,0,.52,2.55,1.76,1.76,0,0,0,1.58.81,1.71,1.71,0,0,0,1.56-.82,4.83,4.83,0,0,0,.53-2.54,4.73,4.73,0,0,0-.53-2.52,1.7,1.7,0,0,0-1.55-.82C216.34,117.6,215.64,118.72,215.64,120.94Z"/><path class="cls-2" d="M230.13,116.09a4.83,4.83,0,0,1,1.45.86l-1.07,1.44a3.48,3.48,0,0,0-.93-.54,2.79,2.79,0,0,0-1-.18q-2.19,0-2.19,3.33a4.06,4.06,0,0,0,.57,2.43,1.93,1.93,0,0,0,1.62.74,2.69,2.69,0,0,0,1-.17,4.29,4.29,0,0,0,1-.58l1.09,1.54a4.84,4.84,0,0,1-3.14,1.12,4.6,4.6,0,0,1-2.42-.61,4,4,0,0,1-1.58-1.76,6,6,0,0,1-.56-2.68,6.51,6.51,0,0,1,.55-2.72,4.26,4.26,0,0,1,1.58-1.84,4.46,4.46,0,0,1,2.41-.65A5.07,5.07,0,0,1,230.13,116.09Z"/><path class="cls-2" d="M233.29,125.8V112.2l2.35-.26V125.8Zm8.48,0h-2.7l-3.34-5.3,3.24-4.41h2.48l-3.23,4.28Z"/><path class="cls-2" d="M249.61,117l-.92,1.41a4.23,4.23,0,0,0-2.39-.82,2,2,0,0,0-1.13.26.82.82,0,0,0-.39.71.9.9,0,0,0,.17.55,1.37,1.37,0,0,0,.59.41,8.47,8.47,0,0,0,1.28.43,5.67,5.67,0,0,1,2.34,1.12,2.52,2.52,0,0,1,.76,1.95,2.62,2.62,0,0,1-1.17,2.27,5,5,0,0,1-2.92.81,6.31,6.31,0,0,1-2.18-.36,5.44,5.44,0,0,1-1.7-1l1.2-1.34a4,4,0,0,0,2.61,1A2.26,2.26,0,0,0,247,124a1,1,0,0,0,.48-.83,1.18,1.18,0,0,0-.18-.69,1.53,1.53,0,0,0-.62-.45,11.91,11.91,0,0,0-1.41-.47,4.69,4.69,0,0,1-2.18-1.13,2.51,2.51,0,0,1-.7-1.81,2.42,2.42,0,0,1,.47-1.45,3,3,0,0,1,1.32-1,4.81,4.81,0,0,1,2-.37A5.43,5.43,0,0,1,249.61,117Z"/><path class="cls-2" d="M256.25,125.89a4.8,4.8,0,0,1-1.3.18,2.83,2.83,0,0,1-2.17-.82,3.3,3.3,0,0,1-.75-2.35v-5.13h-1.52v-1.69H252v-2.14l2.35-.28v2.42h2.26l-.24,1.69h-2v5.07a1.71,1.71,0,0,0,.25,1,.93.93,0,0,0,.78.31,2.22,2.22,0,0,0,1.16-.37l.83,1.53A4.21,4.21,0,0,1,256.25,125.89Z"/><path class="cls-2" d="M264.48,116l-.4,2.28a3.84,3.84,0,0,0-.87-.11,1.62,1.62,0,0,0-1.35.61,4.58,4.58,0,0,0-.79,1.9v5.16h-2.35v-9.71h2L261,118a3.51,3.51,0,0,1,1-1.61,2.31,2.31,0,0,1,1.53-.56A3.67,3.67,0,0,1,264.48,116Z"/><path class="cls-2" d="M273.68,121.66h-6.1a3.21,3.21,0,0,0,.75,2,2.26,2.26,0,0,0,1.64.61,3.42,3.42,0,0,0,1.21-.22,5.41,5.41,0,0,0,1.22-.65l1,1.34a5.61,5.61,0,0,1-3.6,1.31,4.31,4.31,0,0,1-3.42-1.36,5.37,5.37,0,0,1-1.21-3.71,6.52,6.52,0,0,1,.52-2.67,4.23,4.23,0,0,1,1.48-1.86,4,4,0,0,1,2.31-.67,3.93,3.93,0,0,1,3.16,1.3,5.35,5.35,0,0,1,1.13,3.6C273.74,120.83,273.72,121.14,273.68,121.66ZM271.4,120q0-2.55-1.89-2.55a1.63,1.63,0,0,0-1.35.64,3.8,3.8,0,0,0-.58,2h3.82Z"/><path class="cls-2" d="M283.26,124.05a1,1,0,0,0,.55.41l-.49,1.57a3,3,0,0,1-1.35-.4,2,2,0,0,1-.8-1,3.11,3.11,0,0,1-1.24,1.1,3.88,3.88,0,0,1-1.66.35,3.12,3.12,0,0,1-2.29-.82,2.88,2.88,0,0,1-.85-2.17,2.78,2.78,0,0,1,1.15-2.41,5.45,5.45,0,0,1,3.27-.84h1.22v-.55a1.67,1.67,0,0,0-.44-1.31,2.07,2.07,0,0,0-1.38-.38,8.23,8.23,0,0,0-2.57.51l-.55-1.59a9.67,9.67,0,0,1,3.52-.7q3.73,0,3.73,3.34v4.08A1.5,1.5,0,0,0,283.26,124.05Zm-2.49-.89v-2h-1c-1.51,0-2.27.56-2.27,1.69a1.53,1.53,0,0,0,.35,1.08,1.29,1.29,0,0,0,1,.39A2.11,2.11,0,0,0,280.77,123.16Z"/><path class="cls-2" d="M298.1,116.59a3.18,3.18,0,0,1,.69,2.16v7h-2.35v-6.66c0-1-.35-1.56-1.06-1.56a1.47,1.47,0,0,0-1,.35,4.44,4.44,0,0,0-.86,1.12v6.75H291.2v-6.66c0-1-.35-1.56-1.06-1.56a1.46,1.46,0,0,0-1,.36,4.31,4.31,0,0,0-.85,1.11v6.75h-2.35v-9.72h2l.19,1.27a3.3,3.3,0,0,1,2.8-1.54,2.51,2.51,0,0,1,1.46.42,2.4,2.4,0,0,1,.91,1.21,4.06,4.06,0,0,1,1.27-1.22,3.09,3.09,0,0,1,1.63-.42A2.38,2.38,0,0,1,298.1,116.59Z"/><path class="cls-3" d="M27.75,114.41a5.22,5.22,0,0,1-4.45-2.2A70.8,70.8,0,0,1,77.88.31h.05a5.25,5.25,0,0,1,.4,10.49,60.3,60.3,0,0,0-46.48,95.31,5.26,5.26,0,0,1-1.23,7.33A5.21,5.21,0,0,1,27.75,114.41Z"/><path class="cls-1" d="M72.11,150.23a4,4,0,0,1-.49,0,79.94,79.94,0,0,1-61.2-118.8,3.52,3.52,0,1,1,6.13,3.46A72.91,72.91,0,0,0,72.36,143.21a3.52,3.52,0,0,1-.25,7Z"/><path class="cls-3" d="M85.47,141.17l-1.49,0A73.06,73.06,0,0,1,38.13,126a3.5,3.5,0,1,1,4.26-5.55,67,67,0,0,0,59,11.24,3.5,3.5,0,0,1,1.92,6.74A74.23,74.23,0,0,1,85.47,141.17Z"/><path class="cls-1" d="M82.44,130.44a2.63,2.63,0,0,1-2-2.69,2.71,2.71,0,0,1,2.76-2.49c11.94-.4,24.18-3.14,33.43-8.39a2.63,2.63,0,0,1,2.59,4.57c-10.12,5.74-24.75,9.67-36.3,9.07A3.85,3.85,0,0,1,82.44,130.44Z"/></g></svg>