<svg id="Layer_1" data-name="Layer 1" xmlns="http://www.w3.org/2000/svg" xmlns:xlink="http://www.w3.org/1999/xlink" viewBox="0 0 1491.92 2107.31"><defs><style>.cls-1{fill:aqua;}.cls-115,.cls-133,.cls-2,.cls-22,.cls-23,.cls-27,.cls-31,.cls-65,.cls-83,.cls-84{opacity:0.4;}.cls-2{fill:url(#linear-gradient);}.cls-3{fill:#e39900;}.cls-4{fill:url(#bitcoin-face);}.cls-117,.cls-118,.cls-5{fill:#fff;}.cls-6{fill:url(#bitcoin-face-2);}.cls-7{fill:url(#bitcoin-face-3);}.cls-8{fill:url(#bitcoin-face-4);}.cls-9{fill:url(#bitcoin-face-5);}.cls-10{fill:url(#bitcoin-face-6);}.cls-11{fill:url(#bitcoin-face-7);}.cls-12{fill:url(#bitcoin-face-8);}.cls-13{fill:url(#bitcoin-face-9);}.cls-14{fill:url(#bitcoin-face-10);}.cls-15{fill:url(#bitcoin-face-11);}.cls-16{fill:url(#bitcoin-face-12);}.cls-17{fill:url(#bitcoin-face-13);}.cls-18{fill:url(#bitcoin-face-14);}.cls-19{fill:url(#bitcoin-face-15);}.cls-20{fill:url(#bitcoin-face-16);}.cls-21{fill:url(#bitcoin-face-17);}.cls-22{fill:url(#linear-gradient-2);}.cls-23{fill:url(#linear-gradient-3);}.cls-24,.cls-25,.cls-26{opacity:0.6;}.cls-24{fill:url(#linear-gradient-4);}.cls-25{fill:url(#linear-gradient-5);}.cls-26{fill:url(#linear-gradient-6);}.cls-27{fill:url(#linear-gradient-7);}.cls-28{fill:url(#linear-gradient-8);}.cls-29{fill:url(#linear-gradient-9);}.cls-30{fill:url(#linear-gradient-10);}.cls-31{fill:url(#linear-gradient-11);}.cls-119,.cls-123,.cls-127,.cls-32{opacity:0.7;}.cls-32{fill:url(#linear-gradient-12);}.cls-33{fill:url(#linear-gradient-13);}.cls-34{fill:url(#linear-gradient-14);}.cls-100,.cls-101,.cls-102,.cls-103,.cls-104,.cls-35,.cls-90,.cls-91,.cls-92,.cls-93,.cls-94,.cls-95,.cls-96,.cls-97,.cls-98,.cls-99{opacity:0.3;}.cls-36{fill:url(#linear-gradient-15);}.cls-37{fill:url(#linear-gradient-16);}.cls-38{fill:url(#linear-gradient-17);}.cls-39{fill:url(#linear-gradient-18);}.cls-40{fill:url(#linear-gradient-19);}.cls-41{fill:url(#linear-gradient-20);}.cls-42{fill:url(#linear-gradient-21);}.cls-43{fill:url(#linear-gradient-22);}.cls-44{fill:url(#linear-gradient-23);}.cls-45{fill:url(#linear-gradient-24);}.cls-46{fill:url(#linear-gradient-25);}.cls-47{fill:url(#linear-gradient-26);}.cls-48{fill:url(#linear-gradient-27);}.cls-49{fill:url(#linear-gradient-28);}.cls-50{fill:url(#linear-gradient-29);}.cls-51{fill:url(#linear-gradient-30);}.cls-52{fill:url(#linear-gradient-31);}.cls-53{fill:url(#linear-gradient-32);}.cls-54{fill:url(#linear-gradient-33);}.cls-55{fill:url(#linear-gradient-34);}.cls-56{fill:url(#linear-gradient-35);}.cls-57{fill:url(#linear-gradient-36);}.cls-58{fill:url(#linear-gradient-37);}.cls-59{fill:url(#linear-gradient-38);}.cls-60{fill:url(#linear-gradient-39);}.cls-61{fill:url(#linear-gradient-40);}.cls-62{fill:url(#linear-gradient-41);}.cls-63{fill:url(#linear-gradient-42);}.cls-64{fill:url(#linear-gradient-43);}.cls-65{fill:url(#linear-gradient-44);}.cls-66{fill:url(#bitcoin-face-18);}.cls-67{fill:url(#bitcoin-face-19);}.cls-68{fill:url(#bitcoin-face-20);}.cls-69{fill:url(#bitcoin-face-21);}.cls-70{fill:url(#bitcoin-face-22);}.cls-71{fill:url(#bitcoin-face-23);}.cls-72{fill:url(#bitcoin-face-24);}.cls-73{fill:url(#bitcoin-face-25);}.cls-74{fill:url(#bitcoin-face-26);}.cls-75{fill:url(#bitcoin-face-27);}.cls-76{fill:url(#bitcoin-face-28);}.cls-77{fill:url(#bitcoin-face-29);}.cls-78{fill:url(#bitcoin-face-30);}.cls-79{fill:url(#bitcoin-face-31);}.cls-80{fill:url(#bitcoin-face-32);}.cls-81{fill:url(#bitcoin-face-33);}.cls-82{fill:url(#bitcoin-face-34);}.cls-83{fill:url(#linear-gradient-45);}.cls-84{fill:url(#linear-gradient-46);}.cls-85{fill:#31cdf3;}.cls-86{fill:#6ce1f5;}.cls-87{fill:url(#linear-gradient-47);}.cls-88{fill:url(#linear-gradient-48);}.cls-89{fill:url(#linear-gradient-49);}.cls-90{fill:url(#linear-gradient-50);}.cls-91{fill:url(#linear-gradient-51);}.cls-92{fill:url(#linear-gradient-52);}.cls-93{fill:url(#linear-gradient-53);}.cls-94{fill:url(#linear-gradient-54);}.cls-95{fill:url(#linear-gradient-55);}.cls-96{fill:url(#linear-gradient-56);}.cls-97{fill:url(#linear-gradient-57);}.cls-98{fill:url(#linear-gradient-58);}.cls-99{fill:url(#linear-gradient-59);}.cls-100{fill:url(#linear-gradient-60);}.cls-101{fill:url(#linear-gradient-61);}.cls-102{fill:url(#linear-gradient-62);}.cls-103{fill:url(#linear-gradient-63);}.cls-104{fill:url(#linear-gradient-64);}.cls-105{fill:url(#linear-gradient-65);}.cls-106{fill:url(#linear-gradient-66);}.cls-107{fill:url(#linear-gradient-67);}.cls-108{fill:url(#linear-gradient-68);}.cls-109{fill:url(#linear-gradient-69);}.cls-110{fill:url(#linear-gradient-70);}.cls-111{fill:url(#linear-gradient-71);}.cls-112{fill:url(#linear-gradient-72);}.cls-113{fill:url(#linear-gradient-73);}.cls-114{fill:url(#linear-gradient-74);}.cls-116{fill:url(#linear-gradient-75);}.cls-117{opacity:0.39;}.cls-118{opacity:0.12;}.cls-119{fill:url(#linear-gradient-76);}.cls-120{fill:url(#linear-gradient-77);}.cls-121{fill:url(#linear-gradient-78);}.cls-122{fill:url(#linear-gradient-79);}.cls-123{fill:url(#linear-gradient-80);}.cls-124{fill:url(#linear-gradient-81);}.cls-125{fill:url(#linear-gradient-82);}.cls-126{fill:url(#linear-gradient-83);}.cls-127{fill:url(#linear-gradient-84);}.cls-128{fill:url(#bitcoin-face-35);}.cls-129{fill:url(#bitcoin-face-36);}.cls-130{fill:url(#bitcoin-face-37);}.cls-131{fill:url(#bitcoin-face-38);}.cls-132{opacity:0.28;}.cls-133{fill:url(#linear-gradient-85);}.cls-134{opacity:0.46;}.cls-135{fill:url(#bitcoin-face-39);}</style><linearGradient id="linear-gradient" x1="-1810.26" y1="800.34" x2="-1810.26" y2="941.7" gradientTransform="matrix(1, 0, 0, -1, 2331.02, 2090.64)" gradientUnits="userSpaceOnUse"><stop offset="0" stop-color="#f5f860"/><stop offset="0.34" stop-color="#f5f860" stop-opacity="0.61"/><stop offset="0.67" stop-color="#f5f860" stop-opacity="0.28"/><stop offset="0.89" stop-color="#f5f860" stop-opacity="0.08"/><stop offset="1" stop-color="#f5f860" stop-opacity="0"/></linearGradient><linearGradient id="bitcoin-face" x1="1111.37" y1="987.92" x2="1103.22" y2="1044.35" gradientUnits="userSpaceOnUse"><stop offset="0" stop-color="#e4ab00"/><stop offset="0.14" stop-color="#e5ae07"/><stop offset="0.33" stop-color="#e7b61a"/><stop offset="0.56" stop-color="#eac439"/><stop offset="0.82" stop-color="#eed664"/><stop offset="1" stop-color="#f1e586"/></linearGradient><linearGradient id="bitcoin-face-2" x1="1111.37" y1="981.81" x2="1103.22" y2="1038.24" xlink:href="#bitcoin-face"/><linearGradient id="bitcoin-face-3" x1="1111.37" y1="975.81" x2="1103.22" y2="1032.25" xlink:href="#bitcoin-face"/><linearGradient id="bitcoin-face-4" x1="1111.37" y1="969.7" x2="1103.22" y2="1026.14" xlink:href="#bitcoin-face"/><linearGradient id="bitcoin-face-5" x1="1111.37" y1="963.28" x2="1103.22" y2="1019.71" xlink:href="#bitcoin-face"/><linearGradient id="bitcoin-face-6" x1="1111.37" y1="957.16" x2="1103.22" y2="1013.6" xlink:href="#bitcoin-face"/><linearGradient id="bitcoin-face-7" x1="1111.37" y1="951.17" x2="1103.22" y2="1007.61" xlink:href="#bitcoin-face"/><linearGradient id="bitcoin-face-8" x1="1111.37" y1="945.06" x2="1103.22" y2="1001.49" xlink:href="#bitcoin-face"/><linearGradient id="bitcoin-face-9" x1="1057.45" y1="1007.13" x2="1049.31" y2="1063.57" xlink:href="#bitcoin-face"/><linearGradient id="bitcoin-face-10" x1="1057.45" y1="1001.02" x2="1049.31" y2="1057.45" xlink:href="#bitcoin-face"/><linearGradient id="bitcoin-face-11" x1="1057.45" y1="995.03" x2="1049.31" y2="1051.46" xlink:href="#bitcoin-face"/><linearGradient id="bitcoin-face-12" x1="1057.45" y1="988.91" x2="1049.31" y2="1045.35" xlink:href="#bitcoin-face"/><linearGradient id="bitcoin-face-13" x1="1057.45" y1="982.49" x2="1049.31" y2="1038.92" xlink:href="#bitcoin-face"/><linearGradient id="bitcoin-face-14" x1="1117.15" y1="1007.23" x2="1109.01" y2="1063.66" xlink:href="#bitcoin-face"/><linearGradient id="bitcoin-face-15" x1="1117.15" y1="1000.8" x2="1109.01" y2="1057.24" xlink:href="#bitcoin-face"/><linearGradient id="bitcoin-face-16" x1="1111.5" y1="939.09" x2="1103.36" y2="995.53" xlink:href="#bitcoin-face"/><linearGradient id="bitcoin-face-17" x1="1111.5" y1="932.98" x2="1103.36" y2="989.41" xlink:href="#bitcoin-face"/><linearGradient id="linear-gradient-2" x1="981.69" y1="1024.14" x2="1212.45" y2="1040.34" gradientUnits="userSpaceOnUse"><stop offset="0" stop-color="#616d7d"/><stop offset="1" stop-color="#bfcfd7"/></linearGradient><linearGradient id="linear-gradient-3" x1="1229.44" y1="993.99" x2="907.58" y2="902.9" gradientUnits="userSpaceOnUse"><stop offset="0" stop-color="#2f3640"/><stop offset="0.09" stop-color="#bdced7"/><stop offset="1" stop-color="#616d7d"/></linearGradient><linearGradient id="linear-gradient-4" x1="-188.42" y1="1129.4" x2="1120.98" y2="1129.4" gradientTransform="matrix(1.03, -0.01, 0.01, 0.97, 372.83, 201.31)" gradientUnits="userSpaceOnUse"><stop offset="0" stop-color="#f5f860" stop-opacity="0"/><stop offset="0.47" stop-color="#e8e083"/><stop offset="0.63" stop-color="#ede877" stop-opacity="0.65"/><stop offset="0.81" stop-color="#f1f16b" stop-opacity="0.3"/><stop offset="0.94" stop-color="#f4f663" stop-opacity="0.08"/><stop offset="1" stop-color="#f5f860" stop-opacity="0"/></linearGradient><linearGradient id="linear-gradient-5" x1="-190.82" y1="1606.63" x2="1336.51" y2="1606.63" gradientUnits="userSpaceOnUse"><stop offset="0" stop-color="#f5f860" stop-opacity="0"/><stop offset="0.07" stop-color="#f5f861" stop-opacity="0.02"/><stop offset="0.15" stop-color="#f4f662" stop-opacity="0.07"/><stop offset="0.22" stop-color="#f3f465" stop-opacity="0.15"/><stop offset="0.29" stop-color="#f2f269" stop-opacity="0.27"/><stop offset="0.36" stop-color="#f0ee6f" stop-opacity="0.42"/><stop offset="0.42" stop-color="#ede975" stop-opacity="0.6"/><stop offset="0.49" stop-color="#eae47d" stop-opacity="0.82"/><stop offset="0.54" stop-color="#e8e083"/><stop offset="0.68" stop-color="#ede877" stop-opacity="0.65"/><stop offset="0.84" stop-color="#f1f16b" stop-opacity="0.3"/><stop offset="0.95" stop-color="#f4f663" stop-opacity="0.08"/><stop offset="1" stop-color="#f5f860" stop-opacity="0"/></linearGradient><linearGradient id="linear-gradient-6" x1="182.16" y1="1631.27" x2="414.32" y2="1631.27" gradientTransform="matrix(1.06, 0.46, -0.46, 1.06, 753.72, -304.54)" gradientUnits="userSpaceOnUse"><stop offset="0" stop-color="#f5ee3a" stop-opacity="0"/><stop offset="0.49" stop-color="#e8e083"/><stop offset="0.65" stop-color="#ede56a" stop-opacity="0.65"/><stop offset="0.82" stop-color="#f1ea50" stop-opacity="0.3"/><stop offset="0.94" stop-color="#f4ed40" stop-opacity="0.08"/><stop offset="1" stop-color="#f5ee3a" stop-opacity="0"/></linearGradient><linearGradient id="linear-gradient-7" x1="-1636.2" y1="-39.25" x2="-1636.2" y2="234.62" gradientTransform="matrix(1, 0, 0, -1, 2371.87, 1608.36)" xlink:href="#linear-gradient"/><linearGradient id="linear-gradient-8" x1="934.42" y1="1232.21" x2="1236.78" y2="1406.78" gradientUnits="userSpaceOnUse"><stop offset="0.16" stop-color="#e8b810"/><stop offset="1" stop-color="#616d7d"/></linearGradient><linearGradient id="linear-gradient-9" x1="896.2" y1="1300.84" x2="1276.1" y2="1300.84" xlink:href="#linear-gradient-8"/><linearGradient id="linear-gradient-10" x1="6775.76" y1="-375.99" x2="7034.38" y2="-375.99" gradientTransform="matrix(-0.5, 0.87, -0.58, -1, 4287.1, -5126.5)" gradientUnits="userSpaceOnUse"><stop offset="0.16" stop-color="#e8b810"/><stop offset="1" stop-color="#616d7d"/></linearGradient><linearGradient id="linear-gradient-11" x1="1086.17" y1="1290.68" x2="1086.17" y2="522.59" gradientUnits="userSpaceOnUse"><stop offset="0" stop-color="#fff"/><stop offset="0.07" stop-color="#fff" stop-opacity="0.92"/><stop offset="0.42" stop-color="#fff" stop-opacity="0.54"/><stop offset="0.7" stop-color="#fff" stop-opacity="0.26"/><stop offset="0.9" stop-color="#fff" stop-opacity="0.09"/><stop offset="1" stop-color="#fff" stop-opacity="0.02"/></linearGradient><linearGradient id="linear-gradient-12" x1="962.88" y1="1246.92" x2="1209.32" y2="1246.92" gradientUnits="userSpaceOnUse"><stop offset="0" stop-color="#8aa7b7"/><stop offset="0.53" stop-color="#fff"/><stop offset="1" stop-color="#8aa7b7"/></linearGradient><linearGradient id="linear-gradient-13" x1="1092.04" y1="1049.47" x2="1107.71" y2="1049.47" gradientUnits="userSpaceOnUse"><stop offset="0" stop-color="#bfcfd7"/><stop offset="1" stop-color="#fff" stop-opacity="0.8"/></linearGradient><linearGradient id="linear-gradient-14" x1="1083.65" y1="966.31" x2="1091.88" y2="966.31" xlink:href="#linear-gradient-13"/><linearGradient id="linear-gradient-15" x1="969.2" y1="1057.56" x2="979.26" y2="1057.56" xlink:href="#linear-gradient-13"/><linearGradient id="linear-gradient-16" x1="1017.35" y1="1073.54" x2="1027.41" y2="1073.54" xlink:href="#linear-gradient-13"/><linearGradient id="linear-gradient-17" x1="978.83" y1="1115.12" x2="988.89" y2="1115.12" xlink:href="#linear-gradient-13"/><linearGradient id="linear-gradient-18" x1="999.4" y1="1189.74" x2="1009.46" y2="1189.74" xlink:href="#linear-gradient-13"/><linearGradient id="linear-gradient-19" x1="1017.57" y1="1145.75" x2="1027.62" y2="1145.75" xlink:href="#linear-gradient-13"/><linearGradient id="linear-gradient-20" x1="990.21" y1="1017.73" x2="1000.27" y2="1017.73" xlink:href="#linear-gradient-13"/><linearGradient id="linear-gradient-21" x1="992.62" y1="927.13" x2="1002.68" y2="927.13" xlink:href="#linear-gradient-13"/><linearGradient id="linear-gradient-22" x1="1118.89" y1="1005.7" x2="1128.95" y2="1005.7" xlink:href="#linear-gradient-13"/><linearGradient id="linear-gradient-23" x1="1171.13" y1="1014.7" x2="1181.19" y2="1014.7" xlink:href="#linear-gradient-13"/><linearGradient id="linear-gradient-24" x1="1131.75" y1="1085.1" x2="1141.81" y2="1085.1" xlink:href="#linear-gradient-13"/><linearGradient id="linear-gradient-25" x1="1196.8" y1="1051.87" x2="1206.85" y2="1051.87" xlink:href="#linear-gradient-13"/><linearGradient id="linear-gradient-26" x1="1177.98" y1="1078.35" x2="1188.03" y2="1078.35" xlink:href="#linear-gradient-13"/><linearGradient id="linear-gradient-27" x1="1204.45" y1="1098.48" x2="1214.51" y2="1098.48" xlink:href="#linear-gradient-13"/><linearGradient id="linear-gradient-28" x1="1189.36" y1="1156.26" x2="1199.41" y2="1156.26" xlink:href="#linear-gradient-13"/><linearGradient id="linear-gradient-29" x1="1216.93" y1="1047.93" x2="1226.99" y2="1047.93" xlink:href="#linear-gradient-13"/><linearGradient id="linear-gradient-30" x1="1076.21" y1="1087.12" x2="1091.88" y2="1087.12" xlink:href="#linear-gradient-13"/><linearGradient id="linear-gradient-31" x1="1061.43" y1="1127.22" x2="1077.1" y2="1127.22" xlink:href="#linear-gradient-13"/><linearGradient id="linear-gradient-32" x1="1087.13" y1="1125.2" x2="1097.77" y2="1125.2" xlink:href="#linear-gradient-13"/><linearGradient id="linear-gradient-33" x1="1073.46" y1="1173.11" x2="1084.11" y2="1173.11" xlink:href="#linear-gradient-13"/><linearGradient id="linear-gradient-34" x1="1076.04" y1="1031.65" x2="1086.68" y2="1031.65" xlink:href="#linear-gradient-13"/><linearGradient id="linear-gradient-35" x1="1111.24" y1="974.26" x2="1121.89" y2="974.26" xlink:href="#linear-gradient-13"/><linearGradient id="linear-gradient-36" x1="1090.28" y1="1153.61" x2="1105.95" y2="1153.61" xlink:href="#linear-gradient-13"/><linearGradient id="linear-gradient-37" x1="1086.76" y1="1182.81" x2="1102.43" y2="1182.81" xlink:href="#linear-gradient-13"/><linearGradient id="linear-gradient-38" x1="326.75" y1="1161.12" x2="458.26" y2="1237.04" xlink:href="#linear-gradient-8"/><linearGradient id="linear-gradient-39" x1="310.13" y1="1190.97" x2="475.36" y2="1190.97" xlink:href="#linear-gradient-8"/><linearGradient id="linear-gradient-40" x1="6369.09" y1="-98.06" x2="6481.58" y2="-98.06" gradientTransform="matrix(-0.5, 0.87, -0.58, -1, 3518.05, -4512.08)" xlink:href="#linear-gradient-10"/><linearGradient id="linear-gradient-41" x1="210.83" y1="1698.28" x2="401.64" y2="1808.45" xlink:href="#linear-gradient-8"/><linearGradient id="linear-gradient-42" x1="186.71" y1="1741.59" x2="426.46" y2="1741.59" xlink:href="#linear-gradient-8"/><linearGradient id="linear-gradient-43" x1="6834.03" y1="412.72" x2="6997.24" y2="412.72" gradientTransform="matrix(-0.5, 0.87, -0.58, -1, 3972.39, -3888.8)" xlink:href="#linear-gradient-10"/><linearGradient id="linear-gradient-44" x1="-1878.45" y1="435.91" x2="-1878.45" y2="577.26" gradientTransform="matrix(1, 0, 0, -1, 2217.94, 1970.64)" xlink:href="#linear-gradient"/><linearGradient id="bitcoin-face-18" x1="1128.42" y1="670.1" x2="1122.77" y2="709.22" xlink:href="#bitcoin-face"/><linearGradient id="bitcoin-face-19" x1="1128.42" y1="665.87" x2="1122.77" y2="704.99" xlink:href="#bitcoin-face"/><linearGradient id="bitcoin-face-20" x1="1128.42" y1="661.71" x2="1122.77" y2="700.83" xlink:href="#bitcoin-face"/><linearGradient id="bitcoin-face-21" x1="1128.42" y1="657.47" x2="1122.77" y2="696.59" xlink:href="#bitcoin-face"/><linearGradient id="bitcoin-face-22" x1="1128.42" y1="653.02" x2="1122.77" y2="692.14" xlink:href="#bitcoin-face"/><linearGradient id="bitcoin-face-23" x1="1128.42" y1="648.78" x2="1122.77" y2="687.9" xlink:href="#bitcoin-face"/><linearGradient id="bitcoin-face-24" x1="1128.42" y1="644.63" x2="1122.77" y2="683.75" xlink:href="#bitcoin-face"/><linearGradient id="bitcoin-face-25" x1="1128.42" y1="640.39" x2="1122.77" y2="679.51" xlink:href="#bitcoin-face"/><linearGradient id="bitcoin-face-26" x1="1091.04" y1="683.42" x2="1085.39" y2="722.54" xlink:href="#bitcoin-face"/><linearGradient id="bitcoin-face-27" x1="1091.04" y1="679.18" x2="1085.39" y2="718.3" xlink:href="#bitcoin-face"/><linearGradient id="bitcoin-face-28" x1="1091.04" y1="675.03" x2="1085.39" y2="714.15" xlink:href="#bitcoin-face"/><linearGradient id="bitcoin-face-29" x1="1091.04" y1="670.79" x2="1085.39" y2="709.91" xlink:href="#bitcoin-face"/><linearGradient id="bitcoin-face-30" x1="1091.04" y1="666.34" x2="1085.39" y2="705.46" xlink:href="#bitcoin-face"/><linearGradient id="bitcoin-face-31" x1="1132.42" y1="683.49" x2="1126.78" y2="722.61" xlink:href="#bitcoin-face"/><linearGradient id="bitcoin-face-32" x1="1132.42" y1="679.03" x2="1126.78" y2="718.15" xlink:href="#bitcoin-face"/><linearGradient id="bitcoin-face-33" x1="1128.51" y1="636.26" x2="1122.86" y2="675.38" xlink:href="#bitcoin-face"/><linearGradient id="bitcoin-face-34" x1="1128.51" y1="632.02" x2="1122.86" y2="671.14" xlink:href="#bitcoin-face"/><linearGradient id="linear-gradient-45" x1="1038.52" y1="695.21" x2="1198.49" y2="706.44" gradientUnits="userSpaceOnUse"><stop offset="0" stop-color="#616d7d"/><stop offset="1" stop-color="#bdced7"/></linearGradient><linearGradient id="linear-gradient-46" x1="1210.26" y1="674.31" x2="987.15" y2="611.17" gradientUnits="userSpaceOnUse"><stop offset="0" stop-color="#2f3640"/><stop offset="0.09" stop-color="#bfcfd7"/><stop offset="1" stop-color="#616d7d"/></linearGradient><linearGradient id="linear-gradient-47" x1="1030.57" y1="547.27" x2="1047.17" y2="547.27" gradientUnits="userSpaceOnUse"><stop offset="0.09" stop-color="#bfcfd7"/><stop offset="1" stop-color="#fff" stop-opacity="0.8"/></linearGradient><linearGradient id="linear-gradient-48" x1="1025.5" y1="624.22" x2="1042.1" y2="624.22" xlink:href="#linear-gradient-47"/><linearGradient id="linear-gradient-49" x1="1055.53" y1="656.45" x2="1072.13" y2="656.45" xlink:href="#linear-gradient-47"/><linearGradient id="linear-gradient-50" x1="933.27" y1="557.33" x2="943.92" y2="557.33" xlink:href="#linear-gradient-47"/><linearGradient id="linear-gradient-51" x1="984.25" y1="540.41" x2="994.91" y2="540.41" xlink:href="#linear-gradient-47"/><linearGradient id="linear-gradient-52" x1="943.46" y1="496.37" x2="954.12" y2="496.37" xlink:href="#linear-gradient-47"/><linearGradient id="linear-gradient-53" x1="965.25" y1="417.34" x2="975.9" y2="417.34" xlink:href="#linear-gradient-47"/><linearGradient id="linear-gradient-54" x1="984.49" y1="463.93" x2="995.14" y2="463.93" xlink:href="#linear-gradient-47"/><linearGradient id="linear-gradient-55" x1="955.52" y1="599.51" x2="966.17" y2="599.51" xlink:href="#linear-gradient-47"/><linearGradient id="linear-gradient-56" x1="958.06" y1="695.46" x2="968.72" y2="695.46" xlink:href="#linear-gradient-47"/><linearGradient id="linear-gradient-57" x1="1091.8" y1="612.26" x2="1102.45" y2="612.26" xlink:href="#linear-gradient-47"/><linearGradient id="linear-gradient-58" x1="1147.13" y1="602.73" x2="1157.78" y2="602.73" xlink:href="#linear-gradient-47"/><linearGradient id="linear-gradient-59" x1="1105.42" y1="528.16" x2="1116.07" y2="528.16" xlink:href="#linear-gradient-47"/><linearGradient id="linear-gradient-60" x1="1174.31" y1="563.36" x2="1184.96" y2="563.36" xlink:href="#linear-gradient-47"/><linearGradient id="linear-gradient-61" x1="1154.38" y1="535.31" x2="1165.03" y2="535.31" xlink:href="#linear-gradient-47"/><linearGradient id="linear-gradient-62" x1="1182.42" y1="513.99" x2="1193.07" y2="513.99" xlink:href="#linear-gradient-47"/><linearGradient id="linear-gradient-63" x1="1166.43" y1="452.8" x2="1177.08" y2="452.8" xlink:href="#linear-gradient-47"/><linearGradient id="linear-gradient-64" x1="1195.63" y1="567.53" x2="1206.28" y2="567.53" xlink:href="#linear-gradient-47"/><linearGradient id="linear-gradient-65" x1="1046.59" y1="526.03" x2="1063.19" y2="526.03" xlink:href="#linear-gradient-47"/><linearGradient id="linear-gradient-66" x1="1030.94" y1="483.55" x2="1047.54" y2="483.55" xlink:href="#linear-gradient-47"/><linearGradient id="linear-gradient-67" x1="1058.16" y1="485.69" x2="1069.43" y2="485.69" xlink:href="#linear-gradient-47"/><linearGradient id="linear-gradient-68" x1="1043.69" y1="434.96" x2="1054.96" y2="434.96" xlink:href="#linear-gradient-47"/><linearGradient id="linear-gradient-69" x1="1046.41" y1="584.77" x2="1057.69" y2="584.77" xlink:href="#linear-gradient-47"/><linearGradient id="linear-gradient-70" x1="1083.69" y1="645.55" x2="1094.97" y2="645.55" xlink:href="#linear-gradient-47"/><linearGradient id="linear-gradient-71" x1="1061.5" y1="455.6" x2="1078.1" y2="455.6" xlink:href="#linear-gradient-47"/><linearGradient id="linear-gradient-72" x1="1057.77" y1="424.68" x2="1074.37" y2="424.68" xlink:href="#linear-gradient-47"/><linearGradient id="linear-gradient-73" x1="836.33" y1="351.72" x2="1309.47" y2="351.72" gradientUnits="userSpaceOnUse"><stop offset="0" stop-color="#616d7d"/><stop offset="1" stop-color="#2f3640"/></linearGradient><linearGradient id="linear-gradient-74" x1="836.32" y1="161.53" x2="1309.5" y2="161.53" gradientUnits="userSpaceOnUse"><stop offset="0" stop-color="#8aa7b7"/><stop offset="1" stop-color="#616d7d"/></linearGradient><linearGradient id="linear-gradient-75" x1="902.87" y1="307.22" x2="785.48" y2="510.54" gradientUnits="userSpaceOnUse"><stop offset="0" stop-color="aqua"/><stop offset="0.01" stop-color="aqua" stop-opacity="0.96"/><stop offset="0.05" stop-color="aqua" stop-opacity="0.78"/><stop offset="0.09" stop-color="aqua" stop-opacity="0.61"/><stop offset="0.14" stop-color="aqua" stop-opacity="0.47"/><stop offset="0.2" stop-color="aqua" stop-opacity="0.34"/><stop offset="0.25" stop-color="aqua" stop-opacity="0.23"/><stop offset="0.32" stop-color="aqua" stop-opacity="0.15"/><stop offset="0.4" stop-color="aqua" stop-opacity="0.08"/><stop offset="0.49" stop-color="aqua" stop-opacity="0.03"/><stop offset="0.63" stop-color="aqua" stop-opacity="0.01"/><stop offset="1" stop-color="aqua" stop-opacity="0"/></linearGradient><linearGradient id="linear-gradient-76" x1="-67.77" y1="-17778.67" x2="72.02" y2="-17649.7" gradientTransform="translate(-14758.43 -7982.42) rotate(118.27)" gradientUnits="userSpaceOnUse"><stop offset="0" stop-color="#fff"/><stop offset="0.36" stop-color="#fff" stop-opacity="0.6"/><stop offset="0.67" stop-color="#fff" stop-opacity="0.28"/><stop offset="0.89" stop-color="#fff" stop-opacity="0.08"/><stop offset="1" stop-color="#fff" stop-opacity="0"/></linearGradient><linearGradient id="linear-gradient-77" x1="471.72" y1="571.7" x2="944.86" y2="571.7" xlink:href="#linear-gradient-73"/><linearGradient id="linear-gradient-78" x1="471.72" y1="381.51" x2="944.89" y2="381.51" xlink:href="#linear-gradient-74"/><linearGradient id="linear-gradient-79" x1="538.26" y1="527.2" x2="420.87" y2="730.52" xlink:href="#linear-gradient-75"/><linearGradient id="linear-gradient-80" x1="298.66" y1="-17561.75" x2="438.45" y2="-17432.78" xlink:href="#linear-gradient-76"/><linearGradient id="linear-gradient-81" x1="105.96" y1="792.39" x2="579.1" y2="792.39" xlink:href="#linear-gradient-73"/><linearGradient id="linear-gradient-82" x1="105.96" y1="602.19" x2="579.13" y2="602.19" xlink:href="#linear-gradient-74"/><linearGradient id="linear-gradient-83" x1="172.5" y1="747.88" x2="55.11" y2="951.2" xlink:href="#linear-gradient-75"/><linearGradient id="linear-gradient-84" x1="666.26" y1="-17344.14" x2="806.05" y2="-17215.17" xlink:href="#linear-gradient-76"/><linearGradient id="bitcoin-face-35" x1="-4998.27" y1="-1189.63" x2="-4969.29" y2="-1206.36" gradientTransform="translate(4067.94 4999.45) rotate(33.82)" xlink:href="#bitcoin-face"/><linearGradient id="bitcoin-face-36" x1="-5015.66" y1="-809.04" x2="-4980.05" y2="-829.6" gradientTransform="translate(4315.69 -2257.73) rotate(-56.18)" xlink:href="#bitcoin-face"/><linearGradient id="bitcoin-face-37" x1="-5100.09" y1="-838.64" x2="-5064.48" y2="-859.21" gradientTransform="translate(4520.23 5019.41) rotate(33.82)" xlink:href="#bitcoin-face"/><linearGradient id="bitcoin-face-38" x1="-5415.76" y1="-1150.76" x2="-5385.39" y2="-1168.29" gradientTransform="matrix(0.83, 0.56, -0.56, 0.83, 4173.5, 5502.87)" xlink:href="#bitcoin-face"/><linearGradient id="linear-gradient-85" x1="-1885.39" y1="-31.15" x2="-1885.39" y2="110.2" gradientTransform="matrix(1, 0, 0, -1, 2151.67, 1964.92)" xlink:href="#linear-gradient"/><linearGradient id="bitcoin-face-39" x1="-5566.52" y1="-708.64" x2="-5536.15" y2="-726.18" gradientTransform="translate(4471.58 5680.78) rotate(33.82)" xlink:href="#bitcoin-face"/></defs><title>lightning_2</title><rect class="cls-1" x="576.77" y="1219.27" width="29.25" height="29.25" rx="4.41" ry="4.41" transform="translate(-97.04 2416.39) rotate(-124.18)"/><rect class="cls-2" x="502.85" y="1147.88" width="35.81" height="145.38" transform="translate(-775.85 1503.03) rotate(-79.18)"/><path class="cls-3" d="M1137.8,1025.81q0-.42,0-.84v-3.52h-62.39V1026h0c.27,4.39,3.3,8.73,9.1,12.09,12.19,7,32,7,44.14,0,5.8-3.36,8.83-7.7,9.1-12.09h0Z"/><ellipse class="cls-4" cx="1106.61" cy="1020.89" rx="31.21" ry="18.02"/><path class="cls-5" d="M1117,1015.17a11,11,0,0,0-4.72.76,2.54,2.54,0,0,0,.9-2.36,3.4,3.4,0,0,0-1.83-2.11,8.9,8.9,0,0,0-5.49-1,15.5,15.5,0,0,0-5.47,1.67l-2.72-1.57-3.63,2.1,2.68,1.54-2,1.15-2.68-1.55-3.63,2.1,2.68,1.55-3.43,2,3.63,2.1L1094,1020l12.45,7.18-2.64,1.53,3.63,2.09,3.43-2,2.68,1.54,3.63-2.09-2.68-1.55,2-1.15,2.69,1.55,3.63-2.09-2.7-1.56q2.84-1.79,3.32-3.59c.36-1.34-.31-2.49-2-3.47A9.89,9.89,0,0,0,1117,1015.17Zm-18.6,2.27,4.39-2.53a5.62,5.62,0,0,1,2.52-.84,4,4,0,0,1,2.3.49q1,.6.9,1.35c-.1.5-.57,1-1.41,1.48l-4.39,2.54Zm18.68,2.85a3.71,3.71,0,0,1-1.84,1.8l-4.39,2.54-4.68-2.7,4.39-2.54a7.59,7.59,0,0,1,3.07-1.09,4.17,4.17,0,0,1,2.59.46C1117,1019.19,1117.3,1019.7,1117.12,1020.29Z"/><path class="cls-3" d="M1137.8,1019.7c0-.28,0-.57,0-.85v-3.52h-62.39v4.54h0c.27,4.39,3.3,8.73,9.1,12.08,12.19,7,32,7,44.14,0,5.8-3.35,8.83-7.69,9.1-12.08h0Z"/><ellipse class="cls-6" cx="1106.61" cy="1014.77" rx="31.21" ry="18.02"/><path class="cls-5" d="M1117,1009.06a11,11,0,0,0-4.72.76,2.54,2.54,0,0,0,.9-2.36,3.38,3.38,0,0,0-1.83-2.11,9,9,0,0,0-5.49-1,15.93,15.93,0,0,0-5.47,1.67l-2.72-1.56-3.63,2.09,2.68,1.55-2,1.15-2.68-1.55-3.63,2.09,2.68,1.55-3.43,2,3.63,2.1,2.64-1.52,12.45,7.18-2.64,1.52,3.63,2.1,3.43-2,2.68,1.55,3.63-2.1-2.68-1.54,2-1.15,2.69,1.55,3.63-2.1-2.7-1.55q2.84-1.8,3.32-3.6.54-2-2-3.46A9.63,9.63,0,0,0,1117,1009.06Zm-18.6,2.27,4.39-2.54a5.62,5.62,0,0,1,2.52-.84,4,4,0,0,1,2.3.5q1,.6.9,1.35c-.1.5-.57,1-1.41,1.48l-4.39,2.53Zm18.68,2.85a3.71,3.71,0,0,1-1.84,1.8l-4.39,2.53-4.68-2.7,4.39-2.53a7.59,7.59,0,0,1,3.07-1.09,4.17,4.17,0,0,1,2.59.45C1117,1013.08,1117.3,1013.59,1117.12,1014.18Z"/><path class="cls-3" d="M1137.8,1013.7q0-.42,0-.84v-3.52h-62.39v4.53h0c.27,4.39,3.3,8.74,9.1,12.09,12.19,7,32,7,44.14,0,5.8-3.35,8.83-7.7,9.1-12.09h0Z"/><ellipse class="cls-7" cx="1106.61" cy="1008.78" rx="31.21" ry="18.02"/><path class="cls-5" d="M1117,1003.07a11.18,11.18,0,0,0-4.72.75,2.52,2.52,0,0,0,.9-2.35,3.39,3.39,0,0,0-1.83-2.12,9,9,0,0,0-5.49-1,15.71,15.71,0,0,0-5.47,1.67l-2.72-1.57-3.63,2.1,2.68,1.55-2,1.14-2.68-1.55-3.63,2.1,2.68,1.55-3.43,2,3.63,2.09,2.64-1.52,12.45,7.19-2.64,1.52,3.63,2.1,3.43-2,2.68,1.55,3.63-2.1-2.68-1.55,2-1.14,2.69,1.55,3.63-2.1-2.7-1.56q2.84-1.78,3.32-3.59c.36-1.33-.31-2.49-2-3.46A9.63,9.63,0,0,0,1117,1003.07Zm-18.6,2.27,4.39-2.54a5.62,5.62,0,0,1,2.52-.84,4,4,0,0,1,2.3.5q1,.6.9,1.35c-.1.5-.57,1-1.41,1.48l-4.39,2.53Zm18.68,2.85a3.66,3.66,0,0,1-1.84,1.79l-4.39,2.54-4.68-2.7,4.39-2.53a7.59,7.59,0,0,1,3.07-1.09,4.17,4.17,0,0,1,2.59.45C1117,1007.09,1117.3,1007.6,1117.12,1008.19Z"/><path class="cls-3" d="M1137.8,1007.59q0-.42,0-.84v-3.52h-62.39v4.53h0c.27,4.39,3.3,8.73,9.1,12.09,12.19,7,32,7,44.14,0,5.8-3.36,8.83-7.7,9.1-12.09h0Z"/><ellipse class="cls-8" cx="1106.61" cy="1002.67" rx="31.21" ry="18.02"/><path class="cls-5" d="M1117,997a11,11,0,0,0-4.72.76,2.53,2.53,0,0,0,.9-2.36,3.4,3.4,0,0,0-1.83-2.11,8.9,8.9,0,0,0-5.49-1,15.5,15.5,0,0,0-5.47,1.67l-2.72-1.57-3.63,2.1,2.68,1.55-2,1.14-2.68-1.55-3.63,2.1,2.68,1.55-3.43,2,3.63,2.09,2.64-1.52,12.45,7.19-2.64,1.52,3.63,2.09,3.43-2,2.68,1.54,3.63-2.09-2.68-1.55,2-1.15,2.69,1.55,3.63-2.09-2.7-1.56q2.84-1.78,3.32-3.59c.36-1.34-.31-2.49-2-3.47A9.89,9.89,0,0,0,1117,997Zm-18.6,2.27,4.39-2.53a5.62,5.62,0,0,1,2.52-.84,4,4,0,0,1,2.3.49q1,.61.9,1.35c-.1.5-.57,1-1.41,1.48l-4.39,2.54Zm18.68,2.85a3.67,3.67,0,0,1-1.84,1.8l-4.39,2.54-4.68-2.7,4.39-2.54a7.74,7.74,0,0,1,3.07-1.09,4.24,4.24,0,0,1,2.59.46C1117,1001,1117.3,1001.48,1117.12,1002.07Z"/><path class="cls-3" d="M1137.8,1001.17c0-.28,0-.56,0-.85v-3.51h-62.39v4.53h0c.27,4.39,3.3,8.73,9.1,12.08,12.19,7,32,7,44.14,0,5.8-3.35,8.83-7.69,9.1-12.08h0Z"/><ellipse class="cls-9" cx="1106.61" cy="996.24" rx="31.21" ry="18.02"/><path class="cls-5" d="M1117,990.53a11,11,0,0,0-4.72.76,2.54,2.54,0,0,0,.9-2.36,3.38,3.38,0,0,0-1.83-2.11,8.9,8.9,0,0,0-5.49-1,15.69,15.69,0,0,0-5.47,1.66l-2.72-1.56-3.63,2.09,2.68,1.55-2,1.15-2.68-1.55-3.63,2.09,2.68,1.55-3.43,2,3.63,2.1,2.64-1.52,12.45,7.18-2.64,1.52,3.63,2.1,3.43-2,2.68,1.55,3.63-2.09-2.68-1.55,2-1.15,2.69,1.55,3.63-2.1-2.7-1.55c1.89-1.2,3-2.39,3.32-3.6s-.31-2.48-2-3.46A9.63,9.63,0,0,0,1117,990.53Zm-18.6,2.27,4.39-2.54a5.61,5.61,0,0,1,2.52-.83,4,4,0,0,1,2.3.49q1,.6.9,1.35c-.1.5-.57,1-1.41,1.48l-4.39,2.54Zm18.68,2.85a3.71,3.71,0,0,1-1.84,1.8l-4.39,2.53-4.68-2.69,4.39-2.54a7.59,7.59,0,0,1,3.07-1.09,4.1,4.1,0,0,1,2.59.46C1117,994.55,1117.3,995.06,1117.12,995.65Z"/><path class="cls-3" d="M1137.8,995.05q0-.42,0-.84v-3.52h-62.39v4.53h0c.27,4.39,3.3,8.74,9.1,12.09,12.19,7,32,7,44.14,0,5.8-3.35,8.83-7.7,9.1-12.09h0Z"/><ellipse class="cls-10" cx="1106.61" cy="990.13" rx="31.21" ry="18.02"/><path class="cls-5" d="M1117,984.42a11.18,11.18,0,0,0-4.72.75,2.52,2.52,0,0,0,.9-2.35,3.42,3.42,0,0,0-1.83-2.12,9,9,0,0,0-5.49-1,15.71,15.71,0,0,0-5.47,1.67l-2.72-1.57-3.63,2.1,2.68,1.55-2,1.14-2.68-1.54-3.63,2.09,2.68,1.55-3.43,2,3.63,2.09,2.64-1.52,12.45,7.19L1103.8,998l3.63,2.1,3.43-2,2.68,1.55,3.63-2.1-2.68-1.55,2-1.14,2.69,1.55,3.63-2.1-2.7-1.56q2.84-1.79,3.32-3.59c.36-1.33-.31-2.49-2-3.46A9.63,9.63,0,0,0,1117,984.42Zm-18.6,2.27,4.39-2.54a5.62,5.62,0,0,1,2.52-.84,4,4,0,0,1,2.3.5q1,.6.9,1.35c-.1.5-.57,1-1.41,1.48l-4.39,2.53Zm18.68,2.85a3.66,3.66,0,0,1-1.84,1.79l-4.39,2.54-4.68-2.7,4.39-2.53a7.59,7.59,0,0,1,3.07-1.09,4.17,4.17,0,0,1,2.59.45C1117,988.44,1117.3,989,1117.12,989.54Z"/><path class="cls-3" d="M1137.8,989.06q0-.42,0-.84V984.7h-62.39v4.53h0c.27,4.39,3.3,8.74,9.1,12.09,12.19,7,32,7,44.14,0,5.8-3.35,8.83-7.7,9.1-12.09h0Z"/><ellipse class="cls-11" cx="1106.61" cy="984.14" rx="31.21" ry="18.02"/><path class="cls-5" d="M1117,978.43a11,11,0,0,0-4.72.75,2.53,2.53,0,0,0,.9-2.36,3.4,3.4,0,0,0-1.83-2.11,8.9,8.9,0,0,0-5.49-1,15.5,15.5,0,0,0-5.47,1.67l-2.72-1.57-3.63,2.1,2.68,1.55-2,1.14-2.68-1.55-3.63,2.1,2.68,1.55-3.43,2,3.63,2.09,2.64-1.52,12.45,7.19L1103.8,992l3.63,2.09,3.43-2,2.68,1.55,3.63-2.1-2.68-1.55,2-1.14,2.69,1.54,3.63-2.09-2.7-1.56q2.84-1.79,3.32-3.59.54-2-2-3.46A9.63,9.63,0,0,0,1117,978.43Zm-18.6,2.26,4.39-2.53a5.62,5.62,0,0,1,2.52-.84,4,4,0,0,1,2.3.5c.69.4,1,.85.9,1.34s-.57,1-1.41,1.48l-4.39,2.54Zm18.68,2.86a3.66,3.66,0,0,1-1.84,1.79l-4.39,2.54-4.68-2.7,4.39-2.54a7.74,7.74,0,0,1,3.07-1.09,4.24,4.24,0,0,1,2.59.46C1117,982.44,1117.3,983,1117.12,983.55Z"/><path class="cls-3" d="M1137.8,983q0-.42,0-.84v-3.52h-62.39v4.53h0c.27,4.39,3.3,8.73,9.1,12.08,12.19,7,32,7,44.14,0,5.8-3.35,8.83-7.69,9.1-12.08h0Z"/><ellipse class="cls-12" cx="1106.61" cy="978.03" rx="31.21" ry="18.02"/><path class="cls-5" d="M1117,972.31a11,11,0,0,0-4.72.76,2.54,2.54,0,0,0,.9-2.36,3.38,3.38,0,0,0-1.83-2.11,8.9,8.9,0,0,0-5.49-1,15.5,15.5,0,0,0-5.47,1.67l-2.72-1.57-3.63,2.09,2.68,1.55-2,1.15L1092.1,971l-3.63,2.1,2.68,1.54-3.43,2,3.63,2.1,2.64-1.52,12.45,7.18-2.64,1.52,3.63,2.1,3.43-2,2.68,1.55,3.63-2.09-2.68-1.55,2-1.15,2.69,1.55,3.63-2.1-2.7-1.55c1.89-1.2,3-2.39,3.32-3.6s-.31-2.48-2-3.46A9.63,9.63,0,0,0,1117,972.31Zm-18.6,2.27,4.39-2.54a5.73,5.73,0,0,1,2.52-.83,4,4,0,0,1,2.3.49q1,.6.9,1.35c-.1.5-.57,1-1.41,1.48l-4.39,2.54Zm18.68,2.85a3.71,3.71,0,0,1-1.84,1.8l-4.39,2.53-4.68-2.69,4.39-2.54a7.59,7.59,0,0,1,3.07-1.09,4.1,4.1,0,0,1,2.59.46C1117,976.33,1117.3,976.84,1117.12,977.43Z"/><path class="cls-3" d="M1083.88,1045q0-.42,0-.84v-3.52h-62.39v4.53h0c.27,4.39,3.3,8.74,9.1,12.09,12.19,7,32,7,44.14,0,5.81-3.35,8.83-7.7,9.1-12.09h0Z"/><ellipse class="cls-13" cx="1052.69" cy="1040.1" rx="31.21" ry="18.02"/><path class="cls-5" d="M1063.12,1034.39a11,11,0,0,0-4.72.75,2.53,2.53,0,0,0,.9-2.36,3.4,3.4,0,0,0-1.83-2.11,8.9,8.9,0,0,0-5.49-1,15.5,15.5,0,0,0-5.47,1.67l-2.72-1.57-3.63,2.1,2.68,1.55-2,1.14-2.68-1.55-3.63,2.1,2.68,1.55-3.43,2,3.64,2.09,2.63-1.52,12.45,7.19-2.64,1.52,3.63,2.09,3.43-2,2.68,1.55,3.63-2.1-2.68-1.55,2-1.14,2.69,1.54,3.63-2.09-2.7-1.56q2.83-1.79,3.33-3.59c.35-1.33-.31-2.49-2-3.46A9.71,9.71,0,0,0,1063.12,1034.39Zm-18.6,2.26,4.39-2.53a5.62,5.62,0,0,1,2.52-.84,4,4,0,0,1,2.3.5q1,.6.9,1.35c-.09.49-.56,1-1.41,1.47l-4.39,2.54Zm18.68,2.86a3.66,3.66,0,0,1-1.84,1.79l-4.39,2.54-4.68-2.7,4.39-2.54a7.74,7.74,0,0,1,3.07-1.09,4.24,4.24,0,0,1,2.59.46C1063.09,1038.4,1063.38,1038.92,1063.2,1039.51Z"/><path class="cls-3" d="M1083.88,1038.91q0-.42,0-.84v-3.52h-62.39v4.53h0c.27,4.39,3.3,8.73,9.1,12.08,12.19,7,32,7,44.14,0,5.81-3.35,8.83-7.69,9.1-12.08h0Z"/><ellipse class="cls-14" cx="1052.69" cy="1033.99" rx="31.21" ry="18.02"/><path class="cls-5" d="M1063.12,1028.27a11,11,0,0,0-4.72.76,2.54,2.54,0,0,0,.9-2.36,3.38,3.38,0,0,0-1.83-2.11,8.9,8.9,0,0,0-5.49-1,15.5,15.5,0,0,0-5.47,1.67l-2.72-1.57-3.63,2.09,2.68,1.55-2,1.15-2.68-1.55-3.63,2.1,2.68,1.54-3.43,2,3.64,2.1,2.63-1.52,12.45,7.18-2.64,1.53,3.63,2.09,3.43-2,2.68,1.55,3.63-2.09-2.68-1.55,2-1.15,2.69,1.55,3.63-2.1-2.7-1.55c1.89-1.2,3-2.39,3.33-3.6s-.31-2.48-2-3.46A9.71,9.71,0,0,0,1063.12,1028.27Zm-18.6,2.27,4.39-2.54a5.73,5.73,0,0,1,2.52-.83,4,4,0,0,1,2.3.49q1,.6.9,1.35c-.09.5-.56,1-1.41,1.48l-4.39,2.54Zm18.68,2.85a3.71,3.71,0,0,1-1.84,1.8l-4.39,2.54-4.68-2.7,4.39-2.54a7.59,7.59,0,0,1,3.07-1.09,4.17,4.17,0,0,1,2.59.46C1063.09,1032.29,1063.38,1032.8,1063.2,1033.39Z"/><path class="cls-3" d="M1083.88,1032.92c0-.28,0-.57,0-.85v-3.52h-62.39v4.54h0c.27,4.39,3.3,8.73,9.1,12.08,12.19,7,32,7,44.14,0,5.81-3.35,8.83-7.69,9.1-12.08h0Z"/><ellipse class="cls-15" cx="1052.69" cy="1027.99" rx="31.21" ry="18.02"/><path class="cls-5" d="M1063.12,1022.28a11,11,0,0,0-4.72.76,2.54,2.54,0,0,0,.9-2.36,3.38,3.38,0,0,0-1.83-2.11,9,9,0,0,0-5.49-1,15.71,15.71,0,0,0-5.47,1.67l-2.72-1.56-3.63,2.09,2.68,1.55-2,1.15-2.68-1.55-3.63,2.09,2.68,1.55-3.43,2,3.64,2.1,2.63-1.53,12.45,7.19-2.64,1.52,3.63,2.1,3.43-2,2.68,1.55,3.63-2.1-2.68-1.54,2-1.15,2.69,1.55,3.63-2.1-2.7-1.55q2.83-1.8,3.33-3.6c.35-1.33-.31-2.48-2-3.46A9.71,9.71,0,0,0,1063.12,1022.28Zm-18.6,2.27,4.39-2.54a5.62,5.62,0,0,1,2.52-.84,4,4,0,0,1,2.3.5q1,.6.9,1.35c-.09.5-.56,1-1.41,1.48l-4.39,2.53Zm18.68,2.85a3.71,3.71,0,0,1-1.84,1.8l-4.39,2.53-4.68-2.7,4.39-2.53a7.59,7.59,0,0,1,3.07-1.09,4.17,4.17,0,0,1,2.59.45C1063.09,1026.3,1063.38,1026.81,1063.2,1027.4Z"/><path class="cls-3" d="M1083.88,1026.8q0-.42,0-.84v-3.52h-62.39V1027h0c.27,4.39,3.3,8.74,9.1,12.09,12.19,7,32,7,44.14,0,5.81-3.35,8.83-7.7,9.1-12.09h0Z"/><ellipse class="cls-16" cx="1052.69" cy="1021.88" rx="31.21" ry="18.02"/><path class="cls-5" d="M1063.12,1016.17a11,11,0,0,0-4.72.75,2.52,2.52,0,0,0,.9-2.35,3.39,3.39,0,0,0-1.83-2.12,8.9,8.9,0,0,0-5.49-1,15.5,15.5,0,0,0-5.47,1.67l-2.72-1.57-3.63,2.1,2.68,1.55-2,1.14-2.68-1.55-3.63,2.1,2.68,1.55-3.43,2,3.64,2.09,2.63-1.52,12.45,7.19-2.64,1.52,3.63,2.1,3.43-2,2.68,1.55,3.63-2.1-2.68-1.55,2-1.14,2.69,1.55,3.63-2.1-2.7-1.56q2.83-1.79,3.33-3.59c.35-1.33-.31-2.49-2-3.46A9.71,9.71,0,0,0,1063.12,1016.17Zm-18.6,2.26,4.39-2.53a5.62,5.62,0,0,1,2.52-.84,4,4,0,0,1,2.3.5q1,.6.9,1.35c-.09.49-.56,1-1.41,1.48l-4.39,2.53Zm18.68,2.86a3.66,3.66,0,0,1-1.84,1.79l-4.39,2.54-4.68-2.7,4.39-2.54a7.57,7.57,0,0,1,3.07-1.08,4.17,4.17,0,0,1,2.59.45C1063.09,1020.18,1063.38,1020.7,1063.2,1021.29Z"/><path class="cls-3" d="M1083.88,1020.38q0-.42,0-.84V1016h-62.39v4.53h0c.27,4.39,3.3,8.73,9.1,12.08,12.19,7,32,7,44.14,0,5.81-3.36,8.83-7.7,9.1-12.09h0Z"/><ellipse class="cls-17" cx="1052.69" cy="1015.46" rx="31.21" ry="18.02"/><path class="cls-5" d="M1063.12,1009.74a11,11,0,0,0-4.72.76,2.54,2.54,0,0,0,.9-2.36,3.4,3.4,0,0,0-1.83-2.11,8.9,8.9,0,0,0-5.49-1,15.5,15.5,0,0,0-5.47,1.67l-2.72-1.57-3.63,2.1,2.68,1.54-2,1.15-2.68-1.55-3.63,2.1,2.68,1.55-3.43,2,3.64,2.1,2.63-1.52,12.45,7.18-2.64,1.53,3.63,2.09,3.43-2,2.68,1.55,3.63-2.09-2.68-1.55,2-1.15,2.69,1.55,3.63-2.09-2.7-1.56q2.83-1.78,3.33-3.59c.35-1.34-.31-2.49-2-3.47A10,10,0,0,0,1063.12,1009.74Zm-18.6,2.27,4.39-2.54a5.73,5.73,0,0,1,2.52-.83,4,4,0,0,1,2.3.49q1,.6.9,1.35c-.09.5-.56,1-1.41,1.48l-4.39,2.54Zm18.68,2.85a3.71,3.71,0,0,1-1.84,1.8l-4.39,2.54-4.68-2.7,4.39-2.54a7.59,7.59,0,0,1,3.07-1.09,4.17,4.17,0,0,1,2.59.46C1063.09,1013.76,1063.38,1014.27,1063.2,1014.86Z"/><path class="cls-3" d="M1143.58,1045.12c0-.28,0-.57,0-.85v-3.52h-62.39v4.54h0c.27,4.39,3.3,8.73,9.1,12.08,12.19,7,32,7,44.14,0,5.81-3.35,8.83-7.69,9.1-12.08h0Z"/><ellipse class="cls-18" cx="1112.39" cy="1040.19" rx="31.21" ry="18.02"/><path class="cls-5" d="M1122.82,1034.48a11,11,0,0,0-4.72.76,2.54,2.54,0,0,0,.9-2.36,3.38,3.38,0,0,0-1.83-2.11,9,9,0,0,0-5.49-1,15.93,15.93,0,0,0-5.47,1.67l-2.72-1.56-3.63,2.09,2.68,1.55-2,1.15-2.68-1.55-3.63,2.09,2.68,1.55-3.43,2,3.64,2.1,2.63-1.52,12.45,7.18-2.64,1.52,3.63,2.1,3.43-2,2.68,1.55,3.63-2.1-2.68-1.54,2-1.15,2.69,1.55,3.63-2.1-2.7-1.55q2.84-1.8,3.33-3.6c.35-1.33-.31-2.48-2-3.46A9.71,9.71,0,0,0,1122.82,1034.48Zm-18.6,2.27,4.39-2.54a5.62,5.62,0,0,1,2.52-.84,4,4,0,0,1,2.3.5q1,.6.9,1.35c-.09.5-.56,1-1.41,1.48l-4.39,2.53Zm18.68,2.85a3.71,3.71,0,0,1-1.84,1.8l-4.39,2.53-4.68-2.7,4.39-2.53a7.59,7.59,0,0,1,3.07-1.09,4.17,4.17,0,0,1,2.59.45C1122.79,1038.5,1123.08,1039,1122.9,1039.6Z"/><path class="cls-3" d="M1143.58,1038.69q0-.42,0-.84v-3.52h-62.39v4.53h0c.27,4.39,3.3,8.74,9.1,12.09,12.19,7,32,7,44.14,0,5.81-3.35,8.83-7.7,9.1-12.09h0Z"/><ellipse class="cls-19" cx="1112.39" cy="1033.77" rx="31.21" ry="18.02"/><path class="cls-5" d="M1122.82,1028.06a11.18,11.18,0,0,0-4.72.75,2.52,2.52,0,0,0,.9-2.35,3.39,3.39,0,0,0-1.83-2.12,8.9,8.9,0,0,0-5.49-1,15.5,15.5,0,0,0-5.47,1.67l-2.72-1.57-3.63,2.1,2.68,1.55-2,1.14-2.68-1.55-3.63,2.1,2.68,1.55-3.43,2,3.64,2.09,2.63-1.52,12.45,7.19-2.64,1.52,3.63,2.1,3.43-2,2.68,1.55,3.63-2.1-2.68-1.55,2-1.14,2.69,1.55,3.63-2.1-2.7-1.56q2.84-1.78,3.33-3.59c.35-1.33-.31-2.49-2-3.46A9.71,9.71,0,0,0,1122.82,1028.06Zm-18.6,2.26,4.39-2.53a5.62,5.62,0,0,1,2.52-.84,4,4,0,0,1,2.3.5q1,.6.9,1.35c-.09.5-.56,1-1.41,1.48l-4.39,2.53Zm18.68,2.86a3.66,3.66,0,0,1-1.84,1.79l-4.39,2.54-4.68-2.7,4.39-2.53a7.44,7.44,0,0,1,3.07-1.09,4.17,4.17,0,0,1,2.59.45C1122.79,1032.07,1123.08,1032.59,1122.9,1033.18Z"/><path class="cls-3" d="M1137.93,977q0-.42,0-.84v-3.52h-62.39v4.53h0c.27,4.39,3.3,8.73,9.11,12.09,12.18,7,31.94,7,44.13,0,5.81-3.36,8.83-7.7,9.1-12.09h0Z"/><ellipse class="cls-20" cx="1106.74" cy="972.06" rx="31.21" ry="18.02"/><path class="cls-5" d="M1117.17,966.34a11,11,0,0,0-4.72.76,2.53,2.53,0,0,0,.9-2.36,3.4,3.4,0,0,0-1.83-2.11,8.9,8.9,0,0,0-5.49-1,15.5,15.5,0,0,0-5.47,1.67l-2.72-1.57-3.63,2.1,2.69,1.55-2,1.14-2.68-1.55-3.63,2.1,2.68,1.55-3.43,2,3.64,2.1,2.63-1.52,12.45,7.19-2.64,1.52,3.63,2.09,3.43-2,2.68,1.54,3.63-2.09-2.68-1.55,2-1.15,2.69,1.55,3.63-2.09-2.7-1.56q2.83-1.78,3.33-3.59c.35-1.34-.31-2.49-2-3.47A10,10,0,0,0,1117.17,966.34Zm-18.6,2.27,4.39-2.53a5.62,5.62,0,0,1,2.52-.84,4,4,0,0,1,2.3.49q1,.62.9,1.35c-.09.5-.56,1-1.41,1.48l-4.39,2.54Zm18.68,2.85a3.67,3.67,0,0,1-1.84,1.8L1111,975.8l-4.68-2.7,4.39-2.54a7.74,7.74,0,0,1,3.07-1.09,4.24,4.24,0,0,1,2.59.46C1117.14,970.36,1117.43,970.87,1117.25,971.46Z"/><path class="cls-3" d="M1137.93,970.87c0-.28,0-.56,0-.85v-3.51h-62.39V971h0c.27,4.39,3.3,8.73,9.11,12.08,12.18,7,31.94,7,44.13,0,5.81-3.35,8.83-7.69,9.1-12.08h0Z"/><ellipse class="cls-21" cx="1106.74" cy="965.94" rx="31.21" ry="18.02"/><path class="cls-5" d="M1117.17,960.23a11,11,0,0,0-4.72.76,2.54,2.54,0,0,0,.9-2.36,3.38,3.38,0,0,0-1.83-2.11,9,9,0,0,0-5.49-1,15.93,15.93,0,0,0-5.47,1.67l-2.72-1.56-3.63,2.09,2.69,1.55-2,1.15-2.68-1.55L1088.6,961l2.68,1.55-3.43,2,3.64,2.1,2.63-1.52,12.45,7.18-2.64,1.52,3.63,2.1,3.43-2,2.68,1.55,3.63-2.1-2.68-1.54,2-1.15,2.69,1.55,3.63-2.1-2.7-1.55c1.89-1.2,3-2.39,3.33-3.6s-.31-2.48-2-3.46A9.71,9.71,0,0,0,1117.17,960.23Zm-18.6,2.27L1103,960a5.61,5.61,0,0,1,2.52-.83,4,4,0,0,1,2.3.49q1,.6.9,1.35c-.09.5-.56,1-1.41,1.48l-4.39,2.54Zm18.68,2.85a3.71,3.71,0,0,1-1.84,1.8l-4.39,2.53-4.68-2.69,4.39-2.54a7.59,7.59,0,0,1,3.07-1.09,4.1,4.1,0,0,1,2.59.46C1117.14,964.25,1117.43,964.76,1117.25,965.35Z"/><path class="cls-22" d="M1185.51,953.1v104.08a5.21,5.21,0,0,1,0,.79v.3h0c-.29,2.67-2.36,5.42-6.15,7.61L1097.74,1113c-7.48,4.32-18.79,4.78-25.27,1l-85.92-49.6c-2.92-1.68-4.35-4-4.36-6.31V953.47c.17,2.21,1.62,4.31,4.36,5.9l85.92,49.6c6.48,3.74,17.79,3.26,25.27-1.05l81.61-47.12C1183.19,958.59,1185.26,955.8,1185.51,953.1Z"/><path class="cls-23" d="M1185.51,953.09c-.24,2.7-2.32,5.5-6.16,7.71l-81.61,47.12c-7.48,4.32-18.79,4.79-25.27,1.05l-85.92-49.61c-2.75-1.59-4.18-3.68-4.36-5.89v-.71a1.37,1.37,0,0,1,0-.28c.24-2.7,2.32-5.5,6.16-7.71l24-13.88,5.38-3.1L1070,897.65c7.49-4.32,18.8-4.78,25.27-1l54.82,31.65,5.73,3.31,25.38,14.65C1184.33,948,1185.75,950.52,1185.51,953.09Z"/><path class="cls-24" d="M1534.1,1421.43a2.91,2.91,0,0,1-.57-.06L188.66,1163.81c-2-.39-3.38-2.76-3.09-5.31s2.17-4.29,4.15-3.91L1534.6,1412.16c2,.38,3.38,2.75,3.08,5.3C1537.42,1419.76,1535.87,1421.41,1534.1,1421.43Z"/><path class="cls-25" d="M-185.42,2048.4a5.4,5.4,0,0,1-4.67-2.69,5.37,5.37,0,0,1,2-7.35l1516.54-872.78a5.38,5.38,0,1,1,5.39,9.32L-182.73,2047.68A5.35,5.35,0,0,1-185.42,2048.4Z"/><path class="cls-26" d="M242.78,2080.67c-.76-.33-1.15-1.42-.92-2.89L400,1046.06c.32-2,1.69-4,3.07-4.46s2.24.88,1.93,2.91L246.85,2076.23c-.31,2-1.69,4-3.06,4.46A1.44,1.44,0,0,1,242.78,2080.67Z"/><rect class="cls-1" x="839.55" y="1425.19" width="34.28" height="34.28" rx="4.41" ry="4.41" transform="matrix(-0.97, -0.26, 0.26, -0.97, 1311.74, 3057.01)"/><rect class="cls-27" x="714.69" y="1371.67" width="41.97" height="281.67" transform="translate(-205.63 2906.36) rotate(-120.03)"/><path class="cls-28" d="M1276.18,1317v-18.32h-3.68c-7.19-20.58-24.63-40.23-52.32-56.22-74.49-43-194.88-43.22-268.9-.48-27.82,16.06-45.13,35.9-51.95,56.7h-3.27v17.93q-.09,2.49,0,5v1.33h.07c1.59,26.94,20.26,53.67,56,74.31,74.49,43,194.88,43.22,268.9.48C1259.43,1375.5,1277.8,1346.12,1276.18,1317Z"/><path class="cls-29" d="M1267.15,1268.16l.16-.1-30.8-48.29-26.8-1.75c-60.61-30.26-146.12-35-214-14l-11.6-.75-45.58,10.78-26.1,41.69c-31,40.24-17.66,89.2,39.8,122.38,74.41,43,194.69,43.18,268.64.48C1272.54,1348.8,1287.92,1305.94,1267.15,1268.16Z"/><ellipse class="cls-30" cx="1086.15" cy="1246.91" rx="91.15" ry="157.88" transform="translate(-166.63 2326.28) rotate(-89.69)"/><path class="cls-31" d="M1209.32,1178.68v9.3a144.06,144.06,0,0,1-12.42,55.27,134,134,0,0,1-23.31,35.63c-48,52.47-126,52.28-174.35-.65a136.68,136.68,0,0,1-23.84-36.57A145.22,145.22,0,0,1,963,1188V108L1207.7,60Z"/><path class="cls-32" d="M1209.32,1244.55v4.91c-.49,10.06-4.62,20-12.42,29.15-5.74,6.77-13.54,13.15-23.31,18.79-48,27.68-126,27.58-174.35-.34-10-5.79-18-12.32-23.84-19.29-7.56-8.93-11.68-18.59-12.37-28.31a34.53,34.53,0,0,1,0-6.43c1.37-17,13.25-33.71,35.67-46.62,48-27.67,126.07-27.53,174.35.35C1196.07,1210,1208.14,1227.23,1209.32,1244.55Z"/><circle class="cls-33" cx="1099.87" cy="1049.47" r="7.83"/><circle class="cls-34" cx="1087.76" cy="966.31" r="4.11"/><g class="cls-35"><circle class="cls-36" cx="974.23" cy="1057.56" r="5.03"/></g><g class="cls-35"><circle class="cls-37" cx="1022.38" cy="1073.54" r="5.03"/></g><g class="cls-35"><circle class="cls-38" cx="983.86" cy="1115.12" r="5.03"/></g><g class="cls-35"><circle class="cls-39" cx="1004.43" cy="1189.74" r="5.03"/></g><g class="cls-35"><circle class="cls-40" cx="1022.6" cy="1145.75" r="5.03"/></g><g class="cls-35"><circle class="cls-41" cx="995.24" cy="1017.73" r="5.03"/></g><g class="cls-35"><circle class="cls-42" cx="997.65" cy="927.13" r="5.03"/></g><g class="cls-35"><circle class="cls-43" cx="1123.92" cy="1005.7" r="5.03"/></g><g class="cls-35"><circle class="cls-44" cx="1176.16" cy="1014.7" r="5.03"/></g><g class="cls-35"><circle class="cls-45" cx="1136.78" cy="1085.1" r="5.03"/></g><g class="cls-35"><circle class="cls-46" cx="1201.82" cy="1051.87" r="5.03"/></g><g class="cls-35"><circle class="cls-47" cx="1183" cy="1078.35" r="5.03"/></g><g class="cls-35"><circle class="cls-48" cx="1209.48" cy="1098.48" r="5.03"/></g><g class="cls-35"><circle class="cls-49" cx="1194.38" cy="1156.26" r="5.03"/></g><g class="cls-35"><circle class="cls-50" cx="1221.96" cy="1047.93" r="5.03"/></g><circle class="cls-51" cx="1084.04" cy="1087.12" r="7.83"/><circle class="cls-52" cx="1069.27" cy="1127.22" r="7.83"/><circle class="cls-53" cx="1092.45" cy="1125.2" r="5.32"/><circle class="cls-54" cx="1078.79" cy="1173.11" r="5.32"/><circle class="cls-55" cx="1081.36" cy="1031.65" r="5.32"/><circle class="cls-56" cx="1116.56" cy="974.26" r="5.32"/><circle class="cls-57" cx="1098.12" cy="1153.61" r="7.83"/><circle class="cls-58" cx="1094.6" cy="1182.81" r="7.83"/><path class="cls-59" d="M475.4,1198v-8h-1.6c-3.13-9-10.72-17.49-22.76-24.45-32.4-18.7-84.76-18.8-117-.21-12.1,7-19.63,15.62-22.6,24.66h-1.42v7.8c0,.72,0,1.45,0,2.17v.57h0c.69,11.72,8.81,23.35,24.35,32.32,32.4,18.71,84.76,18.8,117,.21C468.11,1223.44,476.1,1210.66,475.4,1198Z"/><path class="cls-60" d="M471.47,1176.75l.07,0-13.4-21-11.65-.76c-26.36-13.16-63.56-15.2-93.07-6.07l-5.05-.33-19.82,4.69-11.35,18.13c-13.47,17.5-7.68,38.8,17.31,53.22,32.36,18.69,84.68,18.79,116.84.22C473.81,1211.83,480.5,1193.18,471.47,1176.75Z"/><ellipse class="cls-61" cx="392.75" cy="1167.51" rx="39.64" ry="68.67" transform="translate(-776.88 1553.92) rotate(-89.69)"/><path class="cls-62" d="M426.51,1751.77v-11.56h-2.32c-4.54-13-15.55-25.39-33-35.48-47-27.14-123-27.28-169.7-.31-17.56,10.14-28.48,22.66-32.79,35.79h-2.06v11.31q-.06,1.57,0,3.15v.83h0c1,17,12.79,33.88,35.34,46.9,47,27.14,123,27.28,169.7.31C415.94,1788.71,427.53,1770.16,426.51,1751.77Z"/><path class="cls-63" d="M420.81,1721l.1-.06-19.44-30.48-16.91-1.1c-38.25-19.09-92.22-22-135-8.82l-7.32-.47-28.76,6.8L197,1713.14c-19.54,25.4-11.14,56.29,25.12,77.23,47,27.12,122.87,27.25,169.54.31C424.21,1771.86,433.92,1744.81,420.81,1721Z"/><ellipse class="cls-64" cx="306.58" cy="1707.56" rx="57.52" ry="99.64" transform="translate(-1402.61 2004.88) rotate(-89.69)"/><rect class="cls-1" x="314.82" y="1521.56" width="29.25" height="29.25" rx="4.41" ry="4.41" transform="translate(-855.18 504.16) rotate(-36.83)"/><rect class="cls-65" x="321.59" y="1392.32" width="35.81" height="145.38" transform="translate(211.53 -33.37) rotate(8.17)"/><path class="cls-3" d="M1146.74,696.37v-3h-43.25v3.15h0c.19,3,2.29,6,6.31,8.37,8.45,4.88,22.15,4.88,30.6,0,4-2.32,6.12-5.33,6.31-8.37h0Z"/><ellipse class="cls-66" cx="1125.12" cy="692.96" rx="21.63" ry="12.49"/><path class="cls-5" d="M1132.35,689a7.6,7.6,0,0,0-3.27.52,1.75,1.75,0,0,0,.62-1.63,2.35,2.35,0,0,0-1.27-1.47,6.17,6.17,0,0,0-3.8-.69,11,11,0,0,0-3.8,1.16L1119,685.8l-2.52,1.46,1.86,1.07-1.37.8-1.86-1.08-2.52,1.45,1.86,1.08L1112,692l2.51,1.45,1.83-1,8.63,5-1.83,1,2.52,1.46,2.37-1.37,1.86,1.07,2.52-1.45-1.86-1.08,1.37-.79,1.86,1.07,2.52-1.45-1.87-1.08a4.89,4.89,0,0,0,2.31-2.49c.24-.92-.22-1.72-1.39-2.4A6.68,6.68,0,0,0,1132.35,689Zm-12.9,1.57,3-1.76a3.78,3.78,0,0,1,1.75-.58,2.74,2.74,0,0,1,1.59.34c.48.28.69.59.62.94s-.39.69-1,1l-3,1.76Zm13,2a2.58,2.58,0,0,1-1.27,1.24l-3.05,1.76-3.24-1.87,3.05-1.76a5.07,5.07,0,0,1,2.12-.75,2.91,2.91,0,0,1,1.8.31C1132.33,691.78,1132.53,692.14,1132.4,692.55Z"/><path class="cls-3" d="M1146.74,692.13v-3h-43.25v3.14h0c.19,3,2.29,6,6.31,8.38,8.45,4.87,22.15,4.87,30.6,0,4-2.33,6.12-5.34,6.31-8.38h0Z"/><ellipse class="cls-67" cx="1125.12" cy="688.72" rx="21.63" ry="12.49"/><path class="cls-5" d="M1132.35,684.76a7.6,7.6,0,0,0-3.27.52,1.75,1.75,0,0,0,.62-1.63,2.35,2.35,0,0,0-1.27-1.47,6.17,6.17,0,0,0-3.8-.68,10.76,10.76,0,0,0-3.8,1.15l-1.88-1.08-2.52,1.45,1.86,1.07-1.37.8-1.86-1.08-2.52,1.46,1.86,1.07-2.37,1.37,2.51,1.45,1.83-1,8.63,5-1.83,1.06,2.52,1.45,2.37-1.37,1.86,1.07,2.52-1.45-1.86-1.07,1.37-.8,1.86,1.07,2.52-1.45-1.87-1.08a4.81,4.81,0,0,0,2.31-2.49c.24-.92-.22-1.72-1.39-2.4A6.68,6.68,0,0,0,1132.35,684.76Zm-12.9,1.57,3-1.76a3.9,3.9,0,0,1,1.75-.58,2.75,2.75,0,0,1,1.59.35c.48.27.69.59.62.93s-.39.69-1,1l-3,1.75Zm13,2a2.54,2.54,0,0,1-1.27,1.24l-3.05,1.76-3.24-1.87,3.05-1.76a5.07,5.07,0,0,1,2.12-.75,2.91,2.91,0,0,1,1.8.31C1132.33,687.54,1132.53,687.9,1132.4,688.31Z"/><path class="cls-3" d="M1146.74,688v-3h-43.25v3.14h0c.19,3,2.29,6.06,6.31,8.38,8.45,4.88,22.15,4.88,30.6,0,4-2.32,6.12-5.33,6.31-8.38h0Z"/><ellipse class="cls-68" cx="1125.12" cy="684.56" rx="21.63" ry="12.49"/><path class="cls-5" d="M1132.35,680.6a7.76,7.76,0,0,0-3.27.53,1.77,1.77,0,0,0,.62-1.64,2.36,2.36,0,0,0-1.27-1.46,6.17,6.17,0,0,0-3.8-.69,11,11,0,0,0-3.8,1.16l-1.88-1.09-2.52,1.46,1.86,1.07-1.37.79-1.86-1.07-2.52,1.45,1.86,1.08-2.37,1.37,2.51,1.45,1.83-1,8.63,5-1.83,1,2.52,1.46,2.37-1.38,1.86,1.08,2.52-1.46-1.86-1.07,1.37-.79,1.86,1.07,2.52-1.45-1.87-1.08a4.89,4.89,0,0,0,2.31-2.49c.24-.93-.22-1.73-1.39-2.4A6.81,6.81,0,0,0,1132.35,680.6Zm-12.9,1.58,3-1.76a3.78,3.78,0,0,1,1.75-.58,2.74,2.74,0,0,1,1.59.34c.48.28.69.59.62.94s-.39.68-1,1l-3,1.76Zm13,2a2.56,2.56,0,0,1-1.27,1.25l-3.05,1.76-3.24-1.87,3.05-1.76a5.24,5.24,0,0,1,2.12-.76,2.91,2.91,0,0,1,1.8.32C1132.33,683.39,1132.53,683.74,1132.4,684.15Z"/><path class="cls-3" d="M1146.74,683.74v-3h-43.25v3.14h0c.19,3,2.29,6,6.31,8.37,8.45,4.88,22.15,4.88,30.6,0,4-2.32,6.12-5.33,6.31-8.37h0Z"/><ellipse class="cls-69" cx="1125.12" cy="680.33" rx="21.63" ry="12.49"/><path class="cls-5" d="M1132.35,676.37a7.6,7.6,0,0,0-3.27.52,1.75,1.75,0,0,0,.62-1.63,2.35,2.35,0,0,0-1.27-1.47,6.17,6.17,0,0,0-3.8-.69,11,11,0,0,0-3.8,1.16l-1.88-1.08-2.52,1.45,1.86,1.07-1.37.8-1.86-1.08-2.52,1.45,1.86,1.08-2.37,1.37,2.51,1.45,1.83-1,8.63,5-1.83,1,2.52,1.46,2.37-1.37,1.86,1.07,2.52-1.45-1.86-1.08,1.37-.79,1.86,1.07,2.52-1.45-1.87-1.08a4.89,4.89,0,0,0,2.31-2.49c.24-.92-.22-1.72-1.39-2.4A6.68,6.68,0,0,0,1132.35,676.37Zm-12.9,1.57,3-1.76a3.9,3.9,0,0,1,1.75-.58,2.74,2.74,0,0,1,1.59.34c.48.28.69.59.62.94s-.39.69-1,1l-3,1.76Zm13,2a2.54,2.54,0,0,1-1.27,1.24l-3.05,1.76-3.24-1.87,3.05-1.76a5.07,5.07,0,0,1,2.12-.75,2.91,2.91,0,0,1,1.8.31C1132.33,679.15,1132.53,679.51,1132.4,679.92Z"/><path class="cls-3" d="M1146.74,679.29v-3h-43.25v3.14h0c.19,3.05,2.29,6.06,6.31,8.38,8.45,4.88,22.15,4.88,30.6,0,4-2.32,6.12-5.33,6.31-8.38h0Z"/><ellipse class="cls-70" cx="1125.12" cy="675.87" rx="21.63" ry="12.49"/><path class="cls-5" d="M1132.35,671.91a7.61,7.61,0,0,0-3.27.53,1.77,1.77,0,0,0,.62-1.64,2.36,2.36,0,0,0-1.27-1.46,6.17,6.17,0,0,0-3.8-.69,11,11,0,0,0-3.8,1.16l-1.88-1.09-2.52,1.46,1.86,1.07-1.37.79-1.86-1.07-2.52,1.45,1.86,1.08-2.37,1.37,2.51,1.45,1.83-1.05,8.63,5-1.83,1,2.52,1.45,2.37-1.37,1.86,1.08,2.52-1.46-1.86-1.07,1.37-.79,1.86,1.07,2.52-1.45-1.87-1.08a4.89,4.89,0,0,0,2.31-2.49c.24-.93-.22-1.73-1.39-2.4A6.81,6.81,0,0,0,1132.35,671.91Zm-12.9,1.58,3-1.76a3.78,3.78,0,0,1,1.75-.58,2.74,2.74,0,0,1,1.59.34c.48.28.69.59.62.94s-.39.68-1,1l-3,1.76Zm13,2a2.56,2.56,0,0,1-1.27,1.25l-3.05,1.76-3.24-1.87,3.05-1.76a5.24,5.24,0,0,1,2.12-.76,2.91,2.91,0,0,1,1.8.32C1132.33,674.7,1132.53,675.05,1132.4,675.46Z"/><path class="cls-3" d="M1146.74,675.05v-3h-43.25v3.14h0c.19,3,2.29,6.05,6.31,8.37,8.45,4.88,22.15,4.88,30.6,0,4-2.32,6.12-5.33,6.31-8.37h0Z"/><ellipse class="cls-71" cx="1125.12" cy="671.64" rx="21.63" ry="12.49"/><path class="cls-5" d="M1132.35,667.68a7.6,7.6,0,0,0-3.27.52,1.75,1.75,0,0,0,.62-1.63,2.35,2.35,0,0,0-1.27-1.47,6.17,6.17,0,0,0-3.8-.69,11,11,0,0,0-3.8,1.16l-1.88-1.09-2.52,1.46,1.86,1.07-1.37.8-1.86-1.08-2.52,1.45,1.86,1.08-2.37,1.37,2.51,1.45,1.83-1.05,8.63,5-1.83,1,2.52,1.46,2.37-1.37,1.86,1.07,2.52-1.45-1.86-1.08,1.37-.79,1.86,1.07,2.52-1.45-1.87-1.08a4.89,4.89,0,0,0,2.31-2.49c.24-.92-.22-1.72-1.39-2.4A6.68,6.68,0,0,0,1132.35,667.68Zm-12.9,1.57,3-1.76a3.78,3.78,0,0,1,1.75-.58,2.74,2.74,0,0,1,1.59.34c.48.28.69.59.62.94s-.39.69-1,1l-3,1.76Zm13,2a2.54,2.54,0,0,1-1.27,1.24l-3.05,1.76-3.24-1.87,3.05-1.76a5.07,5.07,0,0,1,2.12-.75,2.91,2.91,0,0,1,1.8.31C1132.33,670.46,1132.53,670.82,1132.4,671.23Z"/><path class="cls-3" d="M1146.74,670.9v-3h-43.25V671h0c.19,3,2.29,6.06,6.31,8.38,8.45,4.88,22.15,4.88,30.6,0,4-2.32,6.12-5.33,6.31-8.38h0Z"/><ellipse class="cls-72" cx="1125.12" cy="667.48" rx="21.63" ry="12.49"/><path class="cls-5" d="M1132.35,663.52a7.61,7.61,0,0,0-3.27.53,1.77,1.77,0,0,0,.62-1.64,2.36,2.36,0,0,0-1.27-1.46,6.17,6.17,0,0,0-3.8-.69,10.79,10.79,0,0,0-3.8,1.16l-1.88-1.09-2.52,1.45,1.86,1.08-1.37.79-1.86-1.07-2.52,1.45,1.86,1.07-2.37,1.38,2.51,1.45,1.83-1.06,8.63,5-1.83,1,2.52,1.45,2.37-1.37,1.86,1.08,2.52-1.46-1.86-1.07,1.37-.79,1.86,1.07,2.52-1.45-1.87-1.08a4.89,4.89,0,0,0,2.31-2.49c.24-.93-.22-1.73-1.39-2.4A6.81,6.81,0,0,0,1132.35,663.52Zm-12.9,1.57,3-1.75a3.78,3.78,0,0,1,1.75-.58,2.67,2.67,0,0,1,1.59.34c.48.28.69.59.62.93s-.39.69-1,1l-3,1.76Zm13,2a2.56,2.56,0,0,1-1.27,1.25l-3.05,1.75-3.24-1.87,3.05-1.75a5.24,5.24,0,0,1,2.12-.76,2.91,2.91,0,0,1,1.8.32C1132.33,666.31,1132.53,666.66,1132.4,667.07Z"/><path class="cls-3" d="M1146.74,666.66v-3h-43.25v3.14h0c.19,3.05,2.29,6.06,6.31,8.38,8.45,4.88,22.15,4.88,30.6,0,4-2.32,6.12-5.33,6.31-8.38h0Z"/><ellipse class="cls-73" cx="1125.12" cy="663.25" rx="21.63" ry="12.49"/><path class="cls-5" d="M1132.35,659.28a7.76,7.76,0,0,0-3.27.53,1.76,1.76,0,0,0,.62-1.64,2.36,2.36,0,0,0-1.27-1.46,6.17,6.17,0,0,0-3.8-.69,11,11,0,0,0-3.8,1.16l-1.88-1.09-2.52,1.46,1.86,1.07-1.37.79-1.86-1.07-2.52,1.45,1.86,1.08-2.37,1.37,2.51,1.45,1.83-1.05,8.63,5-1.83,1,2.52,1.46,2.37-1.38,1.86,1.08,2.52-1.45-1.86-1.08,1.37-.79,1.86,1.07,2.52-1.45-1.87-1.08a4.89,4.89,0,0,0,2.31-2.49c.24-.93-.22-1.73-1.39-2.4A6.81,6.81,0,0,0,1132.35,659.28Zm-12.9,1.58,3-1.76a3.78,3.78,0,0,1,1.75-.58,2.74,2.74,0,0,1,1.59.34c.48.28.69.59.62.94s-.39.68-1,1l-3,1.76Zm13,2a2.56,2.56,0,0,1-1.27,1.25l-3.05,1.76-3.24-1.87,3.05-1.76a5.24,5.24,0,0,1,2.12-.76,2.91,2.91,0,0,1,1.8.32C1132.33,662.07,1132.53,662.42,1132.4,662.83Z"/><path class="cls-3" d="M1109.36,709.69a5.81,5.81,0,0,0,0-.59v-2.44h-43.25v3.14h0c.19,3.05,2.29,6.06,6.32,8.38,8.44,4.88,22.14,4.88,30.59,0,4-2.32,6.12-5.33,6.31-8.38h0Z"/><ellipse class="cls-74" cx="1087.74" cy="706.27" rx="21.63" ry="12.49"/><path class="cls-5" d="M1095,702.31a7.61,7.61,0,0,0-3.27.53,1.77,1.77,0,0,0,.62-1.64,2.34,2.34,0,0,0-1.26-1.46,6.21,6.21,0,0,0-3.81-.69,10.88,10.88,0,0,0-3.79,1.16l-1.89-1.09-2.51,1.46,1.86,1.07-1.38.79-1.86-1.07-2.52,1.45,1.86,1.08-2.37,1.37,2.52,1.45,1.82-1.05,8.63,5-1.83,1.05,2.52,1.45,2.38-1.37,1.86,1.08,2.51-1.46-1.86-1.07,1.38-.79,1.86,1.07,2.51-1.45-1.87-1.08a4.8,4.8,0,0,0,2.31-2.49c.25-.93-.22-1.73-1.39-2.4A6.78,6.78,0,0,0,1095,702.31Zm-12.89,1.58,3-1.76a3.86,3.86,0,0,1,1.75-.58,2.74,2.74,0,0,1,1.59.34c.48.28.69.59.62.94s-.39.68-1,1l-3,1.76Zm13,2a2.59,2.59,0,0,1-1.28,1.25l-3,1.76-3.24-1.87,3-1.76a5.23,5.23,0,0,1,2.13-.76,2.88,2.88,0,0,1,1.79.32C1095,705.1,1095.15,705.45,1095,705.86Z"/><path class="cls-3" d="M1109.36,705.45a5.81,5.81,0,0,0,0-.59v-2.44h-43.25v3.15h0c.19,3,2.29,6,6.32,8.37,8.44,4.88,22.14,4.88,30.59,0,4-2.32,6.12-5.33,6.31-8.37h0Z"/><ellipse class="cls-75" cx="1087.74" cy="702.04" rx="21.63" ry="12.49"/><path class="cls-5" d="M1095,698.08a7.6,7.6,0,0,0-3.27.52,1.75,1.75,0,0,0,.62-1.63,2.33,2.33,0,0,0-1.26-1.47,6.21,6.21,0,0,0-3.81-.69,10.88,10.88,0,0,0-3.79,1.16l-1.89-1.09-2.51,1.46,1.86,1.07-1.38.8-1.86-1.08-2.52,1.45,1.86,1.08-2.37,1.37,2.52,1.45,1.82-1.05,8.63,5-1.83,1.05,2.52,1.46,2.38-1.37,1.86,1.07,2.51-1.45-1.86-1.08,1.38-.79,1.86,1.07,2.51-1.45-1.87-1.08a4.8,4.8,0,0,0,2.31-2.49c.25-.92-.22-1.72-1.39-2.4A6.64,6.64,0,0,0,1095,698.08Zm-12.89,1.57,3-1.76a3.86,3.86,0,0,1,1.75-.58,2.74,2.74,0,0,1,1.59.34c.48.28.69.59.62.94s-.39.69-1,1l-3,1.76Zm13,2a2.62,2.62,0,0,1-1.28,1.24l-3,1.76-3.24-1.87,3-1.76a5.06,5.06,0,0,1,2.13-.75,2.88,2.88,0,0,1,1.79.31C1095,700.86,1095.15,701.22,1095,701.63Z"/><path class="cls-3" d="M1109.36,701.3a5.81,5.81,0,0,0,0-.59v-2.44h-43.25v3.14h0c.19,3.05,2.29,6.06,6.32,8.38,8.44,4.88,22.14,4.88,30.59,0,4-2.32,6.12-5.33,6.31-8.38h0Z"/><ellipse class="cls-76" cx="1087.74" cy="697.88" rx="21.63" ry="12.49"/><path class="cls-5" d="M1095,693.92a7.61,7.61,0,0,0-3.27.53,1.77,1.77,0,0,0,.62-1.64,2.34,2.34,0,0,0-1.26-1.46,6.21,6.21,0,0,0-3.81-.69,10.68,10.68,0,0,0-3.79,1.16l-1.89-1.09-2.51,1.45,1.86,1.08-1.38.79-1.86-1.07-2.52,1.45,1.86,1.07-2.37,1.38,2.52,1.45,1.82-1.06,8.63,5-1.83,1.06,2.52,1.45,2.38-1.37,1.86,1.08,2.51-1.46-1.86-1.07,1.38-.79,1.86,1.07,2.51-1.45-1.87-1.08a4.8,4.8,0,0,0,2.31-2.49c.25-.93-.22-1.73-1.39-2.4A6.78,6.78,0,0,0,1095,693.92Zm-12.89,1.57,3-1.75a3.86,3.86,0,0,1,1.75-.58,2.67,2.67,0,0,1,1.59.34c.48.28.69.59.62.93s-.39.69-1,1l-3,1.76Zm13,2a2.59,2.59,0,0,1-1.28,1.25l-3,1.75-3.24-1.87,3-1.75a5.23,5.23,0,0,1,2.13-.76,2.88,2.88,0,0,1,1.79.32C1095,696.71,1095.15,697.06,1095,697.47Z"/><path class="cls-3" d="M1109.36,697.06a5.81,5.81,0,0,0,0-.59V694h-43.25v3.14h0c.19,3.05,2.29,6.06,6.32,8.38,8.44,4.88,22.14,4.88,30.59,0,4-2.32,6.12-5.33,6.31-8.38h0Z"/><ellipse class="cls-77" cx="1087.74" cy="693.64" rx="21.63" ry="12.49"/><path class="cls-5" d="M1095,689.68a7.61,7.61,0,0,0-3.27.53,1.77,1.77,0,0,0,.62-1.64,2.34,2.34,0,0,0-1.26-1.46,6.21,6.21,0,0,0-3.81-.69,10.88,10.88,0,0,0-3.79,1.16l-1.89-1.09-2.51,1.46,1.86,1.07-1.38.79-1.86-1.07-2.52,1.45,1.86,1.08-2.37,1.37,2.52,1.45L1079,693l8.63,5-1.83,1.05,2.52,1.46,2.38-1.38,1.86,1.08,2.51-1.46-1.86-1.07,1.38-.79,1.86,1.07,2.51-1.45-1.87-1.08a4.8,4.8,0,0,0,2.31-2.49c.25-.93-.22-1.73-1.39-2.4A6.78,6.78,0,0,0,1095,689.68Zm-12.89,1.58,3-1.76a3.86,3.86,0,0,1,1.75-.58,2.74,2.74,0,0,1,1.59.34c.48.28.69.59.62.94s-.39.68-1,1l-3,1.76Zm13,2a2.59,2.59,0,0,1-1.28,1.25l-3,1.76-3.24-1.87,3-1.76a5.23,5.23,0,0,1,2.13-.76,2.88,2.88,0,0,1,1.79.32C1095,692.47,1095.15,692.82,1095,693.23Z"/><path class="cls-3" d="M1109.36,692.6a5.61,5.61,0,0,0,0-.58v-2.44h-43.25v3.14h0c.19,3,2.29,6.06,6.32,8.38,8.44,4.88,22.14,4.88,30.59,0,4-2.32,6.12-5.33,6.31-8.38h0Z"/><ellipse class="cls-78" cx="1087.74" cy="689.19" rx="21.63" ry="12.49"/><path class="cls-5" d="M1095,685.23a7.61,7.61,0,0,0-3.27.53,1.77,1.77,0,0,0,.62-1.64,2.34,2.34,0,0,0-1.26-1.46,6.21,6.21,0,0,0-3.81-.69,10.68,10.68,0,0,0-3.79,1.16l-1.89-1.09-2.51,1.45,1.86,1.08-1.38.79-1.86-1.07-2.52,1.45,1.86,1.07-2.37,1.38,2.52,1.45,1.82-1.06,8.63,5-1.83,1.06,2.52,1.45,2.38-1.37,1.86,1.08,2.51-1.46-1.86-1.07,1.38-.8,1.86,1.08,2.51-1.45-1.87-1.08a4.8,4.8,0,0,0,2.31-2.49c.25-.93-.22-1.73-1.39-2.41A6.9,6.9,0,0,0,1095,685.23Zm-12.89,1.57,3-1.75a3.86,3.86,0,0,1,1.75-.58,2.67,2.67,0,0,1,1.59.34c.48.28.69.59.62.93s-.39.69-1,1l-3,1.76Zm13,2a2.59,2.59,0,0,1-1.28,1.25l-3,1.75-3.24-1.87,3-1.75a5.23,5.23,0,0,1,2.13-.76,2.88,2.88,0,0,1,1.79.32C1095,688,1095.15,688.37,1095,688.78Z"/><path class="cls-3" d="M1150.74,709.75a5.61,5.61,0,0,0,0-.58v-2.44H1107.5v3.14h0c.19,3,2.28,6,6.31,8.38,8.45,4.87,22.14,4.87,30.59,0,4-2.33,6.12-5.34,6.31-8.38h0Z"/><ellipse class="cls-79" cx="1129.13" cy="706.34" rx="21.63" ry="12.49"/><path class="cls-5" d="M1136.35,702.38a7.81,7.81,0,0,0-3.27.52,1.75,1.75,0,0,0,.63-1.63,2.38,2.38,0,0,0-1.27-1.47,6.25,6.25,0,0,0-3.81-.68,10.71,10.71,0,0,0-3.79,1.15l-1.88-1.08-2.52,1.45,1.86,1.07-1.38.8-1.86-1.08-2.51,1.46,1.86,1.07-2.38,1.37,2.52,1.46,1.83-1.06,8.62,5-1.82,1.06,2.51,1.45,2.38-1.37,1.86,1.07,2.52-1.45-1.86-1.07,1.37-.8,1.86,1.08,2.52-1.46-1.87-1.08a4.74,4.74,0,0,0,2.3-2.49q.38-1.38-1.38-2.4A6.68,6.68,0,0,0,1136.35,702.38ZM1123.46,704l3-1.76a3.91,3.91,0,0,1,1.74-.58,2.75,2.75,0,0,1,1.59.35c.48.27.69.59.63.93s-.39.69-1,1l-3,1.76Zm13,2c-.12.41-.55.82-1.28,1.24l-3,1.76-3.24-1.87,3-1.76a5.3,5.3,0,0,1,2.13-.75,2.93,2.93,0,0,1,1.8.31C1136.34,705.16,1136.53,705.52,1136.41,705.93Z"/><path class="cls-3" d="M1150.74,705.3a5.61,5.61,0,0,0,0-.58v-2.44H1107.5v3.14h0c.19,3,2.28,6.05,6.31,8.37,8.45,4.88,22.14,4.88,30.59,0,4-2.32,6.12-5.33,6.31-8.37h0Z"/><ellipse class="cls-80" cx="1129.13" cy="701.89" rx="21.63" ry="12.49"/><path class="cls-5" d="M1136.35,697.93a7.65,7.65,0,0,0-3.27.52,1.76,1.76,0,0,0,.63-1.63,2.35,2.35,0,0,0-1.27-1.47,6.18,6.18,0,0,0-3.81-.69,11,11,0,0,0-3.79,1.16l-1.88-1.08-2.52,1.45,1.86,1.07-1.38.8-1.86-1.08-2.51,1.45,1.86,1.08-2.38,1.37,2.52,1.45,1.83-1.05,8.62,5-1.82,1,2.51,1.46,2.38-1.37,1.86,1.07,2.52-1.45-1.86-1.08,1.37-.79,1.86,1.07,2.52-1.45-1.87-1.08a4.81,4.81,0,0,0,2.3-2.49q.38-1.38-1.38-2.4A6.68,6.68,0,0,0,1136.35,697.93Zm-12.89,1.57,3-1.76a3.91,3.91,0,0,1,1.74-.58,2.74,2.74,0,0,1,1.59.34c.48.28.69.59.63.94s-.39.69-1,1l-3,1.76Zm13,2c-.12.41-.55.82-1.28,1.24l-3,1.76-3.24-1.87,3-1.76a5.16,5.16,0,0,1,2.13-.75,2.93,2.93,0,0,1,1.8.31C1136.34,700.71,1136.53,701.07,1136.41,701.48Z"/><path class="cls-3" d="M1146.83,662.52c0-.19,0-.39,0-.58V659.5h-43.25v3.14h0c.19,3,2.29,6.05,6.31,8.38,8.45,4.87,22.15,4.87,30.6,0,4-2.33,6.12-5.34,6.31-8.38h0Z"/><ellipse class="cls-81" cx="1125.21" cy="659.11" rx="21.63" ry="12.49"/><path class="cls-5" d="M1132.44,655.15a7.6,7.6,0,0,0-3.27.52,1.75,1.75,0,0,0,.62-1.63,2.35,2.35,0,0,0-1.27-1.47,6.17,6.17,0,0,0-3.8-.68,10.76,10.76,0,0,0-3.8,1.15L1119,652l-2.52,1.45,1.86,1.07-1.37.8-1.86-1.08-2.52,1.46,1.86,1.07-2.37,1.37,2.51,1.45,1.83-1,8.63,5-1.83,1.06,2.52,1.45,2.37-1.37,1.86,1.07,2.52-1.45-1.86-1.07,1.38-.8,1.85,1.07,2.52-1.45-1.87-1.08a4.89,4.89,0,0,0,2.31-2.49c.24-.92-.22-1.72-1.39-2.4A6.68,6.68,0,0,0,1132.44,655.15Zm-12.9,1.57,3-1.76a3.9,3.9,0,0,1,1.75-.58,2.67,2.67,0,0,1,1.59.35c.48.27.69.59.62.93s-.39.69-1,1l-3,1.75Zm13,2a2.54,2.54,0,0,1-1.27,1.24l-3,1.76-3.24-1.87,3-1.76a5.07,5.07,0,0,1,2.12-.75,2.9,2.9,0,0,1,1.8.31C1132.42,657.93,1132.62,658.29,1132.49,658.7Z"/><path class="cls-3" d="M1146.83,658.28c0-.19,0-.39,0-.58v-2.44h-43.25v3.14h0c.19,3,2.29,6.06,6.31,8.38,8.45,4.88,22.15,4.88,30.6,0,4-2.32,6.12-5.34,6.31-8.38h0Z"/><ellipse class="cls-82" cx="1125.21" cy="654.87" rx="21.63" ry="12.49"/><path class="cls-5" d="M1132.44,650.91a7.75,7.75,0,0,0-3.27.52,1.74,1.74,0,0,0,.62-1.63,2.34,2.34,0,0,0-1.27-1.46,6.17,6.17,0,0,0-3.8-.69,10.79,10.79,0,0,0-3.8,1.16l-1.88-1.09-2.52,1.45,1.86,1.08L1117,651l-1.86-1.07-2.52,1.45,1.86,1.07-2.37,1.37,2.51,1.46,1.83-1.06,8.63,5-1.83,1.06,2.52,1.45,2.37-1.37,1.86,1.07,2.52-1.45-1.86-1.07,1.38-.8,1.85,1.08,2.52-1.46-1.87-1.08a4.81,4.81,0,0,0,2.31-2.49c.24-.92-.22-1.72-1.39-2.4A6.81,6.81,0,0,0,1132.44,650.91Zm-12.9,1.57,3-1.76a4,4,0,0,1,1.75-.58,2.75,2.75,0,0,1,1.59.35c.48.28.69.59.62.93s-.39.69-1,1l-3,1.76Zm13,2a2.54,2.54,0,0,1-1.27,1.24l-3,1.76-3.24-1.87,3-1.76a5.21,5.21,0,0,1,2.12-.75,2.9,2.9,0,0,1,1.8.31C1132.42,653.7,1132.62,654.05,1132.49,654.46Z"/><path class="cls-83" d="M1179.81,646v72.14a5.23,5.23,0,0,1,0,.56v.2h0c-.2,1.85-1.63,3.76-4.26,5.27L1119,756.8c-5.19,3-13,3.32-17.52.72l-59.56-34.38c-2-1.17-3-2.74-3-4.37V646.22a5.36,5.36,0,0,0,3,4.09l59.56,34.39c4.49,2.59,12.33,2.26,17.52-.73l56.57-32.67C1178.2,649.77,1179.64,647.84,1179.81,646Z"/><path class="cls-84" d="M1179.81,646c-.16,1.87-1.61,3.81-4.27,5.35L1119,684c-5.18,3-13,3.32-17.52.72l-59.56-34.38a5.37,5.37,0,0,1-3-4.09v-.49a1.21,1.21,0,0,1,0-.19c.17-1.88,1.61-3.82,4.27-5.35l16.67-9.62,3.73-2.15,36.17-20.89c5.19-3,13-3.32,17.52-.72l38,21.93,4,2.3,17.59,10.15C1179,642.45,1180,644.18,1179.81,646Z"/><path class="cls-85" d="M1213.16,366.46l-5.1-2.95-111.94-64.63c-10.73-6.19-26.95-6.86-36.24-1.49L944.36,364.08l-7.71,4.45c-9.28,5.36-8.12,14.72,2.61,20.92l117,67.57c10.72,6.19,27,6.86,36.24,1.51l123.21-71.15C1225.05,382,1223.87,372.65,1213.16,366.46Z"/><path class="cls-86" d="M1208.06,363.51l-111.94-64.63c-10.73-6.19-26.95-6.86-36.24-1.49L944.36,364.08l111.94,64.63c10.72,6.19,27,6.86,36.24,1.49Z"/><circle class="cls-87" cx="1038.87" cy="547.27" r="8.3"/><circle class="cls-88" cx="1033.8" cy="624.22" r="8.3"/><circle class="cls-89" cx="1063.83" cy="656.45" r="8.3"/><circle class="cls-90" cx="938.59" cy="557.33" r="5.33"/><circle class="cls-91" cx="989.58" cy="540.41" r="5.33"/><circle class="cls-92" cx="948.79" cy="496.37" r="5.33"/><circle class="cls-93" cx="970.58" cy="417.34" r="5.33"/><circle class="cls-94" cx="989.81" cy="463.93" r="5.33"/><circle class="cls-95" cx="960.84" cy="599.51" r="5.33"/><circle class="cls-96" cx="963.39" cy="695.46" r="5.33"/><circle class="cls-97" cx="1097.12" cy="612.26" r="5.33"/><circle class="cls-98" cx="1152.45" cy="602.73" r="5.33"/><circle class="cls-99" cx="1110.74" cy="528.16" r="5.33"/><circle class="cls-100" cx="1179.63" cy="563.36" r="5.33"/><circle class="cls-101" cx="1159.7" cy="535.31" r="5.33"/><circle class="cls-102" cx="1187.75" cy="513.99" r="5.33"/><circle class="cls-103" cx="1171.75" cy="452.8" r="5.33"/><circle class="cls-104" cx="1200.96" cy="567.53" r="5.33"/><circle class="cls-105" cx="1054.89" cy="526.03" r="8.3"/><circle class="cls-106" cx="1039.24" cy="483.55" r="8.3"/><circle class="cls-107" cx="1063.8" cy="485.69" r="5.64"/><circle class="cls-108" cx="1049.33" cy="434.96" r="5.64"/><circle class="cls-109" cx="1052.05" cy="584.77" r="5.64"/><circle class="cls-110" cx="1089.33" cy="645.55" r="5.64"/><circle class="cls-111" cx="1069.8" cy="455.6" r="8.3"/><circle class="cls-112" cx="1066.07" cy="424.68" r="8.3"/><path class="cls-113" d="M1309.44,406.28a16,16,0,0,0,0-1.83V160.82H836.33V406.63c0,5.51,3.34,10.76,10.14,14.69L1046.4,536.75c15.08,8.71,41.4,7.61,58.81-2.43l189.9-109.64c8.8-5.08,13.62-11.48,14.3-17.69h0Z"/><path class="cls-114" d="M1309.44,162.22c-.56,6.3-5.41,12.81-14.34,18L1105.2,289.82c-17.4,10-43.73,11.14-58.8,2.44L846.47,176.83c-6.4-3.7-9.74-8.57-10.14-13.71v-1.66a2.77,2.77,0,0,1,0-.64c.56-6.29,5.4-12.81,14.34-17.95l55.95-32.3,12.5-7.22,121.43-70.11c17.42-10.06,43.74-11.14,58.81-2.44L1227,104.44l13.33,7.7,59,34.09C1306.68,150.46,1310,156.25,1309.44,162.22Z"/><g class="cls-115"><path class="cls-116" d="M748.11,486.21a17.72,17.72,0,0,1-9.36-32.78L930.91,334.21a17.72,17.72,0,1,1,18.69,30.12L757.43,483.55A17.68,17.68,0,0,1,748.11,486.21Z"/></g><circle class="cls-5" cx="939.37" cy="349.25" r="18.31"/><circle class="cls-117" cx="879.82" cy="385.81" r="18.31"/><circle class="cls-118" cx="824.94" cy="419.47" r="18.31"/><polygon class="cls-119" points="948.72 364.95 758.07 484.11 738.11 452.86 929.45 333.82 948.72 364.95"/><path class="cls-120" d="M944.83,626.26a12.42,12.42,0,0,0,0-1.83V380.8H471.72V626.61c0,5.51,3.34,10.76,10.15,14.69L681.8,756.73c15.07,8.71,41.4,7.61,58.8-2.43L930.5,644.66c8.81-5.08,13.62-11.48,14.3-17.69h0Z"/><path class="cls-121" d="M944.84,382.2c-.56,6.3-5.42,12.81-14.34,18L740.6,509.8c-17.41,10-43.74,11.15-58.81,2.44L481.86,396.82c-6.4-3.71-9.74-8.58-10.14-13.72v-1.66a2.79,2.79,0,0,1,0-.64c.56-6.29,5.39-12.81,14.34-17.95L542,330.55l12.51-7.22L676,253.22c17.42-10.06,43.73-11.14,58.81-2.44l127.56,73.64,13.33,7.7,59.05,34.09C942.07,370.44,945.38,376.23,944.84,382.2Z"/><g class="cls-115"><path class="cls-122" d="M383.5,706.19a17.72,17.72,0,0,1-9.36-32.78L566.31,554.19A17.72,17.72,0,0,1,585,584.31L392.83,703.53A17.69,17.69,0,0,1,383.5,706.19Z"/></g><circle class="cls-5" cx="574.77" cy="569.23" r="18.31"/><circle class="cls-117" cx="515.21" cy="605.79" r="18.31"/><circle class="cls-118" cx="460.33" cy="639.45" r="18.31"/><polygon class="cls-123" points="584.12 584.93 393.46 704.09 373.5 672.84 564.84 553.8 584.12 584.93"/><path class="cls-124" d="M579.07,846.94a12.42,12.42,0,0,0,0-1.83V601.48H106V847.29c0,5.51,3.34,10.77,10.15,14.69L316,977.41c15.07,8.71,41.4,7.62,58.81-2.43L564.74,865.34c8.81-5.08,13.62-11.48,14.3-17.69h0Z"/><path class="cls-125" d="M579.08,602.89c-.56,6.29-5.42,12.8-14.34,18L374.84,730.48c-17.4,10-43.73,11.15-58.81,2.44L116.11,617.5c-6.41-3.71-9.74-8.58-10.14-13.72v-1.66a2.77,2.77,0,0,1,0-.64c.56-6.29,5.39-12.8,14.34-18l55.95-32.3,12.5-7.22L310.22,473.9c17.42-10.06,43.73-11.14,58.81-2.44L496.59,545.1l13.33,7.7L569,586.89C576.31,591.12,579.62,596.91,579.08,602.89Z"/><g class="cls-115"><path class="cls-126" d="M17.74,926.87a17.72,17.72,0,0,1-9.36-32.78L200.55,774.87A17.72,17.72,0,0,1,219.24,805L27.07,924.21A17.69,17.69,0,0,1,17.74,926.87Z"/></g><circle class="cls-5" cx="209.01" cy="789.91" r="18.31"/><circle class="cls-117" cx="149.45" cy="826.47" r="18.31"/><circle class="cls-118" cx="94.57" cy="860.13" r="18.31"/><polygon class="cls-127" points="218.36 805.61 27.71 924.77 7.74 893.53 199.08 774.48 218.36 805.61"/><path class="cls-3" d="M622.56,1234.2l-.82,6.6c-.49,4.25-3.79,8.15-9.78,10.69-12,5-30.07,2.75-40.48-5.12-5.23-4-7.52-8.57-7-12.82l.82-6.56,1.36.17a18,18,0,0,1,7.78-5.71c11.94-5,30.06-2.76,40.47,5.11a18.64,18.64,0,0,1,6.21,7.47Z"/><ellipse class="cls-128" cx="593.94" cy="1230.56" rx="16.65" ry="28.85" transform="translate(-702.96 1660.78) rotate(-82.59)"/><path class="cls-5" d="M608.8,1237.5l-2.51,1.06-3.57-2.7-1.88.79c-.14.06,0,.13.07.19l3.39,2.56-2.51,1.06-3.63-2.75-5,2.11-.08,0-2-2c-.1-.1,0-.13.09-.17l1.53-.65c.7-.3.74-.67.12-1.13l-9.38-7.1a2.56,2.56,0,0,0-2.41-.35c-.43.16-.84.34-1.26.5l-.75.32-2.32-1.75,5-2.12-3.57-2.69,2.51-1.06,3.33,2.52a.31.31,0,0,0,.36.05c.42-.2.85-.38,1.28-.57.16-.07.33-.13.47-.2,0,0,0,0,0-.06l-3.4-2.58,2.51-1.06.21.17,3,2.28c.35.26.35.26.79.12a17.41,17.41,0,0,1,3.93-.84,8.83,8.83,0,0,1,4,.5,7.91,7.91,0,0,1,2.28,1.38c1.05.91,1.32,1.83.76,2.76l-.13.21h.19c.57-.08,1.12-.19,1.71-.22a8.07,8.07,0,0,1,4.08.72,8.22,8.22,0,0,1,2.84,2.23,2.49,2.49,0,0,1,.68,2.22,3.94,3.94,0,0,1-1.82,2.14c-.72.48-1.54.9-2.34,1.33-.17.1-.17.16,0,.28s.58.43.87.65Zm-10.67-2.82c.77-.33,1.52-.63,2.24-1a8.66,8.66,0,0,0,2.5-1.56c.41-.39.72-.82.56-1.34-.29-1-1.86-1.78-3.54-1.74a9.7,9.7,0,0,0-3.27.64c-1,.38-2,.81-3,1.21-.22.09-.23.15,0,.3,1.46,1.08,2.89,2.18,4.34,3.27Zm-9.16-6.93,2,1.52a.28.28,0,0,0,.34.07,14.85,14.85,0,0,0,3.49-1.79,1.47,1.47,0,0,0,.7-1.34c-.12-.79-1.49-1.59-2.84-1.69a7.11,7.11,0,0,0-2.89.41c-1,.33-1.86.73-2.8,1.09-.18.07-.13.14,0,.23Z"/><path class="cls-3" d="M886.4,1425.28l3.11,7.56c2.06,4.84.89,11-4,17.35-9.73,12.62-30.5,21.14-46.4,19-8-1.06-13.22-4.61-15.22-9.49l-3.1-7.51,1.56-.64a22.28,22.28,0,0,1,4.86-10.82c9.73-12.63,30.5-21.15,46.39-19a22.88,22.88,0,0,1,11.16,4.23Z"/><ellipse class="cls-129" cx="853.58" cy="1438.7" rx="35.45" ry="20.47" transform="translate(-478.37 426.59) rotate(-22.09)"/><path class="cls-5" d="M873.67,1437.14l-2,2.65-5.46-.73-1.52,2c-.12.16.06.15.18.16l5.18.69-2,2.65-5.55-.74-4.06,5.28h-.11l-3.31-1c-.17,0-.09-.13,0-.24l1.25-1.62c.57-.74.39-1.16-.56-1.28L841.3,1443a3.19,3.19,0,0,0-2.8,1.09c-.36.43-.7.87-1,1.3-.21.26-.41.53-.61.79l-3.54-.47,4.07-5.29-5.45-.72,2.05-2.66,5.08.69a.37.37,0,0,0,.42-.17l1-1.38.38-.5-.09,0-5.2-.7,2-2.65.33.06,4.61.61c.52.07.52.07.91-.35a20.86,20.86,0,0,1,3.7-3.28,10.65,10.65,0,0,1,4.55-1.86,9.81,9.81,0,0,1,3.27.08c1.68.34,2.52,1.17,2.49,2.5,0,.09,0,.18,0,.31l.19-.13c.56-.43,1.09-.88,1.7-1.28a9.79,9.79,0,0,1,4.8-1.69,10.11,10.11,0,0,1,4.39.66,3.08,3.08,0,0,1,2.07,2,4.83,4.83,0,0,1-.65,3.39c-.48,1-1.11,1.89-1.7,2.84-.12.21-.09.27.16.3.45,0,.89.11,1.33.17Zm-13.12,3.43c.63-.81,1.25-1.59,1.82-2.37a10.78,10.78,0,0,0,1.74-3.18,1.64,1.64,0,0,0-.21-1.77c-.93-.89-3.07-.78-4.85.28a12.29,12.29,0,0,0-3.11,2.66c-.87,1-1.65,2.08-2.49,3.12-.18.23-.15.3.14.34l6.62.88Zm-14-1.86,3.08.41a.37.37,0,0,0,.41-.14,18.15,18.15,0,0,0,2.64-4,1.78,1.78,0,0,0-.06-1.86c-.6-.77-2.55-.8-4.06-.09a8.59,8.59,0,0,0-2.84,2.19c-.83.94-1.55,1.9-2.33,2.86-.15.18,0,.22.14.25Z"/><path class="cls-3" d="M805.39,1489.4l-.83,8.13c-.48,5.24-4.43,10.12-11.73,13.4-14.54,6.53-36.87,4.21-49.87-5.18-6.54-4.71-9.47-10.32-8.93-15.55l.82-8.08,1.68.17a22.22,22.22,0,0,1,9.4-7.24c14.54-6.53,36.87-4.21,49.88,5.17a22.78,22.78,0,0,1,7.82,9Z"/><ellipse class="cls-130" cx="770.13" cy="1485.71" rx="20.47" ry="35.45" transform="translate(-789.32 2092.79) rotate(-83.87)"/><path class="cls-5" d="M788.57,1493.83l-3.06,1.37-4.46-3.22-2.28,1c-.18.08,0,.15.09.22l4.23,3.06-3.05,1.37-4.54-3.28-6.07,2.73-.1,0-2.45-2.43c-.13-.12,0-.16.1-.21l1.87-.84c.85-.38.89-.84.12-1.39l-11.72-8.46a3.13,3.13,0,0,0-3-.36c-.52.2-1,.43-1.53.65l-.91.41-2.9-2.1,6.09-2.73-4.46-3.22,3.06-1.37q2.07,1.52,4.16,3a.36.36,0,0,0,.45,0l1.55-.73.58-.26c-.05,0-.05-.07-.07-.08l-4.25-3.07,3.05-1.37.27.2,3.77,2.72c.43.31.42.31,1,.12a21.63,21.63,0,0,1,4.8-1.14,10.73,10.73,0,0,1,4.9.52,9.56,9.56,0,0,1,2.84,1.62c1.32,1.09,1.67,2.22,1,3.38l-.15.26.23,0c.7-.1,1.38-.25,2.1-.31a9.76,9.76,0,0,1,5,.78,10.14,10.14,0,0,1,3.56,2.65,3.13,3.13,0,0,1,.89,2.72,4.89,4.89,0,0,1-2.18,2.68c-.87.6-1.87,1.14-2.84,1.7-.21.12-.21.19,0,.33.38.26.73.52,1.09.78Zm-13.19-3.17c1-.43,1.86-.82,2.73-1.23a11.18,11.18,0,0,0,3-2c.48-.5.85-1,.65-1.66-.4-1.23-2.34-2.14-4.41-2a12.18,12.18,0,0,0-4,.87c-1.25.51-2.44,1.05-3.66,1.57-.27.12-.28.2,0,.37l5.42,3.9Zm-11.44-8.27,2.52,1.82a.34.34,0,0,0,.42.07,18,18,0,0,0,4.23-2.29,1.78,1.78,0,0,0,.83-1.67c-.17-1-1.87-1.91-3.53-2a8.63,8.63,0,0,0-3.55.58c-1.17.43-2.26.95-3.4,1.42-.22.09-.15.17,0,.28Z"/><path class="cls-3" d="M352.72,1555.81l-5,4.83c-3.2,3.15-8.46,4.16-15,2.27-13.06-3.77-26.32-17.58-29.61-30.85-1.66-6.67-.48-11.94,2.76-15l5-4.81,1,1a18.88,18.88,0,0,1,10.11.47c13.06,3.76,26.32,17.57,29.62,30.84a19.45,19.45,0,0,1,.13,10.18Z"/><ellipse class="cls-131" cx="331.8" cy="1533.98" rx="17.46" ry="30.24" transform="translate(-966.75 652.53) rotate(-43.63)"/><path class="cls-5" d="M339.33,1549.42l-2.75-.79-1.13-4.55-2-.59c-.17,0-.1.1-.08.19l1.08,4.33-2.74-.79-1.15-4.64-5.46-1.57,0-.08c-.08-1-.16-2-.25-2.93,0-.15.08-.11.18-.08l1.68.48c.77.22,1-.06.85-.84l-3-12a2.73,2.73,0,0,0-1.75-1.88c-.45-.15-.9-.28-1.35-.41-.27-.09-.54-.16-.82-.24l-.73-3,5.47,1.58-1.13-4.55,2.74.79c.35,1.42.71,2.83,1.05,4.25a.32.32,0,0,0,.27.28l1.41.38.52.15c0-.06,0-.07,0-.09-.36-1.45-.71-2.9-1.07-4.35l2.74.79.06.29c.32,1.28.64,2.56.95,3.84.11.44.11.44.57.62a18.21,18.21,0,0,1,3.76,1.9,9.16,9.16,0,0,1,2.9,3,8.17,8.17,0,0,1,1,2.61c.26,1.44-.14,2.37-1.2,2.76l-.25.09.16.11c.52.31,1,.59,1.54,1a8.32,8.32,0,0,1,2.85,3.28,8.58,8.58,0,0,1,.85,3.69,2.62,2.62,0,0,1-.91,2.25,4.12,4.12,0,0,1-2.89.55c-.9-.08-1.86-.29-2.79-.46-.2,0-.24,0-.19.22.11.37.19.74.28,1.11C338.78,1547.26,339.06,1548.34,339.33,1549.42Zm-6.84-9.33c.85.25,1.66.5,2.45.7a9,9,0,0,0,3.07.39c.59,0,1.12-.2,1.34-.72.42-1-.34-2.68-1.74-3.76a10.43,10.43,0,0,0-3.09-1.64c-1.08-.36-2.16-.66-3.24-1-.24-.08-.29,0-.23.22q.69,2.76,1.37,5.52Zm-2.89-11.68.63,2.57a.3.3,0,0,0,.24.28,15.45,15.45,0,0,0,4,.84,1.51,1.51,0,0,0,1.45-.63c.43-.72-.16-2.28-1.2-3.25a7.55,7.55,0,0,0-2.62-1.57c-1-.37-2-.63-3-1-.19-.06-.19,0-.15.19Z"/><g class="cls-132"><rect class="cls-133" x="248.37" y="1853.66" width="35.81" height="145.38" transform="translate(276.32 -18.29) rotate(8.17)"/></g><g class="cls-134"><path class="cls-3" d="M279.5,2017.15l-5,4.83c-3.19,3.15-8.45,4.15-15,2.27-13.06-3.77-26.32-17.58-29.62-30.85-1.65-6.67-.48-11.94,2.76-15.05l5-4.81,1,1a18.89,18.89,0,0,1,10.11.47c13.06,3.76,26.32,17.57,29.61,30.84a19.46,19.46,0,0,1,.14,10.18Z"/><ellipse class="cls-135" cx="258.58" cy="1995.32" rx="17.46" ry="30.24" transform="translate(-1305.27 729.41) rotate(-43.63)"/><path class="cls-5" d="M266.11,2010.76l-2.74-.79-1.13-4.55-2.05-.59c-.16,0-.09.1-.07.19.36,1.44.72,2.89,1.07,4.33l-2.74-.79-1.15-4.64-5.45-1.57,0-.08c-.09-1-.17-2-.26-2.93,0-.15.08-.11.19-.08l1.67.48c.77.22,1.05-.06.85-.84l-3-12a2.69,2.69,0,0,0-1.74-1.88c-.45-.15-.9-.28-1.35-.41l-.82-.24-.74-3,5.47,1.58-1.13-4.55,2.75.79,1.05,4.25a.31.31,0,0,0,.27.28l1.41.38.51.15a.44.44,0,0,0,0-.09l-1.08-4.35,2.75.79c0,.1,0,.19.06.29.31,1.28.63,2.56,1,3.84.11.44.11.44.57.62a17.89,17.89,0,0,1,3.75,1.9,9.26,9.26,0,0,1,2.91,3,8.27,8.27,0,0,1,.95,2.62c.26,1.44-.13,2.37-1.2,2.76l-.24.09.16.11c.51.31,1,.59,1.54,1a8.29,8.29,0,0,1,2.84,3.28,8.56,8.56,0,0,1,.86,3.68,2.64,2.64,0,0,1-.92,2.26,4.12,4.12,0,0,1-2.89.55c-.9-.08-1.85-.29-2.79-.46-.2,0-.24,0-.18.22.1.37.18.74.28,1.11Zm-6.83-9.33c.85.25,1.65.5,2.45.7a9.18,9.18,0,0,0,3.07.39c.59,0,1.12-.2,1.34-.72.42-1-.35-2.68-1.74-3.76a10.43,10.43,0,0,0-3.09-1.64c-1.09-.36-2.16-.66-3.25-1-.24-.08-.29,0-.23.21.47,1.85.92,3.69,1.38,5.53Zm-2.9-11.68c.21.86.43,1.71.64,2.57a.3.3,0,0,0,.24.28,15.37,15.37,0,0,0,4,.84,1.52,1.52,0,0,0,1.45-.63c.42-.72-.17-2.28-1.2-3.25a7.5,7.5,0,0,0-2.63-1.57c-1-.37-2-.63-3-1-.2-.06-.2,0-.16.19C256,1988.07,256.17,1988.91,256.38,1989.75Z"/></g></svg>