<svg id="Layer_1" data-name="Layer 1" xmlns="http://www.w3.org/2000/svg" xmlns:xlink="http://www.w3.org/1999/xlink" viewBox="0 0 1049.25 1077.26"><defs><style>.cls-1{fill:url(#linear-gradient);}.cls-2{fill:url(#linear-gradient-2);}.cls-12,.cls-13,.cls-3,.cls-4,.cls-7,.cls-8{opacity:0.4;}.cls-3{fill:url(#New_Gradient_Swatch_copy_9);}.cls-4{fill:url(#New_Gradient_Swatch_copy_9-2);}.cls-5{fill:url(#linear-gradient-3);}.cls-6{fill:url(#linear-gradient-4);}.cls-7{fill:url(#New_Gradient_Swatch_copy_9-3);}.cls-8{fill:url(#New_Gradient_Swatch_copy_9-4);}.cls-9{fill:url(#linear-gradient-5);}.cls-10{fill:url(#linear-gradient-6);}.cls-11{fill:url(#linear-gradient-7);}.cls-12{fill:url(#New_Gradient_Swatch_copy_9-5);}.cls-13{fill:url(#New_Gradient_Swatch_copy_9-6);}.cls-14,.cls-15,.cls-16,.cls-17,.cls-18,.cls-19,.cls-20,.cls-22{fill-rule:evenodd;}.cls-14{fill:url(#New_Gradient_Swatch_copy_9-7);}.cls-15{fill:url(#New_Gradient_Swatch_copy_9-8);}.cls-16{fill:#616d7d;}.cls-17{fill:url(#bitcoin-face);}.cls-18{fill:url(#bitcoin-face-2);}.cls-19{fill:#e39900;}.cls-20{fill:#eab213;}.cls-21{fill:#ffdc4f;}.cls-22,.cls-23,.cls-24,.cls-25{fill:none;stroke-miterlimit:10;}.cls-22{stroke:#ffdc4f;opacity:0.67;}.cls-23,.cls-24,.cls-25{stroke:#ecd024;}.cls-23{opacity:0.39;}.cls-24{opacity:0.8;}.cls-25{opacity:0.58;}</style><linearGradient id="linear-gradient" x1="588.8" y1="370.73" x2="852.22" y2="389.22" gradientUnits="userSpaceOnUse"><stop offset="0.25" stop-color="#616d7d"/><stop offset="1" stop-color="#2f3640"/></linearGradient><linearGradient id="linear-gradient-2" x1="871.61" y1="336.31" x2="504.21" y2="232.33" gradientUnits="userSpaceOnUse"><stop offset="0" stop-color="#8aa7b7"/><stop offset="0.33" stop-color="#798f9f"/><stop offset="0.75" stop-color="#677686"/><stop offset="1" stop-color="#616d7d"/></linearGradient><linearGradient id="New_Gradient_Swatch_copy_9" x1="552.07" y1="372.96" x2="898.44" y2="397.27" gradientUnits="userSpaceOnUse"><stop offset="0" stop-color="#616d7d"/><stop offset="1" stop-color="#2f3640"/></linearGradient><linearGradient id="New_Gradient_Swatch_copy_9-2" x1="923.94" y1="327.7" x2="440.84" y2="190.98" xlink:href="#New_Gradient_Swatch_copy_9"/><linearGradient id="linear-gradient-3" x1="371.17" y1="494.62" x2="634.6" y2="513.11" xlink:href="#linear-gradient"/><linearGradient id="linear-gradient-4" x1="653.99" y1="460.2" x2="286.58" y2="356.22" xlink:href="#linear-gradient-2"/><linearGradient id="New_Gradient_Swatch_copy_9-3" x1="334.45" y1="496.85" x2="680.82" y2="521.15" xlink:href="#New_Gradient_Swatch_copy_9"/><linearGradient id="New_Gradient_Swatch_copy_9-4" x1="706.32" y1="451.59" x2="223.22" y2="314.86" xlink:href="#New_Gradient_Swatch_copy_9"/><linearGradient id="linear-gradient-5" x1="534.52" y1="389.44" x2="534.25" y2="389.39" gradientUnits="userSpaceOnUse"><stop offset="0" stop-color="#846bff"/><stop offset="1" stop-color="#7a0be2"/></linearGradient><linearGradient id="linear-gradient-6" x1="153.04" y1="622.05" x2="416.46" y2="640.54" xlink:href="#linear-gradient"/><linearGradient id="linear-gradient-7" x1="435.85" y1="587.63" x2="68.44" y2="483.65" xlink:href="#linear-gradient-2"/><linearGradient id="New_Gradient_Swatch_copy_9-5" x1="116.31" y1="624.28" x2="462.68" y2="648.58" xlink:href="#New_Gradient_Swatch_copy_9"/><linearGradient id="New_Gradient_Swatch_copy_9-6" x1="488.18" y1="579.02" x2="5.08" y2="442.29" xlink:href="#New_Gradient_Swatch_copy_9"/><linearGradient id="New_Gradient_Swatch_copy_9-7" x1="344.31" y1="579.57" x2="823.24" y2="579.57" xlink:href="#New_Gradient_Swatch_copy_9"/><linearGradient id="New_Gradient_Swatch_copy_9-8" x1="435.61" y1="745.09" x2="371.76" y2="855.7" xlink:href="#New_Gradient_Swatch_copy_9"/><linearGradient id="bitcoin-face" x1="580.13" y1="880.07" x2="805.3" y2="490.05" gradientUnits="userSpaceOnUse"><stop offset="0" stop-color="#e4ab00"/><stop offset="0.14" stop-color="#e5ae07"/><stop offset="0.33" stop-color="#e7b61a"/><stop offset="0.56" stop-color="#eac439"/><stop offset="0.82" stop-color="#eed664"/><stop offset="1" stop-color="#f1e586"/></linearGradient><linearGradient id="bitcoin-face-2" x1="414.71" y1="752.75" x2="634.04" y2="372.86" xlink:href="#bitcoin-face"/></defs><title>lightning_usecase_2</title><path class="cls-1" d="M821.47,289.63V408.45q0,.45,0,.9v.34h0c-.33,3.05-2.69,6.19-7,8.69l-93.16,53.77c-8.53,4.94-21.44,5.46-28.85,1.2l-98.07-56.62c-3.33-1.93-5-4.51-5-7.21V290.06c.19,2.53,1.84,4.92,5,6.73l98.07,56.62c7.41,4.27,20.32,3.73,28.85-1.19l93.16-53.79C818.82,295.9,821.18,292.72,821.47,289.63Z"/><path class="cls-2" d="M821.47,289.62c-.28,3.09-2.66,6.28-7,8.81l-93.15,53.78c-8.54,4.93-21.46,5.47-28.85,1.2l-98.08-56.62c-3.14-1.82-4.78-4.21-5-6.73v-.82a1.67,1.67,0,0,1,0-.31c.27-3.08,2.65-6.28,7-8.8l27.45-15.85,6.13-3.54,59.57-34.39c8.55-4.94,21.46-5.47,28.85-1.2L781,261.27l6.54,3.78,29,16.72C820.11,283.85,821.73,286.69,821.47,289.62Z"/><path class="cls-3" d="M858,266.32V422.55a11.81,11.81,0,0,1,0,1.19v.44h0c-.44,4-3.55,8.14-9.24,11.42L726.26,506.31c-11.22,6.49-28.2,7.19-37.93,1.57l-129-74.45c-4.38-2.52-6.53-5.93-6.55-9.47V266.88c.26,3.32,2.43,6.47,6.55,8.86l129,74.45c9.73,5.61,26.71,4.89,37.93-1.58l122.49-70.72C854.52,274.56,857.63,270.38,858,266.32Z"/><path class="cls-4" d="M858,266.3c-.37,4.06-3.5,8.27-9.25,11.59l-122.5,70.72c-11.22,6.48-28.21,7.19-37.93,1.57l-129-74.45c-4.13-2.39-6.28-5.53-6.54-8.85v-1.07a1.91,1.91,0,0,1,0-.41c.36-4.06,3.48-8.26,9.25-11.58L598.19,233l8.06-4.66,78.33-45.22c11.24-6.49,28.21-7.19,37.93-1.58L804.8,229l8.6,5,38.09,22C856.22,258.71,858.36,262.45,858,266.3Z"/><path class="cls-5" d="M603.84,413.52V532.33a6.91,6.91,0,0,1,0,.91v.34h0c-.33,3-2.7,6.19-7,8.68L503.65,596c-8.54,4.93-21.45,5.46-28.85,1.19l-98.08-56.62c-3.33-1.92-5-4.51-5-7.2V414c.2,2.52,1.85,4.92,5,6.73L474.8,477.3c7.4,4.27,20.31,3.73,28.85-1.19l93.16-53.79C601.2,419.79,603.56,416.61,603.84,413.52Z"/><path class="cls-6" d="M603.84,413.51c-.27,3.09-2.65,6.28-7,8.81L503.65,476.1c-8.54,4.93-21.45,5.47-28.85,1.2l-98.08-56.62c-3.14-1.82-4.77-4.21-5-6.73v-.82a1.1,1.1,0,0,1,0-.31c.27-3.09,2.64-6.28,7-8.8l27.45-15.85,6.13-3.54L472,350.23c8.55-4.93,21.46-5.46,28.85-1.19l62.58,36.12,6.54,3.78,29,16.72C602.49,407.74,604.11,410.58,603.84,413.51Z"/><path class="cls-7" d="M640.38,390.21V546.44a11.81,11.81,0,0,1,0,1.19v.44h0c-.44,4-3.54,8.14-9.23,11.42L508.64,630.2c-11.23,6.49-28.2,7.18-37.94,1.57l-129-74.45c-4.37-2.53-6.52-5.93-6.54-9.47V390.77c.26,3.32,2.43,6.47,6.54,8.85l129,74.45c9.74,5.62,26.71,4.9,37.94-1.57l122.49-70.73C636.9,398.45,640,394.27,640.38,390.21Z"/><path class="cls-8" d="M640.38,390.19c-.36,4.06-3.49,8.26-9.25,11.59L508.64,472.5c-11.23,6.48-28.21,7.19-37.93,1.57l-129-74.45c-4.13-2.39-6.29-5.53-6.54-8.85V389.7a1.88,1.88,0,0,1,0-.41c.36-4.06,3.48-8.26,9.25-11.58l36.09-20.84,8.06-4.65L467,307c11.23-6.49,28.21-7.19,37.93-1.57l82.28,47.5,8.6,5,38.09,22C638.6,382.6,640.73,386.34,640.38,390.19Z"/><path class="cls-9" d="M534.47,389.12a4.43,4.43,0,0,0,0,.62v-.62Z"/><path class="cls-10" d="M385.71,541V659.76c0,.31,0,.61,0,.91V661h0c-.33,3.06-2.69,6.2-7,8.69l-93.16,53.78c-8.54,4.93-21.45,5.46-28.85,1.19L158.59,668c-3.33-1.92-5-4.51-5-7.2V541.38c.19,2.52,1.84,4.91,5,6.73l98.07,56.62c7.4,4.27,20.31,3.73,28.85-1.19l93.16-53.79C383.06,547.22,385.42,544,385.71,541Z"/><path class="cls-11" d="M385.71,540.94c-.28,3.08-2.66,6.28-7,8.81l-93.16,53.78c-8.53,4.93-21.45,5.47-28.85,1.2l-98.07-56.62c-3.14-1.82-4.78-4.21-5-6.73v-.82a1.1,1.1,0,0,1,0-.31c.27-3.09,2.65-6.28,7-8.81l27.45-15.84,6.13-3.54,59.57-34.4c8.55-4.93,21.46-5.46,28.85-1.2l62.58,36.13,6.54,3.78,29,16.72C384.35,535.17,386,538,385.71,540.94Z"/><path class="cls-12" d="M422.24,517.64V673.86q0,.6,0,1.2v.44h0c-.43,4-3.54,8.14-9.23,11.42L290.5,757.63c-11.23,6.49-28.2,7.18-37.93,1.57l-129-74.45c-4.38-2.53-6.53-5.93-6.55-9.47V518.2c.26,3.32,2.43,6.47,6.55,8.85l129,74.45c9.73,5.62,26.7,4.9,37.93-1.57L413,529.2C418.76,525.88,421.87,521.7,422.24,517.64Z"/><path class="cls-13" d="M422.24,517.62c-.36,4.06-3.49,8.26-9.25,11.59L290.5,599.93c-11.22,6.47-28.21,7.19-37.93,1.57l-129-74.45c-4.13-2.39-6.28-5.53-6.54-8.85v-1.07a1.88,1.88,0,0,1,0-.41c.36-4.06,3.48-8.26,9.25-11.58l36.09-20.84,8.06-4.65,78.33-45.23c11.24-6.49,28.21-7.19,37.93-1.57L369,480.35l8.6,5,38.08,22C420.46,510,422.59,513.77,422.24,517.62Z"/><polygon class="cls-14" points="823.24 289.04 762.45 253.95 754.73 252.1 745.11 251.86 733.74 253.16 720.75 255.86 706.34 259.92 690.64 265.19 673.83 271.62 656.05 279.11 637.48 287.55 618.27 296.87 598.59 306.97 578.57 317.76 558.43 329.13 538.25 341.01 518.24 353.32 498.56 365.93 479.35 378.76 460.77 391.75 443 404.76 426.19 417.73 410.49 430.56 396.06 443.16 383.09 455.42 371.69 467.27 362.07 478.6 354.36 489.35 348.71 499.38 345.31 508.63 344.31 517.02 344.93 541.44 345.31 565.25 345.54 588.4 345.64 610.87 345.72 632.64 345.8 653.67 345.96 673.99 346.27 693.51 346.78 712.24 347.55 730.13 348.65 747.21 350.14 763.39 352.1 778.71 354.55 793.07 357.61 806.51 361.29 818.99 365.68 830.49 370.81 840.95 376.8 850.38 383.66 858.74 391.5 866.02 400.33 872.18 461.1 907.28 452.26 901.11 444.45 893.84 437.59 885.47 431.6 876.04 426.44 865.57 422.06 854.08 418.38 841.62 415.33 828.18 412.87 813.79 410.92 798.49 409.42 782.31 408.32 765.24 407.55 747.33 407.04 728.6 406.75 709.08 406.57 688.77 406.49 667.73 406.44 645.96 406.32 623.49 406.1 600.34 405.71 576.55 405.07 552.11 406.1 543.74 409.5 534.47 415.13 524.43 422.85 513.71 432.47 502.38 443.86 490.51 456.85 478.24 471.26 465.65 486.96 452.82 503.77 439.87 521.56 426.84 540.12 413.87 559.33 401.02 579.02 388.4 599.02 376.11 619.2 364.24 639.37 352.85 659.38 342.06 679.06 331.96 698.27 322.64 716.83 314.19 734.6 306.72 751.43 300.28 767.11 295 781.54 290.97 794.51 288.26 805.9 286.97 815.52 287.19 823.24 289.04"/><polygon class="cls-15" points="346.27 693.51 346.78 712.24 347.55 730.13 348.65 747.21 350.14 763.39 352.1 778.71 354.55 793.07 357.61 806.51 361.29 818.99 365.68 830.49 370.83 840.95 376.8 850.38 383.66 858.74 391.5 866.02 400.33 872.18 461.1 907.28 452.26 901.11 444.45 893.84 437.59 885.47 431.6 876.04 426.44 865.57 422.06 854.1 418.38 841.62 415.33 828.18 412.87 813.79 410.92 798.49 409.42 782.31 408.32 765.24 407.55 747.33 407.04 728.6 346.27 693.51"/><path class="cls-16" d="M405.07,552.11C413.18,815.92,371,976.8,619,902.45,867.07,690.62,825,578.38,833.25,305.12,835.91,217.76,402.5,467.77,405.07,552.11Z"/><path class="cls-17" d="M619,626.76l-.1,275.71.06,0C796.73,750.68,825.51,650,830.58,504.64Z"/><path class="cls-18" d="M405.07,552.11c2.31,74.78.55,141.3,2.53,196.53L619,626.67l.09-262.41C511.47,426.39,403.8,510,405.07,552.11Z"/><polygon class="cls-19" points="407.62 748.53 407.6 748.64 346.84 713.58 346.78 712.24 346.27 693.51 345.96 673.99 345.8 653.67 345.72 632.64 345.64 610.87 345.54 588.4 345.31 565.25 344.93 541.44 344.31 517.02 345.31 508.63 348.71 499.38 354.36 489.35 362.07 478.6 371.69 467.27 383.09 455.42 396.06 443.16 410.49 430.56 426.19 417.73 443 404.76 460.77 391.75 479.35 378.76 498.56 365.93 518.24 353.32 538.25 341.01 558.38 329.15 619.2 364.24 599.02 376.11 579.02 388.4 559.33 401.02 540.12 413.87 521.56 426.84 503.77 439.87 486.96 452.82 471.26 465.65 456.85 478.24 443.86 490.51 432.47 502.38 422.85 513.71 415.13 524.43 409.5 534.47 406.1 543.74 405.07 552.11 405.71 576.55 406.1 600.34 406.32 623.49 406.44 645.96 406.49 667.73 406.57 688.77 406.75 709.08 407.04 728.6 407.55 747.33 407.62 748.53"/><polygon class="cls-20" points="347.14 503.7 407.91 538.78 409.5 534.5 415.13 524.43 422.85 513.71 432.47 502.38 443.86 490.53 456.85 478.24 471.26 465.65 486.96 452.82 503.77 439.87 521.54 426.84 540.12 413.87 559.33 401.02 579.02 388.4 599.02 376.12 619.2 364.24 558.38 329.15 538.25 341.01 518.24 353.32 498.56 365.93 479.35 378.76 460.77 391.75 443 404.76 426.19 417.73 410.49 430.56 396.06 443.16 383.07 455.42 371.69 467.27 362.07 478.62 354.36 489.35 348.71 499.38 347.14 503.7"/><circle class="cls-21" cx="976.27" cy="616.78" r="3.54"/><circle class="cls-21" cx="869" cy="632.14" r="4.41"/><circle class="cls-21" cx="944.82" cy="517.15" r="4.99"/><polygon class="cls-22" points="976.27 616.78 869 632.14 944.82 517.15 976.27 616.78"/><polygon class="cls-23" points="212.14 160.3 340 136.95 374.58 259.96 212.14 160.3"/><polygon class="cls-24" points="92.54 263.75 180.44 265.86 143.36 356.29 92.54 263.75"/><polyline class="cls-25" points="212.14 160.3 180.44 265.86 374.58 259.96 519.07 152.06"/><circle class="cls-21" cx="340.25" cy="136.95" r="4.41"/><circle class="cls-21" cx="374.58" cy="259.96" r="4.41"/><circle class="cls-21" cx="212.14" cy="160.23" r="4.41"/><circle class="cls-21" cx="180.44" cy="265.86" r="4.41"/><circle class="cls-21" cx="92.54" cy="263.75" r="4.41"/><circle class="cls-21" cx="142.98" cy="355.89" r="3.19"/><circle class="cls-21" cx="519.07" cy="152.06" r="4.41"/></svg>