<svg id="Layer_1" data-name="Layer 1" xmlns="http://www.w3.org/2000/svg" xmlns:xlink="http://www.w3.org/1999/xlink" viewBox="0 0 1049.25 1077.26"><defs><style>.cls-1{fill:none;}.cls-2,.cls-23{fill:#8aa7b7;}.cls-21,.cls-3{fill:#616d7d;}.cls-4{fill:#2f3640;}.cls-5{fill:#2a2d33;}.cls-6{fill:url(#New_Gradient_Swatch_copy_9);}.cls-7{fill:url(#New_Gradient_Swatch_copy_9-2);}.cls-16,.cls-8{opacity:0.5;}.cls-8{fill:url(#New_Gradient_Swatch_copy_10);}.cls-11,.cls-15,.cls-17,.cls-9{opacity:0.4;}.cls-9{fill:url(#New_Gradient_Swatch_copy_9-3);}.cls-10{fill:url(#New_Gradient_Swatch_copy_10-2);}.cls-11{fill:url(#New_Gradient_Swatch_copy_10-3);}.cls-12{opacity:0.11;}.cls-13{clip-path:url(#clip-path);}.cls-14{fill:url(#New_Gradient_Swatch_copy_9-4);}.cls-15{fill:url(#New_Gradient_Swatch_copy_10-4);}.cls-16{fill:url(#New_Gradient_Swatch_copy_9-5);}.cls-17{fill:url(#New_Gradient_Swatch_copy_10-5);}.cls-18,.cls-19,.cls-20,.cls-21,.cls-22,.cls-23,.cls-24{fill-rule:evenodd;}.cls-18{fill:url(#New_Gradient_Swatch_copy_9-6);}.cls-19,.cls-25{fill:#e39900;}.cls-20{fill:#ffc610;}.cls-22{fill:url(#linear-gradient);}.cls-24{fill:#ffeb74;}.cls-26{fill:url(#bitcoin-face);}.cls-27{fill:#fff;}.cls-28{fill:url(#bitcoin-face-2);}.cls-29{fill:url(#bitcoin-face-3);}.cls-30{fill:url(#bitcoin-face-4);}.cls-31{fill:url(#bitcoin-face-5);}</style><linearGradient id="New_Gradient_Swatch_copy_9" x1="1903.53" y1="558.2" x2="2530.5" y2="920.18" gradientTransform="translate(-1649.5)" gradientUnits="userSpaceOnUse"><stop offset="0" stop-color="#616d7d"/><stop offset="1" stop-color="#2f3640"/></linearGradient><linearGradient id="New_Gradient_Swatch_copy_9-2" x1="2321.61" y1="786.07" x2="1698.79" y2="426.48" xlink:href="#New_Gradient_Swatch_copy_9"/><linearGradient id="New_Gradient_Swatch_copy_10" x1="205.08" y1="697.9" x2="836.02" y2="697.9" gradientUnits="userSpaceOnUse"><stop offset="0" stop-color="#8aa7b7"/><stop offset="1" stop-color="#616d7d"/></linearGradient><linearGradient id="New_Gradient_Swatch_copy_9-3" x1="520.55" y1="786.49" x2="520.55" y2="515.23" gradientTransform="matrix(1, 0, 0, 1, 0, 0)" xlink:href="#New_Gradient_Swatch_copy_9"/><linearGradient id="New_Gradient_Swatch_copy_10-2" x1="2432.15" y1="725.23" x2="2247.92" y2="831.6" gradientTransform="translate(-1649.5)" xlink:href="#New_Gradient_Swatch_copy_10"/><linearGradient id="New_Gradient_Swatch_copy_10-3" x1="574.9" y1="751.65" x2="806.17" y2="751.65" xlink:href="#New_Gradient_Swatch_copy_10"/><clipPath id="clip-path"><polygon id="SVGID" class="cls-1" points="595 62.31 61.28 370.46 127.47 760.65 660.83 452.71 595 62.31"/></clipPath><linearGradient id="New_Gradient_Swatch_copy_9-4" x1="1666.47" y1="460.42" x2="1897.83" y2="460.42" xlink:href="#New_Gradient_Swatch_copy_9"/><linearGradient id="New_Gradient_Swatch_copy_10-4" x1="17.01" y1="433.65" x2="248.29" y2="433.65" xlink:href="#New_Gradient_Swatch_copy_10"/><linearGradient id="New_Gradient_Swatch_copy_9-5" x1="-35.16" y1="554.34" x2="595.77" y2="554.34" gradientTransform="matrix(1, 0, 0, 1, 0, 0)" xlink:href="#New_Gradient_Swatch_copy_9"/><linearGradient id="New_Gradient_Swatch_copy_10-5" x1="-35.16" y1="507.3" x2="595.77" y2="507.3" xlink:href="#New_Gradient_Swatch_copy_10"/><linearGradient id="New_Gradient_Swatch_copy_9-6" x1="394.5" y1="470.94" x2="468.82" y2="342.2" gradientTransform="matrix(1, 0, 0, 1, 0, 0)" xlink:href="#New_Gradient_Swatch_copy_9"/><linearGradient id="linear-gradient" x1="272.48" y1="494.44" x2="406.13" y2="262.95" gradientUnits="userSpaceOnUse"><stop offset="0" stop-color="#e39900"/><stop offset="0.22" stop-color="#e6a30d"/><stop offset="0.63" stop-color="#edbc30"/><stop offset="0.74" stop-color="#efc33a"/></linearGradient><linearGradient id="bitcoin-face" x1="-4619.21" y1="-1596.41" x2="-4538.16" y2="-1643.2" gradientTransform="translate(3799.02 4209.47) rotate(33.82)" gradientUnits="userSpaceOnUse"><stop offset="0" stop-color="#e4ab00"/><stop offset="0.14" stop-color="#e5ae07"/><stop offset="0.33" stop-color="#e7b61a"/><stop offset="0.56" stop-color="#eac439"/><stop offset="0.82" stop-color="#eed664"/><stop offset="1" stop-color="#f1e586"/></linearGradient><linearGradient id="bitcoin-face-2" x1="-9031.34" y1="-3967.9" x2="-8973.86" y2="-4001.09" gradientTransform="matrix(0.56, -0.83, 0.83, 0.56, 9044.57, -4749.46)" xlink:href="#bitcoin-face"/><linearGradient id="bitcoin-face-3" x1="326.69" y1="885.75" x2="305.09" y2="1035.46" gradientTransform="matrix(1, 0, 0, 1, 0, 0)" xlink:href="#bitcoin-face"/><linearGradient id="bitcoin-face-4" x1="326.69" y1="869.54" x2="305.09" y2="1019.24" gradientTransform="matrix(1, 0, 0, 1, 0, 0)" xlink:href="#bitcoin-face"/><linearGradient id="bitcoin-face-5" x1="326.69" y1="799.96" x2="305.09" y2="949.66" gradientTransform="matrix(1, 0, 0, 1, 0, 0)" xlink:href="#bitcoin-face"/></defs><title>lightning_usecase_1</title><path class="cls-2" d="M672.08,448.57l-69.29-411,5.57-2.34L600,30.39l0,.05c-1.63-1.09-3.92-1-6.45.44L39.85,350.56c-4.54,2.63-8,9.36-7.18,14.07l69.83,414.3a5.19,5.19,0,0,0,2.91,4.22h0l8.19,4.73,1.4-7.64-.46.14L664.89,462.64C669.43,460,672.87,453.28,672.08,448.57Z"/><path class="cls-3" d="M42.94,361.8l-9.1-4a12.49,12.49,0,0,0-1.17,6.86l69.83,414.3a5.19,5.19,0,0,0,2.91,4.22h0l8.19,4.73,1.4-7.64-.46.14,27.85-16.08Z"/><path class="cls-4" d="M673.57,467.62,119.87,787.3c-4.27,2.47-7.93,1-8.69-3.38L41.35,369.61c-.8-4.71,2.64-11.44,7.19-14.07L602.24,35.86c4.28-2.46,7.94-1,8.69,3.39l69.83,414.3C681.56,458.26,678.12,465,673.57,467.62Z"/><polygon class="cls-5" points="595 62.31 61.28 370.46 127.47 760.65 660.83 452.71 595 62.31"/><path class="cls-6" d="M1021.63,663.77l-30.22,15.78-303-174.94c-5.07-2.92-13.92-2.56-19.77.82L146.05,807.15c-5-2.8-27.8-13.76-27.8-13.76l11.06,28.82,0,0a6.59,6.59,0,0,0,3.09,3.43l319.12,184.24c5.07,2.93,13.93,2.56,19.78-.82l534.77-308.75a9.48,9.48,0,0,0,4.49-4.77l0,0Z"/><path class="cls-7" d="M1017,668.74,468.89,985.16c-6,3.47-15.08,3.84-20.27.84L121.56,797.18c-5.19-3-4.54-8.24,1.46-11.7L671.09,469.05c6-3.47,15.07-3.84,20.27-.84l327,188.82C1023.61,660,1023,665.27,1017,668.74Z"/><path class="cls-8" d="M206.83,779.49l455.45-263a9.8,9.8,0,0,1,9.81,0l162.18,93.83a3.5,3.5,0,0,1,0,6.06L379,879.27a9.82,9.82,0,0,1-9.81,0l-162.4-93.72A3.5,3.5,0,0,1,206.83,779.49Z"/><path class="cls-9" d="M206.83,785.55l1.63.94,453.82-262a9.8,9.8,0,0,1,9.81,0l160.55,92.89,1.63-.94a3.5,3.5,0,0,0,0-6.06L672.09,516.55a9.8,9.8,0,0,0-9.81,0l-455.45,263A3.5,3.5,0,0,0,206.83,785.55Z"/><polygon class="cls-5" points="684.33 540.31 288.71 768.72 271.12 758.57 666.74 530.15 684.33 540.31"/><polygon class="cls-5" points="727.45 565.21 356.38 779.45 338.79 769.29 709.86 555.05 727.45 565.21"/><polygon class="cls-5" points="755.54 581.43 318.64 833.67 301.05 823.52 737.95 571.27 755.54 581.43"/><polygon class="cls-5" points="783.63 597.64 346.73 849.89 329.14 839.73 766.04 587.49 783.63 597.64"/><polygon class="cls-5" points="811.72 613.86 374.82 866.11 357.23 855.95 794.13 603.7 811.72 613.86"/><polygon class="cls-5" points="264.81 782.52 247.21 792.68 229.62 782.52 247.21 772.37 264.81 782.52"/><polygon class="cls-5" points="326.85 796.5 290.34 817.58 272.75 807.42 309.26 786.34 326.85 796.5"/><path class="cls-10" d="M679.81,843.13l122.81-70.9c4.8-2.78,4.8-7.27,0-10l-84-48.48c-4.8-2.77-12.58-2.77-17.38,0l-122.81,70.9c-4.8,2.77-4.8,7.26,0,10l84,48.49C667.23,845.9,675,845.9,679.81,843.13Z"/><path class="cls-11" d="M578.45,788.71l122.81-70.9c4.8-2.77,12.58-2.77,17.38,0l84,48.49a7.54,7.54,0,0,1,3,3c1.26-2.42.3-5.15-3-7.07l-84-48.48c-4.8-2.77-12.58-2.77-17.38,0l-122.81,70.9c-3.31,1.91-4.28,4.64-3,7.07A7.58,7.58,0,0,1,578.45,788.71Z"/><g class="cls-12"><g class="cls-13"><path class="cls-4" d="M671.63,468.4,123.56,784.83c-6,3.46-15.07,3.84-20.27.84l-327-188.83c-5.2-3-4.55-8.24,1.45-11.7L325.76,268.71c6-3.46,15.08-3.84,20.27-.84L673.09,456.69C678.28,459.69,677.63,464.93,671.63,468.4Z"/><path class="cls-14" d="M121.93,525.13l122.8-70.9c4.8-2.77,4.8-7.27,0-10l-84-48.48c-4.8-2.77-12.59-2.77-17.39,0l-122.8,70.9c-4.8,2.77-4.8,7.26,0,10l84,48.49C109.35,527.9,117.13,527.9,121.93,525.13Z"/><path class="cls-15" d="M20.57,470.71l122.8-70.9c4.8-2.77,12.59-2.77,17.39,0l84,48.49a7.54,7.54,0,0,1,3,3c1.27-2.42.3-5.15-3-7.07l-84-48.48c-4.8-2.77-12.59-2.77-17.39,0l-122.8,70.9c-3.32,1.91-4.29,4.65-3,7.07A7.62,7.62,0,0,1,20.57,470.71Z"/><path class="cls-16" d="M-33.42,635.93,422,373a9.8,9.8,0,0,1,9.81,0L594,466.82a3.49,3.49,0,0,1,0,6.05L138.79,735.7a9.8,9.8,0,0,1-9.8,0L-33.42,642A3.5,3.5,0,0,1-33.42,635.93Z"/><path class="cls-17" d="M-33.42,642l1.64.94L422,380.92a9.82,9.82,0,0,1,9.81,0L592.4,473.81l1.62-.94a3.49,3.49,0,0,0,0-6.05L431.84,373a9.8,9.8,0,0,0-9.81,0L-33.42,635.93A3.5,3.5,0,0,0-33.42,642Z"/><polygon class="cls-5" points="551.58 460.42 154.81 689.5 170.53 698.57 567.3 469.49 551.58 460.42"/><polygon class="cls-5" points="509.78 436.28 132.65 654.01 148.37 663.09 525.5 445.36 509.78 436.28"/><polygon class="cls-5" points="104.49 670.27 69.27 690.61 84.98 699.68 120.21 679.35 104.49 670.27"/><polygon class="cls-5" points="135.6 700.59 111.07 714.75 126.79 723.82 151.32 709.66 135.6 700.59"/><polygon class="cls-5" points="483.58 421.16 43.07 675.49 58.79 684.56 499.3 430.23 483.58 421.16"/><polygon class="cls-5" points="457.39 406.03 16.88 660.36 32.59 669.44 473.11 415.11 457.39 406.03"/><polygon class="cls-5" points="431.19 390.91 -9.32 645.24 6.4 654.31 446.91 399.98 431.19 390.91"/></g></g><polygon class="cls-18" points="428.97 327.06 429.29 328.72 429.57 330.4 429.8 332.11 429.99 333.86 430.15 335.63 430.25 337.44 430.32 339.27 430.34 341.14 430.26 344.81 430.02 348.53 429.64 352.28 429.1 356.07 428.42 359.86 427.61 363.7 426.65 367.53 425.55 371.36 424.34 375.2 422.99 379.02 421.53 382.83 419.94 386.61 418.25 390.37 416.44 394.09 414.52 397.76 412.51 401.39 410.39 404.95 408.18 408.45 405.88 411.89 403.5 415.25 401.02 418.52 398.47 421.71 395.85 424.81 393.14 427.8 390.37 430.67 387.54 433.44 384.64 436.09 381.69 438.6 378.69 440.98 375.64 443.22 372.54 445.3 369.4 447.23 362.85 451.08 362.82 451.09 359.53 449.19 359.52 449.2 362.81 451.1 362.19 451.38 361.58 451.53 361.01 451.5 360.53 451.32 419.93 485.63 420.42 485.81 420.98 485.82 421.6 485.68 422.26 485.37 428.8 481.53 431.94 479.6 435.04 477.51 438.09 475.27 441.1 472.9 444.05 470.38 446.94 467.75 449.78 464.97 452.55 462.09 455.25 459.1 457.87 456.01 460.43 452.83 462.9 449.55 465.29 446.19 467.6 442.75 469.8 439.25 471.91 435.68 473.92 432.05 475.84 428.38 477.65 424.66 479.35 420.91 480.93 417.12 482.4 413.31 483.74 409.49 484.96 405.66 486.05 401.82 487.01 397.99 487.83 394.17 488.5 390.36 489.05 386.58 489.43 382.82 489.67 379.11 489.74 375.44 489.72 373.58 489.66 371.73 489.55 369.94 489.4 368.15 489.2 366.41 488.98 364.69 488.69 363.01 488.38 361.36 488.1 360.09 487.79 358.83 487.46 357.6 487.11 356.39 486.73 355.21 486.31 354.06 485.88 352.91 485.43 351.79 426.02 317.5 426.47 318.61 426.91 319.75 427.31 320.92 427.69 322.11 428.06 323.31 428.38 324.53 428.69 325.79 428.97 327.06"/><path class="cls-19" d="M437.69,338.32h0l-.06-.72-.21-.6-.3-.48-.41-.31-59.4-34.31.4.33.31.47.2.59.07.73v0h0v39.12l59.41,34.29V338.32ZM375,244.65l-.28.15,59.4,34.3.29-.15.66-.46.62-.59.57-.68.5-.74.39-.81.31-.82.19-.83.07-.81V235.56l-59.41-34.3v37.66l-.07.8-.19.84-.31.82-.4.79-.48.76-.57.68-.62.58Z"/><polygon class="cls-20" points="524.91 256.15 465.5 221.85 378.28 201.26 437.69 235.56 524.91 256.15"/><polygon class="cls-21" points="329.84 451.33 285 513.71 272.31 531.37 331.71 565.66 344.41 548 389.25 485.63 389.28 485.58 389.31 485.54 389.35 485.49 389.39 485.44 389.43 485.39 389.46 485.34 389.49 485.3 389.54 485.24 418.93 444.37 359.52 410.07 330.14 450.95 330.09 451 330.06 451.05 330.02 451.1 329.99 451.14 329.94 451.19 329.91 451.24 329.87 451.29 329.84 451.33"/><polygon class="cls-21" points="526.78 294.25 467.38 259.96 426.02 317.5 485.43 351.79 526.78 294.25"/><polygon class="cls-22" points="368.5 248.39 365.64 250.1 362.8 251.87 359.97 253.71 357.17 255.63 354.39 257.62 351.62 259.68 348.87 261.79 346.16 263.98 343.46 266.21 340.79 268.52 338.15 270.88 335.54 273.3 332.94 275.77 330.38 278.31 327.85 280.89 325.34 283.53 322.88 286.21 320.43 288.94 318.03 291.72 315.65 294.55 313.32 297.42 311.01 300.32 308.75 303.27 306.51 306.27 304.32 309.3 302.17 312.36 300.06 315.46 297.98 318.59 295.96 321.75 293.97 324.95 292.01 328.17 290.11 331.43 288.26 334.7 286.45 337.99 284.69 341.31 282.97 344.67 281.3 348.03 279.68 351.41 278.11 354.81 276.6 358.23 275.12 361.65 273.71 365.09 272.34 368.54 271.05 372 269.79 375.47 268.59 378.94 267.46 382.42 266.38 385.9 265.36 389.38 264.4 392.87 263.5 396.36 262.65 399.83 261.88 403.31 261.16 406.78 260.51 410.24 259.92 413.7 259.4 417.14 258.95 420.57 258.57 423.98 258.25 427.4 258 430.78 257.82 434.14 257.71 437.5 257.68 440.82 257.69 442.91 257.73 444.98 257.81 447.04 257.91 449.06 258.03 451.08 258.19 453.05 258.38 455.02 258.6 456.95 258.85 458.86 259.12 460.76 259.41 462.63 259.75 464.47 260.1 466.29 260.5 468.08 260.9 469.85 261.35 471.59 262.2 474.58 263.12 477.5 264.13 480.34 265.22 483.09 266.4 485.76 267.67 488.35 269.01 490.85 270.44 493.26 329.84 527.56 328.42 525.15 327.07 522.64 325.81 520.05 324.63 517.39 323.53 514.63 322.53 511.8 321.6 508.89 320.75 505.89 320.31 504.15 319.9 502.38 319.51 500.59 319.16 498.77 318.82 496.93 318.52 495.05 318.25 493.16 318.01 491.25 317.79 489.31 317.6 487.36 317.44 485.37 317.32 483.36 317.22 481.33 317.14 479.29 317.09 477.21 317.08 475.13 317.11 471.79 317.23 468.45 317.41 465.08 317.66 461.69 317.98 458.28 318.36 454.87 318.81 451.43 319.33 447.99 319.92 444.54 320.57 441.08 321.28 437.62 322.06 434.13 322.9 430.65 323.8 427.17 324.76 423.69 325.78 420.19 326.87 416.71 328 413.25 329.19 409.76 330.45 406.3 331.75 402.83 333.12 399.39 334.53 395.95 336 392.51 337.52 389.1 339.09 385.71 340.7 382.33 342.38 378.97 344.09 375.62 345.86 372.3 347.66 369 349.52 365.72 351.42 362.48 353.37 359.25 355.36 356.06 357.4 352.89 359.46 349.76 361.58 346.66 363.72 343.59 365.92 340.56 368.15 337.57 370.41 334.63 372.72 331.71 375.06 328.84 377.44 326.02 379.84 323.25 382.28 320.51 384.75 317.82 387.26 315.19 389.79 312.61 392.34 310.08 394.94 307.6 397.55 305.18 400.2 302.82 402.87 300.51 405.56 298.28 408.29 296.1 411.02 293.97 413.8 291.93 416.57 289.94 419.39 288.01 422.2 286.16 425.05 284.39 427.92 282.68 434.09 279.1 374.69 244.8 368.5 248.39"/><path class="cls-23" d="M526.79,294.25l-41.36,57.54a50.22,50.22,0,0,1,2.95,9.57,69.72,69.72,0,0,1,1.36,14.08c0,19.46-6.81,41.05-17.83,60.24s-26.25,36-43.11,45.85l-6.54,3.84c-1.82,1.07-3.3.23-3.33-1.85v0h0V444.36l-29.39,40.88-.29.38L344.41,548l-12.7,17.66,87.22,20.59V548.6a7.3,7.3,0,0,1,3.31-5.73l.28-.16,6.18-3.58c30.63-17.81,58.34-48.23,78.4-83s32.44-74,32.44-109.4a120.74,120.74,0,0,0-3.68-30.77A79.92,79.92,0,0,0,526.79,294.25Z"/><path class="cls-24" d="M329.84,527.56,371.2,470a49.2,49.2,0,0,1-2.95-9.56,69,69,0,0,1-1.37-14.08c0-19.46,6.81-41.05,17.83-60.24s26.25-36,43.11-45.85l6.53-3.84c1.82-1.07,3.31-.23,3.32,1.86v0h0v39.12l29.39-40.87c.11-.15.21-.28.32-.41l44.82-62.36,12.69-17.65-87.22-20.59v37.66a7.3,7.3,0,0,1-3.31,5.72l-.29.16-6.17,3.58c-30.63,17.8-58.35,48.23-78.4,83s-32.44,74-32.44,109.41a121.07,121.07,0,0,0,3.67,30.76A79.94,79.94,0,0,0,329.84,527.56Z"/><path class="cls-25" d="M958.29,367.25l-11.87,14.31c-7.54,9.3-21.2,13.52-39.15,10.46-35.76-6.1-75-38.79-87.7-73-6.37-17.2-4.82-31.51,2.85-40.72l11.8-14.23,2.95,2.44c7.23-2.83,16.34-3.56,27-1.75,35.76,6.09,75,38.78,87.71,73,3.75,10.13,4.75,19.26,3.38,26.94Z"/><ellipse class="cls-26" cx="896.33" cy="315.56" rx="46.59" ry="80.69" transform="translate(78.57 799.56) rotate(-50.01)"/><path class="cls-27" d="M920.89,354.29,913.38,353,909,341.27c-1.91-.33-3.76-.65-5.61-.95-.44-.08-.22.28-.13.53L907.43,352l-7.51-1.29-4.43-11.94-14.93-2.55c-.08-.13-.12-.18-.13-.21-.51-2.57-1-5.13-1.55-7.7-.08-.39.18-.32.46-.27l4.6.78c2.1.36,2.75-.45,2-2.48q-5.7-15.43-11.42-30.85a7.22,7.22,0,0,0-5.18-4.47c-1.25-.27-2.48-.47-3.71-.7l-2.25-.39-2.82-7.62,15,2.55-4.34-11.73,7.51,1.28c1.35,3.66,2.71,7.31,4,11a.86.86,0,0,0,.8.66c1.28.17,2.57.39,3.86.59l1.41.24c0-.16,0-.19,0-.23q-2.07-5.61-4.15-11.21l7.51,1.28c.08.24.16.49.25.73q1.83,5,3.67,9.91c.42,1.14.42,1.13,1.68,1.47a48.23,48.23,0,0,1,10.53,3.94,24.4,24.4,0,0,1,8.61,7.18,21.89,21.89,0,0,1,3.31,6.66c1.11,3.74.34,6.31-2.37,7.67l-.63.3.46.24c1.46.68,2.94,1.27,4.38,2.06a22.4,22.4,0,0,1,8.51,7.86,22.92,22.92,0,0,1,3.37,9.52c.29,2.62-.18,4.8-1.76,6.27-1.8,1.67-4.48,2.26-7.51,2.31-2.41,0-5-.22-7.53-.39-.54,0-.64.11-.42.64.39.95.71,1.9,1.06,2.85C918.8,348.71,919.85,351.5,920.89,354.29ZM900,331.58c2.32.39,4.53.82,6.71,1.13a24.9,24.9,0,0,0,8.24.11c1.55-.32,2.92-.86,3.34-2.31.81-2.83-1.71-7-5.73-9.45a27.6,27.6,0,0,0-8.67-3.44c-3-.63-5.94-1.09-8.92-1.67-.65-.13-.77,0-.53.65,1.78,4.75,3.53,9.5,5.29,14.24Zm-11.16-30.13q1.23,3.32,2.45,6.63c.13.34.23.58.72.67,3.8.71,7.56,1.35,10.91,1,1.74-.16,3.07-.78,3.67-2.1.91-2-1.12-6-4.15-8.25A19.73,19.73,0,0,0,895,296c-2.78-.67-5.49-1.08-8.23-1.62-.53-.11-.51.12-.35.54C887.24,297.12,888,299.28,888.84,301.45Z"/><path class="cls-25" d="M775.25,487.31l5.9,11.79c3.89,7.55,2.74,17.62-4.37,28.4-14.17,21.48-46.59,37.65-72.44,36.12-13-.77-21.84-5.87-25.63-13.47l-5.87-11.73,2.43-1.21c.22-5.5,2.35-11.63,6.55-18,14.16-21.48,46.59-37.64,72.43-36.11,7.65.45,13.86,2.41,18.46,5.49Z"/><ellipse class="cls-28" cx="724.01" cy="512.79" rx="57.23" ry="33.04" transform="translate(-152.25 373.78) rotate(-26.29)"/><path class="cls-27" d="M756.16,507.89l-3,4.52-8.87-.53c-.75,1.15-1.49,2.26-2.21,3.37-.18.27.11.23.3.24l8.42.49-3,4.51-9-.53-5.92,9-.17,0-5.44-1.19c-.28-.06-.16-.21,0-.38l1.81-2.76c.83-1.26.49-1.91-1-2l-23.29-1.38a5.1,5.1,0,0,0-4.38,2.08c-.53.74-1,1.48-1.52,2.21l-.89,1.35-5.75-.34,5.93-9-8.86-.52,3-4.51,8.27.5a.6.6,0,0,0,.65-.33c.48-.78,1-1.56,1.49-2.34l.56-.84c-.1,0-.12-.06-.15-.06l-8.47-.51,3-4.51.55.05,7.48.45c.85.05.85.05,1.43-.68a33.88,33.88,0,0,1,5.56-5.71,17.25,17.25,0,0,1,7.12-3.54,15.42,15.42,0,0,1,5.27-.25c2.74.34,4.2,1.58,4.3,3.72,0,.15,0,.3,0,.5a3.34,3.34,0,0,1,.29-.23c.86-.76,1.66-1.55,2.59-2.25a15.69,15.69,0,0,1,7.52-3.29,16.31,16.31,0,0,1,7.15.53,5,5,0,0,1,3.56,2.93c.58,1.64.2,3.55-.63,5.53-.67,1.58-1.57,3.19-2.41,4.78-.18.34-.11.45.29.46.74,0,1.44.08,2.16.12ZM735.45,515c.92-1.39,1.83-2.71,2.65-4a17.72,17.72,0,0,0,2.43-5.33c.23-1.09.27-2.14-.55-2.82-1.6-1.33-5-.89-7.77,1a19.83,19.83,0,0,0-4.71,4.65c-1.26,1.77-2.4,3.55-3.63,5.31-.27.4-.21.51.27.54,3.6.19,7.18.41,10.76.63Zm-22.74-1.35,5,.3a.6.6,0,0,0,.65-.27,29.4,29.4,0,0,0,3.77-6.79,2.89,2.89,0,0,0-.31-3c-1.06-1.17-4.21-1-6.54.34a14,14,0,0,0-4.33,3.86c-1.23,1.61-2.27,3.25-3.4,4.88-.22.31-.07.37.25.38Z"/><path class="cls-25" d="M396.8,986.26c0-.74,0-1.49,0-2.23v-9.34H231.31v12h.08c.72,11.65,8.75,23.17,24.15,32.06,32.33,18.67,84.74,18.67,117.07,0,15.4-8.89,23.43-20.41,24.15-32.06h0Z"/><ellipse class="cls-29" cx="314.07" cy="973.2" rx="82.78" ry="47.8"/><path class="cls-27" d="M341.73,958.05a29.25,29.25,0,0,0-12.51,2q3.06-3.06,2.39-6.25t-4.86-5.61q-6-3.48-14.56-2.63A41.52,41.52,0,0,0,297.67,950l-7.21-4.15-9.63,5.56,7.12,4.1-5.26,3-7.12-4.11L265.94,960l7.12,4.11L264,969.35l9.63,5.56,7-4,33,19.07-7,4,9.63,5.56,9.09-5.24,7.12,4.11,9.63-5.57-7.12-4.1,5.26-3,7.12,4.11,9.63-5.56-7.16-4.13q7.55-4.75,8.83-9.54,1.41-5.3-5.31-9.18A25.74,25.74,0,0,0,341.73,958.05Zm-49.33,6,11.65-6.72a14.66,14.66,0,0,1,6.68-2.22,10.46,10.46,0,0,1,6.09,1.31c1.84,1.06,2.64,2.26,2.39,3.58s-1.49,2.63-3.73,3.92l-11.65,6.73ZM342,971.63q-.7,2.36-4.89,4.77l-11.65,6.72L313,976l11.65-6.72a20.06,20.06,0,0,1,8.14-2.89,11,11,0,0,1,6.87,1.21C341.67,968.71,342.43,970.06,342,971.63Z"/><path class="cls-25" d="M396.8,970.05c0-.75,0-1.49,0-2.24v-9.34H231.31v12h.08c.72,11.65,8.75,23.17,24.15,32.06,32.33,18.67,84.74,18.67,117.07,0,15.4-8.9,23.43-20.42,24.15-32.07h0Z"/><ellipse class="cls-30" cx="314.07" cy="956.99" rx="82.78" ry="47.8"/><path class="cls-27" d="M341.73,941.83a29.41,29.41,0,0,0-12.51,2q3.06-3.06,2.39-6.26t-4.86-5.6q-6-3.5-14.56-2.63a41.11,41.11,0,0,0-14.52,4.43l-7.21-4.16-9.63,5.56,7.12,4.11-5.26,3-7.12-4.11-9.63,5.56,7.12,4.11L264,953.13l9.63,5.56,7-4,33,19.06-7,4,9.63,5.56,9.09-5.25,7.12,4.11,9.63-5.56L335,972.51l5.26-3,7.12,4.11L357,968l-7.16-4.13q7.55-4.75,8.83-9.53,1.41-5.31-5.31-9.19A25.87,25.87,0,0,0,341.73,941.83Zm-49.33,6,11.65-6.73a14.91,14.91,0,0,1,6.68-2.22,10.46,10.46,0,0,1,6.09,1.31q2.76,1.6,2.39,3.58c-.25,1.33-1.49,2.63-3.73,3.93l-11.65,6.72ZM342,955.41q-.7,2.36-4.89,4.77l-11.65,6.73L313,959.75,324.66,953a20.06,20.06,0,0,1,8.14-2.89,11.14,11.14,0,0,1,6.87,1.21Q342.67,953.07,342,955.41Z"/><path class="cls-25" d="M396.8,900.47c0-.75,0-1.49,0-2.24V888.9H231.31v12h.08c.72,11.64,8.75,23.17,24.15,32.06,32.33,18.66,84.74,18.66,117.07,0,15.4-8.89,23.43-20.42,24.15-32.06h0Z"/><ellipse class="cls-31" cx="314.07" cy="887.41" rx="82.78" ry="47.8"/><path class="cls-27" d="M341.73,872.25a29.41,29.41,0,0,0-12.51,2c2-2,2.84-4.13,2.39-6.25s-2.07-4-4.86-5.61q-6-3.49-14.56-2.63a41.52,41.52,0,0,0-14.52,4.43L290.46,860l-9.63,5.56,7.12,4.11-5.26,3-7.12-4.11-9.63,5.56,7.12,4.11L264,883.56l9.63,5.56,7-4,33,19.06-7,4,9.63,5.56,9.09-5.25,7.12,4.11,9.63-5.56L335,902.93l5.26-3,7.12,4.1,9.63-5.56-7.16-4.13q7.55-4.74,8.83-9.53c.94-3.53-.83-6.6-5.31-9.18A25.75,25.75,0,0,0,341.73,872.25Zm-49.33,6,11.65-6.73a14.91,14.91,0,0,1,6.68-2.22,10.39,10.39,0,0,1,6.09,1.32q2.76,1.59,2.39,3.58t-3.73,3.92l-11.65,6.73ZM342,885.84q-.7,2.34-4.89,4.76l-11.65,6.73L313,890.17l11.65-6.73a20.21,20.21,0,0,1,8.14-2.89,11.14,11.14,0,0,1,6.87,1.21Q342.67,883.48,342,885.84Z"/></svg>