<svg xmlns="http://www.w3.org/2000/svg" xmlns:xlink="http://www.w3.org/1999/xlink" viewBox="0 0 2304.04 1377.39"><defs><style>.cls-1,.cls-32,.cls-35,.cls-36,.cls-4,.cls-5,.cls-9{fill:none;}.cls-2{isolation:isolate;}.cls-3{clip-path:url(#clip-path);}.cls-32,.cls-35,.cls-36,.cls-4,.cls-9{stroke:#fff;}.cls-32,.cls-35,.cls-36,.cls-4,.cls-5,.cls-9{stroke-miterlimit:10;}.cls-32,.cls-4,.cls-9{stroke-width:0.25px;}.cls-4,.cls-6{opacity:0.3;}.cls-5{stroke:#000;stroke-width:0.94px;}.cls-10,.cls-5,.cls-7,.cls-9{opacity:0.5;}.cls-10,.cls-33,.cls-6,.cls-8{fill:#fff;}.cls-8{opacity:0.4;}.cls-11{fill:url(#linear-gradient);}.cls-12{clip-path:url(#clip-path-2);}.cls-13{fill:url(#linear-gradient-2);}.cls-14{fill:url(#linear-gradient-3);}.cls-15{fill:url(#linear-gradient-4);}.cls-16{fill:url(#linear-gradient-5);}.cls-17{fill:url(#linear-gradient-6);}.cls-18{fill:url(#linear-gradient-7);}.cls-19{fill:url(#linear-gradient-8);}.cls-20{fill:url(#linear-gradient-9);}.cls-21{fill:url(#linear-gradient-10);}.cls-22{fill:url(#linear-gradient-11);}.cls-23{fill:url(#linear-gradient-12);}.cls-24{fill:url(#linear-gradient-13);}.cls-25{fill:url(#linear-gradient-14);}.cls-26{fill:url(#linear-gradient-15);}.cls-27{fill:url(#linear-gradient-16);}.cls-28{fill:url(#linear-gradient-17);}.cls-29{fill:url(#linear-gradient-18);}.cls-30{fill:url(#linear-gradient-19);}.cls-31{clip-path:url(#clip-path-3);}.cls-34{clip-path:url(#clip-path-4);}.cls-36{stroke-width:0.77px;}.cls-37{clip-path:url(#clip-path-5);}.cls-38,.cls-40{opacity:0.6;mix-blend-mode:screen;}.cls-38{fill:url(#radial-gradient);}.cls-39{clip-path:url(#clip-path-6);}.cls-40{fill:url(#radial-gradient-2);}</style><clipPath id="clip-path"><rect class="cls-1" x="-787.95" y="-76.89" width="3696.58" height="1682.64"/></clipPath><linearGradient id="linear-gradient" x1="793.6" y1="104.36" x2="940.73" y2="1156.46" gradientUnits="userSpaceOnUse"><stop offset="0" stop-color="#fff"/><stop offset="1" stop-color="#172026"/></linearGradient><clipPath id="clip-path-2"><rect class="cls-1" x="-325.88" y="-76.89" width="2428.41" height="1682.64"/></clipPath><linearGradient id="linear-gradient-2" x1="1060.1" y1="57.68" x2="822.29" y2="727.14" xlink:href="#linear-gradient"/><linearGradient id="linear-gradient-3" x1="811.61" y1="-2750.4" x2="884.29" y2="1159.53" xlink:href="#linear-gradient"/><linearGradient id="linear-gradient-4" x1="1280.22" y1="2130.25" x2="251.59" y2="18.86" xlink:href="#linear-gradient"/><linearGradient id="linear-gradient-5" x1="1763.66" y1="3.82" x2="1415.44" y2="690.27" xlink:href="#linear-gradient"/><linearGradient id="linear-gradient-6" x1="1628.17" y1="-254.25" x2="1646.89" y2="752.72" xlink:href="#linear-gradient"/><linearGradient id="linear-gradient-7" x1="617.02" y1="-162.86" x2="757.9" y2="790.32" xlink:href="#linear-gradient"/><linearGradient id="linear-gradient-8" x1="1157.97" y1="1311.77" x2="497.79" y2="651.59" gradientUnits="userSpaceOnUse"><stop offset="0" stop-color="#fff"/><stop offset="0.02" stop-color="#fafafa"/><stop offset="0.23" stop-color="#b6b9ba"/><stop offset="0.42" stop-color="#7d8286"/><stop offset="0.61" stop-color="#51585c"/><stop offset="0.77" stop-color="#31393f"/><stop offset="0.91" stop-color="#1e272c"/><stop offset="1" stop-color="#172026"/></linearGradient><linearGradient id="linear-gradient-9" x1="1818.15" y1="499.32" x2="1509.4" y2="477.34" gradientUnits="userSpaceOnUse"><stop offset="0" stop-color="#fff"/><stop offset="0.63" stop-color="#616d7d"/><stop offset="1" stop-color="#172026"/></linearGradient><linearGradient id="linear-gradient-10" x1="1239.18" y1="283.9" x2="1243.18" y2="1043.29" xlink:href="#linear-gradient"/><linearGradient id="linear-gradient-11" x1="1720.4" y1="342.81" x2="1055.6" y2="779.79" xlink:href="#linear-gradient"/><linearGradient id="linear-gradient-12" x1="1114.03" y1="383.42" x2="1645.51" y2="1010.36" xlink:href="#linear-gradient"/><linearGradient id="linear-gradient-13" x1="1994.9" y1="663.97" x2="602.03" y2="426.16" xlink:href="#linear-gradient"/><linearGradient id="linear-gradient-14" x1="489.65" y1="1614.69" x2="1173.45" y2="825.53" xlink:href="#linear-gradient"/><linearGradient id="linear-gradient-15" x1="1618.24" y1="959.63" x2="1061.21" y2="948.05" xlink:href="#linear-gradient"/><linearGradient id="linear-gradient-16" x1="1711.64" y1="247.19" x2="1780.92" y2="535.62" xlink:href="#linear-gradient-9"/><linearGradient id="linear-gradient-17" x1="1753.75" y1="597.21" x2="1946.59" y2="214.52" xlink:href="#linear-gradient-9"/><linearGradient id="linear-gradient-18" x1="1185.63" y1="-63.53" x2="1004.84" y2="362.08" xlink:href="#linear-gradient-9"/><linearGradient id="linear-gradient-19" x1="1250.62" y1="111.53" x2="884.76" y2="464.1" xlink:href="#linear-gradient-9"/><clipPath id="clip-path-3"><rect class="cls-1" x="-730.62" y="-76.89" width="3423.39" height="1682.64"/></clipPath><clipPath id="clip-path-4"><rect class="cls-1" x="503.83" y="-76.89" width="1598.71" height="1682.64"/></clipPath><clipPath id="clip-path-5"><rect class="cls-1" x="-325.88" y="-76.89" width="2897.23" height="1682.64"/></clipPath><radialGradient id="radial-gradient" cx="-9840.32" cy="-2250.31" r="337.64" gradientTransform="matrix(-0.1, -1.19, 2.46, -0.2, 5964.83, -11678.05)" gradientUnits="userSpaceOnUse"><stop offset="0" stop-color="#ffd69a"/><stop offset="0.16" stop-color="#ff9a20" stop-opacity="0.3"/><stop offset="0.33" stop-color="#985131" stop-opacity="0.2"/><stop offset="0.46" stop-color="#522a14" stop-opacity="0.1"/><stop offset="0.56" stop-color="#2d1c0e" stop-opacity="0"/><stop offset="0.68" stop-color="#172026" stop-opacity="0"/><stop offset="0.75" stop-color="#172026" stop-opacity="0"/><stop offset="0.84" stop-color="#172026" stop-opacity="0"/><stop offset="0.91" stop-color="#172026" stop-opacity="0"/><stop offset="1" stop-color="#172026" stop-opacity="0"/></radialGradient><clipPath id="clip-path-6"><rect class="cls-1" x="669.09" y="-76.89" width="1598.71" height="1682.64"/></clipPath><radialGradient id="radial-gradient-2" cx="-679.15" cy="12398.3" r="337.71" gradientTransform="matrix(1.45, -0.25, 0.09, 0.55, 1363.82, -6490.26)" gradientUnits="userSpaceOnUse"><stop offset="0" stop-color="#efffff" stop-opacity="0.8"/><stop offset="0.07" stop-color="#fdff4c" stop-opacity="0.6"/><stop offset="0.33" stop-color="#9f9831" stop-opacity="0.2"/><stop offset="0.46" stop-color="#605214" stop-opacity="0.1"/><stop offset="0.56" stop-color="#3e2d0e" stop-opacity="0"/><stop offset="0.68" stop-color="#172026" stop-opacity="0"/><stop offset="0.75" stop-color="#172026" stop-opacity="0"/><stop offset="0.84" stop-color="#172026" stop-opacity="0"/><stop offset="0.91" stop-color="#172026" stop-opacity="0"/><stop offset="1" stop-color="#172026" stop-opacity="0"/></radialGradient></defs><title>lighting_1</title><g class="cls-2"><g id="Layer_1" data-name="Layer 1"><g class="cls-3"><line class="cls-4" x1="1147.46" y1="511.46" x2="1215.54" y2="256.65"/><line class="cls-4" x1="891.12" y1="347.31" x2="1215.54" y2="256.65"/><line class="cls-5" x1="1147.46" y1="511.46" x2="1046.97" y2="709.79"/><line class="cls-5" x1="1296.81" y1="704.75" x2="1046.97" y2="709.79"/><line class="cls-4" x1="910.2" y1="149.74" x2="697.74" y2="45.76"/><line class="cls-4" x1="1215.54" y1="256.65" x2="1176.88" y2="48.45"/><line class="cls-4" x1="910.2" y1="149.74" x2="1215.54" y2="256.65"/><line class="cls-4" x1="1176.88" y1="48.45" x2="1271.51" y2="93.66"/><line class="cls-4" x1="1271.51" y1="93.66" x2="1589.39" y2="264.02"/><line class="cls-4" x1="1055.41" y1="459.16" x2="1176.88" y2="48.45"/><line class="cls-4" x1="910.2" y1="149.74" x2="1055.41" y2="459.16"/><line class="cls-4" x1="697.74" y1="45.76" x2="434.9" y2="129.94"/><line class="cls-4" x1="1066.58" y1="175.05" x2="1215.54" y2="256.65"/><line class="cls-4" x1="1066.58" y1="175.05" x2="891.12" y2="347.31"/><line class="cls-4" x1="891.12" y1="347.31" x2="656.7" y2="204.09"/><line class="cls-4" x1="451.91" y1="380.23" x2="873.15" y2="718.32"/><line class="cls-4" x1="828.69" y1="428.06" x2="891.12" y2="347.31"/><line class="cls-5" x1="873.15" y1="718.32" x2="828.69" y2="428.06"/><line class="cls-4" x1="451.91" y1="380.23" x2="891.12" y2="347.31"/><line class="cls-4" x1="656.7" y1="204.09" x2="451.91" y2="380.23"/><line class="cls-4" x1="451.91" y1="380.23" x2="47.84" y2="160.89"/><line class="cls-4" x1="910.2" y1="149.74" x2="1010.34" y2="95.55"/><line class="cls-4" x1="1010.34" y1="95.55" x2="1066.58" y2="175.05"/><line class="cls-4" x1="1010.34" y1="95.55" x2="1176.88" y2="48.45"/><line class="cls-5" x1="1589.39" y1="264.02" x2="1465.75" y2="326.1"/><line class="cls-5" x1="1465.75" y1="326.1" x2="1725.42" y2="302.06"/><line class="cls-5" x1="1423.42" y1="397.01" x2="1294.05" y2="456.71"/><line class="cls-5" x1="1423.42" y1="397.01" x2="1465.75" y2="326.1"/><line class="cls-4" x1="1837.66" y1="62.56" x2="1725.42" y2="302.06"/><line class="cls-4" x1="1333.9" y1="306.91" x2="1837.66" y2="62.56"/><line class="cls-4" x1="1241.15" y1="586.26" x2="1333.9" y2="306.91"/><line class="cls-5" x1="1296.81" y1="704.75" x2="1241.15" y2="586.26"/><line class="cls-5" x1="1241.15" y1="586.26" x2="1294.05" y2="456.71"/><line class="cls-5" x1="1750.51" y1="493.02" x2="1294.05" y2="456.71"/><line class="cls-5" x1="873.15" y1="718.32" x2="1046.97" y2="709.79"/><line class="cls-4" x1="434.9" y1="129.94" x2="656.7" y2="204.09"/><line class="cls-4" x1="47.84" y1="160.89" x2="434.9" y2="129.94"/><line class="cls-4" x1="1725.42" y1="302.06" x2="2222.43" y2="190.89"/><line class="cls-4" x1="1271.51" y1="93.66" x2="1055.41" y2="459.16"/><line class="cls-4" x1="910.2" y1="149.74" x2="656.7" y2="204.09"/><line class="cls-4" x1="697.74" y1="45.76" x2="891.12" y2="347.31"/><path class="cls-6" d="M1222.91,258a7.48,7.48,0,1,1-6.06-8.67A7.48,7.48,0,0,1,1222.91,258Z"/><path class="cls-7" d="M1054.34,711.1a7.48,7.48,0,1,1-6.07-8.68A7.49,7.49,0,0,1,1054.34,711.1Z"/><path class="cls-7" d="M1154.83,512.77a7.48,7.48,0,1,1-6.06-8.68A7.48,7.48,0,0,1,1154.83,512.77Z"/><path class="cls-6" d="M896.78,348.31a5.75,5.75,0,1,1-4.66-6.66A5.75,5.75,0,0,1,896.78,348.31Z"/><path class="cls-8" d="M1184.24,49.75a7.48,7.48,0,1,1-6.06-8.67A7.48,7.48,0,0,1,1184.24,49.75Z"/><path class="cls-8" d="M919.41,151.37a9.35,9.35,0,1,1-7.58-10.84A9.35,9.35,0,0,1,919.41,151.37Z"/><path class="cls-8" d="M444.11,131.57a9.35,9.35,0,1,1-7.58-10.84A9.35,9.35,0,0,1,444.11,131.57Z"/><circle class="cls-7" cx="1296.81" cy="704.75" r="7.48" transform="translate(-168.79 879.07) rotate(-35.3)"/><path class="cls-7" d="M1427.1,397.66a3.74,3.74,0,1,1-3-4.33A3.73,3.73,0,0,1,1427.1,397.66Z"/><path class="cls-8" d="M1072.48,176.1a6,6,0,1,1-4.85-6.94A6,6,0,0,1,1072.48,176.1Z"/><path class="cls-8" d="M459.28,381.54a7.48,7.48,0,1,1-6.07-8.68A7.49,7.49,0,0,1,459.28,381.54Z"/><path class="cls-7" d="M1755.42,493.89a5,5,0,1,1-4-5.78A5,5,0,0,1,1755.42,493.89Z"/><path class="cls-8" d="M1014.23,96.24a4,4,0,1,1-3.2-4.58A4,4,0,0,1,1014.23,96.24Z"/><path class="cls-7" d="M831.76,428.6a3.12,3.12,0,1,1-2.52-3.61A3.12,3.12,0,0,1,831.76,428.6Z"/><path class="cls-8" d="M1278.87,95a7.48,7.48,0,1,1-6.06-8.68A7.48,7.48,0,0,1,1278.87,95Z"/><path class="cls-8" d="M1731.56,303.14a6.24,6.24,0,1,1-5-7.22A6.23,6.23,0,0,1,1731.56,303.14Z"/><path class="cls-6" d="M1339.43,307.89a5.61,5.61,0,1,1-4.55-6.51A5.61,5.61,0,0,1,1339.43,307.89Z"/><path class="cls-7" d="M1596.75,265.32a7.48,7.48,0,1,1-6.06-8.67A7.48,7.48,0,0,1,1596.75,265.32Z"/><path class="cls-7" d="M1250.36,587.89a9.35,9.35,0,1,1-7.57-10.84A9.35,9.35,0,0,1,1250.36,587.89Z"/><path class="cls-7" d="M1471.27,327.07a5.61,5.61,0,1,1-4.55-6.5A5.6,5.6,0,0,1,1471.27,327.07Z"/><path class="cls-7" d="M1296.51,457.15a2.49,2.49,0,1,1-2-2.89A2.5,2.5,0,0,1,1296.51,457.15Z"/><path class="cls-7" d="M1058.17,459.65a2.8,2.8,0,1,1-2.27-3.25A2.8,2.8,0,0,1,1058.17,459.65Z"/><path class="cls-8" d="M704.74,47A7.1,7.1,0,1,1,699,38.76,7.1,7.1,0,0,1,704.74,47Z"/><path class="cls-8" d="M666.8,205.88A10.26,10.26,0,1,1,658.49,194,10.25,10.25,0,0,1,666.8,205.88Z"/><path class="cls-7" d="M878.13,719.2a5.06,5.06,0,1,1-4.1-5.86A5.06,5.06,0,0,1,878.13,719.2Z"/><path class="cls-8" d="M1841.15,63.18a3.54,3.54,0,1,1-2.87-4.1A3.54,3.54,0,0,1,1841.15,63.18Z"/><line class="cls-5" x1="1305.6" y1="797.97" x2="1117.93" y2="639.02"/><line class="cls-5" x1="1117.93" y1="639.02" x2="860.34" y2="695.69"/><line class="cls-5" x1="1089.98" y1="942.13" x2="860.34" y2="695.69"/><line class="cls-5" x1="1089.98" y1="942.13" x2="1305.6" y2="797.97"/><line class="cls-5" x1="1117.93" y1="639.02" x2="1340.26" y2="637.11"/><line class="cls-5" x1="1220.94" y1="417.54" x2="1305.6" y2="797.97"/><line class="cls-5" x1="1220.94" y1="417.54" x2="1340.26" y2="637.11"/><line class="cls-9" x1="960.06" y1="1110.29" x2="1014.29" y2="1256.76"/><line class="cls-5" x1="860.34" y1="695.69" x2="693.21" y2="825.73"/><line class="cls-9" x1="960.06" y1="1110.29" x2="860.34" y2="695.69"/><line class="cls-5" x1="693.21" y1="825.73" x2="401.77" y2="902.03"/><line class="cls-5" x1="401.77" y1="902.03" x2="695.04" y2="360.29"/><line class="cls-5" x1="618.72" y1="939.56" x2="693.21" y2="825.73"/><line class="cls-9" x1="960.06" y1="1110.29" x2="618.72" y2="939.56"/><line class="cls-5" x1="1061.59" y1="976.77" x2="1089.98" y2="942.13"/><line class="cls-5" x1="1061.59" y1="976.77" x2="856.34" y2="865.48"/><line class="cls-5" x1="856.34" y1="865.48" x2="860.34" y2="695.69"/><line class="cls-5" x1="856.34" y1="865.48" x2="1089.98" y2="942.13"/><line class="cls-9" x1="1089.98" y1="942.13" x2="1070.54" y2="1216.15"/><line class="cls-9" x1="1475.4" y1="1047.61" x2="1566.29" y2="833.21"/><line class="cls-5" x1="1190.38" y1="960.46" x2="1089.98" y2="942.13"/><line class="cls-5" x1="1190.38" y1="960.46" x2="1305.6" y2="797.97"/><line class="cls-9" x1="1566.29" y1="833.21" x2="1190.38" y2="960.46"/><line class="cls-9" x1="1475.4" y1="1047.61" x2="1089.98" y2="942.13"/><line class="cls-9" x1="1070.54" y1="1216.15" x2="1475.4" y2="1047.61"/><line class="cls-9" x1="1475.4" y1="1047.61" x2="1154.95" y2="1330.1"/><line class="cls-9" x1="803.22" y1="1122.46" x2="1070.54" y2="1216.15"/><line class="cls-9" x1="811.59" y1="951.98" x2="803.22" y2="1122.46"/><line class="cls-5" x1="811.59" y1="951.98" x2="856.34" y2="865.48"/><line class="cls-5" x1="811.59" y1="951.98" x2="693.21" y2="825.73"/><line class="cls-5" x1="495.32" y1="543.71" x2="770.85" y2="731.42"/><line class="cls-5" x1="770.85" y1="731.42" x2="860.34" y2="695.69"/><line class="cls-5" x1="770.85" y1="731.42" x2="693.21" y2="825.73"/><line class="cls-5" x1="495.32" y1="543.71" x2="695.04" y2="360.29"/><line class="cls-5" x1="953.05" y1="644.31" x2="860.34" y2="695.69"/><line class="cls-5" x1="953.05" y1="644.31" x2="1117.93" y2="639.02"/><line class="cls-5" x1="953.05" y1="644.31" x2="1001.93" y2="534"/><line class="cls-5" x1="889.44" y1="446.55" x2="1001.93" y2="534"/><line class="cls-4" x1="169.75" y1="374.22" x2="436.37" y2="129.78"/><line class="cls-4" x1="850.57" y1="567.47" x2="169.75" y2="374.22"/><line class="cls-5" x1="1141.3" y1="521.43" x2="850.57" y2="567.47"/><line class="cls-5" x1="1220.94" y1="417.54" x2="1141.3" y2="521.43"/><line class="cls-5" x1="1141.3" y1="521.43" x2="1001.93" y2="534"/><line class="cls-9" x1="1566.29" y1="833.21" x2="1340.26" y2="637.11"/><line class="cls-9" x1="1013.12" y1="1256.3" x2="1070.54" y2="1216.15"/><line class="cls-9" x1="1154.95" y1="1330.1" x2="1013.12" y2="1256.3"/><line class="cls-5" x1="401.77" y1="902.03" x2="618.72" y2="939.56"/><line class="cls-5" x1="1089.98" y1="942.13" x2="999.19" y2="808.27"/><line class="cls-5" x1="999.19" y1="808.27" x2="860.34" y2="695.69"/><line class="cls-9" x1="960.06" y1="1110.29" x2="1070.54" y2="1216.15"/><line class="cls-4" x1="618.72" y1="939.56" x2="169.75" y2="374.22"/><line class="cls-9" x1="1070.54" y1="1216.15" x2="1154.95" y2="1330.1"/><path class="cls-7" d="M858.11,688.55a7.48,7.48,0,1,1-4.92,9.36A7.48,7.48,0,0,1,858.11,688.55Z"/><path class="cls-7" d="M1338,630a7.48,7.48,0,1,1-4.91,9.37A7.49,7.49,0,0,1,1338,630Z"/><path class="cls-7" d="M1115.7,631.88a7.48,7.48,0,1,1-4.91,9.37A7.48,7.48,0,0,1,1115.7,631.88Z"/><circle class="cls-7" cx="1089.98" cy="942.13" r="11.22" transform="translate(-22.74 1857.3) rotate(-80.27)"/><path class="cls-7" d="M691,818.58a7.48,7.48,0,1,1-4.91,9.37A7.48,7.48,0,0,1,691,818.58Z"/><path class="cls-10" d="M958.63,1105.72a4.79,4.79,0,1,1-3.14,6A4.79,4.79,0,0,1,958.63,1105.72Z"/><path class="cls-10" d="M1011.22,1247a9.35,9.35,0,1,1-6.15,11.71A9.35,9.35,0,0,1,1011.22,1247Z"/><path class="cls-7" d="M1218.71,410.4a7.48,7.48,0,1,1-4.91,9.37A7.48,7.48,0,0,1,1218.71,410.4Z"/><path class="cls-10" d="M801.8,1117.89a4.79,4.79,0,1,1-3.15,6A4.78,4.78,0,0,1,801.8,1117.89Z"/><path class="cls-10" d="M1153.52,1325.53a4.79,4.79,0,1,1-3.14,6A4.79,4.79,0,0,1,1153.52,1325.53Z"/><path class="cls-7" d="M853.56,856.55a9.35,9.35,0,1,1-6.14,11.71A9.36,9.36,0,0,1,853.56,856.55Z"/><path class="cls-7" d="M1060.2,972.31a4.68,4.68,0,1,1-3.07,5.86A4.68,4.68,0,0,1,1060.2,972.31Z"/><path class="cls-7" d="M997.8,803.81a4.68,4.68,0,1,1-3.07,5.85A4.67,4.67,0,0,1,997.8,803.81Z"/><path class="cls-7" d="M951.64,639.8a4.73,4.73,0,1,1-3.1,5.92A4.73,4.73,0,0,1,951.64,639.8Z"/><path class="cls-10" d="M1473.17,1040.47a7.48,7.48,0,1,1-4.91,9.37A7.48,7.48,0,0,1,1473.17,1040.47Z"/><path class="cls-7" d="M810.41,948.2a4,4,0,1,1-2.6,4.95A4,4,0,0,1,810.41,948.2Z"/><path class="cls-7" d="M1189.45,957.48a3.12,3.12,0,1,1-2,3.91A3.13,3.13,0,0,1,1189.45,957.48Z"/><path class="cls-7" d="M399.54,894.89a7.48,7.48,0,1,1-4.92,9.37A7.48,7.48,0,0,1,399.54,894.89Z"/><path class="cls-7" d="M848.9,562.11a5.61,5.61,0,1,1-3.69,7A5.6,5.6,0,0,1,848.9,562.11Z"/><path class="cls-7" d="M493.5,537.86a6.12,6.12,0,1,1-4,7.67A6.12,6.12,0,0,1,493.5,537.86Z"/><path class="cls-7" d="M1138.51,512.51a9.35,9.35,0,1,1-6.14,11.71A9.34,9.34,0,0,1,1138.51,512.51Z"/><path class="cls-7" d="M768.63,724.28a7.48,7.48,0,1,1-4.92,9.37A7.48,7.48,0,0,1,768.63,724.28Z"/><path class="cls-7" d="M1303.56,791.42a6.86,6.86,0,1,1-4.51,8.59A6.86,6.86,0,0,1,1303.56,791.42Z"/><path class="cls-7" d="M1001.18,531.62a2.49,2.49,0,1,1-1.63,3.12A2.5,2.5,0,0,1,1001.18,531.62Z"/><path class="cls-7" d="M617.89,936.88a2.81,2.81,0,1,1-1.84,3.51A2.81,2.81,0,0,1,617.89,936.88Z"/><path class="cls-10" d="M1068.58,1209.89a6.56,6.56,0,1,1-4.31,8.22A6.56,6.56,0,0,1,1068.58,1209.89Z"/><path class="cls-10" d="M1564.78,828.38a5.06,5.06,0,1,1-3.32,6.33A5.07,5.07,0,0,1,1564.78,828.38Z"/><path class="cls-8" d="M169,371.87A2.46,2.46,0,1,1,167.4,375,2.45,2.45,0,0,1,169,371.87Z"/><line class="cls-4" x1="2222.27" y1="192.18" x2="1750.07" y2="492.36"/><path class="cls-8" d="M2227.35,192.31a4.79,4.79,0,1,1-3.88-5.55A4.79,4.79,0,0,1,2227.35,192.31Z"/><line class="cls-9" x1="706.19" y1="1104.52" x2="804" y2="1121.38"/><path class="cls-6" d="M51.54,162.45a3.68,3.68,0,1,1-3-4.26A3.68,3.68,0,0,1,51.54,162.45Z"/></g><polyline class="cls-11" points="705.74 1104.89 1131.09 888.86 1052.6 623.07 705.74 1104.89"/><g class="cls-12"><polyline class="cls-13" points="236.24 667.53 1510.9 498 1369.01 364.56 1369.01 364.56 236.24 667.53"/><polyline class="cls-14" points="236.24 667.53 1182.75 1156.72 1510.9 498 236.24 667.53"/><polygon class="cls-15" points="716.31 1087.66 955.78 784.1 236.24 667.53 497.08 976.35 716.31 1087.66"/><polyline class="cls-16" points="1648.11 143.19 1771.69 405.25 1510.9 498 1369.01 364.56 1648.11 143.19"/><polyline class="cls-17" points="1771.69 405.25 1621.88 576.11 1510.9 498 1771.69 405.25"/><polyline class="cls-18" points="1205.08 409.13 695.75 356.33 236.24 667.53 1205.08 409.13"/><polygon class="cls-19" points="716.31 1087.66 497.08 976.35 955.78 784.1 716.31 1087.66"/></g><polyline class="cls-20" points="1771.69 405.25 1621.88 576.11 1763.69 467.2 1771.69 405.25"/><polygon class="cls-21" points="1352.89 746.88 1131.09 888.86 1218.01 573.03 1352.89 746.88"/><polygon class="cls-22" points="1218.01 573.03 1131.09 888.86 1052.6 623.07 1218.01 573.03"/><polygon class="cls-23" points="1218.01 573.03 1205.08 409.13 1352.89 746.88 1218.01 573.03"/><polygon class="cls-24" points="1218.01 573.03 1052.6 623.07 1205.08 409.13 1218.01 573.03"/><polyline class="cls-25" points="1182.75 1156.72 1131.09 888.86 1052.6 623.07 1182.75 1156.72"/><polyline class="cls-26" points="1352.89 747.97 1182.75 1156.72 1131.09 888.86 1352.89 747.97"/><polyline class="cls-27" points="1921.9 419.9 1621.88 576.11 1763.69 467.2 1921.9 419.9"/><polyline class="cls-28" points="1771.69 405.25 1763.69 467.2 1921.9 419.9 1771.69 405.25"/><polyline class="cls-29" points="1001.98 318.32 955.67 206.74 1131.09 335.97 1001.98 318.32"/><polyline class="cls-30" points="955.67 206.74 1297.51 255.37 1131.09 335.97 955.67 206.74"/><g class="cls-31"><line class="cls-32" x1="1131.09" y1="888.86" x2="1352.9" y2="747.97"/><line class="cls-32" x1="1352.9" y1="747.97" x2="1377.01" y2="467.2"/><line class="cls-32" x1="1052.6" y1="623.07" x2="1377.01" y2="467.2"/><line class="cls-32" x1="1052.6" y1="623.07" x2="1131.09" y2="888.86"/><line class="cls-32" x1="1352.9" y1="747.97" x2="1284.15" y2="975.36"/><line class="cls-32" x1="1455.08" y1="995.77" x2="1131.09" y2="888.86"/><line class="cls-32" x1="1455.08" y1="995.77" x2="1284.15" y2="975.36"/><line class="cls-32" x1="955.67" y1="206.74" x2="580.75" y2="56.71"/><line class="cls-32" x1="1377.01" y1="467.2" x2="1297.51" y2="255.37"/><line class="cls-32" x1="955.67" y1="206.74" x2="1377.01" y2="467.2"/><line class="cls-32" x1="1297.51" y1="255.37" x2="1384.09" y2="263.36"/><line class="cls-32" x1="1384.09" y1="263.36" x2="1771.69" y2="405.25"/><line class="cls-32" x1="1205.08" y1="143.19" x2="1297.51" y2="255.37"/><line class="cls-32" x1="955.67" y1="206.74" x2="1205.08" y2="143.19"/><line class="cls-32" x1="580.75" y1="56.71" x2="272.01" y2="216.87"/><line class="cls-32" x1="976.02" y1="487.3" x2="1052.6" y2="623.07"/><line class="cls-32" x1="976.02" y1="487.3" x2="1205.08" y2="409.13"/><line class="cls-32" x1="1205.08" y1="409.13" x2="1377.01" y2="467.2"/><line class="cls-32" x1="1205.08" y1="409.13" x2="1052.6" y2="623.07"/><line class="cls-32" x1="1052.6" y1="623.07" x2="779.27" y2="516.1"/><line class="cls-32" x1="236.24" y1="667.53" x2="524.06" y2="885.29"/><line class="cls-32" x1="868.09" y1="817.83" x2="1052.6" y2="623.07"/><line class="cls-32" x1="868.09" y1="817.83" x2="1131.09" y2="888.86"/><line class="cls-32" x1="705.74" y1="1104.89" x2="868.09" y2="817.83"/><line class="cls-32" x1="236.24" y1="667.53" x2="1052.6" y2="623.07"/><line class="cls-32" x1="779.27" y1="516.1" x2="236.24" y2="667.53"/><line class="cls-32" x1="236.24" y1="667.53" x2="236.78" y2="650.55"/><line class="cls-32" x1="1001.98" y1="318.32" x2="779.27" y2="516.1"/><line class="cls-32" x1="1131.09" y1="335.97" x2="1001.98" y2="318.32"/><line class="cls-32" x1="955.67" y1="206.74" x2="1131.09" y2="335.97"/><line class="cls-32" x1="1131.09" y1="335.97" x2="1205.08" y2="409.13"/><line class="cls-32" x1="1131.09" y1="335.97" x2="1297.51" y2="255.37"/><line class="cls-32" x1="1648.11" y1="143.19" x2="1369.01" y2="364.56"/><line class="cls-32" x1="1369.01" y1="364.56" x2="1377.01" y2="467.2"/><line class="cls-32" x1="1369.01" y1="364.56" x2="1297.51" y2="255.37"/><line class="cls-32" x1="1648.11" y1="143.19" x2="1771.69" y2="405.25"/><line class="cls-32" x1="1771.69" y1="405.25" x2="1763.69" y2="467.2"/><line class="cls-32" x1="1763.69" y1="467.2" x2="1921.9" y2="419.9"/><line class="cls-32" x1="1399.93" y1="578.11" x2="1377.01" y2="467.2"/><line class="cls-32" x1="1399.93" y1="578.11" x2="1352.9" y2="747.97"/><line class="cls-32" x1="1399.93" y1="578.11" x2="1496.91" y2="663.04"/><line class="cls-32" x1="1399.93" y1="578.11" x2="1621.88" y2="576.11"/><line class="cls-32" x1="1621.88" y1="576.11" x2="1496.91" y2="663.04"/><line class="cls-32" x1="1621.88" y1="576.11" x2="1763.69" y2="467.2"/><line class="cls-32" x1="1885.21" y1="265.36" x2="1921.9" y2="419.9"/><line class="cls-32" x1="1510.9" y1="498.01" x2="1885.21" y2="265.36"/><line class="cls-32" x1="1465.41" y1="809.2" x2="1510.9" y2="498.01"/><line class="cls-32" x1="1455.08" y1="995.77" x2="1465.41" y2="809.2"/><line class="cls-32" x1="1465.41" y1="809.2" x2="1496.91" y2="663.04"/><line class="cls-32" x1="1182.75" y1="1156.72" x2="1496.91" y2="663.04"/><line class="cls-32" x1="705.74" y1="1104.89" x2="1284.15" y2="975.36"/><line class="cls-32" x1="272.01" y1="216.87" x2="779.27" y2="516.1"/><line class="cls-32" x1="236.78" y1="650.55" x2="272.01" y2="216.87"/><line class="cls-32" x1="1921.9" y1="419.9" x2="2250.93" y2="89.31"/><line class="cls-32" x1="1384.09" y1="263.36" x2="1205.08" y2="143.19"/><line class="cls-32" x1="1052.6" y1="623.07" x2="1218.01" y2="573.03"/><line class="cls-32" x1="1218.01" y1="573.03" x2="1377.01" y2="467.2"/><line class="cls-32" x1="955.67" y1="206.74" x2="779.27" y2="516.1"/><line class="cls-32" x1="577.41" y1="56.71" x2="1052.6" y2="623.07"/><line class="cls-32" x1="1205.08" y1="143.19" x2="1885.21" y2="265.36"/><line class="cls-32" x1="1860.83" y1="799.2" x2="1921.9" y2="419.9"/><line class="cls-32" x1="1465.41" y1="809.2" x2="1860.83" y2="799.2"/><line class="cls-32" x1="1352.9" y1="747.97" x2="1860.83" y2="799.2"/><circle class="cls-33" cx="524.06" cy="885.29" r="6.75"/><line class="cls-32" x1="706.19" y1="1104.52" x2="524.06" y2="885.29"/><line class="cls-32" x1="1282.94" y1="976.35" x2="1131.17" y2="888.66"/><line class="cls-32" x1="524.06" y1="885.29" x2="868.09" y2="817.83"/><line class="cls-32" x1="1053.59" y1="622.21" x2="524.06" y2="885.29"/><line class="cls-32" x1="706.19" y1="1104.52" x2="1131.17" y2="888.66"/><line class="cls-32" x1="1003" y1="318.66" x2="955.78" y2="207.36"/></g><g class="cls-34"><circle class="cls-33" cx="1377.01" cy="467.2" r="7.99"/><circle class="cls-33" cx="1284.15" cy="975.36" r="7.99"/><circle class="cls-33" cx="1352.9" cy="747.97" r="7.99"/><circle class="cls-33" cx="1052.6" cy="623.07" r="11.99"/><circle class="cls-33" cx="1297.51" cy="255.37" r="7.99"/><circle class="cls-33" cx="955.67" cy="206.74" r="9.99"/><circle class="cls-33" cx="695.75" cy="356.33" r="4"/><circle class="cls-33" cx="1455.08" cy="995.77" r="7.99"/><circle class="cls-33" cx="1860.83" cy="799.2" r="7.99"/><circle class="cls-33" cx="1621.88" cy="576.11" r="4"/><circle class="cls-33" cx="1327.05" cy="867.37" r="5.38"/><circle class="cls-33" cx="1001.98" cy="318.32" r="7.99"/><circle class="cls-33" cx="1205.08" cy="409.13" r="9.99"/><circle class="cls-33" cx="975.7" cy="488.66" r="5"/><circle class="cls-33" cx="1218.01" cy="573.03" r="5"/><path class="cls-33" d="M1405,578.11a5.06,5.06,0,1,1-5-5.06A5,5,0,0,1,1405,578.11Z"/><circle class="cls-33" cx="236.24" cy="667.53" r="7.99"/><path class="cls-33" d="M1188.08,1156.72a5.33,5.33,0,1,1-5.33-5.33A5.32,5.32,0,0,1,1188.08,1156.72Z"/><circle class="cls-33" cx="1131.09" cy="335.97" r="4.22"/><circle class="cls-33" cx="867.06" cy="817.47" r="3.33"/><circle class="cls-33" cx="1384.09" cy="263.36" r="7.99"/><path class="cls-33" d="M1928.56,419.9a6.66,6.66,0,1,1-6.66-6.66A6.66,6.66,0,0,1,1928.56,419.9Z"/><circle class="cls-33" cx="1510.9" cy="498.01" r="6"/><circle class="cls-33" cx="1771.69" cy="405.25" r="7.99"/><path class="cls-33" d="M1654.65,143.19a6.55,6.55,0,1,1-6.54-6.54A6.54,6.54,0,0,1,1654.65,143.19Z"/><circle class="cls-33" cx="1465.41" cy="809.2" r="9.99"/><circle class="cls-33" cx="1763.69" cy="467.2" r="6"/><circle class="cls-33" cx="1885.21" cy="265.36" r="6"/><circle class="cls-33" cx="1369.01" cy="364.56" r="7.99"/><circle class="cls-33" cx="1131.09" cy="888.86" r="7.33"/><path class="cls-33" d="M1499.57,663a2.67,2.67,0,1,1-2.66-2.67A2.66,2.66,0,0,1,1499.57,663Z"/><circle class="cls-33" cx="1205.08" cy="143.19" r="3"/><path class="cls-33" d="M584.09,56.71a3.34,3.34,0,1,1-3.34-3.34A3.33,3.33,0,0,1,584.09,56.71Z"/><path class="cls-33" d="M790.23,516.1a11,11,0,1,1-11-11A11,11,0,0,1,790.23,516.1Z"/><path class="cls-33" d="M711.14,1104.89a5.41,5.41,0,1,1-5.4-5.41A5.4,5.4,0,0,1,711.14,1104.89Z"/><line class="cls-32" x1="976.02" y1="487.3" x2="780.4" y2="517.65"/></g><circle class="cls-35" cx="1131.09" cy="888.85" r="16.11"/><path class="cls-36" d="M1873.21,799.2a12.39,12.39,0,1,1-12.38-12.38A12.38,12.38,0,0,1,1873.21,799.2Z"/><circle class="cls-35" cx="1205.08" cy="143.19" r="7.99"/><circle class="cls-35" cx="1131.09" cy="336.09" r="9.99"/><circle class="cls-35" cx="1182.75" cy="1156.72" r="7.99"/><path class="cls-35" d="M1503.57,663a6.66,6.66,0,1,1-6.66-6.66A6.66,6.66,0,0,1,1503.57,663Z"/><circle class="cls-35" cx="1327.05" cy="867.37" r="7.99"/><circle class="cls-35" cx="705.74" cy="1104.89" r="7.99"/><g class="cls-37"><path class="cls-38" d="M1334.47-46C1923-94.64,2418.76,96.2,2441.87,380.22s-435.2,553.66-1023.69,602.27S333.89,840.25,310.77,556.24,746,2.57,1334.47-46Z"/></g><g class="cls-39"><path class="cls-40" d="M2171,358.32c22.65,131-240,285.87-586.7,346s-646.09,2.77-668.75-128.18,240-285.87,586.71-346S2148.33,227.37,2171,358.32Z"/></g><line class="cls-32" x1="581.4" y1="55.58" x2="696.08" y2="355.76"/><line class="cls-32" x1="524.06" y1="885.29" x2="41.75" y2="747"/><line class="cls-32" x1="706.19" y1="1104.52" x2="41.75" y2="747"/><line class="cls-32" x1="237.38" y1="666.06" x2="41.75" y2="747"/><line class="cls-32" x1="1883.3" y1="264.69" x2="2250.93" y2="89.31"/><circle class="cls-33" cx="237.5" cy="668.61" r="7.99"/><circle class="cls-33" cx="41.88" cy="746.18" r="5.12"/><circle class="cls-33" cx="271.23" cy="216.65" r="5.12"/><circle class="cls-33" cx="2251.06" cy="88.49" r="5.12"/><line class="cls-9" x1="1454.95" y1="996.59" x2="1475.19" y2="1047.18"/></g></g></svg>