<svg xmlns="http://www.w3.org/2000/svg" xmlns:xlink="http://www.w3.org/1999/xlink" viewBox="0 0 1168 324"><defs><style>.cls-1{fill:#ffeb74;}.cls-2{fill:#fff;}.cls-3{fill:url(#linear-gradient);}</style><linearGradient id="linear-gradient" x1="93.05" y1="319.17" x2="93.05" y2="161.23" gradientUnits="userSpaceOnUse"><stop offset="0" stop-color="#ead050" stop-opacity="0.6"/><stop offset="0.03" stop-color="#ecd353" stop-opacity="0.64"/><stop offset="0.14" stop-color="#f2da5d" stop-opacity="0.75"/><stop offset="0.26" stop-color="#f7e066" stop-opacity="0.84"/><stop offset="0.39" stop-color="#fae56c" stop-opacity="0.91"/><stop offset="0.53" stop-color="#fde871" stop-opacity="0.96"/><stop offset="0.71" stop-color="#ffea73" stop-opacity="0.99"/><stop offset="1" stop-color="#ffeb74"/></linearGradient></defs><title>logo_lightningcharge</title><g id="Layer_1" data-name="Layer 1"><path class="cls-1" d="M261.69,98.89l-41,62.32H209.13l41-62.32Zm3.69-24h12.69l-7.89,12h-12.7Z"/><path class="cls-1" d="M274.3,110.42a24.65,24.65,0,0,1,3.88-4.51,30.56,30.56,0,0,1,4.86-3.65,26,26,0,0,1,5.28-2.46,16,16,0,0,1,5-.91H314a7.62,7.62,0,0,1,3.77.85,4.48,4.48,0,0,1,2,2.34,6.54,6.54,0,0,1,.21,3.51,12.38,12.38,0,0,1-1.81,4.3l7.24-11H337l-50,76a23.84,23.84,0,0,1-3.87,4.5,30.25,30.25,0,0,1-4.87,3.66,27,27,0,0,1-5.27,2.46,16.15,16.15,0,0,1-5.1.9h-36.4l7.59-11.52h36.4l10.56-16H253.9a7.28,7.28,0,0,1-3.84-.91,4.5,4.5,0,0,1-2-2.46,6.61,6.61,0,0,1-.05-3.66,13.88,13.88,0,0,1,2.06-4.5Zm19.32,36.86,24.27-36.86H285.77l-24.28,36.86Z"/><path class="cls-1" d="M372.24,161.21H360.71l33.45-50.79H362l-33.45,50.79H317.12L374,74.91h11.47l-23.05,35a26,26,0,0,1,3.89-4.3,31,31,0,0,1,4.8-3.51,26.45,26.45,0,0,1,5.14-2.34,16.09,16.09,0,0,1,4.94-.85h20.6a7.57,7.57,0,0,1,3.91.91,4.55,4.55,0,0,1,2,2.46,6.77,6.77,0,0,1,.05,3.65,14,14,0,0,1-2.06,4.51Z"/><path class="cls-1" d="M424.92,98.89h15.21L452.77,79.7H464.3L451.66,98.89h20.47l-7.59,11.53H444.06l-25.85,39.26h20.48l-7.6,11.53H410.62a7.41,7.41,0,0,1-3.85-.91,4.67,4.67,0,0,1-2.07-2.46,6.5,6.5,0,0,1-.08-3.66,14.1,14.1,0,0,1,2.06-4.5l25.86-39.26H417.33Z"/><path class="cls-1" d="M503.44,161.21H491.91l33.45-50.79H493.24l-33.45,50.79H448.32l41-62.32h11.47l-7.25,11a26,26,0,0,1,3.89-4.3,31,31,0,0,1,4.8-3.51,26.45,26.45,0,0,1,5.14-2.34,16.2,16.2,0,0,1,4.95-.85H533a7.57,7.57,0,0,1,3.91.91,4.5,4.5,0,0,1,2,2.46,6.67,6.67,0,0,1,.05,3.65,14,14,0,0,1-2.06,4.51Z"/><path class="cls-1" d="M575.78,98.89l-41,62.32H523.21l41-62.32Zm3.69-24h12.69l-7.9,12H571.57Z"/><path class="cls-1" d="M611.59,161.21H600.07l33.44-50.79H601.39l-33.45,50.79H556.48l41-62.32H609l-7.24,11a25.52,25.52,0,0,1,3.89-4.3,31,31,0,0,1,4.79-3.51,26.72,26.72,0,0,1,5.14-2.34,16.2,16.2,0,0,1,5-.85H641.1a7.54,7.54,0,0,1,3.91.91,4.46,4.46,0,0,1,2,2.46,6.67,6.67,0,0,1,.05,3.65,13.83,13.83,0,0,1-2.06,4.51Z"/><path class="cls-1" d="M662.27,110.42a24.2,24.2,0,0,1,3.87-4.51,30.19,30.19,0,0,1,4.87-3.65,25.89,25.89,0,0,1,5.27-2.46,16.13,16.13,0,0,1,5.05-.91H702a7.59,7.59,0,0,1,3.77.85,4.5,4.5,0,0,1,2.06,2.34,6.45,6.45,0,0,1,.2,3.51,12.16,12.16,0,0,1-1.8,4.3l7.24-11H725l-50,76a23.84,23.84,0,0,1-3.87,4.5,30.25,30.25,0,0,1-4.87,3.66,26.82,26.82,0,0,1-5.28,2.46,16.15,16.15,0,0,1-5.1.9H619.45L627,174.84h36.39l10.56-16H641.87a7.34,7.34,0,0,1-3.85-.91,4.54,4.54,0,0,1-2-2.46,6.7,6.7,0,0,1-.05-3.66,14.1,14.1,0,0,1,2.06-4.5Zm19.31,36.86,24.28-36.86H673.74l-24.28,36.86Z"/><path class="cls-2" d="M750.49,89.3a25.34,25.34,0,0,1,4-4.65,30.77,30.77,0,0,1,5.08-3.81,29,29,0,0,1,5.53-2.57,16.3,16.3,0,0,1,5.29-1h45.52a7.44,7.44,0,0,1,4,1,5,5,0,0,1,2.14,2.57,6.76,6.76,0,0,1,.07,3.81A14.63,14.63,0,0,1,820,89.3l-7.13,10.82h-12L808,89.3H762.49L723,149.21h45.52l7.09-10.77h12l-7.1,10.77a24.59,24.59,0,0,1-4,4.65,30.69,30.69,0,0,1-5.09,3.83,27.58,27.58,0,0,1-5.53,2.58,16.88,16.88,0,0,1-5.27.94H715.13a7.83,7.83,0,0,1-4-.94,4.66,4.66,0,0,1-2.14-2.58,6.94,6.94,0,0,1-.05-3.83,14.81,14.81,0,0,1,2.12-4.65Z"/><path class="cls-2" d="M845.78,161.21H834.26l33.44-50.79H835.58l-33.45,50.79H790.66l56.84-86.3H859l-23,35a25.89,25.89,0,0,1,3.88-4.3,31,31,0,0,1,4.8-3.51,26.45,26.45,0,0,1,5.14-2.34,16.2,16.2,0,0,1,5-.85h20.59a7.57,7.57,0,0,1,3.91.91,4.46,4.46,0,0,1,2,2.46,6.67,6.67,0,0,1,0,3.65,14,14,0,0,1-2.06,4.51Z"/><path class="cls-2" d="M880.93,134a24,24,0,0,1,3.85-4.48,31.73,31.73,0,0,1,4.87-3.65,25.46,25.46,0,0,1,5.3-2.49,16,16,0,0,1,5-.91h29.72l7.94-12H900l7.59-11.53h37.62a7.57,7.57,0,0,1,3.91.91,4.48,4.48,0,0,1,2,2.46,6.58,6.58,0,0,1,.05,3.65,13.83,13.83,0,0,1-2.06,4.51l-33.44,50.79H904.2l6.94-10.54a24.72,24.72,0,0,1-3.87,4.1,31.13,31.13,0,0,1-4.76,3.36,26.5,26.5,0,0,1-5,2.26,15.72,15.72,0,0,1-4.76.82H874.48a7.44,7.44,0,0,1-3.85-.91,4.53,4.53,0,0,1-2-2.46,6.7,6.7,0,0,1-.05-3.66,14.1,14.1,0,0,1,2.06-4.5Zm1.14,15.68h29.72L922.12,134H892.39Z"/><path class="cls-2" d="M979.83,110.42l-33.44,50.79H934.92l41-62.32h11.47l-7.24,11a25.89,25.89,0,0,1,3.88-4.3,31,31,0,0,1,4.8-3.51A26.45,26.45,0,0,1,994,99.74a16.2,16.2,0,0,1,5-.85h12.23a7.34,7.34,0,0,1,3.87.91,4.63,4.63,0,0,1,2,2.46,6.38,6.38,0,0,1,.08,3.65,13.83,13.83,0,0,1-2.06,4.51L1008.18,121H996.65l6.94-10.53Z"/><path class="cls-2" d="M1029.45,110.42a24.2,24.2,0,0,1,3.87-4.51,30.19,30.19,0,0,1,4.87-3.65,25.89,25.89,0,0,1,5.27-2.46,16.07,16.07,0,0,1,5-.91h20.66a7.59,7.59,0,0,1,3.77.85,4.54,4.54,0,0,1,2.06,2.34,6.65,6.65,0,0,1,.2,3.51,12.19,12.19,0,0,1-1.81,4.3l7.25-11h11.52l-50,76a24.27,24.27,0,0,1-3.88,4.5,30.63,30.63,0,0,1-4.86,3.66,27.09,27.09,0,0,1-5.28,2.46,16.15,16.15,0,0,1-5.1.9H986.63l7.59-11.52h36.39l10.56-16h-32.12a7.32,7.32,0,0,1-3.85-.91,4.5,4.5,0,0,1-2-2.46,6.61,6.61,0,0,1,0-3.66,14.1,14.1,0,0,1,2.06-4.5Zm19.31,36.86L1073,110.42h-32.12l-24.27,36.86Z"/><path class="cls-2" d="M1139.67,135.93h-41.25l-9.06,13.75h41.25L1123,161.21h-41.25a7.37,7.37,0,0,1-3.84-.91,4.59,4.59,0,0,1-2-2.46,6.71,6.71,0,0,1,0-3.66,13.88,13.88,0,0,1,2.06-4.5l25.85-39.26a24.65,24.65,0,0,1,3.88-4.51,30.11,30.11,0,0,1,4.86-3.65,26,26,0,0,1,5.28-2.46,16,16,0,0,1,5-.91h29.72a7.54,7.54,0,0,1,3.91.91,4.46,4.46,0,0,1,2,2.46,6.67,6.67,0,0,1,0,3.65,14,14,0,0,1-2.06,4.51Zm-24.45-25.51-9.21,14h29.72l9.21-14Z"/><polygon class="cls-1" points="1061.95 180.47 1167.52 180.47 1161.3 186.17 1055.74 186.17 1061.95 180.47"/><path class="cls-2" d="M798.15,221.9a10.19,10.19,0,0,1,4.08-.83,7.31,7.31,0,0,1,6.11,2.79c1.45,1.87,2.17,4.51,2.18,7.92a24,24,0,0,1-1.5,8.3,15.65,15.65,0,0,1-4.79,6.77,12.57,12.57,0,0,1-8.3,2.73,23.29,23.29,0,0,1-4.44-.42,42.43,42.43,0,0,1-5.18-1.39l5.22-37,4.75-.57-2,14.23A14.87,14.87,0,0,1,798.15,221.9Zm-1,4a18,18,0,0,0-3.42,2.9L791.48,245a14.17,14.17,0,0,0,2.33.65,14.74,14.74,0,0,0,2.48.18,7,7,0,0,0,5.25-2.2,13.36,13.36,0,0,0,3.08-5.51,23.52,23.52,0,0,0,1-6.67q0-6.57-4.87-6.57A6.65,6.65,0,0,0,797.12,225.88Z"/><path class="cls-2" d="M821.12,256.65a16.08,16.08,0,0,1-8.74,3.31l-.2-3.72a15.45,15.45,0,0,0,4.47-1.37,9.44,9.44,0,0,0,2.9-2.3,19.08,19.08,0,0,0,2.3-3.73l-1.56.11-5.23-27.26h5l3.83,23.64,10.45-23.65h4.9l-12.6,27.52A19.9,19.9,0,0,1,821.12,256.65Z"/><path class="cls-2" d="M878.35,232.63c1.49,1.32,2.25,3.31,2.25,6,0,3.73-1.31,6.37-3.93,7.94s-6.3,2.36-11,2.36H854.89V213.19h9.36q14.81,0,14.8,9.1a7.12,7.12,0,0,1-1.91,5.15,9,9,0,0,1-4.71,2.56A12.15,12.15,0,0,1,878.35,232.63Zm-16.64-4.75h4.19a7.3,7.3,0,0,0,4.51-1.27,4.48,4.48,0,0,0,1.65-3.75,3.85,3.85,0,0,0-1.74-3.62,10.83,10.83,0,0,0-5.4-1h-3.21Zm9.76,14.79c1.32-.76,2-2.19,2-4.3a5,5,0,0,0-1.89-4.39,8.68,8.68,0,0,0-5.14-1.35h-4.72v11.17h4A11.8,11.8,0,0,0,871.47,242.67Z"/><path class="cls-2" d="M893.11,243.88a1.43,1.43,0,0,0,1.19.49,5,5,0,0,0,1.56-.26l1.4,4.66a12.48,12.48,0,0,1-4.71.93,6.2,6.2,0,0,1-4.76-1.78,7.37,7.37,0,0,1-1.66-5.2V210.59l6.62-.72,0,32.38A2.92,2.92,0,0,0,893.11,243.88Z"/><path class="cls-2" d="M921.74,224.63q3.39,3.85,3.39,10.57a17.6,17.6,0,0,1-1.55,7.58,11.86,11.86,0,0,1-4.45,5.1,12.64,12.64,0,0,1-6.87,1.81q-6.06,0-9.47-3.85t-3.42-10.63a17.29,17.29,0,0,1,1.55-7.55,11.68,11.68,0,0,1,4.47-5.07,12.92,12.92,0,0,1,6.91-1.82Q918.35,220.77,921.74,224.63Zm-15.38,10.58q0,4.86,1.47,7.16a4.9,4.9,0,0,0,4.43,2.3,4.85,4.85,0,0,0,4.41-2.33q1.49-2.33,1.48-7.14t-1.48-7.11a4.85,4.85,0,0,0-4.37-2.29Q906.35,225.8,906.36,235.21Z"/><path class="cls-2" d="M947.18,221.54a13.13,13.13,0,0,1,4.07,2.43l-3,4a10.16,10.16,0,0,0-2.63-1.53,8.16,8.16,0,0,0-2.85-.49q-6.15,0-6.15,9.37,0,4.75,1.61,6.85a5.37,5.37,0,0,0,4.55,2.09,7.07,7.07,0,0,0,2.71-.49,12.71,12.71,0,0,0,2.72-1.63l3,4.34a13.63,13.63,0,0,1-8.84,3.16,13.1,13.1,0,0,1-6.83-1.73,11.32,11.32,0,0,1-4.45-4.94,17.18,17.18,0,0,1-1.56-7.55,18,18,0,0,1,1.56-7.68,11.79,11.79,0,0,1,4.44-5.17,12.43,12.43,0,0,1,6.78-1.85A14.06,14.06,0,0,1,947.18,221.54Z"/><path class="cls-2" d="M956.06,248.9V210.57l6.62-.72,0,39.05Zm23.9,0h-7.6L962.94,234l9.15-12.42h7L970,233.58Z"/><path class="cls-2" d="M1002,224l-2.58,4a12,12,0,0,0-6.73-2.33,5.77,5.77,0,0,0-3.18.75,2.32,2.32,0,0,0-1.11,2,2.54,2.54,0,0,0,.47,1.56,4.18,4.18,0,0,0,1.68,1.16,27.53,27.53,0,0,0,3.59,1.21,15.85,15.85,0,0,1,6.6,3.16,7.07,7.07,0,0,1,2.15,5.48,7.36,7.36,0,0,1-3.31,6.39,14.1,14.1,0,0,1-8.22,2.3,17.42,17.42,0,0,1-6.14-1,15.08,15.08,0,0,1-4.78-2.84l3.36-3.78a11.5,11.5,0,0,0,7.35,2.74,6.51,6.51,0,0,0,3.57-.88,2.68,2.68,0,0,0,1.34-2.33,3.41,3.41,0,0,0-.49-1.94,4.25,4.25,0,0,0-1.76-1.27,35.59,35.59,0,0,0-4-1.34,13.24,13.24,0,0,1-6.15-3.18,7,7,0,0,1-2-5.09,6.78,6.78,0,0,1,1.32-4.09,8.67,8.67,0,0,1,3.72-2.84,13.63,13.63,0,0,1,5.5-1A15.34,15.34,0,0,1,1002,224Z"/><path class="cls-2" d="M1020.75,249.14a13.19,13.19,0,0,1-3.65.51,8.11,8.11,0,0,1-6.13-2.3c-1.4-1.49-2.09-3.71-2.09-6.64V226.28h-4.29v-4.76h4.3v-6.05l6.62-.78v6.82h6.36l-.67,4.77h-5.69v14.27a4.73,4.73,0,0,0,.69,2.9,2.64,2.64,0,0,0,2.2.88,6.32,6.32,0,0,0,3.26-1l2.33,4.3A10.61,10.61,0,0,1,1020.75,249.14Z"/><path class="cls-2" d="M1043.94,221.15l-1.13,6.41a9.89,9.89,0,0,0-2.44-.31,4.63,4.63,0,0,0-3.82,1.73,13.46,13.46,0,0,0-2.22,5.36v14.53h-6.62V221.51h5.74l.63,5.38a9.82,9.82,0,0,1,2.83-4.53,6.49,6.49,0,0,1,4.3-1.58A9.41,9.41,0,0,1,1043.94,221.15Z"/><path class="cls-2" d="M1069.86,237.22h-17.17q.36,4,2.1,5.69a6.27,6.27,0,0,0,4.62,1.7,9.91,9.91,0,0,0,3.42-.59,15.8,15.8,0,0,0,3.41-1.84L1069,246a15.73,15.73,0,0,1-10.13,3.68q-6.25,0-9.65-3.82t-3.39-10.45a18.83,18.83,0,0,1,1.44-7.53,12,12,0,0,1,4.19-5.22,11.2,11.2,0,0,1,6.52-1.89q5.74,0,8.9,3.64t3.16,10.17C1070,234.88,1070,235.77,1069.86,237.22Zm-6.41-4.6q0-7.19-5.33-7.18a4.54,4.54,0,0,0-3.81,1.78q-1.36,1.78-1.62,5.71h10.76Z"/><path class="cls-2" d="M1096.84,244a3.08,3.08,0,0,0,1.57,1.17l-1.39,4.4a8.75,8.75,0,0,1-3.8-1.11,5.61,5.61,0,0,1-2.25-2.87,8.84,8.84,0,0,1-3.49,3.07,10.72,10.72,0,0,1-4.69,1,8.8,8.8,0,0,1-6.46-2.33,8.11,8.11,0,0,1-2.38-6.1,7.89,7.89,0,0,1,3.23-6.8q3.22-2.35,9.23-2.36h3.42v-1.55c0-1.76-.41-3-1.21-3.69a5.88,5.88,0,0,0-3.91-1.06,23.15,23.15,0,0,0-7.24,1.44l-1.55-4.5a27.6,27.6,0,0,1,9.93-2c7,0,10.5,3.14,10.5,9.41v11.48A4.33,4.33,0,0,0,1096.84,244Zm-7-2.5v-5.53h-2.75c-4.27,0-6.41,1.58-6.41,4.76a4.4,4.4,0,0,0,1,3.05,3.73,3.73,0,0,0,2.9,1.08A5.87,5.87,0,0,0,1089.83,241.46Z"/><path class="cls-2" d="M1138.65,223a8.91,8.91,0,0,1,2,6.08v19.81H1134V230.06q0-4.4-3-4.39a4.07,4.07,0,0,0-2.76,1,12.35,12.35,0,0,0-2.41,3.13v19h-6.62V230.07c0-2.93-1-4.4-3-4.4a4.2,4.2,0,0,0-2.82,1,12.49,12.49,0,0,0-2.4,3.13v19h-6.62V221.48h5.74l.52,3.57a9.39,9.39,0,0,1,7.91-4.34,6.73,6.73,0,0,1,6.68,4.6,11.7,11.7,0,0,1,3.57-3.44,8.81,8.81,0,0,1,4.6-1.17A6.67,6.67,0,0,1,1138.65,223Z"/><path class="cls-3" d="M107.87,161.23.23,319.17,185.87,161.23h-78m1.79,2.09h69.63L13.62,304.26Z"/><polygon class="cls-1" points="154.35 98.76 150.72 104.08 223.66 104.08 229.46 98.76 154.35 98.76"/><polygon class="cls-1" points="154.35 98.76 211.99 14.17 77.49 128.6 125.67 128.6 119.87 133.92 71.23 133.92 36.82 163.19 110.44 163.19 150.72 104.08 125.19 104.08 131 98.76 154.35 98.76"/><polygon class="cls-1" points="27.21 128.6 21.41 133.92 71.23 133.92 77.49 128.6 27.21 128.6"/></g></svg>