<?xml version="1.0" encoding="utf-8"?>
<!-- Generator: Adobe Illustrator 24.1.2, SVG Export Plug-In . SVG Version: 6.00 Build 0)  -->
<svg version="1.1" id="Layer_1" xmlns="http://www.w3.org/2000/svg" xmlns:xlink="http://www.w3.org/1999/xlink" x="0px" y="0px"
	 viewBox="0 0 1293.8 372.5" style="enable-background:new 0 0 1293.8 372.5;" xml:space="preserve">
<style type="text/css">
	.st0{fill:#FFFFFF;}
	.st1{fill:#3C82F9;}
	.st2{fill:#3D75F5;}
	.st3{fill:#3E67F1;}
	.st4{fill:#3E5AEE;}
	.st5{fill:#3F4DEB;}
	.st6{fill:#4040E7;}
</style>
<g>
	<g>
		
			<ellipse transform="matrix(0.4444 -0.8958 0.8958 0.4444 -226.8367 301.1669)" class="st0" cx="129.4" cy="333.5" rx="28" ry="21.3"/>
		
			<ellipse transform="matrix(0.4444 -0.8958 0.8958 0.4444 -150.3997 360.9493)" class="st1" cx="215.8" cy="301.7" rx="27.3" ry="22.7"/>
		
			<ellipse transform="matrix(0.4444 -0.8958 0.8958 0.4444 -50.2618 383.2718)" class="st2" cx="283.9" cy="232.2" rx="27.3" ry="23.7"/>
		
			<ellipse transform="matrix(0.6356 -0.7721 0.7721 0.6356 2.747 294.4452)" class="st3" cx="313.3" cy="144.3" rx="24.3" ry="20.2"/>
		
			<ellipse transform="matrix(0.4444 -0.8958 0.8958 0.4444 -247.8832 223.2705)" class="st1" cx="56.1" cy="311.5" rx="24.6" ry="18.9"/>
		
			<ellipse transform="matrix(0.7808 -0.6248 0.6248 0.7808 22.992 198.5796)" class="st4" cx="294.5" cy="66.5" rx="22.8" ry="17.4"/>
		<ellipse transform="matrix(0.5 -0.866 0.866 0.5 -208.6781 141.8902)" class="st2" cx="18.5" cy="251.7" rx="23" ry="16.7"/>
		
			<ellipse transform="matrix(0.5717 -0.8204 0.8204 0.5717 -131.2142 96.2544)" class="st3" cx="26.6" cy="173.8" rx="20.3" ry="14"/>
		
			<ellipse transform="matrix(0.5717 -0.8204 0.8204 0.5717 -65.1812 95.8275)" class="st4" cx="59.2" cy="110.3" rx="17.6" ry="13.2"/>
		
			<ellipse transform="matrix(0.7808 -0.6248 0.6248 0.7808 -11.8491 83.9624)" class="st5" cx="113.7" cy="58.9" rx="16.6" ry="12.7"/>
		
			<ellipse transform="matrix(0.7808 -0.6248 0.6248 0.7808 20.429 116.4824)" class="st6" cx="176.2" cy="29.1" rx="17.4" ry="12.8"/>
		
			<ellipse transform="matrix(0.845 -0.5347 0.5347 0.845 22.1974 134.9314)" class="st5" cx="243.9" cy="29.2" rx="20.9" ry="15.1"/>
	</g>
	<g>
		<path class="st0" d="M455.3,119.5c0,15.4-12.3,20.1-29.3,20.1h-20.9V69.7h18.3c17.9,0,28.9,5,28.9,17.8c0,8.7-6.3,13.6-12.9,15.1
			C447.3,104.1,455.3,107.9,455.3,119.5z M418.4,98.5h8.2c7.3,0,12-3.2,12-9.8c0-7.1-4.9-9.1-14-9.1h-6.3L418.4,98.5L418.4,98.5z
			 M441.3,119c0-8.4-6-11.2-13.7-11.2h-9.2v21.8h7.7C435,129.6,441.4,127.8,441.3,119L441.3,119z"/>
		<path class="st0" d="M482,130.6c1,0,2.1-0.2,3-0.5l2.7,9.1c-2.9,1.2-6.1,1.8-9.2,1.8c-8,0-12.6-4.8-12.6-13.6V64.7l12.9-1.4v63.3
			C478.9,129.4,479.8,130.6,482,130.6z"/>
		<path class="st0" d="M543.8,112.8c0,16.8-9.4,28.3-25.2,28.3c-15.9,0-25.2-10.7-25.2-28.3c0-16.8,9.4-28.2,25.2-28.2
			C534.4,84.6,543.8,95.3,543.8,112.8z M507.2,112.8c0,12.8,4,18.4,11.5,18.4c7.5,0,11.5-5.8,11.5-18.4c0-12.7-4-18.4-11.5-18.4
			c-7.5,0-11.7,5.8-11.7,18.4H507.2z"/>
		<path class="st0" d="M592.9,90.9l-5.8,7.9c-2.9-2.6-6.8-4-10.7-4c-7.5,0-12,5.5-12,18.3s4.8,17.5,12,17.5
			c3.9-0.1,7.7-1.6,10.6-4.2l6,8.4c-4.9,4-11,6.2-17.3,6.1c-15.5,0-25-10.7-25-27.7s9.6-28.5,25-28.5
			C581.9,84.4,588.2,86.6,592.9,90.9z"/>
		<path class="st0" d="M601.8,139.6V64.7l12.9-1.4v76.3H601.8z M648.5,139.6h-14.9l-18.4-29.3l17.9-24.2h13.6l-17.8,23.6
			L648.5,139.6z"/>
		<path class="st0" d="M694,90.9l-5,7.8c-3.8-2.8-8.4-4.5-13.2-4.5c-5.5,0-8.4,2.2-8.4,5.3s2.1,5.2,11.2,7.7
			c10.9,2.9,17.1,7.3,17.1,16.8c0,11.1-10.3,17-22.6,17c-7.8,0.2-15.4-2.5-21.3-7.6l6.6-7.3c4,3.3,9.1,5.3,14.3,5.3
			c5.8,0,9.6-2.5,9.6-6.3c0-4.7-2.1-6.1-12.1-8.9c-11-3-15.9-8.3-15.9-16.1c0-8.9,8.1-15.5,20.6-15.5
			C681.9,84.4,688.6,86.7,694,90.9z"/>
		<path class="st0" d="M725.2,141.1c-10.4-0.2-16.1-6.1-16.1-17.5V95.3h-8.4v-9.2h8.4V74.4l12.9-1.5v13.3h12.4l-1.3,9.2H722v27.9
			c0,5.3,1.7,7.3,5.7,7.3c2.2-0.2,4.5-0.8,6.3-2.2l4.5,8.4C734.6,139.6,729.9,141.1,725.2,141.1z"/>
		<path class="st0" d="M778.1,85.4L775.9,98c-1.5-0.4-3.2-0.6-4.8-0.6c-6.5,0-9.8,4.8-11.8,13.7v28.5h-12.9V86.2h11.2l1.2,10.4
			c2.5-7.7,7.7-12,14-12C774.5,84.6,776.4,85,778.1,85.4z"/>
		<path class="st0" d="M829.2,116.8h-33.5c0.9,10.9,6.1,14.4,13.2,14.4c4.9-0.1,9.5-1.8,13.3-4.8l5.3,7.3
			c-5.6,4.6-12.5,7.2-19.9,7.2c-16.6,0-25.4-11-25.4-27.9c0-16.3,8.6-28.5,23.8-28.5c15.1,0,23.6,10.1,23.6,26.9
			C829.5,113.3,829.4,115.4,829.2,116.8z M816.8,107.9c0-8.8-3.1-14-10.4-14c-6.1,0-9.9,4-10.4,14.7h21L816.8,107.9L816.8,107.9z"/>
		<path class="st0" d="M884.8,132.3l-2.7,8.6c-5.8-0.5-9.6-2.6-11.8-7.8c-3.6,5.3-9.6,8.3-15.9,8c-10.7,0-17.3-6.8-17.3-16.4
			c0-11.6,8.8-17.9,24.4-17.9h6.7v-2.9c0-7-3.2-9.3-10-9.3c-4.8,0.2-9.6,1.2-14.1,2.9l-3-8.8c6.2-2.5,12.8-3.7,19.5-3.8
			c14.3,0,20.5,6.6,20.5,18.4v22.4C880.8,129.8,882.2,131.3,884.8,132.3z M868,125.1v-10.9h-5.3c-8.4,0-12.6,3-12.6,9.3
			c0,5.2,2.6,8.1,7.6,8.1C862.1,131.7,866.1,129.1,868,125.1L868,125.1z"/>
		<path class="st0" d="M966.3,100.9v38.7h-13v-36.7c0-6.6-2.6-8.6-5.8-8.6c-4.5,0-7.2,3.1-10.1,8.1v37.2h-13V103
			c0-6.6-2.7-8.6-5.8-8.6c-4.5,0-7.3,3.1-10.2,8.1v37.2h-12.9V86.2h11.2l1,7c3.3-5.3,9.2-8.5,15.5-8.4c5.8-0.2,11.2,3.4,12.9,9
			c4.1-5.6,9-9,16.1-9C960.6,84.6,966.3,90.8,966.3,100.9z"/>
	</g>
	<g>
		<path class="st1" d="M471.3,259.3c-5-4.7-11.7-7.4-21.8-8.8l-14-2c-4.7-0.6-8.9-2.5-11.6-4.9c-2.6-2.4-3.9-5.7-3.9-9.4
			c0-7.5,5.1-16.3,19.5-16.3c7.7,0,16.6,1,24.2,7.7l12.8-12.6c-9.5-8.8-20.4-12.5-36.3-12.5c-24.2,0-39.8,13.6-39.8,34.5
			c0,9.6,2.6,16.8,8.1,22.3c5,4.9,12.3,8,22.2,9.4l14.3,2c5.5,0.9,8.5,2.1,11.2,4.5c2.6,2.5,4.1,6.2,4.1,10.9
			c0,10.3-7.9,15.9-22.2,15.9c-12.3,0-21.6-3.1-28.5-9.4l-13.1,13.1c10.3,10,22.7,14.3,41.2,14.3c25.8,0,42.5-13.6,42.5-34.5
			C480,272.9,477.1,264.8,471.3,259.3z"/>
		<path class="st1" d="M575.1,296.1l6.9,20.9h21.3l-42.2-115.4h-16.3l-42,115.4h21.2l7.1-20.9H575.1z M553.6,230.9l16.3,48.3h-33
			L553.6,230.9z"/>
		<polygon class="st1" points="695.4,201.5 613.3,201.5 613.3,219.4 644.1,219.4 644.1,316.9 664.5,316.9 664.5,219.4 695.4,219.4 
					"/>
		<polygon class="st1" points="802.8,219.4 802.8,201.5 727.7,201.5 727.7,316.9 802.8,316.9 802.8,299 748.2,299 748.2,267.7 
			794.7,267.7 794.7,249.7 748.2,249.7 748.2,219.4 		"/>
		<polygon class="st1" points="839,201.5 839,316.9 912.9,316.9 912.9,299 859.4,299 859.4,201.5 		"/>
		<polygon class="st1" points="945.2,201.5 945.2,316.9 1019.2,316.9 1019.2,299 965.7,299 965.7,201.5 		"/>
		<rect x="1051.6" y="201.5" class="st1" width="20.4" height="115.4"/>
		<polygon class="st1" points="1186.4,201.5 1104.3,201.5 1104.3,219.4 1135.1,219.4 1135.1,316.9 1155.5,316.9 1155.5,219.4 
			1186.4,219.4 		"/>
		<polygon class="st1" points="1293.8,219.4 1293.8,201.5 1218.7,201.5 1218.7,316.9 1293.8,316.9 1293.8,299 1239.2,299 
			1239.2,267.7 1285.7,267.7 1285.7,249.7 1239.2,249.7 1239.2,219.4 		"/>
	</g>
</g>
</svg>
