<svg id="Layer_1" data-name="Layer 1" xmlns="http://www.w3.org/2000/svg" xmlns:xlink="http://www.w3.org/1999/xlink" viewBox="0 0 1421.4 1119.24"><defs><style>.cls-1,.cls-51,.cls-55,.cls-56,.cls-7{opacity:0.3;}.cls-2{fill:url(#linear-gradient);}.cls-3{fill:url(#linear-gradient-2);}.cls-4,.cls-5,.cls-9{fill:none;}.cls-4,.cls-9{stroke:#00a6ff;}.cls-4,.cls-5{stroke-linecap:round;stroke-linejoin:round;stroke-width:24.04px;}.cls-5{stroke:#f545bd;}.cls-6{opacity:0.3;}.cls-7{fill:#111440;}.cls-8{opacity:0.15;}.cls-9{stroke-miterlimit:10;stroke-width:3.28px;}.cls-10{fill:url(#linear-gradient-3);}.cls-11{fill:url(#linear-gradient-4);}.cls-12,.cls-17,.cls-24,.cls-32,.cls-35,.cls-38,.cls-41,.cls-44,.cls-47,.cls-52{opacity:0.4;}.cls-12{fill:url(#radial-gradient);}.cls-13{fill:url(#linear-gradient-5);}.cls-14{fill:url(#linear-gradient-6);}.cls-15{fill:#1384d8;}.cls-16,.cls-52,.cls-53,.cls-54{fill:#00c3ff;}.cls-17{fill:url(#New_Gradient_Swatch_copy_20);}.cls-18,.cls-19,.cls-20,.cls-21{fill:aqua;}.cls-18,.cls-26{opacity:0.5;}.cls-19,.cls-27{opacity:0.2;}.cls-20,.cls-28,.cls-54{opacity:0.1;}.cls-21,.cls-29{opacity:0.03;}.cls-22,.cls-23{opacity:0.7;}.cls-22{fill:url(#linear-gradient-7);}.cls-23{fill:url(#linear-gradient-8);}.cls-24{fill:url(#linear-gradient-9);}.cls-25,.cls-26,.cls-27,.cls-28,.cls-29{fill:#f545bd;}.cls-30{fill:url(#linear-gradient-10);}.cls-31{fill:url(#linear-gradient-11);}.cls-32{fill:url(#radial-gradient-2);}.cls-33{fill:url(#linear-gradient-12);}.cls-34{fill:url(#linear-gradient-13);}.cls-35{fill:url(#New_Gradient_Swatch_copy_20-2);}.cls-36{fill:url(#linear-gradient-14);}.cls-37{fill:url(#linear-gradient-15);}.cls-38{fill:url(#radial-gradient-3);}.cls-39{fill:url(#linear-gradient-16);}.cls-40{fill:url(#linear-gradient-17);}.cls-41{fill:url(#New_Gradient_Swatch_copy_20-3);}.cls-42{fill:url(#linear-gradient-18);}.cls-43{fill:url(#linear-gradient-19);}.cls-44{fill:url(#radial-gradient-4);}.cls-45{fill:url(#linear-gradient-20);}.cls-46{fill:url(#linear-gradient-21);}.cls-47{fill:url(#New_Gradient_Swatch_copy_20-4);}.cls-48{opacity:0.8;}.cls-49{fill:url(#linear-gradient-22);}.cls-50{fill:url(#radial-gradient-5);}.cls-51{fill:url(#linear-gradient-23);}.cls-53{opacity:0.6;}.cls-55{fill:url(#linear-gradient-24);}.cls-56{fill:url(#linear-gradient-25);}</style><linearGradient id="linear-gradient" x1="59.87" y1="738.44" x2="1362.91" y2="738.44" gradientUnits="userSpaceOnUse"><stop offset="0" stop-color="#224fc3"/><stop offset="0.33" stop-color="#2939b4"/><stop offset="0.74" stop-color="#3023a5"/><stop offset="1" stop-color="#331ba0"/></linearGradient><linearGradient id="linear-gradient-2" x1="59.83" y1="541.11" x2="1362.95" y2="541.11" gradientUnits="userSpaceOnUse"><stop offset="0" stop-color="#2f3640"/><stop offset="1" stop-color="#616d7d"/></linearGradient><linearGradient id="linear-gradient-3" x1="665.03" y1="843.34" x2="764.78" y2="843.34" gradientUnits="userSpaceOnUse"><stop offset="0" stop-color="#616d7d"/><stop offset="1" stop-color="#2f3640"/></linearGradient><linearGradient id="linear-gradient-4" x1="665.02" y1="826.12" x2="764.79" y2="826.12" gradientUnits="userSpaceOnUse"><stop offset="0" stop-color="#0f5294"/><stop offset="1" stop-color="#1532d4"/></linearGradient><radialGradient id="radial-gradient" cx="714.91" cy="826.12" r="40.73" gradientUnits="userSpaceOnUse"><stop offset="0" stop-color="#6ce1f5"/><stop offset="0.12" stop-color="#6ce1f5" stop-opacity="0.91"/><stop offset="0.38" stop-color="#6ce1f5" stop-opacity="0.66"/><stop offset="0.75" stop-color="#6ce1f5" stop-opacity="0.27"/><stop offset="1" stop-color="#6ce1f5" stop-opacity="0"/></radialGradient><linearGradient id="linear-gradient-5" x1="665.03" y1="829.92" x2="764.78" y2="829.92" xlink:href="#linear-gradient-3"/><linearGradient id="linear-gradient-6" x1="665.02" y1="812.7" x2="764.79" y2="812.7" gradientUnits="userSpaceOnUse"><stop offset="0" stop-color="#6c8097"/><stop offset="1" stop-color="#616d7d"/></linearGradient><linearGradient id="New_Gradient_Swatch_copy_20" x1="715.5" y1="825.83" x2="715.5" y2="708.9" gradientUnits="userSpaceOnUse"><stop offset="0" stop-color="#1384d8"/><stop offset="0.27" stop-color="#177dd2" stop-opacity="0.7"/><stop offset="0.62" stop-color="#1d74ca" stop-opacity="0.33"/><stop offset="0.88" stop-color="#216ec5" stop-opacity="0.09"/><stop offset="1" stop-color="#226cc3" stop-opacity="0"/></linearGradient><linearGradient id="linear-gradient-7" x1="2999.14" y1="-17681.64" x2="3085.12" y2="-17602.31" gradientTransform="translate(-5932.87 -16180.43) rotate(149.27)" gradientUnits="userSpaceOnUse"><stop offset="0" stop-color="#00c3ff"/><stop offset="1" stop-color="#113659" stop-opacity="0"/></linearGradient><linearGradient id="linear-gradient-8" x1="5896.46" y1="-15988.11" x2="5982.44" y2="-15908.78" gradientTransform="matrix(0.87, 0.49, 0.49, -0.87, 3648.32, -16281.94)" xlink:href="#linear-gradient-7"/><linearGradient id="linear-gradient-9" x1="3520.18" y1="-17326.97" x2="3606.17" y2="-17247.64" gradientTransform="matrix(-0.86, 0.51, -0.51, -0.86, -4679.69, -16179.99)" gradientUnits="userSpaceOnUse"><stop offset="0" stop-color="#f545bd"/><stop offset="0.05" stop-color="#f545bd" stop-opacity="0.94"/><stop offset="0.41" stop-color="#f545bd" stop-opacity="0.54"/><stop offset="0.69" stop-color="#f545bd" stop-opacity="0.25"/><stop offset="0.9" stop-color="#f545bd" stop-opacity="0.07"/><stop offset="1" stop-color="#f545bd" stop-opacity="0"/></linearGradient><linearGradient id="linear-gradient-10" x1="1204.22" y1="524.82" x2="1303.97" y2="524.82" xlink:href="#linear-gradient-3"/><linearGradient id="linear-gradient-11" x1="1204.22" y1="507.6" x2="1303.98" y2="507.6" xlink:href="#linear-gradient-4"/><radialGradient id="radial-gradient-2" cx="1254.1" cy="507.6" r="40.73" xlink:href="#radial-gradient"/><linearGradient id="linear-gradient-12" x1="1204.22" y1="511.4" x2="1303.97" y2="511.4" xlink:href="#linear-gradient-3"/><linearGradient id="linear-gradient-13" x1="1204.22" y1="494.18" x2="1303.98" y2="494.18" xlink:href="#linear-gradient-6"/><linearGradient id="New_Gradient_Swatch_copy_20-2" x1="1254.7" y1="507.31" x2="1254.7" y2="390.38" xlink:href="#New_Gradient_Swatch_copy_20"/><linearGradient id="linear-gradient-14" x1="130.75" y1="540.6" x2="230.5" y2="540.6" xlink:href="#linear-gradient-3"/><linearGradient id="linear-gradient-15" x1="130.74" y1="523.38" x2="230.51" y2="523.38" xlink:href="#linear-gradient-4"/><radialGradient id="radial-gradient-3" cx="180.62" cy="523.38" r="40.73" xlink:href="#radial-gradient"/><linearGradient id="linear-gradient-16" x1="130.75" y1="527.18" x2="230.5" y2="527.18" xlink:href="#linear-gradient-3"/><linearGradient id="linear-gradient-17" x1="130.74" y1="509.96" x2="230.51" y2="509.96" xlink:href="#linear-gradient-6"/><linearGradient id="New_Gradient_Swatch_copy_20-3" x1="181.22" y1="523.08" x2="181.22" y2="406.16" xlink:href="#New_Gradient_Swatch_copy_20"/><linearGradient id="linear-gradient-18" x1="672.85" y1="221.37" x2="772.6" y2="221.37" xlink:href="#linear-gradient-3"/><linearGradient id="linear-gradient-19" x1="672.85" y1="204.15" x2="772.61" y2="204.15" xlink:href="#linear-gradient-4"/><radialGradient id="radial-gradient-4" cx="722.73" cy="204.15" r="40.73" xlink:href="#radial-gradient"/><linearGradient id="linear-gradient-20" x1="672.85" y1="207.94" x2="772.6" y2="207.94" xlink:href="#linear-gradient-3"/><linearGradient id="linear-gradient-21" x1="672.85" y1="190.72" x2="772.61" y2="190.72" xlink:href="#linear-gradient-6"/><linearGradient id="New_Gradient_Swatch_copy_20-4" x1="723.33" y1="203.85" x2="723.33" y2="86.92" xlink:href="#New_Gradient_Swatch_copy_20"/><linearGradient id="linear-gradient-22" x1="622.67" y1="311.78" x2="821.22" y2="494.96" gradientUnits="userSpaceOnUse"><stop offset="0" stop-color="#6ce1f5"/><stop offset="0.34" stop-color="#6ce1f5" stop-opacity="0.62"/><stop offset="0.66" stop-color="#6ce1f5" stop-opacity="0.29"/><stop offset="0.89" stop-color="#6ce1f5" stop-opacity="0.08"/><stop offset="1" stop-color="#6ce1f5" stop-opacity="0"/></linearGradient><radialGradient id="radial-gradient-5" cx="727.64" cy="409.28" r="135.62" gradientUnits="userSpaceOnUse"><stop offset="0" stop-color="#1e5beb"/><stop offset="1" stop-color="#1fd5ff"/></radialGradient><linearGradient id="linear-gradient-23" x1="620.74" y1="406.85" x2="486.05" y2="401.2" gradientUnits="userSpaceOnUse"><stop offset="0" stop-color="#fff"/><stop offset="0.36" stop-color="#fff" stop-opacity="0.6"/><stop offset="0.67" stop-color="#fff" stop-opacity="0.28"/><stop offset="0.89" stop-color="#fff" stop-opacity="0.08"/><stop offset="1" stop-color="#fff" stop-opacity="0"/></linearGradient><linearGradient id="linear-gradient-24" x1="-6267.56" y1="-6745.33" x2="-6402.24" y2="-6750.97" gradientTransform="matrix(-0.51, -0.86, 0.86, -0.51, 3326.1, -8354.9)" xlink:href="#linear-gradient-23"/><linearGradient id="linear-gradient-25" x1="3938.75" y1="-8413.5" x2="3804.07" y2="-8419.14" gradientTransform="matrix(-0.4, 0.92, -0.92, -0.4, -5332.59, -6688.13)" xlink:href="#linear-gradient-23"/></defs><title>satellite_main_3</title><g id="_18_How_Bitcoin_Works" data-name="18 How Bitcoin Works"><g class="cls-1"></g><path class="cls-2" d="M59.91,567.51a18.11,18.11,0,0,1,0-2.21V545.86l1303-11.22v22.07c0,6.65-4,13-12.24,17.74L743.91,935.15c-18.2,10.51-50,9.19-71-2.95L77.21,589.72C66.58,583.59,60.77,575.86,60,568.36h0Z"/><path class="cls-3" d="M743.91,914.66,1350.67,554c18.2-10.51,15.91-28.86-5.1-41L749.88,170.49c-21-12.13-52.81-13.45-71-2.94L72.11,528.24c-18.2,10.51-15.91,28.87,5.1,41L672.9,911.72C693.91,923.85,725.71,925.17,743.91,914.66Z"/><g class="cls-1"><line class="cls-4" x1="722.73" y1="191.72" x2="715.28" y2="819.4"/><polyline class="cls-4" points="1262.28 528.37 740.6 535.53 740.6 421.99"/><polyline class="cls-5" points="1271.85 501.58 750.17 508.75 750.17 491.18"/><polyline class="cls-4" points="175.04 543.3 697.85 536.12 697.85 436.69"/></g><g class="cls-6"></g><path class="cls-7" d="M709.32,877.4l-42.15-24.33c-3.18-1.84-2.78-5,.89-7.16l40-23.12c3.67-2.12,9.22-2.35,12.4-.51l42.15,24.33c3.18,1.84,2.78,5-.89,7.16l-40,23.12C718.05,879,712.5,879.24,709.32,877.4Z"/><g class="cls-1"><path class="cls-9" d="M707.54,886.17,652,854.09c-4.19-2.42-3.67-6.64,1.17-9.43l52.77-30.47c4.83-2.79,12.15-3.1,16.34-.68l55.56,32.08c4.18,2.42,3.66,6.64-1.18,9.43l-52.77,30.47C719.05,888.28,711.73,888.58,707.54,886.17Z"/></g><path class="cls-10" d="M764.77,832a2.54,2.54,0,0,0,0-.39V826H665V832a3.69,3.69,0,0,0,2.14,3.1l42.15,24.33c3.18,1.84,8.73,1.61,12.4-.51l40-23.11c1.86-1.08,2.87-2.42,3-3.73h0Z"/><path class="cls-11" d="M709.32,853.68l-42.15-24.33c-3.18-1.84-2.78-5,.89-7.16l40-23.11c3.67-2.12,9.22-2.35,12.4-.52l42.15,24.34c3.18,1.83,2.78,5-.89,7.16l-40,23.11C718.05,855.29,712.5,855.52,709.32,853.68Z"/><path class="cls-12" d="M709.32,853.68l-42.15-24.33c-3.18-1.84-2.78-5,.89-7.16l40-23.11c3.67-2.12,9.22-2.35,12.4-.52l42.15,24.34c3.18,1.83,2.78,5-.89,7.16l-40,23.11C718.05,855.29,712.5,855.52,709.32,853.68Z"/><path class="cls-13" d="M764.77,818.55a2.54,2.54,0,0,0,0-.39v-5.61H665v6.07a3.69,3.69,0,0,0,2.14,3.1l42.15,24.33c3.18,1.84,8.73,1.61,12.4-.51l40-23.12c1.86-1.07,2.87-2.42,3-3.73h0Z"/><path class="cls-14" d="M709.32,840.26l-42.15-24.33c-3.18-1.84-2.78-5,.89-7.16l40-23.12c3.67-2.11,9.22-2.34,12.4-.51l42.15,24.34c3.18,1.83,2.78,5-.89,7.15l-40,23.12C718.05,841.87,712.5,842.1,709.32,840.26Z"/><path class="cls-15" d="M743.86,815.13l-1.08.63-23.66,13.66c-2.27,1.31-5.7,1.45-7.67.32L687,815.63l-1.63-.94c-2-1.13-1.72-3.11.55-4.42L710.7,796c2.26-1.3,5.7-1.45,7.66-.32l26,15.05C746.38,811.84,746.13,813.82,743.86,815.13Z"/><path class="cls-16" d="M742.78,815.76l-23.66,13.66c-2.27,1.31-5.7,1.45-7.67.32L687,815.63,710.7,802c2.26-1.31,5.7-1.45,7.66-.32Z"/><path class="cls-17" d="M760.23,707.49,745.74,812.6a3.12,3.12,0,0,1-1.88,2.53l-1.07.62-23.67,13.67c-2.27,1.31-5.7,1.45-7.66.31L687,815.63l-1.63-.94a2.35,2.35,0,0,1-1.31-1.71h0l-13.31-104.8Z"/><circle class="cls-16" cx="537.38" cy="538.59" r="9.45"/><circle class="cls-18" cx="501.32" cy="538.93" r="9.45"/><circle class="cls-19" cx="468.11" cy="539.23" r="9.45"/><circle class="cls-20" cx="434.83" cy="539.71" r="9.45"/><circle class="cls-21" cx="399.3" cy="540.08" r="9.45"/><polygon class="cls-22" points="537.34 548.02 398.38 549.57 397.86 530.45 537.09 529.13 537.34 548.02"/><circle class="cls-16" cx="944.21" cy="532.94" r="9.45"/><circle class="cls-18" cx="980.26" cy="532.4" r="9.45"/><circle class="cls-19" cx="1013.48" cy="531.89" r="9.45"/><circle class="cls-20" cx="1046.75" cy="531.55" r="9.45"/><circle class="cls-21" cx="1082.29" cy="531.05" r="9.45"/><polygon class="cls-23" points="944.48 542.36 1083.44 540.52 1083.49 521.39 944.27 523.48 944.48 542.36"/><polygon class="cls-24" points="1152.98 512.84 1014.01 514.32 1013.5 495.19 1152.73 493.95 1152.98 512.84"/><circle class="cls-25" cx="1153.02" cy="503.41" r="9.45"/><circle class="cls-26" cx="1116.96" cy="503.73" r="9.45"/><circle class="cls-27" cx="1083.75" cy="504.02" r="9.45"/><circle class="cls-28" cx="1050.47" cy="504.48" r="9.45"/><circle class="cls-29" cx="1014.94" cy="504.83" r="9.45"/><path class="cls-7" d="M1248.51,558.88l-42.15-24.33c-3.18-1.84-2.78-5,.89-7.16l40-23.12c3.67-2.12,9.22-2.35,12.4-.51l42.15,24.33c3.17,1.84,2.78,5-.89,7.16l-40,23.12C1257.24,560.49,1251.69,560.72,1248.51,558.88Z"/><g class="cls-1"><path class="cls-9" d="M1246.74,567.65l-55.56-32.08c-4.19-2.42-3.66-6.64,1.17-9.43l52.77-30.47c4.84-2.79,12.15-3.1,16.34-.68L1317,527.07c4.19,2.42,3.66,6.64-1.17,9.43L1263.08,567C1258.24,569.76,1250.92,570.06,1246.74,567.65Z"/></g><path class="cls-30" d="M1304,513.45a2.54,2.54,0,0,0,0-.39v-5.61h-99.75v6.07a3.71,3.71,0,0,0,2.14,3.1L1248.51,541c3.18,1.84,8.73,1.61,12.4-.51l40-23.11c1.85-1.08,2.87-2.42,3-3.73h0Z"/><path class="cls-31" d="M1248.51,535.16l-42.15-24.33c-3.18-1.84-2.78-5,.89-7.16l40-23.11c3.67-2.12,9.22-2.35,12.4-.52l42.15,24.34c3.17,1.83,2.78,5-.89,7.16l-40,23.11C1257.24,536.77,1251.69,537,1248.51,535.16Z"/><path class="cls-32" d="M1248.51,535.16l-42.15-24.33c-3.18-1.84-2.78-5,.89-7.16l40-23.11c3.67-2.12,9.22-2.35,12.4-.52l42.15,24.34c3.17,1.83,2.78,5-.89,7.16l-40,23.11C1257.24,536.77,1251.69,537,1248.51,535.16Z"/><path class="cls-33" d="M1304,500a2.54,2.54,0,0,0,0-.39V494h-99.75v6.07a3.71,3.71,0,0,0,2.14,3.1l42.15,24.33c3.18,1.84,8.73,1.61,12.4-.51l40-23.12c1.85-1.07,2.87-2.42,3-3.73h0Z"/><path class="cls-34" d="M1248.51,521.74l-42.15-24.33c-3.18-1.84-2.78-5,.89-7.16l40-23.12c3.67-2.11,9.22-2.34,12.4-.51L1301.84,491c3.17,1.83,2.78,5-.89,7.15l-40,23.12C1257.24,523.35,1251.69,523.58,1248.51,521.74Z"/><path class="cls-15" d="M1283.06,496.61l-1.08.63-23.67,13.66c-2.27,1.31-5.7,1.45-7.66.32l-24.43-14.11-1.63-.94c-2-1.13-1.71-3.11.55-4.42l24.75-14.29c2.27-1.3,5.7-1.45,7.66-.31l26,15C1285.57,493.32,1285.32,495.3,1283.06,496.61Z"/><path class="cls-16" d="M1282,497.24l-23.67,13.66c-2.27,1.31-5.7,1.45-7.66.32l-24.43-14.11,23.67-13.66c2.27-1.31,5.7-1.45,7.66-.32Z"/><path class="cls-35" d="M1299.43,389l-14.5,105.11a3.11,3.11,0,0,1-1.87,2.53l-1.08.62-23.67,13.67c-2.27,1.31-5.7,1.45-7.66.31l-24.43-14.1-1.63-.94a2.38,2.38,0,0,1-1.31-1.71h0L1210,389.66Z"/><path class="cls-7" d="M175,574.66l-42.15-24.34c-3.18-1.83-2.78-5,.89-7.15l40-23.12c3.67-2.12,9.22-2.35,12.4-.51l42.15,24.33c3.18,1.84,2.78,5-.89,7.16l-40,23.12C183.76,576.26,178.21,576.49,175,574.66Z"/><g class="cls-1"><path class="cls-9" d="M173.26,583.43,117.7,551.35c-4.19-2.42-3.66-6.64,1.18-9.44l52.76-30.46c4.84-2.79,12.16-3.1,16.35-.68l55.55,32.08c4.19,2.42,3.67,6.64-1.17,9.43L189.6,582.75C184.76,585.54,177.45,585.84,173.26,583.43Z"/></g><path class="cls-36" d="M230.49,529.23a2.54,2.54,0,0,0,0-.39v-5.61H130.75v6.07a3.67,3.67,0,0,0,2.14,3.1L175,556.73c3.17,1.84,8.72,1.61,12.39-.51l40-23.12c1.86-1.07,2.87-2.42,3-3.73h0Z"/><path class="cls-37" d="M175,550.94l-42.15-24.33c-3.18-1.84-2.78-5,.89-7.16l40-23.12c3.67-2.11,9.22-2.34,12.4-.51l42.15,24.34c3.18,1.83,2.78,5-.89,7.15l-40,23.12C183.76,552.55,178.21,552.78,175,550.94Z"/><path class="cls-38" d="M175,550.94l-42.15-24.33c-3.18-1.84-2.78-5,.89-7.16l40-23.12c3.67-2.11,9.22-2.34,12.4-.51l42.15,24.34c3.18,1.83,2.78,5-.89,7.15l-40,23.12C183.76,552.55,178.21,552.78,175,550.94Z"/><path class="cls-39" d="M230.49,515.8a2.41,2.41,0,0,0,0-.38v-5.61H130.75v6.07a3.67,3.67,0,0,0,2.14,3.1L175,543.31c3.17,1.84,8.72,1.61,12.39-.51l40-23.12c1.86-1.07,2.87-2.42,3-3.73h0Z"/><path class="cls-40" d="M175,537.52l-42.15-24.33c-3.18-1.84-2.78-5,.89-7.16l40-23.12c3.67-2.12,9.22-2.35,12.4-.51l42.15,24.33c3.18,1.84,2.78,5-.89,7.16l-40,23.12C183.76,539.13,178.21,539.36,175,537.52Z"/><path class="cls-15" d="M209.58,512.39l-1.08.62-23.67,13.67c-2.27,1.31-5.7,1.45-7.66.31l-24.42-14.1-1.63-.94c-2-1.13-1.72-3.11.55-4.42l24.74-14.29c2.27-1.31,5.7-1.45,7.67-.32l26,15.05C212.09,509.1,211.84,511.08,209.58,512.39Z"/><path class="cls-16" d="M208.5,513l-23.67,13.67c-2.27,1.31-5.7,1.45-7.66.31l-24.42-14.1,23.66-13.66c2.27-1.31,5.7-1.45,7.67-.32Z"/><path class="cls-41" d="M226,404.75,211.46,509.86a3.14,3.14,0,0,1-1.88,2.53l-1.08.62-23.67,13.67c-2.26,1.31-5.69,1.45-7.66.31l-24.42-14.1-1.63-.94a2.39,2.39,0,0,1-1.32-1.71h0l-13.31-104.8Z"/><path class="cls-7" d="M717.14,255.42,675,231.09c-3.17-1.84-2.78-5,.89-7.16l40-23.11c3.67-2.12,9.22-2.35,12.4-.52l42.15,24.34c3.18,1.83,2.78,5-.89,7.16l-40,23.11C725.87,257,720.32,257.26,717.14,255.42Z"/><g class="cls-1"><path class="cls-9" d="M715.37,264.19l-55.56-32.08c-4.19-2.41-3.66-6.64,1.17-9.43l52.77-30.47c4.84-2.79,12.16-3.09,16.34-.67l55.56,32.07c4.19,2.42,3.66,6.64-1.17,9.44l-52.77,30.46C726.87,266.3,719.56,266.61,715.37,264.19Z"/></g><path class="cls-42" d="M772.6,210a2.54,2.54,0,0,0,0-.39V204H672.85v6.06a3.71,3.71,0,0,0,2.14,3.1l42.15,24.34c3.18,1.83,8.73,1.6,12.4-.52l40-23.11c1.85-1.07,2.87-2.42,3-3.73h0Z"/><path class="cls-43" d="M717.14,231.71,675,207.37c-3.17-1.83-2.78-5,.89-7.16l40-23.11c3.67-2.12,9.22-2.35,12.4-.52l42.15,24.34c3.18,1.84,2.78,5-.89,7.16l-40,23.11C725.87,233.31,720.32,233.54,717.14,231.71Z"/><path class="cls-44" d="M717.14,231.71,675,207.37c-3.17-1.83-2.78-5,.89-7.16l40-23.11c3.67-2.12,9.22-2.35,12.4-.52l42.15,24.34c3.18,1.84,2.78,5-.89,7.16l-40,23.11C725.87,233.31,720.32,233.54,717.14,231.71Z"/><path class="cls-45" d="M772.6,196.57a2.54,2.54,0,0,0,0-.39v-5.6H672.85v6.06a3.71,3.71,0,0,0,2.14,3.1l42.15,24.34c3.18,1.83,8.73,1.6,12.4-.52l40-23.11c1.85-1.07,2.87-2.42,3-3.73h0Z"/><path class="cls-46" d="M717.14,218.29,675,194c-3.17-1.84-2.78-5,.89-7.16l40-23.11c3.67-2.12,9.22-2.35,12.4-.52l42.15,24.34c3.18,1.83,2.78,5-.89,7.16l-40,23.11C725.87,219.89,720.32,220.12,717.14,218.29Z"/><path class="cls-15" d="M751.69,193.16l-1.08.62-23.67,13.66c-2.27,1.31-5.7,1.45-7.66.32l-24.43-14.1-1.63-.94c-2-1.14-1.71-3.12.56-4.43L718.52,174c2.27-1.31,5.7-1.45,7.66-.32l26.06,15C754.2,189.87,754,191.85,751.69,193.16Z"/><path class="cls-16" d="M750.61,193.78l-23.67,13.66c-2.27,1.31-5.7,1.45-7.66.32l-24.43-14.1L718.52,180c2.27-1.31,5.7-1.45,7.66-.31Z"/><path class="cls-47" d="M768.06,85.51l-14.5,105.12a3.11,3.11,0,0,1-1.87,2.52l-1.08.63-23.67,13.66c-2.27,1.31-5.7,1.45-7.66.32l-24.43-14.1-1.62-.94a2.38,2.38,0,0,1-1.32-1.72h0L678.6,86.2Z"/><path class="cls-49" d="M857,403.37a134.51,134.51,0,0,1-15.41,62.71,130.7,130.7,0,0,1-9,14.7,135.36,135.36,0,0,1-55.07,45.73c-3.72,1.67-7.49,3.19-11.39,4.52A135.06,135.06,0,0,1,604,337.52v0a135.17,135.17,0,0,1,184.68-51.57q5.34,3,10.31,6.49a136.12,136.12,0,0,1,37.87,39.95,134.39,134.39,0,0,1,20.17,71Z"/><path class="cls-50" d="M857,403.36a134.52,134.52,0,0,1-15.41,62.72c-.92,1.74-1.88,3.44-2.86,5.14q-2.6,4.47-5.54,8.71l-.61.85a135.1,135.1,0,0,1-55.08,45.73c-.88.39-1.77.79-2.66,1.16-2.42,1-4.88,2-7.39,2.89l-1.33.47A135.16,135.16,0,0,1,631,503.24a129.45,129.45,0,0,1-9.82-9.92q-3.53-3.94-6.74-8.18c-.44-.57-.87-1.15-1.28-1.74a135.2,135.2,0,0,1-17.58-127.81c.15-.41.31-.81.46-1.21,1.27-3.3,2.69-6.53,4.22-9.69,1.17-2.43,2.42-4.82,3.73-7.16v0a135.16,135.16,0,0,1,184.68-51.58l.65.37q3.58,2.06,7,4.33c.89.58,1.79,1.18,2.65,1.79a136.15,136.15,0,0,1,37.88,39.95c1.18,1.89,2.3,3.8,3.37,5.75l6,12.34c.55,1.28,1.08,2.58,1.58,3.88A134.18,134.18,0,0,1,857,403.36Z"/><path class="cls-16" d="M846.26,350.45c-24.35-15.47-51-24.15-75-24.15-43.91,0-85.91,21.93-115.27,60.17-24.13,31.43-36.12,69-34.77,106.85q-3.53-3.94-6.74-8.18c-.44-.57-.87-1.15-1.28-1.74a163.57,163.57,0,0,1,40.46-111.24c29.46-33.89,70.67-53.33,113.06-53.33,25,0,49.66,6.48,73.54,19.28Z"/><path class="cls-16" d="M838.77,471.22q-2.6,4.47-5.54,8.71a249.78,249.78,0,0,1-41,3.44c-92,0-171.2-52.57-196.15-129,1.27-3.3,2.69-6.53,4.22-9.69C621,418.13,705.17,475.61,796.19,475.61A205.47,205.47,0,0,0,838.77,471.22Z"/><path class="cls-16" d="M774.88,527.67c-2.42,1-4.88,2-7.39,2.89-12.17-37.06-17.57-81.32-14.9-123.64,2.15-34.12,10.39-81.56,36.74-120.63q3.58,2.06,7,4.33C753.52,359.11,752.88,459,774.88,527.67Z"/><ellipse class="cls-16" cx="772.42" cy="318.59" rx="21.1" ry="26.58" transform="translate(253.46 973.42) rotate(-74.02)"/><ellipse class="cls-16" cx="629.28" cy="408.59" rx="26.58" ry="21.83" transform="translate(92.52 932.84) rotate(-77.32)"/><path class="cls-51" d="M643.36,412c-2.29,10.17-10.91,16.89-19.25,15l-.35-.08c-10.76,3.75-77.35,27.87-138.54,50.87-35.07-41.65-9.48-153.63-9.48-153.63L632.38,390.2C640.73,392.07,645.64,401.83,643.36,412Z"/><ellipse class="cls-16" cx="758.78" cy="479.93" rx="26.58" ry="22.67" transform="translate(-100.68 220.31) rotate(-15.51)"/><path class="cls-52" d="M557.62,449.74A30.19,30.19,0,0,1,551,449c-9.51-2.14-17.43-8.65-22.29-18.32s-6.08-21.18-3.5-32.61,8.65-21.36,17.13-28,18.47-9.14,28-7h0c9.51,2.14,17.42,8.65,22.29,18.32s6.07,21.17,3.5,32.61C591.36,435,574.92,449.73,557.62,449.74Zm6-85.2a32.45,32.45,0,0,0-19.93,7.28c-8.08,6.3-13.88,15.79-16.34,26.73s-1.28,22,3.32,31.15,12,15.17,20.82,17.16c18.37,4.14,37.44-10.81,42.51-33.31,2.46-10.94,1.28-22-3.32-31.15s-12-15.17-20.82-17.17h0A28.68,28.68,0,0,0,563.58,364.54Z"/><path class="cls-53" d="M592,436.85a21.82,21.82,0,0,1-4.75-.53c-6.71-1.51-12.3-6.1-15.73-12.91a35.73,35.73,0,0,1,9.57-42.55c6-4.69,13-6.44,19.75-4.93s12.3,6.1,15.73,12.91A35.71,35.71,0,0,1,607,431.39,24.38,24.38,0,0,1,592,436.85Zm4.1-59.26a22.19,22.19,0,0,0-13.66,5,33.52,33.52,0,0,0-9,39.84c3.13,6.21,8.2,10.39,14.26,11.76s12.43-.25,17.92-4.53a33.5,33.5,0,0,0,9-39.84c-3.13-6.22-8.19-10.39-14.25-11.76h0A19.86,19.86,0,0,0,596.09,377.59Z"/><path class="cls-54" d="M516.28,464.15a41.07,41.07,0,0,1-9-1c-12.76-2.87-23.38-11.6-29.91-24.58s-8.17-28.49-4.71-43.88c7.17-31.84,34.35-52.93,60.6-47,12.76,2.87,23.38,11.6,29.91,24.58s8.17,28.49,4.71,43.88-11.65,28.75-23,37.63C536,460.59,526.16,464.15,516.28,464.15Zm8-115.3c-22.23,0-43.41,19.09-49.54,46.32-3.35,14.89-1.74,29.95,4.53,42.41s16.33,20.71,28.44,23.43,24.79-.47,35.73-9,18.9-21.5,22.26-36.39,1.74-30-4.53-42.41-16.33-20.71-28.44-23.44A38.58,38.58,0,0,0,524.32,348.85Z"/><path class="cls-55" d="M755.65,466.78c9.9-3.26,20.09.68,22.77,8.8,0,.12.07.23.1.35,8.75,7.29,63.68,52,114.87,92.66-17.7,51.5-126.9,87.12-126.9,87.12L742.6,487.4C739.92,479.28,745.77,470.05,755.65,466.78Z"/><path class="cls-52" d="M788.2,578c-17.09,0-32.12-8.85-36.91-23.38h0c-3.06-9.25-1.55-19.39,4.24-28.53s15-16.1,26.17-19.77,22.78-3.56,32.8.31,17.34,11.15,20.39,20.41,1.55,19.39-4.24,28.54-15,16.09-26.17,19.77A52.06,52.06,0,0,1,788.2,578ZM753.36,553.9c5.9,17.89,28.52,26.56,50.43,19.33,10.65-3.51,19.53-10.21,25-18.86s6.86-18.06,4-26.69-9.63-15.39-19.11-19-20.67-3.79-31.32-.28-19.53,10.22-25,18.87-6.87,18-4,26.68Z"/><path class="cls-53" d="M772.53,538.3A32,32,0,0,1,761,536.2c-7.12-2.75-12.22-7.86-14.38-14.4h0c-2.15-6.53-1.09-13.68,3-20.13A34.33,34.33,0,0,1,768,487.78c16.2-5.34,33,1.22,37.41,14.63,2.16,6.53,1.1,13.68-3,20.13A34.25,34.25,0,0,1,784,536.42,36.5,36.5,0,0,1,772.53,538.3Zm-23.86-17.18c1.94,5.9,6.59,10.53,13.09,13a33.53,33.53,0,0,0,38.78-12.79c3.73-5.89,4.7-12.38,2.76-18.28-4-12.26-19.59-18.2-34.66-13.23a32.09,32.09,0,0,0-17.21,13c-3.73,5.88-4.71,12.37-2.76,18.28Z"/><path class="cls-54" d="M806.58,625.7a61.3,61.3,0,0,1-22.13-4c-13.55-5.24-23.27-15-27.37-27.38s-2.07-26,5.7-38.29S783,534.35,798,529.41c31-10.22,63.07,2.25,71.5,27.8s-9.93,54.66-40.92,64.89A70.42,70.42,0,0,1,806.58,625.7ZM819.93,528a68.06,68.06,0,0,0-21.25,3.47c-14.49,4.78-26.59,13.9-34,25.69s-9.36,24.65-5.48,36.43h0c3.89,11.79,13.16,21,26.09,26s28.15,5.16,42.65.38c29.85-9.85,47.58-37.72,39.53-62.12C861.29,539.32,842,528,819.93,528Z"/><path class="cls-56" d="M764.75,327.23c-8.38-6.2-11-16.79-6-23.67.07-.1.15-.18.23-.28.9-11.36,5.68-82,9.3-147.29,52.25-15.3,144.41,53.27,144.41,53.27L789.12,326C784,332.86,773.13,333.41,764.75,327.23Z"/><path class="cls-52" d="M811,293.13a49.4,49.4,0,0,1-29.09-10c-9.43-7-16.06-16.53-18.69-26.95s-.91-20.6,4.88-28.44,14.94-12.46,25.75-13,21.83,3,31.25,9.94,16.06,16.54,18.69,27,.91,20.59-4.88,28.43C832.56,288.73,822.24,293.13,811,293.13Zm-15-76.25c-.69,0-1.38,0-2.07.05-10.15.52-18.71,4.83-24.1,12.13s-7,16.75-4.52,26.6,8.85,19.07,17.87,25.73c18.55,13.71,42.75,12.54,53.94-2.61h0c5.4-7.3,7-16.75,4.52-26.6s-8.85-19.07-17.87-25.73A47.17,47.17,0,0,0,796.07,216.88Zm42,62.55h0Z"/><path class="cls-53" d="M795.22,312.06a34.66,34.66,0,0,1-20.43-7,34.23,34.23,0,0,1-13.12-18.93c-1.87-7.4-.64-14.52,3.45-20.05s10.53-8.8,18.15-9.19a35.7,35.7,0,0,1,35.08,25.91c1.86,7.4.64,14.52-3.45,20.06h0C810.39,309,803.11,312.06,795.22,312.06Zm-10.41-53c-.48,0-.95,0-1.42,0-7,.36-12.82,3.31-16.52,8.31s-4.79,11.47-3.08,18.22a32.12,32.12,0,0,0,12.3,17.71c12.75,9.42,29.38,8.64,37-1.75h0c3.69-5,4.79-11.47,3.09-18.22a32.12,32.12,0,0,0-12.3-17.71A32.48,32.48,0,0,0,784.81,259ZM814,302.2h0Z"/><path class="cls-54" d="M830.56,269.92c-13,0-27-4.43-39.14-13.43-12.68-9.37-21.61-22.25-25.15-36.26s-1.23-27.65,6.54-38.16c16-21.64,50.36-23.47,76.61-4.08,12.68,9.37,21.61,22.25,25.14,36.26s1.23,27.65-6.54,38.16h0C859.45,264,845.61,269.92,830.56,269.92Zm-20.3-103.18c-14.36,0-27.54,5.6-35.69,16.63-7.37,10-9.57,22.88-6.18,36.32s12.05,26,24.33,35c25.28,18.68,58.27,17.06,73.55-3.62,7.37-10,9.56-22.88,6.17-36.32s-12-26-24.32-35C836.32,171,822.84,166.74,810.26,166.74Zm56.88,85h0Z"/></g></svg>