<?xml version="1.0" encoding="UTF-8"?>
<svg width="160px" height="160px" viewBox="0 0 160 160" version="1.1" xmlns="http://www.w3.org/2000/svg" xmlns:xlink="http://www.w3.org/1999/xlink">
    <!-- Generator: Sketch 51.1 (57501) - http://www.bohemiancoding.com/sketch -->
    <title>satellite_ebook</title>
    <desc>Created with Sketch.</desc>
    <defs>
        <polygon id="path-1" points="0.105979473 0.5 77.505 0.5 77.505 45.3846539 0.105979473 45.3846539"></polygon>
    </defs>
    <g id="satellite_ebook" stroke="none" stroke-width="1" fill="none" fill-rule="evenodd">
        <g id="Group-14" transform="translate(41.000000, 11.000000)">
            <path d="M66.0675,7.84165 L68.5875,9.29665 L71.3925,7.67665 C72.6375,6.95665 74.0625,6.95665 75.3075,7.67665 L76.5975,8.41165 C77.1375,8.72665 77.4375,9.25165 77.4375,9.86665 L77.4375,101.30665 L77.3775,101.74165 L77.2275,102.14665 L76.9575,102.47665 L76.5975,102.76165 L20.6625,135.07165 L19.8525,135.55165 L19.5975,135.68665 C18.7575,136.18165 18.1125,136.37665 17.2125,136.69165 L16.3125,136.94665 L15.3975,137.15665 L14.4525,137.30665 L13.4925,137.42665 L12.5175,137.48665 L11.5425,137.50165 L10.5825,137.47165 L9.6075,137.39665 L8.6475,137.27665 L7.7175,137.09665 L6.8025,136.88665 L5.9175,136.61665 L5.0625,136.31665 L4.2525,135.94165 L3.4875,135.53665 L2.7375,135.07165 L2.0775,134.56165 L1.5075,134.02165 L1.0275,133.46665 L0.6375,132.88165 L0.3525,132.28165 C0.0975,131.53165 0.0225,131.23165 0.0075,130.45165 L0.0075,39.01165 C0.2175,37.36165 1.0125,36.07165 2.4675,35.03665 L2.8875,34.76665 C3.0225,34.66165 3.1725,34.58665 3.3225,34.49665 L3.5625,34.36165 L12.8325,29.00665 L60.0225,1.75165 C61.2675,1.03165 62.6925,1.03165 63.9375,1.75165 L65.2275,2.48665 C65.7525,2.80165 66.0675,3.32665 66.0675,3.95665 L66.0675,7.84165 Z" id="Fill-1" fill="#16477C"></path>
            <path d="M9.3555,37.51615 L37.1955,21.43615 L65.2905,5.19115 C65.3655,5.16115 65.4255,5.11615 65.4855,5.07115 C65.5455,5.01115 65.6055,4.98115 65.6505,4.92115 C65.7105,4.87615 65.7555,4.81615 65.8005,4.75615 C65.8455,4.69615 65.8755,4.65115 65.9205,4.59115 L65.9205,4.57615 C65.9505,4.51615 65.9805,4.45615 66.0105,4.39615 C66.0405,4.32115 66.0555,4.24615 66.0855,4.18615 C66.1005,4.11115 66.1155,4.03615 66.1155,3.96115 C66.1305,3.90115 66.1305,3.82615 66.1305,3.76615 L66.1305,10.54615 L14.6655,40.27615 C13.0455,41.22115 10.8705,41.71615 9.1155,40.69615 C7.6605,39.85615 8.3505,38.10115 9.1155,37.66615 C9.8805,37.21615 9.2955,37.56115 9.3705,37.51615 L9.3555,37.51615 Z" id="Fill-3" fill="#114C85"></path>
            <g id="Group-7" transform="translate(0.000000, 0.504650)">
                <mask id="mask-2" fill="white">
                    <use xlink:href="#path-1"></use>
                </mask>
                <g id="Clip-6"></g>
                <path d="M33.1965,35.7305 L20.7315,42.9305 L19.9215,43.4105 L19.6665,43.5455 L19.3365,43.7405 L18.3165,44.2055 L18.1365,44.2505 C13.6365,45.9755 7.6365,45.7655 3.5415,43.3955 C-0.5385,41.0405 -1.1235,36.9155 2.5365,34.3205 L2.5215,34.3055 L2.9565,34.0505 C3.0915,33.9605 3.2415,33.8705 3.3915,33.7955 L3.6465,33.6455 L12.9015,28.3055 L60.0915,1.0355 C61.3365,0.3155 62.7615,0.3155 64.0065,1.0355 L65.2965,1.7705 C65.8365,2.0855 66.1365,2.6105 66.1365,3.2255 C66.1365,3.8555 65.8365,4.3805 65.2965,4.6955 L37.2015,20.9255 L9.3615,37.0055 L9.3765,37.0205 C9.2865,37.0655 9.8865,36.7205 9.1215,37.1555 C8.3565,37.6055 7.6665,39.3605 9.1215,40.1855 C10.8615,41.2055 13.0365,40.7105 14.6715,39.7805 L71.4615,6.9605 C72.7065,6.2405 74.1315,6.2405 75.3765,6.9605 L76.6665,7.7105 C77.2065,8.0105 77.5065,8.5505 77.5065,9.1655 C77.5065,9.7805 77.2065,10.3055 76.6665,10.6205 L33.1965,35.7305 Z" id="Fill-5" fill="#26287E" mask="url(#mask-2)"></path>
            </g>
            <path d="M68.6595,9.08365 L66.1395,7.62865 L8.9895,40.62865 L9.1095,40.68865 C10.8495,41.75365 13.0395,41.21365 14.6595,40.28365 L68.6595,9.08365 Z" id="Fill-8" fill="#BEBEBE"></path>
            <polygon id="Fill-10" fill="#114C85" points="77.442 10.67365 77.442 101.30365 77.427 101.52865 77.382 101.73865 77.307 101.94865 77.217 102.14365 77.097 102.32365 76.962 102.48865 76.797 102.62365 76.602 102.75865 20.667 135.06865 20.667 43.47865"></polygon>
        </g>
    </g>
</svg>