<svg id="Layer_1" data-name="Layer 1" xmlns="http://www.w3.org/2000/svg" viewBox="0 0 654.47 201.24"><defs><style>.cls-1{fill:#fff;}</style></defs><title>tokensoft</title><path class="cls-1" d="M309,144.08v14.18c0,8.22,0,16.45,0,24.67,0,3.74-7.65,8.19-11,6.48-1.38-.71-1-2.06-1-3.18,0-19.58,0-39.16-.05-58.74,0-2.81,1.06-3.81,3.92-4.11,5.58-.58,9.37,1.13,12.77,5.91,9.2,12.89,19,25.37,28.55,38,.76,1,1.18,2.45,2.81,2.7,1-1.52.51-3.2.52-4.77,0-11.21,0-22.42,0-33.63,0-4.07,7-8.51,10.61-6.84,1.38.63,1.29,1.93,1.29,3.08q0,29.6,0,59.19c0,2.44-1.16,3.22-3.55,3.52-5.85.72-9.87-1-13.49-6.09-9.75-13.77-20.17-27.05-30.32-40.53Z"/><path class="cls-1" d="M102.54,191.28c-11.87-.48-23.67-6.22-30-20-6-13-4-25.42,5.15-36.43,8.81-10.59,25.94-14.67,40.32-10,14,4.6,22.85,16.15,23.8,31C143.05,175.33,126.54,191.36,102.54,191.28Zm-19.83-34.4c0,13.12,10.21,23.79,22.92,23.83,12.55,0,22.76-10.42,22.83-23.36.07-13.52-9.71-23.63-22.83-23.6C92.68,133.77,82.77,143.78,82.71,156.88Z"/><path class="cls-1" d="M477.26,191.31c-30.15-.12-47.13-26.84-34.63-50.29,9.16-17.18,33-23.34,51.26-13.25a33.44,33.44,0,0,1,12.32,46.56C499.19,186.21,488,191,477.26,191.31Zm-25.52-34.38c0,12.94,10.37,23.67,23,23.8s23.06-10.54,23.12-23.63a23.08,23.08,0,1,0-46.16-.17Z"/><path class="cls-1" d="M375,7.3c-7.34,7.44-14,14.24-20.72,21-1.26,1.27-3,1.2-4.65,1.2q-40.09,0-80.21-.06c-1.28,0-3.06.52-3.63-1s1.12-2.26,2-3.17C273,20.11,278.17,15,283.31,9.77a8.29,8.29,0,0,1,6.25-2.91c27.33,0,54.67,0,82,0A31.59,31.59,0,0,1,375,7.3Z"/><path class="cls-1" d="M169.22,157.91c6.48-7,12-12.93,17.53-18.92,3.94-4.29,7.82-8.64,11.75-12.94,2-2.15,12.4-4,14.78-2.35,2.17,1.47,0,2.58-.8,3.47-6.6,7.33-13.11,14.76-20,21.78-3.05,3.09-3.18,5.1-.44,8.52,7.38,9.21,14.34,18.76,21.46,28.18,1,1.27,1.86,2.59,3.11,4.32-4.74.89-8.87.46-13,.4-2.27,0-3.21-2-4.36-3.52-5.44-7.13-10.91-14.24-16.19-21.48-1.93-2.65-3.39-2.82-5.44-.25a90.54,90.54,0,0,1-6.28,7c-3.1,3.13-2,7-2.07,10.64-.14,7.12-4.16,10-11,7.7-1.63-.55-1.41-1.72-1.41-2.86,0-20.18,0-40.37-.05-60.55,0-2.35,1-3.26,3.19-3.26.9,0,1.79,0,2.69,0,6.44,0,6.52.06,6.53,6.4C169.23,138.93,169.22,147.7,169.22,157.91Z"/><path class="cls-1" d="M256.08,190.46c-6.73,0-13.45-.1-20.18,0-3.25.08-4.52-1.09-4.5-4.41q.14-29.15,0-58.29c0-3.35,1.33-4.42,4.54-4.39,13.3.1,26.61,0,39.91.1,1.74,0,4.56-1.32,4.88,2.11.38,4.09-2.06,7.83-5.25,7.92-5.23.15-10.46.06-15.69.07-3.89,0-7.78.07-11.66,0-2.61,0-3.86,1.07-3.81,3.74.07,3.74.08,7.48,0,11.21-.07,2.77,1.33,3.6,3.89,3.58,7.32-.08,14.65.12,22-.08,3.57-.1,4.74,1.32,4.7,4.73,0,3.24-.44,5.55-4.52,5.47-7.17-.13-14.35.06-21.52-.05-3.21,0-4.7,1.12-4.55,4.45a98.26,98.26,0,0,1,0,9.86c-.19,3.42,1.38,4.37,4.57,4.31,8.66-.14,17.33-.06,26,0,3.58,0,7.1,5.12,5.79,8.39-.68,1.7-2.25,1.22-3.49,1.23C270.13,190.49,263.1,190.46,256.08,190.46Z"/><path class="cls-1" d="M400.89,191.19a50.58,50.58,0,0,1-22.35-6.28c-3.18-1.75-3.71-10.13-.86-12.4,1.37-1.1,2.2.22,3.09.82A45.32,45.32,0,0,0,399,180.52a18.5,18.5,0,0,0,8.84-.63c3.17-1,5.6-2.73,6-6.42s-1.2-6.33-4.28-8.18a40.29,40.29,0,0,0-9.61-3.63c-4.73-1.37-9.54-2.5-13.92-4.88-6-3.26-9.4-8.08-9.23-15.14s3.63-12.42,9.83-15.41c12.06-5.81,24.13-3.79,36,1,1.85.74,2.31,2.13,1.77,4a42.25,42.25,0,0,0-1.19,4.78c-.5,2.79-1.77,3.39-4.36,2.1A46.75,46.75,0,0,0,404,133.42c-.74-.09-1.47-.26-2.21-.3-5.73-.25-10,2.1-10.92,5.91-1,4.22,1.21,7.52,7.18,9.82s12.27,3.84,18.17,6.31c9.15,3.83,13,11,11.3,20-1.32,7-5.85,11.24-12.21,13.75C411.06,190.54,406.63,191.17,400.89,191.19Z"/><path class="cls-1" d="M523.62,157.29c0-10,0-20,0-30,0-2.62.81-3.85,3.56-3.84q21.51.09,43,0c2.43,0,3.09,1,2.68,3.31-1.06,6.24-1.67,6.85-8.07,6.86-8.06,0-16.13.11-24.19,0-3.33-.06-4.57,1.23-4.39,4.5a98.06,98.06,0,0,1,0,9.85c-.14,3.06,1,4.3,4.17,4.24,6.87-.13,13.74-.14,20.61,0,1.69,0,5.08-1.43,4.59,2.13-.41,3,.4,7.62-4.72,7.82-6.26.23-12.55.33-18.81,0-4.45-.21-6.18,1.15-5.91,5.79.36,6.11,0,12.25.12,18.37.08,3.11-1.17,4.11-4.21,4.18-8.28.19-8.24.3-8.2-7.69,0-8.52,0-17,0-25.54Z"/><path class="cls-1" d="M604.66,161.44c0-7.63-.17-15.26.07-22.88.12-3.81-1.3-5-5-4.77-4.17.25-8.37,0-12.56.08-2.63.06-3.38-.89-2.86-3.52,1.31-6.6,1.54-6.89,8.47-6.9,13.31,0,26.62-.06,39.92.08,1.71,0,4.59-1.46,5,1.93.45,4.24-2.18,8.2-5.37,8.33a65.81,65.81,0,0,1-9.42,0c-4.5-.45-5.56,1.56-5.51,5.71.19,15.1.11,30.21,0,45.31,0,1.92,1,4.9-1.67,5.41-3.29.63-6.92,1-10.14-.41-1.46-.63-.94-2.69-1-4.15C604.65,177.59,604.67,169.51,604.66,161.44Z"/><path class="cls-1" d="M43.54,162.28c0,7.77-.14,15.54.06,23.31.09,3.64-1.08,5.08-4.85,4.94-8.36-.33-8,1.44-8-7.84,0-14.5-.11-29,.06-43.49,0-4-1-5.79-5.31-5.43-4,.34-8.06,0-12.1,0-2.31,0-3.1-.9-2.67-3.35,1.17-6.52,1.62-7,8.36-7,13.45,0,26.89,0,40.34.07,1.62,0,4.2-1.32,4.66,1.81.49,3.39-2.28,8.3-4.84,8.43a78.71,78.71,0,0,1-10.75,0c-4.12-.36-5.09,1.4-5,5.19C43.71,146.73,43.54,154.51,43.54,162.28Z"/><path class="cls-1" d="M308.7,67.65c0-9.4.09-18.8,0-28.2-.05-3.42,1.13-4.9,4.66-4.76,4.62.19,9.25.11,13.87,0,2.54,0,4,.84,4,3.55q-.26,19.68-.51,39.35c0,1.5-.93,2.46-1.88,3.42C323.2,86.63,317.62,92.24,312,97.8c-.69.68-1.33,2-2.53,1.35s-.68-1.87-.68-2.86c0-9.55,0-19.1,0-28.64Z"/></svg>