<?xml version="1.0" encoding="utf-8"?>
<!-- Generator: Adobe Illustrator 24.1.2, SVG Export Plug-In . SVG Version: 6.00 Build 0)  -->
<svg version="1.1" id="Layer_1" xmlns="http://www.w3.org/2000/svg" xmlns:xlink="http://www.w3.org/1999/xlink" x="0px" y="0px"
	 viewBox="0 0 400 400" style="enable-background:new 0 0 400 400;" xml:space="preserve">
<style type="text/css">
	.st0{fill:#3C82F9;}
	.st1{fill:#FFFFFF;}
</style>
<circle class="st0" cx="200" cy="200" r="200"/>
<g>
	<g>
		
			<ellipse transform="matrix(0.4444 -0.8958 0.8958 0.4444 -193.9116 329.3599)" class="st1" cx="168.6" cy="321" rx="23" ry="17.5"/>
	</g>
	<g>
		
			<ellipse transform="matrix(0.4444 -0.8958 0.8958 0.4444 -131.0738 378.5046)" class="st1" cx="239.6" cy="294.9" rx="22.4" ry="18.7"/>
	</g>
	<g>
		
			<ellipse transform="matrix(0.4444 -0.8958 0.8958 0.4444 -48.7605 396.8689)" class="st1" cx="295.6" cy="237.7" rx="22.4" ry="19.5"/>
	</g>
	<g>
		
			<ellipse transform="matrix(0.6356 -0.7721 0.7721 0.6356 -11.2581 307.1427)" class="st1" cx="319.7" cy="165.5" rx="20" ry="16.6"/>
	</g>
	<g>
		
			<ellipse transform="matrix(0.4444 -0.8958 0.8958 0.4444 -211.2061 265.3649)" class="st1" cx="108.3" cy="303" rx="20.2" ry="15.5"/>
	</g>
	<g>
		
			<ellipse transform="matrix(0.7808 -0.6248 0.6248 0.7808 3.3164 212.4124)" class="st1" cx="304.4" cy="101.5" rx="18.7" ry="14.3"/>
	</g>
	<g>
		<ellipse transform="matrix(0.5 -0.866 0.866 0.5 -181.0618 193.9279)" class="st1" cx="77.4" cy="253.8" rx="18.9" ry="13.7"/>
	</g>
	<g>
		
			<ellipse transform="matrix(0.5717 -0.8204 0.8204 0.5717 -119.7146 150.1671)" class="st1" cx="84" cy="189.8" rx="16.7" ry="11.5"/>
	</g>
	<g>
		
			<ellipse transform="matrix(0.5717 -0.8204 0.8204 0.5717 -65.3975 149.8438)" class="st1" cx="110.8" cy="137.6" rx="14.5" ry="10.8"/>
	</g>
	<g>
		
			<ellipse transform="matrix(0.7808 -0.6248 0.6248 0.7808 -25.3642 118.1323)" class="st1" cx="155.7" cy="95.2" rx="13.6" ry="10.4"/>
	</g>
	<g>
		
			<ellipse transform="matrix(0.7808 -0.6248 0.6248 0.7808 1.1456 144.8984)" class="st1" cx="207.1" cy="70.8" rx="14.3" ry="10.5"/>
	</g>
	<g>
		<ellipse transform="matrix(0.845 -0.5347 0.5347 0.845 2.8349 151.4667)" class="st1" cx="262.7" cy="70.8" rx="17.2" ry="12.4"/>
	</g>
</g>
</svg>
