<svg xmlns="http://www.w3.org/2000/svg" xmlns:xlink="http://www.w3.org/1999/xlink" viewBox="0 0 400 400"><defs><style>.cls-1{isolation:isolate;}.cls-2{opacity:0.7;mix-blend-mode:multiply;}.cls-3{fill:url(#linear-gradient);}.cls-4{fill:#404040;}.cls-5{fill:#34342f;}.cls-6{fill:#00b45a;}.cls-7{fill:#fff;}</style><linearGradient id="linear-gradient" x1="-422.94" y1="386.03" x2="-264.76" y2="386.03" gradientTransform="matrix(0.98, 0.22, -0.22, 0.98, 619.51, -113.55)" gradientUnits="userSpaceOnUse"><stop offset="0" stop-color="#0ea564"/><stop offset="0.51" stop-color="#29ae6a"/><stop offset="1" stop-color="#03e874"/></linearGradient></defs><title>navigation_icons</title><g class="cls-1"><g id="Layer_1" data-name="Layer 1"><path class="cls-3" d="M224,358,97.09,375.07C84.1,375,80.62,355,82.51,347L148.9,72.28l4.54-20.07c1.86-7.89,10.8-19.82,17.22-21.38L295.49.45c9.77-2.37,26.13,4.58,21.88,22.9L244.88,337.23C242.92,345.68,230.87,357,224,358Z"/><path class="cls-4" d="M216.14,342,91.37,359.48c-5.79.81-9-4.81-7.22-12.47L148.9,72.28l5.27-22.37c1.78-7.54,8-14.88,13.92-16.31L294.94,2.83c6.4-1.56,10.16,3.63,8.33,11.54L231,325.81C229.15,333.84,222.44,341.15,216.14,342Z"/><path class="cls-5" d="M295.49.45,168.63,31.32C161.77,33,154.56,41.41,152.51,50.1L82.51,347c-2.08,8.83,1.68,15.26,8.42,14.32L215.69,344c7.34-1,15.09-9.4,17.24-18.67L305.22,13.69C307.33,4.57,303-1.36,295.49.45ZM87.94,337.87l66-280.06L299.36,23.52,231.31,316.76Z"/><path class="cls-5" d="M162.69,362.06,149.4,364a3,3,0,0,1-3.4-2.63h0a3.16,3.16,0,0,1,2.65-3.49l13.29-1.9a3,3,0,0,1,3.39,2.63h0A3.15,3.15,0,0,1,162.69,362.06Z"/><path class="cls-6" d="M160,185.11l13.29-56.61,56.26-11.88,2.79-12-66.16,14.22-13.28,56.55c-2.68,11.37,1.86,19.32,8.64,26.16A23.94,23.94,0,0,1,160,185.11Z"/><path class="cls-7" d="M213.69,131l-33.37,6.93-13.36,57c-4.3,18.35,10.14,28,22.59,38.35,18.77-16,39.8-32.3,44.16-51L247.26,124Zm9.51,53.27c-3.15,9.06-19.64,24.85-33.73,36.79-9.42-7.61-17-14.33-12.65-28l10.65-45.47L234.29,138Z"/></g></g></svg>