<?xml version="1.0" encoding="utf-8"?>
<!-- Generator: Adobe Illustrator 24.2.0, SVG Export Plug-In . SVG Version: 6.00 Build 0)  -->
<svg version="1.1" id="Layer_1" xmlns="http://www.w3.org/2000/svg" xmlns:xlink="http://www.w3.org/1999/xlink" x="0px" y="0px"
	 viewBox="0 0 400 400" style="enable-background:new 0 0 400 400;" xml:space="preserve">
<style type="text/css">
	.st0{fill:#2CCCBF;}
</style>
<g>
	<g>
		<path class="st0" d="M247.4,0v4.4c6.9,0,12.8,5.2,13.7,12.1c0.9,7.5-4.4,14.4-12,15.3c-78.8,9.7-138.3,77-138.3,156.6
			c0,21.4,4.2,42.2,12.5,61.7c1.4,3.4,1.5,7.1,0.1,10.5c-1.4,3.4-4,6.1-7.4,7.5c-1.7,0.7-3.5,1.1-5.4,1.1c-5.5,0-10.5-3.3-12.7-8.4
			c-9.8-22.9-14.7-47.3-14.7-72.4c0-93.5,69.8-172.5,162.5-183.9c0.6-0.1,1.1-0.1,1.7-0.1L247.4,0 M247.4,0c-0.7,0-1.5,0-2.2,0.1
			C150.4,11.8,78.9,92.7,78.9,188.4c0,25.7,5.1,50.7,15.1,74.2c2.9,6.9,9.7,11.1,16.7,11.1c2.4,0,4.8-0.5,7.1-1.5
			c9.2-3.9,13.5-14.6,9.6-23.8c-8.1-19-12.2-39.1-12.2-59.9c0-77.3,57.8-142.8,134.4-152.2c10-1.2,17-10.3,15.8-20.2
			C264.3,6.7,256.5,0,247.4,0L247.4,0z"/>
	</g>
	<g>
		<path class="st0" d="M272.4,60.3c31,0,61.3,10.9,85.1,30.7c1.4,1.1,2.2,2.7,2.4,4.5c0.2,1.8-0.4,3.5-1.5,4.9
			c-1.3,1.5-3.1,2.4-5.1,2.4c-1.6,0-3-0.5-4.2-1.5c-21.5-17.8-48.6-27.6-76.6-27.6c-54.8,0-102.5,37-116.2,89.9
			c-0.8,2.9-3.4,5-6.4,5c-0.6,0-1.1-0.1-1.7-0.2c-3.6-0.9-5.7-4.5-4.8-8.1C158.5,101.4,211.6,60.3,272.4,60.3 M272.4,55.9
			c-62.8,0-117.7,42.5-133.3,103.2c-1.5,5.9,2,11.9,7.9,13.5c0.9,0.2,1.9,0.4,2.8,0.4c4.9,0,9.4-3.3,10.7-8.3
			c13.1-51,59.1-86.6,111.9-86.6c26.9,0,53.1,9.5,73.8,26.6c2.1,1.7,4.6,2.5,7.1,2.5c3.2,0,6.3-1.4,8.5-4c3.9-4.7,3.3-11.7-1.4-15.6
			C335.7,67.2,304.5,55.9,272.4,55.9L272.4,55.9z"/>
	</g>
	<g>
		<path class="st0" d="M79.5,67.5L79.5,67.5c1.3,0,2.5,0.4,3.6,1.1c3.1,2,4,6.1,2,9.2c-20.7,32.3-31.7,69.8-31.7,108.4
			c0,90.3,58,171.1,141.1,196.5c1.7,0.5,3.1,1.7,3.9,3.2c0.8,1.6,1,3.4,0.5,5.1c-0.8,2.8-3.5,4.7-6.4,4.7c-0.7,0-1.3-0.1-1.9-0.3
			C102,368.3,40.1,282.3,40.1,186.1c0-41.1,11.7-81.1,33.8-115.6C75.1,68.6,77.2,67.5,79.5,67.5 M79.5,63.1c-3.6,0-7.2,1.8-9.3,5.1
			c-22.6,35.2-34.5,76-34.5,117.9c0,98.1,63.2,185.8,153.7,213.4c1.1,0.3,2.2,0.5,3.2,0.5c4.7,0,9.1-3.1,10.6-7.8
			c1.8-5.8-1.5-12-7.3-13.8c-81.3-24.8-138-103.8-138-192.3c0-37.7,10.7-74.4,31-106c3.3-5.1,1.8-12-3.3-15.3
			C83.6,63.7,81.6,63.1,79.5,63.1L79.5,63.1z"/>
	</g>
	<g>
		<path class="st0" d="M141.6,293.7c2.8,0,5.5,1.2,7.4,3.3c14.4,15.8,32.2,28.1,53,36.7c20.7,8.5,43.2,12.8,66.9,12.8
			c2.7,0,5.4-0.1,8.1-0.2c0.2,0,0.3,0,0.5,0c5.3,0,9.7,4.2,9.9,9.6c0.2,5.5-4.1,10.2-9.6,10.4c-3,0.1-5.9,0.2-8.9,0.2
			c-26.6,0-52-4.9-75.3-14.6c-23.3-9.7-43.3-23.6-59.5-41.5c-3.7-4.1-3.4-10.4,0.7-14.1C136.7,294.7,139.1,293.7,141.6,293.7
			 M141.6,289.3c-3.5,0-6.9,1.2-9.7,3.7c-5.9,5.3-6.3,14.4-1,20.3c33.5,36.8,83.4,57.5,138,57.5c3,0,6-0.1,9-0.2
			c7.9-0.3,14.1-7,13.8-15c-0.3-7.7-6.6-13.8-14.3-13.8c-0.2,0-0.5,0-0.7,0c-2.6,0.1-5.3,0.2-7.9,0.2c-46.5,0-88.7-17.3-116.7-48.1
			C149.4,290.9,145.5,289.3,141.6,289.3L141.6,289.3z"/>
	</g>
	<path class="st0" d="M352.7,271.5c1.9,0,3.7,0.8,5,2.2c2.4,2.7,2.2,7-0.6,9.4c-9.7,8.6-20.7,15.8-32.6,21.2l-0.1,0l-0.1,0
		c-0.1,0.1-0.3,0.2-0.4,0.2c-0.2,0.1-0.5,0.2-0.7,0.3c-0.3,0.1-0.6,0.2-0.9,0.4c-0.8,0.4-1.7,0.7-2.5,1.1c-1.6,0.7-3.3,1.3-5,2
		c-0.3,0.1-0.6,0.2-0.9,0.3c-6.7,2.4-13.6,4.3-20.5,5.6l-0.2,0l-0.4,0.1c-1.7,0.3-3.1,0.6-4.4,0.7c-0.4,0.1-0.8,0.1-1.2,0.2
		c-0.3,0-0.5,0.1-0.8,0.1c-2,0.3-3.7,0.5-5.3,0.6c-1.5,0.1-2.8,0.2-4.1,0.3c-0.7,0-1.4,0.1-2.1,0.1c-2.4,0.1-4.4,0.2-6.2,0.2l-0.1,0
		h0l0,0l0,0c-0.6,0-1.3,0-1.9,0c-0.1,0-0.2,0-0.4,0l0,0l0,0c-13.2-0.2-26.2-2.4-38.6-6.4c-1.7-0.5-3.1-1.7-3.9-3.3
		c-0.8-1.6-1-3.4-0.4-5.1c0.9-2.8,3.4-4.6,6.3-4.6c0.7,0,1.4,0.1,2.1,0.3c11.5,3.7,23.7,5.7,36,5.8l0.5,0c0.4,0,0.7,0,1.1,0l0.2,0
		c1.5,0,3-0.1,4.5-0.1l0.5,0c0.3,0,0.7,0,1,0c1.7-0.1,3.4-0.2,5.3-0.4c0.9-0.1,1.9-0.2,2.8-0.3l0.3,0c0.7-0.1,1.4-0.2,2.1-0.3
		c1.6-0.2,2.8-0.4,3.9-0.6l0.2,0l0.1,0c4.5-0.8,9.1-1.9,13.5-3.3c1.9-0.6,3.9-1.3,6-2l0.2-0.1l0.2-0.1c1.4-0.5,2.9-1.1,4.9-1.9
		c0.7-0.3,1.3-0.6,2-0.8c11.5-5,22.1-11.8,31.4-20.1C349.5,272.1,351,271.5,352.7,271.5 M352.7,267.1c-2.6,0-5.2,0.9-7.3,2.8
		c-9.1,8.1-19.2,14.5-30.3,19.3c-0.6,0.3-1.3,0.5-1.9,0.8c-1.5,0.6-3.1,1.3-4.7,1.8c-0.1,0.1-0.3,0.1-0.4,0.2
		c-1.9,0.7-3.8,1.3-5.7,1.9c-4.3,1.3-8.7,2.4-13.1,3.2c-0.1,0-0.1,0-0.2,0c-1.3,0.2-2.5,0.4-3.8,0.6c-0.7,0.1-1.3,0.2-2,0.3
		c-1,0.1-1.9,0.3-2.9,0.4c-1.7,0.2-3.4,0.3-5.1,0.4c-0.5,0-1,0-1.5,0.1c-1.5,0.1-2.9,0.1-4.4,0.1c-0.4,0-0.9,0-1.3,0
		c-0.2,0-0.3,0-0.5,0c-11.8-0.1-23.5-2-34.7-5.6c-1.1-0.4-2.3-0.5-3.4-0.5c-4.7,0-9,3-10.5,7.7c-1.9,5.8,1.3,12,7.1,13.9
		c12.9,4.2,26.3,6.4,39.9,6.6c0.1,0,0.2,0,0.2,0c0.7,0,1.5,0,2.2,0c0,0,0,0,0,0c0,0,0,0,0,0c0,0,0,0,0,0c2.2,0,4.3-0.1,6.5-0.2
		c0.7,0,1.4-0.1,2.1-0.1c1.4-0.1,2.8-0.2,4.3-0.3c1.8-0.2,3.7-0.4,5.5-0.6c0.7-0.1,1.4-0.2,2.1-0.3c1.5-0.2,3-0.5,4.5-0.8
		c0.2,0,0.4-0.1,0.7-0.1c7.2-1.4,14.3-3.3,21.2-5.8c0.3-0.1,0.6-0.2,0.9-0.3c1.7-0.6,3.5-1.3,5.2-2.1c0.9-0.4,1.7-0.7,2.6-1.1
		c0.6-0.3,1.2-0.5,1.8-0.8c0.2-0.1,0.3-0.2,0.4-0.2c12.2-5.6,23.5-12.9,33.7-21.9c4.6-4.1,5-11,0.9-15.6
		C358.8,268.3,355.7,267.1,352.7,267.1L352.7,267.1z"/>
</g>
</svg>
