<?xml version="1.0" encoding="utf-8"?>
<!-- Generator: Adobe Illustrator 24.2.0, SVG Export Plug-In . SVG Version: 6.00 Build 0)  -->
<svg version="1.1" id="Layer_1" xmlns="http://www.w3.org/2000/svg" xmlns:xlink="http://www.w3.org/1999/xlink" x="0px" y="0px"
	 viewBox="0 0 400 400" style="enable-background:new 0 0 400 400;" xml:space="preserve">
<style type="text/css">
	.st0{fill:#1CADB2;}
</style>
<g>
	<path class="st0" d="M240.3,26.3l44.1,77.2l-84.5,146.2L116.1,103l43.8-76.7H240.3 M242.9,21.8h-85.6L110.9,103l88.9,155.7
		l89.7-155.3L242.9,21.8L242.9,21.8z"/>
	<path class="st0" d="M311.1,150.3L394.8,297L351,373.7h-80.4l-44.1-77.2L311.1,150.3 M311.1,141.3l-89.7,155.3l46.6,81.7h85.6
		L400,297L311.1,141.3L311.1,141.3z"/>
	<path class="st0" d="M89.7,150.3L173.5,297l-43.8,76.7H49.2L5.2,296.5L89.7,150.3 M89.7,141.3L0,296.5l46.6,81.7h85.6l46.4-81.2
		L89.7,141.3L89.7,141.3z"/>
</g>
</svg>
