<?xml version="1.0" encoding="utf-8"?>
<!-- Generator: Adobe Illustrator 24.2.0, SVG Export Plug-In . SVG Version: 6.00 Build 0)  -->
<svg version="1.1" id="Layer_1" xmlns="http://www.w3.org/2000/svg" xmlns:xlink="http://www.w3.org/1999/xlink" x="0px" y="0px"
	 viewBox="0 0 400 400" style="enable-background:new 0 0 400 400;" xml:space="preserve">
<style type="text/css">
	.st0{fill:#DD1F48;}
</style>
<g>
	<path class="st0" d="M202.2,0l-91.3,52.7v61.8l91.3-23.3l182.9,76.2v-61.8L202.2,0z M200,87.2l-84.7,21.6V55.2l82.5-47.6l2.2-1.3
		V87.2z M380.7,160.7L204.4,87.3v-81l176.3,101.8V160.7z"/>
	<path class="st0" d="M202.2,308.9l-91.3-23.3v61.8l91.3,52.7l182.9-105.6v-61.8L202.2,308.9z M200,393.7l-84.7-48.9v-53.6
		l84.7,21.6V393.7z M380.7,291.9L204.4,393.7v-81l176.3-73.4V291.9z"/>
	<path class="st0" d="M202.2,131.7L19.3,178.5v42.9l182.9,46.8v0l91.3-36.7v-61.8L202.2,131.7z M200,263.1L23.7,217.9v-36
		l174.1-44.5l2.2-0.5V263.1z M289,228.5l-84.6,34V137.4l84.6,35.2V228.5z"/>
</g>
</svg>
