<svg id="Layer_1" data-name="Layer 1" xmlns="http://www.w3.org/2000/svg" viewBox="0 0 400 400"><defs><style>.cls-1{fill:#00b45a;}.cls-2{fill:none;stroke:#00b45a;stroke-miterlimit:10;stroke-width:4px;}</style></defs><title>navigation_icons</title><path class="cls-1" d="M152.73,191c-3-6.52-2.44-9.38-1.48-16l13.58-57.78L235.31,102l-3.8,16.28L175.25,130.2,166,169.59c-.66,2.79-1.61,5.89-2.45,9.42-1.88,8-3.27,12.52-.89,23.34a34,34,0,0,1-7.41-7.24A20.83,20.83,0,0,1,152.73,191Zm15.41-70.39-13,53.82a21.87,21.87,0,0,0,2.42,17.15,29.05,29.05,0,0,1,.79-8.37l13.58-56.35,56.25-11.88,1.79-7.66Z"/><path class="cls-2" d="M214.18,131,180.8,138l-13.35,57c-4.31,18.34,10.13,28,22.58,38.34,18.77-16,39.8-32.3,44.16-51L247.74,124Zm9.51,53.27c-3.15,9.06-19.65,24.86-33.73,36.8-9.43-7.62-17-14.34-12.66-28L188,147.57,234.78,138Z"/><path class="cls-1" d="M299.43,0a17.23,17.23,0,0,0-3.94.45L168.63,31.32C161.77,33,154.56,41.41,152.51,50.1l-.48,2h0L82.51,347h0c-.06.27-.12.56-.17.86a18,18,0,0,0-.23,6.14c.61,9.11,5,21,15,21.05L224,358c6.91-.93,19-12.28,20.92-20.73L317.37,23.35C321.08,7.33,309.05,0,299.43,0ZM86.2,347.89l1.45-6.15.84-.12,141.6-20.85-.85,3.67c-1.76,7.61-8.34,15-14.07,15.78L90.41,357.59a5.06,5.06,0,0,1-.76.06A3.11,3.11,0,0,1,87,356.43C85.65,354.7,85.35,351.51,86.2,347.89Zm2.29-10.1,20.19-87.93,45.26-192L299.36,23.52,231.31,316.76Zm210-318-142.9,33.7.6-2.56c1.73-7.32,7.83-14.63,13.33-16L296.38,4.14h0c.31-.07.65-.12,1-.17s.48,0,.7,0a3.3,3.3,0,0,1,2.75,1.2c1.21,1.53,1.48,4.41.71,7.72L300,19.48Zm15.19,2.66L241.19,336.38c-1.63,7-12.4,17.11-17.74,17.83L96.87,371.28a8.2,8.2,0,0,1-6.36-3.53,22.76,22.76,0,0,1-3.81-6.91,7.4,7.4,0,0,0,3,.59,9.51,9.51,0,0,0,1.28-.09L215.69,344c7.34-1,15.09-9.4,17.24-18.67L305.22,13.69a14.92,14.92,0,0,0-.3-9,14.41,14.41,0,0,1,6.62,4.55C314.21,12.64,314.93,17.09,313.68,22.49Z"/><path class="cls-1" d="M163.1,353.92l-.42,0-13.29,1.9a3.15,3.15,0,0,0-2.65,3.49,3,3,0,0,0,3,2.66l.43,0,13.29-1.9a3.15,3.15,0,0,0,2.64-3.5h0a3,3,0,0,0-3-2.65Z"/></svg>