<svg id="Layer_1" data-name="Layer 1" xmlns="http://www.w3.org/2000/svg" viewBox="0 0 400 400"><defs><style>.cls-1{fill:#fff;}</style></defs><title>navigation_icons</title><path class="cls-1" d="M322.42,110.78a157.71,157.71,0,0,1,19.44,36.76L359,141.85a175.61,175.61,0,0,0-22.21-42Z"/><path class="cls-1" d="M204.34,29.14c-4.61-.17-9.24-.16-13.85,0l1.31,18a158.76,158.76,0,0,1,41.4,3.86l4.62-17.46a178.93,178.93,0,0,0-23.5-3.81C211,29.48,207.65,29.27,204.34,29.14Z"/><path class="cls-1" d="M35.39,279.53A178.84,178.84,0,0,1,20,233.07L1.05,236a198.21,198.21,0,0,0,17.4,52.45Z"/><path class="cls-1" d="M25.58,97.59l16.76,9.29A180,180,0,0,1,72.83,68.57L60,54.35A199.78,199.78,0,0,0,25.58,97.59Z"/><path class="cls-1" d="M1.88,159.24l18.84,3.34a179.3,179.3,0,0,1,16.33-46.17L20.3,107.12A198.65,198.65,0,0,0,1.88,159.24Z"/><path class="cls-1" d="M124.69,13,132.2,30.6a179.88,179.88,0,0,1,47.6-11.51L178.41,0A197.87,197.87,0,0,0,124.69,13Z"/><path class="cls-1" d="M68.1,47.05,80.93,61.27a179.68,179.68,0,0,1,41.25-26.38l-7.51-17.63A200,200,0,0,0,68.1,47.05Z"/><path class="cls-1" d="M352,328.72,337,316.8a180.77,180.77,0,0,1-36.39,32.79l10.31,16.15A199.66,199.66,0,0,0,352,328.72Z"/><path class="cls-1" d="M118.82,362.81a179.76,179.76,0,0,1-40.71-27.22L65,349.55a198.87,198.87,0,0,0,46,30.71Z"/><path class="cls-1" d="M398.17,218.25a199.37,199.37,0,0,0-7.64-76.64l-18.24,6a182.17,182.17,0,0,1-1.07,107.51l18,6.41A202,202,0,0,0,398.17,218.25Z"/><path class="cls-1" d="M286.4,345.83l-9.71-15.2a157.63,157.63,0,0,1-38.26,16.31l4.26,17.56A175.76,175.76,0,0,0,286.4,345.83Z"/><path class="cls-1" d="M49.14,218.79a160.4,160.4,0,0,1-.45-33.94c.24-2.6.56-5.14.92-7.65l-17.76-3.15c-.44,3-.83,6-1.12,9.12a177.24,177.24,0,0,0,.57,38.41Z"/><path class="cls-1" d="M250,25.63a179.63,179.63,0,0,1,44.65,20.11L305.28,29.8A198,198,0,0,0,254.87,7.11Z"/><path class="cls-1" d="M172.08,398.51l1.77-19.07a179.86,179.86,0,0,1-45.09-12.15l-7.87,17.45A199.38,199.38,0,0,0,172.08,398.51Z"/><path class="cls-1" d="M78.27,320.86,90.62,307.7a159.16,159.16,0,0,1-25.21-33.08l-16,8.43A176.44,176.44,0,0,0,78.27,320.86Z"/><path class="cls-1" d="M314.34,35.85,303.69,51.8a180.73,180.73,0,0,1,35.68,33.54L354.6,73.73A199.25,199.25,0,0,0,314.34,35.85Z"/><path class="cls-1" d="M332.67,301.49a174.56,174.56,0,0,0,23.05-41.56l-17-6a157.34,157.34,0,0,1-20.18,36.35Z"/><path class="cls-1" d="M346.86,156.1l-17.14,5.69a135.9,135.9,0,0,1,4.73,50.53,138,138,0,0,1-5.54,27.85l17,6A155.75,155.75,0,0,0,352.43,214,153.68,153.68,0,0,0,346.86,156.1Z"/><path class="cls-1" d="M176.34,352.77l1.67-18a136.17,136.17,0,0,1-30.82-8.38l-7.41,16.45A154.36,154.36,0,0,0,176.34,352.77Z"/><path class="cls-1" d="M300.31,161.33,316.45,156a131.34,131.34,0,0,0-15.33-29l-13.51,10.3A114.35,114.35,0,0,1,300.31,161.33Z"/><path class="cls-1" d="M202.63,73.93c-3-.11-5.93-.09-8.89,0L195,90.85A115.24,115.24,0,0,1,222,93.37l4.34-16.43a133.88,133.88,0,0,0-16.22-2.52C207.65,74.19,205.11,74,202.63,73.93Z"/><path class="cls-1" d="M65.76,119.86l15.78,8.76a136.15,136.15,0,0,1,21.3-26.77L90.76,88.46A153.07,153.07,0,0,0,65.76,119.86Z"/><path class="cls-1" d="M238.53,69A135.32,135.32,0,0,1,269.73,83l10-15a153.1,153.1,0,0,0-36.62-16.47Z"/><path class="cls-1" d="M303.7,112.52l14.36-10.94a153.91,153.91,0,0,0-29.24-27.53l-10,15A136.38,136.38,0,0,1,303.7,112.52Z"/><path class="cls-1" d="M284.26,263l13.31,10.58a131.23,131.23,0,0,0,15.88-28.65l-16-5.69A114.22,114.22,0,0,1,284.26,263Z"/><path class="cls-1" d="M108.8,302.93,96.45,316.08a152.85,152.85,0,0,0,33.38,22.31l7.41-16.45A135.78,135.78,0,0,1,108.8,302.93Z"/><path class="cls-1" d="M92.44,212a116,116,0,0,1-.19-23.12c.13-1.34.29-2.69.46-4.05l-16.73-3q-.37,2.72-.63,5.46a132.65,132.65,0,0,0,.28,27.32Z"/><path class="cls-1" d="M64.25,226.14,46.4,228.93A152.71,152.71,0,0,0,59.06,267l16-8.44A135.31,135.31,0,0,1,64.25,226.14Z"/><path class="cls-1" d="M276.5,311.82,286.23,327a154.5,154.5,0,0,0,29.82-26.91l-14.13-11.22A136.48,136.48,0,0,1,276.5,311.82Z"/><path class="cls-1" d="M76.26,138.16,60.47,129.4a152.25,152.25,0,0,0-13.38,37.86l17.77,3.16A134.49,134.49,0,0,1,76.26,138.16Z"/><path class="cls-1" d="M228.12,304.4l4,16.52a130.76,130.76,0,0,0,30.15-12.86l-9.15-14.33A114.57,114.57,0,0,1,228.12,304.4Z"/><path class="cls-1" d="M104.13,254.17l-15,7.94A131.62,131.62,0,0,0,109,288.19l11.65-12.4A113.93,113.93,0,0,1,104.13,254.17Z"/><path class="cls-1" d="M193.39,336.23c-1.5-.06-3-.19-4.53-.29l-1.68,18a154.52,154.52,0,0,0,42.32-2.7l-4.25-17.55A135.91,135.91,0,0,1,193.39,336.23Z"/><path class="cls-1" d="M98.86,81.15,111,94.55a136.57,136.57,0,0,1,28.82-18.44l-7.08-16.6A153.66,153.66,0,0,0,98.86,81.15Z"/><path class="cls-1" d="M142.71,55.22l7.08,16.61a135.18,135.18,0,0,1,33.26-8l-1.3-18A153,153,0,0,0,142.71,55.22Z"/><path class="cls-1" d="M188.3,399.89c14.72.5,34.54-.64,50.79-4.11l-4-18.45A180.73,180.73,0,0,1,191,381c-2.37-.09-4.08-.29-6.46-.48l-1.67,19.29a46,46,0,0,0,5.45.11Z"/></svg>