<?xml version="1.0" encoding="utf-8"?>
<!-- Generator: Adobe Illustrator 24.1.2, SVG Export Plug-In . SVG Version: 6.00 Build 0)  -->
<svg version="1.1" id="Layer_1" xmlns="http://www.w3.org/2000/svg" xmlns:xlink="http://www.w3.org/1999/xlink" x="0px" y="0px"
	 viewBox="0 0 400 400" style="enable-background:new 0 0 400 400;" xml:space="preserve">
<style type="text/css">
	.st0{fill:#FFFFFF;}
</style>
<g>
	<g>
		
			<ellipse transform="matrix(0.4444 -0.8958 0.8958 0.4444 -243.9398 345.0249)" class="st0" cx="156.2" cy="369.2" rx="32.2" ry="24.5"/>
	</g>
	<g>
		
			<ellipse transform="matrix(0.4444 -0.8958 0.8958 0.4444 -156.0853 413.7382)" class="st0" cx="255.5" cy="332.7" rx="31.3" ry="26.1"/>
	</g>
	<g>
		
			<ellipse transform="matrix(0.4444 -0.8958 0.8958 0.4444 -41.0483 439.3828)" class="st0" cx="333.7" cy="252.8" rx="31.3" ry="27.3"/>
	</g>
	<g>
		
			<ellipse transform="matrix(0.6356 -0.7721 0.7721 0.6356 16.7115 339.0067)" class="st0" cx="367.4" cy="151.8" rx="28" ry="23.2"/>
	</g>
	<g>
		
			<ellipse transform="matrix(0.4444 -0.8958 0.8958 0.4444 -268.1404 255.5633)" class="st0" cx="72" cy="344" rx="28.2" ry="21.7"/>
	</g>
	<g>
		<ellipse transform="matrix(0.7808 -0.6248 0.6248 0.7808 36.8552 229.8085)" class="st0" cx="346" cy="62.4" rx="26.2" ry="20"/>
	</g>
	<g>
		<ellipse transform="matrix(0.5 -0.866 0.866 0.5 -223.9183 162.5375)" class="st0" cx="28.8" cy="275.2" rx="26.4" ry="19.2"/>
	</g>
	<g>
		
			<ellipse transform="matrix(0.5717 -0.8204 0.8204 0.5717 -136.0953 110.7336)" class="st0" cx="38" cy="185.7" rx="23.4" ry="16.1"/>
	</g>
	<g>
		
			<ellipse transform="matrix(0.5717 -0.8204 0.8204 0.5717 -60.2019 110.2333)" class="st0" cx="75.5" cy="112.8" rx="20.2" ry="15.1"/>
	</g>
	<g>
		<ellipse transform="matrix(0.7808 -0.6248 0.6248 0.7808 -3.2246 98.0868)" class="st0" cx="138.2" cy="53.6" rx="19" ry="14.5"/>
	</g>
	<g>
		<ellipse transform="matrix(0.7808 -0.6248 0.6248 0.7808 33.8576 135.4756)" class="st0" cx="210" cy="19.5" rx="20" ry="14.7"/>
	</g>
	<g>
		<ellipse transform="matrix(0.845 -0.5347 0.5347 0.845 34.1905 156.9385)" class="st0" cx="287.8" cy="19.5" rx="24" ry="17.3"/>
	</g>
</g>
</svg>
