<?xml version="1.0" encoding="utf-8"?>
<!-- Generator: Adobe Illustrator 24.2.0, SVG Export Plug-In . SVG Version: 6.00 Build 0)  -->
<svg version="1.1" id="Layer_1" xmlns="http://www.w3.org/2000/svg" xmlns:xlink="http://www.w3.org/1999/xlink" x="0px" y="0px"
	 viewBox="0 0 400 400" style="enable-background:new 0 0 400 400;" xml:space="preserve">
<style type="text/css">
	.st0{fill:#FFFFFF;}
</style>
<path class="st0" d="M277.4,264.7c-9.5,32.1-40.6,55.1-75.5,56.1c0,0,0,0,0,0c-0.7,0-1.5,0-2.2,0h0c-0.7,0-1.5,0-2.2,0c0,0,0,0,0,0
	c-35-1-66-24-75.5-56.1H5.2l127.4,97.4h133.8L394,264.7H277.4z"/>
<path class="st0" d="M119.9,256.7c-0.7-4.1-1.1-8.3-1.1-12.6c0-14.2,6.5-33.8,13.1-45.3c16.9-33.3,50.5-77.7,62.4-110l0,0l3.4-9.5
	c0.6-1.7,3.1-1.7,3.7,0l3.4,9.3c0.1,0.1,0.1,0.3,0.2,0.4c0,0,0,0.1,0,0.1l0,0l0,0c12,32.2,45.5,76.5,62.3,109.7
	c6.6,11.4,13.1,31.1,13.1,45.3c0,4.3-0.4,8.5-1.1,12.6h116.3L199.6,37L3.6,256.7H119.9z"/>
</svg>
