<?xml version="1.0" encoding="utf-8"?>
<!-- Generator: Adobe Illustrator 24.1.2, SVG Export Plug-In . SVG Version: 6.00 Build 0)  -->
<svg version="1.1" id="Layer_1" xmlns="http://www.w3.org/2000/svg" xmlns:xlink="http://www.w3.org/1999/xlink" x="0px" y="0px"
	 viewBox="0 0 400 400" style="enable-background:new 0 0 400 400;" xml:space="preserve">
<style type="text/css">
	.st0{fill:#3C82F9;}
</style>
<g>
	<path class="st0" d="M161.8,342.8c2.4,0,4.6,0.5,6.7,1.5c9.9,4.9,12.4,20,5.6,33.7c-5.2,10.4-14.6,17.4-23.5,17.4
		c-2.4,0-4.6-0.5-6.7-1.5c-9.9-4.9-12.4-20-5.6-33.7C143.5,349.9,152.9,342.8,161.8,342.8 M161.8,338.3c-10.3,0-21.5,7.6-27.6,19.9
		c-7.9,15.9-4.5,33.7,7.6,39.7c2.7,1.4,5.7,2,8.7,2c10.3,0,21.5-7.6,27.6-19.9c7.9-15.9,4.5-33.7-7.6-39.7
		C167.8,339,164.8,338.3,161.8,338.3L161.8,338.3z"/>
	<path class="st0" d="M259.4,306.8c2.8,0,5.5,0.6,8,1.8c5,2.5,8.6,7.3,10.1,13.4c1.5,6.5,0.6,13.6-2.6,20.2
		c-4.9,9.9-14,16.3-23.3,16.3c-2.8,0-5.5-0.6-8-1.8c-10.7-5.3-14-20.4-7.4-33.6C241.1,313.2,250.2,306.8,259.4,306.8 M259.4,302.3
		c-10.6,0-21.5,7.1-27.3,18.8c-7.7,15.5-3.4,33.2,9.5,39.6c3.2,1.6,6.6,2.3,10,2.3c10.6,0,21.5-7.1,27.3-18.8
		c7.7-15.5,3.4-33.2-9.5-39.6C266.3,303.1,262.9,302.3,259.4,302.3L259.4,302.3z"/>
	<path class="st0" d="M336.8,226.7c3.1,0,6.1,0.7,8.8,2c11.2,5.6,15,20.9,8.5,34.1c-4.8,9.7-14,15.9-23.5,15.9c-3.1,0-6.1-0.7-8.8-2
		c-5.3-2.6-9.2-7.6-10.8-13.9c-1.7-6.5-0.9-13.7,2.4-20.2C318.1,233,327.3,226.7,336.8,226.7 M336.8,222.2
		c-10.8,0-21.8,6.9-27.5,18.4c-7.7,15.5-3,33.5,10.5,40.2c3.4,1.7,7.1,2.5,10.8,2.5c10.8,0,21.8-6.9,27.5-18.4
		c7.7-15.5,3-33.5-10.5-40.2C344.2,223,340.5,222.2,336.8,222.2L336.8,222.2z"/>
	<path class="st0" d="M372,130.2c3.9,0,7.5,1.2,10.3,3.5c3.7,3.1,5.8,7.8,5.8,13.3c0,5.8-2.2,11.7-6.3,16.7c-5,6.1-12.1,9.8-19,9.8
		c-3.9,0-7.5-1.2-10.3-3.5c-8-6.6-7.7-20,0.5-30C358,133.8,365.2,130.2,372,130.2 M372,125.7c-7.9,0-16.4,4-22.5,11.4
		c-9.8,11.9-9.8,28.2,0.1,36.3c3.7,3.1,8.4,4.6,13.2,4.6c7.9,0,16.4-4,22.5-11.4c9.8-11.9,9.8-28.2-0.1-36.3
		C381.5,127.1,376.9,125.7,372,125.7L372,125.7z"/>
	<path class="st0" d="M76.8,321.4c2.1,0,4,0.4,5.7,1.3c8.5,4.2,10.7,17.2,4.9,28.9c-4.4,8.9-12.5,14.9-20.2,14.9
		c-2.1,0-4-0.4-5.7-1.3c-3.9-1.9-6.6-5.9-7.7-11.1c-1.1-5.6-0.1-12,2.8-17.8C61,327.4,69.1,321.4,76.8,321.4 M76.8,316.9
		c-9.1,0-18.9,6.6-24.2,17.4c-6.9,14-3.8,29.6,6.9,34.9c2.4,1.2,5.1,1.8,7.7,1.8c9.1,0,18.9-6.6,24.2-17.4c6.9-14,3.8-29.6-6.9-34.9
		C82.1,317.5,79.4,316.9,76.8,316.9L76.8,316.9z"/>
	<path class="st0" d="M352.1,44.3c4.6,0,8.4,1.6,10.7,4.6c5.3,6.7,2.1,18.2-7.3,25.6c-4.8,3.8-10.6,6-15.9,6
		c-4.6,0-8.4-1.6-10.7-4.6c-5.3-6.7-2.1-18.2,7.3-25.6C341.1,46.5,346.9,44.3,352.1,44.3 M352.1,39.8c-6.1,0-12.8,2.3-18.7,7
		c-11.3,9-14.9,23.3-8,32c3.3,4.2,8.5,6.2,14.3,6.2c6.1,0,12.8-2.3,18.7-7c11.3-9,14.9-23.3,8-32C363.1,41.8,357.9,39.8,352.1,39.8
		L352.1,39.8z"/>
	<path class="st0" d="M34.5,254.9c1.9,0,3.7,0.5,5.2,1.3c3.2,1.8,5.2,5.4,5.7,10.1c0.6,5.2-0.8,11-3.9,16.2
		c-4.5,7.7-11.9,12.9-18.5,12.9c-1.9,0-3.7-0.5-5.2-1.3c-3.2-1.8-5.2-5.4-5.7-10.1c-0.6-5.2,0.8-11,3.9-16.2
		C20.5,260.1,27.9,254.9,34.5,254.9 M34.5,250.4c-8,0-16.9,5.7-22.4,15.2c-7.3,12.6-5.7,27.2,3.5,32.5c2.3,1.3,4.8,1.9,7.5,1.9
		c8,0,16.9-5.7,22.4-15.2c7.3-12.6,5.7-27.2-3.5-32.5C39.7,251,37.2,250.4,34.5,250.4L34.5,250.4z"/>
	<path class="st0" d="M44.4,169c1.7,0,3.2,0.4,4.4,1.3c3.1,2.1,3.5,6.2,3.5,8.4c0,4.4-1.8,9.4-4.8,13.7
		c-4.3,6.2-10.5,10.1-15.9,10.1c-1.7,0-3.2-0.4-4.4-1.3c-3.1-2.1-3.5-6.2-3.5-8.4c0-4.4,1.8-9.4,4.8-13.7
		C32.8,172.9,39,169,44.4,169 M44.4,164.5c-6.6,0-14.2,4.5-19.6,12.1c-7.4,10.6-7.5,23.3-0.2,28.4c2,1.4,4.4,2.1,7,2.1
		c6.6,0,14.2-4.5,19.6-12.1c7.4-10.6,7.5-23.3,0.2-28.4C49.3,165.1,46.9,164.5,44.4,164.5L44.4,164.5z"/>
	<path class="st0" d="M80.1,98.6c1.7,0,3.2,0.4,4.4,1.3c2.1,1.5,3.3,4.1,3.5,7.4c0.1,3.8-1.2,8-3.7,11.6c-3.5,5-8.7,8.2-13.3,8.2
		c-1.7,0-3.2-0.4-4.4-1.3c-2.1-1.5-3.3-4.1-3.5-7.4c-0.1-3.8,1.2-8,3.7-11.6C70.2,101.8,75.4,98.6,80.1,98.6 M80.1,94.1
		c-5.9,0-12.5,3.7-17,10.1c-6.4,9.2-6,20.5,0.8,25.2c2.1,1.4,4.5,2.1,7,2.1c5.9,0,12.5-3.7,17-10.1c6.4-9.2,6-20.5-0.8-25.2
		C85,94.7,82.6,94.1,80.1,94.1L80.1,94.1z"/>
	<path class="st0" d="M142.7,41.7c3,0,5.4,1,6.9,2.9c3.4,4.3,1.1,12-5.1,16.9c-3.3,2.6-7.2,4.1-10.8,4.1c-3,0-5.4-1-6.9-2.9
		c-3.4-4.3-1.1-12,5.1-16.9C135.2,43.2,139.1,41.7,142.7,41.7 M142.7,37.2c-4.4,0-9.3,1.7-13.6,5.1c-8.2,6.6-10.8,17-5.8,23.3
		c2.4,3,6.2,4.5,10.4,4.5c4.4,0,9.3-1.7,13.6-5.1c8.2-6.6,10.8-17,5.8-23.3C150.6,38.7,146.8,37.2,142.7,37.2L142.7,37.2z"/>
	<path class="st0" d="M215.3,7c2.9,0,5.3,1,6.8,2.8c2.1,2.6,1.6,6,1.1,7.8c-1,3.6-3.4,7.1-6.8,9.8c-3.6,2.9-7.8,4.5-11.7,4.5
		c-2.9,0-5.3-1-6.8-2.8c-2.1-2.6-1.6-6-1.1-7.8c1-3.6,3.4-7.1,6.8-9.8C207.2,8.7,211.5,7,215.3,7 M215.3,2.5
		c-4.7,0-9.9,1.8-14.5,5.5c-8.6,6.9-11.5,17.6-6.4,23.9c2.4,3,6.1,4.5,10.3,4.5c4.7,0,9.9-1.8,14.5-5.5c8.6-6.9,11.5-17.6,6.4-23.9
		C223.2,4,219.5,2.5,215.3,2.5L215.3,2.5z"/>
	<path class="st0" d="M294.3,4.5c4.6,0,8.3,1.7,10.1,4.5c1.7,2.7,1.8,6.2,0.2,10c-1.7,4.3-5.2,8.3-9.9,11.3
		c-4.2,2.7-8.9,4.1-13.3,4.1c-4.6,0-8.3-1.7-10.1-4.5c-1.7-2.7-1.8-6.2-0.2-10c1.7-4.3,5.2-8.3,9.9-11.3
		C285.2,6,289.9,4.5,294.3,4.5 M294.3,0c-5,0-10.6,1.6-15.7,4.8c-11.2,7.1-16.2,19.4-11,27.5c2.8,4.4,7.9,6.6,13.9,6.6
		c5,0,10.6-1.6,15.7-4.8c11.2-7.1,16.2-19.4,11-27.5C305.4,2.2,300.2,0,294.3,0L294.3,0z"/>
</g>
</svg>
