<?xml version="1.0" encoding="utf-8"?>
<!-- Generator: Adobe Illustrator 24.2.0, SVG Export Plug-In . SVG Version: 6.00 Build 0)  -->
<svg version="1.1" id="Layer_1" xmlns="http://www.w3.org/2000/svg" xmlns:xlink="http://www.w3.org/1999/xlink" x="0px" y="0px"
	 viewBox="0 0 400 400" style="enable-background:new 0 0 400 400;" xml:space="preserve">
<style type="text/css">
	.st0{fill:#13CDC2;}
</style>
<path class="st0" d="M199.6,37L0,260.7l132.6,101.4h133.8l132.8-101.4L199.6,37z M390.3,258.2h-106l0.5-3.7
	c0.5-3.4,0.7-6.8,0.7-10.2c0-15.4-7-36-13.7-47.6c-7-13.8-16.6-29.1-26.7-45.2c-14-22.3-28.4-45.3-35.3-63.8l0,0v-0.1l-0.1-0.2
	l-0.1-0.2l-3.4-9.3c-1-2.8-3.6-4.6-6.6-4.6s-5.5,1.8-6.6,4.6l-3.3,9.1l-0.2,0.4c-6.9,18.6-21.4,41.8-35.5,64.3
	c-10.1,16.1-19.6,31.3-26.6,45.1c-6.7,11.6-13.7,32.2-13.7,47.6c0,3,0.2,6.1,0.6,9.2l0.3,2.4l0.4,2.4H8.9L199.6,44.5L390.3,258.2z
	 M278.8,259.4l-0.2,0.7c0,0.2-0.1,0.4-0.1,0.6l0,0l0,0l0,0c-0.1,0.2-0.1,0.5-0.2,0.7l-0.1,0.6l0,0c-8.5,33.5-40.3,57.8-76.3,58.8
	l0,0c-0.7,0-1.5,0-2.2,0l0,0c-0.7,0-1.5,0-2.2,0l0,0c-35.3-1-66.6-24.4-75.8-56.9l0,0c-0.1-0.4-0.3-1.1-0.5-1.8
	c-0.1-0.5-0.2-0.9-0.4-1.4l0,0l0,0l0,0c-0.2-0.7-0.3-1.5-0.5-2.2c0-0.1,0-0.1,0-0.1l0,0c-0.9-4.6-1.4-9.3-1.4-14.2
	c0-14.2,6.5-33.8,13.1-45.3c16.9-33.3,50.5-77.7,62.4-110l0,0l3.4-9.5c0.3-0.9,1.1-1.3,1.8-1.3c0.8,0,1.5,0.4,1.8,1.3l3.4,9.3
	c0.1,0.1,0.1,0.3,0.2,0.4v0.1l0,0l0,0c12,32.2,45.5,76.5,62.3,109.7c6.6,11.4,13.1,31.1,13.1,45.3
	C280.4,249.5,279.8,254.5,278.8,259.4L278.8,259.4z M264.7,357.1H134.3L11.5,263.2h104.7l0.7,2.6c10,34.3,42.9,59,80.3,60.1l0,0
	c0.9,0,1.6,0,2.4,0c0.7,0,1.5,0,2.4,0l0,0l0,0c18.5-0.5,36.7-7,51.3-18.3c13.7-10.5,23.7-24.8,28.6-40.6l1.1-3.8l0,0h104.7
	L264.7,357.1z"/>
</svg>
