<svg id="Layer_1" data-name="Layer 1" xmlns="http://www.w3.org/2000/svg" viewBox="0 0 400 400"><defs><style>.cls-1{fill:#fff;}</style></defs><title>navigation_icons</title><path class="cls-1" d="M336.08,105.93a171.36,171.36,0,0,1,17.45,33l-8.8,2.92a162.69,162.69,0,0,0-16-30.3l7.38-5.63m1-6.28L322.69,110.6a157.71,157.71,0,0,1,19.44,36.76l17.15-5.69a175.61,175.61,0,0,0-22.21-42Z"/><path class="cls-1" d="M198.06,33.24c2.13,0,4.28,0,6.38.12,3.26.12,6.54.34,9.74.63a172.85,172.85,0,0,1,18.48,2.75l-2.37,9a166.92,166.92,0,0,0-17-2.49c-5-.46-10.11-.7-15.21-.7h-2l-.68-9.26,2.58,0m0-4.4q-3.66,0-7.3.15l1.31,18q3-.1,6-.11,7.39,0,14.8.68a162.42,162.42,0,0,1,20.56,3.29l4.62-17.46a178.93,178.93,0,0,0-23.5-3.81c-3.32-.31-6.67-.52-10-.65-2.18-.08-4.37-.12-6.55-.12Z"/><path class="cls-1" d="M16.74,237.89a183.92,183.92,0,0,0,13.13,39.54l-9.16,4.84a194.2,194.2,0,0,1-14.2-42.79l10.23-1.59m3.5-5-18.92,3a198.21,198.21,0,0,0,17.4,52.45l16.94-8.94a178.84,178.84,0,0,1-15.42-46.46Z"/><path class="cls-1" d="M60.07,60.51,67,68.2a185.29,185.29,0,0,0-25.95,32.61l-9.06-5A195.53,195.53,0,0,1,60.07,60.51m.2-6.34A199.78,199.78,0,0,0,25.85,97.41l16.76,9.29A180,180,0,0,1,73.1,68.39L60.27,54.17Z"/><path class="cls-1" d="M22.43,113l9.06,5a184.18,184.18,0,0,0-13.89,39.3L7.41,155.52a194.85,194.85,0,0,1,15-42.51m-1.86-6.07A198.65,198.65,0,0,0,2.15,159.06L21,162.4a179.3,179.3,0,0,1,16.33-46.17l-16.75-9.29Z"/><path class="cls-1" d="M174.63,4.68,175.38,15a184.31,184.31,0,0,0-40.52,9.79l-4.06-9.53a193.52,193.52,0,0,1,43.83-10.6m4.05-4.87A197.87,197.87,0,0,0,125,12.8l7.51,17.62a180,180,0,0,1,47.6-11.51L178.68-.19Z"/><path class="cls-1" d="M112.68,23l4.07,9.54A185,185,0,0,0,81.64,55L74.7,47.31a195.91,195.91,0,0,1,38-24.3m2.26-5.93A199.74,199.74,0,0,0,68.38,46.87L81.2,61.09a179.68,179.68,0,0,1,41.25-26.38l-7.51-17.63Z"/><path class="cls-1" d="M337.86,322.69l8.11,6.44a195.75,195.75,0,0,1-33.51,30.21l-5.57-8.74a185.82,185.82,0,0,0,31-27.91m-.57-6.07a181,181,0,0,1-36.38,32.79l10.3,16.15a199.66,199.66,0,0,0,41.07-37l-15-11.92Z"/><path class="cls-1" d="M78.7,341.51a184.77,184.77,0,0,0,34.64,23.16l-4.25,9.44a194.55,194.55,0,0,1-37.48-25.06l7.09-7.54m-.32-6.1-13.11,14a198.87,198.87,0,0,0,46,30.71l7.87-17.45a179.76,179.76,0,0,1-40.71-27.22Z"/><path class="cls-1" d="M387.85,147a195.51,195.51,0,0,1,6.21,70.63,198.11,198.11,0,0,1-7.36,38.05l-9.77-3.46a187.05,187.05,0,0,0,6.82-35.55,184.83,184.83,0,0,0-5.8-66.38l9.9-3.29m2.95-5.61-18.24,6A182.17,182.17,0,0,1,371.49,255l18.05,6.41a201.37,201.37,0,0,0,8.9-43.33,199.37,199.37,0,0,0-7.64-76.64Z"/><path class="cls-1" d="M275.51,336.36l5,7.79a171.11,171.11,0,0,1-34.34,14.67l-2.18-9a162.3,162.3,0,0,0,31.54-13.45m1.45-5.91a157.63,157.63,0,0,1-38.26,16.31L243,364.32a175.76,175.76,0,0,0,43.71-18.67L277,330.45Z"/><path class="cls-1" d="M35.86,179,45,180.62c-.15,1.26-.28,2.46-.39,3.64a165.17,165.17,0,0,0,0,30.65l-9.16,1.43a174.25,174.25,0,0,1,0-32.94c.13-1.41.29-2.86.48-4.4m-3.74-5.13c-.44,3-.83,6-1.12,9.12a177.24,177.24,0,0,0,.57,38.41l17.84-2.79A160.4,160.4,0,0,1,49,184.67c.24-2.6.56-5.14.92-7.65l-17.76-3.15Z"/><path class="cls-1" d="M258.23,12.47A193.84,193.84,0,0,1,299.35,31l-5.76,8.63a183.94,183.94,0,0,0-38-17.11l2.65-10m-3.09-5.54-4.89,18.52A179.63,179.63,0,0,1,294.9,45.56l10.65-15.94A198,198,0,0,0,255.14,6.93Z"/><path class="cls-1" d="M131.31,372.77a185.16,185.16,0,0,0,38,10.24l-1,10.32a195.25,195.25,0,0,1-41.34-11.13l4.26-9.43M129,367.11l-7.87,17.45a199.38,199.38,0,0,0,51.19,13.77l1.77-19.07A179.86,179.86,0,0,1,129,367.11Z"/><path class="cls-1" d="M64,280.29a163.35,163.35,0,0,0,20.78,27.28l-6.33,6.74a171.69,171.69,0,0,1-22.64-29.7L64,280.29m1.65-5.85-16,8.43a176.44,176.44,0,0,0,28.82,37.81L90.9,307.52a158.86,158.86,0,0,1-25.22-33.08Z"/><path class="cls-1" d="M315.73,41.92a195.37,195.37,0,0,1,32.84,30.9l-8.24,6.28A185.37,185.37,0,0,0,310,50.55l5.77-8.63m-1.12-6.25L304,51.62a180.73,180.73,0,0,1,35.68,33.54l15.23-11.61a199.54,199.54,0,0,0-40.26-37.88Z"/><path class="cls-1" d="M341.46,259.26l8.73,3.1A170.29,170.29,0,0,1,332.09,295l-7.26-5.78a161.91,161.91,0,0,0,16.63-30M339,253.71a157.34,157.34,0,0,1-20.18,36.35l14.14,11.25A174.56,174.56,0,0,0,356,259.75l-17-6Z"/><path class="cls-1" d="M344.13,161.56a149.15,149.15,0,0,1,4.19,51.84,152.54,152.54,0,0,1-5,26.94l-8.75-3.11a142.4,142.4,0,0,0,4.53-24.68,140.22,140.22,0,0,0-3.77-48.08l8.8-2.91m3-5.64L330,161.61a135.9,135.9,0,0,1,4.73,50.53A137.28,137.28,0,0,1,329.18,240l17,6a155.75,155.75,0,0,0,6.48-32.22,153.68,153.68,0,0,0-5.57-57.89Z"/><path class="cls-1" d="M149.76,331.85a141.34,141.34,0,0,0,23.76,6.45l-.86,9.21a150.64,150.64,0,0,1-26.7-7.24l3.8-8.42m-2.3-5.61-7.41,16.45a154.36,154.36,0,0,0,36.56,9.9l1.67-18a136.17,136.17,0,0,1-30.82-8.38Z"/><path class="cls-1" d="M300.35,133.15a126.72,126.72,0,0,1,10.55,19.94l-7.79,2.59a118.73,118.73,0,0,0-9.28-17.56l6.52-5m1-6.32-13.51,10.3a114.35,114.35,0,0,1,12.7,24l16.14-5.35a131.34,131.34,0,0,0-15.33-29Z"/><path class="cls-1" d="M198.74,78.07c1.38,0,2.72,0,4,.07,2.43.1,4.88.26,7.29.48,3.73.35,7.47.86,11.17,1.53l-2.09,7.94c-3.29-.59-6.58-1-9.84-1.34s-6.57-.47-9.93-.51l-.59-8.17m-.08-4.4c-1.55,0-3.1,0-4.65.08l1.23,16.92q1.44,0,2.88,0c3.6,0,7.19.16,10.73.49a116.55,116.55,0,0,1,13.45,2.06l4.34-16.43a133.88,133.88,0,0,0-16.22-2.52c-2.5-.23-5-.4-7.52-.49-1.42-.06-2.83-.08-4.24-.08Z"/><path class="cls-1" d="M90.85,94.66l6.2,6.87a140.21,140.21,0,0,0-16.74,21l-8.1-4.49A148.28,148.28,0,0,1,90.85,94.66M91,88.28a153.07,153.07,0,0,0-25,31.4l15.78,8.76a135.79,135.79,0,0,1,21.3-26.76L91,88.28Z"/><path class="cls-1" d="M246.49,56.94A148.81,148.81,0,0,1,273.8,69.22l-5.14,7.7a140.78,140.78,0,0,0-24.54-11l2.37-8.93m-3.08-5.59L238.8,68.78a135.32,135.32,0,0,1,31.2,14l10-15a153.1,153.1,0,0,0-36.62-16.47Z"/><path class="cls-1" d="M290.18,80.17A149.77,149.77,0,0,1,312,100.7l-7.37,5.61A141.2,141.2,0,0,0,285,87.87l5.14-7.7m-1.09-6.3-10,15A136.38,136.38,0,0,1,304,112.34l14.36-10.94a153.91,153.91,0,0,0-29.24-27.53Z"/><path class="cls-1" d="M300.13,244.6l7.73,2.74a126.09,126.09,0,0,1-10.94,19.72L290.5,262a120.11,120.11,0,0,0,9.63-17.36m-2.42-5.53a114.22,114.22,0,0,1-13.18,23.76l13.31,10.58a130.82,130.82,0,0,0,15.88-28.65l-16-5.69Z"/><path class="cls-1" d="M109.43,308.8a139.67,139.67,0,0,0,22.36,14.95l-3.8,8.44a148.86,148.86,0,0,1-24.9-16.64l6.34-6.75m-.35-6.05L96.72,315.9a152.85,152.85,0,0,0,33.38,22.31l7.41-16.45a135.45,135.45,0,0,1-28.43-19Z"/><path class="cls-1" d="M80.07,186.84l8.08,1.44v0A121.32,121.32,0,0,0,88,208.13l-8.13,1.27A129.47,129.47,0,0,1,80,187.56c0-.24,0-.48.07-.72m-3.82-5.15q-.37,2.72-.63,5.46a132.65,132.65,0,0,0,.28,27.32l16.81-2.63a116,116,0,0,1-.19-23.12c.13-1.34.29-2.69.46-4.05l-16.73-3Z"/><path class="cls-1" d="M61.09,231a139.91,139.91,0,0,0,8.47,25.52l-8.2,4.34a148.18,148.18,0,0,1-9.44-28.43L61.09,231m3.44-5-17.86,2.79a152.71,152.71,0,0,0,12.66,38.11l16-8.44A134.85,134.85,0,0,1,64.53,226Z"/><path class="cls-1" d="M302.71,294.76l7.25,5.76a150.89,150.89,0,0,1-22.25,20.07l-5-7.81a141.22,141.22,0,0,0,20-18m-.52-6a136.74,136.74,0,0,1-25.41,22.91l9.72,15.22A154.5,154.5,0,0,0,316.32,300l-14.13-11.22Z"/><path class="cls-1" d="M62.65,135.31l8.1,4.5a139.27,139.27,0,0,0-9,25.37l-9.12-1.62a148,148,0,0,1,10-28.25m-1.91-6.09a152.25,152.25,0,0,0-13.38,37.86l17.77,3.16A134.49,134.49,0,0,1,76.53,138l-15.79-8.76Z"/><path class="cls-1" d="M251.91,299.4l4.42,6.92a127.15,127.15,0,0,1-20.75,8.85l-1.94-8a120.14,120.14,0,0,0,18.27-7.79m1.49-5.85a114.57,114.57,0,0,1-25,10.67l4,16.52a130.76,130.76,0,0,0,30.15-12.86l-9.15-14.33Z"/><path class="cls-1" d="M102.81,259.81a118.28,118.28,0,0,0,12,15.8l-5.63,6a127.63,127.63,0,0,1-13.67-17.95l7.26-3.83M104.4,254l-15,7.94A131.62,131.62,0,0,0,109.23,288l11.65-12.4A113.93,113.93,0,0,1,104.4,254Z"/><path class="cls-1" d="M222.22,338.58l2.18,9a148.84,148.84,0,0,1-25.51,2.19c-2.2,0-4.42-.05-6.63-.15l.85-9.18.39,0c1.75.06,3.52.1,5.26.1a141.85,141.85,0,0,0,23.46-2m3.3-5.09a136.28,136.28,0,0,1-26.76,2.66c-1.7,0-3.4,0-5.1-.1-1.5-.06-3-.19-4.53-.29l-1.68,18c3.82.28,7.64.42,11.44.42A153.55,153.55,0,0,0,229.77,351l-4.25-17.55Z"/><path class="cls-1" d="M130.73,65.31l3.63,8.52a140.56,140.56,0,0,0-22.66,14.5l-6.2-6.87a149.57,149.57,0,0,1,25.23-16.15m2.23-6A153.27,153.27,0,0,0,99.14,81l12.08,13.39A136.57,136.57,0,0,1,140,75.93L133,59.33Z"/><path class="cls-1" d="M178,50.55l.67,9.22a140.31,140.31,0,0,0-26.16,6.32l-3.63-8.52a149,149,0,0,1,29.12-7M182,45.63A153,153,0,0,0,143,55l7.08,16.61a135.18,135.18,0,0,1,33.26-8l-1.3-18Z"/><path class="cls-1" d="M232,382.31l2.13,9.84a225.5,225.5,0,0,1-38.75,3.27c-2.29,0-4.53,0-6.66-.11h-.8l.88-10.24c.72.05,1.47.1,2.3.13,2.48.09,5,.14,7.41.14a182,182,0,0,0,33.49-3m3.39-5.16a178,178,0,0,1-36.88,3.78c-2.41,0-4.82-.05-7.25-.14s-4.08-.29-6.46-.48l-1.67,19.29c1.23.1,1.56.12,1.95.12s.76,0,2,0h1.54c2.16.07,4.44.11,6.8.11,13.68,0,30.13-1.26,44-4.22l-4-18.45Z"/></svg>