<svg id="Layer_1" data-name="Layer 1" xmlns="http://www.w3.org/2000/svg" viewBox="0 0 400 400"><defs><style>.cls-1{fill:#6d8ac5;}</style></defs><title>navigation_icons</title><path class="cls-1" d="M280.76,63.51l.18,179.77,0,0,0,0-161.7,92.94L228.79,399.6l159.57-92.05v-.05l.06-181.78Zm-52,331L128.32,336.44l154.53-89.08,98.78,59ZM285.4,71.26l98.62,57,0,171.49v2.5l-98.63-59Z"/><path class="cls-1" d="M119.12,156.48l161.64-93L171.23.24,11.66,92.29,11.6,274.07l107.64,62.2-.15-179.73ZM171.23,5.32,271.71,63.4,117.17,152.48l-98.78-59Zm-56.6,323.21L16,271.53,16.06,100V97.55l1.72,1,96.91,57.92Z"/></svg>