<?xml version="1.0" encoding="UTF-8"?>
<svg width="22px" height="22px" viewBox="0 0 22 22" version="1.1" xmlns="http://www.w3.org/2000/svg" xmlns:xlink="http://www.w3.org/1999/xlink">
    <!-- Generator: Sketch 61.2 (89653) - https://sketch.com -->
    <title>mdpi/support</title>
    <desc>Created with Sketch.</desc>
    <g id="Page-1" stroke="none" stroke-width="1" fill="none" fill-rule="evenodd">
        <g id="Nav_dropdown_products" transform="translate(-899.000000, -527.000000)" fill="#677897" fill-rule="nonzero" stroke="#677897" stroke-width="0.5">
            <g id="Group-4" transform="translate(900.000000, 524.000000)">
                <g id="support" transform="translate(0.000000, 4.000000)">
                    <path d="M9.59454695,0.00853960976 C11.587771,-0.0747854886 13.5875734,0.453671056 15.2803885,1.50619861 C15.5343087,1.66598254 15.7812322,1.83626155 16.0207637,2.01743086 C16.0317821,2.02723234 16.0438586,2.03642078 16.0559148,2.04563602 C16.2288375,2.17613062 16.3968949,2.31299763 16.5609637,2.45566618 C17.1961951,3.00708227 17.7583001,3.63836937 18.2339957,4.32867455 C18.2348585,4.33069698 18.2360297,4.33238885 18.2372004,4.33408108 C18.3119508,4.44179902 18.3875854,4.55650845 18.4608409,4.67271105 L18.4905976,4.71860043 C18.4921494,4.72109681 18.4936368,4.72362641 18.4950604,4.72618679 C19.0681444,5.64924566 19.4923906,6.66459834 19.7382813,7.72707504 C20.1856055,9.65451613 20.0540396,11.7113304 19.3457762,13.5598319 C19.1175398,14.1554574 18.8326128,14.7265942 18.4973423,15.2654656 L18.4884048,15.2833458 C18.3931852,15.4354398 18.2939485,15.584876 18.1908543,15.7314947 C18.1748068,15.7520523 18.1596948,15.7734217 18.1445008,15.7947317 C18.0931731,15.8686677 18.0399671,15.9410366 17.9858177,16.0126715 C17.9677348,16.0351602 17.9502301,16.0581752 17.9326276,16.0811147 C17.8827552,16.1472202 17.8315933,16.2120521 17.7796542,16.2762419 C17.7403095,16.3242764 17.7010479,16.3720323 17.6613531,16.4194261 C17.6222597,16.4662855 17.5824467,16.5128289 17.5422186,16.5590061 C16.9075086,17.2896641 16.1679427,17.9298492 15.3461715,18.4518923 C15.327733,18.4635974 15.3092564,18.475239 15.2907424,18.486817 L15.2781958,18.4935549 C15.2772773,18.4941258 15.2763543,18.494688 15.275427,18.4952416 C13.6153937,19.5303217 11.6543987,20.0539779 9.69979971,19.9955994 C7.94784989,19.9422212 6.21910328,19.4247787 4.73113585,18.5023489 L4.7134504,18.4935549 C3.41752585,17.6822315 2.31456468,16.5792704 1.50324135,15.2833458 C1.49451246,15.2693037 1.48781982,15.2542106 1.48307248,15.2384985 C1.04339241,14.527588 0.692404076,13.7613153 0.444135496,12.9568213 C-0.139140193,11.0732356 -0.147911256,9.02080683 0.417822307,7.13064275 C0.668521983,6.29287297 1.03011281,5.49589927 1.48657962,4.75848228 L1.50543412,4.71640767 C2.22110303,3.57327164 3.16369586,2.58028077 4.26548599,1.80516164 C4.27596496,1.79909497 4.28557651,1.79236278 4.29519978,1.78564852 C4.43254673,1.68843552 4.57292479,1.59554853 4.71564317,1.50619861 L4.53749832,1.62198717 C4.56039446,1.60702021 4.58335147,1.59215164 4.60636853,1.57738168 L4.71564317,1.50619861 C4.72373954,1.50119359 4.7318112,1.49678398 4.73984165,1.49294109 C6.19474714,0.592297567 7.88042992,0.0792632227 9.59454695,0.00853960976 Z M8.24094182,15.1972535 L8.13306858,15.3041771 L8.13306858,15.3041771 L7.92585222,15.5113934 C7.32064888,16.1165968 6.7176383,16.7196074 6.11243495,17.3248107 L6.11243495,17.3248107 L5.17877083,18.2587822 C5.30050026,18.3302335 5.42390278,18.3990186 5.54889415,18.4650489 C7.23074548,19.3509263 9.1625721,19.7083471 11.0505434,19.5044199 C12.3758656,19.3609803 13.664535,18.9304279 14.8138754,18.2606321 L13.6917298,17.1373292 L13.6917298,17.1373292 L12.7850211,16.2306206 L12.7850211,16.2306206 L11.7513512,15.1956563 C10.7421053,15.5375313 9.63178501,15.5735016 8.60122407,15.3052735 C8.47987698,15.273498 8.35970037,15.2374403 8.24094182,15.1972535 Z M15.019906,12.1980621 C14.9641377,12.3266242 14.9036628,12.4533236 14.8374499,12.5774729 C14.3265354,13.540097 13.5130193,14.3470348 12.5482024,14.8513709 C12.5386475,14.8563632 12.5290798,14.8613259 12.5194995,14.866259 C12.3554843,14.951796 12.1863468,15.0297341 12.0131676,15.0991535 L12.197,15.02 L15.198,18.021 L15.3307433,17.9369199 C15.3524864,17.9223147 15.3741694,17.9076196 15.3957915,17.892835 C15.8750474,17.5620964 16.3245637,17.18919 16.7371132,16.7791181 C16.7495122,16.7683815 16.7611337,16.7567275 16.7727239,16.7450452 L16.7371132,16.7791181 C16.8024428,16.7141809 16.8668453,16.6483117 16.9302972,16.5815342 L16.7727239,16.7450452 C16.8689906,16.6480138 16.9630998,16.5490322 17.0549973,16.4481844 L16.9302972,16.5815342 C17.0002218,16.5079447 17.068992,16.4332521 17.1365761,16.3574879 L17.0549973,16.4481844 C17.1384615,16.3565913 17.2201013,16.2634588 17.2998762,16.1688497 L17.1365761,16.3574879 C17.2172348,16.2670667 17.2962042,16.1751193 17.3734304,16.0816994 L17.2998762,16.1688497 C17.5603068,15.8599919 17.8008626,15.5353978 18.0201339,15.1972541 L17.939117,15.117792 L17.939117,15.117792 L17.7319006,14.9105756 C17.1266973,14.3053723 16.5236867,13.7023617 15.9184834,13.0971583 L15.9184834,13.0971583 Z M4.97553508,12.1986013 L4.79458274,12.380124 C4.18937939,12.9853273 3.58636881,13.5883379 2.98116546,14.1935412 L2.98116546,14.1935412 L1.97584281,15.1990899 C2.70780799,16.3223238 3.67221498,17.2887465 4.79638718,18.0220171 L7.79487337,15.0240502 C7.05001924,14.6965665 6.37819377,14.2033063 5.84711029,13.5861451 C5.48638075,13.1672681 5.19386486,12.6992138 4.97553508,12.1986013 Z M11.885547,5.32322801 C10.4901443,4.76781535 8.88189392,4.86268353 7.56666552,5.58059975 L7.51764687,5.60749603 C7.08412882,5.85423836 6.68899202,6.16461084 6.34616843,6.52468149 C6.16718746,6.7125442 6.00316292,6.91390053 5.85542506,7.12636528 C5.84838073,7.13533023 5.84198644,7.14456678 5.83562269,7.15382481 L5.85542506,7.12636528 C5.53856545,7.58204737 5.29662326,8.08882726 5.14542526,8.62830176 C4.87846736,9.57770842 4.89813483,10.5895847 5.19265467,11.5277003 C5.52157544,12.5569692 6.18282495,13.4468349 7.03888974,14.073034 C7.05766899,14.0866712 7.07638662,14.1000101 7.09519257,14.1132234 L7.03888974,14.073034 C7.08035809,14.1033675 7.12228356,14.1330823 7.1646506,14.1621643 L7.09519257,14.1132234 C7.80144502,14.6094474 8.63227585,14.928637 9.50451682,15.0171078 C10.2841882,15.0907439 11.0725617,14.985175 11.8006749,14.7086699 L12.0312536,14.6149903 C12.0420454,14.6102589 12.0528213,14.6054897 12.0635811,14.6006828 L12.0824011,14.5917471 C12.1365237,14.567322 12.1902454,14.541913 12.2435361,14.5155236 L12.0831951,14.5923132 C12.912771,14.2134742 13.6285068,13.6094329 14.1459875,12.8646044 C14.1541429,12.8539766 14.1618881,12.8427179 14.1695888,12.8314276 L14.1459875,12.8646044 C14.3849923,12.5205963 14.5817059,12.1465559 14.7278116,11.7508002 C14.7284792,11.749008 14.7291632,11.7472254 14.7298634,11.7454527 C14.7613268,11.6639672 14.7894422,11.5810225 14.8153772,11.4973695 C14.8355169,11.4291001 14.8553824,11.3600271 14.8739636,11.2906668 L14.8153772,11.4973695 C14.9727188,10.9898663 15.0498066,10.4562956 15.0423634,9.92488752 C15.0409327,9.80801771 15.0351272,9.69194381 15.0253861,9.57618915 C15.0126075,9.42657937 14.9931698,9.2778617 14.966823,9.13044511 C14.8921516,8.71120541 14.7658041,8.30599205 14.5921725,7.92298286 C14.5867838,7.90791472 14.5800329,7.89324413 14.5732116,7.87860962 L14.5921725,7.92298286 C14.5584794,7.84866016 14.5230058,7.77517356 14.4857838,7.70258282 L14.5732116,7.87860962 C14.5355986,7.79791321 14.4958493,7.71831376 14.4540423,7.63988987 L14.4857838,7.70258282 C14.4485365,7.6299427 14.4095384,7.55819965 14.3688216,7.48741356 L14.4540423,7.63988987 C14.4080124,7.5535442 14.3594881,7.46862358 14.3085744,7.38523293 L14.3688216,7.48741356 C14.3326776,7.4245772 14.2951794,7.36249493 14.2563493,7.30120861 L14.3085744,7.38523293 C13.8089747,6.56694717 13.0793024,5.89598018 12.2186926,5.47146711 L12.050893,5.3925385 C12.0268738,5.38195321 12.0027839,5.37156591 11.9786258,5.36137646 C11.9723346,5.35742158 11.965323,5.35444886 11.958305,5.35149193 Z M17.134372,6.30506645 L16.2276633,7.21177509 C15.8483149,7.59112356 15.4711592,7.96827927 15.0940034,8.34543498 L15.193,8.246 L15.2540753,8.43314561 C15.5596007,9.45826359 15.5537381,10.5681381 15.2449325,11.5904923 L15.19,11.755 L15.299027,11.8637276 L15.299027,11.8637276 L15.5062434,12.070944 C16.1114468,12.6761473 16.7144573,13.2791579 17.3196607,13.8843613 L18.2537256,14.818148 C18.7482913,13.9723954 19.1139471,13.0512976 19.3304269,12.0862933 C19.7448596,10.2399846 19.591366,8.2862303 18.9094158,6.52324664 C18.729116,6.05862769 18.5113133,5.60984034 18.259954,5.18105163 L17.134372,6.30506645 L17.134372,6.30506645 Z M2.85946697,13.6968798 L3.7661756,12.7901711 C4.14552408,12.4108227 4.52267978,12.033667 4.89983549,11.6565113 L4.80306095,11.7511339 C4.67336052,11.3657095 4.5856595,10.9649671 4.54241468,10.5557428 C4.46093461,9.77866444 4.553889,8.98497323 4.80341591,8.24468798 C4.69879682,8.14001078 4.59319618,8.03441013 4.48759553,7.92880949 C3.88239219,7.32360614 3.27938161,6.72059556 2.67417826,6.11539221 L2.67417826,6.11539221 L1.74105438,5.18151955 C1.13240739,6.22567877 0.722584499,7.38295915 0.540617188,8.58663921 C0.259943173,10.4461046 0.547195486,12.3954733 1.35632605,14.0948668 C1.47360887,14.3410446 1.60138413,14.5817648 1.73904632,14.8163913 L2.85946697,13.6968798 L2.85946697,13.6968798 Z M4.80001822,1.97857722 C4.29897909,2.30318562 3.82748183,2.67474241 3.39314953,3.08904591 C3.27506638,3.20052273 3.16080666,3.31543965 3.04949378,3.4331602 C3.01222084,3.47329192 2.97532906,3.51291155 2.93879868,3.55282858 L3.04949378,3.4331602 C2.96732368,3.52006039 2.88675938,3.60848835 2.8078526,3.69839238 L2.93879868,3.55282858 C2.8565844,3.64266478 2.77620065,3.73400737 2.69767655,3.82678938 L2.8078526,3.69839238 C2.73317947,3.78347272 2.65999076,3.86987498 2.58833028,3.95755536 L2.69767655,3.82678938 C2.61080177,3.92943836 2.52620322,4.03384921 2.44392033,4.13993127 L2.58833028,3.95755536 C2.52699196,4.03260603 2.46677332,4.10859312 2.40770183,4.18548916 L2.44392033,4.13993127 C2.27857354,4.35310231 2.12257756,4.57302182 1.97625247,4.79895418 L2.0569147,4.87976872 L2.0569147,4.87976872 L2.26413107,5.08698508 C2.86933441,5.69218842 3.47234499,6.295199 4.07754834,6.90040235 L4.97520204,7.79962903 C4.99480432,7.75474834 5.01500812,7.71013379 5.03580903,7.66580265 C5.48167162,6.70774074 6.21989978,5.88936947 7.11672166,5.33257484 C7.33511433,5.19745061 7.56337104,5.07819955 7.79896521,4.97549198 L7.61886502,4.79754 C7.01366167,4.19233665 6.41065109,3.58932607 5.80544775,2.98412273 L5.80544775,2.98412273 Z M15.197,1.977 L15.1170275,2.0576792 L15.1170275,2.0576792 L14.9098111,2.26489556 C14.3046078,2.87009891 13.7015972,3.47310949 13.0963939,4.07831283 C12.7170454,4.45766131 12.3398897,4.83481702 11.962734,5.21197273 L12.1952679,4.97844714 C12.2267035,4.99220364 12.2580137,5.00625356 12.2891945,5.02059516 C12.2999626,5.02633104 12.3053586,5.02884713 12.3107506,5.03137204 C12.717447,5.2198025 13.1013305,5.45836058 13.4538147,5.74262204 C14.1313698,6.28954313 14.670569,7.00249135 15.0208578,7.79904116 L15.1992562,7.61962952 C15.8044595,7.01442617 16.4074701,6.41141559 17.0126735,5.80621224 L17.0126735,5.80621224 L18.019,4.799 L17.8716061,4.57400069 C17.802383,4.47393166 17.7312974,4.37524407 17.6583907,4.27795862 C17.6377238,4.24941328 17.6163694,4.22126922 17.5948613,4.1932431 L17.6583907,4.27795862 C17.5597065,4.14627622 17.4576859,4.01716273 17.3524312,3.89066945 L17.5948613,4.1932431 C17.4724504,4.03373579 17.3450606,3.87804912 17.2129533,3.72645927 L17.3524312,3.89066945 C17.2713778,3.79326075 17.1884065,3.69740586 17.1035644,3.60312819 L17.2129533,3.72645927 C17.0517082,3.54143448 16.8834352,3.36251301 16.7086099,3.19019702 C16.5232553,3.00729648 16.3305272,2.83229295 16.1312518,2.66534287 C16.1039612,2.64230739 16.07648,2.61952756 16.0488726,2.59690007 L16.1312518,2.66534287 C16.0303796,2.58083351 15.9278297,2.49838772 15.8236284,2.41805796 L16.0488726,2.59690007 C15.9428969,2.51004083 15.8350596,2.42542658 15.7254434,2.34314455 L15.8236284,2.41805796 C15.7043527,2.32610718 15.5829132,2.23692896 15.4593492,2.15060195 L15.7254434,2.34314455 C15.6202969,2.26421773 15.5135136,2.18743682 15.4051663,2.1128788 L15.197,1.977 Z M13.8178138,1.22991013 C12.0921071,0.473405948 10.127389,0.251936608 8.27450198,0.594008064 C7.18276602,0.795277821 6.13717307,1.18654817 5.18566367,1.74139518 L6.30430195,2.86023146 L6.30430195,2.86023146 L7.21101059,3.7669401 C7.59035906,4.14628857 7.96751477,4.52344428 8.34467048,4.90059999 L8.24791368,4.80272495 C8.92407021,4.57582338 9.64455125,4.47942322 10.3554367,4.52782981 C10.742841,4.55405641 11.1240996,4.62099784 11.4934373,4.72620394 C11.5315155,4.7372084 11.5689107,4.74822566 11.6061685,4.75965001 C11.6537827,4.77428105 11.7013747,4.78964913 11.7487415,4.80565732 L14.8154771,1.73843238 C14.4934221,1.55014914 14.1604972,1.38027121 13.8178138,1.22991013 Z" id="Combined-Shape"></path>
                </g>
            </g>
        </g>
    </g>
</svg>