<svg id="Layer_1" data-name="Layer 1" xmlns="http://www.w3.org/2000/svg" xmlns:xlink="http://www.w3.org/1999/xlink" viewBox="0 0 1421.4 1179.88"><defs><style>.cls-1{mask:url(#mask);filter:url(#luminosity-noclip-3);}.cls-2,.cls-4{mix-blend-mode:multiply;}.cls-2{fill:url(#_ÂÁ_Ï_ÌÌ_È_ËÂÌÚ_57);}.cls-3{mask:url(#mask-2);filter:url(#luminosity-noclip-4);}.cls-4{fill:url(#_ÂÁ_Ï_ÌÌ_È_ËÂÌÚ_4);}.cls-5{mask:url(#mask-3);}.cls-36,.cls-6{fill:#226cc3;}.cls-6,.cls-7{opacity:0.6;}.cls-8{fill:#0071bc;}.cls-9{fill:#2a2d33;}.cls-10{fill:url(#linear-gradient);}.cls-11{fill:#616d7d;}.cls-12{fill:#8aa7b7;}.cls-13{opacity:0.51;fill:url(#New_Gradient_Swatch_copy_9);}.cls-14{fill:url(#linear-gradient-2);}.cls-15{fill:url(#linear-gradient-3);}.cls-16{fill:url(#linear-gradient-4);}.cls-17{fill:url(#linear-gradient-5);}.cls-18{fill:url(#linear-gradient-6);}.cls-19{fill:url(#linear-gradient-7);}.cls-20{fill:#2f3640;}.cls-21{fill:url(#_ÂÁ_Ï_ÌÌ_È_ËÂÌÚ_28);}.cls-22{fill:url(#_ÂÁ_Ï_ÌÌ_È_ËÂÌÚ_29);}.cls-23{fill:#3f38fc;}.cls-24{fill:url(#_ÂÁ_Ï_ÌÌ_È_ËÂÌÚ_28-2);}.cls-25{fill:url(#_ÂÁ_Ï_ÌÌ_È_ËÂÌÚ_29-2);}.cls-26{fill:url(#_ÂÁ_Ï_ÌÌ_È_ËÂÌÚ_28-3);}.cls-27{fill:url(#_ÂÁ_Ï_ÌÌ_È_ËÂÌÚ_29-3);}.cls-28{mask:url(#mask-4);}.cls-29{fill:url(#linear-gradient-8);}.cls-30{fill:url(#linear-gradient-9);}.cls-31{fill:url(#linear-gradient-10);}.cls-32{fill:url(#linear-gradient-11);}.cls-33{fill:url(#linear-gradient-12);}.cls-34{fill:url(#linear-gradient-13);}.cls-35{fill:url(#linear-gradient-14);}.cls-36{opacity:0.8;}.cls-37{fill:#258be8;}.cls-38{fill:url(#New_Gradient_Swatch_copy_9-2);}.cls-39{fill:url(#linear-gradient-15);}.cls-40{fill:#2c2ca0;}.cls-41{fill:#1e5fad;}.cls-42{fill:url(#New_Gradient_Swatch_copy_9-3);}.cls-43{fill:url(#linear-gradient-16);}.cls-44{fill:url(#New_Gradient_Swatch_copy_9-4);}.cls-45{fill:url(#linear-gradient-17);}.cls-46{filter:url(#luminosity-noclip-2);}.cls-47{filter:url(#luminosity-noclip);}</style><filter id="luminosity-noclip" x="564.87" y="-3274.32" width="357.8" height="32766" filterUnits="userSpaceOnUse" color-interpolation-filters="sRGB"><feFlood flood-color="#fff" result="bg"/><feBlend in="SourceGraphic" in2="bg"/></filter><mask id="mask" x="564.87" y="-3274.32" width="357.8" height="32766" maskUnits="userSpaceOnUse"><g class="cls-47"/></mask><linearGradient id="_ÂÁ_Ï_ÌÌ_È_ËÂÌÚ_57" x1="-7728.51" y1="-360.07" x2="-7728.51" y2="-697.35" gradientTransform="matrix(-0.87, -0.5, -1, 0.58, -6496.34, -3026.56)" gradientUnits="userSpaceOnUse"><stop offset="0"/><stop offset="0.06" stop-color="#2a2a2a"/><stop offset="0.15" stop-color="#626262"/><stop offset="0.23" stop-color="#929292"/><stop offset="0.31" stop-color="#b6b6b6"/><stop offset="0.39" stop-color="#d1d1d1"/><stop offset="0.45" stop-color="#e0e0e0"/><stop offset="0.51" stop-color="#e6e6e6"/><stop offset="0.55" stop-color="#dedede"/><stop offset="0.62" stop-color="#c9c9c9"/><stop offset="0.71" stop-color="#a7a7a7"/><stop offset="0.8" stop-color="#787878"/><stop offset="0.91" stop-color="#3b3b3b"/><stop offset="1"/></linearGradient><filter id="luminosity-noclip-2" x="470.14" y="-3274.32" width="172.55" height="32766" filterUnits="userSpaceOnUse" color-interpolation-filters="sRGB"><feFlood flood-color="#fff" result="bg"/><feBlend in="SourceGraphic" in2="bg"/></filter><mask id="mask-2" x="470.14" y="-3274.32" width="172.55" height="32766" maskUnits="userSpaceOnUse"><g class="cls-46"/></mask><linearGradient id="_ÂÁ_Ï_ÌÌ_È_ËÂÌÚ_4" x1="542.97" y1="242.41" x2="596.22" y2="164.69" gradientUnits="userSpaceOnUse"><stop offset="0"/><stop offset="0.05" stop-color="#2f2f2f"/><stop offset="0.1" stop-color="#5a5a5a"/><stop offset="0.15" stop-color="#828282"/><stop offset="0.22" stop-color="#a4a4a4"/><stop offset="0.28" stop-color="silver"/><stop offset="0.36" stop-color="#d7d7d7"/><stop offset="0.44" stop-color="#e9e9e9"/><stop offset="0.54" stop-color="#f6f6f6"/><stop offset="0.68" stop-color="#fdfdfd"/><stop offset="1" stop-color="#fff"/></linearGradient><filter id="luminosity-noclip-3" x="564.87" y="390.65" width="357.8" height="208.57" filterUnits="userSpaceOnUse" color-interpolation-filters="sRGB"><feFlood flood-color="#fff" result="bg"/><feBlend in="SourceGraphic" in2="bg"/></filter><mask id="mask-3" x="564.87" y="390.65" width="357.8" height="208.57" maskUnits="userSpaceOnUse"><g class="cls-1"><path class="cls-2" d="M910.11,395.68l3.57,2c13.24,7.55,11.66,20.87-3.54,29.75L628.91,591.79c-15.2,8.88-38.25,10-51.49,2.41l-3.57-2c-13.24-7.56-11.66-20.88,3.54-29.76L858.62,398.08C873.82,389.2,896.87,388.13,910.11,395.68Z"/></g></mask><linearGradient id="linear-gradient" x1="-1334.25" y1="174.39" x2="-1334.25" y2="811.64" gradientTransform="matrix(-1, 0, 0, 1, -785.64, 0)" gradientUnits="userSpaceOnUse"><stop offset="0" stop-color="#8aa7b7"/><stop offset="0.39" stop-color="#768a9a"/><stop offset="0.76" stop-color="#667585"/><stop offset="1" stop-color="#616d7d"/></linearGradient><linearGradient id="New_Gradient_Swatch_copy_9" x1="773.65" y1="203.5" x2="970.4" y2="544.28" gradientUnits="userSpaceOnUse"><stop offset="0" stop-color="#616d7d"/><stop offset="1" stop-color="#2f3640"/></linearGradient><linearGradient id="linear-gradient-2" x1="457.08" y1="141.75" x2="937.43" y2="141.75" gradientUnits="userSpaceOnUse"><stop offset="0" stop-color="#616d7d"/><stop offset="0.25" stop-color="#647282"/><stop offset="0.53" stop-color="#6e8090"/><stop offset="0.83" stop-color="#7e96a6"/><stop offset="1" stop-color="#8aa7b7"/></linearGradient><linearGradient id="linear-gradient-3" x1="-1690.25" y1="141.75" x2="-1295.71" y2="141.75" gradientTransform="matrix(-1, 0, 0, 1, -785.64, 0)" gradientUnits="userSpaceOnUse"><stop offset="0" stop-color="#616d7d"/><stop offset="0.27" stop-color="#647181"/><stop offset="0.53" stop-color="#6c7d8d"/><stop offset="0.78" stop-color="#7a90a0"/><stop offset="1" stop-color="#8aa7b7"/></linearGradient><linearGradient id="linear-gradient-4" x1="-1428.32" y1="212.21" x2="-1275.54" y2="212.21" gradientTransform="matrix(-1, 0, 0, 1, -785.64, 0)" gradientUnits="userSpaceOnUse"><stop offset="0" stop-color="#708292"/><stop offset="0.34" stop-color="#7e96a6"/><stop offset="0.68" stop-color="#87a3b3"/><stop offset="1" stop-color="#8aa7b7"/></linearGradient><linearGradient id="linear-gradient-5" x1="489.9" y1="131.44" x2="904.61" y2="131.44" gradientTransform="matrix(1, 0, 0, 1, 0, 0)" xlink:href="#linear-gradient-3"/><linearGradient id="linear-gradient-6" x1="-1458.72" y1="285.36" x2="-1446.23" y2="285.36" gradientTransform="matrix(-1, 0, 0, 1, -785.64, 0)" gradientUnits="userSpaceOnUse"><stop offset="0.12" stop-color="#708292"/><stop offset="0.55" stop-color="#718494"/><stop offset="0.74" stop-color="#778c9c"/><stop offset="0.89" stop-color="#8098a8"/><stop offset="1" stop-color="#8aa7b7"/></linearGradient><linearGradient id="linear-gradient-7" x1="-1460.24" y1="286.64" x2="-1449.91" y2="286.64" gradientTransform="matrix(-1, 0, 0, 1, -785.64, 0)" gradientUnits="userSpaceOnUse"><stop offset="0" stop-color="#616d7d"/><stop offset="1" stop-color="#8aa7b7"/></linearGradient><linearGradient id="_ÂÁ_Ï_ÌÌ_È_ËÂÌÚ_28" x1="-1714.22" y1="138.69" x2="-1701.73" y2="138.69" gradientTransform="matrix(-1, 0, 0, 1, -785.64, 0)" gradientUnits="userSpaceOnUse"><stop offset="0" stop-color="#c0d6ff"/><stop offset="0.3" stop-color="#c5dbff"/><stop offset="0.65" stop-color="#d3e9ff"/><stop offset="1" stop-color="#e9ffff"/></linearGradient><linearGradient id="_ÂÁ_Ï_ÌÌ_È_ËÂÌÚ_29" x1="-1715.74" y1="139.96" x2="-1705.41" y2="139.96" gradientTransform="matrix(-1, 0, 0, 1, -785.64, 0)" gradientUnits="userSpaceOnUse"><stop offset="0" stop-color="#5778ff"/><stop offset="0.18" stop-color="#5c7dff"/><stop offset="0.39" stop-color="#6a8aff"/><stop offset="0.61" stop-color="#82a0ff"/><stop offset="0.85" stop-color="#a3beff"/><stop offset="1" stop-color="#bcd5ff"/></linearGradient><linearGradient id="_ÂÁ_Ï_ÌÌ_È_ËÂÌÚ_28-2" x1="-1714.22" y1="635.43" x2="-1701.73" y2="635.43" xlink:href="#_ÂÁ_Ï_ÌÌ_È_ËÂÌÚ_28"/><linearGradient id="_ÂÁ_Ï_ÌÌ_È_ËÂÌÚ_29-2" x1="-1715.74" y1="636.87" x2="-1705.41" y2="636.87" xlink:href="#_ÂÁ_Ï_ÌÌ_È_ËÂÌÚ_29"/><linearGradient id="_ÂÁ_Ï_ÌÌ_È_ËÂÌÚ_28-3" x1="-1714.22" y1="636.49" x2="-1701.72" y2="636.49" xlink:href="#_ÂÁ_Ï_ÌÌ_È_ËÂÌÚ_28"/><linearGradient id="_ÂÁ_Ï_ÌÌ_È_ËÂÌÚ_29-3" x1="-1715.74" y1="636.49" x2="-1705.41" y2="636.49" xlink:href="#_ÂÁ_Ï_ÌÌ_È_ËÂÌÚ_29"/><filter id="luminosity-noclip-4" x="470.14" y="173.26" width="172.55" height="99.08" filterUnits="userSpaceOnUse" color-interpolation-filters="sRGB"><feFlood flood-color="#fff" result="bg"/><feBlend in="SourceGraphic" in2="bg"/></filter><mask id="mask-4" x="470.14" y="173.26" width="172.55" height="99.08" maskUnits="userSpaceOnUse"><g class="cls-3"><polygon class="cls-4" points="489.9 173.26 470.14 184.12 622.94 272.34 642.68 261.47 489.9 173.26"/></g></mask><linearGradient id="linear-gradient-8" x1="542.97" y1="242.41" x2="596.22" y2="164.69" gradientUnits="userSpaceOnUse"><stop offset="0" stop-color="#8aa7b7"/><stop offset="0.08" stop-color="#8098a8"/><stop offset="0.23" stop-color="#728595"/><stop offset="0.4" stop-color="#687787"/><stop offset="0.61" stop-color="#636f7f"/><stop offset="1" stop-color="#616d7d"/></linearGradient><linearGradient id="linear-gradient-9" x1="-1714.22" y1="138.69" x2="-1701.73" y2="138.69" xlink:href="#linear-gradient-6"/><linearGradient id="linear-gradient-10" x1="-1715.74" y1="139.96" x2="-1705.41" y2="139.96" xlink:href="#linear-gradient-7"/><linearGradient id="linear-gradient-11" x1="-1714.22" y1="635.43" x2="-1701.73" y2="635.43" xlink:href="#linear-gradient-6"/><linearGradient id="linear-gradient-12" x1="-1715.74" y1="636.71" x2="-1705.41" y2="636.71" xlink:href="#linear-gradient-7"/><linearGradient id="linear-gradient-13" x1="-1458.76" y1="781.91" x2="-1446.27" y2="781.91" xlink:href="#linear-gradient-6"/><linearGradient id="linear-gradient-14" x1="-1460.28" y1="783.19" x2="-1449.95" y2="783.19" xlink:href="#linear-gradient-7"/><linearGradient id="New_Gradient_Swatch_copy_9-2" x1="336.66" y1="959.61" x2="106.82" y2="1143.92" xlink:href="#New_Gradient_Swatch_copy_9"/><linearGradient id="linear-gradient-15" x1="6112.26" y1="618.56" x2="5903.33" y2="786.1" gradientTransform="matrix(0.87, 0.5, -1, 0.58, -4294.57, -2397.45)" xlink:href="#linear-gradient-3"/><linearGradient id="New_Gradient_Swatch_copy_9-3" x1="320.44" y1="328.43" x2="90.6" y2="512.73" xlink:href="#New_Gradient_Swatch_copy_9"/><linearGradient id="linear-gradient-16" x1="5471.74" y1="80.08" x2="5262.81" y2="247.62" gradientTransform="matrix(0.87, 0.5, -1, 0.58, -4294.57, -2397.45)" xlink:href="#linear-gradient-3"/><linearGradient id="New_Gradient_Swatch_copy_9-4" x1="1317.81" y1="272.01" x2="1087.97" y2="456.32" xlink:href="#New_Gradient_Swatch_copy_9"/><linearGradient id="linear-gradient-17" x1="5991.19" y1="-467.45" x2="5782.26" y2="-299.91" gradientTransform="matrix(0.87, 0.5, -1, 0.58, -4294.57, -2397.45)" xlink:href="#linear-gradient-3"/></defs><title>satellite_api_2</title><g class="cls-5"><path class="cls-6" d="M910.11,395.68l3.57,2c13.24,7.55,11.66,20.87-3.54,29.75L628.91,591.79c-15.2,8.88-38.25,10-51.49,2.41l-3.57-2c-13.24-7.56-11.66-20.88,3.54-29.76L858.62,398.08C873.82,389.2,896.87,388.13,910.11,395.68Z"/></g><g class="cls-7"><polygon class="cls-6" points="340.05 522.34 261.51 567.98 319.55 601.49 398.57 555.57 420.06 567.98 262.03 659.82 320.07 693.33 399.08 647.41 500.11 705.73 421.1 751.65 659.7 889.41 638.34 901.83 378.24 751.66 457.26 705.74 399.23 672.23 320.2 718.15 219.17 659.82 298.2 613.9 240.16 580.39 103.47 659.82 436.81 852.27 415.45 864.68 60.63 659.82 319.3 509.5 340.05 522.34"/><polygon class="cls-6" points="477.21 442.63 535.24 476.14 456.23 522.06 477.72 534.47 578.09 476.14 498.56 430.22 556.22 396.71 635.75 442.63 736.13 384.3 714.64 371.89 635.62 417.81 577.58 384.3 714.26 304.87 931.37 430.22 873.7 463.73 794.17 417.81 614.78 522.06 715.8 580.39 794.82 534.47 852.86 567.98 773.84 613.9 877.78 673.9 899.13 661.49 816.7 613.9 974.74 522.06 953.24 509.64 874.22 555.56 794.69 509.65 715.66 555.57 657.63 522.06 794.31 442.63 873.84 488.55 952.86 442.63 1031.5 488.03 1052.86 475.62 714.12 280.05 409.67 455 435.48 467.36 477.21 442.63"/><polygon class="cls-6" points="1111.79 509.65 1371.89 659.82 718.4 1039.59 473.49 898.19 494.85 885.78 718.25 1014.76 775.91 981.25 696.38 935.34 717.74 922.92 797.27 968.84 854.93 935.33 775.4 889.41 854.42 843.49 796.38 809.98 717.36 855.9 695.87 843.49 796.24 785.17 897.26 843.49 818.25 889.41 876.29 922.92 1012.97 843.49 933.43 797.58 1012.45 751.66 954.41 718.15 875.39 764.07 716.33 672.23 658.67 705.74 738.2 751.66 637.83 809.99 536.79 751.65 558.15 739.24 637.69 785.17 695.35 751.66 615.81 705.73 694.83 659.82 636.79 626.31 557.77 672.23 456.75 613.9 557.12 555.57 578.61 567.98 499.59 613.9 557.63 647.41 636.65 601.49 875.25 739.25 954.06 693.45 1055.3 751.66 976.28 797.58 1034.32 831.08 1329.04 659.81 1271 626.3 1112.96 718.15 1091.46 705.74 1170.48 659.81 1112.45 626.3 1033.43 672.22 1011.94 659.81 1112.31 601.49 1191.84 647.4 1249.5 613.89 1111.93 534.47 953.89 626.31 932.4 613.9 1111.79 509.65"/></g><path class="cls-8" d="M311,982.22l-1.54-2.57L485.12,873.89a18.66,18.66,0,0,1,19.6,0c9.77,5.63,127.33,70.21,128.52,70.86l.11.07c.25.15,6.46,4,18.12-2,11.82-6.12,54.32-32.6,59.46-35.8.24-1.34.35-5.52-6.27-9.26-9.08-5.13-195.29-112.11-197.17-113.19l-.28-.22c-.32-.3-7.73-7.45-7.88-14.84a10,10,0,0,1,2.95-7.4c7.83-8.08,23.31-17.55,24-17.94l1.56,2.56c-.16.09-15.81,9.66-23.37,17.47a7,7,0,0,0-2.11,5.25c.11,5.7,5.91,11.7,6.82,12.61,6.53,3.75,188,108,197,113.09,10.17,5.75,7.61,13,7.49,13.35l-.17.47-.44.28c-1.93,1.2-47.54,29.69-60.17,36.23-12.84,6.65-20.27,2.44-21.1,1.91-2.85-1.56-118.81-65.26-128.53-70.86a15.69,15.69,0,0,0-16.43-.07Z"/><path class="cls-8" d="M879.71,720.94a24.57,24.57,0,0,1-8.36-1.4l-.18-.09-40.54-22.83L832.1,694l40.43,22.77c.93.33,9.26,3.09,17.13-1.4,8.49-4.84,52.85-31.17,58-34.22.43-1.51,1.33-6.49-4-10.5-7-5.33-32.36-18.13-32.61-18.25l1.35-2.68c1.05.53,25.82,13,33.08,18.54,6.44,4.87,6,11.59,4.79,14.46l-.19.46-.44.26c-.49.3-49.53,29.41-58.51,34.53A22.87,22.87,0,0,1,879.71,720.94Z"/><path class="cls-8" d="M925.69,602.62l-1.51-2.6,245.55-142.4s11.19-7.53,10.86-20.86c-.35-14.24,0-33.86,0-34.06l3,.06c0,.19-.36,19.75,0,33.92.37,15-11.77,23.16-12.28,23.5Z"/><rect class="cls-8" x="451.76" y="350.03" width="3.05" height="365.19" transform="translate(-234.62 658.87) rotate(-60)"/><path class="cls-9" d="M643.73,250.36H611.84c4.73-10.73,7.66-17.35,7.66-17.35L937.43,109l0,531a1.08,1.08,0,0,1,0,.18v.49h0a3.52,3.52,0,0,1-1.93,2.55L645.56,810.51a7.67,7.67,0,0,1-1.83.72Z"/><path class="cls-10" d="M457.08,174.39,640,278.77V598.35l.11-.07V811.64H640a13,13,0,0,1-5.88-1.6L459.88,709.43c-1.79-1-2.71-2.35-2.77-3.61h0Z"/><path class="cls-11" d="M653.15,119V806.13l-7.59,4.38a10.44,10.44,0,0,1-5.42,1.14c-2.1-.07-2.21-1.26-3.94-2.26l-1.56-.65,1.69-81.52V599.49L632.51,119Z"/><path class="cls-12" d="M632.51,728.35V274.49l7.52,4.28V598.35l.11-.07V811.64H640c-.43,0-.87-.06-1.3-.12a1.9,1.9,0,0,1-.25,0,13,13,0,0,1-2.8-.74l-.19-.06a11.08,11.08,0,0,1-1.34-.65l-1.63-.94Z"/><polygon class="cls-9" points="923.1 138.14 667.6 285.65 667.6 782.54 923.1 635.03 923.1 138.14"/><polygon class="cls-13" points="937.43 563.32 653.15 373.02 653.15 274.89 937.43 108.95 937.43 563.32"/><path class="cls-14" d="M645.56,279.28,935.45,111.91c2.93-1.69,2.56-4.65-.82-6.6L760.37,4.7c-3.38-1.95-8.5-2.16-11.43-.47L459.06,171.59c-2.93,1.7-2.56,4.65.82,6.6L634.14,278.8C637.52,280.75,642.64,281,645.56,279.28Z"/><polygon class="cls-15" points="751.82 22.04 891.11 102.45 904.61 99.94 904.61 110.25 642.68 261.47 510.06 171.31 751.82 22.04"/><polygon class="cls-16" points="489.9 162.95 489.9 173.26 642.68 261.47 642.68 251.16 489.9 162.95"/><polygon class="cls-17" points="642.68 251.16 904.61 99.94 751.82 11.72 489.9 162.95 642.68 251.16"/><path class="cls-18" d="M660.59,287.46a11.44,11.44,0,0,1,5.16-8.95,3.64,3.64,0,0,1,3.67-.35h0l3.66,2.14-2.26.08a6.48,6.48,0,0,1,.1,1.12,11.42,11.42,0,0,1-5.17,8.95,5.48,5.48,0,0,1-1.1.49l1.05,2-3.58-2.09h0A3.62,3.62,0,0,1,660.59,287.46Z"/><path class="cls-19" d="M664.27,289.62c0,3.29,2.31,4.63,5.17,3a11.42,11.42,0,0,0,5.16-9c0-3.29-2.31-4.63-5.16-3A11.4,11.4,0,0,0,664.27,289.62Z"/><path class="cls-20" d="M666.46,288.35c0,1.9,1.33,2.66,3,1.72a6.59,6.59,0,0,0,3-5.15c0-1.9-1.33-2.66-3-1.72A6.57,6.57,0,0,0,666.46,288.35Z"/><path class="cls-21" d="M916.09,140.79a11.42,11.42,0,0,1,5.16-8.95,3.62,3.62,0,0,1,3.67-.35h0l3.66,2.14-2.26.07a6.57,6.57,0,0,1,.1,1.12,11.4,11.4,0,0,1-5.17,9,6.19,6.19,0,0,1-1.1.5l1.05,2-3.58-2.1h0A3.59,3.59,0,0,1,916.09,140.79Z"/><path class="cls-22" d="M919.77,142.94c0,3.3,2.31,4.63,5.17,3A11.4,11.4,0,0,0,930.1,137c0-3.3-2.31-4.63-5.16-3A11.42,11.42,0,0,0,919.77,142.94Z"/><path class="cls-23" d="M922,141.67c0,1.9,1.33,2.67,3,1.72a6.57,6.57,0,0,0,3-5.15c0-1.89-1.33-2.66-3-1.71A6.54,6.54,0,0,0,922,141.67Z"/><path class="cls-24" d="M921.25,628.59a3.62,3.62,0,0,1,3.67-.36h0l3.66,2.14h0a3.64,3.64,0,0,0-3.64.37,11.4,11.4,0,0,0-5.17,9,3.67,3.67,0,0,0,1.41,3.26l0,0-3.58-2.09h0a3.62,3.62,0,0,1-1.53-3.36A11.4,11.4,0,0,1,921.25,628.59Z"/><path class="cls-25" d="M921.25,640.52a9,9,0,0,0,1-.73c.5.82,1.48,1,2.64.35a6.59,6.59,0,0,0,3-5.15c0-1.32-.66-2.08-1.61-2.1a7.53,7.53,0,0,0,.12-1.32,6.48,6.48,0,0,0-.1-1.12l2.26-.08a3.63,3.63,0,0,1,1.52,3.35,11.42,11.42,0,0,1-5.16,8.95,3.54,3.54,0,0,1-3.76.28l-1-1.94A5.48,5.48,0,0,0,921.25,640.52Z"/><path class="cls-26" d="M919.77,639.69a11.4,11.4,0,0,1,5.17-9,3.64,3.64,0,0,1,3.64-.37l-2.26.08a6.48,6.48,0,0,1,.1,1.12,7.53,7.53,0,0,1-.12,1.32,2.61,2.61,0,0,0-1.36.38,6.57,6.57,0,0,0-3,5.15,2.62,2.62,0,0,0,.34,1.37,9,9,0,0,1-1,.73,5.48,5.48,0,0,1-1.1.49l1,1.94A3.67,3.67,0,0,1,919.77,639.69Z"/><path class="cls-27" d="M919.77,639.69a11.4,11.4,0,0,1,5.17-9,3.64,3.64,0,0,1,3.64-.37l-2.26.08a6.48,6.48,0,0,1,.1,1.12,7.53,7.53,0,0,1-.12,1.32,2.61,2.61,0,0,0-1.36.38,6.57,6.57,0,0,0-3,5.15,2.62,2.62,0,0,0,.34,1.37,9,9,0,0,1-1,.73,5.48,5.48,0,0,1-1.1.49l1,1.94A3.67,3.67,0,0,1,919.77,639.69Z"/><path class="cls-23" d="M927.91,635a6.59,6.59,0,0,1-3,5.15c-1.16.66-2.14.47-2.64-.35a11.94,11.94,0,0,0,4-6.9C927.25,632.91,927.91,633.67,927.91,635Z"/><path class="cls-23" d="M922.3,639.79a2.62,2.62,0,0,1-.34-1.37,6.57,6.57,0,0,1,3-5.15,2.61,2.61,0,0,1,1.36-.38A11.94,11.94,0,0,1,922.3,639.79Z"/><g class="cls-28"><polygon class="cls-29" points="489.9 173.26 470.14 184.12 622.94 272.34 642.68 261.47 489.9 173.26"/></g><path class="cls-30" d="M916.09,140.79a11.42,11.42,0,0,1,5.16-8.95,3.62,3.62,0,0,1,3.67-.35h0l3.66,2.14-2.26.07a6.57,6.57,0,0,1,.1,1.12,11.4,11.4,0,0,1-5.17,9,6.19,6.19,0,0,1-1.1.5l1.05,2-3.58-2.1h0A3.59,3.59,0,0,1,916.09,140.79Z"/><path class="cls-31" d="M919.77,142.94c0,3.3,2.31,4.63,5.17,3A11.4,11.4,0,0,0,930.1,137c0-3.3-2.31-4.63-5.16-3A11.42,11.42,0,0,0,919.77,142.94Z"/><path class="cls-20" d="M922,141.67c0,1.9,1.33,2.67,3,1.72a6.57,6.57,0,0,0,3-5.15c0-1.89-1.33-2.66-3-1.71A6.54,6.54,0,0,0,922,141.67Z"/><path class="cls-32" d="M916.09,637.53a11.4,11.4,0,0,1,5.16-8.94,3.62,3.62,0,0,1,3.67-.36h0l3.66,2.14-2.26.08a6.48,6.48,0,0,1,.1,1.12,11.42,11.42,0,0,1-5.17,8.95,5.48,5.48,0,0,1-1.1.49l1.05,2-3.58-2.09h0A3.62,3.62,0,0,1,916.09,637.53Z"/><path class="cls-33" d="M919.77,639.69c0,3.29,2.31,4.63,5.17,3a11.42,11.42,0,0,0,5.16-8.95c0-3.29-2.31-4.63-5.16-3A11.4,11.4,0,0,0,919.77,639.69Z"/><path class="cls-20" d="M922,638.42c0,1.9,1.33,2.67,3,1.72a6.59,6.59,0,0,0,3-5.15c0-1.9-1.33-2.66-3-1.72A6.57,6.57,0,0,0,922,638.42Z"/><path class="cls-34" d="M660.63,784a11.4,11.4,0,0,1,5.16-8.94,3.62,3.62,0,0,1,3.67-.36h0l3.66,2.14-2.26.08a6.48,6.48,0,0,1,.1,1.12,11.42,11.42,0,0,1-5.17,9,5.48,5.48,0,0,1-1.1.49l1,2-3.58-2.09h0A3.62,3.62,0,0,1,660.63,784Z"/><path class="cls-35" d="M664.31,786.17c0,3.29,2.31,4.63,5.16,3a11.4,11.4,0,0,0,5.17-8.95c0-3.29-2.31-4.63-5.17-3A11.42,11.42,0,0,0,664.31,786.17Z"/><path class="cls-20" d="M666.5,784.9c0,1.9,1.33,2.67,3,1.72a6.57,6.57,0,0,0,3-5.15c0-1.9-1.33-2.66-3-1.72A6.59,6.59,0,0,0,666.5,784.9Z"/><polygon class="cls-36" points="877.24 200.72 908.97 182.4 908.97 175.43 877.24 193.75 877.24 200.72"/><polygon class="cls-36" points="860.97 210.11 872.39 203.51 872.39 196.55 860.97 203.14 860.97 210.11"/><polygon class="cls-36" points="848.36 217.39 856.12 212.91 856.12 205.94 848.36 210.42 848.36 217.39"/><polygon class="cls-36" points="891.68 208.3 908.97 198.31 908.97 191.35 891.68 201.33 891.68 208.3"/><polygon class="cls-36" points="865.65 223.33 886.83 211.09 886.83 204.13 865.65 216.36 865.65 223.33"/><polygon class="cls-36" points="853.04 230.61 860.8 226.13 860.8 219.16 853.04 223.64 853.04 230.61"/><polygon class="cls-36" points="841.04 237.53 848.8 233.05 848.8 226.09 841.04 230.57 841.04 237.53"/><polygon class="cls-37" points="896.46 221.45 908.97 214.23 908.97 207.26 896.46 214.49 896.46 221.45"/><polygon class="cls-37" points="887.34 226.72 891.61 224.25 891.61 217.28 887.34 219.75 887.34 226.72"/><polygon class="cls-36" points="874.73 234 882.49 229.52 882.49 222.55 874.73 227.03 874.73 234"/><polygon class="cls-36" points="862.8 256.8 908.97 230.15 908.97 223.18 862.8 249.84 862.8 256.8"/><polygon class="cls-36" points="846.53 266.2 857.95 259.6 857.95 252.63 846.53 259.23 846.53 266.2"/><polygon class="cls-36" points="896.46 253.29 908.97 246.06 908.97 239.1 896.46 246.32 896.46 253.29"/><polygon class="cls-36" points="867.1 270.24 891.61 256.08 891.61 249.12 867.1 263.27 867.1 270.24"/><polygon class="cls-36" points="854.49 277.51 862.26 273.03 862.26 266.07 854.49 270.55 854.49 277.51"/><polygon class="cls-36" points="883.38 276.76 908.97 261.98 908.97 255.01 883.38 269.79 883.38 276.76"/><polygon class="cls-37" points="860.02 290.24 878.53 279.56 878.53 272.59 860.02 283.27 860.02 290.24"/><polygon class="cls-36" points="842.66 300.26 855.17 293.04 855.17 286.07 842.66 293.29 842.66 300.26"/><polygon class="cls-36" points="900.32 282.89 908.97 277.9 908.97 270.93 900.32 275.92 900.32 282.89"/><polygon class="cls-36" points="884.05 292.28 895.48 285.69 895.48 278.72 884.05 285.31 884.05 292.28"/><polygon class="cls-36" points="860.8 305.71 879.21 295.08 879.21 288.11 860.8 298.74 860.8 305.71"/><polygon class="cls-36" points="882.49 309.1 908.97 293.81 908.97 286.85 882.49 302.13 882.49 309.1"/><polygon class="cls-36" points="852.83 326.23 877.64 311.9 877.64 304.93 852.83 319.26 852.83 326.23"/><polygon class="cls-37" points="840.22 333.5 847.99 329.02 847.99 322.06 840.22 326.54 840.22 333.5"/><polygon class="cls-36" points="828.12 340.49 835.88 336.01 835.88 329.04 828.12 333.52 828.12 340.49"/><polygon class="cls-36" points="893.1 318.89 908.97 309.73 908.97 302.76 893.1 311.92 893.1 318.89"/><polygon class="cls-37" points="826.76 229.86 804.76 242.56 804.76 235.6 826.76 222.9 826.76 229.86"/><polygon class="cls-36" points="822.04 248.5 804.76 258.48 804.76 251.51 822.04 241.53 822.04 248.5"/><polygon class="cls-36" points="817.27 267.18 804.76 274.4 804.76 267.43 817.27 260.21 817.27 267.18"/><polygon class="cls-36" points="822.95 279.81 804.76 290.31 804.76 283.35 822.95 272.84 822.95 279.81"/><polygon class="cls-36" points="817.27 299.01 804.76 306.23 804.76 299.26 817.27 292.04 817.27 299.01"/><polygon class="cls-36" points="820.62 312.99 804.76 322.15 804.76 315.18 820.62 306.02 820.62 312.99"/><polygon class="cls-36" points="813.4 333.07 804.76 338.06 804.76 331.1 813.4 326.11 813.4 333.07"/><polygon class="cls-36" points="821.51 344.31 804.76 353.98 804.76 347.01 821.51 337.34 821.51 344.31"/><polygon class="cls-36" points="820.62 360.74 804.76 369.9 804.76 362.93 820.62 353.77 820.62 360.74"/><polygon class="cls-36" points="881.51 325.58 888.26 321.69 888.26 314.72 881.51 318.62 881.51 325.58"/><polygon class="cls-36" points="861.48 337.15 876.66 328.38 876.66 321.42 861.48 330.18 861.48 337.15"/><polygon class="cls-36" points="754.2 271.48 785.93 253.16 785.93 246.19 754.2 264.51 754.2 271.48"/><polygon class="cls-36" points="737.93 280.87 749.36 274.28 749.36 267.31 737.93 273.9 737.93 280.87"/><polygon class="cls-37" points="725.32 288.15 733.09 283.67 733.09 276.7 725.32 281.18 725.32 288.15"/><polygon class="cls-36" points="768.64 279.06 785.93 269.08 785.93 262.11 768.64 272.09 768.64 279.06"/><polygon class="cls-36" points="742.61 294.09 763.8 281.86 763.8 274.89 742.61 287.12 742.61 294.09"/><polygon class="cls-37" points="730 301.37 737.76 296.89 737.76 289.92 730 294.4 730 301.37"/><polygon class="cls-36" points="718 308.3 725.76 303.81 725.76 296.85 718 301.33 718 308.3"/><polygon class="cls-36" points="773.42 292.21 785.93 284.99 785.93 278.03 773.42 285.25 773.42 292.21"/><polygon class="cls-36" points="764.3 297.48 768.58 295.01 768.58 288.05 764.3 290.51 764.3 297.48"/><polygon class="cls-36" points="751.69 304.76 759.45 300.28 759.45 293.31 751.69 297.79 751.69 304.76"/><polygon class="cls-36" points="739.76 327.57 785.93 300.91 785.93 293.94 739.76 320.6 739.76 327.57"/><polygon class="cls-36" points="723.49 336.96 734.92 330.36 734.92 323.4 723.49 329.99 723.49 336.96"/><polygon class="cls-36" points="773.42 324.05 785.93 316.83 785.93 309.86 773.42 317.08 773.42 324.05"/><polygon class="cls-36" points="744.07 341 768.58 326.85 768.58 319.88 744.07 334.03 744.07 341"/><polygon class="cls-36" points="731.46 348.28 739.22 343.8 739.22 336.83 731.46 341.31 731.46 348.28"/><polygon class="cls-37" points="760.34 347.52 785.93 332.74 785.93 325.78 760.34 340.55 760.34 347.52"/><polygon class="cls-36" points="736.98 361 755.49 350.32 755.49 343.35 736.98 354.04 736.98 361"/><polygon class="cls-36" points="719.63 371.02 732.14 363.8 732.14 356.83 719.63 364.06 719.63 371.02"/><polygon class="cls-36" points="777.29 353.65 785.93 348.66 785.93 341.69 777.29 346.68 777.29 353.65"/><polygon class="cls-36" points="761.02 363.05 772.44 356.45 772.44 349.48 761.02 356.08 761.02 363.05"/><polygon class="cls-37" points="737.76 376.47 756.17 365.84 756.17 358.88 737.76 369.5 737.76 376.47"/><polygon class="cls-36" points="759.45 379.86 785.93 364.58 785.93 357.61 759.45 372.9 759.45 379.86"/><polygon class="cls-36" points="729.8 396.99 754.61 382.66 754.61 375.69 729.8 390.02 729.8 396.99"/><polygon class="cls-36" points="717.19 404.27 724.95 399.79 724.95 392.82 717.19 397.3 717.19 404.27"/><polygon class="cls-36" points="705.09 411.25 712.85 406.77 712.85 399.8 705.09 404.29 705.09 411.25"/><polygon class="cls-36" points="770.07 389.65 785.93 380.49 785.93 373.53 770.07 382.69 770.07 389.65"/><polygon class="cls-37" points="703.72 300.62 681.72 313.33 681.72 306.36 703.72 293.66 703.72 300.62"/><polygon class="cls-36" points="699.01 319.26 681.72 329.24 681.72 322.27 699.01 312.29 699.01 319.26"/><polygon class="cls-36" points="694.23 337.94 681.72 345.16 681.72 338.19 694.23 330.97 694.23 337.94"/><polygon class="cls-36" points="699.92 350.57 681.72 361.08 681.72 354.11 699.92 343.6 699.92 350.57"/><polygon class="cls-36" points="694.23 369.77 681.72 376.99 681.72 370.02 694.23 362.8 694.23 369.77"/><polygon class="cls-36" points="697.59 383.75 681.72 392.91 681.72 385.94 697.59 376.78 697.59 383.75"/><polygon class="cls-36" points="690.37 403.84 681.72 408.83 681.72 401.86 690.37 396.87 690.37 403.84"/><polygon class="cls-36" points="698.47 415.07 681.72 424.74 681.72 417.77 698.47 408.11 698.47 415.07"/><polygon class="cls-36" points="697.59 431.5 681.72 440.66 681.72 433.69 697.59 424.53 697.59 431.5"/><polygon class="cls-37" points="758.48 396.35 765.22 392.45 765.22 385.48 758.48 389.38 758.48 396.35"/><polygon class="cls-36" points="738.44 407.91 753.63 399.14 753.63 392.18 738.44 400.94 738.44 407.91"/><polygon class="cls-36" points="877.24 344.06 908.97 325.74 908.97 318.77 877.24 337.09 877.24 344.06"/><polygon class="cls-36" points="860.97 353.45 872.39 346.86 872.39 339.89 860.97 346.49 860.97 353.45"/><polygon class="cls-36" points="848.36 360.73 856.12 356.25 856.12 349.28 848.36 353.77 848.36 360.73"/><polygon class="cls-36" points="891.68 351.64 908.97 341.66 908.97 334.69 891.68 344.67 891.68 351.64"/><polygon class="cls-36" points="865.65 366.67 886.83 354.44 886.83 347.47 865.65 359.7 865.65 366.67"/><polygon class="cls-36" points="853.04 373.95 860.8 369.47 860.8 362.5 853.04 366.98 853.04 373.95"/><polygon class="cls-36" points="841.04 380.88 848.8 376.4 848.8 369.43 841.04 373.91 841.04 380.88"/><polygon class="cls-36" points="896.46 364.8 908.97 357.57 908.97 350.61 896.46 357.83 896.46 364.8"/><polygon class="cls-36" points="887.34 370.06 891.61 367.6 891.61 360.63 887.34 363.1 887.34 370.06"/><polygon class="cls-36" points="874.73 377.34 882.49 372.86 882.49 365.89 874.73 370.38 874.73 377.34"/><polygon class="cls-36" points="862.8 400.15 908.97 373.49 908.97 366.52 862.8 393.18 862.8 400.15"/><polygon class="cls-36" points="846.53 409.54 857.95 402.95 857.95 395.98 846.53 402.57 846.53 409.54"/><polygon class="cls-36" points="896.46 396.63 908.97 389.41 908.97 382.44 896.46 389.66 896.46 396.63"/><polygon class="cls-36" points="867.1 413.58 891.61 399.43 891.61 392.46 867.1 406.61 867.1 413.58"/><polygon class="cls-36" points="854.49 420.86 862.26 416.38 862.26 409.41 854.49 413.89 854.49 420.86"/><polygon class="cls-36" points="883.38 420.1 908.97 405.32 908.97 398.36 883.38 413.13 883.38 420.1"/><polygon class="cls-36" points="860.02 433.58 878.53 422.9 878.53 415.93 860.02 426.62 860.02 433.58"/><polygon class="cls-36" points="842.66 443.61 855.17 436.38 855.17 429.42 842.66 436.64 842.66 443.61"/><polygon class="cls-36" points="900.32 426.23 908.97 421.24 908.97 414.27 900.32 419.26 900.32 426.23"/><polygon class="cls-36" points="884.05 435.63 895.48 429.03 895.48 422.06 884.05 428.66 884.05 435.63"/><polygon class="cls-36" points="860.8 449.05 879.21 438.43 879.21 431.46 860.8 442.08 860.8 449.05"/><polygon class="cls-36" points="882.49 452.45 908.97 437.16 908.97 430.19 882.49 445.48 882.49 452.45"/><polygon class="cls-36" points="852.83 469.57 877.64 455.25 877.64 448.28 852.83 462.6 852.83 469.57"/><polygon class="cls-36" points="840.22 476.85 847.99 472.37 847.99 465.4 840.22 469.88 840.22 476.85"/><polygon class="cls-36" points="828.12 483.83 835.88 479.35 835.88 472.39 828.12 476.87 828.12 483.83"/><polygon class="cls-36" points="893.1 462.24 908.97 453.08 908.97 446.11 893.1 455.27 893.1 462.24"/><polygon class="cls-36" points="826.76 373.21 804.76 385.91 804.76 378.94 826.76 366.24 826.76 373.21"/><polygon class="cls-36" points="822.04 391.84 804.76 401.82 804.76 394.86 822.04 384.88 822.04 391.84"/><polygon class="cls-36" points="817.27 410.52 804.76 417.74 804.76 410.77 817.27 403.55 817.27 410.52"/><polygon class="cls-36" points="822.95 423.15 804.76 433.66 804.76 426.69 822.95 416.19 822.95 423.15"/><polygon class="cls-36" points="817.27 442.35 804.76 449.57 804.76 442.61 817.27 435.38 817.27 442.35"/><polygon class="cls-36" points="820.62 456.33 804.76 465.49 804.76 458.52 820.62 449.37 820.62 456.33"/><polygon class="cls-36" points="813.4 476.42 804.76 481.41 804.76 474.44 813.4 469.45 813.4 476.42"/><polygon class="cls-36" points="821.51 487.65 804.76 497.32 804.76 490.36 821.51 480.69 821.51 487.65"/><polygon class="cls-36" points="820.62 504.08 804.76 513.24 804.76 506.27 820.62 497.12 820.62 504.08"/><polygon class="cls-36" points="881.51 468.93 888.26 465.03 888.26 458.07 881.51 461.96 881.51 468.93"/><polygon class="cls-36" points="861.48 480.49 876.66 471.73 876.66 464.76 861.48 473.53 861.48 480.49"/><polygon class="cls-36" points="848.91 534.03 874.54 519.24 874.54 512.27 848.91 527.07 848.91 534.03"/><polygon class="cls-36" points="831.36 544.17 841.46 538.34 841.46 531.37 831.36 537.2 831.36 544.17"/><polygon class="cls-36" points="754.2 414.82 785.93 396.5 785.93 389.54 754.2 407.85 754.2 414.82"/><polygon class="cls-36" points="737.93 424.21 749.36 417.62 749.36 410.65 737.93 417.25 737.93 424.21"/><polygon class="cls-36" points="725.32 431.5 733.09 427.01 733.09 420.05 725.32 424.53 725.32 431.5"/><polygon class="cls-36" points="768.64 422.4 785.93 412.42 785.93 405.45 768.64 415.43 768.64 422.4"/><polygon class="cls-36" points="742.61 437.43 763.8 425.2 763.8 418.23 742.61 430.46 742.61 437.43"/><polygon class="cls-36" points="730 444.71 737.76 440.23 737.76 433.26 730 437.74 730 444.71"/><polygon class="cls-36" points="718 451.64 725.76 447.16 725.76 440.19 718 444.67 718 451.64"/><polygon class="cls-36" points="773.42 435.56 785.93 428.34 785.93 421.37 773.42 428.59 773.42 435.56"/><polygon class="cls-36" points="764.3 440.82 768.58 438.36 768.58 431.39 764.3 433.86 764.3 440.82"/><polygon class="cls-36" points="751.69 448.11 759.45 443.62 759.45 436.66 751.69 441.14 751.69 448.11"/><polygon class="cls-36" points="739.76 470.91 785.93 444.25 785.93 437.29 739.76 463.94 739.76 470.91"/><polygon class="cls-36" points="723.49 480.3 734.92 473.71 734.92 466.74 723.49 473.33 723.49 480.3"/><polygon class="cls-36" points="773.42 467.39 785.93 460.17 785.93 453.2 773.42 460.42 773.42 467.39"/><polygon class="cls-36" points="744.07 484.34 768.58 470.19 768.58 463.22 744.07 477.37 744.07 484.34"/><polygon class="cls-36" points="731.46 491.62 739.22 487.14 739.22 480.17 731.46 484.65 731.46 491.62"/><polygon class="cls-36" points="760.34 490.86 785.93 476.09 785.93 469.12 760.34 483.89 760.34 490.86"/><polygon class="cls-36" points="736.98 504.35 755.49 493.66 755.49 486.69 736.98 497.38 736.98 504.35"/><polygon class="cls-36" points="719.63 514.37 732.14 507.15 732.14 500.18 719.63 507.4 719.63 514.37"/><polygon class="cls-36" points="777.29 496.99 785.93 492 785.93 485.04 777.29 490.03 777.29 496.99"/><polygon class="cls-36" points="761.02 506.39 772.44 499.79 772.44 492.82 761.02 499.42 761.02 506.39"/><polygon class="cls-36" points="737.76 519.81 756.17 509.19 756.17 502.22 737.76 512.85 737.76 519.81"/><polygon class="cls-36" points="759.45 523.21 785.93 507.92 785.93 500.95 759.45 516.24 759.45 523.21"/><polygon class="cls-36" points="729.8 540.33 754.61 526.01 754.61 519.04 729.8 533.36 729.8 540.33"/><polygon class="cls-36" points="717.19 547.61 724.95 543.13 724.95 536.16 717.19 540.64 717.19 547.61"/><polygon class="cls-36" points="705.09 554.6 712.85 550.12 712.85 543.15 705.09 547.63 705.09 554.6"/><polygon class="cls-36" points="770.07 533 785.93 523.84 785.93 516.87 770.07 526.03 770.07 533"/><polygon class="cls-36" points="703.72 443.97 681.72 456.67 681.72 449.7 703.72 437 703.72 443.97"/><polygon class="cls-36" points="699.01 462.61 681.72 472.59 681.72 465.62 699.01 455.64 699.01 462.61"/><polygon class="cls-36" points="694.23 481.28 681.72 488.5 681.72 481.54 694.23 474.31 694.23 481.28"/><polygon class="cls-36" points="699.92 493.92 681.72 504.42 681.72 497.45 699.92 486.95 699.92 493.92"/><polygon class="cls-36" points="694.23 513.12 681.72 520.34 681.72 513.37 694.23 506.15 694.23 513.12"/><polygon class="cls-36" points="697.59 527.09 681.72 536.25 681.72 529.28 697.59 520.13 697.59 527.09"/><polygon class="cls-36" points="690.37 547.18 681.72 552.17 681.72 545.2 690.37 540.21 690.37 547.18"/><polygon class="cls-36" points="698.47 558.42 681.72 568.09 681.72 561.12 698.47 551.45 698.47 558.42"/><polygon class="cls-36" points="697.59 574.84 681.72 584 681.72 577.04 697.59 567.88 697.59 574.84"/><polygon class="cls-36" points="758.48 539.69 765.22 535.79 765.22 528.83 758.48 532.72 758.48 539.69"/><polygon class="cls-36" points="738.44 551.26 753.63 542.49 753.63 535.52 738.44 544.29 738.44 551.26"/><polygon class="cls-36" points="725.88 604.8 751.5 590 751.5 583.03 725.88 597.83 725.88 604.8"/><polygon class="cls-36" points="708.33 614.93 718.42 609.1 718.42 602.13 708.33 607.96 708.33 614.93"/><path class="cls-38" d="M399.67,1040.29V1013l-44.46,0-98.63-56.95c-2.42-1.39-6.64-1.22-9.44.39L149,1013.17l-44.23,0v27.36h0a2.82,2.82,0,0,0,1.6,2.27l141.48,81.68c2.42,1.4,6.64,1.22,9.44-.39l140.11-80.9A4,4,0,0,0,399.67,1040.29Z"/><path class="cls-39" d="M247.83,1097.21l-141.48-81.68c-2.42-1.4-2.11-3.84.68-5.45l140.11-80.9c2.8-1.61,7-1.79,9.44-.39l141.48,81.68c2.42,1.4,2.11,3.84-.68,5.45l-140.11,80.89C254.47,1098.43,250.25,1098.6,247.83,1097.21Z"/><path class="cls-9" d="M248.32,1087.64l-125.4-72.4c-2.14-1.24-1.87-3.4.6-4.83l124.2-71.71c2.48-1.43,6.22-1.58,8.37-.34l125.4,72.4c2.14,1.23,1.87,3.4-.6,4.83l-124.2,71.7C254.21,1088.72,250.47,1088.88,248.32,1087.64Z"/><path class="cls-20" d="M248.64,1081.57l-115.21-66.51c-2-1.14-1.73-3.13.55-4.44l114.1-65.88c2.28-1.31,5.72-1.46,7.69-.32L371,1010.94c2,1.14,1.73,3.12-.55,4.44l-114.1,65.88C254.05,1082.57,250.61,1082.71,248.64,1081.57Z"/><polygon class="cls-40" points="291.32 1032.65 291.32 1047.11 279.67 1040.71 279.67 1026.26 291.32 1032.65"/><path class="cls-40" d="M266.56,1018.3l7.9-9.21a8.86,8.86,0,0,0,2.37-5.28h0V989S244,971.14,237.45,971.2s-44.69,22.56-44.69,22.56v13.91h0c.08,3.28,2.35,6.54,6.81,9.07l0,0,12.18,6.86,11.83-6.33s-10.41-13.75-7.6-15.39l16.27-9.48a11.18,11.18,0,0,1,5.45-1.33,11.56,11.56,0,0,1,5.54,1.22l14.77,8c2.33,1.26-8.32,5.87-8.32,5.87v11.91c-.69,3.43,1.44,6.95,6.05,9.48l10.43,5.73,11.68-6.41S265.72,1019.26,266.56,1018.3Z"/><path class="cls-37" d="M278,1012.54l-11.82,6.34-10.43-5.73c-6.33-3.48-8-8.8-4.1-13.24l7.89-9.2c1.42-1.62.81-3.56-1.52-4.83l-14.77-8a11.68,11.68,0,0,0-5.54-1.21,11.29,11.29,0,0,0-5.45,1.32l-20.91,12.19c-2.81,1.64-2.78,4.2.06,5.82l12.18,6.86-11.83,6.34-12.18-6.87h0c-9-5.12-9.1-13.18-.22-18.36l20.9-12.19c4.51-2.63,10.61-4.11,17.19-4.18s12.77,1.3,17.44,3.84l14.78,8c7.33,4,9.26,10.1,4.79,15.21l-7.9,9.2c-.84,1-.48,2.13.9,2.89Z"/><polygon class="cls-37" points="303.14 1026.32 291.32 1032.65 279.67 1026.26 291.32 1019.86 303.14 1026.32"/><polygon class="cls-41" points="223.62 1017.28 211.79 1023.62 211.79 1009.17 223.62 1002.83 223.62 1017.28"/><polygon class="cls-41" points="278.04 1027 266.21 1033.33 266.21 1018.88 278.04 1012.54 278.04 1027"/><polygon class="cls-41" points="303.14 1040.77 291.32 1047.11 291.32 1032.65 303.14 1026.32 303.14 1040.77"/><path class="cls-42" d="M383.45,409.11V381.82l-44.45,0-98.63-57c-2.42-1.39-6.65-1.22-9.44.39L132.74,382,88.5,382v27.36h0a2.8,2.8,0,0,0,1.6,2.27l141.47,81.68c2.42,1.39,6.65,1.22,9.44-.39L381.16,412A4,4,0,0,0,383.45,409.11Z"/><path class="cls-43" d="M231.61,466,90.14,384.35c-2.42-1.4-2.12-3.84.67-5.46L230.93,298c2.79-1.61,7-1.79,9.44-.39l141.47,81.68c2.42,1.4,2.12,3.84-.68,5.45L241.05,465.63C238.26,467.25,234,467.42,231.61,466Z"/><path class="cls-9" d="M232.11,456.46,106.7,384.06c-2.14-1.24-1.87-3.4.6-4.83l124.2-71.71c2.48-1.43,6.22-1.58,8.37-.34l125.4,72.4c2.15,1.23,1.88,3.4-.6,4.83l-124.2,71.7C238,457.54,234.25,457.7,232.11,456.46Z"/><path class="cls-20" d="M232.42,450.39,117.21,383.88c-2-1.14-1.72-3.13.55-4.44l114.11-65.88c2.27-1.31,5.71-1.46,7.68-.32l115.22,66.52c2,1.14,1.72,3.12-.56,4.44l-114.1,65.87C237.83,451.39,234.39,451.53,232.42,450.39Z"/><polygon class="cls-40" points="275.1 400.74 275.1 415.93 263.45 409.21 263.45 394.02 275.1 400.74"/><path class="cls-40" d="M250.35,385.65l7.89-9.67a9.51,9.51,0,0,0,2.37-5.55h0V354.92s-32.83-18.82-39.4-18.75-44.68,23.7-44.68,23.7v14.62h0c.08,3.44,2.35,6.87,6.82,9.53h0l12.19,7.22,11.82-6.66s-10.41-14.44-7.59-16.16l16.26-10a10.76,10.76,0,0,1,5.45-1.39,11.1,11.1,0,0,1,5.54,1.28l14.77,8.43c2.33,1.33-8.32,6.18-8.32,6.18v12.51c-.69,3.61,1.44,7.3,6.05,10l10.43,6,11.68-6.74S249.5,386.67,250.35,385.65Z"/><path class="cls-37" d="M261.82,379.61,250,386.26l-10.43-6c-6.33-3.65-8-9.24-4.1-13.9l7.9-9.67c1.41-1.71.8-3.75-1.53-5.08l-14.77-8.43a11.1,11.1,0,0,0-5.54-1.28,10.76,10.76,0,0,0-5.45,1.39l-20.91,12.81c-2.81,1.72-2.78,4.41.07,6.11l12.17,7.21-11.82,6.66-12.19-7.22h0c-9-5.37-9.11-13.84-.23-19.29l20.91-12.8c4.5-2.77,10.61-4.33,17.18-4.4s12.77,1.37,17.44,4l14.78,8.43c7.33,4.19,9.26,10.61,4.79,16l-7.89,9.67c-.85,1-.49,2.24.89,3Z"/><polygon class="cls-37" points="286.92 394.08 275.1 400.74 263.45 394.02 275.1 387.29 286.92 394.08"/><polygon class="cls-41" points="207.4 384.59 195.58 391.25 195.58 376.06 207.4 369.4 207.4 384.59"/><polygon class="cls-41" points="261.82 394.8 249.99 401.45 249.99 386.26 261.82 379.61 261.82 394.8"/><polygon class="cls-41" points="286.92 409.27 275.1 415.93 275.1 400.74 286.92 394.08 286.92 409.27"/><path class="cls-44" d="M1380.82,352.69V325.4l-44.45,0-98.63-56.95c-2.42-1.39-6.65-1.22-9.44.4l-98.19,56.69-44.24,0V353h0a2.8,2.8,0,0,0,1.6,2.27L1229,436.9c2.42,1.4,6.65,1.22,9.44-.39l140.11-80.9A4,4,0,0,0,1380.82,352.69Z"/><path class="cls-45" d="M1229,409.61l-141.47-81.68c-2.42-1.4-2.12-3.84.67-5.45l140.12-80.9c2.79-1.61,7-1.79,9.44-.39l141.47,81.68c2.42,1.4,2.12,3.84-.68,5.45l-140.11,80.9C1235.62,410.83,1231.4,411,1229,409.61Z"/><path class="cls-9" d="M1229.48,400l-125.41-72.4c-2.14-1.24-1.87-3.4.6-4.83l124.2-71.71c2.48-1.43,6.22-1.58,8.37-.34l125.4,72.4c2.15,1.24,1.88,3.4-.6,4.83l-124.2,71.7C1235.37,401.12,1231.62,401.28,1229.48,400Z"/><path class="cls-20" d="M1229.79,394l-115.21-66.52c-2-1.14-1.72-3.13.55-4.44l114.11-65.88c2.27-1.31,5.71-1.46,7.68-.32l115.22,66.52c2,1.14,1.72,3.13-.56,4.44l-114.1,65.88C1235.2,395,1231.76,395.11,1229.79,394Z"/><polygon class="cls-40" points="1272.47 344.32 1272.47 359.51 1260.82 352.79 1260.82 337.6 1272.47 344.32"/><path class="cls-40" d="M1247.72,329.24l7.89-9.67A9.56,9.56,0,0,0,1258,314h0V298.5s-32.83-18.82-39.4-18.75-44.68,23.7-44.68,23.7v14.62h0c.08,3.44,2.35,6.87,6.82,9.53l0,0,12.19,7.21,11.82-6.66s-10.41-14.44-7.59-16.16l16.26-10a10.87,10.87,0,0,1,5.45-1.39,11.1,11.1,0,0,1,5.54,1.28l14.77,8.44c2.33,1.33-8.32,6.17-8.32,6.17v12.51c-.69,3.61,1.44,7.3,6,10l10.43,6,11.68-6.75S1246.87,330.25,1247.72,329.24Z"/><path class="cls-37" d="M1259.19,323.19l-11.83,6.66-10.43-6c-6.33-3.65-8-9.24-4.1-13.9l7.9-9.67c1.41-1.71.8-3.74-1.53-5.07l-14.77-8.44a11.1,11.1,0,0,0-5.54-1.28,10.87,10.87,0,0,0-5.45,1.39l-20.91,12.81c-2.81,1.73-2.78,4.41.07,6.12l12.17,7.2L1193,319.64l-12.19-7.21,0,0c-9-5.37-9.11-13.84-.23-19.29l20.91-12.8c4.5-2.76,10.61-4.33,17.18-4.39a35,35,0,0,1,17.44,4l14.78,8.44c7.33,4.18,9.26,10.61,4.79,16l-7.89,9.67c-.85,1-.49,2.23.89,3Z"/><polygon class="cls-37" points="1284.29 337.67 1272.47 344.32 1260.82 337.6 1272.47 330.87 1284.29 337.67"/><polygon class="cls-41" points="1204.77 328.17 1192.95 334.83 1192.95 319.64 1204.77 312.98 1204.77 328.17"/><polygon class="cls-41" points="1259.19 338.38 1247.36 345.04 1247.36 329.85 1259.19 323.19 1259.19 338.38"/><polygon class="cls-41" points="1284.29 352.85 1272.47 359.51 1272.47 344.32 1284.29 337.67 1284.29 352.85"/></svg>