<svg id="Layer_1" data-name="Layer 1" xmlns="http://www.w3.org/2000/svg" xmlns:xlink="http://www.w3.org/1999/xlink" viewBox="0 0 226.3 499.55"><defs><style>.cls-1{fill:#1e348e;}.cls-2{fill:#d6b39a;}.cls-3{fill:#54140d;}.cls-4{fill:#801e14;}.cls-5{fill:#e9cab1;}.cls-6{fill:#172026;}.cls-7{fill:#2f3d40;}.cls-8{fill:url(#linear-gradient);}.cls-9{fill:#fff;}.cls-10{fill:#226cc3;}.cls-11{fill:#e3fbff;}.cls-12{fill:#e9d6c6;}.cls-13{fill:#2985c1;}.cls-14{fill:#2a2d33;}.cls-15{fill:#d0dfe3;}.cls-16{fill:#2f3640;}.cls-17{fill:#616d7d;}.cls-18{fill:url(#New_Gradient_Swatch_copy_10);}.cls-19{fill:#258be8;}.cls-20{fill:#fcfcfc;}.cls-21{fill:#d4cee0;}.cls-22{fill:#e0e0e0;}.cls-23{fill:#d8d8d8;}.cls-24{fill:#d6d6d6;}</style><linearGradient id="linear-gradient" x1="60.95" y1="249.68" x2="94.47" y2="249.68" gradientUnits="userSpaceOnUse"><stop offset="0" stop-color="#ffb9a2"/><stop offset="0.22" stop-color="#ffc3b1"/><stop offset="0.57" stop-color="#ffd0c3"/><stop offset="0.82" stop-color="#ffd5ca"/></linearGradient><linearGradient id="New_Gradient_Swatch_copy_10" x1="50.42" y1="324.15" x2="182.42" y2="324.15" gradientUnits="userSpaceOnUse"><stop offset="0" stop-color="#8aa7b7"/><stop offset="1" stop-color="#616d7d"/></linearGradient></defs><title>satellite_api_b_1</title><path class="cls-1" d="M95.12,256.78s8.84,2.91,5.92,14.34-10.23,24-8.51,26c1.32,1.55,19.8,16.13,29.66,22.76a12.35,12.35,0,0,0-6.27,5.61c-11.15-6.36-31.41-17.93-32.54-20.65C82,301.45,88.26,261.07,95.12,256.78Z"/><path class="cls-2" d="M122.19,319.92c2.87,1.93,5,3.19,5.78,3.25,3.43.29,8.25,13.87,6.67,13.87s-6.67-4.43-12.38-7.86c-1.18-.71-3.46-2-6.34-3.65A12.35,12.35,0,0,1,122.19,319.92Z"/><path class="cls-3" d="M82.88,419.7l8.45,2.59s4.83,9.37,6.89,12.64,5.5,9.74,4.31,11-11.74.52-13.92-2.07-2.83-10-4.94-10.57-3.45,7.12-3.91,8.13-2.5-.09-2.5-.09l2.37-9.13a57.76,57.76,0,0,1,.84-7.59A41,41,0,0,1,82.88,419.7Z"/><path class="cls-4" d="M68.79,429H80.31s4.56,7.79,7.46,10.36,8,7.83,7.2,9.39-11.13,3.77-14,1.89-5.49-8.78-7.68-8.78-1.48,6.8-1.63,7.9-2.43.6-2.43.6l-.13-8.42a57.92,57.92,0,0,1-1.3-7.53A41.12,41.12,0,0,1,68.79,429Z"/><path class="cls-5" d="M83,365.43S81.25,394.16,80.39,400s-.21,27.06-.21,30.28,8.79,11,8.79,11-7.51,2-10.08-.54-9.22-8.36-9.86-11.79-1.17-14.31-3.37-26.22c-2-10.87.58-1.06.79-6.85.33-8.79-3-24.65-2.78-30.44Z"/><path class="cls-2" d="M83.61,359.85s12,19.08,11.15,23.16-6,7.29-8.15,14.36-3,20.21-3,20.21l-1.08,4.07s9.65,26.16,13.73,13.72l-4.93-13.08c3.43-11.36,19.08-32.42,20.79-36.07s-4.71-27.65-8.14-31.51Z"/><path class="cls-6" d="M81.59,245.5c4.43,4.11,8.93,8.15,13.56,12a1.86,1.86,0,0,0,.75-.45c6.19-7.66-.27-39.17-.27-39.17s-9.79-4.07-14.57-2.68,1.29,26.45,1.29,26.45Z"/><path class="cls-7" d="M64.09,325.65h36.16c6.2,23.1,15.41,56.19,16.63,59.61,1.87,5.24-34.74,8.76-38,7-2.59-1.42-24.37-3.62-26.95-5.05a1.57,1.57,0,0,1-.89-1.65C51.81,380.83,61.62,336.45,64.09,325.65Z"/><path class="cls-8" d="M65.74,259.35l2.2-1.2,5.37-1.33V242.5s-21.72-19.73-7.57-25.44,26.06-6.29,27.4,0S95,242,91.81,244.53s-5.92,4.54-5.92,4.54l-1.14,6L89,256.82l5.5,20.56-4.29,9.43s-12.59-1.43-13.87-2.29-6.39-16.58-6.39-16.58Z"/><path class="cls-9" d="M87.39,255.87s.9,11.74-2.63,13c-1.88.66-6.54-6.49-10.68-9.28-11.92-8,13.35,22.27,13.35,22.27l5.19-6.46Z"/><path class="cls-10" d="M58.84,261.89l9.1-4.12a2.49,2.49,0,0,1,3,.72c3.26,4.84,17.79,16.32,17.79,16.32s0-18.37-1.83-18.84,9,.91,9,.91,7.43,15.24,6.57,19.76-4.9,28.64-5,31,12.29,48.47,14.3,54.11S103.26,374,83.35,374.05c-9.07,0-30.34-5.61-29.34-8.62,2.2-6.66,5.29-39.95,5.8-41.64.57-1.9,8-13.2,8-16.13,0-2.56-8.26-37.38-10.13-43.67A1.79,1.79,0,0,1,58.84,261.89Z"/><path class="cls-11" d="M88.77,274.81s-3.82-2.65-6.36-3.05c-1.4-.22-2,1.32-2.36,1.82L67.49,258.35l2.66-.56Z"/><path class="cls-11" d="M87.39,255.87l4.34.49s.89,14.8,1.24,14.94c.11,0-2.19-.87-3.3-.28-.88.47-.56,2.23-.9,3.79C87.57,280.31,87.39,255.87,87.39,255.87Z"/><path class="cls-12" d="M76.89,342.9s7.82,11.38,4.51,16.71-11.28-13-12.1-16c-.29-1.06-2.08-5.15-4.44-10.38a64.6,64.6,0,0,1,8.65-.49Z"/><path class="cls-13" d="M54.39,266.46a4.22,4.22,0,0,1,1.66-2.78c2.27-1.71,7.3-4.67,9.48.46l2,48.46a4.46,4.46,0,0,0,.22,1.19l7.94,23.91a4.31,4.31,0,0,1-3.81,5.65h-.08a4.26,4.26,0,0,1-4.21-2.5c-4.29-9.48-9.79-21.42-12-26.89C54.44,311.35,53.07,275.4,54.39,266.46Z"/><path class="cls-14" d="M90.25,207.78c-7.7-5.56-31.51-5.28-31.3,14.12.09,8.36-.58,14.46-.92,19.35a71.17,71.17,0,0,0,4,6.23,87,87,0,0,0,9.43,9.67c1.37.86,2.78,1.67,4.21,2.41-.17-7-.41-13.88-.61-19.31,2.84-6.63,5.81-13.09,5.81-13.1h0s-1.83,8.2-.82,5.17,7-10.23,7-10.23h-.1c2.92-2.36,5.2-4.06,5.8-4.11,2.27-.21,1,14.74,1.47,14.24C96.45,229.82,98,213.34,90.25,207.78Z"/><polygon class="cls-15" points="91.89 276.61 103.05 271.03 103.05 274.63 91.89 280.2 91.89 276.61"/><path class="cls-16" d="M104.5,323l-2.41,1.2H50.42V447.36c0,2.16,1.64,4.32,4.91,6L104.5,477.9a27.48,27.48,0,0,0,11.92,2.46V320.49A27.48,27.48,0,0,0,104.5,323Z"/><path class="cls-17" d="M130.75,324.15l-2.41-1.2a27.48,27.48,0,0,0-11.92-2.46V480.36a27.48,27.48,0,0,0,11.92-2.46l49.16-24.58c3.28-1.64,4.92-3.8,4.92-6V324.15Z"/><path class="cls-18" d="M177.5,330.11l-49.16,24.58c-6.56,3.28-17.29,3.28-23.84,0L55.33,330.11c-6.55-3.28-6.55-8.64,0-11.92l49.17-24.58c6.55-3.28,17.28-3.28,23.84,0l49.16,24.58C184.06,321.47,184.06,326.83,177.5,330.11Z"/><path class="cls-1" d="M140.71,76.69,137,116.47a21,21,0,0,0,.73,6.74,4.58,4.58,0,0,0,3,2.67,5.42,5.42,0,0,1,2.43,1.43,4,4,0,0,1,.62,2.47q0,9.09-19.18,18.68c-6.89,3.44-9.81,8.15-13.84,8.85-1.37.22-5-2.69-5.84-3.45a4.27,4.27,0,0,1-1.27-3.38,7.68,7.68,0,0,1,.65-3.28,40.36,40.36,0,0,1,3.28-5,16.3,16.3,0,0,0,2.59-6.57,65.38,65.38,0,0,0,.76-11.3q0-2.32-.27-8.56t-.38-7.24c-.23-1.81,2,.06,0,0-2.42-.05-6.92-4.12-6.92-6.61q0-4.43,4.75-9a180.88,180.88,0,0,1,14.08-12.18,78.57,78.57,0,0,1,11.61-7.92C135.89,71.73,140.71,73.78,140.71,76.69ZM125.36,50.53q5.1-2.55,8.09-1.76c2,.53,6.6,2.69,6.6,5.27,0,3.61-5.11,6.62-8.12,10.24a53.4,53.4,0,0,1-17.31,13.66c-2.85,1.42-1.27,4.47-3,4-2.27-.56-7.25-4.91-7.25-7.91q0-6.06,7.21-13.12A56.36,56.36,0,0,1,125.36,50.53Z"/><path class="cls-1" d="M123.51,25.74c-42.55,21.28-77,73-77,115.57s34.49,59.79,77,38.51,77-73,77-115.57S166.06,4.46,123.51,25.74Zm0,147.17c-38.73,19.37-70.13,3.68-70.13-35.06S84.78,52,123.51,32.64,193.64,29,193.64,67.7,162.24,153.54,123.51,172.91Z"/><path class="cls-19" d="M140.82,78.13V119a20.92,20.92,0,0,0,.74,6.74,4.58,4.58,0,0,0,3,2.68,5.33,5.33,0,0,1,2.43,1.42,4,4,0,0,1,.62,2.47q0,9.09-19.18,18.68-10.33,5.16-16.37,6.21a3.78,3.78,0,0,1-3.31-.81,4.3,4.3,0,0,1-1.26-3.38,7.68,7.68,0,0,1,.64-3.28,39.63,39.63,0,0,1,3.29-5,16.44,16.44,0,0,0,2.58-6.57,65.38,65.38,0,0,0,.76-11.3q0-2.32-.26-8.56t-.39-7.24c-.23-1.8-1.33-2.74-3.28-2.79q-3.65-.09-3.64-3.81,0-4.44,4.75-9A182.75,182.75,0,0,1,126,83.3a78,78,0,0,1,11.62-7.92Q140.82,73.76,140.82,78.13Zm-11.61-25q5.1-2.55,8.09-1.76c2,.53,3,2.08,3,4.67q0,5.41-4.51,10.84a53.4,53.4,0,0,1-17.31,13.66q-4.27,2.13-6.8,1.43-3.4-.84-3.4-5.34,0-6.06,7.21-13.11A56.36,56.36,0,0,1,129.21,53.1Z"/><path class="cls-19" d="M127.36,28.31c-42.55,21.28-77,73-77,115.57s34.49,59.79,77,38.51,77-73,77-115.57S169.91,7,127.36,28.31Zm0,147.17c-38.73,19.37-70.13,3.68-70.13-35.06s31.4-85.83,70.13-105.2,70.13-3.68,70.13,35.06S166.09,156.11,127.36,175.48Z"/><polygon class="cls-20" points="160.34 314.6 135.51 327.02 100.2 309.37 125.04 296.95 160.34 314.6"/><polygon class="cls-21" points="129.03 299.68 105.67 311.36 102.13 309.59 125.49 297.91 129.03 299.68"/><polygon class="cls-22" points="129.51 303.67 113.64 311.6 112.44 311 128.31 303.06 129.51 303.67"/><polygon class="cls-22" points="135.06 303.98 113.65 314.68 112.45 314.08 133.85 303.38 135.06 303.98"/><polygon class="cls-22" points="137.41 305.16 116.01 315.86 114.81 315.26 136.21 304.56 137.41 305.16"/><polygon class="cls-22" points="139.75 306.33 118.34 317.03 117.14 316.43 138.54 305.73 139.75 306.33"/><polygon class="cls-22" points="142.1 307.51 120.7 318.21 119.5 317.61 140.9 306.9 142.1 307.51"/><polygon class="cls-22" points="144.44 308.67 123.04 319.38 121.83 318.77 143.24 308.07 144.44 308.67"/><polygon class="cls-22" points="146.8 309.85 125.39 320.55 124.19 319.95 145.59 309.25 146.8 309.85"/><polygon class="cls-22" points="155.83 314.06 147.71 318.12 146.5 317.52 154.62 313.46 155.83 314.06"/><polygon class="cls-23" points="135.5 330.91 135.5 327.02 160.34 314.6 160.34 318.49 135.5 330.91"/><polygon class="cls-24" points="135.5 330.91 100.2 313.47 100.2 309.35 135.5 327.01 135.5 330.91"/><polygon class="cls-20" points="160.34 309.7 135.51 322.12 100.2 304.47 125.04 292.05 160.34 309.7"/><polygon class="cls-21" points="129.03 294.78 105.67 306.46 102.13 304.69 125.49 293.01 129.03 294.78"/><polygon class="cls-22" points="129.51 298.77 113.64 306.7 112.44 306.1 128.31 298.17 129.51 298.77"/><polygon class="cls-22" points="135.06 299.08 113.65 309.78 112.45 309.18 133.85 298.48 135.06 299.08"/><polygon class="cls-22" points="137.41 300.26 116.01 310.96 114.81 310.36 136.21 299.66 137.41 300.26"/><polygon class="cls-22" points="139.75 301.43 118.34 312.13 117.14 311.53 138.54 300.83 139.75 301.43"/><polygon class="cls-22" points="142.1 302.61 120.7 313.31 119.5 312.71 140.9 302 142.1 302.61"/><polygon class="cls-22" points="144.44 303.77 123.04 314.48 121.83 313.87 143.24 303.17 144.44 303.77"/><polygon class="cls-22" points="146.8 304.95 125.39 315.65 124.19 315.05 145.59 304.35 146.8 304.95"/><polygon class="cls-22" points="155.83 309.16 147.71 313.22 146.5 312.62 154.62 308.56 155.83 309.16"/><polygon class="cls-23" points="135.5 326.01 135.5 322.12 160.34 309.69 160.34 313.59 135.5 326.01"/><polygon class="cls-24" points="135.5 326.01 100.2 308.57 100.2 304.45 135.5 322.11 135.5 326.01"/><polygon class="cls-20" points="160.34 304.8 135.51 317.22 100.2 299.57 125.04 287.15 160.34 304.8"/><polygon class="cls-21" points="129.03 289.88 105.67 301.56 102.13 299.79 125.49 288.11 129.03 289.88"/><polygon class="cls-22" points="129.51 293.87 113.64 301.8 112.44 301.2 128.31 293.26 129.51 293.87"/><polygon class="cls-22" points="135.06 294.18 113.65 304.88 112.45 304.28 133.85 293.58 135.06 294.18"/><polygon class="cls-22" points="137.41 295.36 116.01 306.06 114.81 305.46 136.21 294.76 137.41 295.36"/><polygon class="cls-22" points="139.75 296.53 118.34 307.23 117.14 306.63 138.54 295.93 139.75 296.53"/><polygon class="cls-22" points="142.1 297.7 120.7 308.41 119.5 307.81 140.9 297.1 142.1 297.7"/><polygon class="cls-22" points="144.44 298.87 123.04 309.57 121.83 308.97 143.24 298.27 144.44 298.87"/><polygon class="cls-22" points="146.8 300.05 125.39 310.75 124.19 310.15 145.59 299.45 146.8 300.05"/><polygon class="cls-22" points="155.83 304.26 147.71 308.32 146.5 307.72 154.62 303.66 155.83 304.26"/><polygon class="cls-23" points="135.5 321.11 135.5 317.22 160.34 304.79 160.34 308.69 135.5 321.11"/><polygon class="cls-24" points="135.5 321.11 100.2 303.67 100.2 299.55 135.5 317.21 135.5 321.11"/><polygon class="cls-20" points="160.1 295.35 137.42 311.38 99.86 299.26 122.54 283.23 160.1 295.35"/><polygon class="cls-21" points="126.89 285.33 105.56 300.41 101.79 299.19 123.12 284.12 126.89 285.33"/><polygon class="cls-22" points="127.97 289.2 113.48 299.44 112.2 299.03 126.69 288.79 127.97 289.2"/><polygon class="cls-22" points="133.5 288.67 113.96 302.48 112.68 302.07 132.22 288.26 133.5 288.67"/><polygon class="cls-22" points="136 289.48 116.46 303.29 115.18 302.88 134.73 289.07 136 289.48"/><polygon class="cls-22" points="138.49 290.28 118.95 304.09 117.67 303.68 137.21 289.87 138.49 290.28"/><polygon class="cls-22" points="141 291.09 121.46 304.9 120.18 304.49 139.72 290.68 141 291.09"/><polygon class="cls-22" points="143.48 291.89 123.94 305.7 122.66 305.29 142.21 291.48 143.48 291.89"/><polygon class="cls-22" points="145.99 292.7 126.45 306.51 125.17 306.1 144.71 292.29 145.99 292.7"/><polygon class="cls-22" points="155.55 295.5 148.14 300.74 146.86 300.32 154.27 295.08 155.55 295.5"/><polygon class="cls-23" points="138.01 315.23 137.42 311.38 160.1 295.34 160.69 299.2 138.01 315.23"/><polygon class="cls-24" points="138.01 315.23 100.48 303.32 99.86 299.25 137.42 311.37 138.01 315.23"/></svg>