<?xml version="1.0" encoding="UTF-8"?>
<svg width="117px" height="126px" viewBox="0 0 117 126" version="1.1" xmlns="http://www.w3.org/2000/svg" xmlns:xlink="http://www.w3.org/1999/xlink">
    <!-- Generator: Sketch 52.5 (67469) - http://www.bohemiancoding.com/sketch -->
    <title>satellite_b_3</title>
    <desc>Created with Sketch.</desc>
    <defs>
        <polygon id="path-1" points="0.968478261 0.137246377 24.6021014 0.137246377 24.6021014 23.7563623 0.968478261 23.7563623"></polygon>
    </defs>
    <g id="satellite_b_3" stroke="none" stroke-width="1" fill="none" fill-rule="evenodd">
        <g id="global">
            <path d="M99.150188,24.6746335 C93.8093821,19.3592795 87.4471106,15.0895689 80.3698132,12.1704811 C73.5697707,9.36757586 66.083887,7.81363358 58.2477866,7.81363358 C50.4116861,7.81363358 42.9258024,9.36757586 36.12576,12.1704811 C29.0484625,15.0895689 22.686191,19.3592795 17.3453851,24.6746335 C12.0045793,29.9899874 7.69983133,36.336462 4.78135817,43.3655093 C1.9504392,50.1476686 0.403648418,57.5833551 0.403648418,65.3821121 C0.403648418,73.195392 1.9504392,80.6310784 4.78135817,87.4132377 C7.69983133,94.4422851 12.0045793,100.78876 17.3453851,106.089591 C22.686191,111.404945 29.0484625,115.689178 36.12576,118.593743 C42.9258024,121.411171 50.4116861,122.965113 58.2477866,122.965113 C66.083887,122.965113 73.5697707,121.411171 80.3698132,118.593743 C87.4471106,115.689178 93.8093821,111.404945 99.150188,106.089591 C104.490994,100.78876 108.781149,94.4422851 111.714215,87.4132377 C114.530542,80.6310784 116.091925,73.195392 116.091925,65.3821121 C116.091925,57.5833551 114.530542,50.1476686 111.714215,43.3655093 C108.781149,36.336462 104.490994,29.9899874 99.150188,24.6746335" id="Fill-9" fill="#226CC3"></path>
            <path d="M102.235014,27.9509828 C104.336315,30.3908174 109.677121,38.2186201 111.968122,43.8970447 C114.813633,50.9551377 116.199908,58.4924839 116.112354,66.0007845 C116.039392,73.5236078 114.492601,81.0173856 111.486574,88.0319101 C108.597286,94.7705009 104.336315,101.08793 98.7328463,106.548512 C93.1147855,112.023617 86.6795522,116.119054 79.8357326,118.849345 C76.9902212,119.996648 85.0889843,110.440629 80.0692104,105.197889 C75.0786213,99.9406266 53.8321367,106.040213 54.4158313,95.2497541 C55.0141183,84.4592951 59.7420448,84.5028636 62.2373394,78.8680075 C64.7326339,73.2331513 67.7240689,77.7933184 78.3473113,74.177135 C88.9559612,70.5754744 103.095964,71.0982961 107.707151,66.3057638 C112.303747,61.5132315 90.0795734,67.2352246 85.993711,66.2186268 C81.9078485,65.2020291 81.0760837,60.3223599 78.1284258,60.4821109 C75.1953602,60.641862 76.8588899,65.9136475 73.5902,66.9157224 C70.3069177,67.9032745 61.5077211,69.442694 60.9678036,65.710328 C58.8956876,51.4343909 69.9712933,55.9509895 70.6425421,55.166757 C73.5756076,51.8119844 67.169559,49.1252617 71.1240902,44.3617751 C75.0786213,39.5982885 79.0039677,38.7559647 81.0760837,35.4302377 C83.1481996,32.1045108 76.2168259,29.5630164 79.412554,26.9779535 C82.6082821,24.363845 100.031567,25.3949656 102.235014,27.9509828" id="Fill-11" fill="#46525E"></path>
            <path d="M54.3618395,7.9109365 C40.8784935,8.81135166 27.6286253,14.3881165 17.3118227,24.6557538 C11.7667237,30.1889501 7.5787147,36.5354247 4.76238809,43.317584 C-1.10374297,57.4047243 -1.10374297,73.3653091 4.76238809,87.4669722 C7.11175899,93.1163511 10.4096337,98.4607508 14.6560121,103.282329 C14.9770442,103.645399 15.3856304,103.834196 15.8525861,103.848719 C16.3341342,103.863242 16.7719052,103.732536 17.0929372,103.369466 C20.9453218,98.940004 32.0938893,95.9047335 32.8526923,90.0810807 C33.4217946,85.7532788 26.2131659,84.0541083 24.3307507,80.1184227 C22.1856729,75.6599154 23.8929797,69.72008 21.1058378,65.6391661 C18.201957,61.3985012 7.21390555,61.0063849 4.22247056,56.8238113 C2.60271795,54.529205 3.79929195,51.0872954 4.6748339,48.4296184 C5.05423541,47.2532696 6.45510253,46.5706968 7.65167653,46.2802403 C9.34439096,45.8445556 11.139252,46.3238088 12.8903359,46.3383316 C13.0070748,46.3383316 29.3797092,43.8694514 34.4140755,41.7055504 C39.463034,39.5271267 36.6904845,36.6516073 38.8939318,35.7511921 C41.1119714,34.850777 44.5849544,41.5022309 47.9849757,38.5540974 C51.3995893,35.6350095 54.0699922,21.4316866 55.295751,18.1495282 C56.5069173,14.8528469 61.0305507,18.0478684 62.2125324,18.744964 C63.4091064,19.4420596 60.1258241,25.803057 61.6434301,26.964883 C63.1756285,28.126709 69.5670847,24.0893636 70.3842572,23.3051311 C75.1851456,18.5561673 73.9885716,14.1993198 71.2889839,12.0644645 C68.6039886,9.92960919 60.3593019,12.7615601 55.616783,8.36114408 C55.2665662,8.02711911 54.8433876,7.88189085 54.3618395,7.9109365" id="Fill-13" fill="#46525E"></path>
            <path d="M79.3060297,11.7406055 C72.7832422,9.21363391 65.67676,7.80491988 58.2492458,7.80491988 C50.4131454,7.80491988 42.9272617,9.35886216 36.1272192,12.1762902 C29.0499218,15.0808552 22.6876503,19.3650886 17.332252,24.6804426 C12.0060385,29.9812738 7.70129057,36.3277483 4.7828174,43.3713185 C1.95189843,50.1534778 0.405107654,57.5891642 0.405107654,65.3879212 C0.405107654,73.1866783 1.95189843,80.6368876 4.7828174,87.404524 C7.70129057,94.4480942 12.0060385,100.780046 17.332252,106.0954 C22.6876503,111.410754 29.0499218,115.680464 36.1272192,118.599552 C42.9272617,121.402458 50.4131454,122.9564 58.2492458,122.9564 C66.0853463,122.9564 73.5566376,121.402458 80.3712724,118.599552 C87.4485698,115.680464 93.8108413,111.410754 99.1516472,106.0954 C100.71303,104.541458 102.172267,102.900378 103.558542,101.186685 C93.9275803,110.539384 80.794451,116.304946 66.275047,116.304946 C36.8130604,116.304946 12.9399499,92.5310813 12.9399499,63.2240203 C12.9399499,33.9024365 36.8130604,10.1430947 66.275047,10.1430947 C70.7694957,10.1430947 75.1326131,10.6949621 79.3060297,11.7406055" id="Fill-15" fill="#0B4DAF"></path>
            <path d="M54.3618395,7.9109365 C40.8784935,8.81135166 27.6286253,14.3881165 17.3118227,24.6557538 C11.7667237,30.1889501 7.5787147,36.5354247 4.76238809,43.317584 C-1.10374297,57.4047243 -1.10374297,73.3653091 4.76238809,87.4669722 C7.11175899,93.1163511 10.4096337,98.4607508 14.6560121,103.282329 C14.9770442,103.645399 15.3856304,103.834196 15.8525861,103.848719 C16.3341342,103.863242 16.7719052,103.732536 17.0929372,103.369466 C18.9169829,101.278179 22.389966,99.4773485 25.6148789,97.5603356 C17.7058166,88.309296 12.9487053,76.3134425 12.9487053,63.2283772 C12.9487053,62.57485 12.9632977,61.9358457 12.9924824,61.2968414 C9.40276043,60.1204926 5.75466897,58.9731894 4.22247056,56.8238113 C2.60271795,54.529205 3.79929195,51.0872954 4.6748339,48.4296184 C5.05423541,47.2532696 6.45510253,46.5706968 7.65167653,46.2802403 C9.34439096,45.8445556 11.139252,46.3238088 12.8903359,46.3383316 C12.9195206,46.3383316 14.0723175,46.1640577 15.8671785,45.8736012 C22.4191507,27.0229743 39.3317027,12.9939253 59.8339767,10.5395678 C58.3017783,10.1474516 56.8425417,9.49392444 55.616783,8.36114408 C55.2665662,8.02711911 54.8433876,7.88189085 54.3618395,7.9109365" id="Fill-17" fill="#2B333B"></path>
            <path d="M103.745324,100.997888 C102.213126,102.929424 100.535004,104.788346 98.7255501,106.545607 C93.1074893,112.020713 86.6868483,116.116149 79.8430288,118.84644 C78.3983845,119.427353 79.7554746,117.263452 80.8061249,114.315319 C89.5761368,111.846439 97.4268296,107.199135 103.745324,100.997888" id="Fill-19" fill="#2B333B"></path>
            <path d="M57.6332879,14.2342564 C67.0419439,8.81265706 75.8900843,6.2284058 83.5371196,6.2284058 C88.4749959,6.2284058 92.9057389,7.29407642 96.6958925,9.34549238 C100.512737,11.4235501 103.662302,14.4873531 105.971092,18.4702971 C108.760325,23.2924567 110.308416,29.4600254 110.308416,36.8131528 C110.308416,37.8255398 110.268379,38.8379269 110.214997,39.8636349 C109.280804,38.0120322 108.239846,36.213713 107.118815,34.4819983 C106.838557,28.7007351 105.49065,23.8519338 103.275279,20.0155195 C101.273437,16.55209 98.5242413,13.8879134 95.2145296,12.0895942 C91.8781268,10.2912751 87.9411714,9.35881326 83.5371196,9.35881326 C76.3972175,9.35881326 68.0829016,11.7965348 59.1813788,16.9250747 C45.5021271,24.7977164 33.1173997,37.5058387 24.1358032,51.6392953 C15.1675523,65.7461102 9.62912358,81.2516178 9.62912358,94.8255974 C9.62912358,101.645889 11.0170672,107.280623 13.5393877,111.636552 L13.5393877,111.623231 C15.5412294,115.099981 18.2770798,117.750837 21.600137,119.549156 C24.9231943,121.360796 28.8734953,122.293258 33.277547,122.293258 C35.9466693,122.293258 38.7759389,121.946915 41.7520103,121.254229 C43.7271608,121.853669 45.7423481,122.33322 47.8109179,122.719526 C42.6328206,124.531166 37.7483268,125.410344 33.277547,125.410344 C28.3396708,125.410344 23.9089278,124.344674 20.1054285,122.293258 C16.2885837,120.228521 13.152365,117.178039 10.8435742,113.181774 C8.05434143,108.346293 6.5062505,102.192046 6.5062505,94.8255974 C6.5062505,80.665499 12.2315178,64.5472308 21.4933721,49.974185 C30.7285352,35.4411018 43.5002854,22.3733158 57.6332879,14.2342564 Z" id="Fill-30" fill="#2A556F"></path>
            <g id="Group-34" transform="translate(85.014493, 0.341014)">
                <mask id="mask-2" fill="white">
                    <use xlink:href="#path-1"></use>
                </mask>
                <g id="Clip-33"></g>
                <path d="M12.7852899,23.7563623 C19.3135507,23.7563623 24.6021014,18.4678116 24.6021014,11.9395507 C24.6021014,5.42447826 19.3135507,0.135927536 12.7852899,0.135927536 C6.25702899,0.135927536 0.968478261,5.42447826 0.968478261,11.9395507 C0.968478261,18.4678116 6.25702899,23.7563623 12.7852899,23.7563623" id="Fill-32" fill="#1D9FFF" mask="url(#mask-2)"></path>
            </g>
            <path d="M99.1331304,21.8052319 C104.738203,21.8052319 109.275014,17.2552319 109.275014,11.6633478 C109.275014,6.05827536 104.738203,1.50827536 99.1331304,1.50827536 C93.528058,1.50827536 88.9912464,6.05827536 88.9912464,11.6633478 C88.9912464,17.2552319 93.528058,21.8052319 99.1331304,21.8052319" id="Fill-35" fill="#00C3FF"></path>
            <path d="M106.873406,6.19543478 C104.182971,2.66094203 100.068188,3.80833333 100.068188,8.12094203 C100.068188,10.6663043 102.138768,12.7368841 104.68413,12.7368841 C108.864855,12.7368841 108.759348,8.67485507 106.873406,6.19543478" id="Fill-37" fill="#B3EDFF"></path>
        </g>
    </g>
</svg>