<svg id="Layer_1" data-name="Layer 1" xmlns="http://www.w3.org/2000/svg" xmlns:xlink="http://www.w3.org/1999/xlink" viewBox="0 0 1421.4 1119.24"><defs><style>.cls-1{mask:url(#mask);filter:url(#luminosity-noclip-9);}.cls-10,.cls-12,.cls-14,.cls-16,.cls-2,.cls-4,.cls-6,.cls-8{mix-blend-mode:multiply;}.cls-2{fill:url(#_ÂÁ_Ï_ÌÌ_È_ËÂÌÚ_57);}.cls-3{mask:url(#mask-2);filter:url(#luminosity-noclip-14);}.cls-4{fill:url(#_ÂÁ_Ï_ÌÌ_È_ËÂÌÚ_57-2);}.cls-5{mask:url(#mask-3);filter:url(#luminosity-noclip-15);}.cls-6{fill:url(#_ÂÁ_Ï_ÌÌ_È_ËÂÌÚ_57-3);}.cls-7{mask:url(#mask-4);filter:url(#luminosity-noclip-16);}.cls-8{fill:url(#_ÂÁ_Ï_ÌÌ_È_ËÂÌÚ_57-4);}.cls-9{mask:url(#mask-5);filter:url(#luminosity-noclip-10);}.cls-10{fill:url(#_ÂÁ_Ï_ÌÌ_È_ËÂÌÚ_57-5);}.cls-11{mask:url(#mask-6);filter:url(#luminosity-noclip-11);}.cls-12{fill:url(#_ÂÁ_Ï_ÌÌ_È_ËÂÌÚ_57-6);}.cls-13{mask:url(#mask-7);filter:url(#luminosity-noclip-12);}.cls-14{fill:url(#_ÂÁ_Ï_ÌÌ_È_ËÂÌÚ_57-7);}.cls-15{mask:url(#mask-8);filter:url(#luminosity-noclip-13);}.cls-16{fill:url(#_ÂÁ_Ï_ÌÌ_È_ËÂÌÚ_57-8);}.cls-17{fill:none;}.cls-18{mask:url(#mask-9);}.cls-19,.cls-45{fill:#226cc3;}.cls-19{opacity:0.6;}.cls-20{mask:url(#mask-10);}.cls-21{mask:url(#mask-11);}.cls-22{mask:url(#mask-12);}.cls-23{mask:url(#mask-13);}.cls-24{mask:url(#mask-14);}.cls-25{mask:url(#mask-15);}.cls-26{mask:url(#mask-16);}.cls-27{fill:url(#linear-gradient);}.cls-28{fill:#8aa7b7;}.cls-29{fill:#616d7d;}.cls-30{fill:#2f3640;}.cls-31{fill:#2a2d33;}.cls-32{fill:url(#New_Gradient_Swatch_copy_9);}.cls-33{fill:url(#New_Gradient_Swatch_copy_9-2);}.cls-34,.cls-42{opacity:0.5;}.cls-34{fill:url(#New_Gradient_Swatch_copy_10);}.cls-35,.cls-37,.cls-41,.cls-43{opacity:0.4;}.cls-35{fill:url(#New_Gradient_Swatch_copy_9-3);}.cls-36{fill:url(#New_Gradient_Swatch_copy_10-2);}.cls-37{fill:url(#New_Gradient_Swatch_copy_10-3);}.cls-38{opacity:0.11;}.cls-39{clip-path:url(#clip-path);}.cls-40{fill:url(#New_Gradient_Swatch_copy_9-4);}.cls-41{fill:url(#New_Gradient_Swatch_copy_10-4);}.cls-42{fill:url(#New_Gradient_Swatch_copy_9-5);}.cls-43{fill:url(#New_Gradient_Swatch_copy_10-5);}.cls-44{fill:#258be8;}.cls-45{opacity:0.7;}.cls-46{filter:url(#luminosity-noclip-8);}.cls-47{filter:url(#luminosity-noclip-7);}.cls-48{filter:url(#luminosity-noclip-6);}.cls-49{filter:url(#luminosity-noclip-5);}.cls-50{filter:url(#luminosity-noclip-4);}.cls-51{filter:url(#luminosity-noclip-3);}.cls-52{filter:url(#luminosity-noclip-2);}.cls-53{filter:url(#luminosity-noclip);}</style><filter id="luminosity-noclip" x="645.68" y="-3274.32" width="767.81" height="32766" filterUnits="userSpaceOnUse" color-interpolation-filters="sRGB"><feFlood flood-color="#fff" result="bg"/><feBlend in="SourceGraphic" in2="bg"/></filter><mask id="mask" x="645.68" y="-3274.32" width="767.81" height="32766" maskUnits="userSpaceOnUse"><g class="cls-53"/></mask><linearGradient id="_ÂÁ_Ï_ÌÌ_È_ËÂÌÚ_57" x1="-10670.65" y1="-726.65" x2="-10670.65" y2="-1475.2" gradientTransform="matrix(-0.87, -0.5, -1, 0.58, -9336.56, -3779.71)" gradientUnits="userSpaceOnUse"><stop offset="0"/><stop offset="0.06" stop-color="#2a2a2a"/><stop offset="0.15" stop-color="#626262"/><stop offset="0.23" stop-color="#929292"/><stop offset="0.31" stop-color="#b6b6b6"/><stop offset="0.39" stop-color="#d1d1d1"/><stop offset="0.45" stop-color="#e0e0e0"/><stop offset="0.51" stop-color="#e6e6e6"/><stop offset="0.55" stop-color="#dedede"/><stop offset="0.62" stop-color="#c9c9c9"/><stop offset="0.71" stop-color="#a7a7a7"/><stop offset="0.8" stop-color="#787878"/><stop offset="0.91" stop-color="#3b3b3b"/><stop offset="1"/></linearGradient><filter id="luminosity-noclip-2" x="130.17" y="-3274.32" width="969.3" height="32766" filterUnits="userSpaceOnUse" color-interpolation-filters="sRGB"><feFlood flood-color="#fff" result="bg"/><feBlend in="SourceGraphic" in2="bg"/></filter><mask id="mask-2" x="130.17" y="-3274.32" width="969.3" height="32766" maskUnits="userSpaceOnUse"><g class="cls-52"/></mask><linearGradient id="_ÂÁ_Ï_ÌÌ_È_ËÂÌÚ_57-2" x1="-9908.55" y1="-873.54" x2="-9908.55" y2="-1824.19" xlink:href="#_ÂÁ_Ï_ÌÌ_È_ËÂÌÚ_57"/><filter id="luminosity-noclip-3" x="259.28" y="-3274.32" width="827.05" height="32766" filterUnits="userSpaceOnUse" color-interpolation-filters="sRGB"><feFlood flood-color="#fff" result="bg"/><feBlend in="SourceGraphic" in2="bg"/></filter><mask id="mask-3" x="259.28" y="-3274.32" width="827.05" height="32766" maskUnits="userSpaceOnUse"><g class="cls-51"/></mask><linearGradient id="_ÂÁ_Ï_ÌÌ_È_ËÂÌÚ_57-3" x1="-10225.8" y1="-726.65" x2="-10225.8" y2="-1534.61" xlink:href="#_ÂÁ_Ï_ÌÌ_È_ËÂÌÚ_57"/><filter id="luminosity-noclip-4" x="572.69" y="-3274.32" width="357.8" height="32766" filterUnits="userSpaceOnUse" color-interpolation-filters="sRGB"><feFlood flood-color="#fff" result="bg"/><feBlend in="SourceGraphic" in2="bg"/></filter><mask id="mask-4" x="572.69" y="-3274.32" width="357.8" height="32766" maskUnits="userSpaceOnUse"><g class="cls-50"/></mask><linearGradient id="_ÂÁ_Ï_ÌÌ_È_ËÂÌÚ_57-4" x1="-10114.58" y1="-1137.91" x2="-10114.58" y2="-1475.19" xlink:href="#_ÂÁ_Ï_ÌÌ_È_ËÂÌÚ_57"/><filter id="luminosity-noclip-5" x="727.77" y="-3274.32" width="410.44" height="32766" filterUnits="userSpaceOnUse" color-interpolation-filters="sRGB"><feFlood flood-color="#fff" result="bg"/><feBlend in="SourceGraphic" in2="bg"/></filter><mask id="mask-5" x="727.77" y="-3274.32" width="410.44" height="32766" maskUnits="userSpaceOnUse"><g class="cls-49"/></mask><linearGradient id="_ÂÁ_Ï_ÌÌ_È_ËÂÌÚ_57-5" x1="-10559.44" y1="-905.88" x2="-10559.44" y2="-1295.97" xlink:href="#_ÂÁ_Ï_ÌÌ_È_ËÂÌÚ_57"/><filter id="luminosity-noclip-6" x="452.48" y="-3274.32" width="509.17" height="32766" filterUnits="userSpaceOnUse" color-interpolation-filters="sRGB"><feFlood flood-color="#fff" result="bg"/><feBlend in="SourceGraphic" in2="bg"/></filter><mask id="mask-6" x="452.48" y="-3274.32" width="509.17" height="32766" maskUnits="userSpaceOnUse"><g class="cls-48"/></mask><linearGradient id="_ÂÁ_Ï_ÌÌ_È_ËÂÌÚ_57-6" x1="-10448.23" y1="-726.65" x2="-10448.23" y2="-1215.77" xlink:href="#_ÂÁ_Ï_ÌÌ_È_ËÂÌÚ_57"/><filter id="luminosity-noclip-7" x="355.88" y="-3274.32" width="969.3" height="32766" filterUnits="userSpaceOnUse" color-interpolation-filters="sRGB"><feFlood flood-color="#fff" result="bg"/><feBlend in="SourceGraphic" in2="bg"/></filter><mask id="mask-7" x="355.88" y="-3274.32" width="969.3" height="32766" maskUnits="userSpaceOnUse"><g class="cls-47"/></mask><linearGradient id="_ÂÁ_Ï_ÌÌ_È_ËÂÌÚ_57-7" x1="-10337.01" y1="-726.65" x2="-10337.01" y2="-1677.29" xlink:href="#_ÂÁ_Ï_ÌÌ_È_ËÂÌÚ_57"/><filter id="luminosity-noclip-8" x="-0.15" y="-3274.32" width="969.3" height="32766" filterUnits="userSpaceOnUse" color-interpolation-filters="sRGB"><feFlood flood-color="#fff" result="bg"/><feBlend in="SourceGraphic" in2="bg"/></filter><mask id="mask-8" x="-0.15" y="-3274.32" width="969.3" height="32766" maskUnits="userSpaceOnUse"><g class="cls-46"/></mask><linearGradient id="_ÂÁ_Ï_ÌÌ_È_ËÂÌÚ_57-8" x1="-10015.04" y1="-650.05" x2="-10015.04" y2="-1600.69" xlink:href="#_ÂÁ_Ï_ÌÌ_È_ËÂÌÚ_57"/><filter id="luminosity-noclip-9" x="645.68" y="642.24" width="767.81" height="448.14" filterUnits="userSpaceOnUse" color-interpolation-filters="sRGB"><feFlood flood-color="#fff" result="bg"/><feBlend in="SourceGraphic" in2="bg"/></filter><mask id="mask-9" x="645.68" y="642.24" width="767.81" height="448.14" maskUnits="userSpaceOnUse"><g class="cls-1"><path class="cls-2" d="M1400.94,647.27l3.58,2c13.24,7.55,11.65,20.87-3.55,29.75L709.73,1083c-15.2,8.88-38.25,10-51.49,2.4l-3.58-2c-13.24-7.55-11.65-20.87,3.55-29.75l691.24-403.89C1364.65,640.79,1387.7,639.72,1400.94,647.27Z"/></g></mask><filter id="luminosity-noclip-10" x="727.77" y="691.54" width="410.44" height="239.33" filterUnits="userSpaceOnUse" color-interpolation-filters="sRGB"><feFlood flood-color="#fff" result="bg"/><feBlend in="SourceGraphic" in2="bg"/></filter><mask id="mask-10" x="727.77" y="691.54" width="410.44" height="239.33" maskUnits="userSpaceOnUse"><g class="cls-9"><path class="cls-10" d="M1125.65,696.57l3.58,2c13.24,7.55,11.65,20.87-3.54,29.75L791.81,923.44c-15.2,8.88-38.25,9.95-51.49,2.4l-3.57-2c-13.24-7.55-11.66-20.87,3.54-29.75L1074.17,699C1089.36,690.09,1112.42,689,1125.65,696.57Z"/></g></mask><filter id="luminosity-noclip-11" x="452.48" y="683.15" width="509.17" height="297.02" filterUnits="userSpaceOnUse" color-interpolation-filters="sRGB"><feFlood flood-color="#fff" result="bg"/><feBlend in="SourceGraphic" in2="bg"/></filter><mask id="mask-11" x="452.48" y="683.15" width="509.17" height="297.02" maskUnits="userSpaceOnUse"><g class="cls-11"><path class="cls-12" d="M949.1,688.18l3.58,2c13.24,7.55,11.65,20.87-3.55,29.75L516.52,972.74c-15.19,8.88-38.24,10-51.48,2.4l-3.58-2c-13.24-7.55-11.65-20.87,3.54-29.75L897.61,690.58C912.81,681.7,935.86,680.62,949.1,688.18Z"/></g></mask><filter id="luminosity-noclip-12" x="355.88" y="359.2" width="969.3" height="565.87" filterUnits="userSpaceOnUse" color-interpolation-filters="sRGB"><feFlood flood-color="#fff" result="bg"/><feBlend in="SourceGraphic" in2="bg"/></filter><mask id="mask-12" x="355.88" y="359.2" width="969.3" height="565.87" maskUnits="userSpaceOnUse"><g class="cls-13"><path class="cls-14" d="M1312.62,364.23l3.58,2c13.24,7.56,11.65,20.88-3.55,29.76L419.92,917.63c-15.19,8.88-38.25,10-51.48,2.4l-3.58-2c-13.24-7.55-11.65-20.87,3.54-29.75l892.73-521.61C1276.33,357.75,1299.38,356.67,1312.62,364.23Z"/></g></mask><filter id="luminosity-noclip-13" x="-0.15" y="244.28" width="969.3" height="565.87" filterUnits="userSpaceOnUse" color-interpolation-filters="sRGB"><feFlood flood-color="#fff" result="bg"/><feBlend in="SourceGraphic" in2="bg"/></filter><mask id="mask-13" x="-0.15" y="244.28" width="969.3" height="565.87" maskUnits="userSpaceOnUse"><g class="cls-15"><path class="cls-16" d="M956.59,249.31l3.58,2c13.24,7.55,11.65,20.87-3.54,29.75L63.9,802.72c-15.2,8.87-38.25,9.95-51.49,2.4l-3.58-2c-13.24-7.55-11.65-20.88,3.54-29.75L905.11,251.71C920.3,242.83,943.35,241.76,956.59,249.31Z"/></g></mask><filter id="luminosity-noclip-14" x="130.17" y="61.33" width="969.3" height="565.87" filterUnits="userSpaceOnUse" color-interpolation-filters="sRGB"><feFlood flood-color="#fff" result="bg"/><feBlend in="SourceGraphic" in2="bg"/></filter><mask id="mask-14" x="130.17" y="61.33" width="969.3" height="565.87" maskUnits="userSpaceOnUse"><g class="cls-3"><path class="cls-4" d="M1086.91,66.36l3.58,2c13.24,7.55,11.65,20.87-3.54,29.75L194.21,619.76c-15.19,8.88-38.24,10-51.48,2.4l-3.58-2c-13.24-7.55-11.65-20.87,3.54-29.75L1035.43,68.76C1050.62,59.88,1073.67,58.8,1086.91,66.36Z"/></g></mask><filter id="luminosity-noclip-15" x="259.28" y="387.2" width="827.05" height="482.75" filterUnits="userSpaceOnUse" color-interpolation-filters="sRGB"><feFlood flood-color="#fff" result="bg"/><feBlend in="SourceGraphic" in2="bg"/></filter><mask id="mask-15" x="259.28" y="387.2" width="827.05" height="482.75" maskUnits="userSpaceOnUse"><g class="cls-5"><path class="cls-6" d="M1073.77,392.23l3.58,2c13.24,7.55,11.65,20.87-3.54,29.75L323.32,862.52c-15.19,8.88-38.25,10-51.49,2.4l-3.57-2C255,855.33,256.61,842,271.8,833.13l750.48-438.5C1037.48,385.75,1060.53,384.68,1073.77,392.23Z"/></g></mask><filter id="luminosity-noclip-16" x="572.69" y="366.71" width="357.8" height="208.57" filterUnits="userSpaceOnUse" color-interpolation-filters="sRGB"><feFlood flood-color="#fff" result="bg"/><feBlend in="SourceGraphic" in2="bg"/></filter><mask id="mask-16" x="572.69" y="366.71" width="357.8" height="208.57" maskUnits="userSpaceOnUse"><g class="cls-7"><path class="cls-8" d="M917.93,371.74l3.58,2c13.24,7.55,11.65,20.87-3.54,29.75L636.73,567.85c-15.19,8.88-38.24,9.95-51.48,2.4l-3.58-2c-13.24-7.55-11.65-20.87,3.54-29.75L866.45,374.14C881.64,365.26,904.69,364.18,917.93,371.74Z"/></g></mask><linearGradient id="linear-gradient" x1="2094.24" y1="863.81" x2="2952.64" y2="863.81" gradientTransform="translate(-1649.5)" gradientUnits="userSpaceOnUse"><stop offset="0" stop-color="#264ac3"/><stop offset="0.17" stop-color="#215bc3"/><stop offset="0.46" stop-color="#1c6fc3"/><stop offset="0.73" stop-color="#187cc3"/><stop offset="1" stop-color="#1780c3"/></linearGradient><linearGradient id="New_Gradient_Swatch_copy_9" x1="2204.2" y1="603.79" x2="2843.71" y2="973" gradientTransform="translate(-1649.5)" gradientUnits="userSpaceOnUse"><stop offset="0" stop-color="#616d7d"/><stop offset="1" stop-color="#2f3640"/></linearGradient><linearGradient id="New_Gradient_Swatch_copy_9-2" x1="2630.64" y1="836.21" x2="1995.36" y2="469.43" xlink:href="#New_Gradient_Swatch_copy_9"/><linearGradient id="New_Gradient_Swatch_copy_10" x1="504.77" y1="746.28" x2="1148.32" y2="746.28" gradientUnits="userSpaceOnUse"><stop offset="0" stop-color="#8aa7b7"/><stop offset="1" stop-color="#616d7d"/></linearGradient><linearGradient id="New_Gradient_Swatch_copy_9-3" x1="826.55" y1="836.65" x2="826.55" y2="559.96" gradientTransform="matrix(1, 0, 0, 1, 0, 0)" xlink:href="#New_Gradient_Swatch_copy_9"/><linearGradient id="New_Gradient_Swatch_copy_10-2" x1="2743.39" y1="774.16" x2="2555.48" y2="882.66" gradientTransform="translate(-1649.5)" xlink:href="#New_Gradient_Swatch_copy_10"/><linearGradient id="New_Gradient_Swatch_copy_10-3" x1="881.98" y1="801.11" x2="1117.88" y2="801.11" xlink:href="#New_Gradient_Swatch_copy_10"/><clipPath id="clip-path"><polygon id="SVGID" class="cls-17" points="902.49 97.98 358.09 412.29 425.6 810.28 969.63 496.19 902.49 97.98"/></clipPath><linearGradient id="New_Gradient_Swatch_copy_9-4" x1="1962.39" y1="504.05" x2="2198.39" y2="504.05" xlink:href="#New_Gradient_Swatch_copy_9"/><linearGradient id="New_Gradient_Swatch_copy_10-4" x1="312.94" y1="476.75" x2="548.84" y2="476.75" xlink:href="#New_Gradient_Swatch_copy_10"/><linearGradient id="New_Gradient_Swatch_copy_9-5" x1="259.72" y1="599.85" x2="903.27" y2="599.85" gradientTransform="matrix(1, 0, 0, 1, 0, 0)" xlink:href="#New_Gradient_Swatch_copy_9"/><linearGradient id="New_Gradient_Swatch_copy_10-5" x1="259.72" y1="551.87" x2="903.27" y2="551.87" xlink:href="#New_Gradient_Swatch_copy_10"/></defs><title>satellite_api_1</title><g class="cls-18"><path class="cls-19" d="M1400.94,647.27l3.58,2c13.24,7.55,11.65,20.87-3.55,29.75L709.73,1083c-15.2,8.88-38.25,10-51.49,2.4l-3.58-2c-13.24-7.55-11.65-20.87,3.55-29.75l691.24-403.89C1364.65,640.79,1387.7,639.72,1400.94,647.27Z"/></g><g class="cls-20"><path class="cls-19" d="M1125.65,696.57l3.58,2c13.24,7.55,11.65,20.87-3.54,29.75L791.81,923.44c-15.2,8.88-38.25,9.95-51.49,2.4l-3.57-2c-13.24-7.55-11.66-20.87,3.54-29.75L1074.17,699C1089.36,690.09,1112.42,689,1125.65,696.57Z"/></g><g class="cls-21"><path class="cls-19" d="M949.1,688.18l3.58,2c13.24,7.55,11.65,20.87-3.55,29.75L516.52,972.74c-15.19,8.88-38.24,10-51.48,2.4l-3.58-2c-13.24-7.55-11.65-20.87,3.54-29.75L897.61,690.58C912.81,681.7,935.86,680.62,949.1,688.18Z"/></g><g class="cls-22"><path class="cls-19" d="M1312.62,364.23l3.58,2c13.24,7.56,11.65,20.88-3.55,29.76L419.92,917.63c-15.19,8.88-38.25,10-51.48,2.4l-3.58-2c-13.24-7.55-11.65-20.87,3.54-29.75l892.73-521.61C1276.33,357.75,1299.38,356.67,1312.62,364.23Z"/></g><g class="cls-23"><path class="cls-19" d="M956.59,249.31l3.58,2c13.24,7.55,11.65,20.87-3.54,29.75L63.9,802.72c-15.2,8.87-38.25,9.95-51.49,2.4l-3.58-2c-13.24-7.55-11.65-20.88,3.54-29.75L905.11,251.71C920.3,242.83,943.35,241.76,956.59,249.31Z"/></g><g class="cls-24"><path class="cls-19" d="M1086.91,66.36l3.58,2c13.24,7.55,11.65,20.87-3.54,29.75L194.21,619.76c-15.19,8.88-38.24,10-51.48,2.4l-3.58-2c-13.24-7.55-11.65-20.87,3.54-29.75L1035.43,68.76C1050.62,59.88,1073.67,58.8,1086.91,66.36Z"/></g><g class="cls-25"><path class="cls-19" d="M1073.77,392.23l3.58,2c13.24,7.55,11.65,20.87-3.54,29.75L323.32,862.52c-15.19,8.88-38.25,10-51.49,2.4l-3.57-2C255,855.33,256.61,842,271.8,833.13l750.48-438.5C1037.48,385.75,1060.53,384.68,1073.77,392.23Z"/></g><g class="cls-26"><path class="cls-19" d="M917.93,371.74l3.58,2c13.24,7.55,11.65,20.87-3.54,29.75L636.73,567.85c-15.19,8.88-38.24,9.95-51.48,2.4l-3.58-2c-13.24-7.55-11.65-20.87,3.54-29.75L866.45,374.14C881.64,365.26,904.69,364.18,917.93,371.74Z"/></g><path class="cls-27" d="M743.46,1108.29,447.71,937.54c-5.2-7.12-3.16-15.2,2.92-18.71L978,614.35l2.46-1.42,319.71,184.59c5.2,7.12,3.16,15.2-2.92,18.71L791.38,1108.29a48.05,48.05,0,0,1-47.92,0ZM455.54,927.35a1.94,1.94,0,0,0,0,3.36l292.83,169.07a38.21,38.21,0,0,0,38.09,0l505.88-292.07a1.94,1.94,0,0,0,0-3.36L980.46,624.29Z"/><path class="cls-28" d="M981.1,492,910.43,72.71l5.69-2.4-8.54-4.89v0c-1.65-1.1-4-1-6.58.45L336.24,392c-4.64,2.67-8.15,9.54-7.34,14.34l71.23,422.59a5.31,5.31,0,0,0,3,4.31h0l8.35,4.83,1.44-7.8-.48.14,561.36-324.1C978.41,503.63,981.92,496.77,981.1,492Z"/><path class="cls-29" d="M339.38,403.46l-9.28-4.11a12.88,12.88,0,0,0-1.2,7l71.23,422.59a5.31,5.31,0,0,0,3,4.31h0l8.35,4.83,1.44-7.8-.48.14L440.82,814Z"/><path class="cls-30" d="M982.63,511.4,417.85,837.47c-4.36,2.52-8.09,1.06-8.86-3.45L337.76,411.43c-.81-4.81,2.7-11.67,7.34-14.35L909.87,71c4.36-2.52,8.1-1.07,8.86,3.45L990,497.05C990.78,501.85,987.27,508.72,982.63,511.4Z"/><polygon class="cls-31" points="902.49 97.98 358.09 412.29 425.6 810.28 969.63 496.19 902.49 97.98"/><path class="cls-32" d="M1337.65,711.47l-30.82,16.09L997.77,549.13c-5.17-3-14.21-2.61-20.18.83l-533,307.75c-5.1-2.85-28.35-14-28.35-14l11.28,29.39,0,0a6.78,6.78,0,0,0,3.16,3.5l325.5,187.92c5.17,3,14.2,2.62,20.17-.83L1321.82,748.7a9.8,9.8,0,0,0,4.58-4.86l0,0Z"/><path class="cls-33" d="M1332.88,716.53l-559,322.76c-6.12,3.53-15.38,3.92-20.67.86l-333.6-192.6c-5.3-3.06-4.63-8.41,1.48-11.94l559-322.76c6.12-3.53,15.37-3.91,20.67-.85l333.6,192.6C1339.67,707.66,1339,713,1332.88,716.53Z"/><path class="cls-34" d="M506.55,829.51,971.11,561.3a10,10,0,0,1,10,0L1146.54,657a3.57,3.57,0,0,1,0,6.18L682.2,931.27a10,10,0,0,1-10,0L506.55,835.69A3.57,3.57,0,0,1,506.55,829.51Z"/><path class="cls-35" d="M506.55,835.69l1.67,1L971.11,569.39a10,10,0,0,1,10,0l163.76,94.75,1.66-1a3.57,3.57,0,0,0,0-6.18L981.12,561.3a10,10,0,0,0-10,0L506.55,829.51A3.57,3.57,0,0,0,506.55,835.69Z"/><polygon class="cls-31" points="993.6 585.54 590.07 818.52 572.13 808.16 975.66 575.18 993.6 585.54"/><polygon class="cls-31" points="1037.59 610.94 659.09 829.46 641.15 819.1 1019.65 600.58 1037.59 610.94"/><polygon class="cls-31" points="1066.24 627.48 620.6 884.77 602.66 874.41 1048.3 617.12 1066.24 627.48"/><polygon class="cls-31" points="1094.89 644.02 649.25 901.31 631.31 890.95 1076.95 633.66 1094.89 644.02"/><polygon class="cls-31" points="1123.54 660.56 677.9 917.85 659.96 907.49 1105.6 650.2 1123.54 660.56"/><polygon class="cls-31" points="565.69 832.6 547.74 842.96 529.8 832.6 547.74 822.24 565.69 832.6"/><polygon class="cls-31" points="628.97 846.85 591.73 868.35 573.79 857.99 611.03 836.49 628.97 846.85"/><path class="cls-36" d="M989,894.41l125.27-72.32c4.89-2.82,4.89-7.41,0-10.23L1028.6,762.4c-4.9-2.82-12.83-2.82-17.73,0L885.61,834.72c-4.9,2.83-4.9,7.41,0,10.24l85.66,49.45C976.16,897.24,984.1,897.24,989,894.41Z"/><path class="cls-37" d="M885.61,838.91l125.26-72.32c4.9-2.82,12.83-2.82,17.73,0l85.66,49.46a7.67,7.67,0,0,1,3.07,3c1.3-2.47.31-5.26-3.07-7.21L1028.6,762.4c-4.9-2.82-12.83-2.82-17.73,0L885.61,834.72c-3.39,2-4.37,4.74-3.08,7.22A7.66,7.66,0,0,1,885.61,838.91Z"/><g class="cls-38"><g class="cls-39"><path class="cls-30" d="M980.65,512.19,421.62,835c-6.12,3.53-15.38,3.91-20.68.85L67.35,643.2c-5.3-3.06-4.64-8.4,1.48-11.94l559-322.75c6.12-3.54,15.38-3.92,20.68-.86l333.59,192.6C987.43,503.31,986.77,508.66,980.65,512.19Z"/><path class="cls-40" d="M420,570.05l125.26-72.32c4.9-2.82,4.9-7.4,0-10.23L459.56,438c-4.9-2.82-12.84-2.82-17.73,0L316.57,510.36c-4.9,2.83-4.9,7.41,0,10.24l85.65,49.45C407.12,572.88,415.06,572.88,420,570.05Z"/><path class="cls-41" d="M316.57,514.55l125.26-72.32c4.89-2.82,12.83-2.82,17.73,0l85.65,49.46a7.7,7.7,0,0,1,3.08,3c1.29-2.47.31-5.26-3.08-7.21L459.56,438c-4.9-2.82-12.84-2.82-17.73,0L316.57,510.36c-3.39,2-4.38,4.74-3.08,7.22A7.6,7.6,0,0,1,316.57,514.55Z"/><path class="cls-42" d="M261.5,683.07,726.06,414.86a10,10,0,0,1,10,0l165.42,95.71a3.56,3.56,0,0,1,0,6.17L437.15,784.84a10,10,0,0,1-10,0L261.5,689.25A3.57,3.57,0,0,1,261.5,683.07Z"/><path class="cls-43" d="M261.5,689.25l1.67,1L726.06,423a10,10,0,0,1,10,0l163.76,94.75,1.66-1a3.56,3.56,0,0,0,0-6.17L736.07,414.87a10,10,0,0,0-10,0L261.5,683.07A3.57,3.57,0,0,0,261.5,689.25Z"/><polygon class="cls-31" points="858.2 504.05 453.49 737.71 469.52 746.96 874.23 513.3 858.2 504.05"/><polygon class="cls-31" points="815.56 479.43 430.89 701.52 446.92 710.77 831.59 488.69 815.56 479.43"/><polygon class="cls-31" points="402.17 718.1 366.24 738.85 382.27 748.1 418.2 727.36 402.17 718.1"/><polygon class="cls-31" points="433.9 749.02 408.88 763.46 424.91 772.72 449.93 758.28 433.9 749.02"/><polygon class="cls-31" points="788.84 464 339.52 723.42 355.55 732.67 804.87 473.26 788.84 464"/><polygon class="cls-31" points="762.12 448.58 312.8 707.99 328.83 717.25 778.15 457.83 762.12 448.58"/><polygon class="cls-31" points="735.4 433.15 286.08 692.57 302.11 701.82 751.43 442.41 735.4 433.15"/></g></g><polygon class="cls-44" points="409.98 436.28 399.27 443.13 397.97 435.18 408.68 428.34 409.98 436.28"/><polygon class="cls-44" points="418.75 490.02 408.05 496.87 400.45 450.37 411.16 443.52 418.75 490.02"/><polygon class="cls-44" points="422.95 515.73 412.24 522.58 409.23 504.12 419.94 497.27 422.95 515.73"/><polygon class="cls-44" points="427.3 542.37 416.59 549.22 413.58 530.75 424.29 523.91 427.3 542.37"/><polygon class="cls-44" points="430.14 451.77 419.43 458.62 416.42 440.16 427.13 433.31 430.14 451.77"/><polygon class="cls-44" points="435.9 487.06 425.19 493.91 420.77 466.8 431.48 459.95 435.9 487.06"/><polygon class="cls-44" points="441.21 519.54 430.5 526.39 426.7 503.14 437.41 496.29 441.21 519.54"/><polygon class="cls-44" points="431.65 569.01 420.94 575.85 417.93 557.39 428.64 550.55 431.65 569.01"/><polygon class="cls-44" points="425.94 426.07 415.24 432.92 413.94 424.97 424.64 418.13 425.94 426.07"/><polygon class="cls-44" points="443.85 589.75 425.17 601.7 423.9 593.99 442.59 582.04 443.85 589.75"/><polygon class="cls-45" points="804.99 43.79 851.74 16.81 851.74 6.54 804.99 33.53 804.99 43.79"/><polygon class="cls-45" points="781.02 57.63 797.85 47.91 797.85 37.65 781.02 47.37 781.02 57.63"/><polygon class="cls-45" points="762.45 68.36 773.88 61.75 773.88 51.49 762.45 58.09 762.45 68.36"/><polygon class="cls-45" points="826.27 54.96 851.74 40.25 851.74 29.99 826.27 44.69 826.27 54.96"/><polygon class="cls-45" points="787.91 77.1 819.13 59.08 819.13 48.82 787.91 66.84 787.91 77.1"/><polygon class="cls-45" points="769.34 87.83 780.77 81.22 780.77 70.96 769.34 77.56 769.34 87.83"/><polygon class="cls-45" points="751.66 98.03 763.1 91.43 763.1 81.17 751.66 87.77 751.66 98.03"/><polygon class="cls-44" points="833.31 74.34 851.74 63.7 851.74 53.44 833.31 64.08 833.31 74.34"/><polygon class="cls-44" points="819.87 82.1 826.17 78.46 826.17 68.2 819.87 71.84 819.87 82.1"/><polygon class="cls-45" points="801.29 92.83 812.73 86.22 812.73 75.96 801.29 82.56 801.29 92.83"/><polygon class="cls-45" points="783.72 126.42 851.74 87.15 851.74 76.89 783.72 116.16 783.72 126.42"/><polygon class="cls-45" points="759.75 140.26 776.58 130.54 776.58 120.28 759.75 129.99 759.75 140.26"/><polygon class="cls-45" points="833.31 121.24 851.74 110.6 851.74 100.33 833.31 110.97 833.31 121.24"/><polygon class="cls-45" points="790.06 146.21 826.17 125.36 826.17 115.1 790.06 135.94 790.06 146.21"/><polygon class="cls-45" points="771.49 156.93 782.92 150.33 782.92 140.06 771.49 146.67 771.49 156.93"/><polygon class="cls-45" points="814.03 155.81 851.74 134.05 851.74 123.78 814.03 145.55 814.03 155.81"/><polygon class="cls-44" points="779.63 175.68 806.89 159.94 806.89 149.67 779.63 165.42 779.63 175.68"/><polygon class="cls-45" points="754.06 190.44 772.49 179.8 772.49 169.54 754.06 180.18 754.06 190.44"/><polygon class="cls-45" points="839 164.85 851.74 157.5 851.74 147.23 839 154.58 839 164.85"/><polygon class="cls-45" points="815.03 178.69 831.86 168.97 831.86 158.71 815.03 168.42 815.03 178.69"/><polygon class="cls-45" points="780.77 198.47 807.89 182.81 807.89 172.54 780.77 188.2 780.77 198.47"/><polygon class="cls-45" points="812.73 203.47 851.74 180.94 851.74 170.68 812.73 193.2 812.73 203.47"/><polygon class="cls-45" points="769.04 228.69 805.59 207.59 805.59 197.32 769.04 218.43 769.04 228.69"/><polygon class="cls-44" points="750.46 239.41 761.9 232.81 761.9 222.55 750.46 229.15 750.46 239.41"/><polygon class="cls-45" points="732.63 249.71 744.07 243.1 744.07 232.84 732.63 239.44 732.63 249.71"/><polygon class="cls-45" points="828.37 217.89 851.74 204.39 851.74 194.13 828.37 207.62 828.37 217.89"/><polygon class="cls-44" points="730.62 86.73 698.21 105.44 698.21 95.18 730.62 76.47 730.62 86.73"/><polygon class="cls-45" points="723.68 114.19 698.21 128.89 698.21 118.63 723.68 103.92 723.68 114.19"/><polygon class="cls-45" points="716.64 141.7 698.21 152.34 698.21 142.07 716.64 131.44 716.64 141.7"/><polygon class="cls-45" points="725.02 160.31 698.21 175.79 698.21 165.52 725.02 150.05 725.02 160.31"/><polygon class="cls-45" points="716.64 188.6 698.21 199.24 698.21 188.97 716.64 178.33 716.64 188.6"/><polygon class="cls-45" points="721.58 209.19 698.21 222.68 698.21 212.42 721.58 198.93 721.58 209.19"/><polygon class="cls-45" points="710.95 238.78 698.21 246.13 698.21 235.87 710.95 228.51 710.95 238.78"/><polygon class="cls-45" points="722.89 255.33 698.21 269.58 698.21 259.31 722.89 245.07 722.89 255.33"/><polygon class="cls-45" points="721.58 279.54 698.21 293.03 698.21 282.76 721.58 269.27 721.58 279.54"/><polygon class="cls-45" points="811.29 227.75 821.22 222.01 821.22 211.74 811.29 217.48 811.29 227.75"/><polygon class="cls-45" points="781.77 244.79 804.14 231.87 804.14 221.6 781.77 234.52 781.77 244.79"/><polygon class="cls-45" points="623.74 148.04 670.48 121.05 670.48 110.79 623.74 137.77 623.74 148.04"/><polygon class="cls-45" points="599.77 161.88 616.6 152.16 616.6 141.9 599.77 151.61 599.77 161.88"/><polygon class="cls-44" points="581.19 172.6 592.63 166 592.63 155.73 581.19 162.34 581.19 172.6"/><polygon class="cls-45" points="645.01 159.2 670.48 144.5 670.48 134.24 645.01 148.94 645.01 159.2"/><polygon class="cls-45" points="606.66 181.35 637.87 163.33 637.87 153.06 606.66 171.08 606.66 181.35"/><polygon class="cls-44" points="588.08 192.07 599.52 185.47 599.52 175.2 588.08 181.81 588.08 192.07"/><polygon class="cls-45" points="570.41 202.28 581.84 195.68 581.84 185.41 570.41 192.01 570.41 202.28"/><polygon class="cls-45" points="652.05 178.59 670.48 167.95 670.48 157.68 652.05 168.32 652.05 178.59"/><polygon class="cls-45" points="638.62 186.35 644.91 182.71 644.91 172.44 638.62 176.08 638.62 186.35"/><polygon class="cls-45" points="620.04 197.07 631.47 190.47 631.47 180.2 620.04 186.81 620.04 197.07"/><polygon class="cls-45" points="602.47 230.66 670.48 191.4 670.48 181.13 602.47 220.4 602.47 230.66"/><polygon class="cls-45" points="578.5 244.5 595.33 234.79 595.33 224.52 578.5 234.24 578.5 244.5"/><polygon class="cls-45" points="652.05 225.48 670.48 214.84 670.48 204.58 652.05 215.22 652.05 225.48"/><polygon class="cls-45" points="608.81 250.45 644.91 229.61 644.91 219.34 608.81 240.19 608.81 250.45"/><polygon class="cls-45" points="590.23 261.18 601.67 254.57 601.67 244.31 590.23 250.91 590.23 261.18"/><polygon class="cls-44" points="632.78 260.06 670.48 238.29 670.48 228.03 632.78 249.8 632.78 260.06"/><polygon class="cls-45" points="598.37 279.93 625.64 264.18 625.64 253.92 598.37 269.66 598.37 279.93"/><polygon class="cls-45" points="572.8 294.69 591.23 284.05 591.23 273.78 572.8 284.42 572.8 294.69"/><polygon class="cls-45" points="657.75 269.09 670.48 261.74 670.48 251.48 657.75 258.83 657.75 269.09"/><polygon class="cls-45" points="633.78 282.93 650.61 273.22 650.61 262.95 633.78 272.67 633.78 282.93"/><polygon class="cls-44" points="599.52 302.71 626.63 287.06 626.63 276.79 599.52 292.45 599.52 302.71"/><polygon class="cls-45" points="631.47 307.71 670.48 285.19 670.48 274.93 631.47 297.45 631.47 307.71"/><polygon class="cls-45" points="587.78 332.93 624.33 311.83 624.33 301.57 587.78 322.67 587.78 332.93"/><polygon class="cls-45" points="569.21 343.66 580.64 337.06 580.64 326.79 569.21 333.39 569.21 343.66"/><polygon class="cls-45" points="551.38 353.95 562.82 347.35 562.82 337.08 551.38 343.69 551.38 353.95"/><polygon class="cls-45" points="647.11 322.13 670.48 308.64 670.48 298.37 647.11 311.87 647.11 322.13"/><polygon class="cls-44" points="549.37 190.97 516.96 209.69 516.96 199.42 549.37 180.71 549.37 190.97"/><polygon class="cls-45" points="542.43 218.43 516.96 233.13 516.96 222.87 542.43 208.17 542.43 218.43"/><polygon class="cls-45" points="535.39 245.94 516.96 256.58 516.96 246.32 535.39 235.68 535.39 245.94"/><polygon class="cls-45" points="543.76 264.56 516.96 280.03 516.96 269.77 543.76 254.29 543.76 264.56"/><polygon class="cls-45" points="535.39 292.84 516.96 303.48 516.96 293.21 535.39 282.58 535.39 292.84"/><polygon class="cls-45" points="540.33 313.44 516.96 326.93 516.96 316.66 540.33 303.17 540.33 313.44"/><polygon class="cls-45" points="529.69 343.02 516.96 350.38 516.96 340.11 529.69 332.76 529.69 343.02"/><polygon class="cls-45" points="541.63 359.58 516.96 373.82 516.96 363.56 541.63 349.31 541.63 359.58"/><polygon class="cls-45" points="540.33 383.78 516.96 397.27 516.96 387.01 540.33 373.52 540.33 383.78"/><polygon class="cls-44" points="630.03 331.99 639.97 326.25 639.97 315.99 630.03 321.73 630.03 331.99"/><polygon class="cls-45" points="600.52 349.03 622.89 336.11 622.89 325.85 600.52 338.77 600.52 349.03"/><polygon class="cls-45" points="804.99 254.96 851.74 227.98 851.74 217.71 804.99 244.7 804.99 254.96"/><polygon class="cls-45" points="781.02 268.8 797.85 259.09 797.85 248.82 781.02 258.54 781.02 268.8"/><polygon class="cls-45" points="762.45 279.53 773.88 272.93 773.88 262.66 762.45 269.26 762.45 279.53"/><polygon class="cls-45" points="826.27 266.13 851.74 251.43 851.74 241.16 826.27 255.87 826.27 266.13"/><polygon class="cls-45" points="787.91 288.27 819.13 270.25 819.13 259.99 787.91 278.01 787.91 288.27"/><polygon class="cls-45" points="769.34 299 780.77 292.39 780.77 282.13 769.34 288.73 769.34 299"/><polygon class="cls-45" points="751.66 309.2 763.1 302.6 763.1 292.34 751.66 298.94 751.66 309.2"/><polygon class="cls-45" points="833.31 285.51 851.74 274.87 851.74 264.61 833.31 275.25 833.31 285.51"/><polygon class="cls-45" points="819.87 293.27 826.17 289.64 826.17 279.37 819.87 283.01 819.87 293.27"/><polygon class="cls-45" points="801.29 304 812.73 297.39 812.73 287.13 801.29 293.73 801.29 304"/><polygon class="cls-45" points="783.72 337.59 851.74 298.32 851.74 288.06 783.72 327.33 783.72 337.59"/><polygon class="cls-45" points="759.75 351.43 776.58 341.71 776.58 331.45 759.75 341.17 759.75 351.43"/><polygon class="cls-45" points="833.31 332.41 851.74 321.77 851.74 311.51 833.31 322.14 833.31 332.41"/><polygon class="cls-45" points="790.06 357.38 826.17 336.53 826.17 326.27 790.06 347.11 790.06 357.38"/><polygon class="cls-45" points="771.49 368.1 782.92 361.5 782.92 351.24 771.49 357.84 771.49 368.1"/><polygon class="cls-45" points="814.03 366.99 851.74 345.22 851.74 334.95 814.03 356.72 814.03 366.99"/><polygon class="cls-45" points="779.63 386.85 806.89 371.11 806.89 360.85 779.63 376.59 779.63 386.85"/><polygon class="cls-45" points="754.06 401.61 772.49 390.98 772.49 380.71 754.06 391.35 754.06 401.61"/><polygon class="cls-45" points="839 376.02 851.74 368.67 851.74 358.4 839 365.75 839 376.02"/><polygon class="cls-45" points="815.03 389.86 831.86 380.14 831.86 369.88 815.03 379.59 815.03 389.86"/><polygon class="cls-45" points="780.77 409.64 807.89 393.98 807.89 383.72 780.77 399.37 780.77 409.64"/><polygon class="cls-45" points="812.73 414.64 851.74 392.12 851.74 381.85 812.73 404.37 812.73 414.64"/><polygon class="cls-45" points="769.04 439.86 805.59 418.76 805.59 408.5 769.04 429.6 769.04 439.86"/><polygon class="cls-45" points="750.46 450.59 761.9 443.98 761.9 433.72 750.46 440.32 750.46 450.59"/><polygon class="cls-45" points="732.63 460.88 744.07 454.28 744.07 444.01 732.63 450.61 732.63 460.88"/><polygon class="cls-45" points="828.37 429.06 851.74 415.56 851.74 405.3 828.37 418.79 828.37 429.06"/><polygon class="cls-45" points="730.62 297.9 698.21 316.61 698.21 306.35 730.62 287.64 730.62 297.9"/><polygon class="cls-45" points="723.68 325.36 698.21 340.06 698.21 329.8 723.68 315.09 723.68 325.36"/><polygon class="cls-45" points="716.64 352.87 698.21 363.51 698.21 353.25 716.64 342.61 716.64 352.87"/><polygon class="cls-45" points="725.02 371.48 698.21 386.96 698.21 376.69 725.02 361.22 725.02 371.48"/><polygon class="cls-45" points="716.64 399.77 698.21 410.41 698.21 400.14 716.64 389.5 716.64 399.77"/><polygon class="cls-45" points="721.58 420.36 698.21 433.86 698.21 423.59 721.58 410.1 721.58 420.36"/><polygon class="cls-45" points="710.95 449.95 698.21 457.3 698.21 447.04 710.95 439.69 710.95 449.95"/><polygon class="cls-45" points="722.89 466.5 698.21 480.75 698.21 470.49 722.89 456.24 722.89 466.5"/><polygon class="cls-45" points="721.58 490.71 698.21 504.2 698.21 493.94 721.58 480.44 721.58 490.71"/><polygon class="cls-45" points="811.29 438.92 821.22 433.18 821.22 422.92 811.29 428.65 811.29 438.92"/><polygon class="cls-45" points="781.77 455.96 804.14 443.04 804.14 432.78 781.77 445.69 781.77 455.96"/><polygon class="cls-45" points="763.27 534.83 801.02 513.04 801.02 502.77 763.27 524.57 763.27 534.83"/><polygon class="cls-45" points="737.41 549.76 752.28 541.18 752.28 530.91 737.41 539.5 737.41 549.76"/><polygon class="cls-45" points="623.74 359.21 670.48 332.22 670.48 321.96 623.74 348.94 623.74 359.21"/><polygon class="cls-45" points="599.77 373.05 616.6 363.33 616.6 353.07 599.77 362.78 599.77 373.05"/><polygon class="cls-45" points="581.19 383.77 592.63 377.17 592.63 366.91 581.19 373.51 581.19 383.77"/><polygon class="cls-45" points="645.01 370.38 670.48 355.67 670.48 345.41 645.01 360.11 645.01 370.38"/><polygon class="cls-45" points="606.66 392.52 637.87 374.5 637.87 364.23 606.66 382.25 606.66 392.52"/><polygon class="cls-45" points="588.08 403.24 599.52 396.64 599.52 386.38 588.08 392.98 588.08 403.24"/><polygon class="cls-45" points="570.41 413.45 581.84 406.85 581.84 396.58 570.41 403.18 570.41 413.45"/><polygon class="cls-45" points="652.05 389.76 670.48 379.12 670.48 368.85 652.05 379.49 652.05 389.76"/><polygon class="cls-45" points="638.62 397.52 644.91 393.88 644.91 383.62 638.62 387.25 638.62 397.52"/><polygon class="cls-45" points="620.04 408.24 631.47 401.64 631.47 391.38 620.04 397.98 620.04 408.24"/><polygon class="cls-45" points="602.47 441.84 670.48 402.57 670.48 392.3 602.47 431.57 602.47 441.84"/><polygon class="cls-45" points="578.5 455.68 595.33 445.96 595.33 435.69 578.5 445.41 578.5 455.68"/><polygon class="cls-45" points="652.05 436.65 670.48 426.02 670.48 415.75 652.05 426.39 652.05 436.65"/><polygon class="cls-45" points="608.81 461.62 644.91 440.78 644.91 430.51 608.81 451.36 608.81 461.62"/><polygon class="cls-45" points="590.23 472.35 601.67 465.75 601.67 455.48 590.23 462.08 590.23 472.35"/><polygon class="cls-45" points="632.78 471.23 670.48 449.46 670.48 439.2 632.78 460.97 632.78 471.23"/><polygon class="cls-45" points="598.37 491.1 625.64 475.36 625.64 465.09 598.37 480.83 598.37 491.1"/><polygon class="cls-45" points="572.8 505.86 591.23 495.22 591.23 484.95 572.8 495.59 572.8 505.86"/><polygon class="cls-45" points="657.75 480.26 670.48 472.91 670.48 462.65 657.75 470 657.75 480.26"/><polygon class="cls-45" points="633.78 494.1 650.61 484.39 650.61 474.12 633.78 483.84 633.78 494.1"/><polygon class="cls-45" points="599.52 513.88 626.63 498.23 626.63 487.96 599.52 503.62 599.52 513.88"/><polygon class="cls-45" points="631.47 518.88 670.48 496.36 670.48 486.1 631.47 508.62 631.47 518.88"/><polygon class="cls-45" points="587.78 544.11 624.33 523 624.33 512.74 587.78 533.84 587.78 544.11"/><polygon class="cls-45" points="569.21 554.83 580.64 548.23 580.64 537.96 569.21 544.57 569.21 554.83"/><polygon class="cls-45" points="551.38 565.12 562.82 558.52 562.82 548.26 551.38 554.86 551.38 565.12"/><polygon class="cls-45" points="647.11 533.3 670.48 519.81 670.48 509.55 647.11 523.04 647.11 533.3"/><polygon class="cls-45" points="549.37 402.15 516.96 420.86 516.96 410.59 549.37 391.88 549.37 402.15"/><polygon class="cls-45" points="542.43 429.6 516.96 444.31 516.96 434.04 542.43 419.34 542.43 429.6"/><polygon class="cls-45" points="535.39 457.12 516.96 467.75 516.96 457.49 535.39 446.85 535.39 457.12"/><polygon class="cls-45" points="543.76 475.73 516.96 491.2 516.96 480.94 543.76 465.46 543.76 475.73"/><polygon class="cls-45" points="535.39 504.01 516.96 514.65 516.96 504.39 535.39 493.75 535.39 504.01"/><polygon class="cls-45" points="540.33 524.61 516.96 538.1 516.96 527.84 540.33 514.34 540.33 524.61"/><polygon class="cls-45" points="529.69 554.2 516.96 561.55 516.96 551.28 529.69 543.93 529.69 554.2"/><polygon class="cls-45" points="541.63 570.75 516.96 585 516.96 574.73 541.63 560.49 541.63 570.75"/><polygon class="cls-45" points="540.33 594.95 516.96 608.45 516.96 598.18 540.33 584.69 540.33 594.95"/><polygon class="cls-45" points="630.03 543.16 639.97 537.42 639.97 527.16 630.03 532.9 630.03 543.16"/><polygon class="cls-45" points="600.52 560.2 622.89 547.29 622.89 537.02 600.52 549.94 600.52 560.2"/><polygon class="cls-45" points="582.01 639.08 619.76 617.28 619.76 607.02 582.01 628.81 582.01 639.08"/><polygon class="cls-45" points="556.16 654.01 571.02 645.42 571.02 635.16 556.16 643.74 556.16 654.01"/></svg>