<svg xmlns="http://www.w3.org/2000/svg" width="460" height="287" viewBox="0 0 460 287">
    <g fill="none" fill-rule="evenodd">
        <g fill-rule="nonzero">
            <g transform="translate(-202 -2887) translate(202 2887)">
                <path fill="#2E6B7D" d="M86.504-59.897H334.9c6.103 0 11.05 4.947 11.05 11.05v399.304c0 6.103-4.947 11.05-11.05 11.05H86.504c-6.102 0-11.05-4.947-11.05-11.05V-48.847c0-6.103 4.948-11.05 11.05-11.05z" style="mix-blend-mode:multiply" transform="rotate(90 210.702 150.805)"/>
                <path fill="#363B42" d="M8.276 0.01H429.664V41.315999999999995H8.276z"/>
                <path fill="#21252B" d="M8.276 0.01H429.664V15.535H8.276z"/>
                <circle cx="402.314" cy="7.456" r="2.418" fill="#4E5865"/>
                <circle cx="411.984" cy="7.456" r="2.418" fill="#4E5865"/>
                <circle cx="421.65" cy="7.456" r="2.418" fill="#4E5865"/>
                <path fill="#21252B" d="M369.987 21.664H99.197c-3.132 0-5.67 2.539-5.67 5.67 0 3.13 2.54 5.667 5.67 5.667h270.79c3.13 0 5.67-2.537 5.67-5.667 0-3.131-2.538-5.67-5.67-5.67z"/>
                <path fill="#6A737C" d="M413.51 23.603h-13.255c-.537 0-.972-.435-.972-.973 0-.537.435-.972.972-.972h13.255c.538 0 .973.435.973.972 0 .258-.102.506-.285.688-.182.182-.43.285-.688.285zM413.51 27.555h-13.255c-.537 0-.972-.436-.972-.973 0-.537.435-.972.972-.972h13.255c.538 0 .973.435.973.972 0 .258-.102.505-.285.688-.182.182-.43.285-.688.285zM413.51 31.497h-13.255c-.537 0-.972-.436-.972-.973 0-.537.435-.972.972-.972h13.255c.538 0 .973.435.973.972 0 .258-.102.505-.285.688-.182.182-.43.285-.688.285z"/>
                <path fill="#21252B" d="M8.276 56.493H429.664V276.745H8.276z"/>
                <path fill="#363B42" d="M8.276 40.729H429.664V56.492999999999995H8.276z"/>
                <path fill="#21252B" d="M94.824 40.622h25.57c2.013 0 3.644 1.631 3.644 3.644v12.227H91.18V44.266c0-2.013 1.631-3.644 3.644-3.644z"/>
                <rect width="26.037" height="2.684" x="28.731" y="47.268" fill="#6A737C" rx="1.342"/>
                <path fill="#6A737C" d="M86.69 47.268H63.35c-.742 0-1.342.6-1.342 1.342 0 .74.6 1.342 1.342 1.342h23.34c.741 0 1.342-.601 1.342-1.342 0-.742-.6-1.342-1.342-1.342zM119.295 47.268h-23.34c-.742 0-1.344.6-1.345 1.342 0 .356.141.698.394.95.252.252.594.393.95.392h23.341c.741 0 1.342-.601 1.342-1.342-.001-.74-.601-1.34-1.342-1.342z"/>
                <rect width="26.037" height="2.684" x="126.171" y="47.268" fill="#6A737C" rx="1.342"/>
                <rect width="26.037" height="2.684" x="161.94" y="47.268" fill="#6A737C" rx="1.342"/>
                <rect width="26.037" height="2.684" x="197.709" y="47.268" fill="#6A737C" rx="1.342"/>
                <path fill="#6A737C" d="M393.107 27.555c-.002 3.136-2.546 5.678-5.683 5.676-3.136-.002-5.678-2.546-5.676-5.683.002-3.137 2.546-5.678 5.683-5.676 1.51-.013 2.963.581 4.03 1.65 1.068 1.069 1.661 2.522 1.646 4.033z"/>
                <circle cx="387.431" cy="26.582" r="2.185" fill="#4E5865"/>
                <path fill="#4E5865" d="M391.73 31.257c-1.077 1.255-2.648 1.978-4.302 1.978-1.654 0-3.226-.723-4.302-1.978.641-1.395 1.918-2.393 3.426-2.678.58-.112 1.177-.112 1.757 0 1.508.284 2.783 1.283 3.42 2.678z"/>
                <path fill="#363B42" d="M26.183 0h83.9c3.888 0 7.04 3.152 7.04 7.041v8.487h-97.98V7.05c-.003-1.87.737-3.663 2.058-4.985C22.521.743 24.314 0 26.183 0z"/>
                <path fill="#2E6B7D" d="M38.252 13.875c-2.905 0-5.261-2.356-5.261-5.262 0-2.906 2.355-5.263 5.261-5.264 2.908 0 5.265 2.357 5.265 5.264-.002 2.907-2.358 5.262-5.265 5.262z"/>
                <path fill="#4E5865" d="M100.247 10.276H51.099c-.919 0-1.664-.744-1.666-1.663 0-.92.746-1.666 1.666-1.666h49.148c.919.002 1.663.747 1.663 1.666 0 .441-.175.864-.487 1.176-.312.312-.735.487-1.176.487z"/>
                <path fill="#6A737C" d="M17.586 26.838H27.229999999999997V27.94H17.586z"/>
                <path fill="#6A737C" d="M20.812 31.309L16.889 27.389 20.812 23.47 21.59 24.248 18.449 27.389 21.59 30.531zM32.187 26.838H41.830999999999996V27.94H32.187z"/>
                <path fill="#6A737C" d="M38.609 31.309L37.831 30.531 40.969 27.389 37.831 24.248 38.609 23.47 42.528 27.389zM50.14 26.025L49.653 24.141 47.618 24.666 47.345 23.596 50.448 22.799 51.206 25.749z"/>
                <path fill="#6A737C" d="M52.535 32.605c-2.116.001-3.995-1.352-4.664-3.36-.67-2.007.021-4.217 1.714-5.486l.649.881c-.965.717-1.532 1.849-1.527 3.05.002 1.817 1.284 3.38 3.065 3.735 1.78.356 3.565-.594 4.265-2.27.7-1.675.12-3.612-1.385-4.628l.616-.911c1.792 1.208 2.584 3.445 1.952 5.512-.632 2.067-2.54 3.478-4.7 3.477h.015zM73.801 32.417h-10.05V24.78l5.032-3.297 5.028 3.297-.01 7.637zm-9.025-1.034h7.99v-6.042l-3.993-2.62-3.997 2.62v6.042z"/>
                <path fill="#6A737C" d="M67.619 27.999H69.736V31.909H67.619z"/>
                <path fill="#545454" d="M423.42 276.707L422.779 276.707 422.779 269.627 429.664 269.627 429.664 270.272 423.42 270.272zM429.664 151.204L422.779 151.204 422.779 56.493 423.42 56.493 423.42 150.562 429.664 150.562z"/>
                <path fill="#545454" d="M423.1 62.747H429.66400000000004V63.747H423.1z"/>
                <path fill="#6A737C" d="M424.717 60.562L426.633 58.646 428.552 60.562zM428.552 273.005L426.633 274.921 424.717 273.005zM29.717 170.391H33.863V174.53699999999998H29.717zM29.717 179.29H33.863V183.43599999999998H29.717zM29.717 188.188H33.863V192.33399999999997H29.717zM29.717 197.087H33.863V201.23299999999998H29.717zM29.717 205.989H33.863V210.135H29.717zM29.717 214.887H33.863V219.033H29.717zM29.717 223.786H33.863V227.932H29.717zM29.717 232.687H33.863V236.833H29.717zM29.717 241.586H33.863V245.732H29.717zM29.717 250.484H33.863V254.63H29.717z"/>
                <path fill="#FFF" d="M84.346 170.391H128.414V174.53699999999998H84.346z"/>
                <path fill="#00C3FF" d="M84.346 178.333H158.873V182.47899999999998H84.346z"/>
                <path fill="#2E6B7D" d="M126.158 188.188H135.831V192.33399999999997H126.158zM133.066 197.087H147.576V201.23299999999998H133.066zM133.066 205.989H147.576V210.135H133.066zM125.121 214.887H139.631V219.033H125.121z"/>
                <path fill="#00C3FF" d="M84.505 214.887H122.524V219.033H84.505z"/>
                <path fill="#2E6B7D" d="M133.066 223.786H138.71V227.932H133.066zM207.227 205.989H221.737V210.135H207.227z"/>
                <path fill="#FFF" d="M150.568 205.989H156.80800000000002V210.135H150.568zM159.01 205.989H204.618V210.135H159.01z"/>
                <path fill="#52ABB1" d="M149.878 197.087H158.16699999999997V201.23299999999998H149.878z"/>
                <path fill="#61CBC1" d="M188.344 197.087H196.63299999999998V201.23299999999998H188.344z"/>
                <path fill="#FFF" d="M160.241 197.087H185.925V201.23299999999998H160.241zM141.589 223.786H159.098V227.932H141.589z"/>
                <path fill="#61CBC1" d="M189.268 223.786H202.167V227.932H189.268z"/>
                <path fill="#52ABB1" d="M161.169 223.786H186.853V227.932H161.169z"/>
                <path fill="#61CBC1" d="M187.893 178.333H193.997V182.47899999999998H187.893z"/>
                <path fill="#52ABB1" d="M161.752 178.333H184.78400000000002V182.47899999999998H161.752z"/>
                <path fill="#2E6B7D" d="M133.066 232.687H142.739V236.833H133.066z"/>
                <path fill="#61CBC1" d="M167.15 232.687H182.47V236.833H167.15z"/>
                <path fill="#52ABB1" d="M145.618 232.687H164.041V236.833H145.618z"/>
                <path fill="#FFF" d="M149.647 170.391H163.927V174.53699999999998H149.647zM133.066 242.539H152.409V246.68499999999997H133.066z"/>
                <path fill="#2E6B7D" d="M133.066 250.484H161.172V254.63H133.066z"/>
                <path fill="#61CBC1" d="M185.585 250.484H214.731V254.63H185.585z"/>
                <path fill="#52ABB1" d="M164.054 250.484H182.477V254.63H164.054z"/>
                <path fill="#FFF" d="M156.556 242.539H166.229V246.68499999999997H156.556z"/>
                <path fill="#6A737C" d="M29.717 71.694H33.863V75.84H29.717zM29.717 80.596H33.863V84.742H29.717zM29.717 89.494H33.863V93.64H29.717zM29.717 98.393H33.863V102.539H29.717zM29.717 107.291H33.863V111.437H29.717zM29.717 116.193H33.863V120.339H29.717zM29.717 125.091H33.863V129.237H29.717zM29.717 133.99H33.863V138.136H29.717zM29.717 142.892H33.863V147.03799999999998H29.717zM29.717 151.79H33.863V155.93599999999998H29.717z"/>
                <path fill="#FFF" d="M57.122 71.694H77.791V75.84H57.122z"/>
                <path fill="#00C3FF" d="M57.122 79.639H92.074V83.785H57.122z"/>
                <path fill="#2E6B7D" d="M57.122 89.494H67.457V93.64H57.122zM64.504 98.393H80.006V102.539H64.504zM64.504 107.291H80.006V111.437H64.504zM56.014 116.193H71.516V120.339H56.014zM64.504 125.091H70.534V129.237H64.504zM193.683 107.291H224.606V111.437H193.683z"/>
                <path fill="#FFF" d="M83.202 107.291H98.704V111.437H83.202zM108.753 107.291H188.12V111.437H108.753z"/>
                <path fill="#52ABB1" d="M82.463 98.393H91.31899999999999V102.539H82.463z"/>
                <path fill="#61CBC1" d="M153.434 98.393H171.105V102.539H153.434z"/>
                <path fill="#6A737C" d="M174.417 98.393H252.17000000000002V102.539H174.417zM255.83 98.393H405.64300000000003V102.539H255.83z"/>
                <path fill="#FFF" d="M93.537 98.393H148.28V102.539H93.537z"/>
                <path fill="#52ABB1" d="M73.606 125.091H92.31099999999999V129.237H73.606z"/>
                <path fill="#61CBC1" d="M124.55 125.091H138.331V129.237H124.55z"/>
                <path fill="#6A737C" d="M239.476 133.99H331.81V138.136H239.476zM120.906 133.99H172.696V138.136H120.906zM175.043 133.99H233.744V138.136H175.043z"/>
                <path fill="#FFF" d="M94.525 125.091H121.96600000000001V129.237H94.525z"/>
                <path fill="#61CBC1" d="M152.474 79.639H165.483V83.785H152.474z"/>
                <path fill="#52ABB1" d="M96.756 79.639H145.849V83.785H96.756z"/>
                <path fill="#2E6B7D" d="M64.504 133.99H74.839V138.136H64.504z"/>
                <path fill="#61CBC1" d="M100.918 133.99H117.28500000000001V138.136H100.918z"/>
                <path fill="#52ABB1" d="M77.911 133.99H97.595V138.136H77.911z"/>
                <path fill="#FFF" d="M82.216 71.694H97.475V75.84H82.216zM64.504 143.845H85.173V147.99099999999999H64.504z"/>
                <path fill="#2E6B7D" d="M64.504 151.79H94.53200000000001V155.93599999999998H64.504z"/>
                <path fill="#61CBC1" d="M120.611 151.79H151.751V155.93599999999998H120.611z"/>
                <path fill="#52ABB1" d="M97.608 151.79H117.292V155.93599999999998H97.608z"/>
                <path fill="#FFF" d="M89.598 143.845H99.93299999999999V147.99099999999999H89.598z"/>
                <path fill="#016D7F" d="M333.41 183.352l-.106 10.947 9.057.087-.087 9.058 3.776.035-.048 4.905-3.018-.029-.046 4.538 8.302.081.03-3.018 5.663.056-.03 3.018 5.285.051.045-4.907-3.397-.033.048-4.905 3.4-.346.095-9.813 61.794.233c2.396 8.822 10.978 14.486 20.031 13.221 9.054-1.265 15.754-9.065 15.64-18.206-.115-9.14-7.008-16.77-16.09-17.809-9.082-1.039-17.52 4.838-19.695 13.717l-90.648-.881zm116.683 13.767c-4.732 4.63-12.32 4.55-16.954-.18-4.634-4.728-4.56-12.316.165-16.954 4.725-4.637 12.313-4.57 16.955.15 4.643 4.737 4.57 12.34-.166 16.984z"/>
                <path fill="#1CADB2" d="M412.402 242.805l.107-10.947-9.058-.085.088-9.06-3.777-.036.049-4.905 3.018.03.045-4.539-8.302-.081-.029 3.018-5.663-.052.03-3.021-5.285-.049-.045 4.905 3.397.032-.049 4.908-3.4.344-.094 9.813-61.794-.234c-2.396-8.822-10.978-14.486-20.031-13.22-9.054 1.265-15.754 9.064-15.64 18.205.114 9.141 7.008 16.77 16.09 17.81 9.082 1.038 17.52-4.839 19.695-13.718l90.648.882zM295.719 229.02c4.733-4.63 12.321-4.55 16.955.18 4.633 4.728 4.56 12.317-.165 16.954-4.725 4.638-12.313 4.57-16.955-.15-4.644-4.736-4.57-12.34.165-16.984z"/>
            </g>
        </g>
    </g>
</svg>
