<svg xmlns="http://www.w3.org/2000/svg" width="460" height="333" viewBox="0 0 460 333">
    <defs>
        <linearGradient id="0sz1grfzka" x1=".022%" x2="100.017%" y1="49.997%" y2="49.997%">
            <stop offset="0%" stop-color="#5B687B"/>
            <stop offset="100%" stop-color="#4E5866"/>
        </linearGradient>
        <linearGradient id="vkkj181pjb" x1="0%" x2="100%" y1="50%" y2="50%">
            <stop offset="0%" stop-color="#5B687B"/>
            <stop offset="100%" stop-color="#4E5866"/>
        </linearGradient>
    </defs>
    <g fill="none" fill-rule="evenodd">
        <g fill-rule="nonzero">
            <g transform="translate(-202 -3941) translate(202 3941)">
                <path fill="#2E6B7D" d="M88.303-21.046H342.54c6.102 0 11.05 4.947 11.05 11.05V398.41c0 6.102-4.948 11.05-11.05 11.05H88.303c-6.103 0-11.05-4.948-11.05-11.05V-9.996c0-6.103 4.947-11.05 11.05-11.05z" style="mix-blend-mode:multiply" transform="rotate(90 215.422 194.207)"/>
                <path fill="#13171D" d="M96.536-37.217h254.238c6.102 0 11.05 4.947 11.05 11.05v408.405c0 6.103-4.948 11.05-11.05 11.05H96.536c-6.103 0-11.05-4.947-11.05-11.05V-26.167c0-6.103 4.947-11.05 11.05-11.05z" transform="rotate(90 223.655 178.036)"/>
                <path fill="#202A33" d="M38.433 185.355H211.332V215.667H38.433z"/>
                <path fill="#52ABB1" d="M120.259 197.588H53.153c-.673 0-1.218-.546-1.218-1.219s.545-1.218 1.218-1.218h67.106c.673 0 1.219.545 1.219 1.218 0 .673-.546 1.219-1.219 1.219zM82.74 205.874H53.153c-.673 0-1.218-.546-1.218-1.219s.545-1.218 1.218-1.218H82.74c.673 0 1.22.545 1.22 1.218 0 .673-.547 1.219-1.22 1.219z"/>
                <path fill="#FFF" d="M137.07 204.467c-.795.023-1.563-.288-2.117-.858-.801-.802-.771-1.871-.771-3.017s-.03-2.212.771-3.017c.555-.57 1.322-.88 2.116-.855 1.448 0 2.613.802 2.892 2.48h-1.905c-.067-.48-.488-.83-.973-.81-.285-.012-.558.11-.739.33-.172.226-.288.49-.288 1.882 0 1.39.116 1.656.288 1.884.18.22.454.343.739.331.485.019.906-.333.973-.814h1.905c-.279 1.669-1.444 2.464-2.892 2.464zM145.501 203.728c-1.038.985-2.665.985-3.702 0-.48-.523-.633-1.07-.633-2.206s.152-1.679.633-2.202c1.037-.985 2.664-.985 3.702 0 .48.523.63 1.08.63 2.202 0 1.123-.15 1.683-.63 2.206zm-1.38-3.401c-.277-.217-.665-.217-.941 0-.226.222-.259.63-.259 1.195 0 .567.033.974.259 1.2.276.216.664.216.94 0 .225-.226.258-.63.258-1.2s-.033-.973-.258-1.195zM150.956 204.4v-3.444c.032-.273-.095-.54-.328-.686-.232-.147-.527-.147-.76 0-.232.147-.359.413-.327.686v3.444h-1.752v-5.756h1.713v.474c.357-.341.83-.533 1.324-.536.481-.019.948.16 1.295.493.425.441.637 1.046.58 1.656v3.67h-1.745zM156.4 200.218v4.182h-1.742v-4.182h-.523v-1.348h.523v-.497c-.014-.47.173-.925.515-1.249.341-.324.804-.488 1.273-.45h.928v1.477h-.61c-.094-.006-.187.03-.254.096-.068.068-.103.16-.097.255v.374h.96v1.348l-.973-.006zm1.732-2.16v-1.324h1.755v1.324h-1.755zm0 6.342v-5.53h1.755v5.53h-1.755zM164.805 204.4v-.47c-.34.366-.825.563-1.325.537-.517.013-1.02-.176-1.4-.527-.567-.566-.537-1.57-.537-2.418 0-.847-.03-1.848.537-2.417.377-.35.876-.538 1.39-.523.476-.028.942.146 1.282.48v-2.279h1.755v7.617h-1.702zm-.778-4.235c-.662 0-.729.523-.729 1.357 0 .835.077 1.362.729 1.362s.725-.527.725-1.362c0-.834-.073-1.357-.725-1.357zM169.832 202.092c.006.257.12.5.313.67.193.171.448.253.704.227.45.035.89-.143 1.189-.48l1.047 1.047c-.57.626-1.391.961-2.236.91-1.272 0-2.739-.46-2.739-2.944 0-1.88 1.07-2.94 2.58-2.94 1.656 0 2.587 1.218 2.587 2.728v.782h-3.445zm1.617-1.616c-.132-.296-.436-.477-.759-.45-.323-.025-.628.155-.762.45-.065.14-.098.293-.096.447h1.716c.003-.155-.031-.308-.1-.447zM178.049 204.4v-3.444c.026-.268-.103-.528-.332-.67-.229-.143-.519-.143-.748 0-.229.142-.357.402-.331.67v3.444h-1.755v-5.756h1.712v.474c.357-.34.83-.533 1.325-.536.48-.019.948.16 1.295.493.425.441.636 1.046.58 1.656v3.67h-1.746zM183.526 204.4c-.469.038-.932-.125-1.273-.45-.342-.324-.529-.778-.515-1.249v-2.483h-.523v-1.348h.523v-1.656h1.755v1.656h.911v1.348h-.91v2.354c-.008.096.027.19.095.258s.163.104.259.097h.556v1.473h-.878zM186.027 198.058v-1.324h1.748v1.324h-1.748zm0 6.342v-5.53h1.748v5.53h-1.748zM192.435 204.4v-.47c-.324.362-.797.555-1.282.523-.51.02-1.007-.165-1.38-.513-.341-.364-.522-.85-.504-1.348 0-.864.59-1.656 1.957-1.656h1.166v-.149c0-.523-.255-.715-.864-.715-.351-.029-.695.114-.921.384l-1.093-1.09c.59-.589 1.123-.771 2.096-.771 1.656 0 2.537.685 2.537 2.086v3.72h-1.712zm-.043-2.318h-.888c-.33 0-.556.192-.556.457s.192.484.58.484c.251.037.506-.043.692-.216.138-.158.2-.368.172-.576v-.149zM197.644 204.4c-.468.037-.93-.127-1.271-.451-.34-.324-.527-.778-.514-1.248v-5.918h1.752v5.79c-.007.095.028.19.096.257.068.068.163.104.259.097h.609v1.473h-.93z"/>
                <path fill="#202A33" d="M236.988 185.355H409.887V215.667H236.988z"/>
                <path fill="#52ABB1" d="M318.81 197.588h-67.118c-.673 0-1.219-.546-1.219-1.219s.546-1.218 1.219-1.218h67.106c.673 0 1.218.545 1.218 1.218 0 .673-.545 1.219-1.218 1.219h.013zM281.292 205.874h-29.6c-.673 0-1.219-.546-1.219-1.219s.546-1.218 1.219-1.218h29.587c.673 0 1.219.545 1.219 1.218 0 .673-.546 1.219-1.22 1.219h.014z"/>
                <path fill="#FFF" d="M335.624 204.467c-.795.023-1.564-.288-2.119-.858-.801-.802-.768-1.871-.768-3.017s-.033-2.212.768-3.017c.556-.57 1.324-.88 2.12-.855 1.443 0 2.61.802 2.887 2.48h-1.904c-.068-.48-.489-.83-.974-.81-.284-.012-.558.11-.738.33-.172.226-.288.49-.288 1.882 0 1.39.116 1.656.288 1.884.18.22.454.343.738.331.486.019.906-.333.974-.814h1.904c-.278 1.669-1.444 2.464-2.888 2.464zM344.053 203.728c-1.038.985-2.665.985-3.703 0-.48-.523-.629-1.07-.629-2.206s.15-1.679.63-2.202c1.037-.985 2.664-.985 3.702 0 .48.523.63 1.08.63 2.202 0 1.123-.15 1.683-.63 2.206zm-1.381-3.401c-.276-.217-.665-.217-.94 0-.226.222-.259.63-.259 1.195 0 .567.033.974.258 1.2.276.216.665.216.94 0 .226-.226.26-.63.26-1.2s-.034-.973-.26-1.195zM349.507 204.4v-3.444c.026-.268-.102-.528-.331-.67-.23-.143-.52-.143-.748 0-.23.142-.358.402-.332.67v3.444h-1.755v-5.756h1.722v.474c.357-.341.831-.533 1.325-.536.48-.019.948.16 1.295.493.425.441.637 1.046.58 1.656v3.67h-1.756zM354.952 200.218v4.182h-1.755v-4.182h-.524v-1.348h.524v-.497c-.014-.47.173-.925.514-1.249.342-.324.805-.488 1.274-.45h.93v1.477h-.609c-.095-.007-.189.028-.257.095s-.103.16-.097.256v.374h.963v1.348l-.963-.006zm1.732-2.16v-1.324h1.755v1.324h-1.755zm0 6.342v-5.53h1.755v5.53h-1.755zM363.36 204.4v-.47c-.341.365-.826.56-1.324.537-.518.013-1.02-.176-1.401-.527-.567-.566-.537-1.57-.537-2.418 0-.847-.03-1.848.537-2.417.377-.35.876-.538 1.39-.523.476-.028.942.146 1.282.48v-2.279h1.755v7.617h-1.702zm-.781-4.235c-.663 0-.729.523-.729 1.357 0 .835.076 1.362.729 1.362.652 0 .725-.527.725-1.362 0-.834-.073-1.357-.725-1.357zM368.387 202.092c.006.257.118.5.31.67.193.171.448.253.704.227.45.036.89-.142 1.189-.48l1.05 1.047c-.57.626-1.394.961-2.24.91-1.27 0-2.735-.46-2.735-2.944 0-1.88 1.07-2.94 2.577-2.94 1.656 0 2.59 1.218 2.59 2.728v.782h-3.445zm1.613-1.616c-.151-.277-.442-.45-.758-.45s-.607.173-.758.45c-.068.14-.1.292-.097.447h1.71c.003-.155-.03-.308-.097-.447zM376.6 204.4v-3.444c.027-.268-.102-.528-.33-.67-.23-.143-.52-.143-.749 0-.229.142-.357.402-.331.67v3.444h-1.755v-5.756h1.712v.474c.357-.34.83-.532 1.324-.536.48-.018.946.16 1.292.493.425.441.637 1.046.58 1.656v3.67H376.6zM382.078 204.4c-.469.038-.932-.125-1.273-.45-.342-.324-.529-.778-.515-1.249v-2.483h-.523v-1.348h.523v-1.656h1.755v1.656h.91v1.348h-.91v2.354c-.007.096.028.19.096.258s.162.104.258.097h.557v1.473h-.878zM384.582 198.058v-1.324h1.752v1.324h-1.752zm0 6.342v-5.53h1.752v5.53h-1.752zM390.987 204.4v-.47c-.324.363-.797.556-1.282.523-.51.02-1.007-.165-1.38-.513-.341-.364-.522-.85-.504-1.348 0-.864.59-1.656 1.957-1.656h1.166v-.149c0-.523-.255-.715-.865-.715-.35-.029-.694.114-.92.384l-1.093-1.09c.59-.589 1.126-.771 2.1-.771 1.655 0 2.533.685 2.533 2.086v3.72h-1.712zm-.043-2.318h-.888c-.331 0-.556.192-.556.457s.192.484.58.484c.252.037.507-.043.695-.216.135-.16.197-.369.169-.576v-.149zM396.196 204.4c-.469.037-.93-.127-1.271-.451-.34-.324-.528-.778-.514-1.248v-5.918h1.755v5.79c-.007.095.028.188.095.256.068.068.161.104.256.098h.61v1.473h-.93z"/>
                <path fill="#202A33" d="M38.433 223.708H211.332V254.02H38.433z"/>
                <path fill="#52ABB1" d="M120.259 235.945H53.153c-.649-.034-1.158-.57-1.158-1.22 0-.651.509-1.187 1.158-1.221h67.106c.451-.024.879.204 1.111.59.233.388.233.872 0 1.26-.232.387-.66.614-1.111.59zM82.74 244.23H53.153c-.649-.033-1.158-.57-1.158-1.22s.509-1.186 1.158-1.22H82.74c.65.034 1.159.57 1.159 1.22s-.51 1.187-1.159 1.22z"/>
                <path fill="#FFF" d="M137.07 242.82c-.795.024-1.562-.286-2.117-.855-.801-.804-.771-1.874-.771-3.017 0-1.142-.03-2.215.771-3.017.555-.569 1.322-.879 2.116-.854 1.448 0 2.613.801 2.892 2.48h-1.905c-.067-.48-.488-.833-.973-.814-.285-.012-.558.11-.739.33-.172.226-.288.494-.288 1.885s.116 1.656.288 1.881c.18.22.454.343.739.331.485.02.906-.33.973-.81h1.905c-.279 1.658-1.444 2.46-2.892 2.46zM145.501 242.088c-1.038.985-2.665.985-3.702 0-.48-.523-.633-1.07-.633-2.202 0-1.133.152-1.68.633-2.206 1.04-.98 2.662-.98 3.702 0 .48.526.63 1.083.63 2.206 0 1.122-.15 1.672-.63 2.202zm-1.38-3.401c-.279-.212-.664-.212-.941 0-.226.225-.259.632-.259 1.199 0 .566.033.973.259 1.198.277.212.662.212.94 0 .225-.225.258-.632.258-1.198 0-.567-.033-.98-.258-1.206v.007zM150.956 242.75v-3.444c.032-.273-.095-.54-.328-.686-.232-.147-.527-.147-.76 0-.232.146-.359.413-.327.686v3.444h-1.752v-5.749h1.713v.47c.357-.34.83-.531 1.324-.533.48-.019.948.158 1.295.49.425.442.636 1.046.58 1.656v3.666h-1.745zM156.4 238.574v4.176h-1.742v-4.176h-.523v-1.348h.523v-.503c-.015-.471.172-.926.513-1.251.342-.325.806-.49 1.275-.451h.928v1.477h-.61c-.095-.006-.188.03-.256.097-.067.068-.102.162-.095.257v.374h.96v1.348h-.973zm1.732-2.162v-1.325h1.755v1.325h-1.755zm0 6.345v-5.53h1.755v5.523l-1.755.007zM164.805 242.75v-.463c-.342.363-.826.558-1.325.533-.517.014-1.02-.173-1.4-.524-.567-.566-.537-1.573-.537-2.417 0-.845-.03-1.851.537-2.418.377-.35.876-.538 1.39-.523.477-.029.942.146 1.282.48v-2.285h1.755v7.617h-1.702zm-.778-4.236c-.662 0-.729.524-.729 1.358 0 .835.077 1.358.729 1.358s.725-.523.725-1.358c0-.834-.073-1.35-.725-1.35v-.008zM169.832 240.432c.006.257.12.5.313.67.193.171.448.253.704.227.45.036.89-.142 1.189-.48l1.047 1.05c-.57.625-1.392.958-2.236.907-1.272 0-2.739-.46-2.739-2.94 0-1.885 1.07-2.941 2.58-2.941 1.656 0 2.587 1.219 2.587 2.725v.782h-3.445zm1.617-1.616c-.133-.295-.437-.474-.759-.447-.323-.027-.627.152-.762.447-.065.14-.098.295-.096.45h1.716c0-.151-.033-.3-.1-.437v-.013zM178.049 242.75v-3.444c.026-.268-.103-.528-.332-.67-.229-.143-.519-.143-.748 0-.229.142-.357.402-.331.67v3.444h-1.755v-5.749h1.712v.47c.358-.34.831-.53 1.325-.533.48-.02.948.157 1.295.49.424.442.635 1.046.58 1.656v3.666h-1.746zM183.526 242.75c-.47.038-.933-.126-1.275-.45-.34-.326-.528-.78-.513-1.252v-2.48h-.523v-1.348h.523v-1.656h1.755v1.656h.911v1.347h-.91v2.352c-.008.096.027.19.095.258s.163.103.259.096h.556v1.477h-.878zM186.027 236.412v-1.325h1.748v1.325h-1.748zm0 6.345v-5.53h1.748v5.523l-1.748.007zM192.435 242.75v-.463c-.325.36-.797.553-1.282.523-.51.02-1.007-.165-1.38-.514-.34-.364-.521-.85-.504-1.347 0-.868.59-1.656 1.957-1.656h1.166v-.15c0-.526-.255-.718-.864-.718-.352-.027-.695.117-.921.388l-1.093-1.093c.59-.59 1.123-.769 2.096-.769 1.656 0 2.537.683 2.537 2.083v3.716h-1.712zm-.043-2.318h-.888c-.33 0-.556.192-.556.46 0 .269.192.48.58.48.25.038.505-.04.692-.211.137-.16.2-.371.172-.58v-.149zM197.644 242.75c-.469.037-.932-.127-1.272-.452-.341-.325-.527-.78-.513-1.25v-5.915h1.752v5.786c-.007.096.028.19.096.258s.163.103.259.096h.609v1.477h-.93z"/>
                <path fill="#202A33" d="M236.988 223.708H409.887V254.02H236.988z"/>
                <path fill="#52ABB1" d="M318.81 235.945h-67.118c-.65-.034-1.159-.57-1.159-1.22 0-.651.51-1.187 1.159-1.221h67.106c.45-.024.878.204 1.11.59.233.388.233.872 0 1.26-.232.387-.66.614-1.11.59h.013zM281.292 244.23h-29.6c-.65-.033-1.159-.57-1.159-1.22s.51-1.186 1.159-1.22h29.587c.65.034 1.158.57 1.158 1.22s-.509 1.187-1.158 1.22h.013z"/>
                <path fill="#FFF" d="M335.624 242.82c-.795.025-1.563-.285-2.119-.855-.801-.804-.768-1.874-.768-3.017 0-1.142-.033-2.215.768-3.017.556-.569 1.324-.879 2.12-.854 1.443 0 2.61.801 2.887 2.48h-1.904c-.068-.48-.488-.833-.974-.814-.284-.012-.558.11-.738.33-.172.226-.288.494-.288 1.885s.116 1.656.288 1.881c.18.22.454.343.738.331.485.02.906-.33.974-.81h1.904c-.278 1.658-1.444 2.46-2.888 2.46zM344.053 242.088c-1.038.985-2.665.985-3.703 0-.48-.523-.629-1.07-.629-2.202 0-1.133.15-1.68.63-2.206 1.039-.98 2.662-.98 3.702 0 .48.526.63 1.083.63 2.206 0 1.122-.15 1.672-.63 2.202zm-1.381-3.401c-.278-.212-.663-.212-.94 0-.226.225-.259.632-.259 1.199 0 .566.033.973.258 1.198.278.212.663.212.94 0 .226-.225.26-.632.26-1.198 0-.567-.034-.98-.26-1.206v.007zM349.507 242.75v-3.444c.026-.268-.102-.528-.331-.67-.23-.143-.52-.143-.748 0-.23.142-.358.402-.332.67v3.444h-1.755v-5.749h1.722v.47c.358-.34.832-.531 1.325-.533.48-.02.948.157 1.295.49.424.442.636 1.046.58 1.656v3.666h-1.756zM354.952 238.574v4.176h-1.755v-4.176h-.524v-1.348h.524v-.503c-.015-.471.172-.926.513-1.251.341-.325.805-.49 1.275-.451h.93v1.477h-.609c-.096-.007-.19.028-.258.096s-.103.162-.096.258v.374h.963v1.348h-.963zm1.732-2.162v-1.325h1.755v1.325h-1.755zm0 6.345v-5.53h1.755v5.523l-1.755.007zM363.36 242.75v-.463c-.343.362-.826.556-1.324.533-.518.014-1.02-.173-1.401-.524-.567-.566-.537-1.573-.537-2.417 0-.845-.03-1.851.537-2.418.377-.35.876-.538 1.39-.523.477-.03.943.145 1.282.48v-2.285h1.755v7.617h-1.702zm-.781-4.236c-.663 0-.729.524-.729 1.358 0 .835.076 1.358.729 1.358.652 0 .725-.523.725-1.358 0-.834-.073-1.35-.725-1.35v-.008zM368.387 240.432c.006.257.118.5.31.67.193.171.448.253.704.227.45.037.89-.141 1.189-.48l1.05 1.05c-.572.624-1.394.957-2.24.907-1.27 0-2.735-.46-2.735-2.94 0-1.885 1.07-2.941 2.577-2.941 1.656 0 2.59 1.219 2.59 2.725v.782h-3.445zm1.613-1.616c-.153-.276-.443-.446-.758-.446s-.605.17-.758.446c-.067.14-.1.295-.097.45h1.71c.001-.15-.032-.3-.097-.437v-.013zM376.6 242.75v-3.444c.027-.268-.102-.528-.33-.67-.23-.143-.52-.143-.749 0-.229.142-.357.402-.331.67v3.444h-1.755v-5.749h1.712v.47c.357-.34.831-.53 1.324-.533.48-.02.946.158 1.292.49.424.442.636 1.046.58 1.656v3.666H376.6zM382.078 242.75c-.47.038-.933-.126-1.275-.45-.341-.326-.528-.78-.513-1.252v-2.48h-.523v-1.348h.523v-1.656h1.755v1.656h.91v1.347h-.91v2.352c-.007.096.028.19.096.258s.162.103.258.096h.557v1.477h-.878zM384.582 236.412v-1.325h1.752v1.325h-1.752zm0 6.345v-5.53h1.752v5.523l-1.752.007zM390.987 242.75v-.463c-.325.361-.797.554-1.282.523-.51.02-1.007-.165-1.38-.514-.34-.364-.522-.85-.504-1.347 0-.868.59-1.656 1.957-1.656h1.166v-.15c0-.526-.255-.718-.865-.718-.351-.027-.694.117-.92.388l-1.093-1.093c.59-.59 1.126-.769 2.1-.769 1.655 0 2.533.683 2.533 2.083v3.716h-1.712zm-.043-2.318h-.888c-.331 0-.556.192-.556.46 0 .269.192.48.58.48.251.038.507-.04.695-.211.135-.162.196-.372.169-.58v-.149zM396.196 242.75c-.47.037-.932-.127-1.273-.452-.34-.325-.527-.78-.512-1.25v-5.915h1.755v5.786c-.007.095.028.189.095.257.068.068.161.103.256.097h.61v1.477h-.93z"/>
                <path fill="#202A33" d="M38.433 262.177H211.332V292.48900000000003H38.433z"/>
                <path fill="#52ABB1" d="M120.259 274.414H53.153c-.649-.034-1.158-.57-1.158-1.22s.509-1.187 1.158-1.221h67.106c.451-.024.879.204 1.111.591.233.387.233.871 0 1.259-.232.387-.66.614-1.111.59zM82.74 282.696H53.153c-.673 0-1.218-.545-1.218-1.218 0-.673.545-1.22 1.218-1.22H82.74c.673 0 1.22.547 1.22 1.22 0 .673-.547 1.218-1.22 1.218z"/>
                <path fill="#FFF" d="M137.07 281.289c-.795.025-1.564-.287-2.117-.858-.801-.801-.771-1.871-.771-3.014 0-1.142-.03-2.215.771-3.017.554-.57 1.322-.881 2.116-.857 1.448 0 2.613.804 2.892 2.483h-1.905c-.066-.481-.487-.834-.973-.814-.285-.012-.558.11-.739.331-.172.225-.288.493-.288 1.884s.116 1.656.288 1.881c.18.22.454.343.739.332.485.02.906-.331.973-.812h1.905c-.279 1.676-1.444 2.46-2.892 2.46zM145.501 280.55c-1.038.985-2.665.985-3.702 0-.48-.523-.633-1.07-.633-2.202 0-1.133.152-1.682.633-2.206 1.037-.985 2.664-.985 3.702 0 .48.524.63 1.08.63 2.206s-.15 1.68-.63 2.202zm-1.38-3.4c-.277-.217-.665-.217-.941 0-.226.224-.259.628-.259 1.198s.033.974.259 1.196c.276.216.664.216.94 0 .225-.222.258-.63.258-1.196s-.033-.974-.258-1.199zM150.956 281.226v-3.448c.032-.272-.095-.54-.328-.686-.232-.146-.527-.146-.76 0-.232.147-.359.414-.327.686v3.448h-1.752v-5.756h1.713v.47c.357-.341.83-.533 1.324-.536.481-.018.948.16 1.295.493.425.442.637 1.046.58 1.656v3.683l-1.745-.01zM156.4 277.043v4.183h-1.742v-4.183h-.523v-1.348h.523v-.49c-.015-.47.172-.926.513-1.25.342-.326.806-.49 1.275-.452h.928v1.477h-.61c-.095-.006-.188.03-.256.097-.067.068-.102.162-.095.257v.375h.96v1.347l-.973-.013zm1.732-2.162v-1.325h1.755v1.325h-1.755zm0 6.345v-5.53h1.755v5.53h-1.755zM164.805 281.226v-.474c-.34.366-.825.563-1.325.537-.517.014-1.02-.173-1.4-.523-.567-.57-.537-1.573-.537-2.418 0-.844-.03-1.851.537-2.418.375-.352.876-.542 1.39-.526.477-.028.943.148 1.282.483v-2.278h1.755v7.617h-1.702zm-.778-4.24c-.662 0-.729.527-.729 1.362 0 .835.077 1.358.729 1.358s.725-.523.725-1.358c0-.835-.073-1.361-.725-1.361zM169.832 278.914c.006.258.12.5.313.671.193.17.448.253.704.227.45.034.89-.143 1.189-.48l1.047 1.046c-.57.627-1.391.962-2.236.91-1.272 0-2.739-.46-2.739-2.94 0-1.884 1.07-2.944 2.58-2.944 1.656 0 2.587 1.222 2.587 2.729v.781h-3.445zm1.617-1.616c-.132-.296-.436-.477-.759-.45-.323-.025-.628.155-.762.45-.065.141-.098.295-.096.45h1.716c.003-.155-.031-.31-.1-.45zM178.049 281.226v-3.448c.026-.268-.103-.528-.332-.67-.229-.142-.519-.142-.748 0-.229.142-.357.402-.331.67v3.448h-1.755v-5.756h1.712v.47c.357-.34.83-.532 1.325-.536.48-.019.948.16 1.295.493.425.442.636 1.046.58 1.656v3.683l-1.746-.01zM183.526 281.226c-.47.038-.933-.126-1.275-.451-.34-.325-.528-.78-.513-1.251v-2.48h-.523v-1.349h.523v-1.656h1.755v1.656h.911v1.348h-.91v2.352c-.008.095.027.19.095.258s.163.103.259.096h.556v1.477h-.878zM186.027 274.874v-1.325h1.748v1.325h-1.748zm0 6.345v-5.53h1.748v5.53h-1.748zM192.435 281.226v-.474c-.324.363-.796.558-1.282.527-.51.02-1.007-.165-1.38-.513-.34-.365-.521-.85-.504-1.348 0-.868.59-1.656 1.957-1.656h1.166v-.15c0-.526-.255-.718-.864-.718-.351-.029-.695.115-.921.384l-1.093-1.09c.59-.589 1.123-.77 2.096-.77 1.656 0 2.537.685 2.537 2.086v3.735l-1.712-.013zm-.043-2.318h-.888c-.33 0-.556.192-.556.46s.192.48.58.48c.251.037.506-.042.692-.215.138-.158.2-.368.172-.576v-.15zM197.644 281.226c-.469.037-.932-.128-1.272-.453-.341-.324-.527-.779-.513-1.25v-5.914h1.752v5.786c-.007.095.028.19.096.258s.163.103.259.096h.609v1.477h-.93z"/>
                <path fill="#202A33" d="M236.988 262.177H409.887V292.48900000000003H236.988z"/>
                <path fill="#52ABB1" d="M318.81 274.414h-67.118c-.65-.034-1.159-.57-1.159-1.22s.51-1.187 1.159-1.221h67.106c.45-.024.878.204 1.11.591.233.387.233.871 0 1.259-.232.387-.66.614-1.11.59h.013zM281.292 282.696h-29.6c-.673 0-1.219-.545-1.219-1.218 0-.673.546-1.22 1.219-1.22h29.587c.673 0 1.219.547 1.219 1.22 0 .673-.546 1.218-1.22 1.218h.014z"/>
                <path fill="#FFF" d="M335.624 281.289c-.795.025-1.565-.286-2.119-.858-.801-.801-.768-1.871-.768-3.014 0-1.142-.033-2.215.768-3.017.555-.57 1.324-.88 2.12-.857 1.443 0 2.61.804 2.887 2.483h-1.904c-.066-.481-.488-.834-.974-.814-.284-.012-.558.11-.738.331-.172.225-.288.493-.288 1.884s.116 1.656.288 1.881c.18.22.454.343.738.332.485.02.906-.331.974-.812h1.904c-.278 1.676-1.444 2.46-2.888 2.46zM344.053 280.55c-1.038.985-2.665.985-3.703 0-.48-.523-.629-1.07-.629-2.202 0-1.133.15-1.682.63-2.206 1.037-.985 2.664-.985 3.702 0 .48.524.63 1.08.63 2.206s-.15 1.68-.63 2.202zm-1.381-3.4c-.276-.217-.665-.217-.94 0-.226.224-.259.628-.259 1.198s.033.974.258 1.196c.276.216.665.216.94 0 .226-.222.26-.63.26-1.196s-.034-.974-.26-1.199zM349.507 281.226v-3.448c.026-.268-.102-.528-.331-.67-.23-.142-.52-.142-.748 0-.23.142-.358.402-.332.67v3.448h-1.755v-5.756h1.722v.47c.357-.341.831-.533 1.325-.536.48-.019.948.16 1.295.493.425.442.637 1.046.58 1.656v3.683l-1.756-.01zM354.952 277.043v4.183h-1.755v-4.183h-.524v-1.348h.524v-.49c-.015-.47.172-.926.513-1.25.341-.326.805-.49 1.275-.452h.93v1.477h-.609c-.096-.007-.19.028-.258.096s-.103.162-.096.258v.375h.963v1.347l-.963-.013zm1.722-2.169v-1.325h1.755v1.325h-1.755zm0 6.345v-5.53h1.755v5.53h-1.755zM363.36 281.226v-.474c-.341.365-.826.561-1.324.537-.518.014-1.02-.173-1.401-.523-.567-.57-.537-1.573-.537-2.418 0-.844-.03-1.851.537-2.418.375-.352.876-.542 1.39-.526.477-.028.943.147 1.282.483v-2.278h1.755v7.617h-1.702zm-.781-4.24c-.663 0-.729.527-.729 1.362 0 .835.076 1.358.729 1.358.652 0 .725-.523.725-1.358 0-.835-.073-1.361-.725-1.361zM368.387 278.914c.006.257.118.5.31.671.193.17.448.253.704.227.45.035.89-.143 1.189-.48l1.05 1.046c-.57.627-1.394.961-2.24.91-1.27 0-2.735-.46-2.735-2.94 0-1.884 1.07-2.944 2.577-2.944 1.656 0 2.59 1.222 2.59 2.729v.781h-3.445zm1.613-1.616c-.151-.277-.442-.45-.758-.45s-.607.173-.758.45c-.067.14-.1.295-.097.45h1.71c.003-.155-.03-.31-.097-.45zM376.6 281.226v-3.448c.027-.268-.102-.528-.33-.67-.23-.142-.52-.142-.749 0-.229.142-.357.402-.331.67v3.448h-1.755v-5.756h1.712v.47c.357-.34.83-.532 1.324-.536.48-.018.946.16 1.292.493.425.442.637 1.046.58 1.656v3.683l-1.742-.01zM382.078 281.226c-.47.038-.933-.126-1.275-.451-.341-.325-.528-.78-.513-1.251v-2.48h-.523v-1.349h.523v-1.656h1.755v1.656h.91v1.348h-.91v2.352c-.007.095.028.19.096.258s.162.103.258.096h.557v1.477h-.878zM384.582 274.874v-1.325h1.752v1.325h-1.752zm0 6.345v-5.53h1.752v5.53h-1.752zM390.987 281.226v-.474c-.323.364-.796.559-1.282.527-.51.02-1.007-.165-1.38-.513-.34-.365-.521-.85-.504-1.348 0-.868.59-1.656 1.957-1.656h1.166v-.15c0-.526-.255-.718-.865-.718-.35-.029-.694.115-.92.384l-1.093-1.09c.59-.589 1.126-.77 2.1-.77 1.655 0 2.533.685 2.533 2.086v3.735l-1.712-.013zm-.043-2.318h-.888c-.331 0-.556.192-.556.46s.192.48.58.48c.252.037.507-.042.695-.215.135-.16.197-.369.169-.576v-.15zM396.196 281.226c-.469.032-.93-.136-1.267-.463-.337-.328-.52-.783-.501-1.253v-5.901h1.755v5.786c-.007.095.028.189.095.256.067.068.16.104.256.098h.61v1.477h-.948zM88.754 110.854L88.754 126.717 83.75 126.717 83.75 110.854 78.76 110.854 78.76 106.403 93.722 106.403 93.722 110.854zM104.92 116.219c-.413-.506-1.031-.799-1.683-.798-.63 0-1.885.37-1.885 2.11v9.186h-4.68v-15.35h4.568v1.255c.984-.915 2.279-1.424 3.623-1.424 1.51 0 2.537.371 3.593 1.424l-3.537 3.597zM118.812 126.717v-1.255c-.944.94-1.798 1.397-3.425 1.397-1.36.052-2.683-.44-3.679-1.367-.907-.974-1.39-2.268-1.341-3.597 0-2.318 1.57-4.45 5.22-4.45h3.109v-.398c0-1.398-.682-1.915-2.318-1.915-1.2 0-1.712.289-2.454 1.03l-2.901-2.9c1.57-1.57 2.997-2.054 5.59-2.054 4.394 0 6.762 1.825 6.762 5.56v9.959l-4.563-.01zm-.116-6.17h-2.368c-.91 0-1.484.513-1.484 1.229 0 .715.517 1.281 1.544 1.281.91 0 1.34-.086 1.85-.57.332-.314.458-.797.458-1.54v-.4zM136.526 126.717v-9.187c0-1.768-1.255-2.11-1.88-2.11-.627 0-1.885.332-1.885 2.11v9.187h-4.68v-15.35h4.564v1.255c.964-.911 2.24-1.42 3.567-1.424 1.283-.045 2.53.433 3.454 1.325 1.324 1.325 1.54 2.768 1.54 4.394v9.813l-4.68-.013zM151.217 126.89c-2.318 0-4.563-.117-6.676-2.226l3.023-3.024c1.285 1.282 2.941 1.282 3.74 1.282.681 0 1.986-.199 1.986-.994 0-.427-.202-.884-1.112-.97l-2.368-.229c-2.65-.258-4.451-1.454-4.451-4.45 0-3.395 3.053-5.078 6.107-5.078 2.51 0 4.533.371 6.047 1.882l-2.881 2.88c-.772-.768-2.054-.91-3.253-.91-1.142 0-1.513.54-1.513.884 0 .17-.056.742.993.855l2.368.228c3.223.331 4.62 2.226 4.62 4.68.017 3.62-3.063 5.19-6.63 5.19zM169.273 126.717v-1.255c-.94.94-1.795 1.397-3.421 1.397-1.36.052-2.684-.44-3.68-1.367-.907-.974-1.39-2.268-1.34-3.597 0-2.318 1.566-4.45 5.218-4.45h3.11v-.398c0-1.398-.685-1.915-2.318-1.915-1.196 0-1.712.289-2.454 1.03l-2.901-2.9c1.566-1.57 2.98-2.054 5.59-2.054 4.395 0 6.763 1.825 6.763 5.56v9.959l-4.567-.01zm-.113-6.17h-2.368c-.914 0-1.483.513-1.483 1.229 0 .715.513 1.281 1.54 1.281.914 0 1.34-.086 1.854-.57.331-.314.457-.797.457-1.54v-.4zM184.765 126.89c-2.65 0-6.905-1.143-6.905-7.846s4.252-7.846 6.905-7.846c2.14 0 3.795.712 5.05 1.967l-3.169 3.166c-.596-.6-1.113-.91-1.881-.91-.549-.022-1.08.197-1.454.599-.543.57-.771 1.566-.771 3.024 0 1.457.228 2.454.771 3.023.375.402.905.62 1.454.6.768 0 1.285-.315 1.881-.914l3.17 3.166c-1.256 1.258-2.912 1.97-5.051 1.97zM198.628 126.717c-3.395 0-4.766-2.424-4.766-4.537v-6.6h-1.397v-3.614h1.397v-4.39h4.68v4.39h2.424v3.614h-2.424v6.259c-.032.258.057.515.241.7.184.183.442.272.7.24h1.483v3.938h-2.338zM205.304 109.8v-3.566h4.677v3.567h-4.677zm0 16.917v-14.75h4.677v14.75h-4.677zM225.956 124.919c-.914.97-2.454 1.97-4.934 1.97s-4.024-.993-4.935-1.97c-1.285-1.398-1.685-2.852-1.685-5.875 0-3.024.4-4.481 1.685-5.879.911-.97 2.451-1.967 4.935-1.967 2.484 0 4.02.994 4.934 1.967 1.285 1.398 1.683 2.882 1.683 5.879 0 2.997-.398 4.484-1.683 5.875zm-3.679-9.071c-.74-.57-1.77-.57-2.51 0-.6.6-.686 1.682-.686 3.196 0 1.513.086 2.596.686 3.192.738.575 1.772.575 2.51 0 .6-.596.686-1.682.686-3.192 0-1.51-.083-2.597-.686-3.196zM240.505 126.717v-9.187c0-1.768-1.255-2.11-1.881-2.11-.626 0-1.885.332-1.885 2.11v9.187h-4.68v-15.35h4.568v1.255c.962-.912 2.237-1.421 3.563-1.424 1.284-.045 2.53.433 3.454 1.325 1.325 1.325 1.54 2.768 1.54 4.394v9.813l-4.68-.013z"/>
                <path fill="#6A737C" d="M246.181 151.787h-205.5c-.635.028-1.234-.295-1.56-.841-.325-.546-.325-1.227 0-1.772.326-.546.925-.87 1.56-.841h205.5c.925.04 1.653.801 1.653 1.727 0 .925-.728 1.686-1.653 1.727zM211.335 163.517H40.681c-.635.028-1.234-.295-1.56-.841-.325-.546-.325-1.226 0-1.772.326-.546.925-.869 1.56-.841h170.654c.925.04 1.653.802 1.653 1.727s-.728 1.686-1.653 1.727z"/>
                <g fill="#52ABB1">
                    <path d="M21.93 16.48c-.296-.308-.651-.553-1.043-.723h-.076c.309-.184.586-.416.821-.689.232-.274.41-.59.527-.93.108-.327.163-.67.162-1.014.004-.428-.087-.852-.265-1.241-.199-.415-.504-.77-.884-1.027-.447-.31-.948-.536-1.477-.662-.694-.155-1.403-.227-2.113-.216h-.662V7.68h-1.193v2.298H14.24V7.68h-1.192v2.298H9.604v1.567h1.553v9.117H9.604v1.566h3.444v2.319h1.192v-2.335h1.487v2.318h1.19v-2.318h.864c.77.02 1.538-.077 2.278-.288.562-.16 1.086-.429 1.543-.792.385-.318.684-.726.871-1.189.166-.429.252-.884.252-1.344.004-.383-.06-.764-.185-1.126-.127-.373-.335-.712-.61-.994zm-8.325-4.922h3.858c.42-.01.84.03 1.252.116.225.046.437.143.619.285.127.112.219.26.262.424.064.26.094.527.089.794.016.335-.023.67-.113.994-.076.21-.215.39-.397.52-.246.163-.526.27-.818.311-.331.06-3.431.11-4.305.11h-.43l-.017-3.554zm6.342 8.114c-.056.213-.17.406-.332.556-.2.164-.435.278-.688.331-.416.086-.84.126-1.266.12h-4.037v-3.975h.749c1.043 0 4.083.06 4.421.13.296.046.577.159.821.33.16.135.276.315.332.517.083.312.122.635.115.957.007.353-.035.706-.125 1.047l.01-.013zM3.159 21.778C.792 16.337 2.057 9.998 6.332 5.882l-.397 1.867 1.708.395L8.79 2.9l-5.596-.348-.106 1.749 2.225.139C.054 9.334-1.28 17.14 2.054 23.501c3.335 6.362 10.513 9.706 17.528 8.166l-.374-1.696c-6.62 1.447-13.339-1.983-16.049-8.193zM30.78 9.766C27.566 2.388 19.357-1.437 11.641.848l.497 1.676c6.454-1.908 13.36.984 16.529 6.921 3.169 5.937 1.728 13.285-3.448 17.585l.424-1.91-1.712-.398-1.15 5.223 5.594.33.113-1.748-2.203-.1c5.5-4.522 7.335-12.144 4.494-18.674v.013z" transform="translate(37.754 100.677)"/>
                </g>
                <path fill="#363B42" d="M8.375 39.923H438.864V82.12100000000001H8.375z"/>
                <path fill="#21252B" d="M8.375 39.923H438.864V55.783H8.375z"/>
                <circle cx="410.923" cy="47.53" r="2.471" fill="#4E5865"/>
                <circle cx="420.799" cy="47.53" r="2.471" fill="#4E5865"/>
                <circle cx="430.675" cy="47.53" r="2.471" fill="#4E5865"/>
                <path fill="#21252B" d="M377.899 62.045h-276.64c-3.198 0-5.792 2.594-5.792 5.793 0 3.197 2.595 5.788 5.793 5.788h276.639c3.197 0 5.792-2.59 5.792-5.788 0-3.2-2.593-5.793-5.792-5.793z"/>
                <path fill="#6A737C" d="M422.362 64.026h-13.545c-.549 0-.993-.445-.993-.994 0-.548.444-.993.993-.993h13.545c.549 0 .994.445.994.993 0 .549-.445.994-.994.994zM422.362 68.06h-13.545c-.549 0-.993-.445-.993-.994 0-.549.444-.994.993-.994h13.545c.549 0 .994.445.994.994 0 .549-.445.993-.994.993zM422.362 72.09h-13.545c-.549 0-.993-.445-.993-.994 0-.548.444-.993.993-.993h13.545c.549 0 .994.445.994.993 0 .549-.445.994-.994.994zM401.518 68.056c.003 2.348-1.41 4.466-3.578 5.366-2.168.9-4.665.404-6.326-1.255-1.66-1.66-2.157-4.157-1.258-6.325.898-2.17 3.016-3.583 5.363-3.581 1.54-.01 3.02.598 4.11 1.687 1.089 1.089 1.697 2.568 1.69 4.108z"/>
                <circle cx="395.716" cy="67.069" r="2.232" fill="#4E5865"/>
                <path fill="#4E5865" d="M400.11 71.845c-1.1 1.282-2.704 2.02-4.394 2.02s-3.295-.738-4.395-2.02c.655-1.425 1.96-2.445 3.5-2.736.296-.057.597-.086.898-.086.301 0 .602.03.898.086 1.539.292 2.841 1.311 3.494 2.736z"/>
                <path fill="#363B42" d="M26.67 39.923h85.707c3.973 0 7.193 3.22 7.193 7.193v8.67H19.476v-8.67c0-3.973 3.22-7.193 7.193-7.193z"/>
                <path fill="#2E6B7D" d="M39.009 54.087c-2.97 0-5.377-2.406-5.378-5.375 0-2.97 2.408-5.378 5.378-5.378 2.966.006 5.368 2.412 5.368 5.378-.002 2.965-2.403 5.37-5.368 5.375z"/>
                <path fill="#4E5865" d="M102.333 50.411h-50.21c-.938 0-1.7-.76-1.702-1.699 0-.94.762-1.702 1.702-1.702h50.21c.94 0 1.702.762 1.702 1.702-.002.94-.764 1.7-1.702 1.7z"/>
                <path fill="#6A737C" d="M17.887 67.331H27.739V68.45700000000001H17.887z"/>
                <path fill="#6A737C" d="M21.179 71.898L17.175 67.894 21.179 63.89 21.977 64.685 18.768 67.894 21.977 71.103zM32.803 67.331H42.655V68.45700000000001H32.803z"/>
                <path fill="#6A737C" d="M39.363 71.898L38.565 71.103 41.774 67.894 38.565 64.685 39.363 63.89 43.367 67.894zM51.143 66.5L50.646 64.576 48.567 65.112 48.285 64.019 51.454 63.204 52.233 66.218z"/>
                <path fill="#6A737C" d="M53.59 73.222c-2.161.001-4.08-1.381-4.764-3.432-.684-2.05.021-4.309 1.75-5.605l.663.9c-.985.733-1.563 1.89-1.556 3.117 0 1.856 1.311 3.453 3.131 3.817 1.82.364 3.644-.608 4.358-2.32.714-1.714.12-3.693-1.419-4.73l.633-.93c1.83 1.234 2.64 3.52 1.994 5.631-.646 2.111-2.595 3.553-4.803 3.552h.013zM75.312 73.037H65.046v-7.796l5.136-3.368 5.13 3.368v7.796zm-9.216-1.056h8.16V65.8l-4.08-2.676-4.08 2.676v6.18z"/>
                <path fill="#6A737C" d="M68.997 68.516H71.16V72.51H68.997z"/>
                <path fill="url(#0sz1grfzka)" d="M378.83 38.118c.171-16.24 13.384-29.313 29.625-29.313 16.24 0 29.453 13.074 29.625 29.313v18.96h8.279v-18.96c0-20.942-16.977-37.92-37.92-37.92-20.942 0-37.919 16.978-37.919 37.92v18.96h8.28l.03-18.96z"/>
                <path fill="url(#vkkj181pjb)" d="M356.909 55.892H460V140.023H356.909z"/>
                <path fill="#016D7F" d="M356.909 72.481H460V123.435H356.909z"/>
                <path fill="#000" d="M414.96 89.662c.003-2.927-1.945-5.497-4.764-6.284-2.82-.787-5.817.402-7.331 2.907-1.514 2.505-1.172 5.711.836 7.841v13.91c-.046 1.723.847 3.336 2.333 4.21 1.485.876 3.329.876 4.815 0 1.485-.874 2.379-2.487 2.333-4.21v-13.91c1.14-1.207 1.777-2.804 1.778-4.464z" opacity=".4"/>
            </g>
        </g>
    </g>
</svg>
