<svg xmlns="http://www.w3.org/2000/svg" width="480" height="367" viewBox="0 0 480 367">
    <g fill="none" fill-rule="evenodd">
        <g fill-rule="nonzero">
            <g transform="translate(-758 -3361) translate(758 3361)">
                <rect width="288.006" height="191.398" x="191.88" y=".139" fill="#1E505E" rx="4.52"/>
                <path fill="#143642" d="M195.545 17.153H476.22299999999996V18.528H195.545zM441.828 14.425c-1.679 0-3.193-1.011-3.835-2.563-.642-1.55-.286-3.336.901-4.523 1.188-1.187 2.974-1.541 4.525-.898 1.55.644 2.56 2.158 2.56 3.837-.002 2.291-1.86 4.147-4.15 4.147zm0-6.926c-1.534 0-2.778 1.244-2.778 2.779s1.244 2.779 2.778 2.779c1.535 0 2.779-1.244 2.779-2.779 0-.737-.293-1.444-.814-1.965-.521-.52-1.228-.814-1.965-.814zM454.495 14.425c-1.679 0-3.193-1.011-3.835-2.563-.642-1.55-.286-3.336.901-4.523 1.188-1.187 2.974-1.541 4.525-.898 1.55.644 2.56 2.158 2.56 3.837-.004 2.29-1.86 4.146-4.151 4.147zm0-6.926c-1.535 0-2.779 1.244-2.779 2.779s1.244 2.779 2.779 2.779 2.779-1.244 2.779-2.779c0-.737-.293-1.444-.814-1.965-.521-.52-1.228-.814-1.965-.814zM467.162 14.425c-1.679 0-3.193-1.011-3.835-2.563-.642-1.55-.286-3.336.901-4.523 1.188-1.187 2.974-1.541 4.525-.898 1.55.644 2.56 2.158 2.56 3.837-.004 2.29-1.86 4.146-4.151 4.147zm0-6.926c-1.124 0-2.138.675-2.57 1.713-.43 1.039-.194 2.234.6 3.03.795.795 1.99 1.033 3.03.603 1.038-.43 1.715-1.443 1.715-2.567-.001-1.533-1.242-2.775-2.775-2.779zM469.145 171.09h-69.17V27.39h69.17v143.7zm-67.802-1.376h66.427V28.762h-66.423l-.004 140.952zM387.634 82.376h-85.608V27.39h85.608v54.986zm-84.233-1.362h82.861V28.762h-82.86v52.252zM302.91 91.659H386.95000000000005V93.034H302.91zM302.91 99.07H386.95000000000005V100.445H302.91zM302.91 106.484H386.95000000000005V107.859H302.91zM302.91 113.895H386.95000000000005V115.27H302.91z"/>
                <rect width="213.481" height="141.874" y="224.846" fill="#1E505E" rx="4.52"/>
                <path fill="#143642" d="M2.715 237.456H210.766V238.47299999999998H2.715zM185.274 235.434c-1.7 0-3.077-1.377-3.077-3.076s1.378-3.076 3.077-3.076 3.076 1.377 3.076 3.076c-.002 1.698-1.378 3.075-3.076 3.076zm0-5.132c-.834 0-1.585.502-1.903 1.272-.319.77-.142 1.656.448 2.245.59.588 1.476.764 2.245.444.77-.32 1.27-1.072 1.27-1.905-.003-1.136-.924-2.056-2.06-2.056zM194.661 235.434c-1.699 0-3.076-1.377-3.076-3.076s1.377-3.076 3.076-3.076c1.7 0 3.077 1.377 3.077 3.076-.002 1.698-1.378 3.075-3.077 3.076zm0-5.132c-.833 0-1.584.502-1.903 1.272-.318.77-.141 1.656.448 2.245.59.588 1.476.764 2.246.444s1.27-1.072 1.269-1.905c-.002-1.136-.923-2.056-2.06-2.056zM204.04 235.434c-1.7 0-3.077-1.377-3.077-3.076s1.378-3.076 3.077-3.076 3.076 1.377 3.076 3.076c-.002 1.698-1.378 3.075-3.076 3.076zm0-5.132c-.834 0-1.585.502-1.903 1.272-.319.77-.142 1.656.448 2.245.59.588 1.475.764 2.245.444s1.27-1.072 1.269-1.905c-.002-1.136-.923-2.056-2.06-2.056zM82.322 291.168H18.867v-40.773h63.455v40.773zm-62.438-1.023h61.421v-38.733h-61.42v38.733zM82.322 337.404H18.867v-40.767h63.455v40.767zm-62.438-1.017h61.421v-38.733h-61.42v38.733zM155.415 291.168H91.957v-40.773h63.458v40.773zm-62.44-1.017h61.42v-38.739h-61.42v38.74zM155.415 337.404H91.957v-40.767h63.458v40.767zm-62.44-1.017h61.42v-38.733h-61.42v38.733zM164.626 296.637H201.483V297.654H164.626zM164.626 302.131H201.483V303.14799999999997H164.626zM164.626 307.625H201.483V308.642H164.626zM164.626 313.118H201.483V314.135H164.626z"/>
                <path fill="#2E6B7D" d="M127.181-13.798h242.271c6.103 0 11.05 4.947 11.05 11.05v389.762c0 6.103-4.947 11.05-11.05 11.05h-242.27c-6.103 0-11.05-4.947-11.05-11.05V-2.748c0-6.103 4.947-11.05 11.05-11.05z" style="mix-blend-mode:multiply" transform="rotate(90 248.317 192.133)"/>
                <path fill="#13171D" d="M119.448-29.269h242.27c6.103 0 11.05 4.947 11.05 11.05v389.762c0 6.103-4.947 11.05-11.05 11.05h-242.27c-6.103 0-11.05-4.947-11.05-11.05V-18.219c0-6.103 4.947-11.05 11.05-11.05z" transform="rotate(90 240.583 176.662)"/>
                <path fill="#6A737C" d="M245.779 142.593h-89.518c-.854 0-1.546-.692-1.546-1.546 0-.854.692-1.546 1.546-1.546h89.518c.854 0 1.546.692 1.546 1.546 0 .854-.692 1.546-1.546 1.546z"/>
                <path fill="#4A5056" d="M417.942 125.408H155.523c-.622-.001-1.128-.505-1.128-1.128v-19.526c0-.622.506-1.126 1.128-1.128h262.42c.62.002 1.124.506 1.124 1.128v19.526c0 .622-.503 1.127-1.125 1.128zM155.523 104.26c-.273 0-.494.221-.494.494v19.526c0 .273.221.495.494.495h262.42c.27-.002.49-.223.49-.495v-19.526c0-.272-.22-.492-.49-.494h-262.42z"/>
                <path fill="#4A5056" d="M164.752 118.359c.256.039.515.059.774.06.86 0 1.706-.231 2.449-.669l2.436 3.353.773-.564-2.436-3.352c1.861-1.661 2.17-4.459.716-6.486-1.288-1.804-3.63-2.513-5.702-1.727-2.072.786-3.354 2.87-3.122 5.074.233 2.204 1.922 3.975 4.112 4.31zm-3.104-5.44c.289-1.842 1.837-3.223 3.7-3.302 1.862-.079 3.521 1.167 3.965 2.978.444 1.81-.45 3.682-2.139 4.474-1.687.791-3.699.283-4.807-1.216-.62-.844-.876-1.9-.71-2.934h-.01z"/>
                <path fill="#202A33" d="M154.712 152.247H418.75V195.346H154.712z"/>
                <path fill="#52ABB1" d="M319.797 169.641h-95.41c-.93-.04-1.663-.804-1.663-1.734 0-.93.733-1.695 1.663-1.735h95.41c.93.04 1.662.804 1.662 1.735 0 .93-.733 1.694-1.662 1.734z"/>
                <path fill="#FFF" d="M266.455 181.421h-42.068c-.963 0-1.743-.78-1.743-1.743 0-.962.78-1.742 1.743-1.742h42.068c.963 0 1.743.78 1.743 1.742 0 .963-.78 1.743-1.743 1.743zM394.18 168.301h-41.328c-.568 0-1.03-.461-1.03-1.03 0-.568.462-1.03 1.03-1.03h41.328c.568 0 1.03.462 1.03 1.03 0 .569-.462 1.03-1.03 1.03zM394.18 175.3h-41.328c-.568 0-1.03-.461-1.03-1.03s.462-1.03 1.03-1.03h41.328c.568 0 1.03.461 1.03 1.03s-.462 1.03-1.03 1.03zM373.39 182.299h-20.538c-.568 0-1.03-.461-1.03-1.03s.462-1.03 1.03-1.03h20.537c.569 0 1.03.461 1.03 1.03s-.461 1.03-1.03 1.03z"/>
                <path fill="#6A737C" d="M206.067 181.421v1.616c-3.3 1.904-7.364 1.904-10.664 0v-1.616c0-2.945 2.387-5.332 5.332-5.332s5.332 2.387 5.332 5.332zm-5.332-13.712c-.925-.002-1.76.555-2.116 1.41-.355.854-.16 1.839.494 2.493.654.655 1.638.852 2.494.498.855-.354 1.412-1.188 1.412-2.114 0-1.262-1.022-2.286-2.284-2.287zm10.665 6.095c-.002 3.148-1.393 6.134-3.802 8.159v-.542c0-3.787-3.07-6.856-6.857-6.856-3.786 0-6.856 3.07-6.856 6.856v.542c-3.786-3.178-4.892-8.542-2.672-12.959s7.185-6.728 11.995-5.585c4.81 1.143 8.203 5.442 8.198 10.385h-.006zm-6.857-3.802c0-2.1-1.702-3.802-3.802-3.802s-3.802 1.703-3.802 3.802c0 2.1 1.703 3.802 3.802 3.802 1.01 0 1.978-.401 2.691-1.115.713-.715 1.113-1.684 1.111-2.693v.006z"/>
                <path fill="#00B45A" d="M172.325 175.636L168.577 171.884 166.964 173.557 172.328 178.88 180.854 170.351 179.232 168.729z"/>
                <path fill="#6A737C" d="M211.374 173.804c.002 4.304-2.59 8.185-6.567 9.833-3.976 1.647-8.553.736-11.596-2.308-3.043-3.043-3.952-7.62-2.304-11.597 1.649-3.975 5.53-6.566 9.834-6.564 2.827-.02 5.544 1.094 7.543 3.093 1.998 2 3.112 4.717 3.09 7.543z"/>
                <circle cx="200.735" cy="171.989" r="4.09" fill="#4E5865"/>
                <path fill="#4E5865" d="M208.792 180.75c-2.018 2.349-4.961 3.7-8.059 3.7-3.097 0-6.04-1.351-8.058-3.7 1.2-2.614 3.593-4.484 6.419-5.016.543-.105 1.094-.158 1.647-.159 3.462.011 6.603 2.03 8.051 5.174z"/>
                <path fill="#202A33" d="M154.712 202.211H418.75V245.31H154.712z"/>
                <path fill="#52ABB1" d="M319.797 219.606h-95.41c-.963 0-1.743-.78-1.743-1.743 0-.962.78-1.743 1.743-1.743h95.41c.963 0 1.743.78 1.743 1.743 0 .962-.78 1.743-1.743 1.743z"/>
                <path fill="#FFF" d="M266.455 231.385h-42.068c-.93-.04-1.663-.804-1.663-1.734 0-.93.733-1.695 1.663-1.735h42.068c.93.04 1.663.805 1.663 1.735s-.733 1.695-1.663 1.734zM394.18 218.265h-41.328c-.568 0-1.03-.46-1.03-1.03 0-.568.462-1.03 1.03-1.03h41.328c.568 0 1.03.462 1.03 1.03 0 .57-.462 1.03-1.03 1.03zM394.18 225.267h-41.328c-.568 0-1.03-.46-1.03-1.03 0-.568.462-1.03 1.03-1.03h41.328c.568 0 1.03.462 1.03 1.03 0 .57-.462 1.03-1.03 1.03zM373.39 232.263h-20.538c-.568 0-1.03-.461-1.03-1.03 0-.568.462-1.03 1.03-1.03h20.537c.569 0 1.03.462 1.03 1.03 0 .569-.461 1.03-1.03 1.03z"/>
                <path fill="#6A737C" d="M206.067 231.385v1.616c-3.3 1.905-7.364 1.905-10.664 0v-1.616c0-2.945 2.387-5.332 5.332-5.332s5.332 2.387 5.332 5.332zm-5.332-13.722c-.925 0-1.76.556-2.116 1.41-.355.855-.16 1.84.494 2.494.654.655 1.638.851 2.494.498.855-.354 1.412-1.189 1.412-2.114 0-1.262-1.022-2.286-2.284-2.288zm10.665 6.096c-.002 3.147-1.393 6.133-3.802 8.159v-.542c0-3.787-3.07-6.856-6.857-6.856-3.786 0-6.856 3.07-6.856 6.856v.545c-3.786-3.178-4.892-8.542-2.672-12.959s7.185-6.728 11.995-5.585c4.81 1.143 8.203 5.442 8.198 10.385l-.006-.003zm-6.857-3.802c0-2.1-1.702-3.802-3.802-3.802s-3.802 1.702-3.802 3.802 1.703 3.802 3.802 3.802 3.8-1.7 3.802-3.799v-.003z"/>
                <path fill="#00B45A" d="M172.325 225.6L168.577 221.849 166.964 223.522 172.328 228.841 180.854 220.318 179.232 218.693z"/>
                <path fill="#6A737C" d="M211.377 223.769c0 4.304-2.595 8.184-6.573 9.83-3.978 1.646-8.555.734-11.598-2.312-3.042-3.045-3.95-7.623-2.301-11.6 1.65-3.975 5.532-6.566 9.836-6.564 2.828-.017 5.545 1.1 7.543 3.1 1.999 2 3.113 4.718 3.093 7.546z"/>
                <circle cx="200.738" cy="221.953" r="4.09" fill="#4E5865"/>
                <path fill="#4E5865" d="M208.792 230.714c-2.018 2.35-4.961 3.701-8.059 3.701-3.097 0-6.04-1.352-8.058-3.701 1.2-2.614 3.593-4.483 6.419-5.016 4-.75 7.999 1.317 9.698 5.016z"/>
                <path fill="#202A33" d="M154.712 252.201H418.75V295.3H154.712z"/>
                <path fill="#52ABB1" d="M319.797 269.595h-95.41c-.93-.04-1.663-.804-1.663-1.734 0-.93.733-1.695 1.663-1.735h95.41c.93.04 1.662.805 1.662 1.735s-.733 1.695-1.662 1.734z"/>
                <path fill="#FFF" d="M266.455 281.375h-42.068c-.963 0-1.743-.78-1.743-1.743 0-.962.78-1.742 1.743-1.742h42.068c.963 0 1.743.78 1.743 1.742 0 .963-.78 1.743-1.743 1.743zM394.18 268.255h-41.328c-.568 0-1.03-.461-1.03-1.03 0-.568.462-1.03 1.03-1.03h41.328c.568 0 1.03.462 1.03 1.03 0 .569-.462 1.03-1.03 1.03zM394.18 275.254h-41.328c-.568 0-1.03-.461-1.03-1.03s.462-1.03 1.03-1.03h41.328c.568 0 1.03.461 1.03 1.03s-.462 1.03-1.03 1.03zM373.39 282.253h-20.538c-.568 0-1.03-.461-1.03-1.03s.462-1.03 1.03-1.03h20.537c.569 0 1.03.461 1.03 1.03s-.461 1.03-1.03 1.03z"/>
                <path fill="#6A737C" d="M206.067 281.375v1.616c-3.3 1.904-7.364 1.904-10.664 0v-1.616c0-2.945 2.387-5.332 5.332-5.332s5.332 2.387 5.332 5.332zm-5.332-13.712c-.925-.002-1.76.555-2.116 1.41-.355.854-.16 1.839.494 2.494.654.654 1.638.85 2.494.497.855-.354 1.412-1.188 1.412-2.114 0-1.262-1.022-2.286-2.284-2.287zm10.665 6.095c-.002 3.148-1.393 6.134-3.802 8.159v-.542c0-3.787-3.07-6.856-6.857-6.856-3.786 0-6.856 3.07-6.856 6.856v.542c-3.786-3.178-4.892-8.542-2.672-12.959s7.185-6.728 11.995-5.585c4.81 1.143 8.203 5.442 8.198 10.385h-.006zm-6.857-3.802c0-2.1-1.702-3.802-3.802-3.802s-3.802 1.703-3.802 3.802c0 2.1 1.703 3.802 3.802 3.802 1.011 0 1.98-.402 2.694-1.119.714-.716 1.113-1.687 1.108-2.698v.015z"/>
                <path fill="#00B45A" d="M172.325 275.59L168.577 271.838 166.964 273.511 172.328 278.834 180.854 270.308 179.232 268.683z"/>
                <path fill="#6A737C" d="M211.374 273.743c-.003 5.875-4.77 10.636-10.645 10.632-5.876-.003-10.637-4.77-10.633-10.645.003-5.876 4.77-10.636 10.645-10.633 2.83-.022 5.549 1.093 7.548 3.094 2 2.002 3.11 4.723 3.085 7.552z"/>
                <circle cx="200.735" cy="271.937" r="4.09" fill="#4E5865"/>
                <path fill="#4E5865" d="M208.792 280.694c-2.018 2.35-4.961 3.701-8.059 3.701-3.097 0-6.04-1.352-8.058-3.701 1.2-2.614 3.593-4.483 6.419-5.016.543-.104 1.094-.157 1.647-.158 3.462.01 6.603 2.03 8.051 5.174z"/>
                <rect width="91.488" height="233.448" x="34.649" y="75.197" fill="#202A33" rx="11.08"/>
                <path fill="#6A737C" d="M57.134 172.255H66.157V181.278H57.134zM103.92 177.571H76.04c-.57.026-1.108-.263-1.4-.752-.293-.49-.293-1.1 0-1.59.292-.49.83-.779 1.4-.753h27.88c.57-.026 1.108.263 1.4.753.293.49.293 1.1 0 1.59-.292.489-.83.778-1.4.752zM57.134 189.488H66.157V198.511H57.134zM103.92 195.539H76.04c-.854 0-1.547-.692-1.547-1.546 0-.854.693-1.546 1.547-1.546h27.88c.855 0 1.547.692 1.547 1.546 0 .854-.692 1.546-1.546 1.546zM57.134 207.449H66.157V216.472H57.134zM103.92 213.51H76.04c-.57.025-1.108-.264-1.4-.753-.293-.49-.293-1.1 0-1.59.292-.49.83-.779 1.4-.753h27.88c.57-.026 1.108.264 1.4.753.293.49.293 1.1 0 1.59-.292.49-.83.778-1.4.753zM57.134 278.612H105.473V284.185H57.134z"/>
                <path fill="#FFF" d="M80.637 132.081L70.093 113.559 75.365 104.117 86.01 104.117 91.111 113.834z"/>
                <path fill="#016D7F" d="M67.653 118.178L78.194 136.7 72.922 146.139 62.276 146.139 57.179 136.425z"/>
                <path fill="#1CADB2" d="M93.564 118.178L104.108 136.7 98.836 146.139 88.187 146.139 83.089 136.425z"/>
                <path fill="#363B42" d="M34.627 44.531H446.473V84.902H34.627z"/>
                <path fill="#21252B" d="M34.627 44.531H446.473V59.704H34.627z"/>
                <circle cx="419.742" cy="51.808" r="2.364" fill="#4E5865"/>
                <circle cx="429.19" cy="51.808" r="2.364" fill="#4E5865"/>
                <circle cx="438.638" cy="51.808" r="2.364" fill="#4E5865"/>
                <path fill="#21252B" d="M388.147 65.695H123.488c-3.06 0-5.541 2.481-5.541 5.541 0 3.06 2.482 5.539 5.541 5.539h264.66c3.059 0 5.54-2.48 5.54-5.539 0-3.06-2.48-5.541-5.54-5.541z"/>
                <path fill="#6A737C" d="M430.685 67.59h-12.958c-.525 0-.95-.426-.95-.95 0-.526.425-.951.95-.951h12.958c.525 0 .95.425.95.95 0 .525-.425.95-.95.95zM430.685 71.449h-12.958c-.525 0-.95-.426-.95-.95 0-.526.425-.951.95-.951h12.958c.525 0 .95.425.95.95 0 .525-.425.95-.95.95zM430.685 75.305h-12.958c-.525 0-.95-.426-.95-.95 0-.526.425-.951.95-.951h12.958c.525 0 .95.425.95.95 0 .525-.425.95-.95.95zM410.744 71.446c.002 2.246-1.349 4.272-3.423 5.133-2.075.86-4.463.387-6.052-1.2-1.589-1.589-2.064-3.977-1.204-6.052.86-2.075 2.885-3.427 5.131-3.426 1.473-.008 2.889.573 3.931 1.614 1.042 1.042 1.624 2.457 1.617 3.93z"/>
                <circle cx="405.193" cy="70.501" r="2.135" fill="#4E5865"/>
                <path fill="#4E5865" d="M409.397 75.07c-1.052 1.227-2.588 1.933-4.204 1.933-1.617 0-3.152-.706-4.204-1.933.626-1.363 1.874-2.338 3.348-2.617.283-.055.57-.083.859-.082.288 0 .576.028.859.082 1.472.279 2.718 1.254 3.342 2.617z"/>
                <path fill="#363B42" d="M52.128 44.53h81.996c3.801 0 6.882 3.082 6.882 6.882v8.295h-95.76v-8.295c0-3.8 3.082-6.881 6.882-6.881z"/>
                <path fill="#2E6B7D" d="M63.933 58.082c-2.84 0-5.143-2.302-5.145-5.143 0-2.841 2.304-5.145 5.145-5.145 2.838.005 5.136 2.307 5.136 5.145-.001 2.837-2.299 5.137-5.136 5.143z"/>
                <path fill="#4E5865" d="M124.515 54.565H76.48c-.898 0-1.627-.727-1.629-1.626 0-.899.73-1.628 1.629-1.628h48.035c.9 0 1.628.729 1.628 1.628-.001.899-.73 1.626-1.628 1.626z"/>
                <path fill="#6A737C" d="M43.726 70.752H53.152V71.829H43.726z"/>
                <path fill="#6A737C" d="M46.875 75.121L43.045 71.29 46.875 67.46 47.639 68.22 44.569 71.29 47.639 74.36zM57.996 70.752H67.422V71.829H57.996z"/>
                <path fill="#6A737C" d="M64.272 75.121L63.509 74.36 66.579 71.29 63.509 68.22 64.272 67.46 68.103 71.29zM75.542 69.956L75.067 68.116 73.077 68.629 72.808 67.583 75.84 66.804 76.585 69.687z"/>
                <path fill="#6A737C" d="M77.884 76.388c-2.068.001-3.905-1.322-4.56-3.284-.653-1.961.022-4.122 1.676-5.362l.634.862c-.942.7-1.495 1.807-1.489 2.981 0 1.776 1.255 3.304 2.996 3.652 1.74.348 3.486-.581 4.169-2.22.683-1.64.115-3.532-1.358-4.524l.606-.89c1.751 1.18 2.525 3.367 1.908 5.387-.618 2.02-2.483 3.399-4.595 3.398h.013zM98.665 76.21h-9.822v-7.458l4.914-3.222 4.908 3.222v7.459zm-8.818-1.01h7.807v-5.912l-3.904-2.56-3.903 2.56V75.2z"/>
                <path fill="#6A737C" d="M92.623 71.886H94.69200000000001V75.707H92.623z"/>
            </g>
        </g>
    </g>
</svg>
