<?xml version="1.0" encoding="UTF-8"?>
<svg width="160px" height="160px" viewBox="0 0 160 160" version="1.1" xmlns="http://www.w3.org/2000/svg" xmlns:xlink="http://www.w3.org/1999/xlink">
    <!-- Generator: Sketch 51.1 (57501) - http://www.bohemiancoding.com/sketch -->
    <title>career_1</title>
    <desc>Created with Sketch.</desc>
    <defs>
        <polygon id="path-1" points="0.594285714 0.875604396 34.305641 0.875604396 34.305641 24.9084249 0.594285714 24.9084249"></polygon>
    </defs>
    <g id="career_1" stroke="none" stroke-width="1" fill="none" fill-rule="evenodd">
        <g id="Group-52" transform="translate(40.000000, 24.000000)">
            <g id="Group-3" transform="translate(21.978022, 85.063121)">
                <mask id="mask-2" fill="white">
                    <use xlink:href="#path-1"></use>
                </mask>
                <g id="Clip-2"></g>
                <path d="M34.305641,0.875604396 L31.0001465,17.8719414 C28.3041758,27.4250549 6.18549451,27.2140659 4.01699634,17.4851282 L0.594285714,0.875604396 L0.688058608,1.34446886 L0.828717949,1.80161172 L0.992820513,2.27047619 L1.21553114,2.71589744 L1.46168498,3.17304029 L1.75472527,3.61846154 L2.0829304,4.05216117 L2.44630037,4.48586081 L2.85655678,4.90783883 L3.29025641,5.31809524 L3.7825641,5.71663004 L4.29831502,6.10344322 L4.87267399,6.49025641 L5.47047619,6.85362637 L6.10344322,7.19355311 L6.74813187,7.52175824 L7.43970696,7.82652015 L8.13128205,8.10783883 L8.84630037,8.36571429 L9.57304029,8.60014652 L10.3115018,8.81113553 L11.0851282,8.99868132 L11.847033,9.17450549 L12.6206593,9.31516484 L13.3942857,9.43238095 C16.0550916,8.92835165 18.9268864,8.92835165 21.5994139,9.42065934 L22.2792674,9.31516484 L23.0528938,9.16278388 L23.8147985,8.99868132 L24.5767033,8.81113553 L25.3151648,8.60014652 L26.0536264,8.36571429 L26.7569231,8.10783883 L27.4602198,7.82652015 L28.1400733,7.52175824 L28.7847619,7.19355311 L29.4177289,6.85362637 L30.0272527,6.49025641 L30.5898901,6.10344322 L31.1173626,5.71663004 L31.5979487,5.31809524 L32.04337,4.90783883 L32.4419048,4.48586081 L32.8169963,4.05216117 L33.1334799,3.61846154 L33.4382418,3.17304029 L33.6843956,2.71589744 L33.8953846,2.27047619 L34.0594872,1.80161172 L34.2001465,1.34446886 L34.305641,0.875604396 Z" id="Fill-1" fill="#0381A9" mask="url(#mask-2)"></path>
            </g>
            <path d="M52.6487912,91.1138168 L52.5667399,91.1724249 L52.0041026,91.5475165 L51.3945788,91.9108864 L50.7616117,92.2625348 L50.1169231,92.5790183 L49.4370696,92.8837802 L48.7454945,93.1650989 L48.0304762,93.4229744 L47.2920147,93.6574066 L46.5535531,93.8683956 L45.80337,94.0559414 L45.0297436,94.2317656 L44.2561172,94.3724249 L43.5762637,94.4779194 C43.1425641,94.3958681 42.6971429,94.3255385 42.2517216,94.2669304 L42.1813919,109.821509 C45.9440293,109.38781 49.425348,108.028103 51.4414652,105.718945 L52.6487912,91.1138168 Z" id="Fill-4" fill="#98E0F1"></path>
            <path d="M27.3922344,105.427077 L25.7512088,90.7750623 L25.7629304,90.7750623 L26.2786813,91.1735971 L26.8530403,91.5486886 L27.4508425,91.9120586 L28.0838095,92.2519853 L28.7284982,92.5801905 L29.4200733,92.8849524 L30.0999267,93.1662711 L30.8266667,93.4241465 L31.541685,93.6585788 L32.2918681,93.8695678 L33.0537729,94.0571136 L33.8273993,94.2329377 L34.6010256,94.3735971 L35.374652,94.4908132 C35.6794139,94.4439267 35.9841758,94.3853187 36.3006593,94.3384322 L36.8281319,109.81096 C32.9365568,109.342095 29.3497436,107.876894 27.3922344,105.427077" id="Fill-6" fill="#065371"></path>
            <path d="M27.1742125,79.093304 C33.9961905,75.1548425 45.0379487,75.1548425 51.8599267,79.093304 C58.6819048,83.0317656 58.6936264,89.4083223 51.8716484,93.3467839 C45.0496703,97.2852454 33.9961905,97.2852454 27.1742125,93.3467839 C20.3405128,89.4083223 20.3522344,83.0317656 27.1742125,79.093304" id="Fill-8" fill="#0381A9"></path>
            <polygon id="Fill-10" fill="#065371" points="56.9131136 87.1917656 56.9131136 88.9031209 56.807619 89.383707 56.6669597 89.864293 56.4911355 90.3448791 56.2684249 90.8137436 56.0105495 91.2826081 55.7057875 91.7397509 55.3658608 92.1851722 54.9907692 92.6305934 54.5805128 93.064293 54.1116484 93.4862711 53.6193407 93.8965275 53.0801465 94.2950623 52.4940659 94.6935971 51.8728205 95.0686886 51.2281319 95.4320586 50.5482784 95.7602637 49.8449817 96.0767473 49.141685 96.3580659 48.3915018 96.627663 47.6530403 96.8738168 46.8794139 97.0848059 46.0940659 97.2840733 45.3087179 97.4598974 44.4882051 97.6122784 43.6794139 97.7294945 42.8706227 97.834989 42.0266667 97.9287619 41.1944322 97.9756484 40.3621978 98.0108132 39.5299634 98.0225348 38.6860073 98.0108132 37.8537729 97.9756484 37.0215385 97.9287619 36.1775824 97.834989 35.3687912 97.7294945 34.5482784 97.6122784 33.7394872 97.4598974 32.9541392 97.2840733 32.1687912 97.0848059 31.3951648 96.8738168 30.6449817 96.627663 29.9065201 96.3580659 29.1915018 96.0767473 28.4999267 95.7602637 27.8317949 95.4320586 27.1753846 95.0686886 26.5541392 94.6935971 25.9680586 94.2950623 25.4288645 93.8965275 24.9248352 93.4862711 24.4676923 93.064293 24.0457143 92.6305934 23.6706227 92.1851722 23.3424176 91.7397509 23.0376557 91.2826081 22.7797802 90.8137436 22.545348 90.3448791 22.3812454 89.864293 22.2405861 89.383707 22.1350916 88.9031209 22.1350916 87.1917656 22.2405861 87.6723516 22.3812454 88.1529377 22.545348 88.6218022 22.7797802 89.1023883 23.0376557 89.5595311 23.3424176 90.016674 23.6706227 90.4738168 24.0457143 90.9075165 24.4676923 91.3412161 24.9248352 91.7749158 25.4288645 92.1851722 25.9680586 92.583707 26.5541392 92.9822418 27.1753846 93.3573333 27.8317949 93.7207033 28.4999267 94.0489084 29.1915018 94.3536703 29.9065201 94.6467106 30.6449817 94.9163077 31.3951648 95.1624615 32.1687912 95.3734505 32.9541392 95.5727179 33.7394872 95.7368205 34.5482784 95.9009231 35.3687912 96.0181392 36.1775824 96.1236337 37.0215385 96.205685 37.8537729 96.264293 38.6860073 96.2994579 39.5299634 96.3111795 40.3621978 96.2994579 41.1944322 96.264293 42.0266667 96.205685 42.8706227 96.1236337 43.6794139 96.0181392 44.4882051 95.9009231 45.3087179 95.7368205 46.0940659 95.5727179 46.8794139 95.3734505 47.6530403 95.1624615 48.3915018 94.9163077 49.141685 94.6467106 49.8449817 94.3536703 50.5482784 94.0489084 51.2281319 93.7207033 51.8728205 93.3573333 52.4940659 92.9822418 53.0801465 92.583707 53.6193407 92.1851722 54.1116484 91.7749158 54.5805128 91.3412161 54.9907692 90.9075165 55.3658608 90.4738168 55.7057875 90.016674 56.0105495 89.5595311 56.2684249 89.1023883 56.4911355 88.6335238 56.6669597 88.1529377 56.807619 87.6723516"></polygon>
            <path d="M27.4379487,79.2363077 C34.1075458,75.3798974 44.9265934,75.3798974 51.6196337,79.2363077 C58.3009524,83.0927179 58.3009524,89.3520586 51.6196337,93.1967473 C44.938315,97.0648791 34.0958242,97.0648791 27.4262271,93.1967473 C20.7449084,89.340337 20.75663,83.0927179 27.4379487,79.2363077" id="Fill-12" fill="#065371"></path>
            <path d="M28.2502564,79.711033 C34.4744322,76.1124982 44.5667399,76.1124982 50.7909158,79.711033 C57.0150916,83.3095678 57.0268132,89.1352088 50.8026374,92.722022 C44.5784615,96.3205568 34.4744322,96.3205568 28.2502564,92.722022 C22.0260806,89.1352088 22.0260806,83.3095678 28.2502564,79.711033" id="Fill-14" fill="#0381A9"></path>
            <path d="M44.596044,77.4956484 C46.858315,77.929348 48.9916484,78.6678095 50.7850549,79.711033 C57.0209524,83.3095678 57.032674,89.1352088 50.7967766,92.722022 C48.9916484,93.776967 46.858315,94.503707 44.596044,94.9491282 L44.596044,77.4956484 Z" id="Fill-16" fill="#065371"></path>
            <path d="M65.3608791,67.7491282 C65.4898168,67.5264176 65.7594139,67.4560879 65.9938462,67.573304 C66.2048352,67.7022418 66.2751648,67.9835604 66.1462271,68.2062711 L51.7638095,93.1264176 C51.6348718,93.3491282 51.3652747,93.4194579 51.1425641,93.2905201 C50.9198535,93.173304 50.8495238,92.8919853 50.9667399,92.6692747 L65.3608791,67.7491282 Z" id="Fill-18" fill="#E5EBEC"></path>
            <path d="M54.9098901,75.0868571 C55.0388278,74.8641465 55.3201465,74.7938168 55.5428571,74.911033 C55.7538462,75.0516923 55.8241758,75.333011 55.6952381,75.544 L53.0695971,80.103707 C52.9406593,80.3264176 52.6593407,80.3967473 52.43663,80.2678095 C52.225641,80.1505934 52.1435897,79.8692747 52.2608059,79.6465641 L54.9098901,75.0868571 Z" id="Fill-20" fill="#E5EBEC"></path>
            <path d="M39.0564103,77.0150623 C39.0564103,76.7689084 39.2673993,76.5461978 39.5252747,76.5461978 C39.7831502,76.5461978 39.9824176,76.7689084 39.9824176,77.0150623 L39.9824176,95.5820952 C39.9824176,95.8282491 39.7831502,96.0392381 39.5252747,96.0392381 C39.2673993,96.0392381 39.0564103,95.8282491 39.0564103,95.5820952 L39.0564103,77.0150623 Z" id="Fill-22" fill="#E5EBEC"></path>
            <path d="M12.8890842,68.2015824 C12.7601465,67.9788718 12.8421978,67.7092747 13.0649084,67.580337 C13.2758974,67.4513993 13.5572161,67.5334505 13.6744322,67.7444396 L28.080293,92.6645861 C28.2092308,92.8872967 28.1271795,93.1686154 27.9044689,93.2975531 C27.6934799,93.4264908 27.4004396,93.3444396 27.2832234,93.1217289 L12.8890842,68.2015824 Z" id="Fill-24" fill="#E5EBEC"></path>
            <path d="M23.3400733,75.544 C23.2111355,75.3212894 23.2931868,75.0516923 23.5158974,74.911033 C23.7268864,74.7938168 24.0199267,74.8641465 24.1371429,75.0868571 L26.7745055,79.6465641 C26.9034432,79.8692747 26.8213919,80.1505934 26.5986813,80.2678095 C26.3876923,80.3967473 26.094652,80.3264176 25.9774359,80.103707 L23.3400733,75.544 Z" id="Fill-26" fill="#E5EBEC"></path>
            <path d="M40.0058608,1.00861538 C39.9941392,1.50092308 39.9824176,2.21594139 39.9824176,3.25916484 C39.970696,4.61887179 39.9589744,6.54121612 39.9472527,9.29579487 C44.8351648,6.59982418 49.4534799,5.24011722 53.4974359,5.11117949 C54.8571429,5.06429304 56.1582418,5.15806593 57.3655678,5.38077656 C52.1728938,2.64964103 46.2652015,1.07894505 40.0058608,1.00861538" id="Fill-28" fill="#64CAEA"></path>
            <path d="M39.010696,78.4919853 C39.010696,77.9762344 38.9989744,76.8157949 38.9989744,75.7725714 C38.9872527,73.9557216 38.9755311,71.2363077 38.9638095,67.3447326 C38.9403663,59.1630476 38.9286447,49.1410696 38.9286447,39.5527912 C38.9286447,29.9527912 38.9403663,19.9308132 38.9638095,11.7491282 L38.9638095,10.9872234 C31.2041026,15.6407033 24.1711355,22.9081026 19.0487912,30.9608498 C13.7740659,39.2597509 10.5037363,48.4026081 10.5037363,56.4084689 C10.5037363,59.8780659 11.1249817,62.8436337 12.2502564,65.2582857 C16.1652747,73.9557216 30.7821245,78.5857582 39.010696,78.4919853" id="Fill-30" fill="#64CAEA"></path>
            <path d="M2.33494505,29.3796044 C4.33934066,25.1832674 7.53934066,21.4323516 11.6301832,18.3378462 C18.3701099,13.2506667 27.5364103,10.0037802 37.7107692,9.65213187 C33.28,7.33125275 29.1188278,6.17081319 25.461685,6.04187546 C22.6250549,5.94810256 20.0931868,6.4872967 17.9481319,7.61257143 C15.9085714,8.984 14.0096703,10.5664176 12.2748718,12.2894945 C7.59794872,16.9664176 4.11663004,22.8272234 2.33494505,29.3796044" id="Fill-32" fill="#64CAEA"></path>
            <path d="M78.0671062,39.1495678 C77.9147253,31.3429744 73.6597802,24.2631209 66.8260806,19.1290549 C60.2502564,14.1590916 51.3066667,10.9825348 41.3667399,10.6308864 C48.9389011,15.3781392 55.7374359,22.5166007 60.7542857,30.4052454 C66.1227839,38.8565275 69.4634432,48.1752088 69.4634432,56.3686154 C69.4634432,59.9788718 68.807033,63.0850989 67.6231502,65.6286886 C67.5410989,65.8396777 67.4356044,66.0389451 67.3183883,66.2499341 C73.9762637,59.3224615 78.0671062,49.9100073 78.0671062,39.5481026 L78.0671062,39.1495678 Z" id="Fill-34" fill="#64CAEA"></path>
            <path d="M57.3655678,5.38077656 C56.1934066,5.15806593 54.9509158,5.07601465 53.6380952,5.09945788 L53.556044,5.11117949 L53.4974359,5.11117949 C49.4534799,5.24011722 44.8351648,6.59982418 39.9472527,9.29579487 C39.9589744,6.54121612 39.970696,4.61887179 39.9824176,3.25916484 C39.9824176,2.21594139 39.9941392,1.50092308 40.0058608,1.00861538 C46.2652015,1.07894505 52.1728938,2.64964103 57.3655678,5.38077656 Z M21.6029304,73.6826081 C17.8520147,71.7133773 14.0893773,69.216674 12.2490842,65.2547692 C11.1238095,62.8401172 10.5025641,59.8745495 10.5025641,56.4049524 C10.5025641,48.3990916 13.7728938,39.2562344 19.047619,30.9690549 C24.1699634,22.9045861 31.2029304,15.6489084 38.9626374,10.983707 L38.9626374,11.7456117 C38.9391941,19.9272967 38.9274725,29.9492747 38.9274725,39.5492747 C38.9274725,49.1375531 38.9391941,59.1595311 38.9626374,67.3529377 C38.974359,71.2445128 38.9860806,73.9522051 38.9978022,75.7690549 C38.9978022,76.824 39.0095238,77.5741832 39.0095238,78.0899341 C32.7384615,78.0078828 26.8190476,76.4254652 21.6029304,73.6826081 Z M67.4813187,11.6049524 C66.4849817,10.6086154 65.4300366,9.67088645 64.3399267,8.79176557 C63.6952381,8.18224176 62.9802198,7.64304762 62.218315,7.18590476 C55.7948718,2.67308425 47.9765568,0.024 39.5252747,0.024 C31.3435897,0.024 23.7362637,2.50898168 17.4300366,6.76392674 C16.3399267,7.35000733 15.3435897,8.06502564 14.4527473,8.9207033 C13.4681319,9.79982418 12.4952381,10.6789451 11.5692308,11.6049524 C4.43076923,18.7551355 0,28.6364542 0,39.5492747 C0,50.4620952 4.43076923,60.3434139 11.5692308,67.4935971 C18.7311355,74.6437802 28.6124542,79.0745495 39.5252747,79.0745495 C50.4380952,79.0745495 60.3194139,74.6437802 67.4813187,67.4935971 C82.9069597,52.0562344 82.9069597,27.0305934 67.4813187,11.6049524 Z M11.6278388,18.3448791 C18.3677656,13.245978 27.5457875,9.99909158 37.7084249,9.64744322 C33.2776557,7.33828571 29.1164835,6.16612454 25.4593407,6.04890842 C22.6344322,5.95513553 20.0908425,6.48260806 17.9457875,7.60788278 C15.9062271,8.97931136 14.007326,10.5617289 12.2725275,12.2965275 C7.5956044,16.9617289 4.11428571,22.8225348 2.33260073,29.3749158 C4.33699634,25.1903004 7.53699634,21.427663 11.6278388,18.3448791 Z M78.0659341,39.1507399 C77.9135531,31.3441465 73.6586081,24.264293 66.8249084,19.1185055 C60.2608059,14.1602637 51.3054945,10.983707 41.3655678,10.6320586 C48.9377289,15.3793114 55.7362637,22.5177729 60.7648352,30.4064176 C66.1333333,38.8576996 69.4622711,48.176381 69.4622711,56.3697875 C69.4622711,59.980044 68.8058608,63.0862711 67.621978,65.6298608 C67.5399267,65.8408498 67.4344322,66.0401172 67.3172161,66.2393846 C73.9750916,59.3236337 78.0659341,49.9111795 78.0659341,39.5492747 L78.0659341,39.1507399 Z M38.1186813,8.75660073 C38.4,8.89726007 38.6930403,9.04964103 38.974359,9.20202198 L38.974359,9.2254652 C38.6930403,9.06136264 38.3882784,8.90898168 38.1186813,8.75660073 Z M21.8959707,5.26356044 C21.978022,5.26356044 22.0600733,5.25183883 22.1421245,5.25183883 L21.8139194,5.31044689 L21.8959707,5.26356044 Z" id="Fill-36" fill="#063D55"></path>
            <path d="M39.9718681,4.84861538 L39.9484249,9.29110623 C43.1953114,7.50942125 46.3249817,6.30209524 49.243663,5.65740659 C46.8172894,5.09476923 44.2971429,4.80172894 41.6949451,4.80172894 C41.1205861,4.80172894 40.5462271,4.81345055 39.9718681,4.84861538" id="Fill-38" fill="#7EE0FF"></path>
            <path d="M38.9755311,71.2808498 L38.9638095,67.3541099 C38.9403663,59.1607033 38.9286447,49.1387253 38.9286447,39.5504469 C38.9286447,29.9504469 38.9403663,19.9284689 38.9638095,11.7467839 L38.9638095,10.9848791 C31.2041026,15.638359 24.1711355,22.9057582 19.0487912,30.9702271 C14.9345055,37.4171136 12.050989,44.3914725 10.9726007,50.9438535 C15.672967,62.1614359 26.3279121,70.2610696 38.9755311,71.2808498" id="Fill-40" fill="#7EE0FF"></path>
            <path d="M18.5435897,14.1719853 C24.1465201,11.5111795 30.6871795,9.89359707 37.7084249,9.64744322 C35.1531136,8.31117949 32.7032967,7.36172894 30.3824176,6.77564835 C25.9164835,8.39323077 21.8842491,10.9368205 18.5435897,14.1719853" id="Fill-42" fill="#7EE0FF"></path>
            <path d="M71.6682784,23.5809231 C70.2499634,21.9750623 68.632381,20.474696 66.8272527,19.1267106 C60.2514286,14.1567473 51.3078388,10.9801905 41.3679121,10.6285421 C48.9400733,15.3757949 55.7386081,22.5142564 60.7554579,30.4029011 C66.123956,38.8541832 69.4646154,48.1728645 69.4646154,56.3662711 L69.4646154,56.4952088 C72.9576557,51.2204835 74.9972161,44.8908132 74.9972161,38.0922784 C74.9972161,32.8878828 73.8016117,27.9648059 71.6682784,23.5809231" id="Fill-44" fill="#7EE0FF"></path>
            <path d="M38.1175092,8.75777289 C38.3988278,8.89843223 38.6918681,9.05081319 38.9731868,9.20319414 L38.9731868,9.22663736 C38.6918681,9.0625348 38.3988278,8.91015385 38.1175092,8.75777289 M41.7043223,71.3980659 C53.2852747,71.3980659 63.4947985,65.4669304 69.4610989,56.4881758 L69.4610989,56.3709597 C69.4610989,48.1775531 66.1321612,38.8471502 60.763663,30.3958681 C55.7350916,22.5189451 48.9365568,15.3804835 41.3643956,10.6332308 C51.3043223,10.9848791 60.2596337,14.1614359 66.8237363,19.1196777 C68.6405861,20.4793846 70.2464469,21.9680293 71.6647619,23.5738901 C67.3394872,14.6537436 59.134359,7.94898168 49.2413187,5.6632674 C46.3226374,6.30795604 43.2046886,7.50356044 39.9460806,9.28524542 L39.9695238,4.85447619 C36.6171429,5.01857875 33.4054212,5.68671062 30.3812454,6.77682051 C32.7021245,7.3629011 35.1519414,8.31235165 37.7072527,9.64861538 C30.6860073,9.89476923 24.145348,11.5123516 18.5424176,14.1731575 C12.2947985,20.2332308 8.40322344,28.707956 8.40322344,38.096967 C8.40322344,42.6449524 9.31750916,46.9936703 10.981978,50.9438535 C12.0486447,44.3914725 14.9321612,37.4171136 19.0464469,30.9702271 C24.1805128,22.9057582 31.2017582,15.638359 38.9614652,10.9848791 L38.9614652,11.7467839 C38.938022,19.9284689 38.9263004,29.9504469 38.9263004,39.5504469 C38.9263004,49.1387253 38.938022,59.1607033 38.9614652,67.3541099 L38.9731868,71.2808498 C39.8757509,71.3511795 40.7900366,71.3980659 41.7043223,71.3980659" id="Fill-46" fill="#065371"></path>
            <path d="M65.1440293,17.9205568 C62.3777289,16.0685421 59.2597802,14.5212894 55.8722344,13.325685 C53.1762637,13.1850256 50.6795604,14.0524249 48.7337729,15.8458315 L48.5345055,16.0216557 C53.199707,20.147663 57.3843223,25.1059048 60.7601465,30.4040733 C62.8348718,33.6626813 64.5931136,37.0502271 65.9879853,40.4494945 C73.3374359,37.0267839 72.1887179,26.8524249 67.1015385,20.1828278 C66.4685714,19.3505934 65.8238828,18.6004103 65.1440293,17.9205568" id="Fill-48" fill="#ADF3FF"></path>
            <path d="M55.8722344,13.3245128 C58.9198535,13.4886154 62.2019048,14.9772601 65.1440293,17.9193846 C62.3894505,16.06737 59.2597802,14.5201172 55.8722344,13.3245128 M65.9879853,40.4483223 C64.6048352,37.0490549 62.8348718,33.6615092 60.7601465,30.4029011 C57.3843223,25.1047326 53.199707,20.1464908 48.5345055,16.0204835 C46.2370696,18.2475897 44.7601465,21.7875165 44.7601465,26.4644396 C44.7601465,34.8336703 51.5586813,41.6322051 59.9396337,41.6322051 C62.072967,41.6322051 63.8898168,41.304 65.3784615,40.7179194 C65.5894505,40.6358681 65.7887179,40.5420952 65.9879853,40.4483223" id="Fill-50" fill="#0381A9"></path>
        </g>
    </g>
</svg>