<?xml version="1.0" encoding="UTF-8"?>
<svg width="160px" height="160px" viewBox="0 0 160 160" version="1.1" xmlns="http://www.w3.org/2000/svg" xmlns:xlink="http://www.w3.org/1999/xlink">
    <!-- Generator: Sketch 51.1 (57501) - http://www.bohemiancoding.com/sketch -->
    <title>career_3</title>
    <desc>Created with Sketch.</desc>
    <defs>
        <polygon id="path-1" points="2.4496875 4.80375 13.6996875 4.80375 13.6996875 16.050375 2.4496875 16.050375"></polygon>
    </defs>
    <g id="career_3" stroke="none" stroke-width="1" fill="none" fill-rule="evenodd">
        <g id="Group-19" transform="translate(39.000000, 22.000000)">
            <polygon id="Fill-1" fill="#9D9E9D" points="4.0905 70.7282625 16.6005 78.3782625 29.133 71.1557625 29.133 56.2720125"></polygon>
            <polygon id="Fill-2" fill="#E7E7E7" points="29.13075 56.2686375 29.13075 71.1523875 65.5695 92.1898875 65.5695 77.3061375"></polygon>
            <polygon id="Fill-3" fill="#858F90" points="6.8445 80.1951375 40.527 99.6463875 78.7095 107.521388 65.5695 88.3626375 29.13075 67.3251375"></polygon>
            <polygon id="Fill-4" fill="#E7E7E7" points="65.174625 88.1432625 72.352125 98.2682625 79.259625 99.6632625 65.568375 77.3095125"></polygon>
            <polygon id="Fill-5" fill="#E5EBEC" points="1.62 86.7966375 39.2175 108.554138 39.2175 93.7041375 39.2175 93.3666375 33.80625 90.2503875 0 70.7316375"></polygon>
            <polygon id="Fill-6" fill="#E7E7E7" points="39.214125 108.555263 75.945375 112.954013 82.481625 101.524013 39.214125 93.3677625"></polygon>
            <polygon id="Fill-7" fill="#457898" points="39.214125 108.251513 39.214125 108.555263 75.945375 112.954013 77.880375 109.590263 39.214125 103.672763"></polygon>
            <polygon id="Fill-8" fill="#2A556F" points="1.62 86.7966375 39.2175 108.554138 39.2175 103.671638 1.1025 81.6891375"></polygon>
            <path d="M0,70.7282625 L33.80625,90.2470125 L39.2175,93.3632625 L82.47375,101.530762 L68.34375,76.5557625 L62.94375,73.4282625 L60.89625,74.6095125 L62.94375,73.4282625 L29.12625,53.9095125 L0,70.7282625 Z M40.53375,91.7657625 L35.865,89.0657625 L4.095,70.7282625 L29.12625,56.2720125 L60.89625,74.6095125 L65.565,77.3095125 L79.25625,99.6632625 L40.53375,91.7657625 Z" id="Fill-9" fill="#C4CDD2"></path>
            <polygon id="Fill-10" fill="#E5EBEC" points="29.50425 6.6572625 29.493 6.7135125 29.45925 6.7810125 29.448 6.8372625 29.403 6.9047625 29.358 6.9610125 29.32425 7.0285125 29.25675 7.0847625 29.21175 7.1297625 29.14425 7.1972625 29.088 7.2535125 29.0205 7.3097625 28.953 7.3547625 28.85175 7.4110125 28.76175 7.4447625 28.683 7.5010125 28.593 7.5347625 28.49175 7.5685125 28.413 7.6135125 28.31175 7.6360125 28.19925 7.6697625 28.098 7.6922625 27.9855 7.7147625 27.8955 7.7372625 27.783 7.7485125 27.6705 7.7710125 27.558 7.7822625 27.4455 7.7822625 27.333 7.7935125 27.23175 7.7935125 27.11925 7.7935125 27.018 7.7822625 26.9055 7.7822625 26.793 7.7710125 26.6805 7.7485125 26.57925 7.7372625 26.478 7.7147625 26.37675 7.6922625 26.26425 7.6697625 26.163 7.6360125 26.06175 7.6135125 25.97175 7.5685125 25.88175 7.5347625 25.7805 7.5010125 25.70175 7.4447625 25.6005 7.4110125 25.52175 7.3547625 25.45425 7.3097625 25.38675 7.2535125 25.31925 7.1972625 25.25175 7.1297625 25.1955 7.0847625 25.13925 7.0285125 25.09425 6.9610125 25.07175 6.9047625 25.02675 6.8372625 25.00425 6.7810125 24.98175 6.7135125 24.95925 6.6572625 24.948 6.6010125 24.948 81.1997625 24.95925 81.2560125 24.98175 81.3235125 25.00425 81.3797625 25.02675 81.4360125 25.07175 81.5035125 25.09425 81.5710125 25.13925 81.6272625 25.1955 81.6835125 25.25175 81.7397625 25.31925 81.7960125 25.353 81.8297625 25.38675 81.8522625 25.45425 81.9085125 25.52175 81.9535125 25.6005 82.0097625 25.70175 82.0547625 25.7805 82.0997625 25.88175 82.1447625 25.97175 82.1672625 26.06175 82.2122625 26.163 82.2347625 26.26425 82.2685125 26.37675 82.2910125 26.478 82.3247625 26.57925 82.3360125 26.6805 82.3585125 26.793 82.3697625 26.9055 82.3810125 27.018 82.3922625 27.11925 82.3922625 27.23175 82.3922625 27.333 82.3922625 27.4455 82.3922625 27.558 82.3810125 27.6705 82.3697625 27.783 82.3585125 27.8955 82.3360125 27.9855 82.3247625 28.098 82.2910125 28.19925 82.2685125 28.31175 82.2347625 28.413 82.2122625 28.49175 82.1672625 28.593 82.1447625 28.683 82.0997625 28.76175 82.0547625 28.85175 82.0097625 28.953 81.9535125 29.0205 81.9085125 29.088 81.8522625 29.14425 81.7960125 29.21175 81.7397625 29.25675 81.6835125 29.32425 81.6272625 29.358 81.5710125 29.403 81.5035125 29.448 81.4360125 29.45925 81.3797625 29.493 81.3235125 29.50425 81.2560125 29.5155 81.1997625 29.5155 6.6010125"></polygon>
            <g id="Group-18" transform="translate(2.000000, 0.449513)">
                <g id="Group-13" transform="translate(20.500000, 0.000000)">
                    <mask id="mask-2" fill="white">
                        <use xlink:href="#path-1"></use>
                    </mask>
                    <g id="Clip-12"></g>
                    <path d="M6.345,5.1885 C5.45625,4.671 4.005,4.671 3.11625,5.1885 C2.2275,5.69475 2.2275,6.5385 3.11625,7.056 C4.005,7.5735 5.45625,7.5735 6.345,7.056 C7.23375,6.5385 7.23375,5.69475 6.345,5.1885" id="Fill-11" fill="#C4CDD2" mask="url(#mask-2)"></path>
                </g>
                <path d="M80.4805,101.082375 C67.6555,90.124875 39.78925,72.732375 26.143,73.429875 C31.7455,53.573625 32.7805,26.528625 26.8405,7.054875 C61.603,30.646125 83.79925,63.214875 80.4805,101.082375" id="Fill-14" fill="#0381A9"></path>
                <polygon id="Fill-16" fill="#065371" points="22.94575 63.597375 0.10825 51.818625 22.94575 6.143625"></polygon>
            </g>
        </g>
    </g>
</svg>