<?xml version="1.0" encoding="UTF-8"?>
<svg width="160px" height="160px" viewBox="0 0 160 160" version="1.1" xmlns="http://www.w3.org/2000/svg" xmlns:xlink="http://www.w3.org/1999/xlink">
    <!-- Generator: Sketch 51.1 (57501) - http://www.bohemiancoding.com/sketch -->
    <title>career_2</title>
    <desc>Created with Sketch.</desc>
    <defs></defs>
    <g id="career_2" stroke="none" stroke-width="1" fill="none" fill-rule="evenodd">
        <g id="Group-76" transform="translate(22.000000, 17.000000)">
            <polygon id="Fill-1" fill="#1C3C50" points="65.124 113.761455 64.9930909 113.957818 64.8512727 114.154182 64.6876364 114.339636 64.5130909 114.514182 64.3058182 114.699636 64.0985455 114.885091 63.8803636 115.048727 63.6294545 115.212364 63.3676364 115.376 63.0949091 115.528727 62.8003636 115.670545 62.5058182 115.801455 62.2112727 115.921455 61.884 116.041455 61.5567273 116.139636 61.2512727 116.237818 60.9130909 116.314182 60.5749091 116.379636 60.2367273 116.456 59.8767273 116.499636 59.5276364 116.554182 59.1785455 116.586909 58.8294545 116.608727 58.4803636 116.630545 58.1203636 116.630545 57.7603636 116.630545 57.4112727 116.608727 57.0512727 116.586909 56.7130909 116.554182 56.3530909 116.499636 56.004 116.456 55.6549091 116.379636 55.3276364 116.314182 54.9894545 116.237818 54.6730909 116.139636 54.3567273 116.041455 54.0294545 115.921455 53.7349091 115.801455 53.4403636 115.670545 53.1458182 115.528727 52.8730909 115.376 52.6112727 115.212364 52.3603636 115.048727 52.1312727 114.885091 51.924 114.699636 51.7167273 114.514182 51.5421818 114.339636 51.3894545 114.154182 51.2367273 113.957818 51.1167273 113.761455 51.0076364 113.565091 52.4149091 116.336 52.5130909 116.488727 52.6112727 116.652364 52.7312727 116.805091 52.8621818 116.946909 53.004 117.099636 53.1567273 117.252364 53.3312727 117.383273 53.5058182 117.525091 53.7130909 117.656 53.9203636 117.786909 54.1385455 117.906909 54.3785455 118.016 54.6076364 118.125091 54.8585455 118.234182 55.1094545 118.321455 55.3603636 118.397818 55.6221818 118.474182 55.884 118.528727 56.1458182 118.605091 56.4294545 118.637818 56.7130909 118.692364 56.9858182 118.725091 57.2694545 118.746909 57.5421818 118.768727 57.8367273 118.790545 58.1203636 118.790545 58.3930909 118.790545 58.6876364 118.768727 58.9821818 118.746909 59.2549091 118.725091 59.5276364 118.692364 59.8003636 118.637818 60.084 118.605091 60.3567273 118.528727 60.6185455 118.474182 60.8803636 118.397818 61.1312727 118.321455 61.3821818 118.234182 61.6330909 118.125091 61.8621818 118.016 62.1021818 117.906909 62.3094545 117.786909 62.5276364 117.656 62.724 117.525091 62.9094545 117.383273 63.0730909 117.252364 63.2367273 117.099636 63.3785455 116.946909 63.5094545 116.805091 63.6185455 116.652364 63.7167273 116.488727 63.804 116.336 65.2330909 113.565091"></polygon>
            <polygon id="Fill-2" fill="#2A556F" points="71.8690909 107.330545 71.6290909 107.712364 71.3345455 108.083273 71.0181818 108.465091 70.6581818 108.825091 70.2763636 109.174182 69.8618182 109.523273 69.4145455 109.850545 68.9345455 110.177818 68.4109091 110.494182 67.8763636 110.799636 67.2981818 111.072364 66.7309091 111.334182 66.1309091 111.574182 65.52 111.803273 64.8872727 111.988727 64.2545455 112.185091 63.6 112.348727 62.9345455 112.479636 62.2690909 112.610545 61.5927273 112.719636 60.9054545 112.806909 60.2181818 112.872364 59.5090909 112.916 58.8109091 112.948727 58.1236364 112.959636 57.4145455 112.948727 56.7272727 112.916 56.0181818 112.872364 55.3418182 112.806909 54.6436364 112.719636 53.9672727 112.610545 53.2909091 112.479636 52.6363636 112.348727 51.9927273 112.185091 51.3490909 111.988727 50.7163636 111.803273 50.1054545 111.574182 49.5054545 111.334182 48.9381818 111.072364 48.36 110.799636 47.8254545 110.494182 47.3018182 110.177818 46.8218182 109.850545 46.3745455 109.523273 45.96 109.174182 45.5781818 108.825091 45.2181818 108.465091 44.9018182 108.083273 44.6290909 107.712364 44.3672727 107.330545 44.1490909 106.948727 46.9527273 112.381455 47.1163636 112.686909 47.3236364 112.992364 47.5418182 113.297818 47.8036364 113.592364 48.0763636 113.876 48.3818182 114.159636 48.72 114.443273 49.08 114.705091 49.4618182 114.966909 49.8763636 115.228727 50.3236364 115.457818 50.76 115.686909 51.2290909 115.894182 51.7090909 116.079636 52.2 116.254182 52.7018182 116.417818 53.2145455 116.570545 53.7381818 116.701455 54.2618182 116.810545 54.7963636 116.908727 55.3418182 116.996 55.8981818 117.072364 56.4327273 117.116 57 117.170545 57.5563636 117.192364 58.1236364 117.192364 58.6690909 117.192364 59.2363636 117.170545 59.7927273 117.116 60.3490909 117.072364 60.8945455 116.996 61.4290909 116.908727 61.9745455 116.810545 62.4981818 116.701455 63.0218182 116.570545 63.5345455 116.417818 64.0363636 116.254182 64.5272727 116.079636 65.0072727 115.894182 65.4763636 115.686909 65.9236364 115.457818 66.36 115.228727 66.7745455 114.966909 67.1563636 114.705091 67.5163636 114.443273 67.8545455 114.159636 68.16 113.876 68.4327273 113.592364 68.6836364 113.297818 68.9127273 112.992364 69.12 112.686909 69.2836364 112.381455 72.0763636 106.948727"></polygon>
            <g id="Group-75" transform="translate(0.000000, 0.788364)">
                <path d="M68.3607273,112.226909 C72.2443636,109.979636 73.4661818,106.772364 72.0043636,103.936 L69.2225455,98.5250909 L69.048,98.2196364 L68.8516364,97.9141818 L68.6225455,97.6196364 L68.3825455,97.3250909 L68.1098182,97.0305455 L67.7934545,96.7578182 L67.4661818,96.4741818 L67.1061818,96.2123636 L66.7243636,95.9505455 L66.3098182,95.6996364 L65.8734545,95.4705455 L65.4261818,95.2414545 L64.9570909,95.0341818 L64.4989091,94.8487273 L64.008,94.6741818 L63.5061818,94.5105455 L63.0043636,94.3687273 L62.4807273,94.2378182 L61.9461818,94.1178182 L61.4116364,94.0196364 L60.8661818,93.9323636 L60.3316364,93.8669091 L59.7861818,93.8123636 L59.2298182,93.7796364 L58.6734545,93.7578182 L58.128,93.7469091 L57.5607273,93.7578182 L57.0043636,93.7796364 L56.448,93.8123636 L55.9025455,93.8669091 L55.368,93.9323636 L54.8225455,94.0196364 L54.288,94.1178182 L53.7534545,94.2378182 L53.2407273,94.3687273 L52.728,94.5105455 L52.2261818,94.6741818 L51.7461818,94.8487273 L51.2770909,95.0341818 L50.808,95.2414545 L50.3607273,95.4705455 L49.9352727,95.6996364 L49.5098182,95.9505455 L49.128,96.2123636 L48.768,96.4741818 L48.4407273,96.7578182 L48.1352727,97.0305455 L47.8516364,97.3250909 L47.6116364,97.6196364 L47.3825455,97.9141818 L47.1861818,98.2196364 L47.0116364,98.5250909 L44.2298182,103.936 C42.768,106.772364 43.9898182,109.979636 47.8734545,112.226909 C53.5352727,115.488727 62.6989091,115.488727 68.3607273,112.226909" id="Fill-3" fill="#1C3C50"></path>
                <path d="M72.4832727,105.259273 C72.3850909,104.812 72.2323636,104.364727 72.0032727,103.939273 L69.2214545,98.5283636 L69.0578182,98.2229091 L68.8505455,97.9174545 L68.6214545,97.612 L68.3814545,97.3174545 L68.1087273,97.0338182 L67.7923636,96.7501818 L67.4650909,96.4774545 L67.1050909,96.2047273 L66.7232727,95.9538182 L66.3087273,95.7029091 L65.8832727,95.4738182 L65.436,95.2447273 L64.9669091,95.0374545 L64.4978182,94.8410909 L64.0069091,94.6665455 L63.5050909,94.5138182 L63.0032727,94.3610909 L62.4796364,94.2301818 L61.9450909,94.1210909 L61.4105455,94.0229091 L60.876,93.9356364 L60.3305455,93.8701818 L59.7850909,93.8156364 L59.2287273,93.772 L58.6723636,93.7501818 L58.1269091,93.7392727 L57.5596364,93.7501818 L57.0032727,93.772 L56.4469091,93.8156364 L55.9014545,93.8701818 L55.3669091,93.9356364 L54.8214545,94.0229091 L54.2869091,94.1210909 L53.7523636,94.2301818 L53.2396364,94.3610909 L52.7269091,94.5138182 L52.236,94.6665455 L51.7450909,94.8410909 L51.276,95.0374545 L50.8069091,95.2447273 L50.3596364,95.4738182 L49.9341818,95.7029091 L49.5196364,95.9538182 L49.1269091,96.2047273 L48.7669091,96.4774545 L48.4396364,96.7501818 L48.1341818,97.0338182 L47.8505455,97.3174545 L47.6105455,97.612 L47.3814545,97.9174545 L47.1850909,98.2229091 L47.0105455,98.5283636 L44.2287273,103.939273 C44.0105455,104.364727 43.8469091,104.812 43.7487273,105.259273 C44.1414545,107.026545 45.516,108.739273 47.8723636,110.102909 C53.5341818,113.375636 62.7087273,113.375636 68.3596364,110.102909 C70.716,108.739273 72.0905455,107.026545 72.4832727,105.259273" id="Fill-5" fill="#2A556F"></path>
                <path d="M17.5549091,56.4181818 C18.3403636,56.4181818 18.9949091,57.0727273 18.9949091,57.8581818 C18.9949091,58.6545455 18.3403636,59.2981818 17.5549091,59.2981818 L1.43127273,59.2981818 C0.645818182,59.2981818 0.00218181818,58.6545455 0.00218181818,57.8581818 C0.00218181818,57.0727273 0.645818182,56.4181818 1.43127273,56.4181818 L17.5549091,56.4181818 Z" id="Fill-7" fill="#7EE0FF"></path>
                <path d="M29.4338182,27.0476364 C29.9901818,27.604 29.9901818,28.5094545 29.4338182,29.0767273 C28.8774545,29.6330909 27.9610909,29.6330909 27.4047273,29.0767273 L15.8629091,17.5458182 C15.2956364,16.9894545 15.2956364,16.084 15.852,15.5167273 C16.4083636,14.9603636 17.3247273,14.9603636 17.8810909,15.5167273 L29.4338182,27.0476364 Z" id="Fill-9" fill="#7EE0FF"></path>
                <path d="M59.7850909,18.0290909 C59.7850909,18.8254545 59.1305455,19.4690909 58.3341818,19.4690909 C57.5487273,19.4690909 56.8941818,18.8254545 56.8941818,18.0290909 L56.8941818,1.56727273 C56.8941818,0.770909091 57.5487273,0.116363636 58.3341818,0.116363636 C59.1305455,0.116363636 59.7850909,0.770909091 59.7850909,1.56727273 L59.7850909,18.0290909 Z" id="Fill-11" fill="#7EE0FF"></path>
                <path d="M99.1385455,59.3003636 C98.3530909,59.3003636 97.6985455,58.6458182 97.6985455,57.8603636 C97.6985455,57.064 98.3530909,56.4203636 99.1385455,56.4203636 L115.262182,56.4203636 C116.047636,56.4203636 116.691273,57.064 116.691273,57.8603636 C116.691273,58.6458182 116.047636,59.3003636 115.262182,59.3003636 L99.1385455,59.3003636 Z" id="Fill-13" fill="#7EE0FF"></path>
                <path d="M89.2843636,29.0767273 C88.728,29.6330909 87.8116364,29.6330909 87.2552727,29.0767273 C86.7098182,28.5094545 86.7098182,27.604 87.2661818,27.0476364 L98.808,15.5167273 C99.3752727,14.9603636 100.291636,14.9603636 100.848,15.5167273 C101.393455,16.084 101.393455,16.9894545 100.837091,17.5458182 L89.2843636,29.0767273 Z" id="Fill-15" fill="#7EE0FF"></path>
                <path d="M82.6472727,75.0214545 C79.7345455,80.0069091 77.6727273,80.716 76.0581818,86.3778182 C75.1090909,89.7923636 75.6,93.4141818 72.7636364,96.0323636 C68.2690909,100.145091 63.5236364,100.570545 58.6909091,100.712364 L58.1236364,100.712364 L57.5454545,100.712364 C52.7127273,100.570545 47.9672727,100.145091 43.4727273,96.0323636 C40.6254545,93.4141818 41.1272727,89.7923636 40.1672727,86.3778182 C38.5636364,80.716 36.5018182,80.0069091 33.5890909,75.0214545 C28.9745455,67.1123636 24.5236364,58.3087273 28.6145455,45.4032727 C32.8145455,32.1378182 45.4690909,25.516 58.1236364,25.516 C70.7672727,25.516 83.4218182,32.1378182 87.6327273,45.4032727 C91.7127273,58.3087273 87.2618182,67.1123636 82.6472727,75.0214545 Z" id="Fill-17" fill="#00C3FF"></path>
                <path d="M66.4429091,106.953455 C71.0356364,104.302545 71.0356364,99.9934545 66.4429091,97.3534545 C61.8392727,94.6916364 54.3992727,94.6916364 49.8065455,97.3534545 C45.2029091,99.9934545 45.2029091,104.302545 49.8065455,106.953455 C54.3992727,109.604364 61.8392727,109.604364 66.4429091,106.953455" id="Fill-19" fill="#9D9E9D"></path>
                <path d="M68.3607273,107.794545 C72.2443636,105.547273 73.4661818,102.34 72.0043636,99.5036364 L69.2225455,94.0927273 L69.048,93.7872727 L68.8516364,93.4818182 L68.6225455,93.1763636 L68.3825455,92.8818182 L68.1098182,92.5981818 L67.7934545,92.3254545 L67.4661818,92.0418182 L67.1061818,91.78 L66.7243636,91.5181818 L66.3098182,91.2672727 L65.8734545,91.0272727 L65.4261818,90.8090909 L64.9570909,90.6018182 L64.4989091,90.4054545 L64.008,90.2418182 L63.5061818,90.0781818 L63.0043636,89.9254545 L62.4807273,89.8054545 L61.9461818,89.6854545 L61.4116364,89.5872727 L60.8661818,89.5 L60.3316364,89.4345455 L59.7861818,89.38 L59.2298182,89.3472727 L58.6734545,89.3145455 L58.128,89.3145455 L57.5607273,89.3145455 L57.0043636,89.3472727 L56.448,89.38 L55.9025455,89.4345455 L55.368,89.5 L54.8225455,89.5872727 L54.288,89.6854545 L53.7534545,89.8054545 L53.2407273,89.9254545 L52.728,90.0781818 L52.2261818,90.2418182 L51.7461818,90.4054545 L51.2770909,90.6018182 L50.808,90.8090909 L50.3607273,91.0272727 L49.9352727,91.2672727 L49.5098182,91.5181818 L49.128,91.78 L48.768,92.0418182 L48.4407273,92.3254545 L48.1352727,92.5981818 L47.8516364,92.8818182 L47.6116364,93.1763636 L47.3825455,93.4818182 L47.1861818,93.7872727 L47.0116364,94.0927273 L44.2298182,99.5036364 C42.768,102.34 43.9898182,105.547273 47.8734545,107.794545 C53.5352727,111.056364 62.6989091,111.056364 68.3607273,107.794545" id="Fill-21" fill="#1C3C50"></path>
                <path d="M72.4832727,100.822545 C72.3850909,100.375273 72.2323636,99.928 72.0032727,99.5025455 L69.2214545,94.0916364 L69.0578182,93.7861818 L68.8505455,93.4807273 L68.6214545,93.1752727 L68.3814545,92.8807273 L68.1087273,92.608 L67.7923636,92.3243636 L67.4650909,92.0407273 L67.1050909,91.7789091 L66.7232727,91.5170909 L66.3087273,91.2770909 L65.8832727,91.0370909 L65.436,90.808 L64.9669091,90.6007273 L64.4978182,90.4043636 L64.0069091,90.2407273 L63.5050909,90.0770909 L63.0032727,89.9243636 L62.4796364,89.8043636 L61.9450909,89.6843636 L61.4105455,89.5861818 L60.876,89.4989091 L60.3305455,89.4334545 L59.7850909,89.3789091 L59.2287273,89.3461818 L58.6723636,89.3134545 L58.1269091,89.3134545 L57.5596364,89.3134545 L57.0032727,89.3461818 L56.4469091,89.3789091 L55.9014545,89.4334545 L55.3669091,89.4989091 L54.8214545,89.5861818 L54.2869091,89.6843636 L53.7523636,89.8043636 L53.2396364,89.9243636 L52.7269091,90.0770909 L52.236,90.2407273 L51.7450909,90.4043636 L51.276,90.6007273 L50.8069091,90.808 L50.3596364,91.0370909 L49.9341818,91.2770909 L49.5196364,91.5170909 L49.1269091,91.7789091 L48.7669091,92.0407273 L48.4396364,92.3243636 L48.1341818,92.608 L47.8505455,92.8807273 L47.6105455,93.1752727 L47.3814545,93.4807273 L47.1850909,93.7861818 L47.0105455,94.0916364 L44.2287273,99.5025455 C44.0105455,99.928 43.8469091,100.375273 43.7487273,100.822545 C44.1414545,102.600727 45.516,104.313455 47.8723636,105.666182 C53.5341818,108.938909 62.7087273,108.938909 68.3596364,105.666182 C70.716,104.313455 72.0905455,102.600727 72.4832727,100.822545" id="Fill-23" fill="#2A556F"></path>
                <path d="M66.4429091,101.839273 C71.0356364,99.1883636 71.0356364,94.8792727 66.4429091,92.2283636 C61.8392727,89.5774545 54.3992727,89.5774545 49.8065455,92.2283636 C45.2029091,94.8792727 45.2029091,99.1883636 49.8065455,101.839273 C54.3992727,104.490182 61.8392727,104.490182 66.4429091,101.839273" id="Fill-25" fill="#9D9E9D"></path>
                <polygon id="Fill-27" fill="#9D9E9D" points="72.7603636 92.6614545 72.7603636 97.756 72.7058182 98.1596364 72.6185455 98.5632727 72.5094545 98.9669091 72.3567273 99.3705455 72.1603636 99.7523636 71.9530909 100.156 71.6912727 100.537818 71.4185455 100.908727 71.1021818 101.290545 70.7421818 101.650545 70.3494545 102.010545 69.9349091 102.348727 69.4876364 102.686909 68.9967273 103.014182 68.4730909 103.341455 67.9385455 103.636 67.3712727 103.919636 66.7821818 104.170545 66.1712727 104.421455 65.5603636 104.639636 64.9276364 104.846909 64.2949091 105.032364 63.6294545 105.185091 62.9749091 105.337818 62.2876364 105.468727 61.6112727 105.566909 60.9130909 105.654182 60.2258182 105.719636 59.5167273 105.774182 58.8185455 105.806909 58.1203636 105.806909 57.4221818 105.806909 56.7130909 105.774182 56.0149091 105.719636 55.3167273 105.654182 54.6294545 105.566909 53.9421818 105.468727 53.2658182 105.337818 52.6003636 105.185091 51.9458182 105.032364 51.3021818 104.846909 50.6803636 104.639636 50.0585455 104.421455 49.4476364 104.170545 48.8694545 103.919636 48.3021818 103.636 47.7567273 103.341455 47.2330909 103.014182 46.7421818 102.686909 46.2949091 102.348727 45.8803636 102.010545 45.4876364 101.650545 45.1385455 101.290545 44.8112727 100.908727 44.5385455 100.537818 44.2876364 100.156 44.0694545 99.7523636 43.884 99.3705455 43.7312727 98.9669091 43.6112727 98.5632727 43.524 98.1596364 43.4694545 97.756 43.4694545 92.6614545 43.524 93.0650909 43.6112727 93.4687273 43.7312727 93.8723636 43.884 94.2650909 44.0694545 94.6687273 44.2876364 95.0505455 44.5385455 95.4323636 44.8112727 95.8141818 45.1385455 96.196 45.4876364 96.556 45.8803636 96.916 46.2949091 97.2541818 46.7421818 97.5923636 47.2330909 97.9196364 47.7567273 98.236 48.3021818 98.5414545 48.8694545 98.8141818 49.4476364 99.076 50.0585455 99.3269091 50.6803636 99.5450909 51.3021818 99.7414545 51.9458182 99.9378182 52.6003636 100.101455 53.2658182 100.243273 53.9421818 100.374182 54.6294545 100.472364 55.3167273 100.559636 56.0149091 100.625091 56.7130909 100.679636 57.4221818 100.701455 58.1203636 100.712364 58.8185455 100.701455 59.5167273 100.679636 60.2258182 100.625091 60.9130909 100.559636 61.6112727 100.472364 62.2876364 100.374182 62.9749091 100.243273 63.6294545 100.101455 64.2949091 99.9378182 64.9276364 99.7414545 65.5603636 99.5450909 66.1712727 99.3269091 66.7821818 99.076 67.3712727 98.8141818 67.9385455 98.5414545 68.4730909 98.236 68.9967273 97.9196364 69.4876364 97.5923636 69.9349091 97.2541818 70.3494545 96.916 70.7421818 96.556 71.1021818 96.196 71.4185455 95.8141818 71.6912727 95.4323636 71.9530909 95.0505455 72.1603636 94.6687273 72.3567273 94.2650909 72.5094545 93.8723636 72.6185455 93.4687273 72.7058182 93.0650909"></polygon>
                <path d="M68.4785455,86.2752727 C74.1949091,89.5807273 74.1949091,94.9370909 68.4785455,98.2425455 C62.7621818,101.537091 53.4785455,101.537091 47.7621818,98.2425455 C42.0349091,94.9370909 42.0349091,89.5807273 47.7621818,86.2752727 C53.4785455,82.9698182 62.7621818,82.9698182 68.4785455,86.2752727" id="Fill-29" fill="#0381A9"></path>
                <polygon id="Fill-31" fill="#1C3C50" points="72.7603636 92.6614545 72.7603636 97.756 72.7058182 98.1596364 72.6185455 98.5632727 72.5094545 98.9669091 72.3567273 99.3705455 72.1603636 99.7523636 71.9530909 100.156 71.6912727 100.537818 71.4185455 100.908727 71.1021818 101.290545 70.7421818 101.650545 70.3494545 102.010545 69.9349091 102.348727 69.4876364 102.686909 68.9967273 103.014182 68.4730909 103.341455 67.9385455 103.636 67.3712727 103.919636 66.7821818 104.170545 66.1712727 104.421455 65.5603636 104.639636 64.9276364 104.846909 64.2949091 105.032364 63.6294545 105.185091 62.9749091 105.337818 62.2876364 105.468727 61.6112727 105.566909 60.9130909 105.654182 60.2258182 105.719636 59.5167273 105.774182 58.8185455 105.806909 58.1203636 105.806909 57.4221818 105.806909 56.7130909 105.774182 56.0149091 105.719636 55.3167273 105.654182 54.6294545 105.566909 53.9421818 105.468727 53.2658182 105.337818 52.6003636 105.185091 51.9458182 105.032364 51.3021818 104.846909 50.6803636 104.639636 50.0585455 104.421455 49.4476364 104.170545 48.8694545 103.919636 48.3021818 103.636 47.7567273 103.341455 47.2330909 103.014182 46.7421818 102.686909 46.2949091 102.348727 45.8803636 102.010545 45.4876364 101.650545 45.1385455 101.290545 44.8112727 100.908727 44.5385455 100.537818 44.2876364 100.156 44.0694545 99.7523636 43.884 99.3705455 43.7312727 98.9669091 43.6112727 98.5632727 43.524 98.1596364 43.4694545 97.756 43.4694545 92.6614545 43.524 93.0650909 43.6112727 93.4687273 43.7312727 93.8723636 43.884 94.2650909 44.0694545 94.6687273 44.2876364 95.0505455 44.5385455 95.4323636 44.8112727 95.8141818 45.1385455 96.196 45.4876364 96.556 45.8803636 96.916 46.2949091 97.2541818 46.7421818 97.5923636 47.2330909 97.9196364 47.7567273 98.236 48.3021818 98.5414545 48.8694545 98.8141818 49.4476364 99.076 50.0585455 99.3269091 50.6803636 99.5450909 51.3021818 99.7414545 51.9458182 99.9378182 52.6003636 100.101455 53.2658182 100.243273 53.9421818 100.374182 54.6294545 100.472364 55.3167273 100.559636 56.0149091 100.625091 56.7130909 100.679636 57.4221818 100.701455 58.1203636 100.712364 58.8185455 100.701455 59.5167273 100.679636 60.2258182 100.625091 60.9130909 100.559636 61.6112727 100.472364 62.2876364 100.374182 62.9749091 100.243273 63.6294545 100.101455 64.2949091 99.9378182 64.9276364 99.7414545 65.5603636 99.5450909 66.1712727 99.3269091 66.7821818 99.076 67.3712727 98.8141818 67.9385455 98.5414545 68.4730909 98.236 68.9967273 97.9196364 69.4876364 97.5923636 69.9349091 97.2541818 70.3494545 96.916 70.7421818 96.556 71.1021818 96.196 71.4185455 95.8141818 71.6912727 95.4323636 71.9530909 95.0505455 72.1603636 94.6687273 72.3567273 94.2650909 72.5094545 93.8723636 72.6185455 93.4687273 72.7058182 93.0650909"></polygon>
                <polygon id="Fill-33" fill="#2A556F" points="72.7603636 92.6614545 72.7603636 95.7596364 72.7058182 96.1632727 72.6185455 96.5669091 72.5094545 96.9705455 72.3567273 97.3741818 72.1603636 97.7669091 71.9530909 98.1596364 71.6912727 98.5414545 71.4185455 98.9232727 71.1021818 99.2941818 70.7421818 99.6541818 70.3494545 100.014182 69.9349091 100.363273 69.4876364 100.690545 68.9967273 101.028727 68.4730909 101.334182 67.9385455 101.639636 67.3712727 101.923273 66.7821818 102.185091 66.1712727 102.425091 65.5603636 102.654182 64.9276364 102.850545 64.2949091 103.036 63.6294545 103.199636 62.9749091 103.341455 62.2876364 103.472364 61.6112727 103.570545 60.9130909 103.668727 60.2258182 103.734182 59.5167273 103.777818 58.8185455 103.810545 58.1203636 103.821455 57.4221818 103.810545 56.7130909 103.777818 56.0149091 103.734182 55.3167273 103.668727 54.6294545 103.570545 53.9421818 103.472364 53.2658182 103.341455 52.6003636 103.199636 51.9458182 103.036 51.3021818 102.850545 50.6803636 102.654182 50.0585455 102.425091 49.4476364 102.185091 48.8694545 101.923273 48.3021818 101.639636 47.7567273 101.334182 47.2330909 101.028727 46.7421818 100.690545 46.2949091 100.363273 45.8803636 100.014182 45.4876364 99.6541818 45.1385455 99.2941818 44.8112727 98.9232727 44.5385455 98.5414545 44.2876364 98.1596364 44.0694545 97.7669091 43.884 97.3741818 43.7312727 96.9705455 43.6112727 96.5669091 43.524 96.1632727 43.4694545 95.7596364 43.4694545 92.6614545 43.524 93.0650909 43.6112727 93.4687273 43.7312727 93.8723636 43.884 94.2650909 44.0694545 94.6687273 44.2876364 95.0505455 44.5385455 95.4323636 44.8112727 95.8141818 45.1385455 96.196 45.4876364 96.556 45.8803636 96.916 46.2949091 97.2541818 46.7421818 97.5923636 47.2330909 97.9196364 47.7567273 98.236 48.3021818 98.5414545 48.8694545 98.8141818 49.4476364 99.076 50.0585455 99.3269091 50.6803636 99.5450909 51.3021818 99.7414545 51.9458182 99.9378182 52.6003636 100.101455 53.2658182 100.243273 53.9421818 100.374182 54.6294545 100.472364 55.3167273 100.559636 56.0149091 100.625091 56.7130909 100.679636 57.4221818 100.701455 58.1203636 100.712364 58.8185455 100.701455 59.5167273 100.679636 60.2258182 100.625091 60.9130909 100.559636 61.6112727 100.472364 62.2876364 100.374182 62.9749091 100.243273 63.6294545 100.101455 64.2949091 99.9378182 64.9276364 99.7414545 65.5603636 99.5450909 66.1712727 99.3269091 66.7821818 99.076 67.3712727 98.8141818 67.9385455 98.5414545 68.4730909 98.236 68.9967273 97.9196364 69.4876364 97.5923636 69.9349091 97.2541818 70.3494545 96.916 70.7421818 96.556 71.1021818 96.196 71.4185455 95.8141818 71.6912727 95.4323636 71.9530909 95.0505455 72.1603636 94.6687273 72.3567273 94.2650909 72.5094545 93.8723636 72.6185455 93.4687273 72.7058182 93.0650909"></polygon>
                <path d="M43.4749091,95.9963636 L43.4749091,92.6581818 L43.5294545,93.0618182 L43.6167273,93.4763636 L43.7258182,93.8690909 L43.8785455,94.2727273 L44.0749091,94.6654545 L44.2821818,95.0581818 L44.544,95.44 L44.8167273,95.8109091 L45.1330909,96.1927273 L45.4930909,96.5527273 L45.8858182,96.9127273 L46.3003636,97.2618182 L46.7476364,97.5890909 L47.2385455,97.9272727 L47.7621818,98.2436364 L48.2967273,98.5381818 L48.864,98.8218182 L49.4530909,99.0836364 L50.064,99.3236364 L50.6749091,99.5418182 L51.3076364,99.7490909 L51.9403636,99.9345455 L52.6058182,100.098182 L53.2603636,100.24 L53.9476364,100.370909 L54.624,100.48 L55.3221818,100.556364 L56.0094545,100.621818 L56.7185455,100.676364 L57.4167273,100.709091 L58.0930909,100.72 C51.024,100.741818 46.6276364,99.16 43.4749091,95.9963636 Z M72.7658182,92.6581818 L72.7658182,96.0290909 C69.6458182,99.0836364 65.2930909,100.654545 58.3549091,100.72 L58.1585455,100.72 L58.8130909,100.709091 L59.5221818,100.676364 L60.2203636,100.621818 L60.9185455,100.556364 L61.6058182,100.48 L62.2930909,100.370909 L62.9694545,100.24 L63.6349091,100.098182 L64.2894545,99.9345455 L64.9330909,99.7490909 L65.5549091,99.5418182 L66.1767273,99.3236364 L66.7876364,99.0836364 L67.3658182,98.8218182 L67.9330909,98.5381818 L68.4785455,98.2436364 L69.0021818,97.9272727 L69.4930909,97.5890909 L69.9403636,97.2618182 L70.3549091,96.9127273 L70.7476364,96.5527273 L71.0967273,96.1927273 L71.424,95.8109091 L71.6967273,95.44 L71.9476364,95.0581818 L72.1658182,94.6654545 L72.3512727,94.2727273 L72.504,93.8690909 L72.624,93.4763636 L72.7112727,93.0618182 L72.7658182,92.6581818 Z" id="Fill-35" fill="#98E0F1"></path>
                <polygon id="Fill-37" fill="#065371" points="63.2901818 86.4236364 63.2901818 90.8527273 63.2901818 90.8854545 63.2901818 90.9181818 63.2683636 90.9509091 63.2465455 90.9836364 63.2247273 91.0163636 63.192 91.0381818 63.1592727 91.0709091 63.1156364 91.0927273 55.6647273 95.4018182 55.6101818 95.4345455 55.5665455 95.4454545 55.512 95.4672727 55.4574545 95.4781818 55.4029091 95.4890909 55.3483636 95.5 55.2938182 95.5109091 55.2392727 95.5109091 55.1738182 95.5109091 55.1192727 95.5 55.0647273 95.4890909 55.0101818 95.4781818 54.9556364 95.4672727 54.9010909 95.4454545 54.8574545 95.4345455 54.8138182 95.4018182 54.7701818 95.38 54.2247273 95.0636364 52.8392727 94.2672727 52.7956364 94.2454545 52.7629091 94.2127273 52.7301818 94.18 52.7083636 94.1472727 52.6865455 94.1254545 52.6756364 94.0927273 52.6647273 94.0490909 52.6538182 94.0163636 52.6538182 89.5981818 52.6647273 89.62 52.6756364 89.6636364 52.6865455 89.6963636 52.7083636 89.7181818 52.7301818 89.7509091 52.7629091 89.7836364 52.7956364 89.8163636 52.8392727 89.8381818 54.2247273 90.6345455 54.7701818 90.9509091 54.8138182 90.9727273 54.8574545 90.9945455 54.9010909 91.0163636 54.9556364 91.0381818 55.0101818 91.0490909 55.0647273 91.0709091 55.1192727 91.0709091 55.1738182 91.0818182 55.2392727 91.0818182 55.2938182 91.0818182 55.3483636 91.0709091 55.4029091 91.0709091 55.4574545 91.0490909 55.512 91.0381818 55.5665455 91.0163636 55.6101818 90.9945455 55.6647273 90.9727273 63.1156364 86.6636364 63.1592727 86.6418182 63.192 86.62 63.2247273 86.5872727 63.2465455 86.5545455 63.2683636 86.5218182 63.2901818 86.4890909 63.2901818 86.4563636"></polygon>
                <path d="M61.1487273,85.0447273 L63.1232727,86.1792727 C63.3523636,86.3210909 63.3523636,86.5392727 63.1232727,86.6701818 L55.6614545,90.9792727 C55.4323636,91.1101818 55.0396364,91.1101818 54.8105455,90.9792727 L54.7669091,90.9465455 L54.2214545,90.6410909 L52.836,89.8338182 C52.6069091,89.7029091 52.6069091,89.4847273 52.836,89.3538182 L60.2978182,85.0447273 C60.5269091,84.9138182 60.9196364,84.9138182 61.1487273,85.0447273" id="Fill-39" fill="#98E0F1"></path>
                <path d="M51.1341818,62.7574545 C50.5996364,63.0629091 50.1741818,62.812 50.1741818,62.2010909 C50.1741818,61.6010909 50.2941818,60.7283636 50.8287273,60.4338182 L66.0032727,51.6192727 C66.5378182,51.3029091 66.5705455,51.8810909 66.5705455,52.492 C66.5705455,53.1029091 66.2978182,53.9974545 65.7741818,54.3138182 L51.1341818,62.7574545 Z" id="Fill-41" fill="#B48A00"></path>
                <path d="M49.7705455,62.4323636 C49.5741818,62.0287273 49.7923636,61.2978182 50.2505455,60.8069091 C50.6978182,60.3269091 51.2214545,60.2614545 51.4178182,60.676 C53.5450909,65.1596364 54.7778182,68.9778182 55.4541818,73.2323636 C56.076,77.1487273 56.2287273,81.4250909 56.196,86.9341818 C56.1850909,87.796 56.1850909,88.6469091 56.1850909,89.4978182 C56.1850909,89.6505455 56.1087273,89.7814545 55.9123636,89.8905455 C55.5632727,90.0978182 54.996,90.0978182 54.636,89.8905455 C54.4614545,89.7923636 54.3741818,89.6614545 54.3741818,89.5196364 C54.3741818,84.4687273 54.5050909,79.636 53.6869091,74.5850909 C53.0432727,70.4941818 51.8432727,66.796 49.7705455,62.4323636 Z M61.8796364,86.2032727 C61.8796364,86.3450909 61.8141818,86.4978182 61.6178182,86.6069091 C61.2687273,86.8141818 60.6905455,86.8141818 60.3414545,86.6069091 C60.1669091,86.5087273 60.0687273,86.3887273 60.0687273,86.2687273 C60.0905455,85.3414545 60.1123636,84.4250909 60.1232727,83.4978182 C60.2323636,78.5450909 60.3523636,74.356 60.996,70.0250909 C61.7596364,64.9414545 63.0687273,59.6505455 65.2069091,52.7014545 C65.4032727,52.0687273 65.916,51.5232727 66.3741818,51.4905455 C66.8214545,51.4469091 67.0396364,51.9378182 66.8432727,52.5705455 C64.7596364,59.356 63.4832727,64.4941818 62.7414545,69.3923636 C62.0869091,73.8214545 61.8578182,78.1087273 61.8796364,83.3014545 L61.8796364,86.2032727 Z" id="Fill-43" fill="#0381A9"></path>
                <path d="M53.5952727,62.9810909 C53.4752727,63.7010909 52.9407273,64.4210909 52.4170909,64.5847273 C51.8716364,64.7592727 51.5443636,64.3010909 51.6643636,63.5810909 L52.4934545,58.6938182 C52.6134545,57.9738182 53.148,57.2538182 53.6934545,57.0792727 C54.2170909,56.9265455 54.5552727,57.3738182 54.4352727,58.1047273 L53.5952727,62.9810909 Z" id="Fill-45" fill="#0381A9"></path>
                <path d="M56.184,61.8149091 C56.064,62.5349091 55.5185455,63.2549091 54.9949091,63.4185455 C54.4603636,63.5930909 54.1330909,63.1349091 54.2421818,62.4149091 L55.2567273,56.5021818 C55.3767273,55.7821818 55.9112727,55.0512727 56.4349091,54.8876364 C56.9694545,54.7349091 57.3185455,55.1821818 57.1876364,55.9021818 L56.184,61.8149091 Z" id="Fill-47" fill="#0381A9"></path>
                <path d="M58.7727273,60.6476364 C58.6527273,61.3676364 58.1181818,62.0876364 57.5836364,62.2512727 C57.0490909,62.4149091 56.7218182,61.9676364 56.8309091,61.2367273 L58.02,54.2985455 C58.1290909,53.5785455 58.6745455,52.8585455 59.2090909,52.6949091 C59.7436364,52.5312727 60.0818182,52.9894545 59.9509091,53.7094545 L58.7727273,60.6476364 Z" id="Fill-49" fill="#0381A9"></path>
                <path d="M61.4792727,58.48 C61.3592727,59.2 60.8247273,59.9309091 60.3010909,60.0836364 C59.7556364,60.2581818 59.4283636,59.8 59.5483636,59.08 L60.552,53.1672727 C60.6829091,52.4472727 61.2065455,51.7163636 61.7410909,51.5636364 C62.2756364,51.4 62.6138182,51.8472727 62.4938182,52.5672727 L61.4792727,58.48 Z" id="Fill-51" fill="#0381A9"></path>
                <path d="M64.1847273,56.3232727 C64.0647273,57.0432727 63.5301818,57.7632727 63.0065455,57.9269091 C62.4610909,58.1014545 62.1338182,57.6432727 62.2538182,56.9232727 L63.0829091,52.036 C63.2029091,51.316 63.7374545,50.596 64.272,50.4323636 C64.8065455,50.2687273 65.1447273,50.716 65.0138182,51.436 L64.1847273,56.3232727 Z" id="Fill-53" fill="#0381A9"></path>
                <path d="M66.7625455,54.5756364 C66.6316364,55.2956364 66.0970909,56.0156364 65.5734545,56.1792727 C65.0389091,56.3429091 64.7007273,55.8956364 64.8207273,55.1647273 L65.4861818,51.292 C65.6061818,50.572 66.1298182,49.852 66.6643636,49.6883636 C67.1989091,49.5247273 67.5370909,49.9829091 67.4170909,50.7029091 L66.7625455,54.5756364 Z" id="Fill-55" fill="#0381A9"></path>
                <path d="M51.1450909,63.7589091 C51.0250909,64.4789091 50.4905455,65.1989091 49.9669091,65.3625455 C49.4323636,65.5370909 49.0941818,65.0789091 49.2141818,64.3589091 L49.8796364,60.4752727 C49.9996364,59.7552727 50.5232727,59.0352727 51.0578182,58.8716364 C51.5923636,58.708 51.9305455,59.1661818 51.8105455,59.8861818 L51.1450909,63.7589091 Z" id="Fill-57" fill="#0381A9"></path>
                <path d="M54.8847273,47.4749091 C44.3901818,48.6530909 35.9683636,55.1985455 32.2047273,63.3912727 C31.4956364,62.2676364 30.9283636,60.9585455 30.5683636,59.3330909 C27.5138182,45.6094545 38.7501818,31.144 54.8847273,29.3330909 L54.8847273,47.4749091 Z" id="Fill-59" fill="#7EE0FF"></path>
                <path d="M54.2127273,62.6352727 C54.0927273,63.3552727 53.5581818,64.0752727 53.0345455,64.2389091 C52.4890909,64.4134545 52.1618182,63.9552727 52.2818182,63.2243636 L53.1109091,58.348 C53.2309091,57.628 53.7654545,56.908 54.3109091,56.7443636 C54.8454545,56.5807273 55.1727273,57.028 55.0527273,57.748 L54.2127273,62.6352727 Z" id="Fill-61" fill="#7EE0FF"></path>
                <path d="M56.8014545,61.468 C56.6705455,62.188 56.136,62.908 55.6123636,63.0716364 C55.0778182,63.2461818 54.7505455,62.788 54.8596364,62.068 L55.8741818,56.1552727 C55.9941818,55.4243636 56.5287273,54.7043636 57.0523636,54.5407273 C57.5869091,54.388 57.936,54.8352727 57.8050909,55.5552727 L56.8014545,61.468 Z" id="Fill-63" fill="#7EE0FF"></path>
                <path d="M59.3912727,60.3018182 C59.2712727,61.0218182 58.7367273,61.7418182 58.2021818,61.9054545 C57.6676364,62.0690909 57.3403636,61.6218182 57.4494545,60.8909091 L58.6385455,53.9527273 C58.7585455,53.2327273 59.2930909,52.5127273 59.8276364,52.3490909 C60.3621818,52.1854545 60.7003636,52.6436364 60.5694545,53.3636364 L59.3912727,60.3018182 Z" id="Fill-65" fill="#7EE0FF"></path>
                <path d="M62.0967273,58.1341818 C61.9767273,58.8541818 61.4421818,59.5741818 60.9185455,59.7378182 C60.3730909,59.9123636 60.0458182,59.4541818 60.1658182,58.7341818 L61.1694545,52.8214545 C61.3003636,52.1014545 61.8349091,51.3705455 62.3585455,51.2178182 C62.8930909,51.0541818 63.2312727,51.5014545 63.1112727,52.2214545 L62.0967273,58.1341818 Z" id="Fill-67" fill="#7EE0FF"></path>
                <path d="M64.8021818,55.9763636 C64.6821818,56.6963636 64.1476364,57.4163636 63.624,57.58 C63.0785455,57.7436364 62.7512727,57.2963636 62.8712727,56.5763636 L63.7003636,51.6890909 C63.8203636,50.9690909 64.3549091,50.2490909 64.8894545,50.0745455 C65.424,49.9109091 65.7621818,50.3690909 65.6312727,51.1 L64.8021818,55.9763636 Z" id="Fill-69" fill="#7EE0FF"></path>
                <path d="M67.3810909,54.2243636 C67.2501818,54.9443636 66.7156364,55.6643636 66.192,55.828 C65.6574545,56.0025455 65.3192727,55.5443636 65.4392727,54.8243636 L66.1047273,50.9516364 C66.2247273,50.2207273 66.7483636,49.5007273 67.2829091,49.3370909 C67.8174545,49.1734545 68.1556364,49.6316364 68.0356364,50.3516364 L67.3810909,54.2243636 Z" id="Fill-71" fill="#7EE0FF"></path>
                <path d="M51.7625455,63.4130909 C51.6425455,64.1330909 51.108,64.8530909 50.5843636,65.0167273 C50.0498182,65.1803636 49.7116364,64.7330909 49.8316364,64.0130909 L50.4861818,60.1294545 C50.6170909,59.4094545 51.1407273,58.6894545 51.6752727,58.5258182 C52.2098182,58.3621818 52.548,58.8203636 52.428,59.5403636 L51.7625455,63.4130909 Z" id="Fill-73" fill="#7EE0FF"></path>
            </g>
        </g>
    </g>
</svg>