<svg xmlns="http://www.w3.org/2000/svg" xmlns:xlink="http://www.w3.org/1999/xlink" width="500" height="310" viewBox="0 0 500 310">
    <defs>
        <path id="lcve1w2lka" d="M0 0H500V310H0z"/>
    </defs>
    <g fill="none" fill-rule="evenodd">
        <g>
            <g transform="translate(-739 -4708) translate(739 4708)">
                <mask id="9yid4mhvyb" fill="#fff">
                    <use xlink:href="#lcve1w2lka"/>
                </mask>
                <use fill="#22262F" xlink:href="#lcve1w2lka"/>
                <g fill="#FFF" fill-rule="nonzero" mask="url(#9yid4mhvyb)">
                    <g>
                        <path d="M27.551 0v31.797l22.436-2.441V12.024L27.551 0zm5.131 26.67V8.452l12.338 6.553v9.829l-12.338 1.834zM.441 61.693l22.436 12.024v-27.21L.441 43.69v18.003zM17.844 50.98v14.3L5.49 58.729v-9.305l12.354 1.557z" transform="translate(92 118)"/>
                        <path d="M25.165 37.007L5.491 34.762 5.491 15.088 17.845 8.47 17.845 31.453 22.894 31.814 22.894.017.458 12.041.458 39.218 25.165 42.068 44.938 39.841 44.938 58.614 32.6 65.232 32.6 46.115 27.551 46.475 27.551 73.718 49.987 61.661 49.987 34.156zM90.504 29.529h2.945c-.135-3.792-3.632-6.627-8.492-6.627-4.81 0-8.59 2.798-8.59 7.02 0 3.386 2.455 5.399 6.382 6.528l3.092.883c2.65.736 5.006 1.669 5.006 4.172 0 2.749-2.65 4.565-6.135 4.565-2.994 0-5.645-1.325-5.89-4.172h-3.141c.294 4.123 3.632 6.92 9.031 6.92 5.792 0 9.08-3.19 9.08-7.264 0-4.712-4.466-6.233-7.067-6.92l-2.553-.688c-1.865-.49-4.86-1.472-4.86-4.172 0-2.405 2.21-4.172 5.547-4.172 3.043 0 5.35 1.448 5.645 3.927zM97.422 25.946L105.324 25.946 105.324 48.377 108.367 48.377 108.367 25.946 116.27 25.946 116.27 23.246 97.422 23.246zM119.061 48.377l2.528-7.117h10.16l2.529 7.117h3.19l-9.228-25.13H125.1l-9.228 25.13h3.19zm3.485-9.817l4.025-11.338h.197l4.025 11.338h-8.247zM141.382 48.377h9.08c5.94 0 8.394-2.896 8.394-6.675 0-3.976-2.749-6.136-5.055-6.283v-.246c2.16-.589 4.073-2.012 4.073-5.251 0-3.682-2.454-6.676-7.706-6.676h-8.786v25.131zm3.044-2.7V36.94h6.184c3.289 0 5.35 2.21 5.35 4.762 0 2.208-1.521 3.975-5.497 3.975h-6.037zm0-11.387v-8.344h5.742c3.338 0 4.81 1.767 4.81 3.976 0 2.65-2.16 4.368-4.908 4.368h-5.644zM163.857 48.377L178.582 48.377 178.582 45.677 166.9 45.677 166.9 23.246 163.857 23.246zM183.293 48.377L198.656 48.377 198.656 45.677 186.337 45.677 186.337 37.137 197.675 37.137 197.675 34.437 186.337 34.437 186.337 25.946 198.46 25.946 198.46 23.246 183.293 23.246zM203.946 48.377L206.99 48.377 206.99 37.137 220.39 37.137 220.39 48.377 223.432 48.377 223.432 23.246 220.39 23.246 220.39 34.437 206.99 34.437 206.99 23.246 203.946 23.246zM250.73 35.812c0-7.952-4.665-12.91-11.094-12.91-6.43 0-11.092 4.958-11.092 12.91 0 7.951 4.662 12.909 11.092 12.909 6.429 0 11.093-4.958 11.093-12.91zm-2.946 0c0 6.528-3.584 10.062-8.148 10.062-4.565 0-8.149-3.534-8.149-10.062 0-6.529 3.584-10.063 8.15-10.063 4.563 0 8.147 3.534 8.147 10.063zM272.338 23.246v16.64c0 3.926-3.14 6.086-6.725 6.086-3.583 0-6.725-2.16-6.725-6.087V23.246h-3.042v16.64c0 5.644 4.466 8.933 9.767 8.933 5.301 0 9.768-3.289 9.768-8.934V23.246h-3.043zM295.2 29.529h2.946c-.134-3.792-3.632-6.627-8.49-6.627-4.81 0-8.59 2.798-8.59 7.02 0 3.386 2.454 5.399 6.381 6.528l3.091.883c2.65.736 5.008 1.669 5.008 4.172 0 2.749-2.65 4.565-6.137 4.565-2.994 0-5.644-1.325-5.889-4.172h-3.141c.295 4.123 3.632 6.92 9.03 6.92 5.792 0 9.08-3.19 9.08-7.264 0-4.712-4.466-6.233-7.066-6.92l-2.553-.688c-1.865-.49-4.86-1.472-4.86-4.172 0-2.405 2.21-4.172 5.546-4.172 3.045 0 5.352 1.448 5.645 3.927zM303.494 48.377L318.857 48.377 318.857 45.677 306.537 45.677 306.537 37.137 317.876 37.137 317.876 34.437 306.537 34.437 306.537 25.946 318.661 25.946 318.661 23.246 303.494 23.246z" transform="translate(92 118)"/>
                    </g>
                </g>
            </g>
        </g>
    </g>
</svg>
